<svg xmlns="http://www.w3.org/2000/svg" width="172" height="117" fill="none"><path fill="#C0C6CF" d="M10.976 15.832h146.142c1.068 0 1.935.867 1.935 1.935v93.275a4.19 4.19 0 0 1-4.185 4.186H12.935a4.19 4.19 0 0 1-4.185-4.186V18.058c0-1.228.998-2.226 2.226-2.226"/><path fill="#C0C6CF" d="M2.465 107.876h162.842v4.755a3.943 3.943 0 0 1-3.941 3.941H6.406a3.943 3.943 0 0 1-3.941-3.941z"/><path fill="#fff" d="M154.599 19.783H12.785v83.937H154.6z"/><path fill="#6B778B" d="m69.085 107.876 2.02 3.215H99.54l1.877-3.215z"/><path fill="#6B778B" d="M159.077 107.847H8.774v.48h150.303z"/><g filter="url(#a)"><path fill="#FBFCFD" d="M46.823 3.986s4.869 1.686 4.869 12.52v83.937h14.81V13.434c0-3.96-3.439-7.167-7.675-7.16z"/></g><g filter="url(#b)"><path fill="#FBFCFD" d="M101.754 3.986s4.868 1.686 4.868 12.52v83.937h14.811V13.434c0-3.96-3.439-7.167-7.675-7.16z"/></g><path fill="#E0E0E0" d="M51.726 15.832H36.11v-5.498c0-3.883 3.144-7.164 7.027-7.164l8.589.135z"/><path fill="#FBFCFD" d="M42.803 3.162s8.886-.806 8.886 10.784v89.774h69.742V10.656A7.656 7.656 0 0 0 113.756 3l-70.953.16z"/><path fill="url(#c)" d="M117.204 14.977H57.248c-.954 0-1.727.774-1.727 1.727v14.797c0 .954.773 1.727 1.727 1.727h59.956c.954 0 1.727-.773 1.727-1.727V16.704c0-.953-.773-1.727-1.727-1.727"/><g filter="url(#d)"><path fill="#FFD237" stroke="#fff" stroke-miterlimit="10" stroke-width=".494" d="m117.728 40.213-6.869 11.863a.317.317 0 0 0 .368.463l4.364-1.337a.317.317 0 0 1 .405.24l.898 4.367c.061.293.458.349.594.082l6.661-12.885-6.426-2.793z"/></g><g filter="url(#e)"><path fill="#FFD237" stroke="#fff" stroke-miterlimit="10" stroke-width=".494" d="m121.123 46.586 4.74 12.863c.099.272.482.279.594.012l1.758-4.212a.32.32 0 0 1 .443-.157l3.934 2.098a.318.318 0 0 0 .443-.405l-5.658-13.355-6.254 3.16z"/></g><g filter="url(#f)"><path fill="url(#g)" stroke="#fff" stroke-width=".494" d="m126.161 22.98.683.85a3.16 3.16 0 0 0 2.8 1.16l1.083-.118a3.155 3.155 0 0 1 3.478 3.478l-.119 1.082a3.15 3.15 0 0 0 1.16 2.8l.851.683a3.154 3.154 0 0 1 0 4.917l-.851.683a3.16 3.16 0 0 0-1.16 2.8l.119 1.083a3.156 3.156 0 0 1-3.478 3.478l-1.083-.119a3.15 3.15 0 0 0-2.8 1.16l-.683.85a3.153 3.153 0 0 1-4.917 0l-.683-.85a3.16 3.16 0 0 0-2.8-1.16l-1.082.119a3.157 3.157 0 0 1-3.479-3.478l.119-1.083a3.15 3.15 0 0 0-1.16-2.8l-.85-.683a3.153 3.153 0 0 1 0-4.917l.85-.683a3.16 3.16 0 0 0 1.16-2.8l-.119-1.082a3.156 3.156 0 0 1 3.479-3.479l1.082.12a3.15 3.15 0 0 0 2.8-1.161l.683-.85a3.153 3.153 0 0 1 4.917 0Z"/></g><path fill="#fff" d="M129.339 41.116a7.973 7.973 0 1 0-11.276-11.276 7.973 7.973 0 0 0 11.276 11.276"/><path fill="url(#h)" d="m126.067 33.535 2.543.688a.522.522 0 0 1 .181.918l-2.092 1.601a.52.52 0 0 0-.204.441l.133 2.63a.522.522 0 0 1-.818.456l-2.168-1.495a.53.53 0 0 0-.482-.058l-2.461.94a.521.521 0 0 1-.685-.637l.751-2.524a.52.52 0 0 0-.095-.477l-1.654-2.05a.523.523 0 0 1 .392-.85l2.633-.065a.52.52 0 0 0 .424-.237l1.439-2.207a.522.522 0 0 1 .93.112l.876 2.485a.52.52 0 0 0 .357.33"/><g fill="#102770"><path d="M101.231 46.273H69.318a.88.88 0 1 1 0-1.758h31.913a.879.879 0 1 1 0 1.758M106.305 55.894H69.32a.88.88 0 1 1 0-1.759h36.985a.879.879 0 1 1 0 1.759M90.068 65.514h-20.75a.88.88 0 1 1 0-1.758h20.75a.88.88 0 1 1 0 1.758M104.097 75.135h-34.78a.88.88 0 1 1 0-1.759h34.78a.88.88 0 0 1 0 1.759M104.097 84.755h-34.78a.88.88 0 1 1 0-1.758h34.78a.88.88 0 0 1 0 1.758"/></g><path fill="url(#i)" d="M172.001 48.325s-3.424 14.026-18.754 10.812c0 0 4.442-14.203 18.754-10.812"/><path fill="url(#j)" d="M164.594 69.566s-7.036 10.493-18.662 3.236c0 0 7.927-10.333 18.662-3.236"/><path fill="url(#k)" d="M153.382 85.574s-10.267 8.731-20.101-2.088c0 0 11.135-8.308 20.101 2.088"/><path fill="url(#l)" d="M142.51 51.638s11.386 5.471 5.861 18.013c0 0-11.355-6.375-5.861-18.013"/><path fill="url(#m)" d="M140.037 66.757s5.68 7.668-2.783 14.254c0 0-5.317-8.27 2.783-14.254"/><path fill="url(#n)" d="M166.377 31.922s1.306 11.37-10.974 13.19c0 0-.599-11.78 10.974-13.19"/><path fill="url(#o)" d="M148.764 20.42s9.933 4.149 5.619 15.79c0 0-9.952-4.969-5.619-15.79"/><path fill="url(#p)" d="M142.769 37.03s13.152 1.502 11.994 15.814c0 0-13.431-2.405-11.994-15.814"/><path fill="#13807B" d="M124.056 86.99s.055-.019.167-.048q.173-.047.491-.13c.434-.114 1.076-.267 1.885-.53a36.3 36.3 0 0 0 6.619-2.786c2.674-1.434 5.668-3.52 8.577-6.288a45 45 0 0 0 4.239-4.653l.986-1.325q.247-.334.498-.67c.16-.228.308-.468.466-.703q.46-.71.93-1.427l.857-1.499.426-.753.381-.773c.251-.513.508-1.02.75-1.53l.657-1.546c.106-.257.22-.509.32-.765q.139-.39.278-.776l.547-1.528q.23-.77.451-1.528.111-.38.223-.751c.075-.25.123-.504.186-.753l.349-1.485c.862-3.926 1.051-7.567.979-10.6-.071-3.041-.511-5.47-.8-7.142-.179-.83-.336-1.47-.433-1.908l-.112-.497-.034-.172s.02.056.049.167q.043.175.126.494c.106.436.274 1.076.462 1.904.306 1.671.766 4.103.848 7.153.087 3.04-.092 6.692-.949 10.63l-.349 1.49c-.063.25-.109.506-.184.755l-.223.756q-.224.759-.45 1.533-.272.76-.548 1.533-.138.39-.278.778c-.1.257-.214.511-.32.768q-.327.77-.656 1.552c-.243.511-.502 1.02-.754 1.536l-.382.775-.429.756-.86 1.504q-.469.722-.935 1.431c-.157.235-.305.477-.465.705l-.501.673q-.501.67-.991 1.33a44.5 44.5 0 0 1-4.258 4.663c-2.926 2.77-5.934 4.856-8.623 6.28a35.5 35.5 0 0 1-6.653 2.75c-.812.256-1.458.399-1.894.503q-.319.076-.497.116l-.169.034z"/><path fill="#13807B" d="M138.808 72.938s.005.116-.009.322c-.017.206-.046.504-.092.87-.09.73-.24 1.74-.456 2.845a40 40 0 0 1-.649 2.81 23 23 0 0 1-.242.84c-.063.197-.102.306-.111.303-.01-.002.009-.116.055-.317l.196-.85c.168-.717.39-1.71.606-2.812a81 81 0 0 0 .499-2.834q.084-.51.138-.862c.034-.204.058-.315.068-.315zM141.606 84.327s-.116 0-.324-.03l-.872-.128a100 100 0 0 0-2.88-.388c-1.129-.13-2.151-.225-2.892-.29q-.52-.046-.879-.078c-.209-.019-.322-.036-.322-.046s.116-.014.324-.012c.208 0 .511.012.882.03a45.536 45.536 0 0 1 5.784.678c.365.067.661.128.864.174.204.046.315.077.313.087zM155.443 70.41s-.133.04-.38.091q-.412.081-1.041.206c-.88.174-2.088.426-3.416.748a84 84 0 0 0-3.378.899q-.616.178-1.02.293c-.24.068-.375.102-.378.092-.002-.01.126-.063.361-.148.235-.087.579-.203 1.005-.339.853-.273 2.044-.62 3.374-.942s2.548-.56 3.432-.705c.443-.072.802-.128 1.051-.157.25-.032.388-.044.388-.034zM145.394 59.658s.092.118.235.348c.145.228.337.57.56.998.445.858.978 2.088 1.387 3.505.407 1.42.608 2.747.686 3.708.039.482.058.872.056 1.14 0 .27-.003.42-.013.42s-.026-.148-.046-.417c-.017-.269-.05-.656-.104-1.133a22.4 22.4 0 0 0-.724-3.677 22.6 22.6 0 0 0-1.339-3.5c-.209-.433-.385-.78-.514-1.015-.126-.237-.191-.37-.184-.377M160.646 53.115s-.104.085-.303.214q-.338.218-.843.55a36 36 0 0 0-2.674 1.959 35 35 0 0 0-2.47 2.209c-.283.283-.523.52-.712.71-.167.169-.264.259-.271.251-.008-.007.075-.111.227-.29a18 18 0 0 1 .681-.746 27 27 0 0 1 5.161-4.183c.364-.226.659-.398.87-.511.208-.114.327-.172.332-.163zM146.286 42.732s.041.024.109.082q.119.104.291.26c.249.225.603.561 1.034.983a55 55 0 0 1 6.104 7.16c.348.491.625.893.809 1.177q.123.194.208.327a.6.6 0 0 1 .065.118.5.5 0 0 1-.089-.101l-.233-.31-.845-1.148a75 75 0 0 0-2.926-3.677 75 75 0 0 0-3.166-3.474l-.998-1.017c-.106-.111-.196-.2-.268-.278a.6.6 0 0 1-.088-.105zM162.126 35.618s-.094.133-.283.356l-.797.942c-.668.8-1.567 1.924-2.492 3.217a55 55 0 0 0-2.238 3.398c-.257.429-.47.787-.635 1.059-.148.252-.235.387-.245.382-.009-.005.061-.15.194-.412.133-.259.334-.632.594-1.085a41.4 41.4 0 0 1 4.74-6.629c.344-.392.629-.702.833-.913.203-.21.317-.322.327-.315zM150.236 24.823s.082.145.206.416c.123.272.298.669.506 1.16a96 96 0 0 1 1.536 3.886 93 93 0 0 1 1.363 3.95c.163.509.289.923.371 1.211s.123.448.114.45c-.01.003-.071-.15-.17-.433l-.416-1.194c-.349-1.01-.839-2.403-1.405-3.931a220 220 0 0 0-1.492-3.897l-.463-1.18c-.106-.278-.162-.436-.152-.438z"/><path fill="url(#q)" d="M0 45.202s3.236 13.254 17.723 10.22c0 0-4.198-13.424-17.723-10.22"/><path fill="url(#r)" d="M7 65.277s6.651 9.916 17.638 3.059c0 0-7.492-9.764-17.638-3.06"/><path fill="url(#s)" d="M17.594 80.403s9.703 8.252 18.994-1.974c0 0-10.522-7.853-18.994 1.974"/><path fill="url(#t)" d="M27.869 48.332s-10.762 5.17-5.54 17.022c0 0 10.73-6.024 5.54-17.022"/><path fill="url(#u)" d="M30.206 62.62s-5.367 7.244 2.63 13.469c0 0 5.026-7.814-2.63-13.47"/><path fill="url(#v)" d="M5.316 29.7s-1.235 10.745 10.37 12.465c0 0 .564-11.132-10.37-12.464"/><path fill="url(#w)" d="M21.958 18.83s-9.385 3.92-5.309 14.92c0 0 9.405-4.693 5.31-14.92"/><path fill="url(#x)" d="M27.624 34.528S15.196 35.945 16.29 49.47c0 0 12.692-2.274 11.333-14.942"/><path fill="#13807B" d="m48.034 82.66-.167-.031-.492-.112c-.431-.1-1.07-.235-1.875-.472a40.5 40.5 0 0 1-6.656-2.497c-1.363-.635-2.807-1.432-4.306-2.367-1.504-.927-3.032-2.049-4.558-3.323a40 40 0 0 1-4.455-4.36q-.52-.623-1.046-1.26c-.34-.433-.661-.883-.998-1.331l-.501-.676-.463-.71c-.305-.477-.63-.947-.925-1.439-.564-1-1.15-1.971-1.62-2.986-.521-.99-.928-2.015-1.352-3.01-.775-2.02-1.431-4.01-1.858-5.952-.908-3.873-1.182-7.474-1.107-10.478.075-3.008.48-5.415.795-7.065.172-.821.349-1.45.45-1.882l.124-.487q.045-.164.046-.164l-.032.17-.109.49c-.092.432-.259 1.064-.421 1.885-.298 1.65-.685 4.055-.746 7.056-.063 2.996.22 6.583 1.133 10.444.43 1.935 1.086 3.916 1.858 5.93.424.99.831 2.012 1.347 2.998.467 1.012 1.053 1.98 1.615 2.976.296.49.618.957.923 1.434l.46.708.5.673c.334.446.656.896.992 1.327l1.042 1.255a40.6 40.6 0 0 0 4.432 4.35c1.519 1.271 3.038 2.393 4.537 3.323a41 41 0 0 0 4.287 2.376 42 42 0 0 0 6.627 2.536c.802.247 1.439.39 1.867.499q.316.079.487.126c.11.029.165.048.165.048z"/><path fill="#375A64" d="M31.367 68.462s.034.104.066.295q.054.338.133.814c.109.688.269 1.635.472 2.676.204 1.042.414 1.98.57 2.657l.183.805c.042.19.061.297.051.3-.01.002-.048-.1-.106-.284-.06-.186-.138-.457-.23-.791a39 39 0 0 1-1.047-5.346c-.04-.346-.07-.627-.084-.821-.015-.194-.02-.303-.008-.303zM28.725 79.223s.104-.039.295-.082c.192-.044.472-.102.819-.167.693-.131 1.654-.284 2.722-.41a41 41 0 0 1 2.744-.232c.352-.017.638-.027.834-.027s.305.002.307.012c0 .01-.106.027-.302.046l-.831.075c-.7.06-1.67.15-2.735.276a99 99 0 0 0-2.722.364q-.485.07-.824.118c-.196.027-.305.037-.305.027z"/><path fill="#13807B" d="M15.648 66.071s.133 0 .368.032c.235.029.574.08.993.147.835.138 1.986.361 3.243.666s2.383.633 3.19.894c.404.13.729.24.95.322.222.083.343.131.34.14-.002.01-.13-.021-.358-.084q-.385-.111-.964-.276a80 80 0 0 0-3.194-.848 83 83 0 0 0-3.227-.707l-.983-.196c-.233-.046-.36-.078-.358-.088zM25.145 55.91s-.054.134-.172.356c-.122.223-.289.553-.485.96-.395.816-.88 1.976-1.264 3.306a21.6 21.6 0 0 0-.686 3.473c-.05.45-.082.819-.099 1.07-.02.255-.034.395-.044.395s-.014-.14-.014-.397c0-.254.014-.625.05-1.08a18.6 18.6 0 0 1 .647-3.505c.388-1.34.892-2.504 1.313-3.313.21-.405.393-.727.528-.942.136-.216.213-.335.223-.33zM10.73 49.73s.117.045.315.152c.199.106.48.271.824.482a25.4 25.4 0 0 1 4.88 3.953c.279.29.497.532.642.705.146.171.223.268.216.276-.008.007-.1-.078-.257-.238q-.274-.27-.673-.67a34 34 0 0 0-2.335-2.089 34 34 0 0 0-2.526-1.852q-.474-.31-.795-.521c-.189-.121-.29-.194-.286-.204zM24.302 39.917s-.114.136-.337.364l-.942.961a71 71 0 0 0-2.992 3.282 70 70 0 0 0-2.766 3.473l-.799 1.083c-.189.257-.296.395-.305.39s.082-.155.257-.424c.172-.266.433-.649.763-1.112.658-.93 1.61-2.184 2.736-3.51a52 52 0 0 1 3.03-3.26c.408-.399.742-.716.98-.93.234-.213.37-.329.377-.322zM9.333 33.194s.117.099.31.297c.194.2.463.492.79.863a39 39 0 0 1 4.48 6.263c.245.429.437.78.56 1.025.126.244.192.383.182.39-.01.005-.092-.124-.232-.361-.155-.26-.359-.596-.601-1a54 54 0 0 0-2.115-3.212 52 52 0 0 0-2.354-3.04l-.753-.891c-.18-.21-.274-.33-.267-.337zM20.57 22.994s-.041.153-.143.417c-.114.288-.26.663-.436 1.114-.37.94-.875 2.24-1.41 3.684a180 180 0 0 0-1.327 3.715l-.395 1.13c-.094.265-.153.41-.162.408s.029-.155.106-.426c.078-.271.197-.663.35-1.146.304-.963.752-2.286 1.288-3.732a84 84 0 0 1 1.453-3.672c.196-.465.36-.84.48-1.097.118-.257.186-.397.196-.392z"/><g fill="#fff"><path d="M62.349 28.132a.7.7 0 0 1-.441-.126.54.54 0 0 1-.213-.34c-.03-.142 0-.3.082-.474l2.48-5.435q.155-.33.368-.48.215-.15.494-.15.28 0 .495.15.213.15.358.48l2.5 5.435a.8.8 0 0 1 .092.48.5.5 0 0 1-.199.338.7.7 0 0 1-.426.122q-.33 0-.509-.155a1.3 1.3 0 0 1-.315-.485l-.581-1.347.6.417h-4.04l.601-.417-.571 1.347q-.145.34-.306.49-.16.15-.47.15m2.751-5.32-1.24 2.956-.262-.378h3.033l-.262.378-1.25-2.955zM71.495 28.15q-.669 0-1.12-.222a1.45 1.45 0 0 1-.668-.649q-.218-.425-.218-1.075v-1.822h-.407q-.272 0-.421-.145a.53.53 0 0 1-.15-.397q0-.272.15-.412.15-.141.421-.14h.407v-.737q.001-.368.194-.557t.543-.189c.232 0 .419.063.542.189q.185.19.184.557v.736h.92q.272 0 .417.14t.145.413q0 .251-.145.397-.145.145-.416.145h-.92v1.763q0 .408.188.61.188.204.606.204.145 0 .27-.029.128-.029.234-.039a.27.27 0 0 1 .222.083q.088.091.088.402 0 .232-.078.407a.47.47 0 0 1-.271.252q-.127.048-.344.082a3 3 0 0 1-.373.034"/><path d="M75.06 28.15q-.67 0-1.12-.222a1.45 1.45 0 0 1-.668-.649q-.219-.425-.218-1.075v-1.822h-.407q-.273 0-.422-.145a.53.53 0 0 1-.15-.397q0-.272.15-.412.15-.141.422-.14h.407v-.737q0-.368.194-.557.193-.189.542-.189c.233 0 .42.063.543.189q.184.19.184.557v.736h.92q.272 0 .417.14t.145.413q0 .251-.145.397-.145.145-.417.145h-.92v1.763q0 .408.189.61.189.204.605.204.145 0 .271-.029a2 2 0 0 1 .233-.039.27.27 0 0 1 .223.083q.087.091.087.402 0 .232-.078.407a.47.47 0 0 1-.27.252q-.128.048-.345.082a3 3 0 0 1-.373.034M79.06 28.151q-.841 0-1.448-.305a2.2 2.2 0 0 1-.93-.863q-.325-.556-.325-1.312c0-.504.105-.923.31-1.294a2.24 2.24 0 0 1 .868-.872q.556-.315 1.264-.314.511-.001.93.17.416.169.717.483.3.316.455.766t.155 1.003q0 .184-.116.276a.54.54 0 0 1-.34.092H77.56v-.756H80l-.155.136q0-.397-.116-.664a.86.86 0 0 0-.334-.402 1 1 0 0 0-.538-.136q-.36 0-.61.165a1.05 1.05 0 0 0-.388.475q-.135.31-.135.746v.077q-.001.738.343 1.085.344.35 1.023.35.231 0 .532-.059t.562-.184a.65.65 0 0 1 .398-.073.43.43 0 0 1 .27.16.54.54 0 0 1 .112.29.56.56 0 0 1-.072.325.67.67 0 0 1-.291.267q-.33.184-.741.276-.41.091-.8.092M83.731 28.151q-.425 0-.877-.078-.451-.076-.818-.261a.63.63 0 0 1-.276-.247.54.54 0 0 1 .028-.586.44.44 0 0 1 .243-.17.5.5 0 0 1 .334.034q.396.164.727.233.33.068.649.067.417 0 .605-.13a.4.4 0 0 0 .19-.344q0-.194-.127-.291a.8.8 0 0 0-.368-.136l-1.017-.184q-.601-.106-.925-.44-.325-.335-.325-.858 0-.484.271-.838a1.7 1.7 0 0 1 .751-.543q.48-.189 1.09-.188.436 0 .804.077.369.076.707.252a.53.53 0 0 1 .247.233.5.5 0 0 1 .049.3.6.6 0 0 1-.121.28.45.45 0 0 1-.247.166.55.55 0 0 1-.344-.04 3 3 0 0 0-.572-.208 2.2 2.2 0 0 0-.504-.062q-.435 0-.63.14a.42.42 0 0 0-.193.354q0 .163.111.276.113.111.344.15l1.018.184q.628.105.959.421.33.317.33.858 0 .737-.577 1.158t-1.536.421M88.963 28.15q-.67 0-1.12-.222a1.45 1.45 0 0 1-.668-.649q-.218-.425-.218-1.075v-1.822h-.407q-.272 0-.421-.145a.53.53 0 0 1-.15-.397q0-.272.15-.412.149-.141.421-.14h.407v-.737q0-.368.194-.557.193-.189.542-.189c.233 0 .42.063.543.189q.184.19.184.557v.736h.92q.272 0 .417.14t.145.413q0 .251-.145.397-.145.145-.417.145h-.92v1.763q0 .408.189.61.188.204.605.204.145 0 .272-.029a2 2 0 0 1 .232-.039.27.27 0 0 1 .223.083q.087.091.087.402 0 .232-.077.407a.47.47 0 0 1-.271.252q-.128.048-.345.082a3 3 0 0 1-.372.034M92.15 28.151q-.521 0-.94-.203a1.6 1.6 0 0 1-.648-.553 1.4 1.4 0 0 1-.233-.785q0-.522.271-.828.272-.305.882-.436.611-.13 1.618-.13h.514v.755h-.504q-.494 0-.8.053-.304.054-.436.18a.46.46 0 0 0-.13.348q0 .273.189.446.187.174.547.174a.95.95 0 0 0 .499-.13.94.94 0 0 0 .344-.359q.127-.228.126-.518V25.05q-.001-.427-.194-.606t-.659-.179q-.261 0-.567.063a4 4 0 0 0-.673.208q-.214.098-.378.044a.45.45 0 0 1-.252-.194.6.6 0 0 1-.087-.31q0-.17.097-.33a.58.58 0 0 1 .32-.237q.454-.184.857-.252t.741-.067q.746 0 1.226.218t.722.668.242 1.158v2.15q0 .36-.174.553-.175.193-.504.194-.33-.001-.509-.194-.18-.193-.18-.552v-.359l.069.058a1.23 1.23 0 0 1-.247.567 1.3 1.3 0 0 1-.48.368q-.291.13-.669.131M98.273 28.15q-.669 0-1.119-.222a1.45 1.45 0 0 1-.668-.649q-.219-.425-.218-1.075v-1.822h-.407q-.273 0-.422-.145a.53.53 0 0 1-.15-.397q0-.272.15-.412.15-.141.422-.14h.407v-.737q0-.368.193-.557.194-.189.543-.189c.232 0 .419.063.542.189q.185.19.184.557v.736h.92q.273 0 .417.14.146.141.146.413 0 .251-.145.397-.145.145-.417.145h-.92v1.763q0 .408.189.61.187.204.605.204.144 0 .271-.029t.233-.039a.27.27 0 0 1 .223.083q.087.091.087.402 0 .232-.078.407a.47.47 0 0 1-.271.252q-.127.048-.344.082a3 3 0 0 1-.373.034M100.734 22.416q-.408 0-.625-.19-.218-.188-.218-.537c0-.233.072-.422.218-.548q.217-.188.625-.188.406 0 .62.188.213.189.213.548c0 .24-.071.412-.213.538q-.214.188-.62.189m0 5.706q-.36 0-.548-.208t-.189-.587v-3.313q0-.39.189-.596.189-.207.548-.208c.239 0 .411.07.537.208q.189.207.189.596v3.314q.001.378-.184.586-.184.207-.542.208M104.88 28.151q-.766 0-1.332-.3a2.1 2.1 0 0 1-.877-.863q-.31-.561-.31-1.327 0-.571.175-1.027t.508-.78q.335-.323.8-.494.466-.17 1.036-.17.767 0 1.332.3.566.302.882.854.316.551.315 1.317-.001.582-.179 1.037a2.153 2.153 0 0 1-1.308 1.284q-.47.17-1.042.169m0-1.095a.97.97 0 0 0 .553-.155q.233-.155.368-.46t.135-.78q0-.708-.29-1.041a.97.97 0 0 0-.766-.335q-.31 0-.547.146a.94.94 0 0 0-.368.45q-.13.305-.131.78 0 .707.291 1.051.29.345.755.344M109.037 28.132q-.359-.001-.547-.194t-.189-.552v-3.44q0-.359.189-.547.189-.19.528-.19c.225 0 .409.064.533.19q.184.188.184.547v.552l-.107-.32q.223-.475.664-.73a1.94 1.94 0 0 1 1.002-.257c.376 0 .696.072.94.218q.368.218.552.658.186.44.185 1.12v2.199q0 .36-.189.552t-.548.194c-.24 0-.411-.066-.537-.194q-.189-.193-.189-.552v-2.132q0-.495-.18-.712-.178-.218-.547-.218-.465 0-.741.29-.276.292-.276.776v1.996q0 .745-.727.746"/></g><defs><linearGradient id="c" x1="107.133" x2="67.316" y1="44.011" y2="4.194" gradientUnits="userSpaceOnUse"><stop stop-color="#C86FFF"/><stop offset=".3" stop-color="#A579FF"/><stop offset=".97" stop-color="#4E92FF"/><stop offset="1" stop-color="#4A94FF"/></linearGradient><linearGradient id="g" x1="132.054" x2="115.349" y1="45.983" y2="24.77" gradientUnits="userSpaceOnUse"><stop stop-color="#FEDC41"/><stop offset="1" stop-color="#F59D19"/></linearGradient><linearGradient id="h" x1="127.115" x2="119.934" y1="39.569" y2="32.387" gradientUnits="userSpaceOnUse"><stop stop-color="#FEDC41"/><stop offset="1" stop-color="#F59D19"/></linearGradient><linearGradient id="i" x1="153.247" x2="172.001" y1="53.709" y2="53.709" gradientUnits="userSpaceOnUse"><stop stop-color="#52D987"/><stop offset="1" stop-color="#1A8C89"/></linearGradient><linearGradient id="j" x1="145.932" x2="164.594" y1="71.218" y2="71.218" gradientUnits="userSpaceOnUse"><stop stop-color="#52D987"/><stop offset="1" stop-color="#1A8C89"/></linearGradient><linearGradient id="k" x1="133.281" x2="153.382" y1="84.622" y2="84.622" gradientUnits="userSpaceOnUse"><stop stop-color="#52D987"/><stop offset="1" stop-color="#1A8C89"/></linearGradient><linearGradient id="l" x1="141.008" x2="149.882" y1="60.643" y2="60.643" gradientUnits="userSpaceOnUse"><stop stop-color="#52D987"/><stop offset="1" stop-color="#1A8C89"/></linearGradient><linearGradient id="m" x1="135.542" x2="141.902" y1="73.885" y2="73.885" gradientUnits="userSpaceOnUse"><stop stop-color="#52D987"/><stop offset="1" stop-color="#1A8C89"/></linearGradient><linearGradient id="n" x1="155.398" x2="166.416" y1="38.517" y2="38.517" gradientUnits="userSpaceOnUse"><stop stop-color="#6BBA80"/><stop offset="1" stop-color="#1A8C89"/></linearGradient><linearGradient id="o" x1="147.671" x2="155.468" y1="28.313" y2="28.313" gradientUnits="userSpaceOnUse"><stop stop-color="#6BBA80"/><stop offset="1" stop-color="#1A8C89"/></linearGradient><linearGradient id="p" x1="142.662" x2="154.836" y1="44.936" y2="44.936" gradientUnits="userSpaceOnUse"><stop stop-color="#52D987"/><stop offset="1" stop-color="#188B88"/></linearGradient><linearGradient id="q" x1="0" x2="17.723" y1="50.291" y2="50.291" gradientUnits="userSpaceOnUse"><stop stop-color="#52D987"/><stop offset="1" stop-color="#1A8C89"/></linearGradient><linearGradient id="r" x1="7" x2="24.635" y1="66.837" y2="66.837" gradientUnits="userSpaceOnUse"><stop stop-color="#52D987"/><stop offset="1" stop-color="#1A8C89"/></linearGradient><linearGradient id="s" x1="17.594" x2="36.588" y1="79.501" y2="79.501" gradientUnits="userSpaceOnUse"><stop stop-color="#52D987"/><stop offset="1" stop-color="#1A8C89"/></linearGradient><linearGradient id="t" x1="20.9" x2="29.288" y1="56.843" y2="56.843" gradientUnits="userSpaceOnUse"><stop stop-color="#52D987"/><stop offset="1" stop-color="#1A8C89"/></linearGradient><linearGradient id="u" x1="28.443" x2="34.454" y1="69.356" y2="69.356" gradientUnits="userSpaceOnUse"><stop stop-color="#52D987"/><stop offset="1" stop-color="#1A8C89"/></linearGradient><linearGradient id="v" x1="5.278" x2="15.69" y1="35.933" y2="35.933" gradientUnits="userSpaceOnUse"><stop stop-color="#52D987"/><stop offset="1" stop-color="#1A8C89"/></linearGradient><linearGradient id="w" x1="15.622" x2="22.99" y1="26.291" y2="26.291" gradientUnits="userSpaceOnUse"><stop stop-color="#52D987"/><stop offset="1" stop-color="#1A8C89"/></linearGradient><linearGradient id="x" x1="16.221" x2="27.726" y1="42" y2="42" gradientUnits="userSpaceOnUse"><stop stop-color="#52D987"/><stop offset="1" stop-color="#1A8C89"/></linearGradient><filter id="a" width="26.055" height="102.832" x="43.636" y=".798" color-interpolation-filters="sRGB" filterUnits="userSpaceOnUse"><feFlood flood-opacity="0" result="BackgroundImageFix"/><feColorMatrix in="SourceAlpha" result="hardAlpha" values="0 0 0 0 0 0 0 0 0 0 0 0 0 0 0 0 0 0 127 0"/><feOffset/><feGaussianBlur stdDeviation="1.594"/><feColorMatrix values="0 0 0 0 0.466667 0 0 0 0 0.466667 0 0 0 0 0.466667 0 0 0 0.25 0"/><feBlend in2="BackgroundImageFix" result="effect1_dropShadow_11738_54867"/><feBlend in="SourceGraphic" in2="effect1_dropShadow_11738_54867" result="shape"/></filter><filter id="b" width="26.055" height="102.832" x="98.566" y=".798" color-interpolation-filters="sRGB" filterUnits="userSpaceOnUse"><feFlood flood-opacity="0" result="BackgroundImageFix"/><feColorMatrix in="SourceAlpha" result="hardAlpha" values="0 0 0 0 0 0 0 0 0 0 0 0 0 0 0 0 0 0 127 0"/><feOffset/><feGaussianBlur stdDeviation="1.594"/><feColorMatrix values="0 0 0 0 0.466667 0 0 0 0 0.466667 0 0 0 0 0.466667 0 0 0 0.25 0"/><feBlend in2="BackgroundImageFix" result="effect1_dropShadow_11738_54867"/><feBlend in="SourceGraphic" in2="effect1_dropShadow_11738_54867" result="shape"/></filter><filter id="d" width="17.885" height="20.307" x="109.244" y="38.644" color-interpolation-filters="sRGB" filterUnits="userSpaceOnUse"><feFlood flood-opacity="0" result="BackgroundImageFix"/><feColorMatrix in="SourceAlpha" result="hardAlpha" values="0 0 0 0 0 0 0 0 0 0 0 0 0 0 0 0 0 0 127 0"/><feOffset dx=".659" dy=".659"/><feGaussianBlur stdDeviation=".991"/><feColorMatrix values="0 0 0 0 0.466667 0 0 0 0 0.466667 0 0 0 0 0.466667 0 0 0 0.1 0"/><feBlend in2="BackgroundImageFix" result="effect1_dropShadow_11738_54867"/><feBlend in="SourceGraphic" in2="effect1_dropShadow_11738_54867" result="shape"/></filter><filter id="e" width="16.395" height="20.777" x="119.554" y="41.767" color-interpolation-filters="sRGB" filterUnits="userSpaceOnUse"><feFlood flood-opacity="0" result="BackgroundImageFix"/><feColorMatrix in="SourceAlpha" result="hardAlpha" values="0 0 0 0 0 0 0 0 0 0 0 0 0 0 0 0 0 0 127 0"/><feOffset dx=".659" dy=".659"/><feGaussianBlur stdDeviation=".991"/><feColorMatrix values="0 0 0 0 0.466667 0 0 0 0 0.466667 0 0 0 0 0.466667 0 0 0 0.1 0"/><feBlend in2="BackgroundImageFix" result="effect1_dropShadow_11738_54867"/><feBlend in="SourceGraphic" in2="effect1_dropShadow_11738_54867" result="shape"/></filter><filter id="f" width="31.602" height="31.602" x="108.56" y="20.231" color-interpolation-filters="sRGB" filterUnits="userSpaceOnUse"><feFlood flood-opacity="0" result="BackgroundImageFix"/><feColorMatrix in="SourceAlpha" result="hardAlpha" values="0 0 0 0 0 0 0 0 0 0 0 0 0 0 0 0 0 0 127 0"/><feOffset dx=".659" dy=".659"/><feGaussianBlur stdDeviation=".991"/><feColorMatrix values="0 0 0 0 0.466667 0 0 0 0 0.466667 0 0 0 0 0.466667 0 0 0 0.1 0"/><feBlend in2="BackgroundImageFix" result="effect1_dropShadow_11738_54867"/><feBlend in="SourceGraphic" in2="effect1_dropShadow_11738_54867" result="shape"/></filter></defs></svg>