<svg xmlns="http://www.w3.org/2000/svg" width="116" height="114" fill="none"><g clip-path="url(#a)"><path fill="#F2F2F2" d="M114.04 101.961c-1.415 2.936-4.021 5.12-6.753 6.896a42.7 42.7 0 0 1-9.576 4.635q-.695.238-1.398.449h-18.97a7 7 0 0 1-.378-.449c-1.27-1.627-1.958-3.713-1.708-5.756.32-2.624 2.314-5.035 4.895-5.591 2.584-.559 5.53.983 6.315 3.508.431-4.866.93-9.935 3.515-14.079 2.344-3.751 6.4-6.436 10.795-6.916a13.6 13.6 0 0 1 8.147 1.713c1.393.79 2.623 1.839 3.623 3.09 2.741 3.471 3.412 8.515 1.493 12.5"/><path fill="#fff" d="M108.785 86.678a71.2 71.2 0 0 0-20.522 27.263h-.893q.094-.227.191-.449a71 71 0 0 1 2.866-5.938 72.3 72.3 0 0 1 7.837-11.596 71 71 0 0 1 9.935-9.866.44.44 0 0 1 .491-.042.45.45 0 0 1 .234.32.33.33 0 0 1-.139.308"/><path fill="#FFB8B8" d="M38.401 65.904a2.133 2.133 0 0 0-.27-3.258l-1.077-7.098-4.422 1.392 2.423 6.332a2.143 2.143 0 0 0 3.346 2.632"/><path fill="#F9A826" d="m33.845 62.564-2.728-12.74A7.3 7.3 0 0 1 33.201 43c3.492-3.365 7.98-7.606 9.53-8.703a8 8 0 0 1 5-1.476l.038.004 2.347 2.218-5.112 8.415-7.761 4.862.864 12.488z"/><path fill="#CCC" d="M43.399 45.25H31.951a.898.898 0 1 0 0 1.797h11.448a.898.898 0 1 0 0-1.796M43.399 64.78H31.951a.898.898 0 1 0 0 1.796h11.448a.898.898 0 1 0 0-1.796"/><path fill="#CCC" d="M37.788 113.716a.45.45 0 0 1-.447-.409l-5.724-67.119a.45.45 0 0 1 .894-.079l5.27 62.012 5.12-62.01a.449.449 0 1 1 .894.076l-5.56 67.119a.45.45 0 0 1-.447.41"/><path fill="#FFB8B8" d="M50.635 30.135a5.89 5.89 0 1 0 0-11.78 5.89 5.89 0 0 0 0 11.78M33.081 111.024l-2.8-.892 2.11-11.23 4.134 1.318z"/><path fill="#2F2E41" d="m32.926 113.509-9.018-2.874.075-.234a3.554 3.554 0 0 1 4.459-2.304l5.636 1.797z"/><path fill="#FFB8B8" d="M53.461 110.966h-2.94l-1.399-11.34h4.34z"/><path fill="#2F2E41" d="M44.964 113.584h9.016v-3.345h-5.692a3.33 3.33 0 0 0-3.324 3.324zM53.375 107.286l-.992-.148c-3.01-.448-3.19-.475-3.667-.685-.244-.107-.262-1.727-.115-10.832.107-6.684.241-15.002-.019-19.467a.786.786 0 0 0-1.504-.265c-2.24 5.17-5.997 16.743-8.483 24.401-.864 2.664-1.547 4.768-1.98 6.029a1.017 1.017 0 0 1-1.201.651c-2.046-.512-1.91-.729-4.823-1.483a1.007 1.007 0 0 1-.737-1.186c.527-2.485 10.172-42.785 10.91-46.616a1.01 1.01 0 0 1 1.191-.802c2.172.438 3.493.902 5.639 1.351 2.315.484 4.71.985 7.045 1.453.233.047.441.174.588.36.578.73 1.435 1.14 2.342 1.573.612.293-.774.267-.241.688 2.157 1.708-.945 36.385-2.82 44.217a1.015 1.015 0 0 1-1.133.761M53.146 29.4c-.344-1.46 1.394-4.6 1.05-6.059-.232-.988-2.556-.316-3.098-1.175-.542-.858-1.45-1.553-2.466-1.564-1.167-.014-2.315.852-3.42.478-1.118-.378-1.475-1.909-.981-2.98.494-1.072 1.558-1.754 2.61-2.29 1.79-.91 3.876-1.576 5.793-.973 1.158.364 2.127 1.154 3.065 1.926.854.704 1.723 1.424 2.32 2.356 1.17 1.826 1.1 4.287.1 6.211s-2.822 3.337-4.83 4.157"/><path fill="#F9A826" d="M38.683 63.355c.635-1.062 1.6-6.038 2.79-14.39a660 660 0 0 0 1.867-14.454 1.42 1.42 0 0 1 .8-1.122q.34-.165.677-.312c2.901-1.262 5.841-1.68 8.738-1.243a15.85 15.85 0 0 1 7.839 3.572l.026.025.007.036c.012.065 1.229 6.621-1.263 11.05-2.458 4.37-2.486 15.944-2.486 16.06v.15l-.143-.041c-3.824-1.093-18.593.818-18.742.838l-.23.03z"/><path fill="#CCC" d="M60.909 48.17H49.46a.898.898 0 1 0 0 1.795H60.91a.898.898 0 1 0 0-1.796M60.909 67.699H49.46a.898.898 0 1 0 0 1.795H60.91a.898.898 0 1 0 0-1.795"/><path fill="#CCC" d="M55.296 113.941a.45.45 0 0 1-.447-.409l-5.723-64.425a.45.45 0 0 1 .582-.468.45.45 0 0 1 .312.388l5.27 59.319 5.12-59.318a.449.449 0 1 1 .894.078l-5.56 64.424a.45.45 0 0 1-.447.411"/><path fill="#FFB8B8" d="M51.6 67.983a2.13 2.13 0 0 1 1.997-2.588l4.76-5.374 2.956 3.572-5.474 4a2.143 2.143 0 0 1-4.24.39"/><path fill="#F9A826" d="m54.372 64.243 7.51-10.014-3.872-8.299.28-9.842 3.176-.587.033.017a8 8 0 0 1 3.396 3.956c.706 1.764 2.169 7.763 3.272 12.485a7.3 7.3 0 0 1-1.959 6.86l-9.213 9.213z"/><path fill="#CCC" d="m22.889 111.156 10.275 2.474a.88.88 0 0 0 1.022-.477l8.827-23.467a.72.72 0 0 0 0-.572.82.82 0 0 0-.47-.44l-7.725-2.95a.93.93 0 0 0-.758.042.79.79 0 0 0-.413.505v.001l-5.453 20.683-.08.005c-.032.002-3.158.215-4.563 1.902a2.98 2.98 0 0 0-.662 2.294"/><path fill="#3F3D56" d="M112.206 113.716a.23.23 0 0 1-.138.208.2.2 0 0 1-.086.017H1.09a.225.225 0 0 1-.159-.383.23.23 0 0 1 .159-.066h110.892q.044 0 .086.017a.22.22 0 0 1 .138.207"/><path fill="#B3B3B3" d="m30.33 98.001-.047.447 9.368.992.047-.447zM29.513 101.7l-.184.409 7.539 3.392.184-.409zM40.684 95.848 31.8 92.906l.184-.41 8.886 2.943zM41.582 93.828l-8.886-4.29.185-.41 8.885 4.29zM28.73 105.215l-.291.341 6.406 5.473.291-.341zM26.91 107.029l-.408.186 2.572 5.672.41-.185z"/><path fill="#F2F2F2" d="M87.14 107.297V4.98c0-1.382.027-2.767 0-4.148V.65c0-.867-1.346-.869-1.346 0v102.317c0 1.382-.026 2.766 0 4.148v.181c0 .867 1.347.868 1.347 0"/><path fill="#F2F2F2" d="M94.59 29.248H78.428a1.46 1.46 0 0 1-1.46-1.46V8.147a1.46 1.46 0 0 1 1.46-1.46H94.59a1.46 1.46 0 0 1 1.46 1.46v19.641a1.46 1.46 0 0 1-1.46 1.46"/></g><defs><clipPath id="a"><path fill="#fff" d="M.865 0h114.27v113.941H.864z"/></clipPath></defs></svg>