<svg xmlns="http://www.w3.org/2000/svg" viewBox="0 0 16 18" fill="none">
  <path d="M5.28991 9.9302L6.39595 10.6712L7.57533 10.076C7.7063 9.99992 7.8479 9.96187 8.00012 9.96187C8.15234 9.96187 8.29394 9.99992 8.42491 10.076L9.59929 10.6762L10.6787 9.96187L9.86012 8.33603H6.07658L5.28991 9.9302ZM2.47387 15.6567H13.5055L11.4635 11.5367L10.1849 12.3977C10.0432 12.4942 9.8879 12.546 9.71887 12.5529C9.54984 12.5599 9.38755 12.5237 9.232 12.4444L8.00012 11.8283L6.76825 12.4444C6.61269 12.5237 6.45123 12.5555 6.28387 12.54C6.11651 12.5244 5.962 12.4701 5.82033 12.3769L4.50512 11.5158L2.47387 15.6567ZM1.01512 17.5027C0.655815 17.5027 0.384634 17.3533 0.201578 17.0546C0.0186618 16.7558 0.00657852 16.4476 0.165329 16.13L4.39741 7.55208C4.55616 7.23444 4.78922 6.97805 5.09658 6.78291C5.40394 6.58763 5.73894 6.48999 6.10158 6.48999H7.0772V1.4452C7.0772 1.17923 7.16866 0.954714 7.35158 0.771659C7.5345 0.588742 7.75901 0.497284 8.02512 0.497284H12.3832C12.556 0.497284 12.6898 0.572353 12.7847 0.722492C12.8797 0.87277 12.8875 1.02728 12.808 1.18603L12.3647 2.04124C12.3336 2.11735 12.318 2.18812 12.318 2.25353C12.318 2.31909 12.3336 2.38992 12.3647 2.46603L12.808 3.32103C12.8875 3.47992 12.8797 3.63444 12.7847 3.78458C12.6898 3.93485 12.556 4.00999 12.3832 4.00999H8.92304V6.48999H9.81533C10.178 6.48999 10.5103 6.58499 10.8124 6.77499C11.1145 6.96485 11.3502 7.2186 11.5195 7.53624L15.8141 16.13C15.9728 16.4476 15.9607 16.7558 15.7778 17.0546C15.5948 17.3533 15.3236 17.5027 14.9643 17.5027H1.01512Z" fill="#1C1B1F"/>
</svg>
