<svg width="40" height="40" viewBox="0 0 40 40" fill="none" xmlns="http://www.w3.org/2000/svg">
<circle cx="20" cy="20" r="20" fill="#145C42"/>
<path d="M16.9962 23.6126L27.2552 13.3536C27.5346 13.0742 27.8621 12.9346 28.2379 12.9346C28.6137 12.9346 28.9414 13.0742 29.2209 13.3536C29.5002 13.6331 29.6399 13.9647 29.6399 14.3482C29.6399 14.7318 29.5002 15.0633 29.2209 15.3429L17.9792 26.6079C17.6996 26.8872 17.3719 27.0269 16.9962 27.0269C16.6204 27.0269 16.2927 26.8872 16.0132 26.6079L10.7558 21.3506C10.4765 21.071 10.3407 20.7395 10.3485 20.3559C10.3562 19.9724 10.4998 19.6408 10.7791 19.3613C11.0587 19.0819 11.3902 18.9423 11.7738 18.9423C12.1573 18.9423 12.4889 19.0819 12.7684 19.3613L16.9962 23.6126Z" fill="white"/>
</svg>
