<svg width="40" height="40" viewBox="0 0 40 40" fill="none" xmlns="http://www.w3.org/2000/svg">
<circle cx="20" cy="20" r="20" fill="#952E2E"/>
<path d="M20 21.9514L14.1096 27.842C13.8505 28.1009 13.5253 28.2304 13.134 28.2304C12.7427 28.2304 12.4175 28.1009 12.1584 27.842C11.8995 27.5829 11.77 27.2577 11.77 26.8664C11.77 26.4751 11.8995 26.1498 12.1584 25.8907L18.049 20.0004L12.1584 14.1101C11.8995 13.851 11.77 13.5258 11.77 13.1345C11.77 12.7432 11.8995 12.418 12.1584 12.1589C12.4175 11.9 12.7427 11.7705 13.134 11.7705C13.5253 11.7705 13.8505 11.9 14.1096 12.1589L20 18.0495L25.8903 12.1589C26.1494 11.9 26.4746 11.7705 26.8659 11.7705C27.2572 11.7705 27.5824 11.9 27.8415 12.1589C28.1004 12.418 28.2299 12.7432 28.2299 13.1345C28.2299 13.5258 28.1004 13.851 27.8415 14.1101L21.9509 20.0004L27.8415 25.8907C28.1004 26.1498 28.2299 26.4751 28.2299 26.8664C28.2299 27.2577 28.1004 27.5829 27.8415 27.842C27.5824 28.1009 27.2572 28.2304 26.8659 28.2304C26.4746 28.2304 26.1494 28.1009 25.8903 27.842L20 21.9514Z" fill="white"/>
</svg>
