<svg xmlns="http://www.w3.org/2000/svg" viewBox="0 0 20 20" fill="none">
  <path d="M3.00934 12.2438C3.4485 13.2223 4.06225 14.0793 4.85059 14.8148V17.5348C4.85059 17.8009 4.94204 18.0255 5.12496 18.2084C5.30788 18.3913 5.53239 18.4827 5.7985 18.4827C6.06447 18.4827 6.28892 18.3913 6.47184 18.2084C6.65489 18.0255 6.74642 17.8009 6.74642 17.5348V13.9653L6.17975 13.4403C5.56142 12.8703 5.08461 12.2136 4.74934 11.4703C4.41406 10.7268 4.24642 9.94504 4.24642 9.12504C4.24642 7.53615 4.80809 6.18692 5.93142 5.07733C7.05475 3.96789 8.41093 3.41317 9.99996 3.41317C11.324 3.41317 12.5002 3.80483 13.5285 4.58817C14.5568 5.3715 15.2307 6.38351 15.5502 7.62421L16.317 10.7536H15.0348C14.7688 10.7536 14.5443 10.8451 14.3614 11.0282C14.1784 11.2111 14.0868 11.4355 14.0868 11.7015V14.9202H11.7014C11.4354 14.9202 11.211 15.0118 11.0281 15.1948C10.845 15.3778 10.7535 15.6022 10.7535 15.8682V17.5348C10.7535 17.8009 10.845 18.0255 11.0281 18.2084C11.211 18.3913 11.4354 18.4827 11.7014 18.4827C11.9675 18.4827 12.192 18.3913 12.375 18.2084C12.5579 18.0255 12.6493 17.8009 12.6493 17.5348V16.8161H14.0868C14.6117 16.8161 15.0589 16.6314 15.4285 16.2619C15.7979 15.8923 15.9827 15.4451 15.9827 14.9202V12.6494H17.5448C17.8603 12.6494 18.1127 12.5277 18.302 12.2842C18.4914 12.0407 18.5463 11.7688 18.4668 11.4684L17.3735 7.15275C16.9609 5.48053 16.0711 4.12324 14.7041 3.08088C13.3373 2.03851 11.7688 1.51733 9.9985 1.51733C7.87406 1.51733 6.06829 2.26101 4.58121 3.74837C3.09413 5.23574 2.35059 7.04185 2.35059 9.16671C2.35059 10.2395 2.57017 11.2652 3.00934 12.2438Z" fill="#122647"/>
  <path d="M11.0908 5.33062C10.1669 5.12471 9.27355 5.27077 8.41094 5.76879C7.4251 6.33797 6.80591 7.2007 6.55338 8.35699C6.30085 9.51328 6.48762 10.6336 7.11372 11.7181C7.36273 12.1494 7.66269 12.5266 8.01359 12.8498C8.36449 13.173 8.76277 13.436 9.20845 13.6387C9.41896 13.7472 9.63074 13.744 9.84379 13.6293C10.0568 13.5145 10.1946 13.3405 10.2571 13.1072C10.3196 12.8739 10.2922 12.6557 10.1748 12.4523C10.0574 12.249 9.89603 12.0834 9.69073 11.9554C9.46598 11.8223 9.26185 11.6608 9.07834 11.471C8.89482 11.2812 8.73547 11.0693 8.60029 10.8351C8.20898 10.1574 8.0784 9.46874 8.20854 8.76924C8.33868 8.06973 8.69334 7.55279 9.27252 7.2184C9.72847 6.95515 10.19 6.86529 10.6572 6.94881C11.1245 7.03233 11.4683 7.2651 11.6889 7.64711C11.8525 7.93054 11.9129 8.22017 11.8701 8.51599C11.8273 8.81181 11.6827 9.03087 11.4362 9.17316C11.2637 9.27276 11.0989 9.31453 10.9417 9.29847C10.7846 9.2824 10.6669 9.20659 10.5886 9.07104C10.5601 9.02174 10.5468 8.97193 10.5486 8.92158C10.5505 8.87124 10.5581 8.82577 10.5714 8.78519C10.6532 8.52834 10.63 8.30858 10.5018 8.12592C10.3737 7.94325 10.2089 7.81971 10.0074 7.75531C9.80591 7.6909 9.59769 7.70021 9.38273 7.78324C9.16778 7.86627 9.01004 8.05181 8.90952 8.33988C8.81958 8.62578 8.79861 8.9062 8.8466 9.18114C8.8946 9.45608 8.9859 9.71013 9.12051 9.94328C9.43356 10.4855 9.89705 10.8258 10.511 10.9643C11.1249 11.1028 11.7215 11.0048 12.3007 10.6704C12.9415 10.3004 13.3462 9.74224 13.515 8.99579C13.6838 8.24935 13.5654 7.52492 13.1598 6.82251C12.7045 6.03383 12.0148 5.53654 11.0908 5.33062Z" fill="#122647"/>
</svg>
