<svg xmlns="http://www.w3.org/2000/svg" viewBox="0 0 20 20" fill="none">
  <g mask="url(#mask0_5590_1524)">
    <path
      d="M9.0774 10.9229C9.3367 10.9229 9.55531 10.8331 9.73323 10.6536C9.91128 10.4738 10.0003 10.256 10.0003 10C10.0003 9.74071 9.91128 9.52203 9.73323 9.34398C9.55531 9.16606 9.3367 9.0771 9.0774 9.0771C8.82129 9.0771 8.60344 9.16606 8.42385 9.34398C8.24413 9.52203 8.15427 9.74071 8.15427 10C8.15427 10.256 8.24413 10.4738 8.42385 10.6536C8.60344 10.8331 8.82129 10.9229 9.0774 10.9229ZM5.89844 17.6594V15.7686L10.7391 14.9602V5.91856C10.7391 5.68356 10.6649 5.47363 10.5166 5.28877C10.3684 5.10377 10.1821 4.99412 9.95781 4.95981L5.89844 4.27627V2.38544L10.2676 3.10065C10.9616 3.22162 11.5297 3.54453 11.9718 4.0694C12.4139 4.59412 12.6349 5.20356 12.6349 5.89773V16.5294L5.89844 17.6594ZM2.33594 17.6644V15.7686H4.0026V4.28127C4.0026 3.74599 4.18823 3.2962 4.55948 2.93189C4.93073 2.56759 5.37705 2.38544 5.89844 2.38544H14.1022C14.6375 2.38544 15.0873 2.56759 15.4516 2.93189C15.8159 3.2962 15.998 3.74599 15.998 4.28127V15.7686H17.6647V17.6644H2.33594ZM5.89844 15.7686H14.1022V4.28127L5.89844 4.27627V15.7686Z"
      fill="#122647"/>
  </g>
</svg>
