<svg xmlns="http://www.w3.org/2000/svg" width="91" height="80" fill="none"><g clip-path="url(#a)"><path fill="#102770" d="M89.074 75.708c0-.911-19.94-1.65-44.537-1.65S0 74.797 0 75.708c0 .528 6.663.997 17.038 1.299 2.238.59 10.917 1.031 21.284 1.031 8.68 0 16.178-.309 19.7-.756 18.005-.212 31.052-.836 31.052-1.574" opacity=".3"/><path fill="#102770" d="M6.535 74.789a855 855 0 0 1 76.08 0 855 855 0 0 1-76.08 0"/><path fill="#606060" d="M21.105 34.784h46.86a4.19 4.19 0 0 1 4.187 4.187v31.484H16.918V38.97a4.19 4.19 0 0 1 4.187-4.187"/><path fill="#102770" d="M72.15 70.984H16.917a.53.53 0 0 1-.53-.53V38.97c0-2.601 2.116-4.717 4.716-4.717h46.86c2.601 0 4.717 2.116 4.717 4.716v31.485a.53.53 0 0 1-.53.53m-54.702-1.06H71.62V38.969a3.66 3.66 0 0 0-3.656-3.656h-46.86a3.66 3.66 0 0 0-3.656 3.656z"/><path fill="#fff" d="M67.966 35.308h-46.86a3.665 3.665 0 0 0-3.66 3.661v30.959h.787V39.494a3.665 3.665 0 0 1 3.661-3.66H25c.499.33 1.556.556 2.781.556s2.282-.227 2.782-.557h38.191c.579 0 1.126.136 1.613.376a3.64 3.64 0 0 0-2.401-.901" opacity=".6"/><path fill="#102770" d="M67.966 34.784h-12C55.82 36.144 46 66.178 16.92 68.938v1.517h55.233V38.97a4.187 4.187 0 0 0-4.187-4.187" opacity=".3"/><path fill="#fff" d="M67.233 39.085H22.667a2.08 2.08 0 0 0-2.067 2.086v25.407a2.08 2.08 0 0 0 2.067 2.087h44.566a2.08 2.08 0 0 0 2.068-2.087V41.171a2.08 2.08 0 0 0-2.068-2.086" opacity=".5"/><path fill="#4DD0E1" d="M66.809 39.02h-44.55a1.73 1.73 0 0 0-1.73 1.729V66.17c0 .955.774 1.73 1.73 1.73h44.55a1.73 1.73 0 0 0 1.729-1.73V40.75a1.73 1.73 0 0 0-1.73-1.73"/><path fill="#102770" d="M66.81 68.356H22.26a2.19 2.19 0 0 1-2.186-2.185V40.747c0-1.205.98-2.185 2.186-2.185h44.55c1.206 0 2.186.98 2.186 2.185v25.424c0 1.205-.98 2.185-2.185 2.185zM22.26 39.475c-.702 0-1.272.57-1.272 1.272v25.424c0 .701.57 1.272 1.272 1.272h44.55c.702 0 1.273-.57 1.273-1.272V40.747c0-.702-.57-1.272-1.272-1.272z"/><mask id="b" width="49" height="29" x="20" y="39" maskUnits="userSpaceOnUse" style="mask-type:luminance"><path fill="#fff" d="M68.093 40.752a1.28 1.28 0 0 0-1.274-1.285H22.252c-.702 0-1.273.577-1.273 1.285V66.16c0 .71.57 1.286 1.273 1.286H66.82c.702 0 1.274-.577 1.274-1.286z"/></mask><g mask="url(#b)"><path fill="url(#c)" d="M22.696 71.545 16.6 67.13l26.949-37.903 6.096 4.415z" opacity=".5"/><path fill="url(#d)" d="m11.352 68.676-2.723-1.973 26.95-37.902 2.722 1.971z" opacity=".5"/><path fill="url(#e)" d="m48.47 79.998-2.722-1.972 26.95-37.903 2.722 1.972z" opacity=".5"/></g><path fill="#102770" d="M22.239 67.487V42.312c0-.95.77-1.721 1.721-1.721h44.572a1.72 1.72 0 0 0-1.713-1.576H22.252c-.95 0-1.72.77-1.72 1.72V65.91c0 .948.766 1.718 1.714 1.721a2 2 0 0 1-.007-.144" opacity=".2"/><path fill="#D0D0D0" d="M12.656 70.073h63.756c.45 0 .815.366.815.815v.094a3.464 3.464 0 0 1-3.462 3.462H15.302a3.464 3.464 0 0 1-3.462-3.462v-.094c0-.45.365-.815.815-.815"/><path fill="#102770" d="M73.766 74.974H15.303a3.997 3.997 0 0 1-3.993-3.993v-.093c0-.742.604-1.346 1.346-1.346h63.757c.741 0 1.346.603 1.346 1.346v.093a3.997 3.997 0 0 1-3.993 3.993m-61.11-4.371a.285.285 0 0 0-.284.284v.093a2.935 2.935 0 0 0 2.932 2.932h58.462a2.935 2.935 0 0 0 2.932-2.932v-.093a.285.285 0 0 0-.284-.284z"/><path fill="#fff" d="M13.43 71.41a.34.34 0 0 1 .347-.33h62.916q.005-.085.006-.172a.34.34 0 0 0-.348-.33H12.719a.34.34 0 0 0-.348.33c0 1.386.985 2.557 2.325 2.92-.768-.555-1.266-1.432-1.266-2.418" opacity=".8"/><path fill="#102770" d="M62.168 70.206s-3.114 5.465-47.482 3.611l2.829.53h58.116l1.305-1.426.53-1.854-.29-.84z" opacity=".2"/><path fill="silver" d="M36.768 70.072h15.534v.403c0 .871-.707 1.578-1.578 1.578H38.346a1.58 1.58 0 0 1-1.578-1.578z"/><path fill="#102770" d="M50.723 72.432H38.345a1.96 1.96 0 0 1-1.956-1.957v-.402c0-.21.17-.379.378-.379h15.534c.209 0 .378.17.378.379v.403a1.96 1.96 0 0 1-1.956 1.956m-13.576-1.98v.023a1.2 1.2 0 0 0 1.199 1.2h12.378a1.2 1.2 0 0 0 1.2-1.2v-.023z"/><path fill="#fff" d="M37.145 70.475c0 .482.285.897.697 1.088a1.24 1.24 0 0 1-.213-.692V70.8s13.447-.2 14.295-.314v-.037h-14.78v.026" opacity=".5"/><path fill="#102770" d="M67.478 57.758S67.393 68.7 44.25 67.443l21.696.314 1.393-.859.138-.484v-8.657zM50.435 70.206s-2.516 1.721-12.714 1.456l.331.331h12.715l.927-.397.662-.928v-.794l-1.92.332" opacity=".2"/><path fill="#FFCA28" d="M33.148 45.81c-5.256.179-6.29-6.115-6.494-8.77a1.073 1.073 0 0 1 1.07-1.157h4.535l-.52-4.118h-7.25a2.52 2.52 0 0 0-2.518 2.669c.306 5.294 2.115 16.51 12.025 15.212l-.485-3.836h-.362"/><path fill="#102770" d="M32.462 50.279c-2.242 0-4.187-.672-5.8-2.007-4.043-3.347-5.007-10.088-5.221-13.808a3.03 3.03 0 0 1 .828-2.273 3.03 3.03 0 0 1 2.22-.958h7.25c.266 0 .492.2.526.464l.52 4.118a.53.53 0 0 1-.526.597h-4.534a.54.54 0 0 0-.54.586c.191 2.51 1.137 8.284 5.755 8.285q.096 0 .192-.003h.38c.267 0 .493.199.527.463l.484 3.836a.53.53 0 0 1-.457.592q-.824.108-1.602.108zm-7.974-17.984c-.553 0-1.067.221-1.448.624-.38.403-.572.93-.54 1.484.205 3.548 1.106 9.962 4.839 13.052 1.63 1.35 3.668 1.929 6.06 1.722l-.357-2.834c-5.594.094-6.701-6.435-6.918-9.263a1.6 1.6 0 0 1 .424-1.214c.301-.326.73-.514 1.175-.514h3.933l-.386-3.056z"/><path fill="#fff" d="m33.1 46.787-.056-.441h-.12c-1.232 0-2.243-.326-3.072-.863.84.727 1.903 1.217 3.247 1.303M23.105 34.858c-.032-.553.16-1.08.54-1.483.381-.403.895-.624 1.45-.624h6.232l-.057-.455h-6.782c-.554 0-1.068.221-1.448.624s-.572.93-.54 1.484c.204 3.548 1.105 9.962 4.838 13.052q.29.24.595.446c-3.724-3.094-4.623-9.498-4.828-13.044" opacity=".6"/><path fill="#FFCA28" d="M55.925 45.81c5.256.179 6.29-6.115 6.493-8.77a1.073 1.073 0 0 0-1.07-1.157h-4.533l.52-4.118h7.25c1.45 0 2.601 1.22 2.518 2.669-.306 5.294-2.116 16.51-12.025 15.212l.484-3.836z"/><path fill="#102770" d="M56.61 50.279q-.777 0-1.602-.108a.53.53 0 0 1-.457-.592l.484-3.836a.53.53 0 0 1 .527-.463h.38l.192.003c4.619 0 5.564-5.775 5.756-8.285a.54.54 0 0 0-.144-.412.54.54 0 0 0-.397-.174h-4.534a.53.53 0 0 1-.526-.597l.52-4.118a.53.53 0 0 1 .527-.464h7.25c.849 0 1.636.34 2.22.958.582.617.876 1.424.828 2.273-.215 3.72-1.18 10.461-5.222 13.808-1.613 1.335-3.558 2.007-5.8 2.007zm-.939-1.103c2.393.207 4.43-.37 6.062-1.722 3.733-3.09 4.634-9.504 4.838-13.052a1.98 1.98 0 0 0-.54-1.484 1.97 1.97 0 0 0-1.448-.624H57.8l-.386 3.057h3.933a1.607 1.607 0 0 1 1.599 1.727c-.215 2.808-1.308 9.265-6.798 9.265l-.12-.001z"/><path fill="#102770" d="M61.72 48.137c3.11-3.415 3.914-9.179 4.109-12.547a2.523 2.523 0 0 0-2.518-2.67h-6.122l-.373 2.96h4.533c.626 0 1.117.533 1.07 1.156-.156 2.049-.81 6.261-3.51 7.999-.828 1.02-1.954 1.764-3.49 1.908l.144-1.136-.485 3.836c3.032.397 5.304-.379 7.009-1.796q-.18.15-.368.29" opacity=".3"/><path fill="#FFCA28" d="m46.606 53.535-2.106-.203v-.022l-.117.011-.117-.011v.022l-2.107.203s.352 9.364-4.094 10.718H50.7c-4.446-1.354-4.095-10.718-4.095-10.718z"/><path fill="#102770" d="M50.701 64.783H38.066a.53.53 0 0 1-.155-1.037c4.004-1.22 3.722-10.101 3.72-10.19a.53.53 0 0 1 .479-.548l1.955-.188a.5.5 0 0 1 .252-.037l.066.006.066-.006a.5.5 0 0 1 .251.037l1.956.188c.28.028.49.267.48.547-.004.09-.285 8.971 3.718 10.19a.531.531 0 0 1-.154 1.038zm-10.75-1.06h8.865c-2.56-2.48-2.752-7.998-2.748-9.706l-1.618-.157-.059-.008h-.016l-.058.009-1.619.156c.004 1.707-.19 7.226-2.748 9.706"/><path fill="#fff" d="m43.461 53.983 1.118-.107-.128-.012-.058-.01h-.015l-.059.01-1.618.156c.004 1.707-.19 7.226-2.748 9.706h.744c2.596-2.472 2.772-8.084 2.764-9.743" opacity=".6"/><path fill="#FFCA28" d="M59.263 26.464h-29.76S28.258 57.575 44.2 58.045v.006l.184-.002.183.002v-.006c15.942-.47 14.696-31.581 14.696-31.581z"/><path fill="#102770" d="m44.567 58.581-.132-.001h-.106c-.075.001-.153.006-.225-.007-3.129-.111-5.84-1.374-8.057-3.752-3.28-3.516-5.466-9.368-6.5-17.396-.764-5.94-.576-10.933-.574-10.983a.53.53 0 0 1 .53-.51h29.76a.53.53 0 0 1 .53.51c.001.05.19 5.043-.575 10.983-1.033 8.027-3.22 13.88-6.5 17.396-2.218 2.378-4.929 3.64-8.058 3.752a.5.5 0 0 1-.093.008m-.184-1.064h.074l.038.002.056-.005c2.868-.085 5.355-1.234 7.39-3.417 6.8-7.288 6.855-23.976 6.803-27.105H30.02c-.052 3.13.004 19.817 6.803 27.105 2.036 2.182 4.522 3.332 7.39 3.417q.03.001.057.005h.104l.007-.002z"/><path fill="#fff" d="M36.563 40.707c1.413-.152 2.313-2.553 2.011-5.363s-1.692-4.964-3.105-4.812-2.314 2.553-2.012 5.363 1.693 4.964 3.106 4.812" opacity=".2"/><path fill="#fff" d="M30.023 26.991c-.052 3.13.004 19.817 6.803 27.105 1.883 2.019 4.152 3.152 6.752 3.377-2.25-.391-4.236-1.49-5.917-3.293-3.913-4.195-5.561-11.487-6.255-16.865a74.5 74.5 0 0 1-.581-10.324z" opacity=".6"/><path fill="#FFCA28" d="M59.332 22.628H29.437a2.03 2.03 0 1 0 0 4.061h29.895a2.03 2.03 0 1 0 0-4.061"/><path fill="#102770" d="M59.331 27.218H29.436a2.564 2.564 0 0 1-2.561-2.56 2.564 2.564 0 0 1 2.56-2.561h29.896a2.564 2.564 0 0 1 2.56 2.56 2.564 2.564 0 0 1-2.56 2.561m-29.895-4.06c-.828 0-1.5.672-1.5 1.5 0 .827.672 1.5 1.5 1.5H59.33c.827 0 1.5-.673 1.5-1.5 0-.828-.673-1.5-1.5-1.5z"/><path fill="#fff" d="M60.29 23.503a1.5 1.5 0 0 0-.959-.348H29.436c-.828 0-1.5.673-1.5 1.5 0 .65.416 1.204.996 1.412a1.6 1.6 0 0 1-.31-.949c0-.896.73-1.625 1.625-1.625h2.225c.56.34 1.534.552 2.635.524.962-.025 1.817-.227 2.38-.524h22.656q.075.001.148.01z" opacity=".6"/><path fill="#DC7633" d="M33.397 67.801a.485.485 0 0 1-.485-.484v-1.26a2.5 2.5 0 0 1 2.496-2.495h17.949a2.5 2.5 0 0 1 2.496 2.495v1.26a.485.485 0 0 1-.485.484H33.395z"/><path fill="#102770" d="M53.359 64.045c1.11 0 2.012.901 2.012 2.012v1.26H33.398v-1.26c0-1.11.9-2.012 2.012-2.012zm0-.968h-17.95a2.983 2.983 0 0 0-2.98 2.98v1.26c0 .535.434.968.969.968H55.37a.97.97 0 0 0 .968-.968v-1.26a2.983 2.983 0 0 0-2.98-2.98"/><path fill="#DC7633" d="M33.396 67.847a.53.53 0 0 1-.53-.53v-1.26a2.545 2.545 0 0 1 2.541-2.542h17.95a2.545 2.545 0 0 1 2.541 2.541v1.26a.53.53 0 0 1-.53.53H33.394z"/><path fill="#102770" d="M53.358 64.044c1.11 0 2.012.9 2.012 2.012v1.26H33.397v-1.26c0-1.111.9-2.012 2.011-2.012zm0-1.06h-17.95a3.075 3.075 0 0 0-3.072 3.072v1.26c0 .586.475 1.06 1.06 1.06H55.37a1.06 1.06 0 0 0 1.06-1.06v-1.26a3.076 3.076 0 0 0-3.072-3.073"/><path fill="#fff" d="M33.88 66.38c0-1.11.902-2.012 2.013-2.012h17.95c.307 0 .598.071.859.195a2 2 0 0 0-1.344-.517h-17.95c-1.11 0-2.011.9-2.011 2.012v1.26h.484z" opacity=".6"/><path fill="#102770" d="m28.33 25.67.891.06zM35.102 26.025l.258.009zM36.527 26.065h.045zM32.357 25.912l.48.023zM33.201 25.951l.412.018zM59.922 24.655c0-.828-.673-1.5-1.5-1.5H55.41c-.856.984-4.128 2.99-16.558 2.94-2.92.011-6.37-.094-10.454-.362.27.26.634.422 1.037.422h28.986c.828 0 1.5-.673 1.5-1.5zM51.338 54.095c6.802-7.292 6.855-23.975 6.802-27.104H30.022q-.005.317-.006.804l20.912.918a3.833 3.833 0 0 1 3.656 4.127c-.579 7.365-2.81 22.61-11.388 24.595q.502.063 1.02.078l-.134-.007c2.811-.117 5.253-1.263 7.256-3.41M45.792 58.118c-.772.204-1.905.35-3.456.189l-.014.077a9 9 0 0 0 1.372.709c1.13.465 1.384 1.973.461 2.775-.758.66-1.907 1.202-3.622 1.185q-.195.262-.414.496l8.078.162c-1.376-1.343-2.064-3.564-2.405-5.593M46.236 57.985q.07-.024.13-.048zM46.1 58.03l.01-.004zM53.36 64.046h-3.435c-.23.948-.967 3.281-11.337 3.271H55.37v-1.26c0-1.11-.901-2.011-2.012-2.011" opacity=".3"/><path fill="#102770" d="M30.317 45.132s-.174 5.05-5.174.354c0 0 1.897 5.687 7.956 4.245l-1.214-4.321s-1.015.505-1.568-.278M28.21 31.765s.4 3.854-.804 4.166c0 0 2.632-.069 2.564 0-.07.068-.487-4.166-.487-4.166zM33.15 23.337a.83.83 0 0 1-.39.814 2.64 2.64 0 0 0-1.244 1.91 2.64 2.64 0 0 0 .703 2.17.83.83 0 0 1 .164.887 2.64 2.64 0 0 0 .116 2.277 2.64 2.64 0 0 0 1.844 1.342.8.8 0 0 1 .366.17l-1.088 7.528a1.208 1.208 0 0 0 1.69 1.274l2.345-1.051a.25.25 0 0 1 .27.044l1.93 1.768a1.205 1.205 0 0 0 2.012-.721l.488-3.45 3.445.925q.151.04.302.04c.293 0 .576-.112.795-.323.292-.283.413-.688.322-1.084l-.986-4.29q.226-.168.416-.383a2.65 2.65 0 0 0 .634-2.09.83.83 0 0 1 .389-.814 2.64 2.64 0 0 0 1.245-1.911 2.64 2.64 0 0 0-.704-2.169.83.83 0 0 1-.163-.888 2.635 2.635 0 0 0-.975-3.214H33.288a2.64 2.64 0 0 0-.137 1.239z" opacity=".2"/><path fill="#22A7F0" d="m40.144 36.5 4.563 1.225a.695.695 0 0 0 .857-.827l-2.286-9.945s-3.134-.148-3.134-.01-2.494 4.986-2.494 4.986z"/><path fill="#102770" d="M44.891 38.203q-.15 0-.301-.04l-4.563-1.224a.46.46 0 0 1-.281-.221l-2.493-4.571a.45.45 0 0 1-.005-.426c.888-1.728 2.33-4.562 2.459-4.896a.5.5 0 0 1 .13-.22c.157-.15.27-.259 3.465-.107.203.01.376.153.421.352l2.287 9.945a1.14 1.14 0 0 1-.323 1.086 1.14 1.14 0 0 1-.794.323zm-4.441-2.092 4.375 1.174c.12.032.2-.03.23-.06a.24.24 0 0 0 .067-.227l-2.21-9.61c-.978-.04-2.02-.065-2.448-.046-.219.49-.793 1.649-2.299 4.579zm.147-9.13a.7.7 0 0 1-.052.172.44.44 0 0 0 .052-.173m-.898-.125"/><path fill="#fff" d="M38.467 31.768c1.373-2.672 1.971-3.871 2.232-4.433q-.136 0-.236.006c-.22.49-.793 1.648-2.299 4.578l2.285 4.19 4.375 1.173c.118.032.2-.03.229-.06a.3.3 0 0 0 .061-.095l-4.362-1.17z" opacity=".6"/><path fill="#22A7F0" d="M34.465 28.327 32.86 39.439a.753.753 0 0 0 1.054.795l2.346-1.051a.7.7 0 0 1 .762.123l1.93 1.768a.753.753 0 0 0 1.255-.45l1.877-13.267z"/><path fill="#102770" d="M39.459 41.726c-.297 0-.589-.11-.815-.318l-1.93-1.768a.25.25 0 0 0-.27-.044l-2.346 1.051a1.208 1.208 0 0 1-1.69-1.274l1.606-11.112a.454.454 0 0 1 .393-.386l7.618-.97a.454.454 0 0 1 .508.514l-1.877 13.267a1.205 1.205 0 0 1-1.197 1.04m-2.912-3.061c.284 0 .564.105.783.304l1.929 1.768c.12.11.251.08.302.061a.29.29 0 0 0 .195-.24l1.794-12.677-6.684.85-1.556 10.77a.29.29 0 0 0 .116.282c.042.032.157.099.302.033l2.346-1.051a1.15 1.15 0 0 1 .474-.102z"/><path fill="#fff" d="m33.765 39.502 1.555-10.77 6.222-.791.008-.06-6.684.851-1.556 10.77a.29.29 0 0 0 .116.281c.042.032.156.1.302.034l.127-.057a.29.29 0 0 1-.09-.259zM37.782 38.971a1.16 1.16 0 0 0-1.01-.28c.203.04.395.135.555.28l1.93 1.768c.12.11.25.08.302.061a.3.3 0 0 0 .125-.085z" opacity=".6"/><path fill="#102770" d="m40.206 40.623 1.397-9.874-1.991-.797-5.492.761-.14.968.632.998s-.733-.417.05.965c.308.544 1.021.955 1.773 1.255 1.93.769 1.7 3.555-.335 3.968l-.124.024c-.86.156-1.154.494-1.114.915l1.398-.627a.7.7 0 0 1 .763.124l1.93 1.768a.753.753 0 0 0 1.254-.45z" opacity=".3"/><path fill="#22A7F0" d="M40.112 34.374c-.52 0-1.026-.188-1.423-.529a1.28 1.28 0 0 0-1.386-.183 2.186 2.186 0 0 1-3.076-1.47 1.28 1.28 0 0 0-1.013-.965 2.18 2.18 0 0 1-1.528-1.11 2.18 2.18 0 0 1-.096-1.887 1.28 1.28 0 0 0-.253-1.375 2.18 2.18 0 0 1-.583-1.796 2.18 2.18 0 0 1 1.03-1.582c.433-.264.67-.76.604-1.263a2.19 2.19 0 0 1 2.35-2.47q.052.005.102.005c.47 0 .902-.257 1.127-.67a2.19 2.19 0 0 1 3.352-.618 1.28 1.28 0 0 0 1.386.184q.45-.213.942-.214c1.02 0 1.897.693 2.133 1.685.117.492.515.87 1.013.963a2.18 2.18 0 0 1 1.528 1.111 2.18 2.18 0 0 1 .096 1.887 1.28 1.28 0 0 0 .254 1.375c.458.483.67 1.137.582 1.796a2.18 2.18 0 0 1-1.03 1.582c-.433.264-.67.76-.604 1.263a2.19 2.19 0 0 1-2.349 2.47l-.103-.005c-.47 0-.902.257-1.127.67a2.19 2.19 0 0 1-1.928 1.146"/><path fill="#102770" d="M37.895 18.388c.396 0 .797.135 1.128.418a1.74 1.74 0 0 0 1.878.249 1.733 1.733 0 0 1 2.437 1.165c.16.668.698 1.18 1.373 1.305a1.738 1.738 0 0 1 1.287 2.376 1.74 1.74 0 0 0 .344 1.863 1.737 1.737 0 0 1-.355 2.678 1.74 1.74 0 0 0-.818 1.71 1.737 1.737 0 0 1-1.861 1.957 1.739 1.739 0 0 0-1.666.902 1.734 1.734 0 0 1-2.656.49 1.74 1.74 0 0 0-1.879-.248 1.733 1.733 0 0 1-2.437-1.166 1.74 1.74 0 0 0-1.373-1.305 1.738 1.738 0 0 1-1.287-2.376 1.74 1.74 0 0 0-.344-1.863 1.737 1.737 0 0 1 .355-2.678 1.74 1.74 0 0 0 .818-1.71 1.737 1.737 0 0 1 1.861-1.958q.07.007.14.006c.632 0 1.22-.345 1.526-.908.32-.589.92-.909 1.53-.909zm0-.909c-.973 0-1.865.53-2.328 1.384a.83.83 0 0 1-.793.43 2.644 2.644 0 0 0-2.835 2.983.83.83 0 0 1-.39.815 2.64 2.64 0 0 0-1.244 1.911 2.64 2.64 0 0 0 .703 2.17c.225.236.29.585.164.887a2.64 2.64 0 0 0 .116 2.277 2.64 2.64 0 0 0 1.844 1.342.83.83 0 0 1 .655.622 2.638 2.638 0 0 0 3.712 1.776.83.83 0 0 1 .895.118 2.645 2.645 0 0 0 4.047-.746.83.83 0 0 1 .794-.43q.109.008.216.009a2.644 2.644 0 0 0 2.62-2.992.83.83 0 0 1 .389-.814 2.64 2.64 0 0 0 1.244-1.91 2.64 2.64 0 0 0-.703-2.17.83.83 0 0 1-.164-.888 2.64 2.64 0 0 0-.116-2.277 2.64 2.64 0 0 0-1.844-1.341.83.83 0 0 1-.655-.622 2.638 2.638 0 0 0-3.712-1.776.83.83 0 0 1-.895-.118 2.65 2.65 0 0 0-1.72-.637z"/><path fill="#fff" d="M45.015 21.829c.283.053.534.17.744.334a1.72 1.72 0 0 0-1.048-.637 1.74 1.74 0 0 1-.752-.34c.256.33.628.564 1.055.644zM32.313 28.709a1.74 1.74 0 0 0-.344-1.864 1.737 1.737 0 0 1 .355-2.678 1.74 1.74 0 0 0 .818-1.71 1.737 1.737 0 0 1 1.861-1.957 1.74 1.74 0 0 0 1.666-.903 1.737 1.737 0 0 1 2.656-.49 1.74 1.74 0 0 0 1.878.249 1.73 1.73 0 0 1 1.812.195 1.735 1.735 0 0 0-2.114-.498 1.74 1.74 0 0 1-1.878-.249 1.737 1.737 0 0 0-2.657.49 1.74 1.74 0 0 1-1.666.903 1.737 1.737 0 0 0-1.86 1.958c.088.681-.232 1.352-.818 1.71a1.737 1.737 0 0 0-.356 2.678c.473.498.608 1.228.344 1.863a1.736 1.736 0 0 0 .542 2.042 1.73 1.73 0 0 1-.239-1.739M34.972 32.39a1.74 1.74 0 0 0-.62-.965c.15.192.26.416.318.663.096.406.325.738.625.97a1.7 1.7 0 0 1-.322-.667" opacity=".6"/><path fill="#fff" d="M39.004 31.415a5.264 5.264 0 1 0 0-10.527 5.264 5.264 0 0 0 0 10.527"/><path fill="#102770" d="M39.005 31.72a5.573 5.573 0 0 1-5.568-5.568 5.573 5.573 0 0 1 5.568-5.567 5.573 5.573 0 0 1 5.567 5.567 5.573 5.573 0 0 1-5.567 5.567m0-10.528a4.967 4.967 0 0 0-4.962 4.96 4.966 4.966 0 0 0 4.962 4.962 4.966 4.966 0 0 0 4.96-4.961 4.966 4.966 0 0 0-4.96-4.961"/><path fill="#102770" d="m39.314 23.425.414 1.27c.043.136.169.227.311.227h1.337c.317 0 .45.406.192.593l-1.08.785a.33.33 0 0 0-.12.366l.413 1.272a.328.328 0 0 1-.504.366l-1.08-.785a.33.33 0 0 0-.386 0l-1.081.785a.328.328 0 0 1-.505-.366l.414-1.272a.33.33 0 0 0-.12-.366l-1.08-.785a.328.328 0 0 1 .192-.593h1.337a.33.33 0 0 0 .311-.226l.414-1.272a.328.328 0 0 1 .623 0z"/><path fill="#102770" d="m41.354 36.546 3.76 1.203.406-.824-1.061-4.242h-1.515l-.757.302-.682 1.44z" opacity=".2"/><path fill="#102770" d="M9.41 29.828a1 1 0 0 1-.663-.266c-.206-.183-.268-.484-.166-.826.163-.55.72-1.165 1.494-1.347-.264-1.355-1.45-2.242-1.638-2.374l-.048-.019a2.3 2.3 0 0 1-.508 1.258c-.691.85-1.51 1.163-2.367.904a1.305 1.305 0 0 1-.913-1.41c.083-.699.39-1.225.887-1.52.523-.312 1.242-.36 2.142-.144-.292-1.062-.818-1.79-1.566-2.17-1.51-.764-3.48.114-3.5.123a.32.32 0 0 1-.266-.583c.092-.042 2.263-1.016 4.052-.112 1.01.51 1.679 1.503 1.99 2.954q.18.063.366.137.03.013.059.03c.082.055 1.663 1.122 1.957 2.881.713.064 1.64.517 2.616 1.986a.32.32 0 1 1-.534.354c-.663-1-1.37-1.577-2.037-1.689a3.6 3.6 0 0 1-.085.685c-.097.442-.372.811-.751 1.011a1.1 1.1 0 0 1-.522.138zm.714-1.79q-.142.044-.278.122c-.532.302-.72.82-.667.93.092.08.225.153.454.032a.85.85 0 0 0 .425-.581q.056-.26.066-.504M6.617 24.59q-.486 0-.8.186c-.326.194-.52.546-.58 1.046a.665.665 0 0 0 .463.721c.596.18 1.164-.053 1.684-.694.25-.306.378-.684.373-1.07a4.2 4.2 0 0 0-1.139-.189M80.465 44.294a.32.32 0 0 1-.298-.436c.682-1.773 1.552-2.457 2.284-2.682-.111-1.912 1.3-3.402 1.374-3.478a.3.3 0 0 1 .05-.042q.186-.125.364-.236v-.03c-.008-1.583.463-2.773 1.4-3.534 1.657-1.347 4.142-.835 4.247-.812a.32.32 0 0 1-.133.626c-.023-.005-2.296-.468-3.712.685-.715.582-1.102 1.49-1.155 2.704.904-.448 1.675-.57 2.299-.364.583.192 1.022.668 1.27 1.374a1.38 1.38 0 0 1-.619 1.662c-.825.463-1.742.331-2.652-.384a2.45 2.45 0 0 1-.837-1.234l-.08.053c-.16.179-1.219 1.41-1.17 2.914.853.002 1.582.516 1.88 1.053.18.326.188.648.02.88-.283.39-.704.532-1.187.401a1.58 1.58 0 0 1-1.009-.872 4 4 0 0 1-.253-.72c-.563.212-1.22.81-1.782 2.267a.32.32 0 0 1-.299.205zm2.72-2.57q.067.27.195.546c.122.264.34.455.596.525.283.077.412-.037.5-.159.038-.109-.25-.597-.85-.818a1.5 1.5 0 0 0-.442-.093zm1.732-3.96c.087.428.318.81.66 1.079.7.55 1.354.66 1.943.329a.74.74 0 0 0 .328-.893c-.181-.518-.472-.847-.866-.977-.507-.167-1.212-.007-2.065.462M70.26 10.762a.379.379 0 0 1-.363-.489l.608-2.019a.379.379 0 0 1 .725.219l-.607 2.019a.38.38 0 0 1-.363.27M68.465 16.729a.379.379 0 0 1-.363-.489l.608-2.019a.38.38 0 0 1 .725.218l-.607 2.02a.38.38 0 0 1-.363.27M71.483 11.758a.379.379 0 0 1-.18-.712l1.858-.999a.379.379 0 1 1 .358.668l-1.857.999a.4.4 0 0 1-.18.045M65.996 14.707a.379.379 0 0 1-.179-.713l1.857-.999a.38.38 0 0 1 .36.668l-1.858.999a.4.4 0 0 1-.18.045M73.66 13.936a.4.4 0 0 1-.109-.016l-2.02-.608a.379.379 0 0 1 .219-.726l2.02.608a.38.38 0 0 1-.11.741zM67.693 12.141a.4.4 0 0 1-.109-.016l-2.02-.608a.379.379 0 0 1 .22-.726l2.018.608a.379.379 0 0 1-.109.742M71.64 16.406a.38.38 0 0 1-.335-.2l-.998-1.856a.38.38 0 0 1 .668-.36l.998 1.858a.38.38 0 0 1-.334.559M68.69 10.92a.38.38 0 0 1-.334-.2l-.998-1.857a.38.38 0 0 1 .668-.359l.998 1.858a.38.38 0 0 1-.334.559zM24.139 2.988a.379.379 0 0 1-.363-.489l.67-2.23a.379.379 0 0 1 .726.22l-.67 2.228a.38.38 0 0 1-.363.27M22.158 9.574a.38.38 0 0 1-.363-.489l.67-2.23a.379.379 0 0 1 .727.22l-.67 2.228a.38.38 0 0 1-.364.27M25.49 4.087a.379.379 0 0 1-.179-.713l2.05-1.102a.38.38 0 0 1 .359.668l-2.05 1.102a.4.4 0 0 1-.18.046zM19.432 7.345a.379.379 0 0 1-.18-.713l2.05-1.102a.38.38 0 0 1 .36.667L19.611 7.3a.4.4 0 0 1-.18.046zM27.894 6.494a.4.4 0 0 1-.11-.016l-2.229-.67a.379.379 0 0 1 .218-.726l2.23.67a.38.38 0 0 1-.11.741zM21.306 4.513a.4.4 0 0 1-.11-.017l-2.229-.67a.379.379 0 0 1 .218-.726l2.23.67a.38.38 0 0 1-.11.742M25.664 9.219a.38.38 0 0 1-.335-.2l-1.102-2.05a.38.38 0 1 1 .668-.358l1.102 2.05a.38.38 0 0 1-.334.559zM22.408 3.161a.38.38 0 0 1-.334-.199L20.97.912a.38.38 0 0 1 .668-.359l1.103 2.05a.38.38 0 0 1-.334.559M3.369 60.389s1.22 1.753-.52 3.12c0 0 1.882-.732 2.965 1.243 0 0-.662-2.525.455-3.294 0 0-1.903.419-2.901-1.07M85.852 68.239a.865.865 0 1 0 0-1.731.865.865 0 0 0 0 1.73M81.092 59.18s-.174 2.038-2.291 1.98c0 0 1.832.612 1.42 2.729 0 0 1.059-2.264 2.353-2.147 0 0-1.658-.856-1.482-2.562M69.336 25.83a.865.865 0 1 0 0-1.73.865.865 0 0 0 0 1.73"/><path fill="#8BC34A" d="m37.176 11.01 1.13.655s.757-1.986 2.885-2.338L40.87 8.02s-2.682.351-3.693 2.989"/><path fill="#19B5FE" d="m2.907 39.5 1.218-.475s.443 2.08 2.492 2.753l-.518 1.24s-2.598-.757-3.193-3.517z"/><path fill="#FF5722" d="m90.23 54.267.209-1.17s-1.934-.03-2.896-1.74l-1.016.681s1.134 2.185 3.703 2.23z"/><path fill="#102770" d="M16.907 18.55a.865.865 0 1 0 0-1.732.865.865 0 0 0 0 1.731"/><path fill="#FFCA28" d="m80.663 26.826-1.13-.367s-.293 1.911-2.119 2.631l.536 1.1s2.32-.825 2.714-3.364M9.785 48.198l.581 1.038s-1.817.66-2.166 2.592l-1.182-.311s.354-2.435 2.767-3.32z"/><path fill="#19B5FE" d="m56.106 11.346-1.188.039s.373 1.897-1.1 3.194l.877.852s1.901-1.562 1.411-4.085"/><path fill="#FF5722" d="m53.945 45.496.209-1.17s-1.934-.03-2.896-1.74l-1.016.681s1.133 2.185 3.703 2.23zM49.915 4.214l.21-1.17s-1.934-.03-2.896-1.74l-1.016.682s1.133 2.184 3.702 2.23z"/></g><defs><linearGradient id="c" x1="34.719" x2="31.531" y1="70.596" y2="30.173" gradientUnits="userSpaceOnUse"><stop stop-color="#fff"/><stop offset="1" stop-color="#fff"/></linearGradient><linearGradient id="d" x1="24.955" x2="21.979" y1="67.602" y2="29.872" gradientUnits="userSpaceOnUse"><stop stop-color="#fff"/><stop offset="1" stop-color="#fff"/></linearGradient><linearGradient id="e" x1="62.075" x2="59.099" y1="78.924" y2="41.193" gradientUnits="userSpaceOnUse"><stop stop-color="#fff"/><stop offset="1" stop-color="#fff"/></linearGradient><clipPath id="a"><path fill="#fff" d="M0 0h90.438v80H0z"/></clipPath></defs></svg>