<svg xmlns="http://www.w3.org/2000/svg" width="132" height="47" viewBox="0 0 131 47"><path d="m54.832 25.93 7.215 8.804c1.312 1.676 1.25 1.985-.934 1.985h-.75c-2.183 0-2.992-.434-4.304-1.985l-3.973-4.82.945-1.148c.844-.973 1.446-1.91 1.801-2.836m6.426-14.797c2.039.015 2.07.347.789 1.988l-7.215 8.805c-.355-.926-.957-1.863-1.8-2.836l-.946-1.149 3.973-4.82c1.265-1.5 2.066-1.957 4.086-1.984l.218-.004Zm0 0" style="stroke:none;fill-rule:evenodd;fill:#fff;fill-opacity:1"/><path d="M41.063 36.719c-2.18 0-2.243-.309-.934-1.985l7.484-9.129c.563-.683.871-1.242.871-1.68 0-.495-.308-1.054-.87-1.675l-7.485-9.129c-1.309-1.676-1.246-1.988.934-1.988h.75c2.183 0 2.992.437 4.304 1.988l5.738 6.957c2.43 2.793 2.43 4.906 0 7.7l-5.738 6.956c-1.312 1.551-2.12 1.985-4.304 1.985Zm0 0" style="stroke:none;fill-rule:nonzero;fill:#fff;fill-opacity:1"/><path d="M.492 44.684C.492 46.535.957 47 2.82 47h.621c1.864 0 2.329-.465 2.329-2.316V33.918c1.394 2.215 3.93 3.348 7.605 3.348 7.188 0 10.758-3.762 10.758-11.227v-4.484c0-7.465-3.828-10.97-11.848-10.97-7.445 0-11.793 3.606-11.793 10.97ZM18.805 26.14c0 4.328-1.45 6.129-6.465 6.129-5.121 0-6.57-1.856-6.57-6.13v-4.43c0-4.327 1.55-6.179 6.57-6.179 5.12 0 6.465 1.852 6.465 6.18ZM29.11 34.34c0 1.855.464 2.32 2.324 2.32h.675c1.86 0 2.325-.465 2.325-2.32V13.43c0-1.856-.465-2.317-2.325-2.317h-.675c-1.86 0-2.325.461-2.325 2.317Zm.359-28.79c1.293 1.235 3.363 1.235 4.605 0 1.293-1.288 1.293-3.347 0-4.585-1.242-1.285-3.312-1.285-4.605 0-1.293 1.238-1.293 3.297 0 4.586M71.453 34.832c1.23 1.414 2.059 1.82 4.16 1.82h43.055c2.18 0 2.988-.433 4.297-1.976l5.722-6.918c2.426-2.778 2.426-4.875 0-7.656l-5.722-6.914c-1.309-1.543-2.117-1.977-4.297-1.977H75.395c-2.016.031-2.813.484-4.075 1.976l-5.722 6.915-.149.175c-2.277 2.692-2.226 4.762.149 7.48l5.722 6.919Zm7.82-14.434c-1.62 0-2.304.739-2.304 2.352v2.324c0 1.41.61 2.196 2.363 2.196q1.156 0 1.871-.305l.059-.02c.281-.093.523.063.523.5v.22c0 .448-.176.593-.594.753-.507.187-1.132.289-1.886.289-2.614 0-3.903-1.117-3.903-3.633V22.75c0-2.512 1.305-3.777 3.903-3.777q1.09 0 1.828.304c.523.22.61.29.61.758v.215c0 .523-.118.656-.595.48-.554-.218-1.175-.332-1.875-.332m9.926 3.34c0 .524-.129.657-.652.657H84.89v2.164c0 .363.187.55.566.55h3.668c.523 0 .652.133.652.657v.21c-.015.458-.156.57-.652.57H85.02c-1.16 0-1.653-.491-1.653-1.655v-6.13c0-1.163.492-1.66 1.653-1.66h4.105c.523 0 .652.133.652.657v.215c-.015.453-.156.57-.652.57h-3.668c-.379 0-.566.187-.566.55v1.86h3.656c.523 0 .652.133.652.656Zm6.266-4.636c2.25 0 3.137 1.02 3.137 2.921 0 1.555-.582 2.485-2.032 2.79l2 3.097c.305.461.262.613-.195.637h-.398c-.594 0-.829-.129-1.16-.637l-1.903-2.98h-1.871v2.949c0 .539-.129.668-.668.668h-.187c-.536 0-.668-.129-.668-.668v-7.117c0-1.164.492-1.66 1.656-1.66Zm1.613 2.921c0-1.03-.394-1.48-1.613-1.48h-1.856c-.379 0-.566.187-.566.55v2.4h2.422c1.219 0 1.613-.481 1.613-1.47m3.41-1.48c-.523 0-.656-.133-.656-.656l.004-.215c.012-.453.156-.57.652-.57h6.047c.524 0 .653.132.653.656v.129c0 .523-.13.656-.653.656h-2.246v7.336c0 .539-.133.668-.668.668h-.203c-.54 0-.668-.129-.668-.668v-7.336Zm8.95 8.004c-.536 0-.668-.129-.668-.668v-8.106c0-.539.132-.671.668-.671l.273.003c.469.012.582.16.582.668v8.106c0 .539-.129.668-.668.668Zm4.597-4.05h3.457c.52 0 .649-.134.649-.657v-.13c0-.523-.13-.655-.649-.655h-3.457v-1.961c0-.364.192-.551.567-.551h3.468c.524 0 .653-.133.653-.656v-.13c0-.523-.13-.655-.653-.655h-3.902c-1.16 0-1.656.496-1.656 1.66v7.117c0 .539.133.668.668.668h.191c.535 0 .664-.129.664-.668Zm0 0" style="stroke:none;fill-rule:evenodd;fill:#fff;fill-opacity:1"/></svg>