<svg xmlns="http://www.w3.org/2000/svg" width="121" height="92" fill="none" viewBox="0 0 121 92"><g clip-path="url(#a)"><path fill="#fbfafa" d="M114.04 1.83H6.71a4.88 4.88 0 0 0-4.88 4.88v78.06a4.88 4.88 0 0 0 4.88 4.88h107.33a4.88 4.88 0 0 0 4.88-4.88V6.71a4.88 4.88 0 0 0-4.88-4.88"/><path fill="#102770" d="M1.83 6.71h1.83a3.05 3.05 0 0 1 3.05-3.05V0C3 0 0 3 0 6.71zm0 78.06h1.83V6.71H0v78.06zm4.88 4.88v-1.83c-1.68 0-3.05-1.37-3.05-3.05H0c0 3.71 3 6.71 6.71 6.71zm107.33 0v-1.83H6.71v3.66h107.33zm4.88-4.88h-1.83c0 1.68-1.37 3.05-3.05 3.05v3.66c3.7 0 6.71-3 6.71-6.71zm0-78.06h-1.83v78.06h3.66V6.71zm-4.88-4.88v1.83a3.05 3.05 0 0 1 3.05 3.05h3.66c0-3.71-3-6.71-6.71-6.71zm-107.33 0v1.83h107.33V0H6.71z"/><path fill="#d8d8d8" fill-rule="evenodd" d="M26.22 73.06h71.96c1.29 0 2.54.51 3.45 1.43s1.43 2.16 1.43 3.45v8.54H21.34v-8.54c0-1.29.51-2.54 1.43-3.45s2.16-1.43 3.45-1.43" clip-rule="evenodd" opacity=".43"/><path fill="#0cb0dd" d="M90.25 19.33c0-.06-.06-.06-.06-.12H23.86l-.68 1.04v39.88c0 5.69.06 5.69 3.69 8.62l59.69.16c3.57-2.81 4.06-4.88 4-8.29z" opacity=".08"/><path fill="#fff" d="M90.62 62.27c0 1.34-1.11 2.44-2.46 2.44l-62.52-.06c-1.35 0-2.46-1.1-2.46-2.44V15.67c0-1.34 1.11-2.44 2.46-2.44h62.15c1.35 0 2.46 1.1 2.46 2.44l.37 46.59z"/><path fill="#eaeaea" d="M90.68 22.63h-67.5v-6.95c0-1.34 1.11-2.44 2.46-2.44h62.58c.31 0 2.46 1.1 2.46 2.44z"/><path fill="#102770" d="M25.64 14.03c-1.05 0-1.85.79-1.85 1.83v46.35c0 1.04.8 1.83 1.85 1.83h62.15c1.05 0 1.85-.79 1.85-1.83V15.86c0-.49-.18-.91-.55-1.28s-.8-.55-1.29-.55zm62.15 51.23H25.64c-1.72 0-3.08-1.34-3.08-3.05V15.86c0-1.71 1.35-3.05 3.08-3.05h62.15c.8 0 1.6.3 2.15.91.55.55.92 1.34.92 2.14v46.35c0 1.71-1.36 3.05-3.08 3.05z"/><path fill="#afd0eb" d="M46.55 16.47h38.79c.67 0 1.22.55 1.22 1.22v.61c0 .67-.55 1.22-1.22 1.22H46.55c-.67 0-1.22-.55-1.22-1.22v-.61c0-.67.55-1.22 1.22-1.22"/><path fill="#102770" d="M90.01 23.17H23.18c-.37 0-.62-.24-.62-.61s.25-.61.62-.61h66.83c.37 0 .62.24.62.61s-.31.61-.62.61"/><path fill="#3ad0f9" d="M50.87 36.59H27.49v18.3h23.38z" opacity=".24"/><path fill="#91e5fc" d="M58.25 29.88H48.4c-.68 0-1.23-.55-1.23-1.22s.55-1.22 1.23-1.22h9.85c.68 0 1.23.55 1.23 1.22s-.55 1.22-1.23 1.22m26.46 0H76.1c-.68 0-1.23-.55-1.23-1.22s.55-1.22 1.23-1.22h8.61c.68 0 1.23.55 1.23 1.22s-.55 1.22-1.23 1.22m-15.38 0h-4.31c-.68 0-1.23-.55-1.23-1.22s.55-1.22 1.23-1.22h4.31c.68 0 1.23.55 1.23 1.22s-.55 1.22-1.23 1.22" opacity=".56"/><path fill="#afd0eb" d="M39.79 30.49H29.33c-1.05 0-1.85-.79-1.85-1.83s.8-1.83 1.85-1.83h10.46c1.05 0 1.85.79 1.85 1.83s-.8 1.83-1.85 1.83" opacity=".49"/><path fill="#91e5fc" d="M65.02 39.03h-9.85c-.68 0-1.23-.55-1.23-1.22s.55-1.22 1.23-1.22h9.85c.68 0 1.23.55 1.23 1.22s-.55 1.22-1.23 1.22m-23.38 18.3H28.1c-.37 0-.62-.24-.62-.61s.25-.61.62-.61h13.54c.37 0 .62.24.62.61s-.25.61-.62.61m26.46-3.05H54.56c-.37 0-.62-.24-.62-.61s.25-.61.62-.61H68.1c.37 0 .62.24.62.61s-.25.61-.62.61m8-3.66h-3.69c-.37 0-.62-.24-.62-.61s.25-.61.62-.61h3.69c.37 0 .62.24.62.61s-.25.61-.62.61m-6.77 0h-4.31c-.37 0-.62-.24-.62-.61s.25-.61.62-.61h4.31c.37 0 .62.24.62.61s-.25.61-.62.61m-7.38 0h-7.38c-.37 0-.62-.24-.62-.61s.25-.61.62-.61h7.38c.37 0 .62.24.62.61s-.25.61-.62.61m13.53-3.66h-6.77c-.37 0-.62-.24-.62-.61s.25-.61.62-.61h6.77c.37 0 .62.24.62.61s-.25.61-.62.61m-10.46 0H54.56c-.37 0-.62-.24-.62-.61s.25-.61.62-.61h10.46c.37 0 .62.24.62.61s-.25.61-.62.61m12.93-3.66H54.57c-.37 0-.62-.24-.62-.61s.25-.61.62-.61h23.38c.37 0 .62.24.62.61s-.25.61-.62.61" opacity=".56"/><path fill="#afd0eb" d="M60.72 59.77h-5.54c-.68 0-1.23-.55-1.23-1.22s.55-1.22 1.23-1.22h5.54c.68 0 1.23.55 1.23 1.22s-.55 1.22-1.23 1.22" opacity=".49"/><path fill="#0c508e" d="m34.87 45.5-5.29 9.39h14.89l-5.29-9.39c-1.17-2.13-3.08-2.13-4.31 0" opacity=".38"/><path fill="#3ad0f9" d="M45.95 45.13c1.36 0 2.46-1.09 2.46-2.44s-1.1-2.44-2.46-2.44-2.46 1.09-2.46 2.44 1.1 2.44 2.46 2.44m-8-4.88c-.68 0-1.23-.3-1.23-.61s-.8-.61-1.85-.61h-2.46c-1.05 0-1.85.3-1.85.61s.55.61 1.23.61 1.23.31 1.23.61.8.61 1.85.61h2.46c1.05 0 1.85-.3 1.85-.61s-.55-.61-1.23-.61" opacity=".51"/><path fill="#92c438" d="M33.95 19.52c.85 0 1.54-.68 1.54-1.52s-.69-1.52-1.54-1.52-1.54.68-1.54 1.52.69 1.52 1.54 1.52"/><path fill="#f74541" d="M28.41 19.52c.85 0 1.54-.68 1.54-1.52s-.69-1.52-1.54-1.52-1.54.68-1.54 1.52.69 1.52 1.54 1.52"/><path fill="#fbd000" d="M39.49 19.52c.85 0 1.54-.68 1.54-1.52s-.69-1.52-1.54-1.52-1.54.68-1.54 1.52.69 1.52 1.54 1.52"/><path fill="#eb8f49" d="M36.925 81.296a3.66 3.66 0 1 0-6.762-2.801 3.66 3.66 0 0 0 6.762 2.801"/><path fill="#eb5749" d="M70.59 81.29a3.66 3.66 0 1 0-6.763-2.802 3.66 3.66 0 0 0 6.763 2.801"/><path fill="#6549eb" d="M48.139 81.29a3.66 3.66 0 1 0-6.763-2.801 3.66 3.66 0 0 0 6.763 2.801"/><path fill="#967760" d="M81.804 81.293a3.66 3.66 0 1 0-6.763-2.8 3.66 3.66 0 0 0 6.763 2.8"/><path fill="#d6eb6a" d="M59.363 81.294a3.66 3.66 0 1 0-6.763-2.8 3.66 3.66 0 0 0 6.763 2.8"/><path fill="#a159c9" d="M93.028 81.287a3.66 3.66 0 1 0-6.763-2.8 3.66 3.66 0 0 0 6.763 2.8"/><path fill="#f7cc7f" d="m90.55 45.24.2.29-.32.24c.02-.15.07-.33.12-.54z"/></g><defs><clipPath id="a"><path fill="#fff" d="M0 0h120.75v91.48H0z"/></clipPath></defs></svg>