<svg xmlns="http://www.w3.org/2000/svg" width="128" height="84" fill="none" viewBox="0 0 128 84"><g clip-path="url(#a)"><path fill="#f99900" d="M57.96 54.78c0-12.65-12.62-22.89-28.25-22.89-15.53-.1-28.15 10.24-28.15 22.89s12.61 22.89 28.15 22.89c1.36 0 2.71-.11 4.07-.21 5.84 4.6 11.78 5.75 11.89 5.54-2.09-2.09-3.34-4.81-4.07-7.42 9.59-3.66 16.37-11.6 16.37-20.8z"/><path fill="#d6742b" d="M57.96 54.78c0-1.88-.31-3.66-.83-5.44v.63c0 10.87-12.2 19.76-27.21 19.76S2.71 60.85 2.71 49.97c0-.94.1-1.78.21-2.72q-1.56 3.6-1.56 7.53c.21 12.65 12.82 22.89 28.36 22.89 1.36 0 2.71-.11 4.07-.21 5.84 4.6 11.78 5.75 11.88 5.54-2.08-2.09-3.34-4.81-4.07-7.42 9.59-3.66 16.37-11.6 16.37-20.8z"/><path fill="#582e12" d="M33.57 76.32c.21 0 .42.11.63.21 3.23 2.51 6.46 3.87 8.55 4.7-1.04-1.57-1.77-3.35-2.4-5.44-.21-.52.1-1.04.63-1.25 9.7-3.55 15.85-11.39 15.85-19.86 0-12.12-12.3-21.95-27.42-21.95S2.09 42.55 2.09 54.68 14.08 76.63 29.2 76.63c1.15 0 2.71-.21 4.27-.31zm11.89 7.63c-1.04 0-6.67-1.36-12.2-5.54-1.35.1-3.96.31-5.11.31C11.89 78.72 0 67.85 0 54.68s13.24-24.04 29.5-24.04S59 41.41 59 54.68c0 9.09-6.36 17.35-16.26 21.43.83 2.51 2.09 4.49 3.55 6.06.31.31.42.84.21 1.25-.31.31-.73.52-1.04.52z"/><path fill="#fff6e1" d="M40.14 51.54c-1.77 0-3.23 1.46-3.23 3.24s1.46 3.24 3.23 3.24 3.23-1.46 3.23-3.24c.1-1.78-1.36-3.24-3.23-3.24m-11.47 0c-1.77 0-3.23 1.46-3.23 3.24s1.46 3.24 3.23 3.24 3.23-1.46 3.23-3.24c.1-1.78-1.36-3.24-3.23-3.24m-11.47 0c-1.77 0-3.23 1.46-3.23 3.24s1.46 3.24 3.23 3.24 3.23-1.46 3.23-3.24-1.46-3.24-3.23-3.24"/><path fill="#582e12" d="M16.68 52.59c-1.15 0-2.09.94-2.09 2.09s.94 2.09 2.09 2.09 2.08-.94 2.08-2.09-.94-2.09-2.08-2.09m0 6.27a4.18 4.18 0 0 1 0-8.36c1.11 0 2.16.45 2.95 1.23a4.17 4.17 0 0 1 1.22 2.95 4.18 4.18 0 0 1-4.17 4.18m11.47-6.27c-1.15 0-2.08.94-2.08 2.09s.94 2.09 2.08 2.09 2.08-.94 2.08-2.09-.94-2.09-2.08-2.09m0 6.27a4.18 4.18 0 0 1 0-8.36 4.18 4.18 0 0 1 0 8.36m11.47-6.27c-1.15 0-2.09.94-2.09 2.09s.94 2.09 2.09 2.09 2.08-.94 2.08-2.09-.94-2.09-2.08-2.09m0 6.27a4.18 4.18 0 0 1 0-8.36c1.11 0 2.16.45 2.95 1.23a4.17 4.17 0 0 1 1.22 2.95 4.18 4.18 0 0 1-4.17 4.18"/><path fill="#fff" d="M9.07 47.36c-.21 0-.42-.1-.63-.21-.42-.42-.52-1.05-.21-1.57.31-.42 8.03-10.45 20.85-10.77.52 0 1.04.52 1.04 1.04 0 .63-.42 1.15-1.04 1.15-11.89.31-19.18 9.83-19.29 9.93-.1.31-.42.42-.73.42z" opacity=".5"/><path fill="#3ad0f9" d="M43.58 37.61c0-16.28 16.24-29.47 36.37-29.47 20-.13 36.23 13.19 36.23 29.47S99.94 67.08 79.95 67.08c-1.74 0-3.49-.14-5.23-.27-7.51 5.92-15.16 7.4-15.3 7.13 2.68-2.69 4.29-6.19 5.23-9.55-12.35-4.71-21.07-14.94-21.07-26.78"/><path fill="#00b3f9" d="M43.58 37.61c0-2.42.4-4.71 1.07-7v.81c0 13.99 15.7 25.43 35.03 25.43s35.03-11.44 35.03-25.43c0-1.21-.13-2.29-.27-3.5q2.01 4.635 2.01 9.69c-.27 16.28-16.51 29.47-36.5 29.47-1.74 0-3.49-.13-5.23-.27-7.52 5.92-15.17 7.4-15.3 7.13 2.68-2.69 4.29-6.19 5.23-9.55-12.35-4.71-21.07-14.93-21.07-26.77z"/><path fill="#094174" d="M74.98 65.32c-.27 0-.54.14-.81.27-4.16 3.23-8.32 4.98-11.01 6.05 1.34-2.02 2.28-4.3 3.09-7 .27-.67-.13-1.35-.81-1.61-12.48-4.58-20.4-14.67-20.4-25.57 0-15.61 15.84-28.26 35.29-28.26s35.16 12.65 35.16 28.26-15.43 28.26-34.89 28.26c-1.48 0-3.49-.27-5.5-.4h-.13zm-15.3 9.83c1.34 0 8.59-1.75 15.7-7.13 1.74.14 5.1.4 6.57.4 20.93 0 36.23-13.99 36.23-30.95S101.15 6.53 80.21 6.53 42.23 20.39 42.23 37.48c0 11.71 8.19 22.34 20.94 27.58-1.07 3.23-2.68 5.79-4.56 7.8-.4.4-.54 1.08-.27 1.61.4.4.94.67 1.34.67z"/><path fill="#fff6e1" d="M66.52 33.44c2.28 0 4.16 1.88 4.16 4.17s-1.88 4.17-4.16 4.17-4.16-1.88-4.16-4.17c-.13-2.29 1.74-4.17 4.16-4.17m14.77 0c2.28 0 4.16 1.88 4.16 4.17s-1.88 4.17-4.16 4.17-4.16-1.88-4.16-4.17c-.13-2.29 1.74-4.17 4.16-4.17m14.76 0c2.28 0 4.16 1.88 4.16 4.17s-1.88 4.17-4.16 4.17-4.16-1.88-4.16-4.17 1.88-4.17 4.16-4.17"/><path fill="#094174" d="M96.72 34.78c1.48 0 2.68 1.21 2.68 2.69s-1.21 2.69-2.68 2.69-2.68-1.21-2.68-2.69 1.21-2.69 2.68-2.69m0 8.07c1.42 0 2.79-.58 3.79-1.58a5.4 5.4 0 0 0 1.58-3.8c0-1.42-.57-2.79-1.58-3.8a5.36 5.36 0 0 0-3.79-1.58c-1.42 0-2.79.58-3.79 1.58a5.4 5.4 0 0 0-1.58 3.8c0 1.42.57 2.79 1.58 3.8a5.36 5.36 0 0 0 3.79 1.58m-14.76-8.07c1.48 0 2.68 1.21 2.68 2.69s-1.21 2.69-2.68 2.69-2.68-1.21-2.68-2.69 1.21-2.69 2.68-2.69m0 8.07c1.42 0 2.79-.58 3.79-1.58a5.36 5.36 0 0 0 1.57-3.8c0-1.42-.57-2.79-1.57-3.8a5.36 5.36 0 0 0-3.79-1.58c-1.42 0-2.79.58-3.79 1.58a5.4 5.4 0 0 0-1.58 3.8c0 1.42.57 2.79 1.58 3.8a5.36 5.36 0 0 0 3.79 1.58M67.2 34.78c1.48 0 2.68 1.21 2.68 2.69s-1.21 2.69-2.68 2.69-2.68-1.21-2.68-2.69 1.21-2.69 2.68-2.69m0 8.07c1.42 0 2.79-.58 3.79-1.58a5.36 5.36 0 0 0 1.57-3.8c0-1.42-.57-2.79-1.57-3.8a5.36 5.36 0 0 0-3.79-1.58c-1.42 0-2.79.58-3.79 1.58a5.36 5.36 0 0 0-1.57 3.8c0 1.42.57 2.79 1.57 3.8a5.36 5.36 0 0 0 3.79 1.58"/><path fill="#fff" d="M106.52 28.05c.27 0 .54-.13.81-.27.54-.54.67-1.34.27-2.02-.4-.54-10.33-13.46-26.84-13.86-.67 0-1.34.67-1.34 1.35 0 .81.54 1.48 1.34 1.48 15.3.4 24.69 12.65 24.83 12.78.13.4.54.54.94.54z" opacity=".5"/><path fill="#094174" d="M120.21 16.46c-.5.02-.91-.27-1.03-.76-.12-.5.16-1.11.76-1.23l6.35-1.53c.5-.12 1.11.16 1.23.76.12.5-.16 1.11-.76 1.23l-6.35 1.53zm-8.49-8h-.2c-.5-.07-.92-.56-.84-1.16l1.07-6.44c.08-.5.57-.92 1.17-.84.5.08.92.57.84 1.17l-1.07 6.44c-.18.51-.57.82-.97.84zm5.31 2.81c-.3.01-.5-.08-.71-.27-.41-.39-.44-.99-.05-1.4l6.17-6.63c.39-.41.99-.44 1.4-.05s.44.99.05 1.4l-6.17 6.63a.89.89 0 0 1-.69.32"/></g><defs><clipPath id="a"><path fill="#fff" d="M0 0h127.55v83.95H0z"/></clipPath></defs></svg>