<svg width="128" height="84" viewBox="0 0 128 84" fill="none" xmlns="http://www.w3.org/2000/svg">
<g clip-path="url(#clip0_1_75)">
<path d="M57.96 54.78C57.96 42.13 45.34 31.89 29.71 31.89C14.18 31.79 1.56 42.13 1.56 54.78C1.56 67.43 14.17 77.67 29.71 77.67C31.07 77.67 32.42 77.56 33.78 77.46C39.62 82.06 45.56 83.21 45.67 83C43.58 80.91 42.33 78.19 41.6 75.58C51.19 71.92 57.97 63.98 57.97 54.78H57.96Z" fill="#F99900"/>
<path d="M57.96 54.78C57.96 52.9 57.65 51.12 57.13 49.34V49.97C57.13 60.84 44.93 69.73 29.92 69.73C14.91 69.73 2.71 60.85 2.71 49.97C2.71 49.03 2.81 48.19 2.92 47.25C1.88 49.65 1.36 52.16 1.36 54.78C1.57 67.43 14.18 77.67 29.72 77.67C31.08 77.67 32.43 77.56 33.79 77.46C39.63 82.06 45.57 83.21 45.67 83C43.59 80.91 42.33 78.19 41.6 75.58C51.19 71.92 57.97 63.98 57.97 54.78H57.96Z" fill="#D6742B"/>
<path d="M33.57 76.32C33.78 76.32 33.99 76.43 34.2 76.53C37.43 79.04 40.66 80.4 42.75 81.23C41.71 79.66 40.98 77.88 40.35 75.79C40.14 75.27 40.45 74.75 40.98 74.54C50.68 70.99 56.83 63.15 56.83 54.68C56.83 42.56 44.53 32.73 29.41 32.73C14.29 32.73 2.09 42.55 2.09 54.68C2.09 66.81 14.08 76.63 29.2 76.63C30.35 76.63 31.91 76.42 33.47 76.32H33.57ZM45.46 83.95C44.42 83.95 38.79 82.59 33.26 78.41C31.91 78.51 29.3 78.72 28.15 78.72C11.89 78.72 0 67.85 0 54.68C0 41.51 13.24 30.64 29.5 30.64C45.76 30.64 59 41.41 59 54.68C59 63.77 52.64 72.03 42.74 76.11C43.57 78.62 44.83 80.6 46.29 82.17C46.6 82.48 46.71 83.01 46.5 83.42C46.19 83.73 45.77 83.94 45.46 83.94V83.95Z" fill="#582E12"/>
<path d="M40.14 51.54C38.37 51.54 36.91 53 36.91 54.78C36.91 56.56 38.37 58.02 40.14 58.02C41.91 58.02 43.37 56.56 43.37 54.78C43.47 53 42.01 51.54 40.14 51.54ZM28.67 51.54C26.9 51.54 25.44 53 25.44 54.78C25.44 56.56 26.9 58.02 28.67 58.02C30.44 58.02 31.9 56.56 31.9 54.78C32 53 30.54 51.54 28.67 51.54ZM17.2 51.54C15.43 51.54 13.97 53 13.97 54.78C13.97 56.56 15.43 58.02 17.2 58.02C18.97 58.02 20.43 56.56 20.43 54.78C20.43 53 18.97 51.54 17.2 51.54Z" fill="#FFF6E1"/>
<path d="M16.68 52.59C15.53 52.59 14.59 53.53 14.59 54.68C14.59 55.83 15.53 56.77 16.68 56.77C17.83 56.77 18.76 55.83 18.76 54.68C18.76 53.53 17.82 52.59 16.68 52.59ZM16.68 58.86C15.57 58.86 14.51 58.41 13.73 57.63C12.95 56.85 12.51 55.79 12.51 54.68C12.51 53.57 12.95 52.51 13.73 51.73C14.51 50.95 15.57 50.5 16.68 50.5C17.79 50.5 18.84 50.95 19.63 51.73C20.41 52.51 20.85 53.57 20.85 54.68C20.85 55.79 20.41 56.85 19.63 57.63C18.85 58.41 17.79 58.86 16.68 58.86ZM28.15 52.59C27 52.59 26.07 53.53 26.07 54.68C26.07 55.83 27.01 56.77 28.15 56.77C29.29 56.77 30.23 55.83 30.23 54.68C30.23 53.53 29.29 52.59 28.15 52.59ZM28.15 58.86C27.04 58.86 25.98 58.41 25.2 57.63C24.42 56.85 23.98 55.79 23.98 54.68C23.98 53.57 24.42 52.51 25.2 51.73C25.98 50.95 27.04 50.5 28.15 50.5C29.26 50.5 30.32 50.95 31.1 51.73C31.88 52.51 32.32 53.57 32.32 54.68C32.32 55.79 31.88 56.85 31.1 57.63C30.32 58.41 29.26 58.86 28.15 58.86ZM39.62 52.59C38.47 52.59 37.53 53.53 37.53 54.68C37.53 55.83 38.47 56.77 39.62 56.77C40.77 56.77 41.7 55.83 41.7 54.68C41.7 53.53 40.76 52.59 39.62 52.59ZM39.62 58.86C38.51 58.86 37.45 58.41 36.67 57.63C35.89 56.85 35.45 55.79 35.45 54.68C35.45 53.57 35.89 52.51 36.67 51.73C37.45 50.95 38.51 50.5 39.62 50.5C40.73 50.5 41.78 50.95 42.57 51.73C43.35 52.51 43.79 53.57 43.79 54.68C43.79 55.79 43.35 56.85 42.57 57.63C41.79 58.41 40.73 58.86 39.62 58.86Z" fill="#582E12"/>
<path opacity="0.5" d="M9.07 47.36C8.86 47.36 8.65 47.26 8.44 47.15C8.02 46.73 7.92 46.1 8.23 45.58C8.54 45.16 16.26 35.13 29.08 34.81C29.6 34.81 30.12 35.33 30.12 35.85C30.12 36.48 29.7 37 29.08 37C17.19 37.31 9.9 46.83 9.79 46.93C9.69 47.24 9.37 47.35 9.06 47.35L9.07 47.36Z" fill="white"/>
<path d="M43.58 37.61C43.58 21.33 59.82 8.14 79.95 8.14C99.95 8.01 116.18 21.33 116.18 37.61C116.18 53.89 99.94 67.08 79.95 67.08C78.21 67.08 76.46 66.94 74.72 66.81C67.21 72.73 59.56 74.21 59.42 73.94C62.1 71.25 63.71 67.75 64.65 64.39C52.3 59.68 43.58 49.45 43.58 37.61Z" fill="#3AD0F9"/>
<path d="M43.58 37.61C43.58 35.19 43.98 32.9 44.65 30.61V31.42C44.65 45.41 60.35 56.85 79.68 56.85C99.01 56.85 114.71 45.41 114.71 31.42C114.71 30.21 114.58 29.13 114.44 27.92C115.78 31.01 116.45 34.24 116.45 37.61C116.18 53.89 99.94 67.08 79.95 67.08C78.21 67.08 76.46 66.95 74.72 66.81C67.2 72.73 59.55 74.21 59.42 73.94C62.1 71.25 63.71 67.75 64.65 64.39C52.3 59.68 43.58 49.46 43.58 37.62V37.61Z" fill="#00B3F9"/>
<path d="M74.98 65.32C74.71 65.32 74.44 65.46 74.17 65.59C70.01 68.82 65.85 70.57 63.16 71.64C64.5 69.62 65.44 67.34 66.25 64.64C66.52 63.97 66.12 63.29 65.44 63.03C52.96 58.45 45.04 48.36 45.04 37.46C45.04 21.85 60.88 9.2 80.33 9.2C99.78 9.2 115.49 21.85 115.49 37.46C115.49 53.07 100.06 65.72 80.6 65.72C79.12 65.72 77.11 65.45 75.1 65.32H74.97H74.98ZM59.68 75.15C61.02 75.15 68.27 73.4 75.38 68.02C77.12 68.16 80.48 68.42 81.95 68.42C102.88 68.42 118.18 54.43 118.18 37.47C118.18 20.51 101.15 6.53 80.21 6.53C59.27 6.53 42.23 20.39 42.23 37.48C42.23 49.19 50.42 59.82 63.17 65.06C62.1 68.29 60.49 70.85 58.61 72.86C58.21 73.26 58.07 73.94 58.34 74.47C58.74 74.87 59.28 75.14 59.68 75.14V75.15Z" fill="#094174"/>
<path d="M66.52 33.44C68.8 33.44 70.68 35.32 70.68 37.61C70.68 39.9 68.8 41.78 66.52 41.78C64.24 41.78 62.36 39.9 62.36 37.61C62.23 35.32 64.1 33.44 66.52 33.44ZM81.29 33.44C83.57 33.44 85.45 35.32 85.45 37.61C85.45 39.9 83.57 41.78 81.29 41.78C79.01 41.78 77.13 39.9 77.13 37.61C77 35.32 78.87 33.44 81.29 33.44ZM96.05 33.44C98.33 33.44 100.21 35.32 100.21 37.61C100.21 39.9 98.33 41.78 96.05 41.78C93.77 41.78 91.89 39.9 91.89 37.61C91.89 35.32 93.77 33.44 96.05 33.44Z" fill="#FFF6E1"/>
<path d="M96.72 34.78C98.2 34.78 99.4 35.99 99.4 37.47C99.4 38.95 98.19 40.16 96.72 40.16C95.25 40.16 94.04 38.95 94.04 37.47C94.04 35.99 95.25 34.78 96.72 34.78ZM96.72 42.85C98.14 42.85 99.51 42.27 100.51 41.27C101.52 40.26 102.08 38.9 102.09 37.47C102.09 36.05 101.52 34.68 100.51 33.67C99.5 32.66 98.14 32.09 96.72 32.09C95.3 32.09 93.93 32.67 92.93 33.67C91.92 34.68 91.36 36.04 91.35 37.47C91.35 38.89 91.92 40.26 92.93 41.27C93.94 42.28 95.3 42.85 96.72 42.85ZM81.96 34.78C83.44 34.78 84.64 35.99 84.64 37.47C84.64 38.95 83.43 40.16 81.96 40.16C80.49 40.16 79.28 38.95 79.28 37.47C79.28 35.99 80.49 34.78 81.96 34.78ZM81.96 42.85C83.38 42.85 84.75 42.27 85.75 41.27C86.76 40.26 87.32 38.9 87.32 37.47C87.32 36.05 86.75 34.68 85.75 33.67C84.74 32.66 83.38 32.09 81.96 32.09C80.54 32.09 79.17 32.67 78.17 33.67C77.16 34.68 76.6 36.04 76.59 37.47C76.59 38.89 77.16 40.26 78.17 41.27C79.18 42.28 80.54 42.85 81.96 42.85ZM67.2 34.78C68.68 34.78 69.88 35.99 69.88 37.47C69.88 38.95 68.67 40.16 67.2 40.16C65.73 40.16 64.52 38.95 64.52 37.47C64.52 35.99 65.73 34.78 67.2 34.78ZM67.2 42.85C68.62 42.85 69.99 42.27 70.99 41.27C72 40.26 72.56 38.9 72.56 37.47C72.56 36.05 71.99 34.68 70.99 33.67C69.98 32.66 68.62 32.09 67.2 32.09C65.78 32.09 64.41 32.67 63.41 33.67C62.4 34.68 61.84 36.04 61.84 37.47C61.84 38.89 62.41 40.26 63.41 41.27C64.42 42.28 65.78 42.85 67.2 42.85Z" fill="#094174"/>
<path opacity="0.5" d="M106.52 28.05C106.79 28.05 107.06 27.92 107.33 27.78C107.87 27.24 108 26.44 107.6 25.76C107.2 25.22 97.27 12.3 80.76 11.9C80.09 11.9 79.42 12.57 79.42 13.25C79.42 14.06 79.96 14.73 80.76 14.73C96.06 15.13 105.45 27.38 105.59 27.51C105.72 27.91 106.13 28.05 106.53 28.05H106.52Z" fill="white"/>
<path d="M120.21 16.46C119.71 16.48 119.3 16.19 119.18 15.7C119.06 15.2 119.34 14.59 119.94 14.47L126.29 12.94C126.79 12.82 127.4 13.1 127.52 13.7C127.64 14.2 127.36 14.81 126.76 14.93L120.41 16.46H120.21ZM111.72 8.46H111.52C111.02 8.39 110.6 7.9 110.68 7.3L111.75 0.86C111.83 0.36 112.32 -0.06 112.92 0.02C113.42 0.1 113.84 0.59 113.76 1.19L112.69 7.63C112.51 8.14 112.12 8.45 111.72 8.47V8.46ZM117.03 11.27C116.73 11.28 116.53 11.19 116.32 11C115.91 10.61 115.88 10.01 116.27 9.6L122.44 2.97C122.83 2.56 123.43 2.53 123.84 2.92C124.25 3.31 124.28 3.91 123.89 4.32L117.72 10.95C117.53 11.16 117.33 11.26 117.03 11.27Z" fill="#094174"/>
</g>
<defs>
<clipPath id="clip0_1_75">
<rect width="127.55" height="83.95" fill="white"/>
</clipPath>
</defs>
</svg>
