<svg width="121" height="92" viewBox="0 0 121 92" fill="none" xmlns="http://www.w3.org/2000/svg">
<g clip-path="url(#clip0_1_90)">
<path d="M114.04 1.83H6.71C4.01485 1.83 1.83 4.01485 1.83 6.71V84.77C1.83 87.4651 4.01485 89.65 6.71 89.65H114.04C116.735 89.65 118.92 87.4651 118.92 84.77V6.71C118.92 4.01485 116.735 1.83 114.04 1.83Z" fill="#FBFAFA"/>
<path d="M1.83 6.71H3.66C3.66 5.03 5.02 3.66 6.71 3.66V0C3 0 0 3 0 6.71H1.83ZM1.83 84.77H3.66V6.71H0V84.77H1.83ZM6.71 89.65V87.82C5.03 87.82 3.66 86.45 3.66 84.77H0C0 88.48 3 91.48 6.71 91.48V89.65ZM114.04 89.65V87.82H6.71V91.48H114.04V89.65ZM118.92 84.77H117.09C117.09 86.45 115.72 87.82 114.04 87.82V91.48C117.74 91.48 120.75 88.48 120.75 84.77H118.92ZM118.92 6.71H117.09V84.77H120.75V6.71H118.92ZM114.04 1.83V3.66C115.72 3.66 117.09 5.02 117.09 6.71H120.75C120.75 3 117.75 0 114.04 0V1.83ZM6.71 1.83V3.66H114.04V0H6.71V1.83Z" fill="#102770"/>
<path opacity="0.43" fill-rule="evenodd" clip-rule="evenodd" d="M26.22 73.06H98.18C99.47 73.06 100.72 73.57 101.63 74.49C102.54 75.41 103.06 76.65 103.06 77.94V86.48H21.34V77.94C21.34 76.65 21.85 75.4 22.77 74.49C23.69 73.58 24.93 73.06 26.22 73.06Z" fill="#D8D8D8"/>
<path opacity="0.08" d="M90.25 19.33C90.25 19.27 90.19 19.27 90.19 19.21H23.86L23.18 20.25V60.13C23.18 65.82 23.24 65.82 26.87 68.75L86.56 68.91C90.13 66.1 90.62 64.03 90.56 60.62L90.25 19.33Z" fill="#0CB0DD"/>
<path d="M90.62 62.27C90.62 63.61 89.51 64.71 88.16 64.71L25.64 64.65C24.29 64.65 23.18 63.55 23.18 62.21V15.67C23.18 14.33 24.29 13.23 25.64 13.23H87.79C89.14 13.23 90.25 14.33 90.25 15.67L90.62 62.26V62.27Z" fill="white"/>
<path d="M90.68 22.63H23.18V15.68C23.18 14.34 24.29 13.24 25.64 13.24H88.22C88.53 13.24 90.68 14.34 90.68 15.68V22.63Z" fill="#EAEAEA"/>
<path d="M25.64 14.03C24.59 14.03 23.79 14.82 23.79 15.86V62.21C23.79 63.25 24.59 64.04 25.64 64.04H87.79C88.84 64.04 89.64 63.25 89.64 62.21V15.86C89.64 15.37 89.46 14.95 89.09 14.58C88.72 14.21 88.29 14.03 87.8 14.03H25.64ZM87.79 65.26H25.64C23.92 65.26 22.56 63.92 22.56 62.21V15.86C22.56 14.15 23.91 12.81 25.64 12.81H87.79C88.59 12.81 89.39 13.11 89.94 13.72C90.49 14.27 90.86 15.06 90.86 15.86V62.21C90.86 63.92 89.5 65.26 87.78 65.26H87.79Z" fill="#102770"/>
<path d="M46.55 16.47H85.34C86.01 16.47 86.56 17.02 86.56 17.69V18.3C86.56 18.97 86.01 19.52 85.34 19.52H46.55C45.88 19.52 45.33 18.97 45.33 18.3V17.69C45.33 17.02 45.88 16.47 46.55 16.47Z" fill="#AFD0EB"/>
<path d="M90.01 23.17H23.18C22.81 23.17 22.56 22.93 22.56 22.56C22.56 22.19 22.81 21.95 23.18 21.95H90.01C90.38 21.95 90.63 22.19 90.63 22.56C90.63 22.93 90.32 23.17 90.01 23.17Z" fill="#102770"/>
<path opacity="0.24" d="M50.87 36.59H27.49V54.89H50.87V36.59Z" fill="#3AD0F9"/>
<path opacity="0.56" d="M58.25 29.88H48.4C47.72 29.88 47.17 29.33 47.17 28.66C47.17 27.99 47.72 27.44 48.4 27.44H58.25C58.93 27.44 59.48 27.99 59.48 28.66C59.48 29.33 58.93 29.88 58.25 29.88Z" fill="#91E5FC"/>
<path opacity="0.56" d="M84.71 29.88H76.1C75.42 29.88 74.87 29.33 74.87 28.66C74.87 27.99 75.42 27.44 76.1 27.44H84.71C85.39 27.44 85.94 27.99 85.94 28.66C85.94 29.33 85.39 29.88 84.71 29.88ZM69.33 29.88H65.02C64.34 29.88 63.79 29.33 63.79 28.66C63.79 27.99 64.34 27.44 65.02 27.44H69.33C70.01 27.44 70.56 27.99 70.56 28.66C70.56 29.33 70.01 29.88 69.33 29.88Z" fill="#91E5FC"/>
<path opacity="0.49" d="M39.79 30.49H29.33C28.28 30.49 27.48 29.7 27.48 28.66C27.48 27.62 28.28 26.83 29.33 26.83H39.79C40.84 26.83 41.64 27.62 41.64 28.66C41.64 29.7 40.84 30.49 39.79 30.49Z" fill="#AFD0EB"/>
<path opacity="0.56" d="M65.02 39.03H55.17C54.49 39.03 53.94 38.48 53.94 37.81C53.94 37.14 54.49 36.59 55.17 36.59H65.02C65.7 36.59 66.25 37.14 66.25 37.81C66.25 38.48 65.7 39.03 65.02 39.03Z" fill="#91E5FC"/>
<path opacity="0.56" d="M41.64 57.33H28.1C27.73 57.33 27.48 57.09 27.48 56.72C27.48 56.35 27.73 56.11 28.1 56.11H41.64C42.01 56.11 42.26 56.35 42.26 56.72C42.26 57.09 42.01 57.33 41.64 57.33ZM68.1 54.28H54.56C54.19 54.28 53.94 54.04 53.94 53.67C53.94 53.3 54.19 53.06 54.56 53.06H68.1C68.47 53.06 68.72 53.3 68.72 53.67C68.72 54.04 68.47 54.28 68.1 54.28ZM76.1 50.62H72.41C72.04 50.62 71.79 50.38 71.79 50.01C71.79 49.64 72.04 49.4 72.41 49.4H76.1C76.47 49.4 76.72 49.64 76.72 50.01C76.72 50.38 76.47 50.62 76.1 50.62ZM69.33 50.62H65.02C64.65 50.62 64.4 50.38 64.4 50.01C64.4 49.64 64.65 49.4 65.02 49.4H69.33C69.7 49.4 69.95 49.64 69.95 50.01C69.95 50.38 69.7 50.62 69.33 50.62ZM61.95 50.62H54.57C54.2 50.62 53.95 50.38 53.95 50.01C53.95 49.64 54.2 49.4 54.57 49.4H61.95C62.32 49.4 62.57 49.64 62.57 50.01C62.57 50.38 62.32 50.62 61.95 50.62ZM75.48 46.96H68.71C68.34 46.96 68.09 46.72 68.09 46.35C68.09 45.98 68.34 45.74 68.71 45.74H75.48C75.85 45.74 76.1 45.98 76.1 46.35C76.1 46.72 75.85 46.96 75.48 46.96ZM65.02 46.96H54.56C54.19 46.96 53.94 46.72 53.94 46.35C53.94 45.98 54.19 45.74 54.56 45.74H65.02C65.39 45.74 65.64 45.98 65.64 46.35C65.64 46.72 65.39 46.96 65.02 46.96ZM77.95 43.3H54.57C54.2 43.3 53.95 43.06 53.95 42.69C53.95 42.32 54.2 42.08 54.57 42.08H77.95C78.32 42.08 78.57 42.32 78.57 42.69C78.57 43.06 78.32 43.3 77.95 43.3Z" fill="#91E5FC"/>
<path opacity="0.49" d="M60.72 59.77H55.18C54.5 59.77 53.95 59.22 53.95 58.55C53.95 57.88 54.5 57.33 55.18 57.33H60.72C61.4 57.33 61.95 57.88 61.95 58.55C61.95 59.22 61.4 59.77 60.72 59.77Z" fill="#AFD0EB"/>
<path opacity="0.38" d="M34.87 45.5L29.58 54.89H44.47L39.18 45.5C38.01 43.37 36.1 43.37 34.87 45.5Z" fill="#0C508E"/>
<path opacity="0.51" d="M45.95 45.13C47.31 45.13 48.41 44.04 48.41 42.69C48.41 41.34 47.31 40.25 45.95 40.25C44.59 40.25 43.49 41.34 43.49 42.69C43.49 44.04 44.59 45.13 45.95 45.13Z" fill="#3AD0F9"/>
<path opacity="0.51" d="M37.95 40.25C37.27 40.25 36.72 39.95 36.72 39.64C36.72 39.33 35.92 39.03 34.87 39.03H32.41C31.36 39.03 30.56 39.33 30.56 39.64C30.56 39.95 31.11 40.25 31.79 40.25C32.47 40.25 33.02 40.56 33.02 40.86C33.02 41.16 33.82 41.47 34.87 41.47H37.33C38.38 41.47 39.18 41.17 39.18 40.86C39.18 40.55 38.63 40.25 37.95 40.25Z" fill="#3AD0F9"/>
<path d="M33.95 19.52C34.8 19.52 35.49 18.84 35.49 18C35.49 17.16 34.8 16.48 33.95 16.48C33.1 16.48 32.41 17.16 32.41 18C32.41 18.84 33.1 19.52 33.95 19.52Z" fill="#92C438"/>
<path d="M28.41 19.52C29.26 19.52 29.95 18.84 29.95 18C29.95 17.16 29.26 16.48 28.41 16.48C27.56 16.48 26.87 17.16 26.87 18C26.87 18.84 27.56 19.52 28.41 19.52Z" fill="#F74541"/>
<path d="M39.49 19.52C40.34 19.52 41.03 18.84 41.03 18C41.03 17.16 40.34 16.48 39.49 16.48C38.64 16.48 37.95 17.16 37.95 18C37.95 18.84 38.64 19.52 39.49 19.52Z" fill="#FBD000"/>
<path d="M36.9253 81.2963C37.6989 79.4288 36.8121 77.2878 34.9446 76.5143C33.0771 75.7407 30.9361 76.6275 30.1625 78.495C29.389 80.3625 30.2758 82.5035 32.1433 83.2771C34.0108 84.0506 36.1518 83.1638 36.9253 81.2963Z" fill="#EB8F49"/>
<path d="M70.5903 81.2893C71.3638 79.4218 70.477 77.2808 68.6095 76.5072C66.742 75.7337 64.601 76.6205 63.8275 78.488C63.054 80.3555 63.9408 82.4965 65.8083 83.27C67.6758 84.0436 69.8167 83.1568 70.5903 81.2893Z" fill="#EB5749"/>
<path d="M48.139 81.2904C48.9126 79.4229 48.0258 77.2819 46.1583 76.5083C44.2908 75.7348 42.1498 76.6216 41.3762 78.4891C40.6027 80.3566 41.4895 82.4976 43.357 83.2711C45.2245 84.0447 47.3655 83.1579 48.139 81.2904Z" fill="#6549EB"/>
<path d="M81.804 81.2933C82.5775 79.4258 81.6907 77.2849 79.8232 76.5113C77.9557 75.7378 75.8147 76.6246 75.0412 78.4921C74.2677 80.3596 75.1545 82.5006 77.022 83.2741C78.8895 84.0477 81.0305 83.1608 81.804 81.2933Z" fill="#967760"/>
<path d="M59.3628 81.2944C60.1363 79.4269 59.2495 77.2859 57.382 76.5124C55.5145 75.7389 53.3735 76.6257 52.6 78.4932C51.8264 80.3607 52.7132 82.5017 54.5807 83.2752C56.4482 84.0487 58.5892 83.1619 59.3628 81.2944Z" fill="#D6EB6A"/>
<path d="M93.0277 81.2874C93.8013 79.4199 92.9144 77.2789 91.0469 76.5054C89.1794 75.7318 87.0385 76.6187 86.2649 78.4862C85.4914 80.3537 86.3782 82.4946 88.2457 83.2682C90.1132 84.0417 92.2542 83.1549 93.0277 81.2874Z" fill="#A159C9"/>
<path d="M90.55 45.24L90.75 45.53L90.43 45.77C90.45 45.62 90.5 45.44 90.55 45.23V45.24Z" fill="#F7CC7F"/>
</g>
<defs>
<clipPath id="clip0_1_90">
<rect width="120.75" height="91.48" fill="white"/>
</clipPath>
</defs>
</svg>
