<svg xmlns="http://www.w3.org/2000/svg" width="129" height="114" fill="none" viewBox="0 0 129 114"><g clip-path="url(#a)"><path fill="#e4b836" d="M24.09 88.29s1.52 7.31 8.52 8.48c5.45.91 22.07-4.57 24.5-7 9.22-9.22-7.54-12.06-10.68-11.15-3.15.9-22.34 9.69-22.34 9.69z"/><path fill="#000" d="M127.45 43.35c1.02.43 1.5 1.6 1.07 2.62l-27.86 66.25c-.43 1.02-1.6 1.5-2.62 1.07L64.7 99.27l-15.05-6.33c-1.02-.43-1.5-1.6-1.07-2.62l28.33-67.35c.17-.41.65-.6 1.06-.43l.89.37 22.07 9.28 26.53 11.16z" opacity=".2"/><path fill="#fbfbfb" d="M126.43 40.29c1.02.43 1.5 1.6 1.07 2.62l-27.86 66.25c-.43 1.02-1.6 1.5-2.62 1.07L63.68 96.21l-15.05-6.33c-1.02-.43-1.5-1.6-1.07-2.62l28.33-67.35c.17-.41.65-.6 1.06-.43l.89.37 22.07 9.28 26.53 11.16z"/><mask id="b" width="81" height="92" x="47" y="19" maskUnits="userSpaceOnUse" style="mask-type:luminance"><path fill="#fff" d="M126.43 40.29c1.02.43 1.5 1.6 1.07 2.62l-27.86 66.25c-.43 1.02-1.6 1.5-2.62 1.07L63.68 96.21l-15.05-6.33c-1.02-.43-1.5-1.6-1.07-2.62l28.33-67.34a.8.8 0 0 1 1.06-.43l.89.37 22.07 9.28 26.53 11.16z"/></mask><g mask="url(#b)"><path fill="#000" d="m127.49 42.91.92.39c.64-1.53-.08-3.29-1.6-3.93l-.39.92-.39.92c.51.21.75.8.53 1.31l.92.39zm-51.6-23 .92.39c-.04.1-.15.14-.25.1l.39-.92.39-.92c-.92-.39-1.98.05-2.37.97l.92.39zm23.74 89.25-.92-.39c-.21.51-.8.75-1.31.53l-.39.92-.39.92c1.53.64 3.29-.08 3.93-1.6l-.92-.39zm-51-19.29.39-.92a.99.99 0 0 1-.53-1.31l-.92-.39-.92-.39c-.64 1.53.07 3.29 1.6 3.93l.39-.92zM99.9 29.13l-.39.92 26.53 11.16.39-.92.39-.92-26.53-11.16zm-22.07-9.28-.39.92 22.07 9.28.39-.92.39-.92-22.07-9.28zm-.88-.37-.39.92.89.37.39-.92.39-.92-.89-.37zM47.56 87.25l.92.39L76.81 20.3l-.92-.39-.92-.39-28.32 67.35.92.39zm16.12 8.95.39-.92-15.05-6.33-.39.92-.39.92 15.05 6.33zm33.33 14.02.39-.92-33.34-14.02-.39.92-.39.92 33.34 14.02zm30.48-67.31-.92-.39-27.86 66.25.92.39.92.39 27.86-66.25z" opacity=".3"/></g><path fill="#102770" d="M77.33 30.31a.83.83 0 0 1 1.09-.44l22.93 9.64c.42.18.62.66.44 1.09-.18.42-.66.62-1.09.45l-22.93-9.64a.83.83 0 0 1-.44-1.09z"/><path fill="#a3bac4" d="M75.47 34.73a.83.83 0 0 1 1.09-.44l35.63 14.99c.42.18.62.66.45 1.09-.18.42-.66.62-1.09.45L75.92 35.83a.83.83 0 0 1-.44-1.09zm-1.73 4.1a.83.83 0 0 1 1.09-.44l35.63 14.99c.42.18.62.66.45 1.09-.18.42-.66.62-1.09.45L74.19 39.93a.83.83 0 0 1-.44-1.09z"/><path fill="#d0dd63" d="M60.51 70.3a.83.83 0 0 1 1.09-.44l22.93 9.64c.42.18.62.66.44 1.09-.18.42-.66.62-1.09.45L60.95 71.4a.83.83 0 0 1-.44-1.09z"/><path fill="#a3bac4" d="M58.68 74.65a.83.83 0 0 1 1.09-.44l39.82 16.75c.42.18.62.66.45 1.09-.18.42-.66.62-1.09.45L59.13 75.75a.83.83 0 0 1-.44-1.09zm-1.79 4.25a.83.83 0 0 1 1.09-.44L97.8 95.21c.42.18.62.66.45 1.09-.18.42-.66.62-1.09.45L57.34 80a.83.83 0 0 1-.44-1.09zm-1.84 4.38a.83.83 0 0 1 1.09-.44l39.82 16.75c.42.18.62.66.45 1.09-.18.42-.66.62-1.09.45L55.5 84.38a.83.83 0 0 1-.44-1.09z"/><path fill="#d0dd63" d="M71.623 51.057 65.68 65.2l8.748 3.677 5.945-14.141z"/><path fill="#feb50e" d="m87.916 53.637-7.48 17.792 8.749 3.677 7.479-17.792z"/><path fill="#cec3f4" d="m103.01 55.51-9.072 21.58 8.749 3.678 9.071-21.58z"/><path fill="#000" d="M102.1 93.38a2 2 0 0 1-1.94 2.06L47.7 97.09c-1.1.04-2.03-.83-2.06-1.93l-.07-2.26-2.19-69.58c-.04-1.1.83-2.03 1.94-2.06l25.03-.79 27.43-.87a2 2 0 0 1 2.06 1.94z" opacity=".2"/><path fill="#fbfbfb" d="M100.27 91.21a2 2 0 0 1-1.94 2.06l-52.46 1.65c-1.1.04-2.03-.83-2.06-1.93l-.07-2.26-2.19-69.58c-.04-1.1.83-2.03 1.94-2.06l25.03-.79 27.43-.87a2 2 0 0 1 2.06 1.94z"/><mask id="c" width="60" height="78" x="41" y="17" maskUnits="userSpaceOnUse" style="mask-type:luminance"><path fill="#fff" d="M100.27 91.21a2 2 0 0 1-1.94 2.06l-52.46 1.65c-1.1.03-2.03-.83-2.06-1.93l-.07-2.26-2.19-69.58c-.04-1.1.83-2.03 1.94-2.06l25.03-.79 27.43-.86a2 2 0 0 1 2.06 1.94l2.26 71.84z"/></mask><g mask="url(#c)"><path fill="#000" d="m98.33 93.27.03 1a2.99 2.99 0 0 0 2.9-3.09l-1 .03-1 .03c.02.55-.42 1.01-.97 1.03l.03 1zm-2.38-75.83.03 1c.55-.02 1.01.42 1.03.97l1-.03 1-.03a2.99 2.99 0 0 0-3.09-2.9l.03 1zM45.88 94.93l-.03-1c-.55.02-1.01-.42-1.03-.97l-1 .03-1 .03a3 3 0 0 0 3.09 2.9l-.03-1zm-4.33-73.78 1-.03c-.02-.55.42-1.01.97-1.03l-.03-1-.03-1a2.99 2.99 0 0 0-2.9 3.09l1-.03zm56.46-1.78-1 .03 2.26 71.84 1-.03 1-.03-2.26-71.84zM68.52 18.3l.03 1 27.43-.86-.03-1-.03-1-27.43.86zm-25.03.79.03 1 25.03-.79-.03-1-.03-1-25.03.79zm.25 71.65 1-.03-2.19-69.58-1 .03-1 .03 2.19 69.58zm.07 2.25 1-.03-.07-2.26-1 .03-1 .03.07 2.26zm54.52.28-.03-1-52.46 1.65.03 1 .03 1 52.46-1.65z" opacity=".3"/></g><path fill="#102770" d="M47.15 28.82c-.01-.46.35-.84.8-.86l24.86-.78c.46-.01.84.35.86.8.01.46-.35.84-.81.86L48 29.62a.84.84 0 0 1-.86-.8z"/><path fill="#a3bac4" d="M47.3 33.61c-.01-.46.35-.84.8-.86l38.64-1.22c.46-.01.84.35.86.8.01.46-.35.84-.8.86l-38.64 1.22a.84.84 0 0 1-.86-.8m.14 4.45c-.01-.46.35-.84.8-.86l38.64-1.22c.46-.01.84.35.86.8.01.46-.35.84-.8.86L48.3 38.86a.84.84 0 0 1-.86-.8"/><path fill="#d0dd63" d="M48.52 72.18c-.01-.46.35-.84.8-.86l24.86-.78c.46-.01.84.35.86.8.01.46-.35.84-.81.86l-24.86.78a.84.84 0 0 1-.86-.8z"/><path fill="#a3bac4" d="M48.67 76.9c-.01-.46.35-.84.8-.86l43.18-1.36c.46-.01.84.35.86.8s-.35.84-.8.86L49.53 77.7a.84.84 0 0 1-.86-.8m.14 4.61c-.01-.46.35-.84.8-.86l43.18-1.36c.46-.01.84.35.86.8s-.35.84-.8.86l-43.18 1.36a.84.84 0 0 1-.86-.8m.15 4.75c-.01-.46.35-.84.8-.86l43.18-1.36c.46-.01.84.35.86.8s-.35.84-.8.86l-43.18 1.36a.84.84 0 0 1-.86-.8"/><path fill="#d0dd63" d="m60.109 49.8-9.485.298.481 15.332 9.486-.298z"/><path fill="#cec3f4" d="m75.99 45.33-9.484.299.606 19.29 9.485-.298zm14.52-4.565-9.485.298.735 23.399 9.486-.298z"/><path fill="#ffdc76" d="m61.82 3.4 6.46 18.52c.38 1.08-.19 2.27-1.28 2.64l-4.8 1.67 15.99 45.86a3.54 3.54 0 0 1-2.17 4.5L29.35 92.86c-1.84.64-3.86-.33-4.5-2.17L2.2 25.72c-.64-1.84.33-3.86 2.17-4.5l54.81-19.1c1.08-.38 2.27.19 2.64 1.28"/><mask id="d" width="77" height="92" x="2" y="2" maskUnits="userSpaceOnUse" style="mask-type:luminance"><path fill="#fff" d="m61.82 3.4 6.46 18.52c.38 1.08-.19 2.27-1.28 2.65l-4.8 1.67L78.19 72.1c.64 1.84-.33 3.86-2.17 4.5L29.35 92.87c-1.84.64-3.86-.33-4.5-2.17L2.2 25.72c-.64-1.84.33-3.86 2.17-4.5l54.81-19.1c1.08-.38 2.27.19 2.64 1.28"/></mask><g mask="url(#d)"><path fill="#cca125" d="m59.18 2.12.66 1.89s.09 0 .1.04l1.89-.66 1.89-.65A4.07 4.07 0 0 0 58.53.23l.66 1.89zM4.37 21.22l.66 1.89L59.83 4l-.66-1.89-.66-1.89-54.8 19.11zm-2.17 4.5 1.89-.66c-.28-.8.14-1.67.94-1.95l-.66-1.89-.66-1.89a5.52 5.52 0 0 0-3.4 7.04l1.89-.66zm22.65 64.97 1.89-.66L4.09 25.06l-1.89.66-1.89.66 22.65 64.97zm4.5 2.17-.66-1.89c-.8.28-1.67-.14-1.95-.94l-1.89.66-1.89.66c1 2.89 4.16 4.41 7.04 3.4l-.66-1.89zm46.67-16.27-.66-1.89-46.67 16.27.66 1.89.66 1.89 46.67-16.27zm2.17-4.49-1.89.66c.28.8-.14 1.67-.94 1.95l.66 1.89.66 1.89a5.52 5.52 0 0 0 3.4-7.04l-1.89.66zM62.2 26.23l-1.89.66L76.3 72.75l1.89-.66 1.89-.66-15.99-45.86zm4.8-1.67-.66-1.89-4.8 1.67.66 1.89.66 1.89 4.8-1.67zm1.28-2.65-1.89.66s0 .09-.05.1l.65 1.89.65 1.89a4.07 4.07 0 0 0 2.51-5.19l-1.89.66zM61.82 3.4l-1.89.66 6.46 18.52 1.89-.66 1.89-.66-6.46-18.52zm.38 22.83-.66-1.89-1.89.66.66 1.89zm4.8-1.67-.65-1.89.66 1.89z"/></g><path fill="#102770" fill-rule="evenodd" d="m63.95 59.06-1.06.38c-.15.05-.31-.02-.36-.17s.03-.31.17-.36l.8-.28-.36-1c-.05-.15.03-.31.17-.36.15-.05.31.02.36.17l.38 1.06s.02.07.02.11c.03.03.04.06.06.1.05.15-.02.31-.17.36zm-2.12.75-1.06.38c-.15.05-.31-.02-.36-.17s.03-.31.17-.36l1.06-.38c.15-.05.31.02.36.17s-.02.31-.17.36m-2.12.75-1.06.38c-.15.05-.31-.02-.36-.17s.03-.31.17-.36l1.06-.38c.15-.05.31.02.36.17s-.02.31-.17.36m-2.12.75-1.06.38c-.15.05-.31-.02-.36-.17s.03-.31.17-.36l1.06-.38c.15-.05.31.02.36.17s-.02.31-.17.36m-2.12.76-1.06.38c-.15.05-.31-.02-.36-.17s.03-.31.17-.36l1.06-.38c.15-.05.31.02.36.17s-.02.31-.17.36m-2.12.75-1.06.38c-.15.05-.31-.02-.36-.17s.03-.31.17-.36l1.06-.38c.15-.05.31.02.36.17s-.02.31-.17.36m-2.12.75-1.06.38c-.15.05-.31-.02-.36-.17s.03-.31.17-.36l1.06-.38c.15-.05.31.02.36.17s-.02.31-.17.36m-2.12.75-1.06.38c-.15.05-.31-.02-.36-.17s.03-.31.17-.36l1.06-.38c.15-.05.31.02.36.17s-.02.31-.17.36m-2.12.76-1.06.38c-.15.05-.31-.02-.36-.17s.03-.31.17-.36l1.06-.38c.15-.05.31.02.36.17s-.02.31-.17.36m-2.12.75-1.06.38c-.15.05-.31-.02-.36-.17s.03-.31.17-.36l1.06-.38c.15-.05.31.02.36.17s-.02.31-.17.36m-2.12.75-1.06.38c-.15.05-.31-.02-.36-.17s.03-.31.17-.36l1.06-.38c.15-.05.31.02.36.17s-.02.31-.17.36m-2.12.75-1.06.38c-.15.05-.31-.02-.36-.17s.03-.31.17-.36l1.06-.38c.15-.05.31.02.36.17s-.02.31-.17.36m-2.12.76-1.06.38c-.15.05-.31-.02-.36-.17s.03-.31.17-.36l1.06-.38c.15-.05.31.02.36.17s-.02.31-.17.36m-2.12.75-1.06.38c-.15.05-.31-.02-.36-.17s.03-.31.17-.36l1.06-.38c.15-.05.31.02.36.17s-.02.31-.17.36m-2.12.75-1.06.38c-.15.05-.31-.02-.36-.17s.03-.31.17-.36l1.06-.38c.15-.05.31.02.36.17s-.02.31-.17.36m-1.64-.25c-.15.05-.31-.02-.36-.17l-.38-1.06c-.05-.15.02-.31.17-.36s.31.02.36.17l.38 1.06c.05.15-.03.31-.17.36m30.49-12.61c-.15.05-.31-.02-.36-.17l-.38-1.06c-.05-.15.03-.31.17-.36.15-.05.31.02.36.17l.38 1.06c.05.15-.03.31-.17.36M31.88 67.22c-.15.05-.31-.02-.36-.17l-.38-1.06c-.05-.15.02-.31.17-.36s.31.02.36.17l.38 1.06c.05.15-.02.31-.17.36m30.49-12.6c-.15.05-.31-.02-.36-.17l-.38-1.06c-.05-.15.03-.31.17-.36.15-.05.31.02.36.17l.38 1.06c.05.15-.02.31-.17.36M31.13 65.11c-.15.05-.31-.02-.36-.17l-.38-1.06c-.05-.15.03-.31.17-.36.15-.05.31.02.36.17l.38 1.06c.05.15-.03.31-.17.36M61.62 52.5c-.15.05-.31-.02-.36-.17l-.38-1.06c-.05-.15.02-.31.17-.36s.31.02.36.17l.38 1.06c.05.15-.02.31-.17.36M30.38 62.99c-.15.05-.31-.02-.36-.17l-.38-1.06c-.05-.15.03-.31.17-.36.15-.05.31.02.36.17l.38 1.06c.05.15-.02.31-.17.36m30.49-12.6c-.15.05-.31-.02-.36-.17l-.38-1.06c-.05-.15.02-.31.17-.36s.31.02.36.17l.38 1.06c.05.15-.02.31-.17.36M29.63 60.88c-.15.05-.31-.02-.36-.17l-.38-1.06c-.05-.15.03-.31.17-.36.15-.05.31.02.36.17l.38 1.06c.05.15-.03.31-.17.36m30.49-12.61c-.15.05-.31-.02-.36-.17l-.38-1.06c-.05-.15.02-.31.17-.36s.31.02.36.17l.38 1.06c.05.15-.02.31-.17.36M28.88 58.76c-.15.05-.31-.02-.36-.17l-.38-1.06c-.05-.15.02-.31.17-.36s.31.02.36.17l.38 1.06c.05.15-.02.31-.17.36m30.49-12.6c-.15.05-.31-.02-.36-.17l-.38-1.06c-.05-.15.02-.31.17-.36s.31.02.36.17l.38 1.06c.05.15-.02.31-.17.36M28.13 56.64c-.15.05-.31-.02-.36-.17l-.38-1.06c-.05-.15.02-.31.17-.36s.31.02.36.17l.38 1.06c.05.15-.02.31-.17.36m30.49-12.6c-.15.05-.31-.02-.36-.17l-.38-1.06c-.05-.15.03-.31.17-.36.15-.05.31.02.36.17l.38 1.06c.05.15-.03.31-.17.36M27.38 54.53c-.15.05-.31-.02-.36-.17l-.38-1.06c-.05-.15.02-.31.17-.36s.31.02.36.17l.38 1.06c.05.15-.02.31-.17.36m30.49-12.6c-.15.05-.31-.02-.36-.17l-.38-1.06c-.05-.15.02-.31.17-.36s.31.02.36.17l.38 1.06c.05.15-.03.31-.17.36M26.63 52.41c-.15.05-.31-.02-.36-.17l-.38-1.06c-.05-.15.02-.31.17-.36s.31.02.36.17l.38 1.06c.05.15-.02.31-.17.36m30.49-12.6c-.15.05-.31-.02-.36-.17l-.38-1.06c-.05-.15.03-.31.17-.36.15-.05.31.02.36.17l.38 1.06c.05.15-.02.31-.17.36M25.87 50.3c-.15.05-.31-.02-.36-.17l-.38-1.06c-.05-.15.03-.31.17-.36.15-.05.31.02.36.17l.38 1.06c.05.15-.03.31-.17.36m30.5-12.61c-.15.05-.31-.02-.36-.17l-.38-1.06c-.05-.15.02-.31.17-.36s.31.02.36.17l.38 1.06c.05.15-.02.31-.17.36M25.12 48.18c-.15.05-.31-.02-.36-.17l-.38-1.06c-.05-.15.03-.31.17-.36.15-.05.31.02.36.17l.38 1.06c.05.15-.02.31-.17.36m30.49-12.6c-.15.05-.31-.02-.36-.17l-.38-1.06c-.05-.15.02-.31.17-.36s.31.02.36.17l.38 1.06c.05.15-.02.31-.17.36M24.37 46.07c-.15.05-.31-.02-.36-.17l-.38-1.06c-.05-.15.03-.31.17-.36.15-.05.31.02.36.17l.38 1.06c.05.15-.03.31-.17.36m30.49-12.61c-.15.05-.31-.02-.36-.17l-.38-1.06c-.05-.15.02-.31.17-.36s.31.02.36.17l.38 1.06c.05.15-.02.31-.17.36M23.62 43.95c-.15.05-.31-.02-.36-.17l-.38-1.06c-.05-.15.02-.31.17-.36s.31.02.36.17l.38 1.06c.05.15-.02.31-.17.36m30.49-12.6c-.15.05-.31-.02-.36-.17l-.38-1.06c-.05-.15.02-.31.17-.36s.31.02.36.17l.38 1.06c.05.15-.02.31-.17.36M22.87 41.84c-.15.05-.31-.02-.36-.17l-.38-1.06c-.05-.15.02-.31.17-.36s.31.02.36.17l.38 1.06c.05.15-.02.31-.17.36m30.49-12.61c-.15.05-.31-.02-.36-.17L52.62 28c-.05-.15.03-.31.17-.36.15-.05.31.02.36.17l.38 1.06c.05.15-.03.31-.17.36M22.12 39.72c-.15.05-.31-.02-.36-.17l-.22-.63c-.05-.15.03-.31.17-.36l.43-.15c.15-.05.31.02.36.17s-.02.31-.17.36l-.16.06.13.37c.05.15-.02.31-.17.36zM52 28.4l-1.06.38c-.15.05-.31-.02-.36-.17s.03-.31.17-.36l1.06-.38c.15-.05.31.02.36.17s-.02.31-.17.36m-2.12.76-1.06.38c-.15.05-.31-.02-.36-.17s.03-.31.17-.36l1.06-.38c.15-.05.31.02.36.17s-.02.31-.17.36m-2.12.75-1.06.38c-.15.05-.31-.02-.36-.17s.03-.31.17-.36l1.06-.38c.15-.05.31.02.36.17s-.02.31-.17.36m-2.12.75-1.06.38c-.15.05-.31-.02-.36-.17s.02-.31.17-.36l1.06-.38c.15-.05.31.02.36.17s-.02.31-.17.36m-2.12.75-1.06.38c-.15.05-.31-.02-.36-.17s.03-.31.17-.36l1.06-.38c.15-.05.31.02.36.17s-.02.31-.17.36m-2.12.75-1.06.38c-.15.05-.31-.02-.36-.17s.03-.31.17-.36l1.06-.38c.15-.05.31.02.36.17s-.02.31-.17.36m-2.12.76-1.06.38c-.15.05-.31-.02-.36-.17s.03-.31.17-.36l1.06-.38c.15-.05.31.02.36.17s-.02.31-.17.36m-2.12.75-1.06.38c-.15.05-.31-.02-.36-.17s.03-.31.17-.36l1.06-.38c.15-.05.31.02.36.17s-.02.31-.17.36m-2.12.75-1.06.38c-.15.05-.31-.02-.36-.17s.03-.31.17-.36l1.06-.38c.15-.05.31.02.36.17s-.02.31-.17.36m-2.12.75-1.06.38c-.15.05-.31-.02-.36-.17s.03-.31.17-.36l1.06-.38c.15-.05.31.02.36.17s-.02.31-.17.36m-2.12.76-1.06.38c-.15.05-.31-.02-.36-.17s.03-.31.17-.36l1.06-.38c.15-.05.31.02.36.17s-.02.31-.17.36m-2.12.75-1.06.38c-.15.05-.31-.02-.36-.17s.03-.31.17-.36l1.06-.38c.15-.05.31.02.36.17s-.02.31-.17.36m-2.12.75-1.06.38c-.15.05-.31-.02-.36-.17s.03-.31.17-.36l1.06-.38c.15-.05.31.02.36.17s-.02.31-.17.36m-2.12.75-1.06.38c-.15.05-.31-.02-.36-.17s.03-.31.17-.36l1.06-.38c.15-.05.31.02.36.17s-.02.31-.17.36" clip-rule="evenodd"/><path fill="#0c508e" d="M49.756 34.28 28.28 41.902l7.609 21.44 21.478-7.623z"/><path fill="#221f1f" d="M57.47 55.98 35.99 63.6c-.15.05-.31-.02-.36-.17l-7.61-21.44c-.05-.15.02-.31.17-.36l21.48-7.62c.15-.05.31.02.36.17l7.61 21.44c.05.15-.03.31-.17.36m-21.41 7 20.95-7.44-7.42-20.91-20.95 7.44z"/><path fill="#0c467a" fill-rule="evenodd" d="m49.76 34.28 7.61 21.44-21.48 7.62-2.4-6.76c2.32.53 4.83.43 7.24-.43 6.78-2.41 10.33-9.84 7.92-16.61-.54-1.52-1.34-2.88-2.33-4.05l3.43-1.22z" clip-rule="evenodd"/><path fill="#102770" d="M57.47 55.98 35.99 63.6c-.15.05-.31-.02-.36-.17l-7.61-21.44c-.05-.15.02-.31.17-.36l21.48-7.62c.15-.05.31.02.36.17l7.61 21.44c.05.15-.03.31-.17.36m-21.41 7 20.95-7.44-7.42-20.91-20.95 7.44z"/><path fill="#c0daff" d="m54.422 24.505-4.872 1.729 1.726 4.863 4.872-1.73z"/><path fill="#102770" fill-rule="evenodd" d="m56.25 29.63-4.88 1.73c-.15.05-.31-.02-.36-.17l-1.73-4.87c-.05-.15.02-.31.17-.36l4.88-1.73c.15-.05.31.02.36.17l1.73 4.87c.05.15-.03.31-.17.36m-4.8 1.11 4.35-1.54-1.54-4.34-4.35 1.54z" clip-rule="evenodd"/><path fill="#c0daff" d="m23.367 35.529-4.872 1.729 1.726 4.863 4.872-1.73z"/><path fill="#102770" fill-rule="evenodd" d="m25.2 40.66-4.88 1.73c-.15.05-.31-.02-.36-.17l-1.73-4.87c-.05-.15.02-.31.17-.36l4.88-1.73c.15-.05.31.02.36.17l1.73 4.87c.05.15-.03.31-.17.36m-4.8 1.1 4.35-1.54-1.54-4.34-4.35 1.54z" clip-rule="evenodd"/><path fill="#c0daff" d="m65.424 55.5-4.872 1.73 1.726 4.863 4.872-1.73z"/><path fill="#102770" fill-rule="evenodd" d="m67.25 60.62-4.88 1.73c-.15.05-.31-.02-.36-.17l-1.73-4.87c-.05-.15.03-.31.17-.36l4.88-1.73c.15-.05.31.02.36.17l1.73 4.87c.05.15-.02.31-.17.36m-4.8 1.11 4.35-1.54-1.54-4.34-4.35 1.54z" clip-rule="evenodd"/><path fill="#c0daff" d="m34.378 66.511-4.872 1.73 1.726 4.862 4.872-1.729z"/><path fill="#102770" fill-rule="evenodd" d="m36.2 71.65-4.88 1.73c-.15.05-.31-.02-.36-.17l-1.73-4.87c-.05-.15.03-.31.17-.36l4.88-1.73c.15-.05.31.02.36.17l1.73 4.87c.05.15-.02.31-.17.36m-4.8 1.11 4.35-1.54-1.54-4.34-4.35 1.54z" clip-rule="evenodd"/><path fill="#fbd000" fill-rule="evenodd" d="m50.31 55.75-8.92 3.16c-.15.05-.31-.02-.36-.17l-.22-.63c-.05-.15.02-.31.17-.36s.31.02.36.17l.13.36 8.39-2.98-.11-.32c-.05-.15.02-.31.17-.36s.31.02.36.17l.21.59c.05.15-.02.31-.17.36m-1.55-16.45c-.15.05-.31-.02-.36-.17L48 37.97l-16.01 5.68.38 1.06c.05.15-.03.31-.17.36-.15.05-.31-.02-.36-.17l-.47-1.32c-.05-.15.02-.31.17-.36l16.54-5.87c.15-.05.31.02.36.17l.5 1.41c.05.15-.02.31-.17.36" clip-rule="evenodd"/><path fill="#fbd000" d="m50.48 55.39-.21.08s0 .06-.03.07l.08.21.08.21c.26-.09.4-.38.31-.65l-.21.08zm-.21-.59-.21.08.21.59.21-.08.21-.08-.21-.59zm-.36-.17.08.21s.06 0 .07.03l.21-.08.21-.08a.513.513 0 0 0-.65-.31l.08.21zm-.17.36.21-.08s0-.06.03-.07l-.08-.21-.08-.21c-.26.09-.4.38-.31.65l.21-.08zm.12.32.21-.08-.11-.32-.21.08-.21.08.11.32zm-8.39 2.98.08.21 8.39-2.98-.08-.21-.08-.21-8.39 2.98zm-.13-.37-.21.08.13.36.21-.08.21-.08-.13-.36zm-.36-.17.08.21s.06 0 .07.03l.21-.08.21-.08a.513.513 0 0 0-.65-.31l.08.21zm-.17.36.21-.08s0-.06.03-.07l-.08-.21-.08-.21c-.26.09-.4.38-.31.65l.21-.08zm.23.63.21-.08-.22-.63-.21.08-.21.08.22.63zm.36.17-.08-.21s-.06 0-.07-.03l-.21.08-.21.08c.09.26.38.4.65.31l-.07-.21zm8.91-3.16-.08-.21-8.92 3.16.08.21.07.21 8.92-3.16zm-1.37-16.81-.21.08s0 .06-.03.07l.08.21.08.21c.26-.09.4-.38.31-.65l-.21.08zm-.51-1.42-.21.08.5 1.41.21-.08.21-.08-.5-1.41zm-.35-.17.08.21s.06 0 .07.03l.21-.08.21-.08a.513.513 0 0 0-.65-.31l.08.21zm-16.55 5.87.08.21 16.54-5.87-.08-.21-.08-.21-16.54 5.87zm-.17.36.21-.08s0-.06.03-.07l-.08-.21-.08-.21c-.26.09-.4.38-.31.65l.21-.08zm.47 1.33.21-.08-.47-1.32-.21.08-.21.08.47 1.32zm.36.17-.08-.21s-.06 0-.07-.03l-.21.08-.21.08c.09.26.38.4.65.31l-.08-.21zm.17-.36-.21.08s0 .06-.03.07l.08.21.08.21c.26-.09.4-.38.31-.65l-.21.08zm-.38-1.06-.21.08.38 1.06.21-.08.21-.08-.38-1.06zM48 37.97l-.08-.21-16.01 5.68.08.21.08.21 16.01-5.68zm.41 1.15.21-.08-.41-1.15-.21.08-.21.08.41 1.15zm.36.17-.08-.21s-.06 0-.07-.03l-.21.08-.21.08c.09.26.38.4.65.31l-.08-.21zm1.09 16.02.08.21.21-.08-.08-.21zm-8.39 2.98-.21.08.08.21.21-.08zm-9.49-14.63-.08-.21-.21.08.08.21zM48 37.97l.21-.08-.08-.21-.21.08z"/><path fill="#fbd000" fill-rule="evenodd" d="M45.85 57.33c-.15.05-.31-.02-.36-.17l-5.86-16.51c-.05-.15.02-.31.17-.36s.31.02.36.17l5.86 16.51c.05.15-.03.31-.17.36" clip-rule="evenodd"/><path fill="#fbd000" d="m46.02 56.97-.21.08s0 .06-.03.07l.08.21.08.21c.26-.09.4-.38.31-.65l-.21.08zm-5.86-16.51-.21.08 5.86 16.51.21-.08.21-.08-5.86-16.51zm-.36-.17.08.21s.06 0 .07.03l.21-.08.21-.08a.513.513 0 0 0-.65-.31l.08.21zm-.17.36.21-.08s0-.06.03-.07l-.08-.21-.08-.21c-.26.09-.4.38-.31.65l.21-.08zm5.86 16.51.21-.08-5.86-16.51-.21.08-.21.08 5.86 16.51zm.36.17-.08-.21s-.06 0-.07-.03l-.21.08-.21.08c.09.26.38.4.65.31l-.08-.21z"/></g><defs><clipPath id="a"><path fill="#fff" d="M0 0h128.68v113.45H0z"/></clipPath></defs></svg>