<svg width="129" height="114" viewBox="0 0 129 114" fill="none" xmlns="http://www.w3.org/2000/svg">
<g clip-path="url(#clip0_1_146)">
<path d="M24.09 88.29C24.09 88.29 25.61 95.6 32.61 96.77C38.06 97.68 54.68 92.2 57.11 89.77C66.33 80.55 49.57 77.71 46.43 78.62C43.28 79.52 24.09 88.31 24.09 88.31V88.29Z" fill="#E4B836"/>
<path opacity="0.2" d="M127.45 43.35C128.47 43.78 128.95 44.95 128.52 45.97L100.66 112.22C100.23 113.24 99.06 113.72 98.04 113.29L64.7 99.27L49.65 92.94C48.63 92.51 48.15 91.34 48.58 90.32L76.91 22.97C77.08 22.56 77.56 22.37 77.97 22.54L78.86 22.91L100.93 32.19L127.46 43.35H127.45Z" fill="black"/>
<path d="M126.43 40.29C127.45 40.72 127.93 41.89 127.5 42.91L99.64 109.16C99.21 110.18 98.04 110.66 97.02 110.23L63.68 96.21L48.63 89.88C47.61 89.45 47.13 88.28 47.56 87.26L75.89 19.91C76.06 19.5 76.54 19.31 76.95 19.48L77.84 19.85L99.91 29.13L126.44 40.29H126.43Z" fill="#FBFBFB"/>
<mask id="mask0_1_146" style="mask-type:luminance" maskUnits="userSpaceOnUse" x="47" y="19" width="81" height="92">
<path d="M126.43 40.29C127.45 40.72 127.93 41.89 127.5 42.91L99.64 109.16C99.21 110.18 98.04 110.66 97.02 110.23L63.68 96.21L48.63 89.88C47.61 89.45 47.13 88.28 47.56 87.26L75.89 19.92C76.06 19.51 76.53 19.31 76.95 19.49L77.84 19.86L99.91 29.14L126.44 40.3L126.43 40.29Z" fill="white"/>
</mask>
<g mask="url(#mask0_1_146)">
<path opacity="0.3" d="M127.49 42.91L128.41 43.3C129.05 41.77 128.33 40.01 126.81 39.37L126.42 40.29L126.03 41.21C126.54 41.42 126.78 42.01 126.56 42.52L127.48 42.91H127.49ZM75.89 19.91L76.81 20.3C76.77 20.4 76.66 20.44 76.56 20.4L76.95 19.48L77.34 18.56C76.42 18.17 75.36 18.61 74.97 19.53L75.89 19.92V19.91ZM99.63 109.16L98.71 108.77C98.5 109.28 97.91 109.52 97.4 109.3L97.01 110.22L96.62 111.14C98.15 111.78 99.91 111.06 100.55 109.54L99.63 109.15V109.16ZM48.63 89.87L49.02 88.95C48.51 88.74 48.27 88.15 48.49 87.64L47.57 87.25L46.65 86.86C46.01 88.39 46.72 90.15 48.25 90.79L48.64 89.87H48.63ZM99.9 29.13L99.51 30.05L126.04 41.21L126.43 40.29L126.82 39.37L100.29 28.21L99.9 29.13ZM77.83 19.85L77.44 20.77L99.51 30.05L99.9 29.13L100.29 28.21L78.22 18.93L77.83 19.85ZM76.95 19.48L76.56 20.4L77.45 20.77L77.84 19.85L78.23 18.93L77.34 18.56L76.95 19.48ZM47.56 87.25L48.48 87.64L76.81 20.3L75.89 19.91L74.97 19.52L46.65 86.87L47.57 87.26L47.56 87.25ZM63.68 96.2L64.07 95.28L49.02 88.95L48.63 89.87L48.24 90.79L63.29 97.12L63.68 96.2ZM97.01 110.22L97.4 109.3L64.06 95.28L63.67 96.2L63.28 97.12L96.62 111.14L97.01 110.22ZM127.49 42.91L126.57 42.52L98.71 108.77L99.63 109.16L100.55 109.55L128.41 43.3L127.49 42.91Z" fill="black"/>
</g>
<path d="M77.33 30.31C77.51 29.89 77.99 29.69 78.42 29.87L101.35 39.51C101.77 39.69 101.97 40.17 101.79 40.6C101.61 41.02 101.13 41.22 100.7 41.05L77.77 31.41C77.35 31.23 77.15 30.75 77.33 30.32V30.31Z" fill="#102770"/>
<path d="M75.47 34.73C75.65 34.31 76.13 34.11 76.56 34.29L112.19 49.28C112.61 49.46 112.81 49.94 112.64 50.37C112.46 50.79 111.98 50.99 111.55 50.82L75.92 35.83C75.5 35.65 75.3 35.17 75.48 34.74L75.47 34.73Z" fill="#A3BAC4"/>
<path d="M73.74 38.83C73.92 38.41 74.4 38.21 74.83 38.39L110.46 53.38C110.88 53.56 111.08 54.04 110.91 54.47C110.73 54.89 110.25 55.09 109.82 54.92L74.19 39.93C73.77 39.75 73.57 39.27 73.75 38.84L73.74 38.83Z" fill="#A3BAC4"/>
<path d="M60.51 70.3C60.69 69.88 61.17 69.68 61.6 69.86L84.53 79.5C84.95 79.68 85.15 80.16 84.97 80.59C84.79 81.01 84.31 81.21 83.88 81.04L60.95 71.4C60.53 71.22 60.33 70.74 60.51 70.31V70.3Z" fill="#D0DD63"/>
<path d="M58.68 74.65C58.86 74.23 59.34 74.03 59.77 74.21L99.59 90.96C100.01 91.14 100.21 91.62 100.04 92.05C99.86 92.47 99.38 92.67 98.95 92.5L59.13 75.75C58.71 75.57 58.51 75.09 58.69 74.66L58.68 74.65Z" fill="#A3BAC4"/>
<path d="M56.89 78.9C57.07 78.48 57.55 78.28 57.98 78.46L97.8 95.21C98.22 95.39 98.42 95.87 98.25 96.3C98.07 96.72 97.59 96.92 97.16 96.75L57.34 80C56.92 79.82 56.72 79.34 56.9 78.91L56.89 78.9Z" fill="#A3BAC4"/>
<path d="M55.05 83.28C55.23 82.86 55.71 82.66 56.14 82.84L95.96 99.59C96.38 99.77 96.58 100.25 96.41 100.68C96.23 101.1 95.75 101.3 95.32 101.13L55.5 84.38C55.08 84.2 54.88 83.72 55.06 83.29L55.05 83.28Z" fill="#A3BAC4"/>
<path d="M71.6231 51.0573L65.6786 65.1987L74.4271 68.8763L80.3716 54.7349L71.6231 51.0573Z" fill="#D0DD63"/>
<path d="M87.9155 53.6367L80.4365 71.4287L89.1849 75.1062L96.664 57.3142L87.9155 53.6367Z" fill="#FEB50E"/>
<path d="M103.01 55.5098L93.9382 77.0907L102.687 80.7682L111.758 59.1874L103.01 55.5098Z" fill="#CEC3F4"/>
<path opacity="0.2" d="M102.1 93.38C102.13 94.48 101.27 95.41 100.16 95.44L47.7 97.09C46.6 97.13 45.67 96.26 45.64 95.16L45.57 92.9L43.38 23.32C43.34 22.22 44.21 21.29 45.32 21.26L70.35 20.47L97.78 19.6C98.88 19.57 99.81 20.43 99.84 21.54L102.1 93.38Z" fill="black"/>
<path d="M100.27 91.21C100.3 92.31 99.44 93.24 98.33 93.27L45.87 94.92C44.77 94.96 43.84 94.09 43.81 92.99L43.74 90.73L41.55 21.15C41.51 20.05 42.38 19.12 43.49 19.09L68.52 18.3L95.95 17.43C97.05 17.4 97.98 18.26 98.01 19.37L100.27 91.21Z" fill="#FBFBFB"/>
<mask id="mask1_1_146" style="mask-type:luminance" maskUnits="userSpaceOnUse" x="41" y="17" width="60" height="78">
<path d="M100.27 91.21C100.3 92.31 99.44 93.24 98.33 93.27L45.87 94.92C44.77 94.95 43.84 94.09 43.81 92.99L43.74 90.73L41.55 21.15C41.51 20.05 42.38 19.12 43.49 19.09L68.52 18.3L95.95 17.44C97.05 17.41 97.98 18.27 98.01 19.38L100.27 91.22V91.21Z" fill="white"/>
</mask>
<g mask="url(#mask1_1_146)">
<path opacity="0.3" d="M98.33 93.27L98.36 94.27C100.02 94.22 101.32 92.83 101.26 91.18L100.26 91.21L99.26 91.24C99.28 91.79 98.84 92.25 98.29 92.27L98.32 93.27H98.33ZM95.95 17.44L95.98 18.44C96.53 18.42 96.99 18.86 97.01 19.41L98.01 19.38L99.01 19.35C98.96 17.69 97.57 16.39 95.92 16.45L95.95 17.45V17.44ZM45.88 94.93L45.85 93.93C45.3 93.95 44.84 93.51 44.82 92.96L43.82 92.99L42.82 93.02C42.87 94.67 44.26 95.97 45.91 95.92L45.88 94.92V94.93ZM41.55 21.15L42.55 21.12C42.53 20.57 42.97 20.11 43.52 20.09L43.49 19.09L43.46 18.09C41.8 18.14 40.5 19.53 40.56 21.18L41.56 21.15H41.55ZM98.01 19.37L97.01 19.4L99.27 91.24L100.27 91.21L101.27 91.18L99.01 19.34L98.01 19.37ZM68.52 18.3L68.55 19.3L95.98 18.44L95.95 17.44L95.92 16.44L68.49 17.3L68.52 18.3ZM43.49 19.09L43.52 20.09L68.55 19.3L68.52 18.3L68.49 17.3L43.46 18.09L43.49 19.09ZM43.74 90.74L44.74 90.71L42.55 21.13L41.55 21.16L40.55 21.19L42.74 90.77L43.74 90.74ZM43.81 92.99L44.81 92.96L44.74 90.7L43.74 90.73L42.74 90.76L42.81 93.02L43.81 92.99ZM98.33 93.27L98.3 92.27L45.84 93.92L45.87 94.92L45.9 95.92L98.36 94.27L98.33 93.27Z" fill="black"/>
</g>
<path d="M47.15 28.82C47.14 28.36 47.5 27.98 47.95 27.96L72.81 27.18C73.27 27.17 73.65 27.53 73.67 27.98C73.68 28.44 73.32 28.82 72.86 28.84L48 29.62C47.54 29.63 47.16 29.27 47.14 28.82H47.15Z" fill="#102770"/>
<path d="M47.3 33.61C47.29 33.15 47.65 32.77 48.1 32.75L86.74 31.53C87.2 31.52 87.58 31.88 87.6 32.33C87.61 32.79 87.25 33.17 86.8 33.19L48.16 34.41C47.7 34.42 47.32 34.06 47.3 33.61Z" fill="#A3BAC4"/>
<path d="M47.44 38.06C47.43 37.6 47.79 37.22 48.24 37.2L86.88 35.98C87.34 35.97 87.72 36.33 87.74 36.78C87.75 37.24 87.39 37.62 86.94 37.64L48.3 38.86C47.84 38.87 47.46 38.51 47.44 38.06Z" fill="#A3BAC4"/>
<path d="M48.52 72.18C48.51 71.72 48.87 71.34 49.32 71.32L74.18 70.54C74.64 70.53 75.02 70.89 75.04 71.34C75.05 71.8 74.69 72.18 74.23 72.2L49.37 72.98C48.91 72.99 48.53 72.63 48.51 72.18H48.52Z" fill="#D0DD63"/>
<path d="M48.67 76.9C48.66 76.44 49.02 76.06 49.47 76.04L92.65 74.68C93.11 74.67 93.49 75.03 93.51 75.48C93.53 75.93 93.16 76.32 92.71 76.34L49.53 77.7C49.07 77.71 48.69 77.35 48.67 76.9Z" fill="#A3BAC4"/>
<path d="M48.81 81.51C48.8 81.05 49.16 80.67 49.61 80.65L92.79 79.29C93.25 79.28 93.63 79.64 93.65 80.09C93.67 80.54 93.3 80.93 92.85 80.95L49.67 82.31C49.21 82.32 48.83 81.96 48.81 81.51Z" fill="#A3BAC4"/>
<path d="M48.96 86.26C48.95 85.8 49.31 85.42 49.76 85.4L92.94 84.04C93.4 84.03 93.78 84.39 93.8 84.84C93.82 85.29 93.45 85.68 93 85.7L49.82 87.06C49.36 87.07 48.98 86.71 48.96 86.26Z" fill="#A3BAC4"/>
<path d="M60.1089 49.7997L50.6236 50.0978L51.1054 65.4302L60.5907 65.1321L60.1089 49.7997Z" fill="#D0DD63"/>
<path d="M75.9909 45.3309L66.5056 45.629L67.1118 64.9195L76.5971 64.6214L75.9909 45.3309Z" fill="#CEC3F4"/>
<path d="M90.5102 40.7652L81.0248 41.0633L81.7602 64.4617L91.2455 64.1637L90.5102 40.7652Z" fill="#CEC3F4"/>
<path d="M61.82 3.4L68.28 21.92C68.66 23 68.09 24.19 67 24.56L62.2 26.23L78.19 72.09C78.83 73.93 77.86 75.94 76.02 76.59L29.35 92.86C27.51 93.5 25.49 92.53 24.85 90.69L2.2 25.72C1.56 23.88 2.53 21.86 4.37 21.22L59.18 2.12C60.26 1.74 61.45 2.31 61.82 3.4Z" fill="#FFDC76"/>
<mask id="mask2_1_146" style="mask-type:luminance" maskUnits="userSpaceOnUse" x="2" y="2" width="77" height="92">
<path d="M61.82 3.4L68.28 21.92C68.66 23 68.09 24.19 67 24.57L62.2 26.24L78.19 72.1C78.83 73.94 77.86 75.96 76.02 76.6L29.35 92.87C27.51 93.51 25.49 92.54 24.85 90.7L2.2 25.72C1.56 23.88 2.53 21.86 4.37 21.22L59.18 2.12C60.26 1.74 61.45 2.31 61.82 3.4Z" fill="white"/>
</mask>
<g mask="url(#mask2_1_146)">
<path d="M59.18 2.12L59.84 4.01C59.84 4.01 59.93 4.01 59.94 4.05L61.83 3.39L63.72 2.74C62.98 0.6 60.65 -0.51 58.53 0.23L59.19 2.12H59.18ZM4.37 21.22L5.03 23.11L59.83 4L59.17 2.11L58.51 0.22L3.71 19.33L4.37 21.22ZM2.2 25.72L4.09 25.06C3.81 24.26 4.23 23.39 5.03 23.11L4.37 21.22L3.71 19.33C0.82 20.34 -0.7 23.49 0.31 26.37L2.2 25.71V25.72ZM24.85 90.69L26.74 90.03L4.09 25.06L2.2 25.72L0.31 26.38L22.96 91.35L24.85 90.69ZM29.35 92.86L28.69 90.97C27.89 91.25 27.02 90.83 26.74 90.03L24.85 90.69L22.96 91.35C23.96 94.24 27.12 95.76 30 94.75L29.34 92.86H29.35ZM76.02 76.59L75.36 74.7L28.69 90.97L29.35 92.86L30.01 94.75L76.68 78.48L76.02 76.59ZM78.19 72.1L76.3 72.76C76.58 73.56 76.16 74.43 75.36 74.71L76.02 76.6L76.68 78.49C79.57 77.48 81.09 74.33 80.08 71.45L78.19 72.11V72.1ZM62.2 26.23L60.31 26.89L76.3 72.75L78.19 72.09L80.08 71.43L64.09 25.57L62.2 26.23ZM67 24.56L66.34 22.67L61.54 24.34L62.2 26.23L62.86 28.12L67.66 26.45L67 24.56ZM68.28 21.91L66.39 22.57C66.39 22.57 66.39 22.66 66.34 22.67L66.99 24.56L67.64 26.45C69.78 25.71 70.89 23.38 70.15 21.26L68.26 21.92L68.28 21.91ZM61.82 3.4L59.93 4.06L66.39 22.58L68.28 21.92L70.17 21.26L63.71 2.74L61.82 3.4ZM62.2 26.23L61.54 24.34L59.65 25L60.31 26.89L62.2 26.23ZM67 24.56L66.35 22.67L67.01 24.56H67Z" fill="#CCA125"/>
</g>
<path fill-rule="evenodd" clip-rule="evenodd" d="M63.95 59.06L62.89 59.44C62.74 59.49 62.58 59.42 62.53 59.27C62.48 59.12 62.56 58.96 62.7 58.91L63.5 58.63L63.14 57.63C63.09 57.48 63.17 57.32 63.31 57.27C63.46 57.22 63.62 57.29 63.67 57.44L64.05 58.5C64.05 58.5 64.07 58.57 64.07 58.61C64.1 58.64 64.11 58.67 64.13 58.71C64.18 58.86 64.11 59.02 63.96 59.07L63.95 59.06ZM61.83 59.81L60.77 60.19C60.62 60.24 60.46 60.17 60.41 60.02C60.36 59.87 60.44 59.71 60.58 59.66L61.64 59.28C61.79 59.23 61.95 59.3 62 59.45C62.05 59.6 61.98 59.76 61.83 59.81ZM59.71 60.56L58.65 60.94C58.5 60.99 58.34 60.92 58.29 60.77C58.24 60.62 58.32 60.46 58.46 60.41L59.52 60.03C59.67 59.98 59.83 60.05 59.88 60.2C59.93 60.35 59.86 60.51 59.71 60.56ZM57.59 61.31L56.53 61.69C56.38 61.74 56.22 61.67 56.17 61.52C56.12 61.37 56.2 61.21 56.34 61.16L57.4 60.78C57.55 60.73 57.71 60.8 57.76 60.95C57.81 61.1 57.74 61.26 57.59 61.31ZM55.47 62.07L54.41 62.45C54.26 62.5 54.1 62.43 54.05 62.28C54 62.13 54.08 61.97 54.22 61.92L55.28 61.54C55.43 61.49 55.59 61.56 55.64 61.71C55.69 61.86 55.62 62.02 55.47 62.07ZM53.35 62.82L52.29 63.2C52.14 63.25 51.98 63.18 51.93 63.03C51.88 62.88 51.96 62.72 52.1 62.67L53.16 62.29C53.31 62.24 53.47 62.31 53.52 62.46C53.57 62.61 53.5 62.77 53.35 62.82ZM51.23 63.57L50.17 63.95C50.02 64 49.86 63.93 49.81 63.78C49.76 63.63 49.84 63.47 49.98 63.42L51.04 63.04C51.19 62.99 51.35 63.06 51.4 63.21C51.45 63.36 51.38 63.52 51.23 63.57ZM49.11 64.32L48.05 64.7C47.9 64.75 47.74 64.68 47.69 64.53C47.64 64.38 47.72 64.22 47.86 64.17L48.92 63.79C49.07 63.74 49.23 63.81 49.28 63.96C49.33 64.11 49.26 64.27 49.11 64.32ZM46.99 65.08L45.93 65.46C45.78 65.51 45.62 65.44 45.57 65.29C45.52 65.14 45.6 64.98 45.74 64.93L46.8 64.55C46.95 64.5 47.11 64.57 47.16 64.72C47.21 64.87 47.14 65.03 46.99 65.08ZM44.87 65.83L43.81 66.21C43.66 66.26 43.5 66.19 43.45 66.04C43.4 65.89 43.48 65.73 43.62 65.68L44.68 65.3C44.83 65.25 44.99 65.32 45.04 65.47C45.09 65.62 45.02 65.78 44.87 65.83ZM42.75 66.58L41.69 66.96C41.54 67.01 41.38 66.94 41.33 66.79C41.28 66.64 41.36 66.48 41.5 66.43L42.56 66.05C42.71 66 42.87 66.07 42.92 66.22C42.97 66.37 42.9 66.53 42.75 66.58ZM40.63 67.33L39.57 67.71C39.42 67.76 39.26 67.69 39.21 67.54C39.16 67.39 39.24 67.23 39.38 67.18L40.44 66.8C40.59 66.75 40.75 66.82 40.8 66.97C40.85 67.12 40.78 67.28 40.63 67.33ZM38.51 68.09L37.45 68.47C37.3 68.52 37.14 68.45 37.09 68.3C37.04 68.15 37.12 67.99 37.26 67.94L38.32 67.56C38.47 67.51 38.63 67.58 38.68 67.73C38.73 67.88 38.66 68.04 38.51 68.09ZM36.39 68.84L35.33 69.22C35.18 69.27 35.02 69.2 34.97 69.05C34.92 68.9 35 68.74 35.14 68.69L36.2 68.31C36.35 68.26 36.51 68.33 36.56 68.48C36.61 68.63 36.54 68.79 36.39 68.84ZM34.27 69.59L33.21 69.97C33.06 70.02 32.9 69.95 32.85 69.8C32.8 69.65 32.88 69.49 33.02 69.44L34.08 69.06C34.23 69.01 34.39 69.08 34.44 69.23C34.49 69.38 34.42 69.54 34.27 69.59ZM32.63 69.34C32.48 69.39 32.32 69.32 32.27 69.17L31.89 68.11C31.84 67.96 31.91 67.8 32.06 67.75C32.21 67.7 32.37 67.77 32.42 67.92L32.8 68.98C32.85 69.13 32.77 69.29 32.63 69.34ZM63.12 56.73C62.97 56.78 62.81 56.71 62.76 56.56L62.38 55.5C62.33 55.35 62.41 55.19 62.55 55.14C62.7 55.09 62.86 55.16 62.91 55.31L63.29 56.37C63.34 56.52 63.26 56.68 63.12 56.73ZM31.88 67.22C31.73 67.27 31.57 67.2 31.52 67.05L31.14 65.99C31.09 65.84 31.16 65.68 31.31 65.63C31.46 65.58 31.62 65.65 31.67 65.8L32.05 66.86C32.1 67.01 32.03 67.17 31.88 67.22ZM62.37 54.62C62.22 54.67 62.06 54.6 62.01 54.45L61.63 53.39C61.58 53.24 61.66 53.08 61.8 53.03C61.95 52.98 62.11 53.05 62.16 53.2L62.54 54.26C62.59 54.41 62.52 54.57 62.37 54.62ZM31.13 65.11C30.98 65.16 30.82 65.09 30.77 64.94L30.39 63.88C30.34 63.73 30.42 63.57 30.56 63.52C30.71 63.47 30.87 63.54 30.92 63.69L31.3 64.75C31.35 64.9 31.27 65.06 31.13 65.11ZM61.62 52.5C61.47 52.55 61.31 52.48 61.26 52.33L60.88 51.27C60.83 51.12 60.9 50.96 61.05 50.91C61.2 50.86 61.36 50.93 61.41 51.08L61.79 52.14C61.84 52.29 61.77 52.45 61.62 52.5ZM30.38 62.99C30.23 63.04 30.07 62.97 30.02 62.82L29.64 61.76C29.59 61.61 29.67 61.45 29.81 61.4C29.96 61.35 30.12 61.42 30.17 61.57L30.55 62.63C30.6 62.78 30.53 62.94 30.38 62.99ZM60.87 50.39C60.72 50.44 60.56 50.37 60.51 50.22L60.13 49.16C60.08 49.01 60.15 48.85 60.3 48.8C60.45 48.75 60.61 48.82 60.66 48.97L61.04 50.03C61.09 50.18 61.02 50.34 60.87 50.39ZM29.63 60.88C29.48 60.93 29.32 60.86 29.27 60.71L28.89 59.65C28.84 59.5 28.92 59.34 29.06 59.29C29.21 59.24 29.37 59.31 29.42 59.46L29.8 60.52C29.85 60.67 29.77 60.83 29.63 60.88ZM60.12 48.27C59.97 48.32 59.81 48.25 59.76 48.1L59.38 47.04C59.33 46.89 59.4 46.73 59.55 46.68C59.7 46.63 59.86 46.7 59.91 46.85L60.29 47.91C60.34 48.06 60.27 48.22 60.12 48.27ZM28.88 58.76C28.73 58.81 28.57 58.74 28.52 58.59L28.14 57.53C28.09 57.38 28.16 57.22 28.31 57.17C28.46 57.12 28.62 57.19 28.67 57.34L29.05 58.4C29.1 58.55 29.03 58.71 28.88 58.76ZM59.37 46.16C59.22 46.21 59.06 46.14 59.01 45.99L58.63 44.93C58.58 44.78 58.65 44.62 58.8 44.57C58.95 44.52 59.11 44.59 59.16 44.74L59.54 45.8C59.59 45.95 59.52 46.11 59.37 46.16ZM28.13 56.64C27.98 56.69 27.82 56.62 27.77 56.47L27.39 55.41C27.34 55.26 27.41 55.1 27.56 55.05C27.71 55 27.87 55.07 27.92 55.22L28.3 56.28C28.35 56.43 28.28 56.59 28.13 56.64ZM58.62 44.04C58.47 44.09 58.31 44.02 58.26 43.87L57.88 42.81C57.83 42.66 57.91 42.5 58.05 42.45C58.2 42.4 58.36 42.47 58.41 42.62L58.79 43.68C58.84 43.83 58.76 43.99 58.62 44.04ZM27.38 54.53C27.23 54.58 27.07 54.51 27.02 54.36L26.64 53.3C26.59 53.15 26.66 52.99 26.81 52.94C26.96 52.89 27.12 52.96 27.17 53.11L27.55 54.17C27.6 54.32 27.53 54.48 27.38 54.53ZM57.87 41.93C57.72 41.98 57.56 41.91 57.51 41.76L57.13 40.7C57.08 40.55 57.15 40.39 57.3 40.34C57.45 40.29 57.61 40.36 57.66 40.51L58.04 41.57C58.09 41.72 58.01 41.88 57.87 41.93ZM26.63 52.41C26.48 52.46 26.32 52.39 26.27 52.24L25.89 51.18C25.84 51.03 25.91 50.87 26.06 50.82C26.21 50.77 26.37 50.84 26.42 50.99L26.8 52.05C26.85 52.2 26.78 52.36 26.63 52.41ZM57.12 39.81C56.97 39.86 56.81 39.79 56.76 39.64L56.38 38.58C56.33 38.43 56.41 38.27 56.55 38.22C56.7 38.17 56.86 38.24 56.91 38.39L57.29 39.45C57.34 39.6 57.27 39.76 57.12 39.81ZM25.87 50.3C25.72 50.35 25.56 50.28 25.51 50.13L25.13 49.07C25.08 48.92 25.16 48.76 25.3 48.71C25.45 48.66 25.61 48.73 25.66 48.88L26.04 49.94C26.09 50.09 26.01 50.25 25.87 50.3ZM56.37 37.69C56.22 37.74 56.06 37.67 56.01 37.52L55.63 36.46C55.58 36.31 55.65 36.15 55.8 36.1C55.95 36.05 56.11 36.12 56.16 36.27L56.54 37.33C56.59 37.48 56.52 37.64 56.37 37.69ZM25.12 48.18C24.97 48.23 24.81 48.16 24.76 48.01L24.38 46.95C24.33 46.8 24.41 46.64 24.55 46.59C24.7 46.54 24.86 46.61 24.91 46.76L25.29 47.82C25.34 47.97 25.27 48.13 25.12 48.18ZM55.61 35.58C55.46 35.63 55.3 35.56 55.25 35.41L54.87 34.35C54.82 34.2 54.89 34.04 55.04 33.99C55.19 33.94 55.35 34.01 55.4 34.16L55.78 35.22C55.83 35.37 55.76 35.53 55.61 35.58ZM24.37 46.07C24.22 46.12 24.06 46.05 24.01 45.9L23.63 44.84C23.58 44.69 23.66 44.53 23.8 44.48C23.95 44.43 24.11 44.5 24.16 44.65L24.54 45.71C24.59 45.86 24.51 46.02 24.37 46.07ZM54.86 33.46C54.71 33.51 54.55 33.44 54.5 33.29L54.12 32.23C54.07 32.08 54.14 31.92 54.29 31.87C54.44 31.82 54.6 31.89 54.65 32.04L55.03 33.1C55.08 33.25 55.01 33.41 54.86 33.46ZM23.62 43.95C23.47 44 23.31 43.93 23.26 43.78L22.88 42.72C22.83 42.57 22.9 42.41 23.05 42.36C23.2 42.31 23.36 42.38 23.41 42.53L23.79 43.59C23.84 43.74 23.77 43.9 23.62 43.95ZM54.11 31.35C53.96 31.4 53.8 31.33 53.75 31.18L53.37 30.12C53.32 29.97 53.39 29.81 53.54 29.76C53.69 29.71 53.85 29.78 53.9 29.93L54.28 30.99C54.33 31.14 54.26 31.3 54.11 31.35ZM22.87 41.84C22.72 41.89 22.56 41.82 22.51 41.67L22.13 40.61C22.08 40.46 22.15 40.3 22.3 40.25C22.45 40.2 22.61 40.27 22.66 40.42L23.04 41.48C23.09 41.63 23.02 41.79 22.87 41.84ZM53.36 29.23C53.21 29.28 53.05 29.21 53 29.06L52.62 28C52.57 27.85 52.65 27.69 52.79 27.64C52.94 27.59 53.1 27.66 53.15 27.81L53.53 28.87C53.58 29.02 53.5 29.18 53.36 29.23ZM22.12 39.72C21.97 39.77 21.81 39.7 21.76 39.55L21.54 38.92C21.49 38.77 21.57 38.61 21.71 38.56L22.14 38.41C22.29 38.36 22.45 38.43 22.5 38.58C22.55 38.73 22.48 38.89 22.33 38.94L22.17 39L22.3 39.37C22.35 39.52 22.28 39.68 22.13 39.73L22.12 39.72ZM52 28.4L50.94 28.78C50.79 28.83 50.63 28.76 50.58 28.61C50.53 28.46 50.61 28.3 50.75 28.25L51.81 27.87C51.96 27.82 52.12 27.89 52.17 28.04C52.22 28.19 52.15 28.35 52 28.4ZM49.88 29.16L48.82 29.54C48.67 29.59 48.51 29.52 48.46 29.37C48.41 29.22 48.49 29.06 48.63 29.01L49.69 28.63C49.84 28.58 50 28.65 50.05 28.8C50.1 28.95 50.03 29.11 49.88 29.16ZM47.76 29.91L46.7 30.29C46.55 30.34 46.39 30.27 46.34 30.12C46.29 29.97 46.37 29.81 46.51 29.76L47.57 29.38C47.72 29.33 47.88 29.4 47.93 29.55C47.98 29.7 47.91 29.86 47.76 29.91ZM45.64 30.66L44.58 31.04C44.43 31.09 44.27 31.02 44.22 30.87C44.17 30.72 44.24 30.56 44.39 30.51L45.45 30.13C45.6 30.08 45.76 30.15 45.81 30.3C45.86 30.45 45.79 30.61 45.64 30.66ZM43.52 31.41L42.46 31.79C42.31 31.84 42.15 31.77 42.1 31.62C42.05 31.47 42.13 31.31 42.27 31.26L43.33 30.88C43.48 30.83 43.64 30.9 43.69 31.05C43.74 31.2 43.67 31.36 43.52 31.41ZM41.4 32.16L40.34 32.54C40.19 32.59 40.03 32.52 39.98 32.37C39.93 32.22 40.01 32.06 40.15 32.01L41.21 31.63C41.36 31.58 41.52 31.65 41.57 31.8C41.62 31.95 41.55 32.11 41.4 32.16ZM39.28 32.92L38.22 33.3C38.07 33.35 37.91 33.28 37.86 33.13C37.81 32.98 37.89 32.82 38.03 32.77L39.09 32.39C39.24 32.34 39.4 32.41 39.45 32.56C39.5 32.71 39.43 32.87 39.28 32.92ZM37.16 33.67L36.1 34.05C35.95 34.1 35.79 34.03 35.74 33.88C35.69 33.73 35.77 33.57 35.91 33.52L36.97 33.14C37.12 33.09 37.28 33.16 37.33 33.31C37.38 33.46 37.31 33.62 37.16 33.67ZM35.04 34.42L33.98 34.8C33.83 34.85 33.67 34.78 33.62 34.63C33.57 34.48 33.65 34.32 33.79 34.27L34.85 33.89C35 33.84 35.16 33.91 35.21 34.06C35.26 34.21 35.19 34.37 35.04 34.42ZM32.92 35.17L31.86 35.55C31.71 35.6 31.55 35.53 31.5 35.38C31.45 35.23 31.53 35.07 31.67 35.02L32.73 34.64C32.88 34.59 33.04 34.66 33.09 34.81C33.14 34.96 33.07 35.12 32.92 35.17ZM30.8 35.93L29.74 36.31C29.59 36.36 29.43 36.29 29.38 36.14C29.33 35.99 29.41 35.83 29.55 35.78L30.61 35.4C30.76 35.35 30.92 35.42 30.97 35.57C31.02 35.72 30.95 35.88 30.8 35.93ZM28.68 36.68L27.62 37.06C27.47 37.11 27.31 37.04 27.26 36.89C27.21 36.74 27.29 36.58 27.43 36.53L28.49 36.15C28.64 36.1 28.8 36.17 28.85 36.32C28.9 36.47 28.83 36.63 28.68 36.68ZM26.56 37.43L25.5 37.81C25.35 37.86 25.19 37.79 25.14 37.64C25.09 37.49 25.17 37.33 25.31 37.28L26.37 36.9C26.52 36.85 26.68 36.92 26.73 37.07C26.78 37.22 26.71 37.38 26.56 37.43ZM24.44 38.18L23.38 38.56C23.23 38.61 23.07 38.54 23.02 38.39C22.97 38.24 23.05 38.08 23.19 38.03L24.25 37.65C24.4 37.6 24.56 37.67 24.61 37.82C24.66 37.97 24.59 38.13 24.44 38.18Z" fill="#102770"/>
<path d="M49.7564 34.2797L28.2789 41.9021L35.888 63.3419L57.3655 55.7194L49.7564 34.2797Z" fill="#0C508E"/>
<path d="M57.47 55.98L35.99 63.6C35.84 63.65 35.68 63.58 35.63 63.43L28.02 41.99C27.97 41.84 28.04 41.68 28.19 41.63L49.67 34.01C49.82 33.96 49.98 34.03 50.03 34.18L57.64 55.62C57.69 55.77 57.61 55.93 57.47 55.98ZM36.06 62.98L57.01 55.54L49.59 34.63L28.64 42.07L36.06 62.98Z" fill="#221F1F"/>
<path fill-rule="evenodd" clip-rule="evenodd" d="M49.76 34.28L57.37 55.72L35.89 63.34L33.49 56.58C35.81 57.11 38.32 57.01 40.73 56.15C47.51 53.74 51.06 46.31 48.65 39.54C48.11 38.02 47.31 36.66 46.32 35.49L49.75 34.27L49.76 34.28Z" fill="#0C467A"/>
<path d="M57.47 55.98L35.99 63.6C35.84 63.65 35.68 63.58 35.63 63.43L28.02 41.99C27.97 41.84 28.04 41.68 28.19 41.63L49.67 34.01C49.82 33.96 49.98 34.03 50.03 34.18L57.64 55.62C57.69 55.77 57.61 55.93 57.47 55.98ZM36.06 62.98L57.01 55.54L49.59 34.63L28.64 42.07L36.06 62.98Z" fill="#102770"/>
<path d="M54.4223 24.5048L49.5501 26.234L51.2759 31.0968L56.1482 29.3676L54.4223 24.5048Z" fill="#C0DAFF"/>
<path fill-rule="evenodd" clip-rule="evenodd" d="M56.25 29.63L51.37 31.36C51.22 31.41 51.06 31.34 51.01 31.19L49.28 26.32C49.23 26.17 49.3 26.01 49.45 25.96L54.33 24.23C54.48 24.18 54.64 24.25 54.69 24.4L56.42 29.27C56.47 29.42 56.39 29.58 56.25 29.63ZM51.45 30.74L55.8 29.2L54.26 24.86L49.91 26.4L51.45 30.74Z" fill="#102770"/>
<path d="M23.3669 35.5286L18.4947 37.2578L20.2205 42.1206L25.0928 40.3914L23.3669 35.5286Z" fill="#C0DAFF"/>
<path fill-rule="evenodd" clip-rule="evenodd" d="M25.2 40.66L20.32 42.39C20.17 42.44 20.01 42.37 19.96 42.22L18.23 37.35C18.18 37.2 18.25 37.04 18.4 36.99L23.28 35.26C23.43 35.21 23.59 35.28 23.64 35.43L25.37 40.3C25.42 40.45 25.34 40.61 25.2 40.66ZM20.4 41.76L24.75 40.22L23.21 35.88L18.86 37.42L20.4 41.76Z" fill="#102770"/>
<path d="M65.4239 55.5009L60.5516 57.2301L62.2775 62.0929L67.1497 60.3637L65.4239 55.5009Z" fill="#C0DAFF"/>
<path fill-rule="evenodd" clip-rule="evenodd" d="M67.25 60.62L62.37 62.35C62.22 62.4 62.06 62.33 62.01 62.18L60.28 57.31C60.23 57.16 60.31 57 60.45 56.95L65.33 55.22C65.48 55.17 65.64 55.24 65.69 55.39L67.42 60.26C67.47 60.41 67.4 60.57 67.25 60.62ZM62.45 61.73L66.8 60.19L65.26 55.85L60.91 57.39L62.45 61.73Z" fill="#102770"/>
<path d="M34.3779 66.5114L29.5056 68.2406L31.2315 73.1034L36.1037 71.3742L34.3779 66.5114Z" fill="#C0DAFF"/>
<path fill-rule="evenodd" clip-rule="evenodd" d="M36.2 71.65L31.32 73.38C31.17 73.43 31.01 73.36 30.96 73.21L29.23 68.34C29.18 68.19 29.26 68.03 29.4 67.98L34.28 66.25C34.43 66.2 34.59 66.27 34.64 66.42L36.37 71.29C36.42 71.44 36.35 71.6 36.2 71.65ZM31.4 72.76L35.75 71.22L34.21 66.88L29.86 68.42L31.4 72.76Z" fill="#102770"/>
<path fill-rule="evenodd" clip-rule="evenodd" d="M50.31 55.75L41.39 58.91C41.24 58.96 41.08 58.89 41.03 58.74L40.81 58.11C40.76 57.96 40.83 57.8 40.98 57.75C41.13 57.7 41.29 57.77 41.34 57.92L41.47 58.28L49.86 55.3L49.75 54.98C49.7 54.83 49.77 54.67 49.92 54.62C50.07 54.57 50.23 54.64 50.28 54.79L50.49 55.38C50.54 55.53 50.47 55.69 50.32 55.74M48.77 39.29C48.62 39.34 48.46 39.27 48.41 39.12L48 37.97L31.99 43.65L32.37 44.71C32.42 44.86 32.34 45.02 32.2 45.07C32.05 45.12 31.89 45.05 31.84 44.9L31.37 43.58C31.32 43.43 31.39 43.27 31.54 43.22L48.08 37.35C48.23 37.3 48.39 37.37 48.44 37.52L48.94 38.93C48.99 39.08 48.92 39.24 48.77 39.29Z" fill="#FBD000"/>
<path d="M50.48 55.39L50.27 55.47C50.27 55.47 50.27 55.53 50.24 55.54L50.32 55.75L50.4 55.96C50.66 55.87 50.8 55.58 50.71 55.31L50.5 55.39H50.48ZM50.27 54.8L50.06 54.88L50.27 55.47L50.48 55.39L50.69 55.31L50.48 54.72L50.27 54.8ZM49.91 54.63L49.99 54.84C49.99 54.84 50.05 54.84 50.06 54.87L50.27 54.79L50.48 54.71C50.39 54.45 50.1 54.31 49.83 54.4L49.91 54.61V54.63ZM49.74 54.99L49.95 54.91C49.95 54.91 49.95 54.85 49.98 54.84L49.9 54.63L49.82 54.42C49.56 54.51 49.42 54.8 49.51 55.07L49.72 54.99H49.74ZM49.86 55.31L50.07 55.23L49.96 54.91L49.75 54.99L49.54 55.07L49.65 55.39L49.86 55.31ZM41.47 58.29L41.55 58.5L49.94 55.52L49.86 55.31L49.78 55.1L41.39 58.08L41.47 58.29ZM41.34 57.92L41.13 58L41.26 58.36L41.47 58.28L41.68 58.2L41.55 57.84L41.34 57.92ZM40.98 57.75L41.06 57.96C41.06 57.96 41.12 57.96 41.13 57.99L41.34 57.91L41.55 57.83C41.46 57.57 41.17 57.43 40.9 57.52L40.98 57.73V57.75ZM40.81 58.11L41.02 58.03C41.02 58.03 41.02 57.97 41.05 57.96L40.97 57.75L40.89 57.54C40.63 57.63 40.49 57.92 40.58 58.19L40.79 58.11H40.81ZM41.04 58.74L41.25 58.66L41.03 58.03L40.82 58.11L40.61 58.19L40.83 58.82L41.04 58.74ZM41.4 58.91L41.32 58.7C41.32 58.7 41.26 58.7 41.25 58.67L41.04 58.75L40.83 58.83C40.92 59.09 41.21 59.23 41.48 59.14L41.41 58.93L41.4 58.91ZM50.31 55.75L50.23 55.54L41.31 58.7L41.39 58.91L41.46 59.12L50.38 55.96L50.31 55.75ZM48.94 38.94L48.73 39.02C48.73 39.02 48.73 39.08 48.7 39.09L48.78 39.3L48.86 39.51C49.12 39.42 49.26 39.13 49.17 38.86L48.96 38.94H48.94ZM48.43 37.52L48.22 37.6L48.72 39.01L48.93 38.93L49.14 38.85L48.64 37.44L48.43 37.52ZM48.08 37.35L48.16 37.56C48.16 37.56 48.22 37.56 48.23 37.59L48.44 37.51L48.65 37.43C48.56 37.17 48.27 37.03 48 37.12L48.08 37.33V37.35ZM31.53 43.22L31.61 43.43L48.15 37.56L48.07 37.35L47.99 37.14L31.45 43.01L31.53 43.22ZM31.36 43.58L31.57 43.5C31.57 43.5 31.57 43.44 31.6 43.43L31.52 43.22L31.44 43.01C31.18 43.1 31.04 43.39 31.13 43.66L31.34 43.58H31.36ZM31.83 44.91L32.04 44.83L31.57 43.51L31.36 43.59L31.15 43.67L31.62 44.99L31.83 44.91ZM32.19 45.08L32.11 44.87C32.11 44.87 32.05 44.87 32.04 44.84L31.83 44.92L31.62 45C31.71 45.26 32 45.4 32.27 45.31L32.19 45.1V45.08ZM32.36 44.72L32.15 44.8C32.15 44.8 32.15 44.86 32.12 44.87L32.2 45.08L32.28 45.29C32.54 45.2 32.68 44.91 32.59 44.64L32.38 44.72H32.36ZM31.98 43.66L31.77 43.74L32.15 44.8L32.36 44.72L32.57 44.64L32.19 43.58L31.98 43.66ZM48 37.97L47.92 37.76L31.91 43.44L31.99 43.65L32.07 43.86L48.08 38.18L48 37.97ZM48.41 39.12L48.62 39.04L48.21 37.89L48 37.97L47.79 38.05L48.2 39.2L48.41 39.12ZM48.77 39.29L48.69 39.08C48.69 39.08 48.63 39.08 48.62 39.05L48.41 39.13L48.2 39.21C48.29 39.47 48.58 39.61 48.85 39.52L48.77 39.31V39.29ZM49.86 55.31L49.94 55.52L50.15 55.44L50.07 55.23L49.86 55.31ZM41.47 58.29L41.26 58.37L41.34 58.58L41.55 58.5L41.47 58.29ZM31.98 43.66L31.9 43.45L31.69 43.53L31.77 43.74L31.98 43.66ZM48 37.97L48.21 37.89L48.13 37.68L47.92 37.76L48 37.97Z" fill="#FBD000"/>
<path fill-rule="evenodd" clip-rule="evenodd" d="M45.85 57.33C45.7 57.38 45.54 57.31 45.49 57.16L39.63 40.65C39.58 40.5 39.65 40.34 39.8 40.29C39.95 40.24 40.11 40.31 40.16 40.46L46.02 56.97C46.07 57.12 45.99 57.28 45.85 57.33Z" fill="#FBD000"/>
<path d="M46.02 56.97L45.81 57.05C45.81 57.05 45.81 57.11 45.78 57.12L45.86 57.33L45.94 57.54C46.2 57.45 46.34 57.16 46.25 56.89L46.04 56.97H46.02ZM40.16 40.46L39.95 40.54L45.81 57.05L46.02 56.97L46.23 56.89L40.37 40.38L40.16 40.46ZM39.8 40.29L39.88 40.5C39.88 40.5 39.94 40.5 39.95 40.53L40.16 40.45L40.37 40.37C40.28 40.11 39.99 39.97 39.72 40.06L39.8 40.27V40.29ZM39.63 40.65L39.84 40.57C39.84 40.57 39.84 40.51 39.87 40.5L39.79 40.29L39.71 40.08C39.45 40.17 39.31 40.46 39.4 40.73L39.61 40.65H39.63ZM45.49 57.16L45.7 57.08L39.84 40.57L39.63 40.65L39.42 40.73L45.28 57.24L45.49 57.16ZM45.85 57.33L45.77 57.12C45.77 57.12 45.71 57.12 45.7 57.09L45.49 57.17L45.28 57.25C45.37 57.51 45.66 57.65 45.93 57.56L45.85 57.35V57.33Z" fill="#FBD000"/>
</g>
<defs>
<clipPath id="clip0_1_146">
<rect width="128.68" height="113.45" fill="white"/>
</clipPath>
</defs>
</svg>
