<svg width="117" height="110" viewBox="0 0 117 110" fill="none" xmlns="http://www.w3.org/2000/svg">
<g clip-path="url(#clip0_1_2)">
<path d="M12.42 17.92H103.5C107.78 17.92 111.25 21.39 111.25 25.67V82.83C111.25 87.11 107.78 90.58 103.5 90.58H12.42C8.14 90.58 4.67 87.11 4.67 82.83V25.67C4.67 21.39 8.14 17.92 12.42 17.92Z" fill="#FFF9E6"/>
<path d="M103.4 17.92H12.32C8.06 17.92 4.67 20.92 4.67 25.19V78.96H111.25V25.19C111.25 20.93 107.66 17.92 103.4 17.92Z" fill="#FFEAC9"/>
<path opacity="0.5" d="M17.65 57.16C17.39 57.16 17 57.03 16.74 56.77C16.22 56.25 16.22 55.47 16.74 54.95L45.34 26.35C45.86 25.83 46.64 25.83 47.16 26.35C47.68 26.87 47.68 27.65 47.16 28.17L18.56 56.77C18.3 57.03 17.91 57.16 17.65 57.16Z" fill="white"/>
<path opacity="0.5" d="M22.85 80.56C22.46 80.56 22.2 80.43 21.94 80.17C21.42 79.65 21.42 78.87 21.94 78.35L75.24 25.05C75.76 24.53 76.54 24.53 77.06 25.05C77.58 25.57 77.58 26.35 77.06 26.87L23.76 80.17C23.5 80.43 23.24 80.56 22.85 80.56Z" fill="white"/>
<path opacity="0.5" d="M59.25 67.56C58.86 67.56 58.6 67.43 58.34 67.17C57.82 66.65 57.82 65.87 58.34 65.35L85.64 38.05C86.16 37.53 86.94 37.53 87.46 38.05C87.98 38.57 87.98 39.35 87.46 39.87L60.16 67.17C59.9 67.43 59.64 67.56 59.25 67.56Z" fill="white"/>
<path opacity="0.5" d="M74.85 71.46C74.46 71.46 74.2 71.33 73.94 71.07C73.42 70.55 73.42 69.64 73.94 69.12L90.71 52.35C91.23 51.83 92.14 51.83 92.66 52.35C93.18 52.87 93.18 53.78 92.66 54.3L75.89 71.07C75.63 71.33 75.24 71.46 74.85 71.46Z" fill="white"/>
<path opacity="0.5" d="M96.95 49.36C96.56 49.36 96.3 49.23 96.04 48.97C95.52 48.45 95.52 47.67 96.04 47.15L105.14 38.05C105.66 37.53 106.44 37.53 106.96 38.05C107.48 38.57 107.48 39.35 106.96 39.87L97.86 48.97C97.6 49.23 97.21 49.36 96.95 49.36Z" fill="white"/>
<path opacity="0.07" d="M63.04 79.88C57.7 79.88 110.99 79.88 110.99 79.88L112.2 42.75C112.2 38.38 63.03 79.88 63.03 79.88H63.04Z" fill="#727272"/>
<path d="M112.04 109H1.49C0.89 109 0.5 108.61 0.5 108.03C0.5 107.45 0.9 107.06 1.49 107.06H112.13C112.73 107.06 113.12 107.45 113.12 108.03C113.12 108.61 112.62 109 112.03 109H112.04Z" fill="#102770"/>
<path d="M113.13 108.03H112.63C112.63 108.26 112.43 108.5 112.04 108.5V109.5C112.83 109.5 113.63 108.96 113.63 108.03H113.13ZM112.14 107.06V107.56C112.33 107.56 112.45 107.62 112.51 107.68C112.58 107.74 112.63 107.85 112.63 108.02H113.63C113.63 107.61 113.49 107.23 113.21 106.96C112.93 106.69 112.55 106.55 112.14 106.55V107.05V107.06ZM1.49 107.06V107.56H112.13V106.56H1.49V107.06ZM0.5 108.03H1C1 107.86 1.06 107.75 1.12 107.69C1.19 107.62 1.3 107.57 1.49 107.57V106.57C1.08 106.57 0.7 106.71 0.42 106.98C0.14 107.26 0 107.63 0 108.04H0.5V108.03ZM1.49 109V108.5C1.3 108.5 1.19 108.44 1.12 108.38C1.05 108.32 1 108.21 1 108.04H0C0 108.45 0.14 108.83 0.42 109.1C0.7 109.37 1.08 109.51 1.49 109.51V109.01V109ZM112.04 109V108.5H1.49V109.5H112.03V109H112.04Z" fill="#102770"/>
<path fill-rule="evenodd" clip-rule="evenodd" d="M5.64 25.68C5.64 21.9 8.64 18.9 12.42 18.9H103.5C107.28 18.9 110.28 21.9 110.28 25.68V82.84C110.28 86.62 107.28 89.62 103.5 89.62H12.42C8.64 89.62 5.64 86.62 5.64 82.84V25.68ZM12.42 91.56H103.5C108.34 91.56 112.22 87.68 112.22 82.84V25.68C112.22 20.84 108.34 16.96 103.5 16.96H12.42C7.58 16.96 3.7 20.84 3.7 25.68V82.84C3.7 87.68 7.58 91.56 12.42 91.56Z" fill="#102770"/>
<path d="M5.64 25.68H5.14V82.84H6.14V25.68H5.64ZM5.64 82.84H5.14C5.14 86.89 8.37 90.12 12.42 90.12V89.12C8.92 89.12 6.14 86.34 6.14 82.84H5.64ZM12.42 89.62V90.12H103.5V89.12H12.42V89.62ZM103.49 89.62V90.12C107.54 90.12 110.77 86.89 110.77 82.84H109.77C109.77 86.34 106.99 89.12 103.49 89.12V89.62ZM110.28 82.84H110.78V25.68H109.78V82.84H110.28ZM110.28 25.68H110.78C110.78 21.63 107.55 18.4 103.5 18.4V19.4C107 19.4 109.78 22.18 109.78 25.68H110.28ZM103.49 18.89V18.39H12.42V19.39H103.5V18.89H103.49ZM12.42 18.89V18.39C8.37 18.39 5.14 21.62 5.14 25.67H6.14C6.14 22.17 8.92 19.39 12.42 19.39V18.89ZM12.42 91.56V91.06C7.85 91.06 4.2 87.41 4.2 82.84H3.2C3.2 87.96 7.3 92.06 12.42 92.06V91.56ZM3.7 82.84H4.2V25.68H3.2V82.84H3.7ZM3.7 25.68H4.2C4.2 21.11 7.85 17.46 12.42 17.46V16.46C7.3 16.46 3.2 20.56 3.2 25.68H3.7ZM12.42 16.96V17.46H103.5V16.46H12.42V16.96ZM103.49 16.96V17.46C108.06 17.46 111.71 21.11 111.71 25.68H112.71C112.71 20.56 108.61 16.46 103.49 16.46V16.96ZM112.21 25.68H111.71V82.84H112.71V25.68H112.21ZM112.21 82.84H111.71C111.71 87.41 108.06 91.06 103.49 91.06V92.06C108.61 92.06 112.71 87.96 112.71 82.84H112.21ZM103.49 91.56V91.06H12.42V92.06H103.5V91.56H103.49Z" fill="#102770"/>
<path d="M110.28 79.93H4.67C4.09 79.93 3.7 79.54 3.7 78.96C3.7 78.38 4.09 77.99 4.67 77.99H110.28C110.86 77.99 111.25 78.38 111.25 78.96C111.25 79.54 110.86 79.93 110.28 79.93Z" fill="#102770"/>
<path d="M111.24 78.96H110.99C110.99 79.19 110.91 79.37 110.8 79.49C110.68 79.61 110.51 79.68 110.27 79.68V80.18C110.62 80.18 110.93 80.06 111.15 79.84C111.37 79.62 111.49 79.31 111.49 78.96H111.24ZM110.28 78V78.25C110.51 78.25 110.69 78.33 110.81 78.44C110.93 78.56 111 78.73 111 78.97H111.5C111.5 78.62 111.38 78.31 111.16 78.09C110.94 77.87 110.63 77.75 110.28 77.75V78ZM4.67 78V78.25H110.28V77.75H4.67V78ZM3.7 78.96H3.95C3.95 78.73 4.03 78.55 4.14 78.43C4.26 78.31 4.43 78.24 4.67 78.24V77.74C4.32 77.74 4.01 77.86 3.79 78.08C3.57 78.3 3.45 78.61 3.45 78.96H3.7ZM4.67 79.93V79.68C4.44 79.68 4.26 79.6 4.14 79.49C4.02 79.37 3.95 79.2 3.95 78.96H3.45C3.45 79.31 3.57 79.62 3.79 79.84C4.01 80.06 4.32 80.18 4.67 80.18V79.93ZM110.28 79.93V79.68H4.67V80.18H110.28V79.93Z" fill="#102770"/>
<path d="M67.65 90.59H47.3V108.03H67.65V90.59Z" fill="#EAEAEA"/>
<path d="M67.65 90.59H47.3V96.4H67.65V90.59Z" fill="#BABABA"/>
<path fill-rule="evenodd" clip-rule="evenodd" d="M66.68 107.06H48.27V91.56H66.68V107.06ZM47.3 109H67.65C68.23 109 68.62 108.61 68.62 108.03V90.59C68.62 90.01 68.23 89.62 67.65 89.62H47.3C46.72 89.62 46.33 90.01 46.33 90.59V108.03C46.33 108.61 46.72 109 47.3 109Z" fill="#102770"/>
<path d="M66.68 107.06H67.18V91.56H66.18V107.06H66.68ZM66.68 91.56V91.06H48.27V92.06H66.68V91.56ZM48.27 91.56H47.77V107.06H48.77V91.56H48.27ZM48.27 107.06V107.56H66.68V106.56H48.27V107.06ZM47.3 109V108.5C47.12 108.5 47.01 108.44 46.95 108.38C46.89 108.32 46.83 108.21 46.83 108.03H45.83C45.83 108.43 45.97 108.81 46.24 109.09C46.51 109.37 46.89 109.5 47.3 109.5V109ZM46.33 108.03H46.83V90.59H45.83V108.03H46.33ZM46.33 90.59H46.83C46.83 90.41 46.89 90.3 46.95 90.24C47.01 90.18 47.12 90.12 47.3 90.12V89.12C46.9 89.12 46.52 89.26 46.24 89.53C45.96 89.8 45.83 90.18 45.83 90.59H46.33ZM47.3 89.62V90.12H67.65V89.12H47.3V89.62ZM67.64 89.62V90.12C67.82 90.12 67.93 90.18 67.99 90.24C68.05 90.3 68.11 90.41 68.11 90.59H69.11C69.11 90.19 68.97 89.81 68.7 89.53C68.43 89.25 68.05 89.12 67.64 89.12V89.62ZM68.61 90.59H68.11V108.03H69.11V90.59H68.61ZM68.61 108.03H68.11C68.11 108.21 68.05 108.32 67.99 108.38C67.93 108.44 67.82 108.5 67.64 108.5V109.5C68.04 109.5 68.42 109.36 68.7 109.09C68.98 108.82 69.11 108.44 69.11 108.03H68.61ZM67.64 109V108.5H47.29V109.5H67.64V109ZM66.68 91.56H67.18V91.06H66.68V91.56ZM48.27 91.56V91.06H47.77V91.56H48.27ZM66.68 107.06V107.56H67.18V107.06H66.68ZM48.27 107.06H47.77V107.56H48.27V107.06Z" fill="#102770"/>
<path d="M80.53 108.03C79.46 105.12 76.65 103.19 73.46 103.19H42.17C38.97 103.19 36.16 105.13 35.1 108.03H80.54H80.53Z" fill="#EAEAEA"/>
<path fill-rule="evenodd" clip-rule="evenodd" d="M78.98 107.06H36.74C37.9 105.22 39.94 104.15 42.17 104.15H73.46C75.79 104.15 77.82 105.22 78.98 107.06ZM35.09 109H80.53C80.92 109 81.21 108.81 81.4 108.61C81.59 108.42 81.59 108.03 81.5 107.74C80.14 104.45 77.04 102.31 73.46 102.31H42.26C38.68 102.31 35.48 104.44 34.22 107.74C34.12 108.03 34.12 108.32 34.32 108.61C34.51 108.8 34.8 109 35.1 109H35.09Z" fill="#102770"/>
<path d="M78.98 107.06L79.4 106.79C78.14 104.79 75.94 103.65 73.45 103.65V104.65C75.62 104.65 77.49 105.64 78.55 107.32L78.97 107.05L78.98 107.06ZM73.46 104.16V103.66H42.16V104.66H73.46V104.16ZM42.16 104.16V103.66C39.77 103.66 37.57 104.8 36.31 106.8L36.73 107.07L37.15 107.34C38.22 105.65 40.08 104.67 42.15 104.67V104.17L42.16 104.16ZM36.74 107.06V107.56H78.98V106.56H36.74V107.06ZM35.09 109V108.5C35 108.5 34.83 108.42 34.67 108.26L34.32 108.61L33.97 108.96C34.2 109.19 34.61 109.49 35.1 109.49V108.99L35.09 109ZM34.31 108.61L34.73 108.33C34.64 108.2 34.63 108.07 34.69 107.89L34.22 107.73L33.75 107.57C33.62 107.97 33.61 108.43 33.9 108.88L34.32 108.6L34.31 108.61ZM34.22 107.74L34.69 107.92C35.87 104.83 38.88 102.82 42.27 102.82V101.82C38.49 101.82 35.1 104.07 33.76 107.57L34.23 107.75L34.22 107.74ZM42.26 102.31V102.81H73.46V101.81H42.26V102.31ZM73.46 102.31V102.81C76.84 102.81 79.76 104.81 81.04 107.93L81.5 107.74L81.96 107.55C80.53 104.07 77.25 101.81 73.46 101.81V102.31ZM81.5 107.74L81.03 107.9C81.06 107.99 81.07 108.09 81.07 108.18C81.07 108.27 81.04 108.28 81.06 108.26L81.41 108.61L81.76 108.96C81.97 108.75 82.05 108.47 82.06 108.25C82.08 108.02 82.04 107.78 81.98 107.58L81.51 107.74H81.5ZM81.4 108.61L81.05 108.26C80.91 108.4 80.74 108.5 80.53 108.5V109.5C81.1 109.5 81.51 109.21 81.76 108.97L81.41 108.62L81.4 108.61ZM80.53 109V108.5H35.09V109.5H80.53V109ZM78.98 107.06V107.56H79.89L79.41 106.79L78.99 107.06H78.98ZM36.74 107.06L36.32 106.79L35.84 107.56H36.75V107.06H36.74ZM34.31 108.61L33.89 108.89L33.92 108.93L33.96 108.97L34.31 108.62V108.61ZM34.22 107.74L33.75 107.56V107.58L34.22 107.74ZM81.5 107.74L81.97 107.58V107.56L81.96 107.54L81.5 107.73V107.74Z" fill="#102770"/>
<path opacity="0.2" d="M46.8 49.81H15.57C11.1517 49.81 7.57 53.3917 7.57 57.81V79.35C7.57 83.7683 11.1517 87.35 15.57 87.35H46.8C51.2183 87.35 54.8 83.7683 54.8 79.35V57.81C54.8 53.3917 51.2183 49.81 46.8 49.81Z" fill="black"/>
<path d="M48.51 44.81H18C13.5817 44.81 10 48.3917 10 52.81V76.05C10 80.4683 13.5817 84.05 18 84.05H48.51C52.9283 84.05 56.51 80.4683 56.51 76.05V52.81C56.51 48.3917 52.9283 44.81 48.51 44.81Z" fill="white"/>
<path opacity="0.31" d="M52.72 51.45C52.72 51.45 52.68 51.42 52.68 51.38H15.09C14.95 51.59 14.85 51.76 14.71 51.97V74.78C14.71 78.04 14.75 78.04 16.8 79.71L50.63 79.8C52.65 78.2 52.93 77.01 52.9 75.06L52.73 51.45H52.72Z" fill="#E9D97A"/>
<path d="M52.93 76.01C52.93 76.78 52.3 77.41 51.53 77.41L16.09 77.37C15.32 77.37 14.69 76.74 14.69 75.98V49.37C14.69 48.6 15.32 47.97 16.09 47.97H51.32C52.09 47.97 52.71 48.6 52.71 49.37L52.92 76.02L52.93 76.01Z" fill="#FFF9E6"/>
<path d="M52.97 53.33H14.7V49.35C14.7 48.58 15.33 47.95 16.09 47.95H51.56C51.73 47.95 52.96 48.58 52.96 49.35V53.33H52.97Z" fill="white"/>
<path fill-rule="evenodd" clip-rule="evenodd" d="M15.05 49.46C15.05 48.87 15.5 48.41 16.1 48.41H51.33C51.61 48.41 51.85 48.51 52.06 48.72C52.27 48.93 52.37 49.17 52.37 49.45V75.96C52.37 76.55 51.92 77.01 51.32 77.01H16.1C15.51 77.01 15.05 76.56 15.05 75.96V49.45V49.46ZM16.1 77.71H51.33C52.31 77.71 53.07 76.94 53.07 75.97V49.46C53.07 49.01 52.86 48.55 52.55 48.24C52.24 47.89 51.78 47.72 51.33 47.72H16.1C15.12 47.72 14.36 48.49 14.36 49.46V75.97C14.36 76.95 15.13 77.71 16.1 77.71Z" fill="#E8AC00"/>
<path d="M27.96 49.81H49.93C50.32 49.81 50.63 50.12 50.63 50.51V50.86C50.63 51.24 50.32 51.56 49.93 51.56H27.95C27.56 51.56 27.25 51.25 27.25 50.86V50.51C27.25 50.12 27.56 49.81 27.95 49.81H27.96Z" fill="#E8AC00"/>
<path d="M52.58 53.65H14.7C14.49 53.65 14.35 53.51 14.35 53.3C14.35 53.09 14.49 52.95 14.7 52.95H52.58C52.79 52.95 52.93 53.09 52.93 53.3C52.93 53.51 52.75 53.65 52.58 53.65Z" fill="#E8AC00"/>
<path opacity="0.24" d="M30.4 61.32H17.15V71.78H30.4V61.32Z" fill="#469BEB"/>
<path opacity="0.56" d="M34.59 57.48H29.01C28.63 57.48 28.31 57.17 28.31 56.78C28.31 56.39 28.62 56.08 29.01 56.08H34.59C34.97 56.08 35.29 56.39 35.29 56.78C35.29 57.17 34.98 57.48 34.59 57.48Z" fill="#E5BA17"/>
<path opacity="0.56" d="M40.86 57.48H38.42C38.04 57.48 37.72 57.17 37.72 56.78C37.72 56.39 38.03 56.08 38.42 56.08H40.86C41.24 56.08 41.56 56.39 41.56 56.78C41.56 57.17 41.25 57.48 40.86 57.48Z" fill="#E5BA17"/>
<path opacity="0.56" d="M49.58 57.48H44.7C44.32 57.48 44 57.17 44 56.78C44 56.39 44.31 56.08 44.7 56.08H49.58C49.96 56.08 50.28 56.39 50.28 56.78C50.28 57.17 49.97 57.48 49.58 57.48Z" fill="#E5BA17"/>
<path opacity="0.49" d="M24.12 57.83H18.19C17.6 57.83 17.14 57.38 17.14 56.78C17.14 56.18 17.59 55.73 18.19 55.73H24.12C24.71 55.73 25.17 56.18 25.17 56.78C25.17 57.38 24.72 57.83 24.12 57.83Z" fill="#E5BA17"/>
<path opacity="0.56" d="M38.42 62.72H32.84C32.46 62.72 32.14 62.41 32.14 62.02C32.14 61.63 32.45 61.32 32.84 61.32H38.42C38.8 61.32 39.12 61.63 39.12 62.02C39.12 62.41 38.81 62.72 38.42 62.72Z" fill="#1373CE"/>
<path opacity="0.56" d="M45.75 65.16H32.5C32.29 65.16 32.15 65.02 32.15 64.81C32.15 64.6 32.29 64.46 32.5 64.46H45.75C45.96 64.46 46.1 64.6 46.1 64.81C46.1 65.02 45.96 65.16 45.75 65.16Z" fill="#E5BA17"/>
<path opacity="0.56" d="M38.42 67.25H32.49C32.28 67.25 32.14 67.11 32.14 66.9C32.14 66.69 32.28 66.55 32.49 66.55H38.42C38.63 66.55 38.77 66.69 38.77 66.9C38.77 67.11 38.63 67.25 38.42 67.25Z" fill="#E5BA17"/>
<path opacity="0.56" d="M44.35 67.25H40.51C40.3 67.25 40.16 67.11 40.16 66.9C40.16 66.69 40.3 66.55 40.51 66.55H44.35C44.56 66.55 44.7 66.69 44.7 66.9C44.7 67.11 44.56 67.25 44.35 67.25Z" fill="#E5BA17"/>
<path opacity="0.56" d="M36.68 69.34H32.49C32.28 69.34 32.14 69.2 32.14 68.99C32.14 68.78 32.28 68.64 32.49 68.64H36.68C36.89 68.64 37.03 68.78 37.03 68.99C37.03 69.2 36.89 69.34 36.68 69.34Z" fill="#E5BA17"/>
<path opacity="0.56" d="M40.86 69.34H38.42C38.21 69.34 38.07 69.2 38.07 68.99C38.07 68.78 38.21 68.64 38.42 68.64H40.86C41.07 68.64 41.21 68.78 41.21 68.99C41.21 69.2 41.07 69.34 40.86 69.34Z" fill="#E5BA17"/>
<path opacity="0.56" d="M44.7 69.34H42.61C42.4 69.34 42.26 69.2 42.26 68.99C42.26 68.78 42.4 68.64 42.61 68.64H44.7C44.91 68.64 45.05 68.78 45.05 68.99C45.05 69.2 44.91 69.34 44.7 69.34Z" fill="#E5BA17"/>
<path opacity="0.56" d="M40.17 71.44H32.5C32.29 71.44 32.15 71.3 32.15 71.09C32.15 70.88 32.29 70.74 32.5 70.74H40.17C40.38 70.74 40.52 70.88 40.52 71.09C40.52 71.3 40.38 71.44 40.17 71.44Z" fill="#E5BA17"/>
<path opacity="0.56" d="M25.17 73.18H17.5C17.29 73.18 17.15 73.04 17.15 72.83C17.15 72.62 17.29 72.48 17.5 72.48H25.17C25.38 72.48 25.52 72.62 25.52 72.83C25.52 73.04 25.38 73.18 25.17 73.18Z" fill="#E8AC00"/>
<path opacity="0.49" d="M35.98 74.58H32.84C32.46 74.58 32.14 74.27 32.14 73.88C32.14 73.49 32.45 73.18 32.84 73.18H35.98C36.36 73.18 36.68 73.49 36.68 73.88C36.68 74.27 36.37 74.58 35.98 74.58Z" fill="#1373CE"/>
<path opacity="0.38" d="M21.33 66.41L18.33 71.78H26.77L23.77 66.41C23.11 65.19 22.03 65.19 21.33 66.41Z" fill="#1373CE"/>
<path opacity="0.51" d="M29 64.81C29 65.58 28.38 66.21 27.6 66.21C26.82 66.21 26.21 65.59 26.21 64.81C26.21 64.03 26.83 63.42 27.6 63.42C28.37 63.42 29 64.04 29 64.81Z" fill="#1373CE"/>
<path opacity="0.51" d="M23.08 63.41C22.7 63.41 22.38 63.24 22.38 63.06C22.38 62.88 21.93 62.71 21.33 62.71H19.94C19.35 62.71 18.89 62.89 18.89 63.06C18.89 63.23 19.2 63.41 19.59 63.41C19.98 63.41 20.29 63.58 20.29 63.76C20.29 63.94 20.74 64.11 21.34 64.11H22.73C23.32 64.11 23.78 63.93 23.78 63.76C23.78 63.59 23.47 63.41 23.08 63.41Z" fill="#1373CE"/>
<path opacity="0.71" d="M21.68 50.68C21.68 51.16 21.29 51.55 20.81 51.55C20.33 51.55 19.94 51.16 19.94 50.68C19.94 50.2 20.33 49.81 20.81 49.81C21.29 49.81 21.68 50.2 21.68 50.68Z" fill="#FFDA4D"/>
<path opacity="0.41" d="M18.54 50.68C18.54 51.16 18.15 51.55 17.67 51.55C17.19 51.55 16.8 51.16 16.8 50.68C16.8 50.2 17.19 49.81 17.67 49.81C18.15 49.81 18.54 50.2 18.54 50.68Z" fill="#FFDA4D"/>
<path d="M24.82 50.68C24.82 51.16 24.43 51.55 23.95 51.55C23.47 51.55 23.08 51.16 23.08 50.68C23.08 50.2 23.47 49.81 23.95 49.81C24.43 49.81 24.82 50.2 24.82 50.68Z" fill="#FFDA4D"/>
<path opacity="0.2" d="M55.58 1.97H32.82C28.4017 1.97 24.82 5.55172 24.82 9.97V33.94C24.82 38.3583 28.4017 41.94 32.82 41.94H55.58C59.9983 41.94 63.58 38.3583 63.58 33.94V9.97C63.58 5.55172 59.9983 1.97 55.58 1.97Z" fill="black"/>
<path d="M57.71 0H34.95C30.5317 0 26.95 3.58172 26.95 8V31.97C26.95 36.3883 30.5317 39.97 34.95 39.97H57.71C62.1283 39.97 65.71 36.3883 65.71 31.97V8C65.71 3.58172 62.1283 0 57.71 0Z" fill="#F5F3FF"/>
<path fill-rule="evenodd" clip-rule="evenodd" d="M31.99 16.12V31.54C31.99 32.55 32.81 33.37 33.82 33.37H59.52C60.53 33.37 61.35 32.55 61.35 31.54V16.12H31.99Z" fill="#F3CB5C"/>
<path fill-rule="evenodd" clip-rule="evenodd" d="M60.7 14.81L47.62 5.25C47.06 4.84 46.29 4.84 45.73 5.25L32.65 14.81C32.24 15.11 31.99 15.59 31.99 16.11L61.35 16.12C61.35 15.6 61.11 15.12 60.69 14.81" fill="#F1BD4C"/>
<path fill-rule="evenodd" clip-rule="evenodd" d="M57.05 13.55H36.37C36.05 13.55 35.8 13.81 35.8 14.12V30.46C35.8 30.78 36.06 31.03 36.37 31.03H57.05C57.37 31.03 57.62 30.77 57.62 30.46V14.12C57.62 13.8 57.36 13.55 57.05 13.55Z" fill="white"/>
<path fill-rule="evenodd" clip-rule="evenodd" d="M39.16 18.41H54.32C54.48 18.41 54.61 18.19 54.61 17.93C54.61 17.67 54.48 17.45 54.32 17.45H39.16C39 17.45 38.87 17.67 38.87 17.93C38.87 18.19 39 18.41 39.16 18.41Z" fill="#1373CE"/>
<path opacity="0.2" d="M106.05 23.31H86.57C82.1517 23.31 78.57 26.8917 78.57 31.31V55.72C78.57 60.1383 82.1517 63.72 86.57 63.72H106.05C110.468 63.72 114.05 60.1383 114.05 55.72V31.31C114.05 26.8917 110.468 23.31 106.05 23.31Z" fill="black"/>
<path d="M108.99 21.83H89.51C85.0917 21.83 81.51 25.4117 81.51 29.83V54.24C81.51 58.6583 85.0917 62.24 89.51 62.24H108.99C113.408 62.24 116.99 58.6583 116.99 54.24V29.83C116.99 25.4117 113.408 21.83 108.99 21.83Z" fill="#C1DAF1"/>
<path fill-rule="evenodd" clip-rule="evenodd" d="M85.69 29.72H98.02C98.15 29.72 98.26 29.28 98.26 28.73C98.26 28.18 98.15 27.75 98.02 27.75H85.69C85.56 27.75 85.45 28.19 85.45 28.73C85.45 29.27 85.56 29.72 85.69 29.72Z" fill="#1373CE"/>
<path fill-rule="evenodd" clip-rule="evenodd" d="M85.91 33.66H109.64C109.89 33.66 110.1 33.22 110.1 32.67C110.1 32.12 109.9 31.69 109.64 31.69H85.91C85.66 31.69 85.45 32.13 85.45 32.67C85.45 33.21 85.65 33.66 85.91 33.66Z" fill="white"/>
<path fill-rule="evenodd" clip-rule="evenodd" d="M85.91 36.62H109.64C109.89 36.62 110.1 36.18 110.1 35.63C110.1 35.08 109.9 34.65 109.64 34.65H85.91C85.66 34.65 85.45 35.09 85.45 35.63C85.45 36.17 85.65 36.62 85.91 36.62Z" fill="white"/>
<path fill-rule="evenodd" clip-rule="evenodd" d="M85.91 39.57H109.64C109.89 39.57 110.1 39.13 110.1 38.58C110.1 38.03 109.9 37.6 109.64 37.6H85.91C85.66 37.6 85.45 38.04 85.45 38.58C85.45 39.12 85.65 39.57 85.91 39.57Z" fill="white"/>
<path fill-rule="evenodd" clip-rule="evenodd" d="M85.91 42.53H109.64C109.89 42.53 110.1 42.09 110.1 41.54C110.1 40.99 109.9 40.56 109.64 40.56H85.91C85.66 40.56 85.45 41 85.45 41.54C85.45 42.08 85.65 42.53 85.91 42.53Z" fill="white"/>
<path fill-rule="evenodd" clip-rule="evenodd" d="M85.91 45.49H109.64C109.89 45.49 110.1 45.05 110.1 44.5C110.1 43.95 109.9 43.52 109.64 43.52H85.91C85.66 43.52 85.45 43.96 85.45 44.5C85.45 45.04 85.65 45.49 85.91 45.49Z" fill="white"/>
<path fill-rule="evenodd" clip-rule="evenodd" d="M85.91 48.44H109.64C109.89 48.44 110.1 48 110.1 47.45C110.1 46.9 109.9 46.47 109.64 46.47H85.91C85.66 46.47 85.45 46.91 85.45 47.45C85.45 47.99 85.65 48.44 85.91 48.44Z" fill="white"/>
<path fill-rule="evenodd" clip-rule="evenodd" d="M85.91 51.4H109.64C109.89 51.4 110.1 50.96 110.1 50.41C110.1 49.86 109.9 49.43 109.64 49.43H85.91C85.66 49.43 85.45 49.87 85.45 50.41C85.45 50.95 85.65 51.4 85.91 51.4Z" fill="white"/>
<path fill-rule="evenodd" clip-rule="evenodd" d="M85.91 54.36H109.64C109.89 54.36 110.1 53.92 110.1 53.37C110.1 52.82 109.9 52.39 109.64 52.39H85.91C85.66 52.39 85.45 52.83 85.45 53.37C85.45 53.91 85.65 54.36 85.91 54.36Z" fill="white"/>
<path fill-rule="evenodd" clip-rule="evenodd" d="M54.32 20.35H39.16C39 20.35 38.87 20.57 38.87 20.84C38.87 21.11 39 21.32 39.16 21.32H54.32C54.48 21.32 54.61 21.1 54.61 20.84C54.61 20.58 54.48 20.35 54.32 20.35Z" fill="#1373CE"/>
<path fill-rule="evenodd" clip-rule="evenodd" d="M54.32 22.77H39.16C39 22.77 38.87 22.99 38.87 23.26C38.87 23.53 39 23.74 39.16 23.74H54.32C54.48 23.74 54.61 23.52 54.61 23.26C54.61 23 54.48 22.77 54.32 22.77Z" fill="#1373CE"/>
<path fill-rule="evenodd" clip-rule="evenodd" d="M33.83 33.37H59.56C60.55 33.37 61.36 32.56 61.36 31.57V16.12L33.83 33.37Z" fill="#FFDA4D"/>
<path fill-rule="evenodd" clip-rule="evenodd" d="M31.99 16.12V31.57C31.99 32.56 32.8 33.37 33.79 33.37H59.52L31.99 16.12Z" fill="#F1BD4C"/>
</g>
<defs>
<clipPath id="clip0_1_2">
<rect width="116.99" height="109.5" fill="white"/>
</clipPath>
</defs>
</svg>
