<svg xmlns="http://www.w3.org/2000/svg" width="117" height="110" fill="none" viewBox="0 0 117 110"><g clip-path="url(#a)"><path fill="#fff9e6" d="M12.42 17.92h91.08a7.75 7.75 0 0 1 7.75 7.75v57.16a7.75 7.75 0 0 1-7.75 7.75H12.42a7.75 7.75 0 0 1-7.75-7.75V25.67a7.75 7.75 0 0 1 7.75-7.75"/><path fill="#ffeac9" d="M103.4 17.92H12.32c-4.26 0-7.65 3-7.65 7.27v53.77h106.58V25.19c0-4.26-3.59-7.27-7.85-7.27"/><path fill="#fff" d="M17.65 57.16c-.26 0-.65-.13-.91-.39-.52-.52-.52-1.3 0-1.82l28.6-28.6c.52-.52 1.3-.52 1.82 0s.52 1.3 0 1.82l-28.6 28.6c-.26.26-.65.39-.91.39m5.2 23.4c-.39 0-.65-.13-.91-.39-.52-.52-.52-1.3 0-1.82l53.3-53.3c.52-.52 1.3-.52 1.82 0s.52 1.3 0 1.82l-53.3 53.3c-.26.26-.52.39-.91.39m36.4-13c-.39 0-.65-.13-.91-.39-.52-.52-.52-1.3 0-1.82l27.3-27.3c.52-.52 1.3-.52 1.82 0s.52 1.3 0 1.82l-27.3 27.3c-.26.26-.52.39-.91.39m15.6 3.9c-.39 0-.65-.13-.91-.39-.52-.52-.52-1.43 0-1.95l16.77-16.77c.52-.52 1.43-.52 1.95 0s.52 1.43 0 1.95L75.89 71.07c-.26.26-.65.39-1.04.39m22.1-22.1c-.39 0-.65-.13-.91-.39-.52-.52-.52-1.3 0-1.82l9.1-9.1c.52-.52 1.3-.52 1.82 0s.52 1.3 0 1.82l-9.1 9.1c-.26.26-.65.39-.91.39" opacity=".5"/><path fill="#727272" d="M63.04 79.88h47.95l1.21-37.13c0-4.37-49.17 37.13-49.17 37.13z" opacity=".07"/><path fill="#102770" d="M112.04 109H1.49c-.6 0-.99-.39-.99-.97s.4-.97.99-.97h110.64c.6 0 .99.39.99.97s-.5.97-1.09.97z"/><path fill="#102770" d="M113.13 108.03h-.5c0 .23-.2.47-.59.47v1c.79 0 1.59-.54 1.59-1.47zm-.99-.97v.5c.19 0 .31.06.37.12.07.06.12.17.12.34h1c0-.41-.14-.79-.42-1.06s-.66-.41-1.07-.41zm-110.65 0v.5h110.64v-1H1.49zm-.99.97H1c0-.17.06-.28.12-.34.07-.07.18-.12.37-.12v-1c-.41 0-.79.14-1.07.41-.28.28-.42.65-.42 1.06h.5zm.99.97v-.5c-.19 0-.3-.06-.37-.12s-.12-.17-.12-.34H0c0 .41.14.79.42 1.06s.66.41 1.07.41zm110.55 0v-.5H1.49v1h110.54v-.5z"/><path fill="#102770" fill-rule="evenodd" d="M5.64 25.68c0-3.78 3-6.78 6.78-6.78h91.08c3.78 0 6.78 3 6.78 6.78v57.16c0 3.78-3 6.78-6.78 6.78H12.42c-3.78 0-6.78-3-6.78-6.78zm6.78 65.88h91.08a8.69 8.69 0 0 0 8.72-8.72V25.68a8.69 8.69 0 0 0-8.72-8.72H12.42a8.69 8.69 0 0 0-8.72 8.72v57.16a8.69 8.69 0 0 0 8.72 8.72" clip-rule="evenodd"/><path fill="#102770" d="M5.64 25.68h-.5v57.16h1V25.68zm0 57.16h-.5c0 4.05 3.23 7.28 7.28 7.28v-1a6.24 6.24 0 0 1-6.28-6.28zm6.78 6.78v.5h91.08v-1H12.42zm91.07 0v.5c4.05 0 7.28-3.23 7.28-7.28h-1c0 3.5-2.78 6.28-6.28 6.28zm6.79-6.78h.5V25.68h-1v57.16zm0-57.16h.5c0-4.05-3.23-7.28-7.28-7.28v1c3.5 0 6.28 2.78 6.28 6.28zm-6.79-6.79v-.5H12.42v1h91.08v-.5zm-91.07 0v-.5c-4.05 0-7.28 3.23-7.28 7.28h1c0-3.5 2.78-6.28 6.28-6.28zm0 72.67v-.5c-4.57 0-8.22-3.65-8.22-8.22h-1c0 5.12 4.1 9.22 9.22 9.22zM3.7 82.84h.5V25.68h-1v57.16zm0-57.16h.5c0-4.57 3.65-8.22 8.22-8.22v-1c-5.12 0-9.22 4.1-9.22 9.22zm8.72-8.72v.5h91.08v-1H12.42zm91.07 0v.5c4.57 0 8.22 3.65 8.22 8.22h1c0-5.12-4.1-9.22-9.22-9.22zm8.72 8.72h-.5v57.16h1V25.68zm0 57.16h-.5c0 4.57-3.65 8.22-8.22 8.22v1c5.12 0 9.22-4.1 9.22-9.22zm-8.72 8.72v-.5H12.42v1h91.08v-.5z"/><path fill="#102770" d="M110.28 79.93H4.67c-.58 0-.97-.39-.97-.97s.39-.97.97-.97h105.61c.58 0 .97.39.97.97s-.39.97-.97.97"/><path fill="#102770" d="M111.24 78.96h-.25c0 .23-.08.41-.19.53-.12.12-.29.19-.53.19v.5c.35 0 .66-.12.88-.34s.34-.53.34-.88zm-.96-.96v.25c.23 0 .41.08.53.19.12.12.19.29.19.53h.5c0-.35-.12-.66-.34-.88s-.53-.34-.88-.34zM4.67 78v.25h105.61v-.5H4.67zm-.97.96h.25c0-.23.08-.41.19-.53.12-.12.29-.19.53-.19v-.5c-.35 0-.66.12-.88.34s-.34.53-.34.88zm.97.97v-.25c-.23 0-.41-.08-.53-.19-.12-.12-.19-.29-.19-.53h-.5c0 .35.12.66.34.88s.53.34.88.34zm105.61 0v-.25H4.67v.5h105.61z"/><path fill="#eaeaea" d="M67.65 90.59H47.3v17.44h20.35z"/><path fill="#bababa" d="M67.65 90.59H47.3v5.81h20.35z"/><path fill="#102770" fill-rule="evenodd" d="M66.68 107.06H48.27v-15.5h18.41zM47.3 109h20.35c.58 0 .97-.39.97-.97V90.59c0-.58-.39-.97-.97-.97H47.3c-.58 0-.97.39-.97.97v17.44c0 .58.39.97.97.97" clip-rule="evenodd"/><path fill="#102770" d="M66.68 107.06h.5v-15.5h-1v15.5zm0-15.5v-.5H48.27v1h18.41zm-18.41 0h-.5v15.5h1v-15.5zm0 15.5v.5h18.41v-1H48.27zM47.3 109v-.5c-.18 0-.29-.06-.35-.12s-.12-.17-.12-.35h-1c0 .4.14.78.41 1.06s.65.41 1.06.41zm-.97-.97h.5V90.59h-1v17.44zm0-17.44h.5c0-.18.06-.29.12-.35s.17-.12.35-.12v-1c-.4 0-.78.14-1.06.41s-.41.65-.41 1.06zm.97-.97v.5h20.35v-1H47.3zm20.34 0v.5c.18 0 .29.06.35.12s.12.17.12.35h1c0-.4-.14-.78-.41-1.06s-.65-.41-1.06-.41zm.97.97h-.5v17.44h1V90.59zm0 17.44h-.5c0 .18-.06.29-.12.35s-.17.12-.35.12v1c.4 0 .78-.14 1.06-.41s.41-.65.41-1.06zm-.97.97v-.5H47.29v1h20.35zm-.96-17.44h.5v-.5h-.5zm-18.41 0v-.5h-.5v.5zm18.41 15.5v.5h.5v-.5zm-18.41 0h-.5v.5h.5z"/><path fill="#eaeaea" d="M80.53 108.03c-1.07-2.91-3.88-4.84-7.07-4.84H42.17c-3.2 0-6.01 1.94-7.07 4.84h45.44z"/><path fill="#102770" fill-rule="evenodd" d="M78.98 107.06H36.74c1.16-1.84 3.2-2.91 5.43-2.91h31.29c2.33 0 4.36 1.07 5.52 2.91M35.09 109h45.44c.39 0 .68-.19.87-.39.19-.19.19-.58.1-.87-1.36-3.29-4.46-5.43-8.04-5.43h-31.2c-3.58 0-6.78 2.13-8.04 5.43-.1.29-.1.58.1.87.19.19.48.39.78.39z" clip-rule="evenodd"/><path fill="#102770" d="m78.98 107.06.42-.27c-1.26-2-3.46-3.14-5.95-3.14v1c2.17 0 4.04.99 5.1 2.67l.42-.27zm-5.52-2.9v-.5h-31.3v1h31.3zm-31.3 0v-.5c-2.39 0-4.59 1.14-5.85 3.14l.42.27.42.27c1.07-1.69 2.93-2.67 5-2.67v-.5zm-5.42 2.9v.5h42.24v-1H36.74zM35.09 109v-.5c-.09 0-.26-.08-.42-.24l-.35.35-.35.35c.23.23.64.53 1.13.53v-.5zm-.78-.39.42-.28c-.09-.13-.1-.26-.04-.44l-.47-.16-.47-.16c-.13.4-.14.86.15 1.31l.42-.28zm-.09-.87.47.18c1.18-3.09 4.19-5.1 7.58-5.1v-1c-3.78 0-7.17 2.25-8.51 5.75l.47.18zm8.04-5.43v.5h31.2v-1h-31.2zm31.2 0v.5c3.38 0 6.3 2 7.58 5.12l.46-.19.46-.19c-1.43-3.48-4.71-5.74-8.5-5.74zm8.04 5.43-.47.16c.03.09.04.19.04.28s-.03.1-.01.08l.35.35.35.35c.21-.21.29-.49.3-.71.02-.23-.02-.47-.08-.67l-.47.16zm-.1.87-.35-.35c-.14.14-.31.24-.52.24v1c.57 0 .98-.29 1.23-.53l-.35-.35zm-.87.39v-.5H35.09v1h45.44zm-1.55-1.94v.5h.91l-.48-.77-.42.27zm-42.24 0-.42-.27-.48.77h.91v-.5zm-2.43 1.55-.42.28.03.04.04.04.35-.35zm-.09-.87-.47-.18v.02zm47.28 0 .47-.16v-.02l-.01-.02-.46.19z"/><path fill="#000" d="M46.8 49.81H15.57a8 8 0 0 0-8 8v21.54a8 8 0 0 0 8 8H46.8a8 8 0 0 0 8-8V57.81a8 8 0 0 0-8-8" opacity=".2"/><path fill="#fff" d="M48.51 44.81H18a8 8 0 0 0-8 8v23.24a8 8 0 0 0 8 8h30.51a8 8 0 0 0 8-8V52.81a8 8 0 0 0-8-8"/><path fill="#e9d97a" d="M52.72 51.45s-.04-.03-.04-.07H15.09c-.14.21-.24.38-.38.59v22.81c0 3.26.04 3.26 2.09 4.93l33.83.09c2.02-1.6 2.3-2.79 2.27-4.74l-.17-23.61z" opacity=".31"/><path fill="#fff9e6" d="M52.93 76.01c0 .77-.63 1.4-1.4 1.4l-35.44-.04c-.77 0-1.4-.63-1.4-1.39V49.37c0-.77.63-1.4 1.4-1.4h35.23c.77 0 1.39.63 1.39 1.4l.21 26.65z"/><path fill="#fff" d="M52.97 53.33H14.7v-3.98c0-.77.63-1.4 1.39-1.4h35.47c.17 0 1.4.63 1.4 1.4v3.98z"/><path fill="#e8ac00" fill-rule="evenodd" d="M15.05 49.46c0-.59.45-1.05 1.05-1.05h35.23c.28 0 .52.1.73.31s.31.45.31.73v26.51c0 .59-.45 1.05-1.05 1.05H16.1c-.59 0-1.05-.45-1.05-1.05V49.45zm1.05 28.25h35.23c.98 0 1.74-.77 1.74-1.74V49.46c0-.45-.21-.91-.52-1.22-.31-.35-.77-.52-1.22-.52H16.1c-.98 0-1.74.77-1.74 1.74v26.51c0 .98.77 1.74 1.74 1.74" clip-rule="evenodd"/><path fill="#e8ac00" d="M27.96 49.81h21.97c.39 0 .7.31.7.7v.35c0 .38-.31.7-.7.7H27.95c-.39 0-.7-.31-.7-.7v-.35c0-.39.31-.7.7-.7zm24.62 3.84H14.7c-.21 0-.35-.14-.35-.35s.14-.35.35-.35h37.88c.21 0 .35.14.35.35s-.18.35-.35.35"/><path fill="#469beb" d="M30.4 61.32H17.15v10.46H30.4z" opacity=".24"/><path fill="#e5ba17" d="M34.59 57.48h-5.58c-.38 0-.7-.31-.7-.7s.31-.7.7-.7h5.58c.38 0 .7.31.7.7s-.31.7-.7.7m6.27 0h-2.44c-.38 0-.7-.31-.7-.7s.31-.7.7-.7h2.44c.38 0 .7.31.7.7s-.31.7-.7.7m8.72 0H44.7c-.38 0-.7-.31-.7-.7s.31-.7.7-.7h4.88c.38 0 .7.31.7.7s-.31.7-.7.7" opacity=".56"/><path fill="#e5ba17" d="M24.12 57.83h-5.93c-.59 0-1.05-.45-1.05-1.05s.45-1.05 1.05-1.05h5.93c.59 0 1.05.45 1.05 1.05s-.45 1.05-1.05 1.05" opacity=".49"/><path fill="#1373ce" d="M38.42 62.72h-5.58c-.38 0-.7-.31-.7-.7s.31-.7.7-.7h5.58c.38 0 .7.31.7.7s-.31.7-.7.7" opacity=".56"/><path fill="#e5ba17" d="M45.75 65.16H32.5c-.21 0-.35-.14-.35-.35s.14-.35.35-.35h13.25c.21 0 .35.14.35.35s-.14.35-.35.35m-7.33 2.09h-5.93c-.21 0-.35-.14-.35-.35s.14-.35.35-.35h5.93c.21 0 .35.14.35.35s-.14.35-.35.35m5.93 0h-3.84c-.21 0-.35-.14-.35-.35s.14-.35.35-.35h3.84c.21 0 .35.14.35.35s-.14.35-.35.35m-7.67 2.09h-4.19c-.21 0-.35-.14-.35-.35s.14-.35.35-.35h4.19c.21 0 .35.14.35.35s-.14.35-.35.35m4.18 0h-2.44c-.21 0-.35-.14-.35-.35s.14-.35.35-.35h2.44c.21 0 .35.14.35.35s-.14.35-.35.35m3.84 0h-2.09c-.21 0-.35-.14-.35-.35s.14-.35.35-.35h2.09c.21 0 .35.14.35.35s-.14.35-.35.35m-4.53 2.1H32.5c-.21 0-.35-.14-.35-.35s.14-.35.35-.35h7.67c.21 0 .35.14.35.35s-.14.35-.35.35" opacity=".56"/><path fill="#e8ac00" d="M25.17 73.18H17.5c-.21 0-.35-.14-.35-.35s.14-.35.35-.35h7.67c.21 0 .35.14.35.35s-.14.35-.35.35" opacity=".56"/><path fill="#1373ce" d="M35.98 74.58h-3.14c-.38 0-.7-.31-.7-.7s.31-.7.7-.7h3.14c.38 0 .7.31.7.7s-.31.7-.7.7" opacity=".49"/><path fill="#1373ce" d="m21.33 66.41-3 5.37h8.44l-3-5.37c-.66-1.22-1.74-1.22-2.44 0" opacity=".38"/><path fill="#1373ce" d="M29 64.81c0 .77-.62 1.4-1.4 1.4s-1.39-.62-1.39-1.4.62-1.39 1.39-1.39 1.4.62 1.4 1.39m-5.92-1.4c-.38 0-.7-.17-.7-.35s-.45-.35-1.05-.35h-1.39c-.59 0-1.05.18-1.05.35s.31.35.7.35.7.17.7.35.45.35 1.05.35h1.39c.59 0 1.05-.18 1.05-.35s-.31-.35-.7-.35" opacity=".51"/><path fill="#ffda4d" d="M21.68 50.68a.87.87 0 1 1-1.741-.001.87.87 0 0 1 1.741.001" opacity=".71"/><path fill="#ffda4d" d="M18.54 50.68a.87.87 0 1 1-1.741-.001.87.87 0 0 1 1.741.001" opacity=".41"/><path fill="#ffda4d" d="M24.82 50.68a.87.87 0 1 1-1.741-.001.87.87 0 0 1 1.741.001"/><path fill="#000" d="M55.58 1.97H32.82a8 8 0 0 0-8 8v23.97a8 8 0 0 0 8 8h22.76a8 8 0 0 0 8-8V9.97a8 8 0 0 0-8-8" opacity=".2"/><path fill="#f5f3ff" d="M57.71 0H34.95a8 8 0 0 0-8 8v23.97a8 8 0 0 0 8 8h22.76a8 8 0 0 0 8-8V8a8 8 0 0 0-8-8"/><path fill="#f3cb5c" fill-rule="evenodd" d="M31.99 16.12v15.42c0 1.01.82 1.83 1.83 1.83h25.7c1.01 0 1.83-.82 1.83-1.83V16.12z" clip-rule="evenodd"/><path fill="#f1bd4c" fill-rule="evenodd" d="M60.7 14.81 47.62 5.25c-.56-.41-1.33-.41-1.89 0l-13.08 9.56c-.41.3-.66.78-.66 1.3l29.36.01c0-.52-.24-1-.66-1.31" clip-rule="evenodd"/><path fill="#fff" fill-rule="evenodd" d="M57.05 13.55H36.37a.57.57 0 0 0-.57.57v16.34c0 .32.26.57.57.57h20.68c.32 0 .57-.26.57-.57V14.12a.57.57 0 0 0-.57-.57" clip-rule="evenodd"/><path fill="#1373ce" fill-rule="evenodd" d="M39.16 18.41h15.16c.16 0 .29-.22.29-.48s-.13-.48-.29-.48H39.16c-.16 0-.29.22-.29.48s.13.48.29.48" clip-rule="evenodd"/><path fill="#000" d="M106.05 23.31H86.57a8 8 0 0 0-8 8v24.41a8 8 0 0 0 8 8h19.48a8 8 0 0 0 8-8V31.31a8 8 0 0 0-8-8" opacity=".2"/><path fill="#c1daf1" d="M108.99 21.83H89.51a8 8 0 0 0-8 8v24.41a8 8 0 0 0 8 8h19.48a8 8 0 0 0 8-8V29.83a8 8 0 0 0-8-8"/><path fill="#1373ce" fill-rule="evenodd" d="M85.69 29.72h12.33c.13 0 .24-.44.24-.99s-.11-.98-.24-.98H85.69c-.13 0-.24.44-.24.98s.11.99.24.99" clip-rule="evenodd"/><path fill="#fff" fill-rule="evenodd" d="M85.91 33.66h23.73c.25 0 .46-.44.46-.99s-.2-.98-.46-.98H85.91c-.25 0-.46.44-.46.98s.2.99.46.99m0 2.96h23.73c.25 0 .46-.44.46-.99s-.2-.98-.46-.98H85.91c-.25 0-.46.44-.46.98s.2.99.46.99m0 2.95h23.73c.25 0 .46-.44.46-.99s-.2-.98-.46-.98H85.91c-.25 0-.46.44-.46.98s.2.99.46.99m0 2.96h23.73c.25 0 .46-.44.46-.99s-.2-.98-.46-.98H85.91c-.25 0-.46.44-.46.98s.2.99.46.99m0 2.96h23.73c.25 0 .46-.44.46-.99s-.2-.98-.46-.98H85.91c-.25 0-.46.44-.46.98s.2.99.46.99m0 2.95h23.73c.25 0 .46-.44.46-.99s-.2-.98-.46-.98H85.91c-.25 0-.46.44-.46.98s.2.99.46.99m0 2.96h23.73c.25 0 .46-.44.46-.99s-.2-.98-.46-.98H85.91c-.25 0-.46.44-.46.98s.2.99.46.99m0 2.96h23.73c.25 0 .46-.44.46-.99s-.2-.98-.46-.98H85.91c-.25 0-.46.44-.46.98s.2.99.46.99" clip-rule="evenodd"/><path fill="#1373ce" fill-rule="evenodd" d="M54.32 20.35H39.16c-.16 0-.29.22-.29.49s.13.48.29.48h15.16c.16 0 .29-.22.29-.48s-.13-.49-.29-.49m0 2.42H39.16c-.16 0-.29.22-.29.49s.13.48.29.48h15.16c.16 0 .29-.22.29-.48s-.13-.49-.29-.49" clip-rule="evenodd"/><path fill="#ffda4d" fill-rule="evenodd" d="M33.83 33.37h25.73c.99 0 1.8-.81 1.8-1.8V16.12z" clip-rule="evenodd"/><path fill="#f1bd4c" fill-rule="evenodd" d="M31.99 16.12v15.45c0 .99.81 1.8 1.8 1.8h25.73z" clip-rule="evenodd"/></g><defs><clipPath id="a"><path fill="#fff" d="M0 0h116.99v109.5H0z"/></clipPath></defs></svg>