<svg xmlns="http://www.w3.org/2000/svg" width="120" height="94" fill="none" viewBox="0 0 120 94"><path fill="#1373ce" d="M111.657 66.52c0 4.264-3.488 7.752-7.751 7.752H12.831c-4.263 0-7.751-3.488-7.751-7.752V9.356c0-4.263 3.488-7.751 7.75-7.751h91.076c4.263 0 7.751 3.488 7.751 7.751z"/><path fill="#fff" fill-opacity=".8" d="M111.657 66.52c0 4.264-3.488 7.752-7.751 7.752H12.831c-4.263 0-7.751-3.488-7.751-7.752V9.356c0-4.263 3.488-7.751 7.75-7.751h91.076c4.263 0 7.751 3.488 7.751 7.751z"/><path fill="#22a7f0" d="M103.809 1.605H12.734c-4.263 0-7.654 3.004-7.654 7.267v53.773h106.577V8.872c0-4.263-3.585-7.267-7.848-7.267"/><path fill="#fff" d="M18.067 40.845c-.26 0-.65-.13-.91-.39-.52-.52-.52-1.3 0-1.82l28.6-28.6c.52-.52 1.3-.52 1.82 0s.52 1.3 0 1.82l-28.6 28.6c-.26.26-.65.39-.91.39m5.199 23.4c-.39 0-.65-.13-.91-.39-.52-.52-.52-1.3 0-1.82l53.3-53.3c.52-.52 1.3-.52 1.82 0s.52 1.3 0 1.82l-53.3 53.3c-.26.26-.52.39-.91.39m36.401-13c-.39 0-.65-.13-.91-.39-.52-.52-.52-1.3 0-1.82l27.3-27.3c.52-.52 1.3-.52 1.82 0s.52 1.3 0 1.82l-27.3 27.3c-.26.26-.52.39-.91.39m15.599 3.9c-.39 0-.65-.13-.91-.39-.52-.52-.52-1.43 0-1.95l16.77-16.77c.52-.52 1.43-.52 1.95 0s.52 1.43 0 1.95l-16.77 16.77c-.26.26-.65.39-1.04.39m22.101-22.1c-.39 0-.65-.13-.91-.39-.52-.52-.52-1.3 0-1.82l9.1-9.1c.52-.52 1.3-.52 1.82 0s.52 1.3 0 1.82l-9.1 9.1c-.26.26-.65.39-.91.39" opacity=".5"/><path fill="#737373" fill-opacity=".147" d="M63.457 63.564h47.955l1.214-37.128c0-4.37-49.169 37.128-49.169 37.128" opacity=".458"/><path fill="#102770" stroke="#102770" d="M112.452 92.68H1.908c-.597 0-.995-.387-.995-.968 0-.582.398-.97.995-.97h110.644c.597 0 .995.388.995.97 0 .58-.498.968-1.095.968Z"/><path fill="#102770" fill-rule="evenodd" d="M12.83 75.24h91.076a8.683 8.683 0 0 0 8.72-8.72V9.357a8.683 8.683 0 0 0-8.72-8.72H12.831a8.684 8.684 0 0 0-8.72 8.72v57.165a8.684 8.684 0 0 0 8.72 8.72M6.05 9.357a6.74 6.74 0 0 1 6.782-6.782h91.075a6.74 6.74 0 0 1 6.783 6.782v57.165a6.74 6.74 0 0 1-6.783 6.782H12.831a6.74 6.74 0 0 1-6.782-6.782z" clip-rule="evenodd"/><path fill="#102770" d="M103.906 75.24v-.5H12.831v1h91.075zm8.72-8.72h-.5a8.183 8.183 0 0 1-8.22 8.22v1a9.183 9.183 0 0 0 9.22-9.22zm0-57.164h-.5v57.165h1V9.356zm-8.72-8.72v.5a8.183 8.183 0 0 1 8.22 8.22h1c0-5.12-4.099-9.22-9.22-9.22zm-91.075 0v.5h91.075v-1H12.831zm-8.72 8.72h.5a8.184 8.184 0 0 1 8.22-8.22v-1c-5.12 0-9.22 4.1-9.22 9.22zm0 57.165h.5V9.356h-1v57.165zm8.72 8.72v-.5a8.184 8.184 0 0 1-8.22-8.22h-1c0 5.12 4.1 9.22 9.22 9.22zm0-72.667v-.5a7.24 7.24 0 0 0-7.282 7.282h1a6.24 6.24 0 0 1 6.282-6.282zm91.075 0v-.5H12.831v1h91.075zm6.783 6.782h.5a7.24 7.24 0 0 0-7.283-7.282v1a6.24 6.24 0 0 1 6.283 6.282zm0 57.165h.5V9.356h-1v57.165zm-6.783 6.782v.5a7.24 7.24 0 0 0 7.283-7.282h-1a6.24 6.24 0 0 1-6.283 6.282zm-91.075 0v.5h91.075v-1H12.831zm-6.782-6.782h-.5a7.24 7.24 0 0 0 7.282 7.282v-1a6.24 6.24 0 0 1-6.282-6.282zm0-57.165h-.5v57.165h1V9.356z"/><path fill="#102770" stroke="#102770" stroke-width=".5" d="M110.689 63.614H5.079c-.58 0-.968-.387-.968-.969 0-.581.387-.969.969-.969h105.609c.581 0 .968.388.968.97 0 .58-.387.968-.968.968Z"/><path fill="#eaeaea" d="M47.711 74.272h20.347v17.44H47.711z"/><path fill="#bababa" d="M47.711 74.272h20.347v5.813H47.711z"/><path fill="#102770" fill-rule="evenodd" d="M47.71 92.68h20.348c.58 0 .968-.387.968-.968v-17.44c0-.582-.387-.97-.968-.97H47.71c-.581 0-.97.388-.97.97v17.44c0 .581.389.968.97.968m19.378-1.937H48.68V75.241h18.408z" clip-rule="evenodd"/><path fill="#102770" d="M48.68 90.743h-.5v.5h.5zm18.408 0v.5h.5v-.5zM48.68 75.241v-.5h-.5v.5zm18.408 0h.5v-.5h-.5zm.97 17.44v-.5H47.71v1h20.347zm.968-.97h-.5c0 .178-.056.286-.12.35-.063.063-.172.12-.349.12v1c.405 0 .78-.137 1.056-.413s.413-.652.413-1.056zm0-17.44h-.5v17.44h1v-17.44zm-.968-.968v.5c.176 0 .285.057.348.12.064.063.12.172.12.349h1c0-.405-.137-.78-.412-1.056-.276-.276-.652-.413-1.056-.413zm-20.347 0v.5h20.347v-1H47.71zm-.97.969h.5c0-.177.058-.286.12-.35.064-.062.173-.12.35-.12v-1c-.404 0-.78.138-1.056.414s-.413.651-.413 1.056zm0 17.44h.5v-17.44h-1v17.44zm.97.968v-.5c-.177 0-.286-.056-.35-.12-.062-.063-.12-.171-.12-.348h-1c0 .404.138.78.414 1.056s.651.412 1.056.412zm.969-1.937v.5h18.408v-1H48.68zm0-15.502h-.5v15.502h1V75.241zm18.408 0v-.5H48.68v1h18.408zm0 15.502h.5V75.241h-1v15.502z"/><path fill="#eaeaea" d="M80.944 91.712c-1.066-2.907-3.876-4.844-7.073-4.844H42.576c-3.197 0-6.007 1.938-7.073 4.844z"/><path fill="#102770" fill-rule="evenodd" d="M35.503 92.68h45.44c.388 0 .679-.193.873-.387s.194-.581.097-.872c-1.357-3.294-4.457-5.426-8.042-5.426H42.673c-3.585 0-6.782 2.132-8.042 5.426-.097.29-.097.581.097.872.194.194.484.387.775.387m43.89-1.937H37.15c1.163-1.841 3.197-2.907 5.426-2.907H73.87c2.325 0 4.36 1.066 5.523 2.907" clip-rule="evenodd"/><path fill="#102770" d="m81.816 92.293-.354-.354zm.097-.872.474-.158-.005-.017-.007-.015zm-47.282 0-.467-.179-.004.01-.003.01zm.097.872-.416.277.027.041.035.035zm2.422-1.55-.423-.267-.484.767h.907zm42.244 0v.5h.907l-.485-.767zm1.55 1.937v-.5H35.503v1h45.44zm.872-.387-.354-.354c-.139.14-.31.241-.518.241v1c.567 0 .977-.285 1.225-.534zm.097-.872-.475.158c.03.088.043.19.037.276-.007.093-.032.104-.013.084l.354.354.353.353c.213-.213.286-.492.303-.714a1.7 1.7 0 0 0-.085-.67zm-8.042-5.426v.5c3.378 0 6.298 2.005 7.58 5.116l.462-.19.462-.19c-1.432-3.478-4.712-5.736-8.504-5.736zm-31.198 0v.5H73.87v-1H42.673zm-8.042 5.426.467.178c1.182-3.092 4.188-5.104 7.575-5.104v-1c-3.784 0-7.172 2.251-8.51 5.747zm.097.872.416-.278c-.089-.133-.1-.255-.039-.436l-.474-.158-.474-.158c-.134.4-.144.859.155 1.307zm.775.387v-.5c-.091 0-.26-.08-.422-.24l-.353.353-.354.353c.226.227.639.534 1.129.534zm1.647-1.937v.5h42.244v-1H37.15zm5.426-2.907v-.5c-2.39 0-4.589 1.145-5.849 3.14l.423.267.423.267c1.065-1.687 2.935-2.674 5.003-2.674zm31.295 0v-.5H42.576v1H73.87zm5.523 2.907.422-.267c-1.262-1.999-3.464-3.14-5.945-3.14v1c2.169 0 4.037.99 5.1 2.674z"/><path fill="#3c87ea" d="M80.304 49.16H35.511c-1.736 0-3.143-1.357-3.143-3.033V19.576c0-1.675 1.407-3.032 3.143-3.032h44.793c1.737 0 3.143 1.357 3.143 3.032v26.551c0 1.676-1.406 3.032-3.143 3.032"/><path fill="#2765b7" d="M82.017 17.055c.079.276.126.562.126.861v26.952c0 1.701-1.406 3.078-3.143 3.078H34.207a3.24 3.24 0 0 1-1.713-.492 3.14 3.14 0 0 0 3.017 2.215h44.793c1.737 0 3.143-1.377 3.143-3.078v-26.96a3.07 3.07 0 0 0-1.43-2.577"/><path fill="#586b87" d="M64.375 44.3H51.44a3.93 3.93 0 0 1-3.93-3.93V21.479a10.394 10.394 0 0 1 10.397-10.397 10.394 10.394 0 0 1 10.397 10.397v18.898a3.93 3.93 0 0 1-3.93 3.921z"/><path stroke="#171819" stroke-linejoin="round" stroke-width=".604" d="M64.375 44.3H51.44a3.93 3.93 0 0 1-3.93-3.93V21.479a10.394 10.394 0 0 1 10.397-10.397 10.394 10.394 0 0 1 10.397 10.397v18.898a3.93 3.93 0 0 1-3.93 3.921z"/><path fill="#ffdec5" d="M65.624 31.427c-.81-1.808-.259-5.124-.259-5.124s1.823-.26 2.256.37c.699 1.044.377 4.754-1.996 4.754z"/><path fill="#f9c0b2" d="M65.365 26.303s-.087.534-.141 1.296c0 0 1.486-.904 2.688 0-.063-.354-.15-.707-.299-.928-.425-.635-2.248-.368-2.248-.368"/><path stroke="#171819" stroke-linejoin="round" stroke-width=".604" d="M65.624 31.427c-.81-1.808-.259-5.124-.259-5.124s1.823-.26 2.256.37c.699 1.044.377 4.754-1.996 4.754z"/><path fill="#ffe870" d="M70.772 48.949H45.044v-2.441c0-2.037 1.587-3.855 3.992-4.575l8.871-2.648 8.873 2.648c2.405.72 3.992 2.538 3.992 4.575z"/><path fill="#f0bf62" d="M46.167 46.574c0-2.038 1.587-3.857 3.992-4.578l8.425-2.513-.677-.198-8.871 2.643c-2.405.72-3.992 2.54-3.992 4.577v2.444h1.123z"/><path fill="#f0bf62" d="m66.78 41.933-8.873-2.648-1.304.392 7.568 2.256c2.405.72 3.992 2.538 3.992 4.575v2.44h2.61v-2.44c0-2.037-1.588-3.862-3.993-4.575"/><path stroke="#171819" stroke-linejoin="round" stroke-width=".604" d="M70.772 48.949H45.044v-2.441c0-2.037 1.587-3.855 3.992-4.575l8.871-2.648 8.873 2.648c2.405.72 3.992 2.538 3.992 4.575z"/><path fill="#ffdec5" d="M54.129 36.976v3.049c0 2.082 1.69 2.994 3.78 2.994 2.082 0 3.78-.904 3.78-2.994v-3.05z"/><path fill="#f9c0b2" d="M54.129 38.681a8.4 8.4 0 0 0 3.78.88 8.4 8.4 0 0 0 3.78-.88v-1.705h-7.553v1.705z"/><path stroke="#171819" stroke-linejoin="round" stroke-width=".604" d="M54.129 36.976v3.049c0 2.082 1.69 2.994 3.78 2.994 2.082 0 3.78-.904 3.78-2.994v-3.05z"/><path stroke="#171819" stroke-linejoin="round" stroke-width=".604" d="M80.304 49.16H35.511c-1.736 0-3.143-1.357-3.143-3.033V19.576c0-1.675 1.407-3.032 3.143-3.032h44.793c1.737 0 3.143 1.357 3.143 3.032v26.551c0 1.676-1.406 3.032-3.143 3.032Z"/><path fill="#00a8ff" d="M88.17 26.02H76.381a3.93 3.93 0 0 0 .001 7.86h2.193v1.87l1.87-1.87h7.716c2.168 0 3.93-1.76 3.93-3.93a3.92 3.92 0 0 0-3.923-3.93"/><path fill="#008aee" d="M78.677 33.793a.895.895 0 0 0-.896-.897h-1.996a3.93 3.93 0 0 1-3.041-1.437 3.93 3.93 0 0 0 3.63 2.42h2.295v-.086zm12.526-6.334c.2.478.3.991.298 1.509 0 2.168-1.76 3.93-3.93 3.93h-7.165a.89.89 0 0 0-.802.495l-.935 1.821-.103.543 1.87-1.87h7.716c2.169 0 3.93-1.76 3.93-3.93a3.82 3.82 0 0 0-.88-2.499z"/><path stroke="#fff" stroke-linejoin="round" stroke-width=".604" d="M78.575 31.11a1.208 1.208 0 1 0 0-2.415 1.208 1.208 0 0 0 0 2.416Zm3.701 0a1.208 1.208 0 1 0 0-2.415 1.208 1.208 0 0 0 0 2.416Zm3.78 0a1.208 1.208 0 1 0 0-2.415 1.208 1.208 0 0 0 0 2.416Z"/><path stroke="#171819" stroke-linejoin="round" stroke-width=".604" d="M88.17 26.02H76.381a3.93 3.93 0 0 0 .001 7.86h2.193v1.87l1.87-1.87h7.716c2.168 0 3.93-1.76 3.93-3.93a3.92 3.92 0 0 0-3.923-3.93Z"/><path fill="#ffe870" d="M29.327 22.551h11.787c2.169 0 3.93 1.76 3.93 3.93 0 2.168-1.76 3.93-3.93 3.93h-2.192v1.878l-1.87-1.873h-7.717a3.93 3.93 0 0 1-3.93-3.928 3.92 3.92 0 0 1 3.922-3.937"/><path fill="#ffac73" d="M38.82 30.322a.893.893 0 0 1 .897-.896h1.995a3.93 3.93 0 0 0 3.042-1.438 3.93 3.93 0 0 1-3.63 2.421h-2.295v-.087zM26.286 23.99c-.2.477-.3.99-.298 1.508 0 2.169 1.76 3.93 3.93 3.93h7.166a.89.89 0 0 1 .802.495l.935 1.823.103.543-1.87-1.87h-7.719a3.93 3.93 0 0 1-3.93-3.93 3.9 3.9 0 0 1 .881-2.5"/><path stroke="#fff" stroke-linejoin="round" stroke-width=".604" d="M38.922 27.64a1.208 1.208 0 1 0 0-2.416 1.208 1.208 0 0 0 0 2.416Zm-3.702 0a1.208 1.208 0 1 0 0-2.416 1.208 1.208 0 0 0 0 2.416Zm-3.78 0a1.208 1.208 0 1 0 0-2.416 1.208 1.208 0 0 0 0 2.416Z"/><path stroke="#171819" stroke-linejoin="round" stroke-width=".604" d="M29.327 22.551h11.787c2.169 0 3.93 1.76 3.93 3.93 0 2.168-1.76 3.93-3.93 3.93h-2.192v1.878l-1.87-1.873h-7.717a3.93 3.93 0 0 1-3.93-3.928 3.92 3.92 0 0 1 3.922-3.937Z"/><path fill="#ffdec5" d="M49.688 22.077V30.5c0 4.542 3.678 8.032 8.22 8.032s8.22-3.489 8.22-8.032v-8.424z"/><path fill="#f9c0b2" d="M57.909 37.354c-4.542 0-8.22-3.489-8.22-8.032v1.179c0 4.542 3.678 8.032 8.22 8.032 4.541 0 8.22-3.489 8.22-8.032v-1.179c0 4.542-3.679 8.032-8.22 8.032m-8.22-10.429c5.21.024 9.924-1.485 12.746-3.795.47 2.004 2.585 3.623 3.7 3.544V22.07c-1.877 0-11.748.384-16.438 0z"/><path stroke="#171819" stroke-linejoin="round" stroke-width=".604" d="M49.688 22.077V30.5c0 4.542 3.678 8.032 8.22 8.032s8.22-3.489 8.22-8.032v-8.424z"/><path stroke="#171819" stroke-linecap="round" stroke-linejoin="round" stroke-width=".604" d="M55.472 27.687a8.6 8.6 0 0 0-2.907 0"/><path fill="#171819" d="M53.405 29.62a1.208 1.208 0 1 0 0-2.417 1.208 1.208 0 0 0 0 2.416"/><path stroke="#171819" stroke-linecap="round" stroke-linejoin="round" stroke-width=".604" d="M62.646 27.687a8.6 8.6 0 0 0-2.907 0"/><path fill="#171819" d="M60.572 29.62a1.208 1.208 0 1 0 0-2.417 1.208 1.208 0 0 0 0 2.416"/><path stroke="#171819" stroke-linecap="round" stroke-linejoin="round" stroke-width=".604" d="M58.514 35.043s1.47.141 2.49-1.422m-4.424-1.934c.102.455.612.802 1.226.802.613 0 1.123-.345 1.226-.802"/><path fill="#637593" d="M62.458 12.128a11.9 11.9 0 0 0-.998 4.793c0 4.888 2.899 9.006 6.844 10.247v-5.696c0-4.103-2.39-7.654-5.846-9.344"/><path fill="#586b87" d="m62.458 12.128-.307.762a10.38 10.38 0 0 1 4.542 8.589v4.997a8.6 8.6 0 0 0 1.611.7v-5.697c0-4.11-2.39-7.662-5.846-9.351"/><path stroke="#171819" stroke-linejoin="round" stroke-width=".604" d="M62.458 12.128a11.9 11.9 0 0 0-.998 4.793c0 4.888 2.899 9.006 6.844 10.247v-5.696c0-4.103-2.39-7.654-5.846-9.344Z"/><path fill="#637593" d="M57.907 11.083a10.393 10.393 0 0 0-10.395 10.395v4.37q.941.06 1.885.062c8.243 0 15.3-3.355 18.232-8.11a10.39 10.39 0 0 0-9.722-6.718"/><path fill="#586b87" d="M57.907 11.083c-1.823 0-3.535.47-5.021 1.296a10.9 10.9 0 0 1 3.371-.527c4.676 0 8.667 2.939 10.24 7.064-.37.605-.81 1.18-1.296 1.737.982-.872 1.807-1.831 2.437-2.852-1.495-3.93-5.283-6.718-9.73-6.718"/><path stroke="#171819" stroke-linejoin="round" stroke-width=".604" d="M57.907 11.083a10.393 10.393 0 0 0-10.395 10.395v4.37q.941.06 1.885.062c8.243 0 15.3-3.355 18.232-8.11a10.39 10.39 0 0 0-9.722-6.718Z"/><path stroke="#171819" stroke-linecap="round" stroke-linejoin="round" stroke-width=".604" d="M55.11 21.864c2.986-.456 6.57-1.438 8.974-3.536M49.75 22.271s1.132.039 2.814-.116"/><path fill="#f0bf62" d="M61.656 41.493c-1.18.637-2.397.715-3.749 1.39-1.351-.675-2.57-.753-3.748-1.39-.063-.031-1.603-.078-1.611-.078.11-.008-.135 1.037.047 2.16.15 1.124.73 2.319 1.618 2.601q.083.024.166.025c1.123.11 2.899-2.554 3.52-3.183.62.628 2.405 3.292 3.52 3.183l.165-.025c.897-.282 1.478-1.477 1.619-2.6.188-1.124-.056-2.161.047-2.161.016 0-1.532.047-1.594.078"/><path fill="#fff" d="m54.175 40.558 3.732 2.452s-1.965 2.774-2.931 2.594c-1.25-.237-2.294-4.535-2.294-4.535z"/><path stroke="#171819" stroke-linejoin="round" stroke-width=".604" d="m54.175 40.558 3.732 2.452s-1.965 2.774-2.931 2.594c-1.25-.237-2.294-4.535-2.294-4.535z"/><path fill="#fff" d="m61.64 40.558-3.733 2.46s1.965 2.773 2.932 2.593c1.25-.235 2.295-4.535 2.295-4.535z"/><path stroke="#171819" stroke-linejoin="round" stroke-width=".604" d="m61.64 40.558-3.733 2.46s1.965 2.773 2.932 2.593c1.25-.235 2.295-4.535 2.295-4.535z"/><path stroke="#171819" stroke-linecap="round" stroke-linejoin="round" stroke-width=".604" d="M57.928 43.018v4.99"/><path fill="#09c690" d="M54.089 55.01a2.207 2.207 0 1 0 0-4.415 2.207 2.207 0 0 0 0 4.414"/><path fill="#ff4f7c" d="M61.642 55.01a2.207 2.207 0 1 0 0-4.415 2.207 2.207 0 0 0 0 4.414"/><path stroke="#171819" stroke-linejoin="round" stroke-width=".604" d="M61.642 55.01a2.207 2.207 0 1 0 0-4.415 2.207 2.207 0 0 0 0 4.414Z"/><path fill="#fff" d="M61.642 52.225c-.804 0-1.443.262-1.443.603v.324a.24.24 0 0 0 .23.231h.478c.169 0 .281-.178.204-.324a.23.23 0 0 1 .084-.288c.212-.127.666-.136.89 0 .103.05.138.188.084.288-.077.146.035.324.204.324h.477a.24.24 0 0 0 .231-.23v-.328c-.004-.331-.634-.6-1.439-.6m-7.403-.194h-1.155a.286.286 0 0 0-.285.285v.967c0 .158.13.285.285.285h1.155c.158 0 .285-.13.285-.285v-.967a.28.28 0 0 0-.285-.285m.929.157a.3.3 0 0 0-.05.02l-.447.258v.666l.45.258a.17.17 0 0 0 .258-.146v-.885c0-.111-.1-.199-.211-.17"/><path stroke="#171819" stroke-linejoin="round" stroke-width=".604" d="M54.089 55.01a2.207 2.207 0 1 0 0-4.415 2.207 2.207 0 0 0 0 4.414Z"/><path fill="#3edc81" d="M118.144 89.263a2.42 2.42 0 0 1-2.418 2.496H78.212a6.1 6.1 0 0 1-6.099-6.104V79.68a6.105 6.105 0 0 1 6.1-6.103h37.408c1.331 0 2.48 1.025 2.523 2.348a2.42 2.42 0 0 1-2.418 2.496h-36.87a1.9 1.9 0 0 0-1.896 1.895v4.704a1.897 1.897 0 0 0 1.896 1.895h36.774c1.313.008 2.471 1.026 2.514 2.348"/><path fill="#fff" d="M118.144 75.934c.01.407-.079.81-.261 1.174a2.58 2.58 0 0 0-2.262-1.348H78.214a6.1 6.1 0 0 0-6.1 6.104V79.69a6.105 6.105 0 0 1 6.1-6.104h37.408c1.323 0 2.479 1.017 2.522 2.348" opacity=".5"/><path fill="#102770" d="M117.85 88.203c.179.326.28.689.296 1.06a2.42 2.42 0 0 1-2.419 2.496H78.214a6.1 6.1 0 0 1-6.1-6.104V83.36a6.1 6.1 0 0 0 3.765 5.639 6.1 6.1 0 0 0 2.335.465h37.513a2.4 2.4 0 0 0 2.123-1.261" opacity=".3"/><path fill="#102770" d="M115.718 92.68H78.204c-3.871 0-7.012-3.148-7.012-7.017V79.69c0-3.87 3.149-7.017 7.012-7.017h37.408c1.837 0 3.385 1.452 3.437 3.235a3.3 3.3 0 0 1-.94 2.425 3.32 3.32 0 0 1-2.393 1.009H78.848a.99.99 0 0 0-.983.982v4.704c0 .547.443.982.983.982h36.774c1.836 0 3.385 1.452 3.437 3.227a3.3 3.3 0 0 1-.94 2.425 3.35 3.35 0 0 1-2.401 1.018M78.213 74.5a5.194 5.194 0 0 0-5.185 5.19v5.973a5.194 5.194 0 0 0 5.185 5.191h37.513a1.515 1.515 0 0 0 1.505-1.557c-.026-.8-.749-1.46-1.61-1.46H78.848a2.815 2.815 0 0 1-2.81-2.809v-4.703a2.815 2.815 0 0 1 2.81-2.808h36.87a1.514 1.514 0 0 0 1.513-1.557c-.026-.808-.749-1.46-1.61-1.46z"/><path fill="#fff" d="M114.682 86.924H78.848a1.9 1.9 0 0 1-1.897-1.895v-4.706a1.896 1.896 0 0 1 1.897-1.895h35.834q-3.51 4.24 0 8.496"/><path fill="#102770" d="M114.682 87.836H78.848a2.814 2.814 0 0 1-2.81-2.808v-4.704a2.814 2.814 0 0 1 2.81-2.809h35.834c.356 0 .679.2.826.522a.92.92 0 0 1-.122.974c-2.062 2.504-2.062 4.834 0 7.338a.92.92 0 0 1 .122.974.93.93 0 0 1-.826.513m-35.834-8.504a.99.99 0 0 0-.984.982v4.704c0 .547.444.982.984.982h34.093c-1.226-2.208-1.226-4.47 0-6.678H78.848z"/><path fill="#102770" d="M81.692 87.707a.78.78 0 0 1-.782-.783V78.42a.78.78 0 0 1 .782-.783.78.78 0 0 1 .783.783v8.504a.78.78 0 0 1-.783.783"/><path fill="#102770" d="m113.89 79.535-1.522 3.834H76.951v-4.391h37.296z" opacity=".3"/><path fill="#f7c714" d="M118.162 71.117a2.42 2.42 0 0 1-2.418 2.496H78.23a6.1 6.1 0 0 1-6.099-6.104v-5.974a6.105 6.105 0 0 1 6.1-6.103h37.408c1.331 0 2.48 1.025 2.523 2.348a2.42 2.42 0 0 1-2.418 2.496h-36.87a1.9 1.9 0 0 0-1.896 1.895v4.704a1.897 1.897 0 0 0 1.896 1.895h36.774c1.323 0 2.471 1.016 2.514 2.347"/><path fill="#fff" d="M118.161 57.779a2.5 2.5 0 0 1-.261 1.174 2.58 2.58 0 0 0-2.263-1.349H78.23a6.1 6.1 0 0 0-6.099 6.104v-2.174a6.105 6.105 0 0 1 6.1-6.104h37.408c1.331 0 2.478 1.026 2.522 2.349" opacity=".5"/><path fill="#102770" d="M117.866 70.046a2.42 2.42 0 0 1-.055 2.379 2.41 2.41 0 0 1-2.067 1.178H78.23a6.1 6.1 0 0 1-6.099-6.104v-2.295a6.103 6.103 0 0 0 6.1 6.104h37.513a2.38 2.38 0 0 0 2.122-1.262" opacity=".3"/><path fill="#102770" d="M115.744 74.524H78.23c-3.871 0-7.012-3.148-7.012-7.017v-5.973c0-3.87 3.15-7.017 7.012-7.017h37.409c1.836 0 3.385 1.452 3.436 3.234a3.3 3.3 0 0 1-.939 2.426 3.32 3.32 0 0 1-2.393 1.009H78.874a.99.99 0 0 0-.983.982v4.704c0 .547.443.982.983.982h36.774c1.837 0 3.385 1.452 3.437 3.226a3.3 3.3 0 0 1-.94 2.426 3.35 3.35 0 0 1-2.401 1.018M78.23 56.344a5.194 5.194 0 0 0-5.184 5.19v5.973a5.194 5.194 0 0 0 5.184 5.19h37.514a1.5 1.5 0 0 0 1.079-.46c.287-.297.434-.688.426-1.096-.027-.8-.749-1.46-1.61-1.46H78.866a2.814 2.814 0 0 1-2.81-2.81v-4.703a2.815 2.815 0 0 1 2.81-2.809h36.869a1.514 1.514 0 0 0 1.514-1.557c-.027-.808-.749-1.46-1.61-1.46z"/><path fill="#fff" d="M114.699 68.769H78.865a1.9 1.9 0 0 1-1.897-1.896v-4.705a1.896 1.896 0 0 1 1.897-1.895h35.834c-2.331 2.825-2.331 5.66 0 8.496"/><path fill="#102770" d="M114.699 69.68H78.865a2.815 2.815 0 0 1-2.81-2.808v-4.704a2.815 2.815 0 0 1 2.81-2.808h35.834a.9.9 0 0 1 .826.522.92.92 0 0 1-.122.973c-2.062 2.504-2.062 4.835 0 7.339a.92.92 0 0 1 .122.973.91.91 0 0 1-.826.514m-35.834-8.503a.99.99 0 0 0-.983.982v4.704c0 .547.443.982.983.982h34.094c-1.227-2.209-1.227-4.47 0-6.678H78.865z"/><path fill="#102770" d="M81.71 69.552a.78.78 0 0 1-.783-.783v-8.504a.78.78 0 0 1 .782-.783.78.78 0 0 1 .783.783v8.504a.78.78 0 0 1-.783.783"/><path fill="#102770" d="m113.907 61.378-1.28 3.834H76.968v-4.39h37.305z" opacity=".3"/></svg>