<svg width="120" height="94" viewBox="0 0 120 94" fill="none" xmlns="http://www.w3.org/2000/svg">
<path d="M111.657 66.5205C111.657 70.7836 108.169 74.2716 103.906 74.2716H12.8307C8.56759 74.2716 5.07959 70.7836 5.07959 66.5205V9.35609C5.07959 5.09298 8.56759 1.60498 12.8307 1.60498H103.906C108.169 1.60498 111.657 5.09298 111.657 9.35609V66.5205Z" fill="#1373CE"/>
<path d="M111.657 66.5205C111.657 70.7836 108.169 74.2716 103.906 74.2716H12.8307C8.56759 74.2716 5.07959 70.7836 5.07959 66.5205V9.35609C5.07959 5.09298 8.56759 1.60498 12.8307 1.60498H103.906C108.169 1.60498 111.657 5.09298 111.657 9.35609V66.5205Z" fill="white" fill-opacity="0.8"/>
<path d="M103.809 1.60498H12.7338C8.4707 1.60498 5.07959 4.60854 5.07959 8.87165V62.645H111.657V8.87165C111.657 4.60854 108.072 1.60498 103.809 1.60498Z" fill="#22A7F0"/>
<path opacity="0.5" d="M18.0665 40.845C17.8065 40.845 17.4165 40.715 17.1565 40.455C16.6365 39.935 16.6365 39.155 17.1565 38.635L45.7565 10.035C46.2765 9.51502 47.0565 9.51502 47.5765 10.035C48.0965 10.555 48.0965 11.335 47.5765 11.855L18.9765 40.455C18.7165 40.715 18.3265 40.845 18.0665 40.845Z" fill="white"/>
<path opacity="0.5" d="M23.2664 64.2452C22.8764 64.2452 22.6164 64.1152 22.3564 63.8552C21.8364 63.3352 21.8364 62.5552 22.3564 62.0352L75.6564 8.73521C76.1764 8.21521 76.9564 8.21521 77.4764 8.73521C77.9964 9.25521 77.9964 10.0352 77.4764 10.5552L24.1764 63.8552C23.9164 64.1152 23.6564 64.2452 23.2664 64.2452Z" fill="white"/>
<path opacity="0.5" d="M59.6666 51.2452C59.2766 51.2452 59.0166 51.1152 58.7566 50.8552C58.2366 50.3352 58.2366 49.5552 58.7566 49.0352L86.0566 21.7352C86.5766 21.2152 87.3566 21.2152 87.8766 21.7352C88.3966 22.2552 88.3966 23.0352 87.8766 23.5552L60.5766 50.8552C60.3166 51.1152 60.0566 51.2452 59.6666 51.2452Z" fill="white"/>
<path opacity="0.5" d="M75.2664 55.145C74.8764 55.145 74.6164 55.015 74.3564 54.755C73.8364 54.235 73.8364 53.325 74.3564 52.805L91.1264 36.035C91.6464 35.515 92.5564 35.515 93.0764 36.035C93.5964 36.555 93.5964 37.465 93.0764 37.985L76.3064 54.755C76.0464 55.015 75.6564 55.145 75.2664 55.145Z" fill="white"/>
<path opacity="0.5" d="M97.3665 33.0452C96.9765 33.0452 96.7165 32.9152 96.4565 32.6552C95.9365 32.1352 95.9365 31.3552 96.4565 30.8352L105.557 21.7352C106.077 21.2152 106.857 21.2152 107.377 21.7352C107.897 22.2552 107.897 23.0352 107.377 23.5552L98.2765 32.6552C98.0165 32.9152 97.6265 33.0452 97.3665 33.0452Z" fill="white"/>
<path opacity="0.457543" d="M63.4574 63.564C58.1156 63.564 111.412 63.564 111.412 63.564L112.626 26.4359C112.626 22.0659 63.4574 63.564 63.4574 63.564Z" fill="#737373" fill-opacity="0.14658"/>
<path d="M112.452 92.6805H1.90845C1.31145 92.6805 0.913452 92.2929 0.913452 91.7116C0.913452 91.1302 1.31145 90.7427 1.90845 90.7427H112.552C113.149 90.7427 113.547 91.1302 113.547 91.7116C113.547 92.2929 113.049 92.6805 112.452 92.6805Z" fill="#102770" stroke="#102770"/>
<path fill-rule="evenodd" clip-rule="evenodd" d="M12.8308 75.2407H103.906C108.751 75.2407 112.626 71.3651 112.626 66.5207V9.35623C112.626 4.51179 108.751 0.63623 103.906 0.63623H12.8308C7.9864 0.63623 4.11084 4.51179 4.11084 9.35623V66.5207C4.11084 71.3651 7.9864 75.2407 12.8308 75.2407ZM6.04858 9.35634C6.04858 5.57767 9.05214 2.57412 12.8308 2.57412H103.906C107.685 2.57412 110.689 5.57767 110.689 9.35634V66.5208C110.689 70.2994 107.685 73.303 103.906 73.303H12.8308C9.05214 73.303 6.04858 70.2994 6.04858 66.5208V9.35634Z" fill="#102770"/>
<path d="M103.906 75.2407V74.7407H12.8308V75.2407V75.7407H103.906V75.2407ZM112.626 66.5207H112.126C112.126 71.089 108.475 74.7407 103.906 74.7407V75.2407V75.7407C109.027 75.7407 113.126 71.6413 113.126 66.5207H112.626ZM112.626 9.35623H112.126V66.5207H112.626H113.126V9.35623H112.626ZM103.906 0.63623V1.13623C108.475 1.13623 112.126 4.78793 112.126 9.35623H112.626H113.126C113.126 4.23564 109.027 0.13623 103.906 0.13623V0.63623ZM12.8308 0.63623V1.13623H103.906V0.63623V0.13623H12.8308V0.63623ZM4.11084 9.35623H4.61084C4.61084 4.78793 8.26254 1.13623 12.8308 1.13623V0.63623V0.13623C7.71025 0.13623 3.61084 4.23564 3.61084 9.35623H4.11084ZM4.11084 66.5207H4.61084V9.35623H4.11084H3.61084V66.5207H4.11084ZM12.8308 75.2407V74.7407C8.26254 74.7407 4.61084 71.089 4.61084 66.5207H4.11084H3.61084C3.61084 71.6413 7.71025 75.7407 12.8308 75.7407V75.2407ZM12.8308 2.57412V2.07412C8.77599 2.07412 5.54858 5.30153 5.54858 9.35634H6.04858H6.54858C6.54858 5.85381 9.32828 3.07412 12.8308 3.07412V2.57412ZM103.906 2.57412V2.07412H12.8308V2.57412V3.07412H103.906V2.57412ZM110.689 9.35634H111.189C111.189 5.30153 107.961 2.07412 103.906 2.07412V2.57412V3.07412C107.409 3.07412 110.189 5.85381 110.189 9.35634H110.689ZM110.689 66.5208H111.189V9.35634H110.689H110.189V66.5208H110.689ZM103.906 73.303V73.803C107.961 73.803 111.189 70.5756 111.189 66.5208H110.689H110.189C110.189 70.0233 107.409 72.803 103.906 72.803V73.303ZM12.8308 73.303V73.803H103.906V73.303V72.803H12.8308V73.303ZM6.04858 66.5208H5.54858C5.54858 70.5756 8.77599 73.803 12.8308 73.803V73.303V72.803C9.32828 72.803 6.54858 70.0233 6.54858 66.5208H6.04858ZM6.04858 9.35634H5.54858V66.5208H6.04858H6.54858V9.35634H6.04858Z" fill="#102770"/>
<path d="M110.689 63.614H5.07973C4.4984 63.614 4.11084 63.2265 4.11084 62.6452C4.11084 62.0638 4.4984 61.6763 5.07973 61.6763H110.689C111.27 61.6763 111.657 62.0638 111.657 62.6452C111.657 63.2265 111.27 63.614 110.689 63.614Z" fill="#102770" stroke="#102770" stroke-width="0.5"/>
<rect x="47.7108" y="74.2715" width="20.3467" height="17.44" fill="#EAEAEA"/>
<rect x="47.7108" y="74.2715" width="20.3467" height="5.81333" fill="#BABABA"/>
<path fill-rule="evenodd" clip-rule="evenodd" d="M47.7108 92.6805H68.0575C68.6388 92.6805 69.0264 92.293 69.0264 91.7116V74.2716C69.0264 73.6903 68.6388 73.3027 68.0575 73.3027H47.7108C47.1295 73.3027 46.7419 73.6903 46.7419 74.2716V91.7116C46.7419 92.293 47.1295 92.6805 47.7108 92.6805ZM67.0885 90.743H48.6796V75.2408H67.0885V90.743Z" fill="#102770"/>
<path d="M48.6796 90.743H48.1796V91.243H48.6796V90.743ZM67.0885 90.743V91.243H67.5885V90.743H67.0885ZM48.6796 75.2408V74.7408H48.1796V75.2408H48.6796ZM67.0885 75.2408H67.5885V74.7408H67.0885V75.2408ZM68.0575 92.6805V92.1805H47.7108V92.6805V93.1805H68.0575V92.6805ZM69.0264 91.7116H68.5264C68.5264 91.8887 68.4696 91.9973 68.4064 92.0605C68.3432 92.1237 68.2345 92.1805 68.0575 92.1805V92.6805V93.1805C68.4618 93.1805 68.8376 93.0436 69.1135 92.7676C69.3894 92.4917 69.5264 92.1159 69.5264 91.7116H69.0264ZM69.0264 74.2716H68.5264V91.7116H69.0264H69.5264V74.2716H69.0264ZM68.0575 73.3027V73.8027C68.2345 73.8027 68.3432 73.8596 68.4064 73.9227C68.4696 73.9859 68.5264 74.0946 68.5264 74.2716H69.0264H69.5264C69.5264 73.8673 69.3894 73.4916 69.1135 73.2156C68.8376 72.9397 68.4618 72.8027 68.0575 72.8027V73.3027ZM47.7108 73.3027V73.8027H68.0575V73.3027V72.8027H47.7108V73.3027ZM46.7419 74.2716H47.2419C47.2419 74.0946 47.2988 73.9859 47.3619 73.9227C47.4251 73.8596 47.5338 73.8027 47.7108 73.8027V73.3027V72.8027C47.3065 72.8027 46.9308 72.9397 46.6548 73.2156C46.3789 73.4916 46.2419 73.8673 46.2419 74.2716H46.7419ZM46.7419 91.7116H47.2419V74.2716H46.7419H46.2419V91.7116H46.7419ZM47.7108 92.6805V92.1805C47.5338 92.1805 47.4251 92.1237 47.3619 92.0605C47.2988 91.9973 47.2419 91.8887 47.2419 91.7116H46.7419H46.2419C46.2419 92.1159 46.3789 92.4917 46.6548 92.7676C46.9308 93.0436 47.3065 93.1805 47.7108 93.1805V92.6805ZM48.6796 90.743V91.243H67.0885V90.743V90.243H48.6796V90.743ZM48.6796 75.2408H48.1796V90.743H48.6796H49.1796V75.2408H48.6796ZM67.0885 75.2408V74.7408H48.6796V75.2408V75.7408H67.0885V75.2408ZM67.0885 90.743H67.5885V75.2408H67.0885H66.5885V90.743H67.0885Z" fill="#102770"/>
<path d="M80.9438 91.7121C79.878 88.8055 77.0683 86.8677 73.8709 86.8677H42.5758C39.3785 86.8677 36.5687 88.8055 35.5029 91.7121H80.9438Z" fill="#EAEAEA"/>
<path fill-rule="evenodd" clip-rule="evenodd" d="M35.5029 92.6804H80.9438C81.3313 92.6804 81.622 92.4867 81.8158 92.2929C82.0096 92.0991 82.0096 91.7116 81.9127 91.4209C80.5562 88.1267 77.4558 85.9951 73.8709 85.9951H42.6727C39.0878 85.9951 35.8905 88.1267 34.6309 91.4209C34.534 91.7116 34.534 92.0022 34.7278 92.2929C34.9216 92.4867 35.2122 92.6804 35.5029 92.6804ZM79.3935 90.7429H37.15C38.3126 88.902 40.3473 87.8362 42.5758 87.8362H73.8709C76.1962 87.8362 78.2309 88.902 79.3935 90.7429Z" fill="#102770"/>
<path d="M81.8158 92.2929L81.4622 91.9393V91.9393L81.8158 92.2929ZM81.9127 91.4209L82.387 91.2628L82.3816 91.2464L82.375 91.2305L81.9127 91.4209ZM34.6309 91.4209L34.1639 91.2423L34.16 91.2525L34.1566 91.2628L34.6309 91.4209ZM34.7278 92.2929L34.3118 92.5702L34.3392 92.6114L34.3742 92.6464L34.7278 92.2929ZM37.15 90.7429L36.7272 90.4759L36.2428 91.2429H37.15V90.7429ZM79.3935 90.7429V91.2429H80.3007L79.8163 90.4759L79.3935 90.7429ZM80.9438 92.6804V92.1804H35.5029V92.6804V93.1804H80.9438V92.6804ZM81.8158 92.2929L81.4622 91.9393C81.323 92.0786 81.152 92.1804 80.9438 92.1804V92.6804V93.1804C81.5107 93.1804 81.9211 92.8947 82.1693 92.6464L81.8158 92.2929ZM81.9127 91.4209L81.4383 91.579C81.4676 91.6669 81.4813 91.7697 81.4747 91.8549C81.4676 91.9475 81.443 91.9586 81.4622 91.9393L81.8158 92.2929L82.1693 92.6464C82.3824 92.4334 82.4547 92.1539 82.4718 91.9316C82.4894 91.7018 82.4546 91.4655 82.387 91.2628L81.9127 91.4209ZM73.8709 85.9951V86.4951C77.2485 86.4951 80.1692 88.5 81.4503 91.6113L81.9127 91.4209L82.375 91.2305C80.9432 87.7533 77.6631 85.4951 73.8709 85.4951V85.9951ZM42.6727 85.9951V86.4951H73.8709V85.9951V85.4951H42.6727V85.9951ZM34.6309 91.4209L35.0979 91.5995C36.2804 88.5069 39.2862 86.4951 42.6727 86.4951V85.9951V85.4951C38.8894 85.4951 35.5006 87.7464 34.1639 91.2423L34.6309 91.4209ZM34.7278 92.2929L35.1438 92.0155C35.0551 91.8825 35.0448 91.7603 35.1052 91.579L34.6309 91.4209L34.1566 91.2628C34.0232 91.6628 34.0129 92.1219 34.3118 92.5702L34.7278 92.2929ZM35.5029 92.6804V92.1804C35.4118 92.1804 35.2427 92.1007 35.0813 91.9393L34.7278 92.2929L34.3742 92.6464C34.6005 92.8727 35.0127 93.1804 35.5029 93.1804V92.6804ZM37.15 90.7429V91.2429H79.3935V90.7429V90.2429H37.15V90.7429ZM42.5758 87.8362V87.3362C40.1869 87.3362 37.9873 88.4808 36.7272 90.4759L37.15 90.7429L37.5727 91.0099C38.638 89.3232 40.5077 88.3362 42.5758 88.3362V87.8362ZM73.8709 87.8362V87.3362H42.5758V87.8362V88.3362H73.8709V87.8362ZM79.3935 90.7429L79.8163 90.4759C78.5541 88.4774 76.3524 87.3362 73.8709 87.3362V87.8362V88.3362C76.04 88.3362 77.9076 89.3266 78.9708 91.0099L79.3935 90.7429Z" fill="#102770"/>
<path d="M80.3043 49.1591H35.5115C33.7745 49.1591 32.3684 47.8026 32.3684 46.1271V19.5759C32.3684 17.9005 33.7745 16.5439 35.5115 16.5439H80.3043C82.0413 16.5439 83.4474 17.9005 83.4474 19.5759V46.1271C83.4474 47.8026 82.0413 49.1591 80.3043 49.1591Z" fill="#3C87EA"/>
<path d="M82.0171 17.0549C82.0956 17.3315 82.1428 17.6166 82.1428 17.9162V44.8684C82.1428 46.5692 80.7367 47.9463 78.9996 47.9463H34.2069C33.5788 47.9463 32.9893 47.7615 32.494 47.4535C32.8794 48.7303 34.0813 49.6689 35.5115 49.6689H80.3042C82.0413 49.6689 83.4474 48.2918 83.4474 46.591V19.6315C83.4474 18.554 82.8736 17.5997 82.0171 17.0537V17.0549Z" fill="#2765B7"/>
<path d="M64.3747 44.2995H51.4398C49.2715 44.2995 47.5103 42.5395 47.5103 40.37V21.4785C47.5103 15.7346 52.1621 11.0815 57.9072 11.0815C63.6511 11.0815 68.3042 15.7334 68.3042 21.4785V40.3772C68.3042 42.5383 66.5442 44.2983 64.3747 44.2983V44.2995Z" fill="#586B87"/>
<path d="M64.3747 44.2995H51.4398C49.2715 44.2995 47.5103 42.5395 47.5103 40.37V21.4785C47.5103 15.7346 52.1621 11.0815 57.9072 11.0815C63.6511 11.0815 68.3042 15.7334 68.3042 21.4785V40.3772C68.3042 42.5383 66.5442 44.2983 64.3747 44.2983V44.2995Z" stroke="#171819" stroke-width="0.603985" stroke-linejoin="round"/>
<path d="M65.6238 31.4268C64.8145 29.6185 65.3653 26.3026 65.3653 26.3026C65.3653 26.3026 67.1881 26.0429 67.6206 26.6722C68.32 27.7171 67.9975 31.4268 65.625 31.4268H65.6238Z" fill="#FFDEC5"/>
<path d="M65.3651 26.3027C65.3651 26.3027 65.2781 26.8367 65.2238 27.5989C65.2238 27.5989 66.7096 26.6953 67.9115 27.5989C67.8487 27.2449 67.7617 26.8922 67.6131 26.6712C67.1879 26.0358 65.3651 26.3027 65.3651 26.3027Z" fill="#F9C0B2"/>
<path d="M65.6238 31.4268C64.8145 29.6185 65.3653 26.3026 65.3653 26.3026C65.3653 26.3026 67.1881 26.0429 67.6206 26.6722C68.32 27.7171 67.9975 31.4268 65.625 31.4268H65.6238Z" stroke="#171819" stroke-width="0.603985" stroke-linejoin="round"/>
<path d="M70.7721 48.9489H45.0436V46.5076C45.0436 44.471 46.6309 42.653 49.0359 41.933L57.9072 39.2852L66.7798 41.933C69.1848 42.653 70.7721 44.471 70.7721 46.5076V48.9489Z" fill="#FFE870"/>
<path d="M46.167 46.574C46.167 44.5362 47.7543 42.717 50.1593 41.9958L58.5837 39.4833L57.9072 39.2852L49.0359 41.9282C46.6309 42.6481 45.0436 44.4673 45.0436 46.5052V48.9489H46.167V46.574Z" fill="#F0BF62"/>
<path d="M66.7798 41.933L57.9073 39.2852L56.6027 39.6765L64.1706 41.933C66.5757 42.653 68.1629 44.471 68.1629 46.5076V48.9489H70.7721V46.5076C70.7721 44.471 69.1849 42.6457 66.7798 41.933Z" fill="#F0BF62"/>
<path d="M70.7721 48.9489H45.0436V46.5076C45.0436 44.471 46.6309 42.653 49.0359 41.933L57.9072 39.2852L66.7798 41.933C69.1848 42.653 70.7721 44.471 70.7721 46.5076V48.9489Z" stroke="#171819" stroke-width="0.603985" stroke-linejoin="round"/>
<path d="M54.1288 36.9756V40.0245C54.1288 42.107 55.8187 43.0191 57.9085 43.0191C59.9911 43.0191 61.6883 42.1155 61.6883 40.0245V36.9756H54.1288Z" fill="#FFDEC5"/>
<path d="M54.1288 38.6812C55.2607 39.2466 56.5411 39.5618 57.9085 39.5618C59.2675 39.5618 60.5564 39.2478 61.6883 38.6812V36.9756H54.136V38.6812H54.1288Z" fill="#F9C0B2"/>
<path d="M54.1288 36.9756V40.0245C54.1288 42.107 55.8187 43.0191 57.9085 43.0191C59.9911 43.0191 61.6883 42.1155 61.6883 40.0245V36.9756H54.1288Z" stroke="#171819" stroke-width="0.603985" stroke-linejoin="round"/>
<path d="M80.3043 49.1591H35.5115C33.7745 49.1591 32.3684 47.8026 32.3684 46.1271V19.5759C32.3684 17.9005 33.7745 16.5439 35.5115 16.5439H80.3043C82.0413 16.5439 83.4474 17.9005 83.4474 19.5759V46.1271C83.4474 47.8026 82.0413 49.1591 80.3043 49.1591V49.1591Z" stroke="#171819" stroke-width="0.603985" stroke-linejoin="round"/>
<path d="M88.1694 26.0205H76.3821C74.2137 26.0205 72.4537 27.7805 72.4537 29.95C72.4537 32.1183 74.2137 33.8796 76.3833 33.8796H78.5757V35.7495L80.4457 33.8796H88.1622C90.3305 33.8796 92.0917 32.1195 92.0917 29.95C92.0989 27.7805 90.3389 26.0205 88.1694 26.0205Z" fill="#00A8FF"/>
<path d="M78.6772 33.7926C78.6775 33.6748 78.6545 33.5581 78.6096 33.4492C78.5647 33.3403 78.4987 33.2414 78.4154 33.1581C78.3321 33.0748 78.2332 33.0088 78.1243 32.9639C78.0154 32.9189 77.8987 32.896 77.7809 32.8963H75.7853C75.2035 32.897 74.6288 32.7685 74.1027 32.5199C73.5767 32.2713 73.1124 31.9088 72.7437 31.4588C73.3331 32.8806 74.7392 33.8796 76.3736 33.8796H78.6687V33.7926H78.6772ZM91.2026 27.4592C91.4025 27.937 91.5039 28.4501 91.501 28.968C91.501 31.1363 89.741 32.8975 87.5715 32.8975H80.4058C80.0676 32.8975 79.7535 33.0859 79.6037 33.3928L78.6687 35.2144L78.5661 35.7568L80.436 33.8868H88.1525C90.3208 33.8868 92.082 32.1268 92.082 29.9573C92.0964 29.0458 91.784 28.1592 91.2014 27.458L91.2026 27.4592Z" fill="#008AEE"/>
<path d="M78.5745 31.1108C79.2417 31.1108 79.7825 30.5699 79.7825 29.9028C79.7825 29.2357 79.2417 28.6948 78.5745 28.6948C77.9074 28.6948 77.3666 29.2357 77.3666 29.9028C77.3666 30.5699 77.9074 31.1108 78.5745 31.1108Z" stroke="white" stroke-width="0.603985" stroke-linejoin="round"/>
<path d="M82.2757 31.1108C82.9429 31.1108 83.4837 30.5699 83.4837 29.9028C83.4837 29.2357 82.9429 28.6948 82.2757 28.6948C81.6086 28.6948 81.0677 29.2357 81.0677 29.9028C81.0677 30.5699 81.6086 31.1108 82.2757 31.1108Z" stroke="white" stroke-width="0.603985" stroke-linejoin="round"/>
<path d="M86.0555 31.1108C86.7226 31.1108 87.2635 30.5699 87.2635 29.9028C87.2635 29.2357 86.7226 28.6948 86.0555 28.6948C85.3884 28.6948 84.8475 29.2357 84.8475 29.9028C84.8475 30.5699 85.3884 31.1108 86.0555 31.1108Z" stroke="white" stroke-width="0.603985" stroke-linejoin="round"/>
<path d="M88.1694 26.0205H76.3821C74.2137 26.0205 72.4537 27.7805 72.4537 29.95C72.4537 32.1183 74.2137 33.8796 76.3833 33.8796H78.5757V35.7495L80.4457 33.8796H88.1622C90.3305 33.8796 92.0917 32.1195 92.0917 29.95C92.0989 27.7805 90.3389 26.0205 88.1694 26.0205Z" stroke="#171819" stroke-width="0.603985" stroke-linejoin="round"/>
<path d="M29.3269 22.5513H41.1142C43.2825 22.5513 45.0437 24.3113 45.0437 26.4808C45.0437 28.6491 43.2837 30.4103 41.1142 30.4103H38.9218V32.2887L37.0518 30.4164H29.3353C27.1658 30.4164 25.4058 28.6563 25.4058 26.488C25.3985 24.3113 27.1585 22.5513 29.3269 22.5513Z" fill="#FFE870"/>
<path d="M38.8203 30.3222C38.8199 30.2044 38.8429 30.0877 38.8878 29.9788C38.9328 29.8699 38.9988 29.7709 39.0821 29.6877C39.1654 29.6044 39.2643 29.5383 39.3732 29.4934C39.4821 29.4485 39.5988 29.4255 39.7166 29.4258H41.7121C42.294 29.4266 42.8687 29.298 43.3947 29.0494C43.9208 28.8008 44.385 28.4384 44.7538 27.9884C44.1643 29.4101 42.7582 30.4091 41.1239 30.4091H38.8287V30.3222H38.8203ZM26.2864 23.9888C26.0865 24.4665 25.9851 24.9797 25.988 25.4975C25.988 27.6658 27.748 29.427 29.9175 29.427H37.0844C37.4226 29.427 37.7367 29.6155 37.8865 29.9223L38.8215 31.7451L38.9241 32.2875L37.0542 30.4176H29.3353C27.1658 30.4164 25.4058 28.6564 25.4058 26.4881C25.3987 25.5777 25.7103 24.6936 26.2864 23.9888Z" fill="#FFAC73"/>
<path d="M38.9217 27.6401C39.5889 27.6401 40.1297 27.0992 40.1297 26.4321C40.1297 25.7649 39.5889 25.2241 38.9217 25.2241C38.2546 25.2241 37.7137 25.7649 37.7137 26.4321C37.7137 27.0992 38.2546 27.6401 38.9217 27.6401Z" stroke="white" stroke-width="0.603985" stroke-linejoin="round"/>
<path d="M35.2205 27.6401C35.8877 27.6401 36.4285 27.0992 36.4285 26.4321C36.4285 25.7649 35.8877 25.2241 35.2205 25.2241C34.5534 25.2241 34.0126 25.7649 34.0126 26.4321C34.0126 27.0992 34.5534 27.6401 35.2205 27.6401Z" stroke="white" stroke-width="0.603985" stroke-linejoin="round"/>
<path d="M31.4408 27.6401C32.1079 27.6401 32.6487 27.0992 32.6487 26.4321C32.6487 25.7649 32.1079 25.2241 31.4408 25.2241C30.7736 25.2241 30.2328 25.7649 30.2328 26.4321C30.2328 27.0992 30.7736 27.6401 31.4408 27.6401Z" stroke="white" stroke-width="0.603985" stroke-linejoin="round"/>
<path d="M29.3269 22.5513H41.1142C43.2825 22.5513 45.0437 24.3113 45.0437 26.4808C45.0437 28.6491 43.2837 30.4103 41.1142 30.4103H38.9218V32.2887L37.0518 30.4164H29.3353C27.1658 30.4164 25.4058 28.6563 25.4058 26.488C25.3985 24.3113 27.1585 22.5513 29.3269 22.5513Z" stroke="#171819" stroke-width="0.603985" stroke-linejoin="round"/>
<path d="M49.6882 22.0767V30.501C49.6882 35.043 53.3665 38.5328 57.9085 38.5328C62.4504 38.5328 66.1287 35.0442 66.1287 30.501V22.0767H49.6882Z" fill="#FFDEC5"/>
<path d="M57.9085 37.3538C53.3665 37.3538 49.6882 33.8652 49.6882 29.322V30.501C49.6882 35.0429 53.3665 38.5327 57.9085 38.5327C62.4504 38.5327 66.1287 35.0441 66.1287 30.501V29.322C66.1287 33.8639 62.4504 37.3538 57.9085 37.3538ZM49.6882 26.9254C54.8982 26.9495 59.6129 25.4396 62.4347 23.1299C62.9058 25.134 65.0198 26.7526 66.1359 26.6741V22.0693C64.2576 22.0693 54.3872 22.4535 49.6967 22.0693L49.6882 26.9254Z" fill="#F9C0B2"/>
<path d="M49.6882 22.0767V30.501C49.6882 35.043 53.3665 38.5328 57.9085 38.5328C62.4504 38.5328 66.1287 35.0442 66.1287 30.501V22.0767H49.6882Z" stroke="#171819" stroke-width="0.603985" stroke-linejoin="round"/>
<path d="M55.472 27.6872C54.5099 27.5222 53.5266 27.5222 52.5645 27.6872" stroke="#171819" stroke-width="0.603985" stroke-linecap="round" stroke-linejoin="round"/>
<path d="M53.4052 29.6191C54.0724 29.6191 54.6132 29.0782 54.6132 28.4111C54.6132 27.744 54.0724 27.2031 53.4052 27.2031C52.7381 27.2031 52.1973 27.744 52.1973 28.4111C52.1973 29.0782 52.7381 29.6191 53.4052 29.6191Z" fill="#171819"/>
<path d="M62.6462 27.6872C61.6841 27.5222 60.7008 27.5222 59.7386 27.6872" stroke="#171819" stroke-width="0.603985" stroke-linecap="round" stroke-linejoin="round"/>
<path d="M60.5721 29.6191C61.2392 29.6191 61.7801 29.0782 61.7801 28.4111C61.7801 27.744 61.2392 27.2031 60.5721 27.2031C59.905 27.2031 59.3641 27.744 59.3641 28.4111C59.3641 29.0782 59.905 29.6191 60.5721 29.6191Z" fill="#171819"/>
<path d="M58.5137 35.0428C58.5137 35.0428 59.9838 35.1841 61.0045 33.621M56.5797 31.687C56.6824 32.1424 57.1922 32.4891 57.8058 32.4891C58.4194 32.4891 58.9292 32.1436 59.0319 31.687" stroke="#171819" stroke-width="0.603985" stroke-linecap="round" stroke-linejoin="round"/>
<path d="M62.4576 12.1279C61.821 13.5654 61.4598 15.201 61.4598 16.9212C61.4598 21.8086 64.359 25.9266 68.3042 27.1684V21.4716C68.3042 17.3693 65.9148 13.8179 62.4576 12.1279Z" fill="#637593"/>
<path d="M62.4577 12.1279L62.1509 12.8902C64.893 14.7601 66.6928 17.9117 66.6928 21.4788V26.4762C67.2047 26.7636 67.7447 26.998 68.3043 27.1756V21.4788C68.3043 17.3693 65.9149 13.8167 62.4577 12.1279Z" fill="#586B87"/>
<path d="M62.4576 12.1279C61.821 13.5654 61.4598 15.201 61.4598 16.9212C61.4598 21.8086 64.359 25.9266 68.3042 27.1684V21.4716C68.3042 17.3693 65.9148 13.8179 62.4576 12.1279V12.1279Z" stroke="#171819" stroke-width="0.603985" stroke-linejoin="round"/>
<path d="M57.9073 11.0825C52.1634 11.0825 47.5115 15.7344 47.5115 21.4783V25.8475C48.1392 25.8883 48.7681 25.9093 49.3971 25.9103C57.6403 25.9103 64.6973 22.5546 67.629 17.8C66.883 15.8252 65.5531 14.1244 63.8163 12.9244C62.0795 11.7243 60.0183 11.0818 57.9073 11.0825Z" fill="#637593"/>
<path d="M57.9073 11.0825C56.0844 11.0825 54.3715 11.5536 52.8857 12.3787C53.9463 12.0332 55.0782 11.852 56.2572 11.852C60.9332 11.852 64.9244 14.791 66.4971 18.9162C66.1275 19.5214 65.6878 20.0952 65.201 20.6533C66.1831 19.7811 67.0081 18.822 67.6375 17.8012C66.1432 13.8717 62.355 11.0825 57.9073 11.0825Z" fill="#586B87"/>
<path d="M57.9073 11.0825C52.1634 11.0825 47.5115 15.7344 47.5115 21.4783V25.8475C48.1392 25.8883 48.7681 25.9093 49.3971 25.9103C57.6403 25.9103 64.6973 22.5546 67.629 17.8C66.883 15.8252 65.5531 14.1244 63.8163 12.9244C62.0795 11.7243 60.0183 11.0818 57.9073 11.0825V11.0825Z" stroke="#171819" stroke-width="0.603985" stroke-linejoin="round"/>
<path d="M55.1096 21.8639C58.0957 21.4084 61.6798 20.4264 64.0837 18.3281M49.7511 22.2709C49.7511 22.2709 50.883 22.3096 52.5645 22.155" stroke="#171819" stroke-width="0.603985" stroke-linecap="round" stroke-linejoin="round"/>
<path d="M61.6556 41.4931C60.4766 42.1297 59.259 42.2082 57.9073 42.8835C56.5556 42.2082 55.3379 42.1297 54.159 41.4931C54.0961 41.4617 52.556 41.4146 52.5475 41.4146C52.6574 41.4073 52.4134 42.4522 52.5946 43.5756C52.7444 44.6991 53.3255 45.8937 54.2133 46.1764C54.2689 46.1921 54.3232 46.2006 54.3788 46.2006C55.5022 46.3105 57.2779 43.6469 57.8988 43.0176C58.5197 43.6457 60.3039 46.3105 61.4188 46.2006L61.5843 46.1764C62.4807 45.8937 63.0617 44.6991 63.203 43.5756C63.3915 42.4522 63.1475 41.4146 63.2501 41.4146C63.2658 41.4146 61.7184 41.4617 61.6556 41.4931Z" fill="#F0BF62"/>
<path d="M54.1747 40.5581L57.9073 43.0103C57.9073 43.0103 55.9419 45.7838 54.9756 45.6038C53.7265 45.367 52.6816 41.0691 52.6816 41.0691L54.1747 40.5581Z" fill="white"/>
<path d="M54.1747 40.5581L57.9073 43.0103C57.9073 43.0103 55.9419 45.7838 54.9756 45.6038C53.7265 45.367 52.6816 41.0691 52.6816 41.0691L54.1747 40.5581Z" stroke="#171819" stroke-width="0.603985" stroke-linejoin="round"/>
<path d="M61.64 40.5581L57.9073 43.0175C57.9073 43.0175 59.8715 45.791 60.8391 45.611C62.0881 45.3755 63.1342 41.0763 63.1342 41.0763L61.64 40.5581Z" fill="white"/>
<path d="M61.64 40.5581L57.9073 43.0175C57.9073 43.0175 59.8715 45.791 60.8391 45.611C62.0881 45.3755 63.1342 41.0763 63.1342 41.0763L61.64 40.5581Z" stroke="#171819" stroke-width="0.603985" stroke-linejoin="round"/>
<path d="M57.9279 43.0176V48.0077" stroke="#171819" stroke-width="0.603985" stroke-linecap="round" stroke-linejoin="round"/>
<path d="M54.0889 55.0091C55.3078 55.0091 56.2959 54.021 56.2959 52.8022C56.2959 51.5833 55.3078 50.5952 54.0889 50.5952C52.87 50.5952 51.882 51.5833 51.882 52.8022C51.882 54.021 52.87 55.0091 54.0889 55.0091Z" fill="#09C690"/>
<path d="M61.6424 55.0091C62.8613 55.0091 63.8493 54.021 63.8493 52.8022C63.8493 51.5833 62.8613 50.5952 61.6424 50.5952C60.4235 50.5952 59.4354 51.5833 59.4354 52.8022C59.4354 54.021 60.4235 55.0091 61.6424 55.0091Z" fill="#FF4F7C"/>
<path d="M61.6424 55.0091C62.8613 55.0091 63.8493 54.021 63.8493 52.8022C63.8493 51.5833 62.8613 50.5952 61.6424 50.5952C60.4235 50.5952 59.4354 51.5833 59.4354 52.8022C59.4354 54.021 60.4235 55.0091 61.6424 55.0091Z" stroke="#171819" stroke-width="0.603985" stroke-linejoin="round"/>
<path d="M61.6424 52.2245C60.8379 52.2245 60.1988 52.4867 60.1988 52.8285V53.1522C60.2015 53.2126 60.2267 53.2697 60.2694 53.3124C60.3121 53.3551 60.3692 53.3803 60.4296 53.383H60.9067C61.0758 53.383 61.1882 53.2054 61.1109 53.0592C61.0613 52.959 61.1036 52.8285 61.1954 52.7705C61.4068 52.6437 61.861 52.6352 62.0845 52.7705C62.1884 52.8201 62.2234 52.959 62.169 53.0592C62.0917 53.2054 62.2041 53.383 62.3732 53.383H62.8503C62.9107 53.3803 62.9678 53.3551 63.0105 53.3124C63.0532 53.2697 63.0784 53.2126 63.0811 53.1522V52.8249C63.0774 52.4939 62.4469 52.2245 61.6424 52.2245ZM54.2387 52.0312H53.0839C52.9257 52.0312 52.7988 52.1617 52.7988 52.3163V53.2827C52.7988 53.4409 52.9293 53.5678 53.0839 53.5678H54.2387C54.397 53.5678 54.5238 53.4373 54.5238 53.2827V52.3163C54.5274 52.1545 54.397 52.0312 54.2387 52.0312ZM55.1677 52.1883C55.152 52.1919 55.1326 52.2004 55.1181 52.2076L54.6712 52.4661V53.1317L55.1218 53.3902C55.2063 53.4397 55.3066 53.4095 55.3561 53.3286C55.3718 53.302 55.3791 53.2743 55.3791 53.2441V52.3586C55.3791 52.2475 55.2788 52.1605 55.1677 52.1883Z" fill="white"/>
<path d="M54.0889 55.0091C55.3078 55.0091 56.2959 54.021 56.2959 52.8022C56.2959 51.5833 55.3078 50.5952 54.0889 50.5952C52.87 50.5952 51.882 51.5833 51.882 52.8022C51.882 54.021 52.87 55.0091 54.0889 55.0091Z" stroke="#171819" stroke-width="0.603985" stroke-linejoin="round"/>
<path d="M118.144 89.2631C118.188 90.6366 117.082 91.7588 115.726 91.7588H78.2122C77.4109 91.7586 76.6175 91.6006 75.8773 91.2937C75.1371 90.9869 74.4646 90.5372 73.8982 89.9704C73.3318 89.4035 72.8826 88.7307 72.5764 87.9902C72.2701 87.2498 72.1127 86.4562 72.1132 85.6549V79.6815C72.1132 76.3161 74.8444 73.5776 78.2122 73.5776H115.621C116.952 73.5776 118.101 74.6032 118.144 75.9259C118.188 77.2994 117.082 78.4216 115.726 78.4216H78.856C77.8124 78.4216 76.9595 79.2732 76.9595 80.3169V85.0207C76.9599 85.5235 77.1598 86.0056 77.5154 86.361C77.8711 86.7164 78.3533 86.916 78.856 86.916H115.63C116.943 86.9245 118.101 87.9416 118.144 89.2643V89.2631Z" fill="#3EDC81"/>
<g opacity="0.5">
<path d="M118.144 75.9342C118.154 76.341 118.065 76.7441 117.883 77.1084C117.457 76.3087 116.587 75.7603 115.621 75.7603H78.2137C77.4124 75.7604 76.6189 75.9185 75.8787 76.2253C75.1385 76.5322 74.466 76.9819 73.8996 77.5487C73.3333 78.1155 72.8841 78.7884 72.5778 79.5289C72.2715 80.2693 72.1141 81.0628 72.1146 81.8641V79.6898C72.1146 76.3244 74.8458 73.5859 78.2137 73.5859H115.622C116.945 73.5859 118.101 74.603 118.144 75.9342Z" fill="white"/>
</g>
<g opacity="0.3">
<path d="M117.85 88.2026C118.029 88.5286 118.13 88.8916 118.146 89.2632C118.181 90.6367 117.093 91.7589 115.727 91.7589H78.2138C77.4125 91.7587 76.6191 91.6007 75.8789 91.2938C75.1386 90.987 74.4661 90.5373 73.8998 89.9704C73.3334 89.4036 72.8842 88.7308 72.5779 87.9903C72.2717 87.2498 72.1143 86.4563 72.1147 85.655V83.3599C72.1143 84.1612 72.2717 84.9547 72.5779 85.6952C72.8842 86.4356 73.3334 87.1085 73.8998 87.6753C74.4661 88.2421 75.1386 88.6918 75.8789 88.9987C76.6191 89.3055 77.4125 89.4636 78.2138 89.4637H115.727C116.162 89.4664 116.59 89.3504 116.964 89.1282C117.338 88.906 117.644 88.586 117.85 88.2026Z" fill="#102770"/>
</g>
<path d="M115.718 92.6804H78.204C74.3325 92.6804 71.1918 89.5325 71.1918 85.6634V79.6899C71.1918 75.8208 74.341 72.6729 78.204 72.6729H115.612C117.449 72.6729 118.997 74.1248 119.049 75.9078C119.076 76.821 118.745 77.6811 118.109 78.3334C117.474 78.9857 116.621 79.342 115.716 79.342H78.8479C78.5879 79.3439 78.3391 79.448 78.1551 79.6317C77.9712 79.8154 77.8668 80.0641 77.8646 80.3241V85.028C77.8646 85.5752 78.3079 86.01 78.8479 86.01H115.622C117.458 86.01 119.007 87.462 119.059 89.2365C119.085 90.1498 118.754 91.0098 118.119 91.6621C117.475 92.3144 116.631 92.6804 115.718 92.6804ZM78.2125 74.4993C76.8372 74.5019 75.519 75.0497 74.5471 76.0228C73.5752 76.9959 73.0288 78.3146 73.0279 79.6899V85.6634C73.0288 87.0387 73.5752 88.3575 74.5471 89.3305C75.519 90.3036 76.8372 90.8514 78.2125 90.854H115.726C116.134 90.854 116.517 90.6885 116.805 90.3926C117.092 90.0966 117.24 89.7052 117.231 89.2969C117.205 88.4973 116.482 87.8365 115.621 87.8365H78.8479C78.1033 87.8352 77.3896 87.5389 76.8629 87.0126C76.3363 86.4862 76.0397 85.7725 76.0381 85.028V80.3253C76.0397 79.5808 76.3363 78.8671 76.8629 78.3407C77.3896 77.8144 78.1033 77.5181 78.8479 77.5168H115.718C116.126 77.5168 116.518 77.3513 116.805 77.0554C117.091 76.7594 117.24 76.368 117.231 75.9597C117.205 75.1516 116.482 74.4993 115.621 74.4993H78.2125Z" fill="#102770"/>
<path d="M114.682 86.9239H78.8477C77.804 86.9239 76.9512 86.0723 76.9512 85.0286V80.3235C76.9515 79.8207 77.1514 79.3387 77.5071 78.9833C77.8627 78.6279 78.3449 78.4282 78.8477 78.4282H114.682C112.342 81.2537 112.342 84.0888 114.682 86.9239Z" fill="white"/>
<path d="M114.682 87.836H78.8477C78.1031 87.8347 77.3894 87.5385 76.8628 87.0121C76.3361 86.4857 76.0396 85.7721 76.038 85.0275V80.3237C76.0396 79.5791 76.3361 78.8655 76.8628 78.3391C77.3894 77.8127 78.1031 77.5164 78.8477 77.5151H114.682C115.038 77.5151 115.361 77.7157 115.508 78.037C115.656 78.3583 115.612 78.7328 115.386 79.0106C113.324 81.5147 113.324 83.8449 115.386 86.349C115.612 86.6184 115.656 87.0013 115.508 87.3226C115.431 87.4761 115.314 87.6053 115.168 87.696C115.022 87.7866 114.854 87.835 114.682 87.836ZM78.8477 79.3319C78.5877 79.3338 78.3389 79.4379 78.1549 79.6216C77.971 79.8053 77.8666 80.054 77.8644 80.314V85.0178C77.8644 85.565 78.3077 85.9999 78.8477 85.9999H112.941C111.715 83.7917 111.715 81.5304 112.941 79.3223H78.8477V79.3319Z" fill="#102770"/>
<path d="M81.6923 87.7068C81.2574 87.7068 80.9095 87.3589 80.9095 86.9241V78.42C80.9095 77.9851 81.2574 77.6372 81.6923 77.6372C82.1272 77.6372 82.4751 77.9851 82.4751 78.42V86.9241C82.4751 87.3589 82.1272 87.7068 81.6923 87.7068Z" fill="#102770"/>
<path opacity="0.3" d="M113.89 79.5349L112.368 83.369H76.951V78.978H114.247L113.89 79.5349Z" fill="#102770"/>
<path d="M118.162 71.1171C118.206 72.4906 117.1 73.6128 115.744 73.6128H78.2303C77.429 73.6126 76.6355 73.4546 75.8953 73.1477C75.1551 72.8409 74.4826 72.3912 73.9162 71.8244C73.3499 71.2575 72.9007 70.5847 72.5944 69.8442C72.2881 69.1038 72.1308 68.3102 72.1312 67.5089V61.5355C72.1312 58.1701 74.8624 55.4316 78.2303 55.4316H115.639C116.97 55.4316 118.119 56.4572 118.162 57.7799C118.206 59.1534 117.1 60.2756 115.744 60.2756H78.8741C77.8304 60.2756 76.9776 61.1272 76.9776 62.1709V66.8747C76.9779 67.3775 77.1779 67.8596 77.5335 68.215C77.8891 68.5704 78.3713 68.77 78.8741 68.77H115.648C116.971 68.77 118.119 69.7859 118.162 71.1171Z" fill="#F7C714"/>
<g opacity="0.5">
<path d="M118.161 57.7785C118.17 58.1852 118.08 58.588 117.9 58.9526C117.474 58.1529 116.604 57.6045 115.637 57.6045H78.2303C77.429 57.6047 76.6355 57.7627 75.8953 58.0696C75.1551 58.3764 74.4826 58.8261 73.9162 59.3929C73.3499 59.9598 72.9007 60.6326 72.5944 61.3731C72.2881 62.1135 72.1308 62.9071 72.1312 63.7084V61.534C72.1312 58.1686 74.8624 55.4302 78.2303 55.4302H115.639C116.97 55.4302 118.117 56.4557 118.161 57.7785Z" fill="white"/>
</g>
<g opacity="0.3">
<path d="M117.866 70.0464C118.063 70.4139 118.161 70.8261 118.152 71.2429C118.142 71.6596 118.025 72.0668 117.811 72.4248C117.597 72.7828 117.295 73.0794 116.932 73.2858C116.57 73.4922 116.161 73.6013 115.744 73.6026H78.2304C77.4291 73.6025 76.6357 73.4444 75.8955 73.1376C75.1552 72.8307 74.4827 72.381 73.9164 71.8142C73.35 71.2474 72.9008 70.5745 72.5945 69.834C72.2883 69.0936 72.1309 68.3001 72.1313 67.4988V65.2036C72.1309 66.0049 72.2883 66.7985 72.5945 67.5389C72.9008 68.2794 73.35 68.9522 73.9164 69.5191C74.4827 70.0859 75.1552 70.5356 75.8955 70.8424C76.6357 71.1493 77.4291 71.3073 78.2304 71.3075H115.744C116.179 71.3115 116.607 71.196 116.981 70.9737C117.356 70.7513 117.662 70.4306 117.866 70.0464Z" fill="#102770"/>
</g>
<path d="M115.744 74.5242H78.2304C74.3589 74.5242 71.2181 71.3762 71.2181 67.5071V61.5337C71.2181 57.6646 74.3673 54.5166 78.2304 54.5166H115.639C117.475 54.5166 119.024 55.9686 119.075 57.7515C119.102 58.6648 118.771 59.5248 118.136 60.1771C117.5 60.8294 116.647 61.1858 115.743 61.1858H78.8743C78.6143 61.1877 78.3654 61.2917 78.1815 61.4755C77.9975 61.6592 77.8932 61.9079 77.891 62.1679V66.8717C77.891 67.4189 78.3343 67.8538 78.8743 67.8538H115.648C117.485 67.8538 119.033 69.3058 119.085 71.0803C119.112 71.9935 118.781 72.8536 118.145 73.5059C117.833 73.827 117.46 74.0824 117.047 74.2571C116.635 74.4317 116.192 74.5234 115.744 74.5242ZM78.2304 56.3431C76.8551 56.3456 75.5369 56.8935 74.565 57.8665C73.5931 58.8396 73.0468 60.1584 73.0458 61.5337V67.5071C73.0468 68.8824 73.5931 70.2012 74.565 71.1742C75.5369 72.1473 76.8551 72.6952 78.2304 72.6977H115.744C116.152 72.6977 116.535 72.5323 116.823 72.2363C117.11 71.9403 117.257 71.549 117.249 71.1407C117.222 70.341 116.5 69.6802 115.639 69.6802H78.8658C78.1212 69.679 77.4075 69.3827 76.8808 68.8563C76.3542 68.3299 76.0577 67.6163 76.0561 66.8717V62.1679C76.0577 61.4233 76.3542 60.7097 76.8808 60.1833C77.4075 59.6569 78.1212 59.3606 78.8658 59.3593H115.735C116.144 59.3593 116.536 59.1939 116.823 58.8979C117.109 58.602 117.257 58.2106 117.249 57.8023C117.222 56.9941 116.5 56.3418 115.639 56.3418L78.2304 56.3431Z" fill="#102770"/>
<path d="M114.699 68.7686H78.8648C77.8211 68.7686 76.9683 67.917 76.9683 66.8733V62.1683C76.9686 61.6655 77.1685 61.1834 77.5242 60.828C77.8798 60.4726 78.362 60.2729 78.8648 60.2729H114.699C112.368 63.0984 112.368 65.9335 114.699 68.7686Z" fill="white"/>
<path d="M114.699 69.6808H78.8648C78.1202 69.6795 77.4065 69.3832 76.8798 68.8568C76.3532 68.3304 76.0567 67.6168 76.0551 66.8722V62.1684C76.0567 61.4238 76.3532 60.7102 76.8798 60.1838C77.4065 59.6574 78.1202 59.3611 78.8648 59.3599H114.699C115.056 59.3599 115.378 59.5604 115.525 59.8817C115.673 60.203 115.629 60.5775 115.403 60.8553C113.341 63.3594 113.341 65.6896 115.403 68.1937C115.629 68.4631 115.673 68.846 115.525 69.1674C115.378 69.4802 115.056 69.6808 114.699 69.6808ZM78.8648 61.1766C78.6048 61.1785 78.356 61.2826 78.172 61.4663C77.9881 61.65 77.8837 61.8987 77.8815 62.1587V66.8626C77.8815 67.4098 78.3248 67.8446 78.8648 67.8446H112.959C111.732 65.6365 111.732 63.3752 112.959 61.167H78.8648V61.1766Z" fill="#102770"/>
<path d="M81.7094 69.5516C81.2745 69.5516 80.9266 69.2037 80.9266 68.7688V60.2647C80.9266 59.8298 81.2745 59.4819 81.7094 59.4819C82.1443 59.4819 82.4922 59.8298 82.4922 60.2647V68.7688C82.4922 69.2037 82.1443 69.5516 81.7094 69.5516Z" fill="#102770"/>
<g opacity="0.3">
<path d="M113.907 61.3782L112.627 65.2123H76.9681V60.8213H114.273L113.907 61.3782Z" fill="#102770"/>
</g>
</svg>
