<svg xmlns="http://www.w3.org/2000/svg" width="94" height="109" fill="none" viewBox="0 0 94 109"><path fill="#fff6e1" d="m46.786 1.216-39.4 11.3c-4.2 1.2-6.7 5.7-5.5 9.9l17.2 60.1c1.2 4.2 5.7 6.7 9.9 5.5l39.5-11.3c4.2-1.2 6.7-5.7 5.5-9.9l-17.3-60.1c-1.2-4.2-5.6-6.7-9.9-5.5m-10.7 14.9-11.9 3.4c-1.1.3-2.2-.3-2.5-1.4s.3-2.2 1.4-2.5l11.9-3.4c1.1-.3 2.2.3 2.5 1.4s-.3 2.2-1.4 2.5"/><path fill="#ffeab8" d="m64.586 63.316-39.5 11.2c-4.2 1.2-8.7-1.3-9.9-5.5l3.8 13.4c1.2 4.2 5.7 6.7 9.9 5.5l39.5-11.3c4.2-1.2 6.7-5.7 5.5-9.9l-3.8-13.4c1.2 4.3-1.3 8.8-5.5 10"/><path fill="#e2c5b3" d="M45.486 58.217c-.9 0-1.7-.6-2-1.5-.3-1.1.3-2.2 1.4-2.5l10.9-3.1c1.1-.3 2.2.3 2.5 1.4s-.3 2.2-1.4 2.5l-10.9 3.1c-.1 0-.3.1-.5.1m-19 5.6c-.9 0-1.7-.6-1.9-1.5-.3-1.1.3-2.2 1.4-2.5l14-4c1.1-.3 2.2.3 2.5 1.4s-.3 2.2-1.4 2.5l-14 4c-.2.1-.4.1-.6.1m23-.3c-.4 0-.8-.3-1-.7-.1-.5.2-1.1.7-1.2l9-2.6c.5-.1 1.1.2 1.2.7s-.2 1.1-.7 1.2l-9 2.6zm-22.1 6.4c-.4 0-.8-.3-1-.7-.2-.5.2-1.1.7-1.2l18.1-5.1c.5-.1 1.1.2 1.3.7s-.2 1.1-.7 1.2l-18.1 5.1zm11.3 2c-.4 0-.8-.3-1-.7-.2-.5.2-1.1.7-1.2l21.8-6.2c.5-.1 1.1.2 1.3.7s-.2 1.1-.7 1.2l-21.8 6.2zm-9.9 2.8c-.5 0-.9-.3-1-.7-.2-.5.2-1.1.7-1.2l5.6-1.5c.6-.1 1.2.2 1.3.7.2.5-.2 1.1-.7 1.2l-5.6 1.5z"/><path fill="#102770" d="M26.886 89.816c-4 0-7.6-2.7-8.7-6.6l-17.3-60.4c-.7-2.3-.4-4.8.8-6.9s3.1-3.7 5.4-4.3l39.6-11.3c.8-.2 1.6-.3 2.5-.3 4 0 7.6 2.7 8.7 6.6l17.2 60.4c.7 2.3.4 4.8-.8 6.9s-3.1 3.7-5.4 4.3l-39.6 11.3q-1.2.3-2.4.3m22.3-87.9a6.3 6.3 0 0 0-1.9.3l-39.6 11.4c-1.8.5-3.3 1.7-4.2 3.4-.9 1.6-1.1 3.5-.6 5.3l17.2 60.4c.9 3 3.6 5.1 6.8 5.1a6.3 6.3 0 0 0 1.9-.3l39.6-11.3c1.8-.5 3.3-1.7 4.2-3.4.9-1.6 1.1-3.5.6-5.3l-17.2-60.5c-.9-3-3.7-5.1-6.8-5.1m-25.7 18.8c-1.3 0-2.5-.9-2.9-2.2-.5-1.6.5-3.3 2.1-3.7l12-3.4c1.6-.4 3.3.5 3.7 2.1.5 1.6-.5 3.3-2.1 3.7l-12 3.4c-.2 0-.5.1-.8.1m12.2-7.5h-.3l-11.9 3.5c-.5.2-.8.7-.7 1.2s.7.8 1.2.7l11.9-3.4c.5-.2.8-.7.7-1.2s-.5-.8-.9-.8"/><path fill="#e2c5b3" d="M65.686 55.816c-.4 0-.8-.3-1-.7l-9.6-33c-.2-.5.2-1.1.7-1.2s1.1.2 1.2.7l9.6 33c.2.5-.2 1.1-.7 1.2zm-11.3-39c-.4 0-.8-.3-1-.8l-2.4-8.9c-.2-.6.2-1.1.7-1.3s1.1.2 1.2.7l2.4 8.9c.2.6-.2 1.1-.7 1.3 0 .1-.1.1-.2.1" opacity=".5"/><path fill="#20bf55" fill-rule="evenodd" d="M70.486 107.797c26.396-11.519 21.645-42.87 21.645-42.87-12.605-1.082-21.645-9.092-21.645-9.092s-9.04 8.01-21.645 9.092c0 0-4.75 31.351 21.645 42.87" clip-rule="evenodd"/><path fill="#138a3b" fill-rule="evenodd" d="M92.133 64.78a34 34 0 0 1-4.895-.795c.223 9.848-1.337 32.61-19.308 42.497.86.461 1.752.902 2.69 1.314 26.235-11.56 21.512-43.018 21.512-43.018" clip-rule="evenodd"/><path fill="#fff6e1" fill-rule="evenodd" d="M69.975 100.665c19.643-8.583 16.108-31.942 16.108-31.942-9.38-.807-16.108-6.775-16.108-6.775s-6.728 5.968-16.108 6.775c0 0-3.535 23.36 16.108 31.942" clip-rule="evenodd"/><path fill="#ffeab8" fill-rule="evenodd" d="M87.1 69.006a27 27 0 0 1-5.062-.945c.32 5.667.165 23.954-14.108 32.248q1.29.737 2.741 1.376c20.034-8.782 16.43-32.68 16.43-32.68" clip-rule="evenodd"/><path fill="#08345d" fill-rule="evenodd" d="M90.593 81.914c-2.748 11.99-9.51 20.465-20.107 25.192-10.596-4.727-17.359-13.201-20.107-25.192-1.745-7.612-1.232-14.329-1.01-16.365 10.91-1.143 18.995-7.13 21.117-8.85 2.122 1.718 10.207 7.707 21.117 8.85.221 2.036.734 8.753-1.01 16.364m2.542-17.24a.82.82 0 0 0-.735-.693c-12.29-1.053-21.287-8.88-21.377-8.96a.81.81 0 0 0-1.074 0c-.089.078-9.086 7.907-21.377 8.961a.815.815 0 0 0-.735.693c-.05.327-1.198 8.16.944 17.552 1.987 8.716 7.308 20.391 21.381 26.523a.82.82 0 0 0 .648 0c14.073-6.132 19.394-17.807 21.38-26.522 2.142-9.394.995-17.226.945-17.553M70.486 100.5C53.507 92.853 54.52 73.566 54.884 69.84c7.92-.88 13.833-5.133 15.602-6.54 1.77 1.407 7.684 5.66 15.602 6.54.37 3.724 1.4 23.004-15.602 30.66M86.89 68.275c-9.117-.782-15.8-6.592-15.866-6.65a.81.81 0 0 0-1.074 0c-.066.059-6.749 5.868-15.866 6.65a.816.816 0 0 0-.735.691c-.037.244-3.446 24.35 16.814 33.179a.82.82 0 0 0 .648 0c20.26-8.83 16.851-32.935 16.814-33.178a.816.816 0 0 0-.735-.692" clip-rule="evenodd"/><path fill="#20bf55" d="M70.951 69.52c-4.189 0-7.585 3.31-7.585 7.427s3.395 7.454 7.585 7.454 7.585-3.337 7.585-7.454c-.027-4.117-3.423-7.427-7.585-7.427m0 12.998c-3.149 0-5.668-2.503-5.668-5.57s2.546-5.57 5.668-5.57 5.668 2.503 5.668 5.57c-.027 3.068-2.546 5.57-5.668 5.57"/><path fill="#08345d" d="M65.366 76.947c0-.592.082-1.184.246-1.722h-2.026a7 7 0 0 0-.192 1.722c0 1.238.301 2.395.85 3.391h2.217c-.712-.942-1.095-2.126-1.095-3.39m11.226 0a5.95 5.95 0 0 1-1.068 3.391h2.163a7.16 7.16 0 0 0 .85-3.39c0-.593-.083-1.158-.193-1.723h-1.97c.136.565.218 1.13.218 1.722" opacity=".126"/><path fill="#08345d" stroke="#08345d" stroke-width=".3" d="M70.897 68.993c2.192 0 4.181.885 5.622 2.316a7.84 7.84 0 0 1 2.332 5.584 7.9 7.9 0 0 1-2.335 5.601 7.94 7.94 0 0 1-11.237 0 7.9 7.9 0 0 1-2.335-5.6c0-2.18.892-4.155 2.332-5.585a7.96 7.96 0 0 1 5.621-2.316Zm0 .838a7.1 7.1 0 0 0-5.024 2.071 7 7 0 0 0-2.082 4.991c0 1.95.797 3.713 2.082 4.991a7.1 7.1 0 0 0 5.024 2.071 7.1 7.1 0 0 0 5.024-2.07 7 7 0 0 0 2.082-4.992 7.02 7.02 0 0 0-2.082-4.99 7.1 7.1 0 0 0-5.024-2.072Zm0 1.046a6.07 6.07 0 0 1 4.27 1.735 5.87 5.87 0 0 1 1.766 4.201 5.87 5.87 0 0 1-1.766 4.201 6.07 6.07 0 0 1-4.27 1.735 6.07 6.07 0 0 1-4.27-1.735 5.87 5.87 0 0 1-1.766-4.2 5.87 5.87 0 0 1 1.766-4.202 6.07 6.07 0 0 1 4.27-1.735Zm0 .838a5.22 5.22 0 0 0-3.673 1.491 5.04 5.04 0 0 0-1.516 3.607c0 1.412.578 2.685 1.516 3.607a5.22 5.22 0 0 0 3.673 1.491 5.22 5.22 0 0 0 3.673-1.49 5.04 5.04 0 0 0 1.516-3.608 5.04 5.04 0 0 0-1.516-3.607 5.22 5.22 0 0 0-3.673-1.49Z"/><path fill="#20bf55" d="M80.18 79.234c0-1.076-.905-1.99-2.027-1.99h-14.32c-1.095 0-2.026.887-2.026 1.99v5.301c0 3.202 2.683 7.508 9.227 7.508s9.145-3.498 9.145-7.508z"/><path fill="#fff" d="M72.676 82.813c0-.915-.712-1.561-1.643-1.561-.958 0-1.643.673-1.643 1.561 0 .619.301 1.184 1.095 1.453v1.292c0 .377.22.78.657.78s.685-.404.685-.78v-1.292c.52-.269.85-.807.85-1.453"/><path fill="#08345d" stroke="#08345d" stroke-width=".2" d="M71.034 80.884c.576 0 1.08.207 1.44.55a1.88 1.88 0 0 1 .577 1.38c0 .63-.276 1.194-.723 1.55l-.126.092v1.103c0 .306-.11.602-.312.833a1 1 0 0 1-.746.343.95.95 0 0 1-.732-.326 1.23 1.23 0 0 1-.29-.674l-.009-.15v-1.064a1.84 1.84 0 0 1-.799-.652c-.194-.291-.296-.644-.296-1.055 0-.568.21-1.05.567-1.39.357-.341.86-.54 1.45-.54Zm0 .71c-.37 0-.69.125-.917.343a1.2 1.2 0 0 0-.352.876c0 .592.226.866 1.067 1.38l.694 1.092.24-1.407.116-.067a.8.8 0 0 0 .308-.337c.087-.18.113-.396.113-.661 0-.35-.133-.655-.359-.872a1.3 1.3 0 0 0-.91-.346Z"/><path fill="#08345d" d="M66.653 72.103a.25.25 0 0 1-.219-.108c-.11-.108-.082-.269.027-.377a7 7 0 0 1 2-1.13c.136-.054.3.027.355.161s-.027.296-.164.35a6.2 6.2 0 0 0-1.835 1.05.3.3 0 0 1-.164.054m10.404 2.691q-.165 0-.246-.161c-.958-2.503-3.23-4.117-5.777-4.117-.137 0-.274-.135-.274-.269 0-.161.11-.269.274-.269 2.765 0 5.23 1.749 6.298 4.44.055.135 0 .296-.137.35-.055.027-.082.027-.137.027z" opacity=".126"/><path fill="#138a3b" d="M71.061 89.595c-6.435 0-9.063-4.306-9.063-7.48v2.421c0 3.175 2.63 7.481 9.063 7.481 6.462 0 9.008-3.498 9.008-7.48v-2.423c0 4.01-2.546 7.481-9.008 7.481"/><path fill="#fff" d="M78.7 80.903c0-.108-.11-.215-.274-.242l-1.314-.215c-.137-.027-.3-.161-.329-.323l-.219-1.292c-.027-.135-.137-.269-.246-.269s-.219.108-.246.269l-.219 1.292a.44.44 0 0 1-.329.323l-1.314.215c-.137.027-.274.135-.274.242s.11.215.274.242l1.287.161c.137.027.301.161.33.296l.245 1.346c.027.135.137.269.246.269.11 0 .22-.108.246-.269l.246-1.372c.027-.135.164-.269.33-.296l1.286-.161c.137 0 .274-.109.274-.216"/><path fill="#08345d" stroke="#08345d" stroke-width=".2" d="M78.153 76.847c.645 0 1.22.261 1.631.691.385.408.616.938.652 1.497l.007.2v5.3c0 1.442-.34 4.03-2.515 5.84-1.4 1.164-3.562 2.01-6.895 2.01-2.958 0-5.174-.849-6.71-2.128a7.43 7.43 0 0 1-2.694-5.454l-.005-.269v-5.3c0-.676.238-1.273.632-1.7a2.1 2.1 0 0 1 1.39-.68l.187-.008zm0 .738h-14.32l-.16.008a1.33 1.33 0 0 0-.87.445c-.285.318-.43.761-.43 1.196v5.301l.002.185a7 7 0 0 0 2.53 5.038c1.338 1.102 3.307 1.89 6.13 1.89 2.75 0 4.92-.65 6.401-1.869 1.474-1.213 2.26-2.99 2.26-5.244v-5.3l-.008-.17a1.7 1.7 0 0 0-.442-1.006 1.5 1.5 0 0 0-1.093-.474Z"/><path fill="#fff" d="M74.045 78.831h-8.762a.27.27 0 0 1-.274-.269c0-.161.11-.269.274-.269h8.762c.137 0 .274.108.274.269s-.11.269-.274.269m4.655 5.651c-.164 0-.274-.108-.274-.269v-1.346c0-.161.11-.269.274-.269s.274.108.274.269v1.346c0 .161-.11.269-.274.269"/><path stroke="#102770" stroke-width="1.1" d="m20.396 26.12 23.152.034a3.44 3.44 0 0 1 3.445 3.445l.026 17.458a3.44 3.44 0 0 1-3.444 3.455l-23.15-.034a3.44 3.44 0 0 1-3.446-3.445l-.026-17.458a3.44 3.44 0 0 1 3.443-3.455Z" clip-rule="evenodd"/><mask id="a" width="32" height="27" x="16" y="25" maskUnits="userSpaceOnUse" style="mask-type:luminance"><path fill="#fff" stroke="#102770" d="m20.408 26.07 23.14.035a3.5 3.5 0 0 1 3.495 3.494l.026 17.458a3.5 3.5 0 0 1-3.495 3.505l-23.15-.034a3.5 3.5 0 0 1-3.495-3.495l-.026-17.458a3.5 3.5 0 0 1 3.322-3.5l.173-.005z"/></mask><g mask="url(#a)"><path fill="#102770" stroke="#102770" d="M30.072 32.252c1.342-.36 2.331-.158 3.047.478.51.453.685.853.726 1.163.042.316-.045.61-.182.866l-.188.327-.097.167.042.188.29 1.354.071.328.33.059a.87.87 0 0 1 .713.735l.224 1.633a.88.88 0 0 1-.373.838l-.244.168.03.294a5.3 5.3 0 0 1-.65 3.076l-.138.245.137.245.454.815.146.262.3-.005 2.272-.043v.002l.885-.017a4.24 4.24 0 0 1 4.187 3.137.057.057 0 0 1-.041.067l-18.27 4.896a.055.055 0 0 1-.067-.037 4.24 4.24 0 0 1 1.899-4.72l.158-.093 2.764-1.528.262-.145-.004-.3-.016-1.009-.004-.272-.232-.144a5.3 5.3 0 0 1-2.008-2.27l-.134-.288-.317-.002-.13-.01a.88.88 0 0 1-.678-.532h-.001l-.622-1.526a.87.87 0 0 1 .28-1.018l.3-.23-.14-.351c-.192-.485-.445-1.147-.527-1.452-.191-.712-.255-1.396.044-2.003.295-.598 1.009-1.25 2.672-1.74l.137-.04.095-.107c.892-.998 2.045-1.313 2.598-1.461Zm4.488-1.199c.48-.12.804-.145 1.072-.113s.519.123.85.3l.175.094.37-.099c.328-.088.619-.074.888.024.275.1.56.3.847.636.585.683 1.126 1.86 1.588 3.585 1.082 4.035 2.825 4.973 3.032 5.064q.015.006.024.018l.01.024c.004.023-.003.04-.009.046l-.007.007c-.01.01-.85.856-2.71 1.725l-.486.228.262.47.247.441.147.26.298-.004 3.158-.058a4.24 4.24 0 0 1 4.186 3.137.057.057 0 0 1-.04.067l-4.298 1.152a.055.055 0 0 1-.068-.037 6.35 6.35 0 0 0-6.263-4.699l-1.443.027a.06.06 0 0 1-.044-.021l-.01-.021v-.022a7.5 7.5 0 0 0 .24-1.383l.02-.468q0-.015.01-.03h.001c.447-.623.64-1.383.535-2.14l-.224-1.634a2.96 2.96 0 0 0-1.26-2.04l-.002-.001a.05.05 0 0 1-.017-.062v-.001c.709-1.548.25-3.156-1.112-4.367h-.001a.1.1 0 0 1-.018-.03q-.003-.011-.002-.02a.1.1 0 0 1 .02-.033.1.1 0 0 1 .034-.022Z"/></g></svg>