<svg xmlns="http://www.w3.org/2000/svg" width="123" height="80" fill="none" viewBox="0 0 123 80"><g clip-path="url(#a)"><path fill="#61811a" d="M105.86.42h-90a7.5 7.5 0 0 0-7.5 7.5v58.12a7.5 7.5 0 0 0 7.5 7.5h90a7.5 7.5 0 0 0 7.5-7.5V7.92a7.5 7.5 0 0 0-7.5-7.5"/><path fill="#64c1f4" d="M112.64 70.17c0 2.37-1.86 4.31-4.14 4.31H13.39c-2.27 0-4.14-1.94-4.14-4.31V6.58c0-2.37 1.86-4.31 4.14-4.31h95.12c2.27 0 4.14 1.94 4.14 4.31v63.6z"/><path fill="#fff" d="M31.51 45.05c-.28 0-.47-.09-.66-.28-.38-.38-.38-.94 0-1.31l25.97-25.97c.38-.38.94-.38 1.31 0s.38.94 0 1.31L32.16 44.77c-.19.19-.38.28-.66.28zm23.72 6.56c-.28 0-.47-.09-.66-.28-.38-.38-.38-.94 0-1.31l25.97-25.87c.38-.38.94-.38 1.31 0s.38.94 0 1.31L55.88 51.33c-.19.19-.38.28-.66.28zm17.44-4.03c-.28 0-.47-.09-.66-.28-.38-.38-.38-.94 0-1.31l13.87-13.87c.38-.38.94-.38 1.31 0s.38.94 0 1.31L73.31 47.31c-.19.19-.47.28-.66.28zm-40.5 12.93c-.28 0-.47-.09-.66-.28-.38-.38-.38-.94 0-1.31l29.34-29.44c.38-.38.94-.38 1.31 0s.38.94 0 1.31L32.82 60.23c-.19.19-.47.28-.66.28zm35.9-35.9c-.28 0-.47-.09-.66-.28-.38-.38-.38-.94 0-1.31l9.47-9.47c.38-.38.94-.38 1.31 0s.38.94 0 1.31l-9.47 9.47c-.19.19-.47.28-.66.28z" opacity=".46"/><path fill="#233e49" d="M63.57 6.05H60.1c-.56 0-1.03-.38-1.03-.94s.47-.94 1.03-.94h3.47c.56 0 1.03.38 1.03.94s-.47.94-1.03.94"/><path fill="#102770" d="M105.85 2.3v-.42h-90v.85h90zm6.56 6.56h.42c0-3.89-3.1-6.99-6.99-6.99v.85c3.42 0 6.14 2.72 6.14 6.14zm0 58.12h.42V8.86h-.85v58.12zm-6.56 6.57v.42c3.89 0 6.99-3.1 6.99-6.98h-.85c0 3.42-2.72 6.14-6.14 6.14zm-90 0v.42h90v-.85h-90zm-6.56-6.57h-.42c0 3.89 3.1 6.98 6.98 6.98v-.85c-3.42 0-6.14-2.72-6.14-6.14h-.42zm0-58.12h-.42v58.12h.85V8.86zm6.56-6.56v-.42c-3.89 0-6.98 3.1-6.98 6.99h.85c0-3.42 2.72-6.14 6.14-6.14v-.42zm98.44 64.68h-.42c0 4.45-3.56 8.01-8.01 8.01v.85c4.92 0 8.86-3.94 8.86-8.86zm0-58.12h-.42v58.12h.85V8.86zM105.85.42v.42c4.45 0 8.01 3.56 8.01 8.01h.85c0-4.92-3.94-8.86-8.86-8.86zm-90 0v.42h90v-.85h-90zM7.42 8.86h.42c0-4.45 3.56-8.01 8.01-8.01V0c-4.92 0-8.86 3.94-8.86 8.86zm0 58.12h.42V8.86h-.85v58.12zm8.43 8.44V75c-4.45 0-8.01-3.56-8.01-8.01h-.85c0 4.92 3.94 8.86 8.86 8.86zm90 0V75h-90v.85h90z"/><path fill="#102770" d="M15.85 2.3a6.52 6.52 0 0 0-6.56 6.56v58.12a6.52 6.52 0 0 0 6.56 6.56h90a6.52 6.52 0 0 0 6.56-6.56V8.86a6.52 6.52 0 0 0-6.56-6.56zm90 73.12h-90c-4.69 0-8.44-3.75-8.44-8.44V8.86A8.416 8.416 0 0 1 15.85.42h90c4.69 0 8.44 3.75 8.44 8.44v58.12c0 4.69-3.75 8.44-8.44 8.44"/><path fill="#eaeaea" d="M2.73 69.52v4.12c0 3.28 2.53 4.59 5.81 4.59h106.31c3.28 0 5.06-1.31 5.06-4.59v-4.12z"/><path fill="#fff" d="M2.73 69.52v3.65c0 3.28 3.19 5.06 6.47 5.06h106.31c3.28 0 5.44-1.78 5.44-5.06v-3.65z"/><path fill="#d4d6d6" d="M49.6 70.33v1.54c0 .48 1.88.86 2.81.86H70.6c.94 0 2.53-.38 2.53-.86v-1.54zm70.31 6.78c0-1.12.84-1.69-.47-1.69H5.07c-1.31 0-2.34.62-2.34 1.41s1.03 1.41 2.34 1.41h112.5c1.31 0 2.34-1.12 2.34-1.12z"/><path fill="#102770" d="M61.79 68.59v.42h59.06v-.85H61.79zm-59.06 0v.42h59.06v-.85H2.73zm59.11 1.87v-.42H3.67v.85h58.17zm58.17 0v-.42H61.84v.85h58.17zm0 2.71h.42v-2.71h-.85v2.71zm-4.5 4.13v.42c.88 0 2.1-.14 3.11-.79 1.04-.67 1.81-1.84 1.81-3.76h-.85c0 1.65-.64 2.54-1.42 3.04-.82.52-1.84.66-2.65.66zM9.2 77.3v.42h106.31v-.85H9.2zm-5.53-4.13h-.42c0 1.52.77 2.68 1.9 3.43 1.12.75 2.59 1.12 4.06 1.12v-.85c-1.34 0-2.64-.34-3.58-.97-.93-.63-1.52-1.53-1.52-2.73zm0-2.71h-.42v2.71h.85v-2.71zm118.12 2.71h-.42c0 1.73-.57 3.11-1.58 4.06s-2.49 1.51-4.37 1.51v.85c2.05 0 3.76-.61 4.96-1.75 1.2-1.13 1.84-2.75 1.84-4.68h-.42zm0-3.65h-.42v3.65h.85v-3.65zm-.94-.93v.42c.19 0 .31.06.38.13s.13.2.13.38h.85c0-.38-.13-.73-.38-.98-.25-.26-.6-.38-.98-.38zm-119.06.93h.42c0-.19.06-.31.13-.38s.2-.13.38-.13v-.85c-.38 0-.73.13-.98.38-.26.25-.38.6-.38.98zm0 3.65h.42v-3.65h-.85v3.65zm7.41 6v-.42c-1.76 0-3.52-.5-4.83-1.44-1.3-.94-2.16-2.32-2.16-4.13h-.85c0 2.12 1.02 3.74 2.51 4.82 1.48 1.07 3.42 1.6 5.32 1.6v-.42zm106.21 0v-.42H9.2v.85h106.22v-.42zm4.6-8.71h.42v-.42h-.42zm-116.34 0v-.42h-.42v.42z"/><path fill="#102770" d="M3.67 70.46v2.71c0 2.72 2.72 4.12 5.53 4.12h106.31c1.69 0 4.5-.56 4.5-4.12v-2.71zm111.74 8.71H9.2c-3.66 0-7.41-2.06-7.41-6v-3.65c0-.56.38-.94.94-.94h118.12c.56 0 .94.38.94.94v3.65c0 3.66-2.44 6-6.38 6"/><path fill="#22a7f0" d="M115.23 73.27h-8.44c-.56 0-.94-.38-.94-.94s.38-.94.94-.94h8.44c.56 0 .94.38.94.94s-.38.94-.94.94m-15.94 0H78.67c-.56 0-.94-.38-.94-.94s.38-.94.94-.94h20.62c.56 0 .94.38.94.94s-.38.94-.94.94" opacity=".5"/><path fill="#3c87ea" d="M43.98 73.27H9.29c-.56 0-.94-.38-.94-.94s.38-.94.94-.94h34.69c.56 0 .94.38.94.94s-.38.94-.94.94" opacity=".5"/><path fill="#4dd0e1" d="M83.95 53.92H39.2c-1.08 0-1.97-.88-1.97-1.97V18.49c0-1.09.88-1.97 1.97-1.97h44.75c1.08 0 1.97.88 1.97 1.97v33.45c0 1.09-.88 1.97-1.96 1.97z"/><path fill="#6d4c41" d="M62.24 41.95c5.816 0 10.53-4.723 10.53-10.55s-4.714-10.55-10.53-10.55-10.53 4.723-10.53 10.55 4.714 10.55 10.53 10.55" opacity=".25"/><path fill="#fff" d="M61.57 40.87c5.816 0 10.53-4.723 10.53-10.55s-4.714-10.55-10.53-10.55-10.53 4.723-10.53 10.55 4.714 10.55 10.53 10.55"/><path fill="#ff5722" d="M61.57 39.47c5.042 0 9.13-4.097 9.13-9.15s-4.088-9.15-9.13-9.15-9.13 4.097-9.13 9.15 4.088 9.15 9.13 9.15"/><path fill="#fff" d="M53.71 31c0-4.79 3.89-8.69 8.66-8.69 1.92 0 3.68.63 5.12 1.69a8.6 8.6 0 0 0-5.92-2.35c-4.77 0-8.66 3.9-8.66 8.68 0 2.87 1.4 5.42 3.54 7A8.66 8.66 0 0 1 53.71 31" opacity=".32"/><path fill="#f5f5f5" d="m58.49 30.31.05-3.33c.01-.59.65-.95 1.16-.65l2.85 1.71 2.85 1.71c.51.3.49 1.04-.02 1.33l-2.9 1.62-2.9 1.62a.764.764 0 0 1-1.14-.68l.03-3.33z"/><path fill="#6d4c41" d="M79.44 49.49H43.43a.47.47 0 1 1 0-.94h36.01a.47.47 0 1 1 0 .94M59.56 32.18l.05-3.33c.01-.59.65-.95 1.16-.65l2.85 1.71 1.85 1.11c.43-.32.41-.99-.07-1.28l-2.85-1.71-2.85-1.71a.76.76 0 0 0-.38-.11.75.75 0 0 0-.66.38c-.07.12-.11.25-.11.38l-.05 3.33-.05 3.33c0 .13.03.26.09.37a.77.77 0 0 0 .62.4c.13.01.26-.01.38-.07l.03-2.16z"/><path fill="#29b6f6" d="M48.79 51.33c1.27 0 2.31-1.04 2.31-2.31a2.32 2.32 0 0 0-2.31-2.32c-1.28 0-2.31 1.04-2.31 2.32s1.03 2.31 2.31 2.31"/><path fill="#fff" d="M47.29 49.42c0-.51.2-.99.56-1.35s.84-.56 1.35-.56c.42 0 .81.14 1.13.38-.35-.47-.9-.77-1.53-.77-.51 0-.99.2-1.35.56s-.56.84-.56 1.35c0 .63.31 1.18.77 1.53a1.95 1.95 0 0 1-.38-1.14z"/><path fill="#102770" d="M38.97 53.66V19.72c0-.96.77-1.73 1.72-1.73h45.15c-.22-.85-.98-1.47-1.9-1.47H39.19c-1.08 0-1.97.88-1.97 1.97v33.45c0 1.02.77 1.85 1.76 1.96-.01-.09-.02-.17-.02-.25z"/><path fill="#fff" d="M37.24 44.51V52s-.13 1.74 1.6 2.01h45.43s1.55 0 1.55-3.21v-6.45z"/><path fill="#fff" d="M86.04 52.48q0 .315-.12.6a1.57 1.57 0 0 1-1.45.97H39.72q-.315 0-.6-.12c-.19-.08-.36-.19-.51-.34a1.8 1.8 0 0 1-.34-.51 1.5 1.5 0 0 1-.12-.6V19.02q0-.315.12-.6c.08-.19.19-.36.34-.51.15-.14.32-.26.51-.34q.285-.12.6-.12h44.75q.315 0 .6.12c.19.08.36.19.51.34.14.15.26.32.34.51q.12.285.12.6zm-1.56-35.83H39.73c-1.3 0-2.37 1.07-2.37 2.37v33.45c0 1.31 1.06 2.37 2.37 2.37h44.75c1.3 0 2.36-1.07 2.36-2.37V19.02a2.37 2.37 0 0 0-2.36-2.37" opacity=".7"/><path fill="#102770" d="M39.2 16.92q-.315 0-.6.12c-.19.08-.36.19-.51.34-.14.15-.26.32-.34.51q-.12.285-.12.6v33.45a1.57 1.57 0 0 0 .97 1.45q.285.12.6.12h44.75q.315 0 .6-.12c.19-.08.36-.19.51-.34.14-.15.26-.32.34-.51q.12-.285.12-.6V18.49q0-.315-.12-.6a1.57 1.57 0 0 0-1.45-.97zm44.74 37.39H39.19c-1.3 0-2.37-1.07-2.37-2.37V18.49c0-1.31 1.06-2.37 2.37-2.37h44.75c1.3 0 2.36 1.07 2.36 2.37v33.45c0 .63-.25 1.23-.69 1.68-.44.44-1.04.69-1.67.69"/><path fill="#102770" d="M85.54 44.83H37.6c-.22 0-.4-.18-.4-.4s.18-.4.4-.4h47.94c.22 0 .4.18.4.4s-.18.4-.4.4M61.57 21.65c-4.77 0-8.66 3.9-8.66 8.69s3.89 8.69 8.66 8.69 8.66-3.9 8.66-8.69a8.673 8.673 0 0 0-8.66-8.68zm0 18.3c-5.29 0-9.59-4.31-9.59-9.62s4.3-9.62 9.59-9.62 9.59 4.31 9.59 9.62-4.3 9.62-9.59 9.62"/><path fill="#6d4c41" d="M66.95 22.93a9.13 9.13 0 0 1 1.75 5.39c0 5.05-4.09 9.15-9.13 9.15-2.01 0-3.87-.65-5.37-1.76a9.1 9.1 0 0 0 7.38 3.76c5.04 0 9.13-4.1 9.13-9.15 0-3.03-1.48-5.72-3.76-7.39" opacity=".2"/><path fill="#fff" d="M66.01 29.81 60.3 26.4c-.17-.11-.38-.16-.58-.17-.21 0-.41.05-.58.15-.18.1-.33.24-.44.42-.1.18-.16.38-.16.58l-.1 6.66c0 .42.2.8.57 1.02a1.16 1.16 0 0 0 1.17.02l5.8-3.25c.18-.1.33-.24.43-.42.11-.18.16-.38.16-.58 0-.42-.21-.8-.57-1.02z" opacity=".5"/><path fill="#102770" d="M59.31 26.63c-.08 0-.15.03-.18.05-.06.03-.18.13-.19.31l-.1 6.66c0 .19.12.29.18.32s.2.1.36 0l5.8-3.25c.16-.09.19-.25.19-.31a.38.38 0 0 0-.18-.32l-5.7-3.41a.3.3 0 0 0-.18-.05m-.1 8.2c-.2 0-.41-.06-.6-.16-.36-.22-.57-.6-.57-1.02l.05-3.33.05-3.33c0-.21.06-.41.16-.58.1-.18.25-.32.43-.42s.38-.15.58-.15.4.06.58.17l5.71 3.41c.36.22.57.6.57 1.02a1.15 1.15 0 0 1-.59 1l-5.8 3.25c-.18.1-.38.15-.57.15z"/><path fill="#6d4c41" d="M82.22 44.44s.22 10.37-43.78 9.17l.6.34h45.23l1.14-.52.48-1.49-.13-7.63z" opacity=".2"/><path fill="#102770" d="M79.73 49.51H43.72a.47.47 0 1 1 0-.94h36.01a.47.47 0 1 1 0 .94"/><path fill="#29b6f6" d="M49.09 51.36c1.27 0 2.31-1.04 2.31-2.31a2.32 2.32 0 0 0-2.31-2.32c-1.28 0-2.31 1.04-2.31 2.32s1.03 2.31 2.31 2.31"/><path fill="#102770" d="M49.09 47.13c-.51 0-.99.2-1.35.56s-.56.84-.56 1.35.2.99.56 1.35.84.56 1.35.56.99-.2 1.35-.56.56-.84.56-1.35c0-1.05-.86-1.91-1.9-1.91zm0 4.63c-.72 0-1.41-.29-1.91-.8-.51-.51-.79-1.2-.79-1.91 0-.72.29-1.41.79-1.92.51-.51 1.2-.8 1.91-.8 1.49 0 2.7 1.22 2.7 2.71s-1.22 2.71-2.7 2.71z"/><path fill="#6d4c41" d="M50.34 47.1c.08.23.12.48.12.74 0 1.28-1.03 2.32-2.31 2.32-.44 0-.88-.13-1.25-.37.31.92 1.17 1.57 2.18 1.57 1.27 0 2.31-1.04 2.31-2.31 0-.81-.42-1.53-1.05-1.94z" opacity=".16"/><path fill="#37dbd0" d="m15.63 64.06-7-1.54c-.55-.12-.9-.67-.78-1.22l4.93-22.23c.12-.55.67-.9 1.22-.78l7 1.54c.55.12.9.67.78 1.22l-4.93 22.23c-.12.56-.67.91-1.22.78"/><path fill="#102770" d="M13.79 39.18s-.04 0-.06.02c-.03.02-.04.04-.05.07L8.75 61.5s0 .06.01.08.04.04.07.05l7 1.54s.06 0 .08-.01c.03-.02.04-.04.05-.07l4.93-22.23s0-.06-.01-.08a.12.12 0 0 0-.07-.05l-6.99-1.54h-.02zM15.86 65c-.14 0-.28-.02-.42-.05l-6.99-1.54c-.25-.05-.48-.16-.69-.3-.21-.15-.39-.33-.52-.55-.14-.21-.23-.45-.28-.7s-.04-.51.02-.76l4.93-22.23c.11-.5.41-.94.85-1.21a1.92 1.92 0 0 1 1.47-.26l7 1.54q.375.075.69.3c.21.15.39.33.52.55.14.21.23.45.28.7.04.25.04.51-.02.76l-4.93 22.23c-.11.5-.41.94-.85 1.21-.31.2-.67.31-1.04.31z"/><path fill="#102770" d="M14.31 42.06h-.12l-1.97-.43a.54.54 0 0 1-.35-.23c-.04-.06-.06-.13-.08-.2-.01-.07 0-.14 0-.21a.54.54 0 0 1 .23-.35c.06-.04.13-.06.2-.08.07-.01.14 0 .21 0l1.98.43c.07.01.14.04.19.08q.09.06.15.15c.04.06.06.13.08.2.01.07 0 .14 0 .21-.06.25-.28.42-.53.42zM11.9 52.9s-.08 0-.12-.01l-1.98-.43a.54.54 0 0 1-.35-.23.5.5 0 0 1-.07-.2c-.01-.07 0-.14 0-.21.02-.07.04-.14.08-.2q.06-.09.15-.15c.06-.04.13-.06.2-.08.07-.01.14 0 .21 0l1.97.43c.07.02.14.04.2.08q.09.06.15.15c.04.06.06.13.08.2.01.07 0 .14 0 .21-.03.12-.09.23-.19.3a.48.48 0 0 1-.34.11zm3.13-2.14h-.12l-4.5-.99a.54.54 0 0 1-.35-.23c-.04-.06-.06-.13-.08-.2-.01-.07 0-.14 0-.21a.54.54 0 0 1 .23-.35c.06-.04.13-.06.2-.08.07-.01.14 0 .21 0l4.5.99a.54.54 0 0 1 .43.43c.01.07 0 .14 0 .21-.06.25-.28.42-.53.42zm-1.94-3.23s-.08 0-.12-.01l-1.98-.43a.7.7 0 0 1-.2-.08.5.5 0 0 1-.15-.15c-.04-.06-.06-.13-.08-.2-.01-.07 0-.14 0-.21a.54.54 0 0 1 .23-.35.5.5 0 0 1 .2-.07c.07-.01.14 0 .21 0l1.97.43c.07.02.14.04.2.08q.09.06.15.15c.04.06.06.13.08.2.01.07 0 .14 0 .21-.03.12-.1.23-.19.3-.1.08-.21.12-.34.12zm.61-2.69h-.12l-1.97-.43a.54.54 0 0 1-.35-.23.7.7 0 0 1-.08-.2c-.01-.07 0-.14 0-.21a.54.54 0 0 1 .23-.35c.06-.04.13-.06.2-.08.07-.01.14 0 .21 0l1.98.43c.07.01.14.04.19.08q.09.06.15.15c.04.06.06.13.08.2.01.07 0 .14 0 .21-.06.24-.28.42-.53.42zm-2.39 10.75h-.12l-1.97-.43a.54.54 0 0 1-.35-.23c-.04-.06-.06-.13-.08-.2-.01-.07 0-.14 0-.21a.54.54 0 0 1 .23-.35c.06-.04.13-.06.2-.08.07-.01.14 0 .21 0l1.98.43c.07.01.14.04.19.08q.09.06.15.15c.04.06.06.13.08.2.01.07 0 .14 0 .21-.06.25-.28.42-.53.42z"/><path fill="#f7c414" d="m.89 48.53 1.92-5.91 4.16 4.62c.15.16.26.36.32.57.01.03.02.07.03.11L10.96 65l.41 1.95a3.26 3.26 0 0 1-2.52 3.86l-.1.02c-.42.09-.85.1-1.27.02s-.82-.24-1.18-.47-.67-.53-.91-.89c-.24-.35-.41-.75-.5-1.17l-.47-2.2L.85 49.29s-.01-.07-.02-.11c-.03-.21 0-.44.06-.65"/><path fill="#f8bf71" d="m.89 48.53 1.92-5.91 4.16 4.62c.15.16.26.36.32.57.15 1.57-5.96 2.87-6.46 1.37-.03-.21-.01-.44.06-.65"/><path fill="#102770" d="m2.87 42.89-1.85 5.68c-.06.19-.08.39-.05.59.19.56 1.59.72 3.33.35 1.72-.37 2.93-1.08 2.88-1.69-.06-.18-.15-.35-.28-.49l-4.02-4.44zm-.29 7.09c-.94 0-1.7-.21-1.88-.75-.04-.25-.02-.5.06-.74l2-6.13 4.32 4.79c.16.18.28.39.35.62.09.92-1.48 1.66-3.08 2-.58.14-1.17.21-1.76.21z"/><path fill="#fbdf71" d="M3.9 63.61c.34 1.63 6.82.26 6.47-1.37l.45 2.11c.35 1.63-6.13 3-6.48 1.37z"/><path fill="#102770" d="M4.48 65.71c.17.6 1.58.77 3.33.4s2.98-1.11 2.88-1.73v-.02l-.33-1.53c-.06.1-.15.19-.26.3-1.1.99-4.18 1.64-5.59 1.18-.13-.04-.25-.1-.36-.17l.34 1.57zm1.63.87c-.99 0-1.77-.24-1.89-.84v-.03l-.44-2.03v-.08l.15-.57.13.59c.06.2.25.35.56.45 1.31.43 4.3-.21 5.32-1.13.24-.22.35-.43.33-.64l-.13-.6.38.47v.03s.02.03.02.05l.44 2.06c.2.94-1.4 1.71-3.09 2.07-.62.13-1.23.2-1.77.2z"/><path fill="#e76e5f" d="M4.43 66.12c2.5.59 4.63.09 6.53-1.12l.41 1.95a3.26 3.26 0 0 1-2.52 3.86l-.1.02c-.42.09-.85.1-1.27.02s-.82-.24-1.18-.47-.67-.54-.91-.89-.41-.75-.5-1.17l-.47-2.2z"/><path fill="#102770" d="m4.61 66.3.42 2a3.12 3.12 0 0 0 3.69 2.41l.1-.02c1.68-.36 2.77-2.01 2.4-3.7l-.37-1.76c-1.97 1.2-4.02 1.56-6.25 1.07zm3.47 4.74c-.66 0-1.3-.19-1.85-.55a3.36 3.36 0 0 1-1.47-2.14l-.51-2.41.21.05c2.3.55 4.4.19 6.42-1.1l.16-.11.45 2.15c.09.44.1.88.02 1.32s-.25.85-.49 1.23c-.24.37-.56.7-.92.95-.37.25-.78.43-1.22.52l-.1.02c-.23.04-.46.07-.7.07"/><path fill="#102770" d="m2.23 44.41.58-1.79 4.16 4.62c.15.16.26.36.32.57.01.03.02.07.03.11L10.96 65l.41 1.95a3.26 3.26 0 0 1-2.52 3.86l-.1.02c-.27.06-.53.08-.79.07a3.26 3.26 0 0 0 1.6-3.51l-.41-1.95-3.64-17.08-.03-.11c-.06-.21-.17-.41-.32-.57l-2.94-3.27z" opacity=".3"/><path fill="#102770" d="m3.15 44.22-1.49 4.57c-.04.11-.04.23-.02.34l4.05 19.03c.07.31.2.61.38.88a2.45 2.45 0 0 0 2.53 1l.1-.02a2.44 2.44 0 0 0 1.88-2.89L6.53 48.1a.66.66 0 0 0-.15-.3zm4.93 27.5c-.78 0-1.54-.22-2.22-.66-.91-.59-1.54-1.5-1.76-2.57L.05 49.46c-.08-.39-.06-.8.06-1.18l1.92-5.91c.09-.28.32-.48.6-.54.14-.03.28-.02.42.02s.26.12.35.23l4.16 4.62c.27.3.45.66.54 1.05l4.05 19.03c.46 2.19-.94 4.35-3.14 4.82l-.1.02c-.27.07-.56.1-.84.1z"/><path fill="#102770" d="M6.12 67.12c-1.22 0-2.24-.34-2.44-1.27q-.03-.15 0-.3a.66.66 0 0 1 .31-.42c.08-.05.16-.08.25-.09s.18 0 .26.02c.26.07.45.27.5.52.15.16 1.17.33 2.7 0 1.5-.32 2.38-.88 2.45-1.12-.04-.24.04-.49.24-.66a.68.68 0 0 1 .95.1.6.6 0 0 1 .13.28c.29 1.39-1.61 2.31-3.51 2.71-.61.14-1.23.21-1.85.22zm-4.22-21 .92-2.82 1.98 2.2c-.93.36-1.91.57-2.91.62z"/><path fill="#102770" d="M2.6 50.53c-.5 0-.97-.06-1.34-.18-.82-.27-1.05-.8-1.11-1.09a.9.9 0 0 1 0-.32.679.679 0 0 1 1.32.04c.15.16 1.17.33 2.7.01 1.5-.32 2.38-.88 2.45-1.12a.74.74 0 0 1 .03-.36c.04-.11.11-.21.2-.29.07-.06.15-.1.23-.13.09-.03.17-.04.26-.03.09 0 .17.03.25.08.08.04.15.1.2.17.07.08.12.18.14.29.06.29.07.87-.57 1.45-.96.87-3.11 1.48-4.78 1.48zm3.08 14.49c-.5 0-.97-.06-1.34-.18-.82-.27-1.05-.8-1.11-1.09a.679.679 0 1 1 1.33-.28c.15.16 1.17.33 2.7.01 1.5-.32 2.38-.88 2.46-1.12-.04-.24.04-.49.24-.66a.68.68 0 0 1 .95.1.6.6 0 0 1 .13.28c.06.29.07.87-.57 1.45-.96.88-3.11 1.49-4.78 1.49z"/><path fill="#4a83ff" d="M14.75 78.62H5.69c-.71 0-1.4-.27-1.92-.77-.52-.49-.82-1.17-.85-1.88L1.68 59.45h17.09l-1.25 16.52c-.03.71-.33 1.39-.85 1.88s-1.2.77-1.92.77"/><path fill="#102770" d="m2.7 60.4 1.17 15.5v.03c.02.47.22.91.56 1.24.34.32.79.5 1.26.5h9.06c.47 0 .92-.18 1.26-.5.34-.33.54-.77.56-1.24v-.03l1.17-15.5zm12.05 19.17H5.69a3.71 3.71 0 0 1-3.72-3.54L.73 59.52c-.02-.26.07-.52.25-.72.18-.19.43-.3.7-.3h17.09a.94.94 0 0 1 .95 1.02l-1.24 16.51c-.05.95-.47 1.85-1.16 2.51s-1.61 1.02-2.57 1.03"/><path fill="#102770" d="m16.03 59.45-.64 8.53c-1.2 5.35-4.35 8.37-9.63 8.84H3.09c-.16 0-.32-.01-.48-.04.19.54.55 1.01 1.01 1.34.47.33 1.03.51 1.6.51h9.06c1.48 0 2.71-1.16 2.77-2.64l1.25-16.52h-2.27z" opacity=".3"/></g><defs><clipPath id="a"><path fill="#fff" d="M0 0h122.21v79.59H0z"/></clipPath></defs></svg>