<svg width="123" height="80" viewBox="0 0 123 80" fill="none" xmlns="http://www.w3.org/2000/svg">
<g clip-path="url(#clip0_1_374)">
<path d="M105.86 0.42H15.86C11.7179 0.42 8.36 3.77786 8.36 7.92V66.04C8.36 70.1821 11.7179 73.54 15.86 73.54H105.86C110.002 73.54 113.36 70.1821 113.36 66.04V7.92C113.36 3.77786 110.002 0.42 105.86 0.42Z" fill="#61811A"/>
<path d="M112.64 70.17C112.64 72.54 110.78 74.48 108.5 74.48H13.39C11.12 74.48 9.25 72.54 9.25 70.17V6.58C9.25 4.21 11.11 2.27 13.39 2.27H108.51C110.78 2.27 112.65 4.21 112.65 6.58V70.18L112.64 70.17Z" fill="#64C1F4"/>
<path opacity="0.46" d="M31.51 45.05C31.23 45.05 31.04 44.96 30.85 44.77C30.47 44.39 30.47 43.83 30.85 43.46L56.82 17.49C57.2 17.11 57.76 17.11 58.13 17.49C58.5 17.87 58.51 18.43 58.13 18.8L32.16 44.77C31.97 44.96 31.78 45.05 31.5 45.05H31.51Z" fill="white"/>
<path opacity="0.46" d="M55.23 51.61C54.95 51.61 54.76 51.52 54.57 51.33C54.19 50.95 54.19 50.39 54.57 50.02L80.54 24.15C80.92 23.77 81.48 23.77 81.85 24.15C82.22 24.53 82.23 25.09 81.85 25.46L55.88 51.33C55.69 51.52 55.5 51.61 55.22 51.61H55.23Z" fill="white"/>
<path opacity="0.46" d="M72.67 47.58C72.39 47.58 72.2 47.49 72.01 47.3C71.63 46.92 71.63 46.36 72.01 45.99L85.88 32.12C86.26 31.74 86.82 31.74 87.19 32.12C87.56 32.5 87.57 33.06 87.19 33.43L73.31 47.31C73.12 47.5 72.84 47.59 72.65 47.59L72.67 47.58Z" fill="white"/>
<path opacity="0.46" d="M32.17 60.51C31.89 60.51 31.7 60.42 31.51 60.23C31.13 59.85 31.13 59.29 31.51 58.92L60.85 29.48C61.23 29.1 61.79 29.1 62.16 29.48C62.53 29.86 62.54 30.42 62.16 30.79L32.82 60.23C32.63 60.42 32.35 60.51 32.16 60.51H32.17Z" fill="white"/>
<path opacity="0.46" d="M68.07 24.61C67.79 24.61 67.6 24.52 67.41 24.33C67.03 23.95 67.03 23.39 67.41 23.02L76.88 13.55C77.26 13.17 77.82 13.17 78.19 13.55C78.56 13.93 78.57 14.49 78.19 14.86L68.72 24.33C68.53 24.52 68.25 24.61 68.06 24.61H68.07Z" fill="white"/>
<path d="M63.57 6.05H60.1C59.54 6.05 59.07 5.67 59.07 5.11C59.07 4.55 59.54 4.17 60.1 4.17H63.57C64.13 4.17 64.6 4.55 64.6 5.11C64.6 5.67 64.13 6.05 63.57 6.05Z" fill="#233E49"/>
<path d="M105.85 2.3V1.88H15.85V2.73H105.85V2.31V2.3ZM112.41 8.86H112.83C112.83 4.97 109.73 1.87 105.84 1.87V2.72C109.26 2.72 111.98 5.44 111.98 8.86H112.4H112.41ZM112.41 66.98H112.83V8.86H111.98V66.98H112.4H112.41ZM105.85 73.55V73.97C109.74 73.97 112.84 70.87 112.84 66.99H111.99C111.99 70.41 109.27 73.13 105.85 73.13V73.55ZM15.85 73.55V73.97H105.85V73.12H15.85V73.54V73.55ZM9.29 66.98H8.87C8.87 70.87 11.97 73.96 15.85 73.96V73.11C12.43 73.11 9.71 70.39 9.71 66.97H9.29V66.98ZM9.29 8.86H8.87V66.98H9.72V8.86H9.3H9.29ZM15.85 2.3V1.88C11.96 1.88 8.87 4.98 8.87 8.87H9.72C9.72 5.45 12.44 2.73 15.86 2.73V2.31L15.85 2.3ZM114.29 66.98H113.87C113.87 71.43 110.31 74.99 105.86 74.99V75.84C110.78 75.84 114.72 71.9 114.72 66.98H114.3H114.29ZM114.29 8.86H113.87V66.98H114.72V8.86H114.3H114.29ZM105.85 0.42V0.84C110.3 0.84 113.86 4.4 113.86 8.85H114.71C114.71 3.93 110.77 -0.01 105.85 -0.01V0.41V0.42ZM15.85 0.42V0.84H105.85V-0.01H15.85V0.41V0.42ZM7.42 8.86H7.84C7.84 4.41 11.4 0.85 15.85 0.85V0C10.93 0 6.99 3.94 6.99 8.86H7.41H7.42ZM7.42 66.98H7.84V8.86H6.99V66.98H7.41H7.42ZM15.85 75.42V75C11.4 75 7.84 71.44 7.84 66.99H6.99C6.99 71.91 10.93 75.85 15.85 75.85V75.43V75.42ZM105.85 75.42V75H15.85V75.85H105.85V75.43V75.42Z" fill="#102770"/>
<path d="M15.85 2.3C12.19 2.3 9.29 5.21 9.29 8.86V66.98C9.29 70.64 12.2 73.54 15.85 73.54H105.85C109.51 73.54 112.41 70.63 112.41 66.98V8.86C112.41 5.2 109.5 2.3 105.85 2.3H15.85ZM105.85 75.42H15.85C11.16 75.42 7.41 71.67 7.41 66.98V8.86C7.42 4.17 11.17 0.42 15.85 0.42H105.85C110.54 0.42 114.29 4.17 114.29 8.86V66.98C114.29 71.67 110.54 75.42 105.85 75.42Z" fill="#102770"/>
<path d="M2.73 69.52V73.64C2.73 76.92 5.26 78.23 8.54 78.23H114.85C118.13 78.23 119.91 76.92 119.91 73.64V69.52H2.73Z" fill="#EAEAEA"/>
<path d="M2.73 69.52V73.17C2.73 76.45 5.92 78.23 9.2 78.23H115.51C118.79 78.23 120.95 76.45 120.95 73.17V69.52H2.73Z" fill="white"/>
<path d="M49.6 70.33V71.87C49.6 72.35 51.48 72.73 52.41 72.73H70.6C71.54 72.73 73.13 72.35 73.13 71.87V70.33H49.6Z" fill="#D4D6D6"/>
<path d="M119.91 77.11C119.91 75.99 120.75 75.42 119.44 75.42H5.07C3.76 75.42 2.73 76.04 2.73 76.83C2.73 77.62 3.76 78.24 5.07 78.24H117.57C118.88 78.24 119.91 77.12 119.91 77.12V77.11Z" fill="#D4D6D6"/>
<path d="M61.79 68.59V69.01H120.85V68.16H61.79V68.58V68.59ZM2.73 68.59V69.01H61.79V68.16H2.73V68.58V68.59ZM61.84 70.46V70.04H3.67V70.89H61.84V70.47V70.46ZM120.01 70.46V70.04H61.84V70.89H120.01V70.47V70.46ZM120.01 73.17H120.43V70.46H119.58V73.17H120H120.01ZM115.51 77.3V77.72C116.39 77.72 117.61 77.58 118.62 76.93C119.66 76.26 120.43 75.09 120.43 73.17H119.58C119.58 74.82 118.94 75.71 118.16 76.21C117.34 76.73 116.32 76.87 115.51 76.87V77.29V77.3ZM9.2 77.3V77.72H115.51V76.87H9.2V77.29V77.3ZM3.67 73.17H3.25C3.25 74.69 4.02 75.85 5.15 76.6C6.27 77.35 7.74 77.72 9.21 77.72V76.87C7.87 76.87 6.57 76.53 5.63 75.9C4.7 75.27 4.11 74.37 4.11 73.17H3.69H3.67ZM3.67 70.46H3.25V73.17H4.1V70.46H3.68H3.67ZM121.79 73.17H121.37C121.37 74.9 120.8 76.28 119.79 77.23C118.78 78.18 117.3 78.74 115.42 78.74V79.59C117.47 79.59 119.18 78.98 120.38 77.84C121.58 76.71 122.22 75.09 122.22 73.16H121.8L121.79 73.17ZM121.79 69.52H121.37V73.17H122.22V69.52H121.8H121.79ZM120.85 68.59V69.01C121.04 69.01 121.16 69.07 121.23 69.14C121.3 69.21 121.36 69.34 121.36 69.52H122.21C122.21 69.14 122.08 68.79 121.83 68.54C121.58 68.28 121.23 68.16 120.85 68.16V68.58V68.59ZM1.79 69.52H2.21C2.21 69.33 2.27 69.21 2.34 69.14C2.41 69.07 2.54 69.01 2.72 69.01V68.16C2.34 68.16 1.99 68.29 1.74 68.54C1.48 68.79 1.36 69.14 1.36 69.52H1.78H1.79ZM1.79 73.17H2.21V69.52H1.36V73.17H1.78H1.79ZM9.2 79.17V78.75C7.44 78.75 5.68 78.25 4.37 77.31C3.07 76.37 2.21 74.99 2.21 73.18H1.36C1.36 75.3 2.38 76.92 3.87 78C5.35 79.07 7.29 79.6 9.19 79.6V79.18L9.2 79.17ZM115.41 79.17V78.75H9.2V79.6H115.42V79.18L115.41 79.17ZM120.01 70.46H120.43V70.04H120.01V70.46ZM3.67 70.46V70.04H3.25V70.46H3.67Z" fill="#102770"/>
<path d="M3.67 70.46V73.17C3.67 75.89 6.39 77.29 9.2 77.29H115.51C117.2 77.29 120.01 76.73 120.01 73.17V70.46H3.67ZM115.41 79.17H9.2C5.54 79.17 1.79 77.11 1.79 73.17V69.52C1.79 68.96 2.17 68.58 2.73 68.58H120.85C121.41 68.58 121.79 68.96 121.79 69.52V73.17C121.79 76.83 119.35 79.17 115.41 79.17Z" fill="#102770"/>
<path opacity="0.5" d="M115.23 73.27H106.79C106.23 73.27 105.85 72.89 105.85 72.33C105.85 71.77 106.23 71.39 106.79 71.39H115.23C115.79 71.39 116.17 71.77 116.17 72.33C116.17 72.89 115.79 73.27 115.23 73.27Z" fill="#22A7F0"/>
<path opacity="0.5" d="M99.29 73.27H78.67C78.11 73.27 77.73 72.89 77.73 72.33C77.73 71.77 78.11 71.39 78.67 71.39H99.29C99.85 71.39 100.23 71.77 100.23 72.33C100.23 72.89 99.85 73.27 99.29 73.27Z" fill="#22A7F0"/>
<path opacity="0.5" d="M43.98 73.27H9.29C8.73 73.27 8.35 72.89 8.35 72.33C8.35 71.77 8.73 71.39 9.29 71.39H43.98C44.54 71.39 44.92 71.77 44.92 72.33C44.92 72.89 44.54 73.27 43.98 73.27Z" fill="#3C87EA"/>
<path d="M83.95 53.92H39.2C38.12 53.92 37.23 53.04 37.23 51.95V18.49C37.23 17.4 38.11 16.52 39.2 16.52H83.95C85.03 16.52 85.92 17.4 85.92 18.49V51.94C85.92 53.03 85.04 53.91 83.96 53.91L83.95 53.92Z" fill="#4DD0E1"/>
<path opacity="0.25" d="M62.24 41.95C68.0556 41.95 72.77 37.2266 72.77 31.4C72.77 25.5734 68.0556 20.85 62.24 20.85C56.4244 20.85 51.71 25.5734 51.71 31.4C51.71 37.2266 56.4244 41.95 62.24 41.95Z" fill="#6D4C41"/>
<path d="M61.57 40.87C67.3856 40.87 72.1 36.1466 72.1 30.32C72.1 24.4934 67.3856 19.77 61.57 19.77C55.7544 19.77 51.04 24.4934 51.04 30.32C51.04 36.1466 55.7544 40.87 61.57 40.87Z" fill="white"/>
<path d="M61.57 39.47C66.6124 39.47 70.7 35.3734 70.7 30.32C70.7 25.2666 66.6124 21.17 61.57 21.17C56.5276 21.17 52.44 25.2666 52.44 30.32C52.44 35.3734 56.5276 39.47 61.57 39.47Z" fill="#FF5722"/>
<path opacity="0.32" d="M53.71 31C53.71 26.21 57.6 22.31 62.37 22.31C64.29 22.31 66.05 22.94 67.49 24C65.94 22.54 63.86 21.65 61.57 21.65C56.8 21.65 52.91 25.55 52.91 30.33C52.91 33.2 54.31 35.75 56.45 37.33C54.76 35.74 53.71 33.49 53.71 31Z" fill="white"/>
<path d="M58.49 30.31L58.54 26.98C58.55 26.39 59.19 26.03 59.7 26.33L62.55 28.04L65.4 29.75C65.91 30.05 65.89 30.79 65.38 31.08L62.48 32.7L59.58 34.32C59.06 34.61 58.43 34.23 58.44 33.64L58.47 30.31H58.49Z" fill="#F5F5F5"/>
<path d="M79.44 49.49H43.43C43.17 49.49 42.96 49.28 42.96 49.02C42.96 48.76 43.17 48.55 43.43 48.55H79.44C79.7 48.55 79.91 48.76 79.91 49.02C79.91 49.28 79.7 49.49 79.44 49.49ZM59.56 32.18L59.61 28.85C59.62 28.26 60.26 27.9 60.77 28.2L63.62 29.91L65.47 31.02C65.9 30.7 65.88 30.03 65.4 29.74L62.55 28.03L59.7 26.32C59.58 26.25 59.45 26.21 59.32 26.21C59.19 26.21 59.05 26.24 58.94 26.31C58.82 26.38 58.73 26.47 58.66 26.59C58.59 26.71 58.55 26.84 58.55 26.97L58.5 30.3L58.45 33.63C58.45 33.76 58.48 33.89 58.54 34C58.6 34.11 58.69 34.21 58.8 34.28C58.91 34.35 59.03 34.39 59.16 34.4C59.29 34.41 59.42 34.39 59.54 34.33L59.57 32.17L59.56 32.18Z" fill="#6D4C41"/>
<path d="M48.79 51.33C50.06 51.33 51.1 50.29 51.1 49.02C51.1 47.75 50.07 46.7 48.79 46.7C47.51 46.7 46.48 47.74 46.48 49.02C46.48 50.3 47.51 51.33 48.79 51.33Z" fill="#29B6F6"/>
<path d="M47.29 49.42C47.29 48.91 47.49 48.43 47.85 48.07C48.21 47.71 48.69 47.51 49.2 47.51C49.62 47.51 50.01 47.65 50.33 47.89C49.98 47.42 49.43 47.12 48.8 47.12C48.29 47.12 47.81 47.32 47.45 47.68C47.09 48.04 46.89 48.52 46.89 49.03C46.89 49.66 47.2 50.21 47.66 50.56C47.43 50.24 47.28 49.85 47.28 49.42H47.29Z" fill="white"/>
<path d="M38.97 53.66V19.72C38.97 18.76 39.74 17.99 40.69 17.99H85.84C85.62 17.14 84.86 16.52 83.94 16.52H39.19C38.11 16.52 37.22 17.4 37.22 18.49V51.94C37.22 52.96 37.99 53.79 38.98 53.9C38.97 53.81 38.96 53.73 38.96 53.65L38.97 53.66Z" fill="#102770"/>
<path d="M37.24 44.51V52C37.24 52 37.11 53.74 38.84 54.01H84.27C84.27 54.01 85.82 54.01 85.82 50.8V44.35C85.82 44.35 37.37 44.51 37.24 44.51Z" fill="white"/>
<path opacity="0.7" d="M86.04 52.48C86.04 52.69 86 52.89 85.92 53.08C85.84 53.27 85.73 53.44 85.58 53.59C85.43 53.74 85.26 53.85 85.07 53.93C84.88 54.01 84.68 54.05 84.47 54.05H39.72C39.51 54.05 39.31 54.01 39.12 53.93C38.93 53.85 38.76 53.74 38.61 53.59C38.47 53.44 38.35 53.27 38.27 53.08C38.19 52.89 38.15 52.69 38.15 52.48V19.02C38.15 18.81 38.19 18.61 38.27 18.42C38.35 18.23 38.46 18.06 38.61 17.91C38.76 17.77 38.93 17.65 39.12 17.57C39.31 17.49 39.51 17.45 39.72 17.45H84.47C84.68 17.45 84.88 17.49 85.07 17.57C85.26 17.65 85.43 17.76 85.58 17.91C85.72 18.06 85.84 18.23 85.92 18.42C86 18.61 86.04 18.81 86.04 19.02V52.47V52.48ZM84.48 16.65H39.73C38.43 16.65 37.36 17.72 37.36 19.02V52.47C37.36 53.78 38.42 54.84 39.73 54.84H84.48C85.78 54.84 86.84 53.77 86.84 52.47V19.02C86.84 18.39 86.59 17.79 86.15 17.35C85.71 16.91 85.11 16.65 84.48 16.65Z" fill="white"/>
<path d="M39.2 16.92C38.99 16.92 38.79 16.96 38.6 17.04C38.41 17.12 38.24 17.23 38.09 17.38C37.95 17.53 37.83 17.7 37.75 17.89C37.67 18.08 37.63 18.28 37.63 18.49V51.94C37.63 52.14 37.67 52.35 37.75 52.54C37.83 52.73 37.94 52.9 38.09 53.05C38.24 53.19 38.41 53.31 38.6 53.39C38.79 53.47 38.99 53.51 39.2 53.51H83.95C84.16 53.51 84.36 53.47 84.55 53.39C84.74 53.31 84.91 53.2 85.06 53.05C85.2 52.9 85.32 52.73 85.4 52.54C85.48 52.35 85.52 52.15 85.52 51.94V18.49C85.52 18.28 85.48 18.08 85.4 17.89C85.32 17.7 85.21 17.53 85.06 17.38C84.91 17.23 84.74 17.12 84.55 17.04C84.36 16.96 84.16 16.92 83.95 16.92H39.2ZM83.94 54.31H39.19C37.89 54.31 36.82 53.24 36.82 51.94V18.49C36.82 17.18 37.88 16.12 39.19 16.12H83.94C85.24 16.12 86.3 17.19 86.3 18.49V51.94C86.3 52.57 86.05 53.17 85.61 53.62C85.17 54.06 84.57 54.31 83.94 54.31Z" fill="#102770"/>
<path d="M85.54 44.83H37.6C37.38 44.83 37.2 44.65 37.2 44.43C37.2 44.21 37.38 44.03 37.6 44.03H85.54C85.76 44.03 85.94 44.21 85.94 44.43C85.94 44.65 85.76 44.83 85.54 44.83Z" fill="#102770"/>
<path d="M61.57 21.65C56.8 21.65 52.91 25.55 52.91 30.34C52.91 35.13 56.8 39.03 61.57 39.03C66.34 39.03 70.23 35.13 70.23 30.34C70.23 28.04 69.32 25.83 67.7 24.21C66.08 22.58 63.87 21.66 61.57 21.66V21.65ZM61.57 39.95C56.28 39.95 51.98 35.64 51.98 30.33C51.98 25.02 56.28 20.71 61.57 20.71C66.86 20.71 71.16 25.02 71.16 30.33C71.16 35.64 66.86 39.95 61.57 39.95Z" fill="#102770"/>
<path opacity="0.2" d="M66.95 22.93C68.09 24.49 68.7 26.38 68.7 28.32C68.7 33.37 64.61 37.47 59.57 37.47C57.56 37.47 55.7 36.82 54.2 35.71C55.86 37.99 58.54 39.47 61.58 39.47C66.62 39.47 70.71 35.37 70.71 30.32C70.71 27.29 69.23 24.6 66.95 22.93Z" fill="#6D4C41"/>
<path opacity="0.5" d="M66.01 29.81L60.3 26.4C60.13 26.29 59.92 26.24 59.72 26.23C59.51 26.23 59.31 26.28 59.14 26.38C58.96 26.48 58.81 26.62 58.7 26.8C58.6 26.98 58.54 27.18 58.54 27.38L58.44 34.04C58.44 34.46 58.64 34.84 59.01 35.06C59.19 35.17 59.4 35.23 59.61 35.23C59.81 35.23 60 35.18 60.18 35.08L65.98 31.83C66.16 31.73 66.31 31.59 66.41 31.41C66.52 31.23 66.57 31.03 66.57 30.83C66.57 30.41 66.36 30.03 66 29.81H66.01Z" fill="white"/>
<path d="M59.31 26.63C59.23 26.63 59.16 26.66 59.13 26.68C59.07 26.71 58.95 26.81 58.94 26.99L58.84 33.65C58.84 33.84 58.96 33.94 59.02 33.97C59.08 34 59.22 34.07 59.38 33.97L65.18 30.72C65.34 30.63 65.37 30.47 65.37 30.41C65.37 30.35 65.35 30.19 65.19 30.09L59.49 26.68C59.43 26.64 59.37 26.63 59.31 26.63ZM59.21 34.83C59.01 34.83 58.8 34.77 58.61 34.67C58.25 34.45 58.04 34.07 58.04 33.65L58.09 30.32L58.14 26.99C58.14 26.78 58.2 26.58 58.3 26.41C58.4 26.23 58.55 26.09 58.73 25.99C58.91 25.89 59.11 25.84 59.31 25.84C59.51 25.84 59.71 25.9 59.89 26.01L65.6 29.42C65.96 29.64 66.17 30.02 66.17 30.44C66.17 30.65 66.11 30.85 66.01 31.02C65.9 31.2 65.75 31.34 65.58 31.44L59.78 34.69C59.6 34.79 59.4 34.84 59.21 34.84V34.83Z" fill="#102770"/>
<path opacity="0.2" d="M82.22 44.44C82.22 44.44 82.44 54.81 38.44 53.61L39.04 53.95H84.27L85.41 53.43L85.89 51.94L85.76 44.31L82.22 44.44Z" fill="#6D4C41"/>
<path d="M79.73 49.51H43.72C43.46 49.51 43.25 49.3 43.25 49.04C43.25 48.78 43.46 48.57 43.72 48.57H79.73C79.99 48.57 80.2 48.78 80.2 49.04C80.2 49.3 79.99 49.51 79.73 49.51Z" fill="#102770"/>
<path d="M49.09 51.36C50.36 51.36 51.4 50.32 51.4 49.05C51.4 47.78 50.37 46.73 49.09 46.73C47.81 46.73 46.78 47.77 46.78 49.05C46.78 50.33 47.81 51.36 49.09 51.36Z" fill="#29B6F6"/>
<path d="M49.09 47.13C48.58 47.13 48.1 47.33 47.74 47.69C47.38 48.05 47.18 48.53 47.18 49.04C47.18 49.55 47.38 50.03 47.74 50.39C48.1 50.75 48.58 50.95 49.09 50.95C49.6 50.95 50.08 50.75 50.44 50.39C50.8 50.03 51 49.55 51 49.04C51 47.99 50.14 47.13 49.1 47.13H49.09ZM49.09 51.76C48.37 51.76 47.68 51.47 47.18 50.96C46.67 50.45 46.39 49.76 46.39 49.05C46.39 48.33 46.68 47.64 47.18 47.13C47.69 46.62 48.38 46.33 49.09 46.33C50.58 46.33 51.79 47.55 51.79 49.04C51.79 50.53 50.57 51.75 49.09 51.75V51.76Z" fill="#102770"/>
<path opacity="0.16" d="M50.34 47.1C50.42 47.33 50.46 47.58 50.46 47.84C50.46 49.12 49.43 50.16 48.15 50.16C47.71 50.16 47.27 50.03 46.9 49.79C47.21 50.71 48.07 51.36 49.08 51.36C50.35 51.36 51.39 50.32 51.39 49.05C51.39 48.24 50.97 47.52 50.34 47.11V47.1Z" fill="#6D4C41"/>
<path d="M15.63 64.06L8.63 62.52C8.08 62.4 7.73 61.85 7.85 61.3L12.78 39.07C12.9 38.52 13.45 38.17 14 38.29L21 39.83C21.55 39.95 21.9 40.5 21.78 41.05L16.85 63.28C16.73 63.84 16.18 64.19 15.63 64.06Z" fill="#37DBD0"/>
<path d="M13.79 39.18C13.79 39.18 13.75 39.18 13.73 39.2C13.7 39.22 13.69 39.24 13.68 39.27L8.75 61.5C8.75 61.5 8.75 61.56 8.76 61.58C8.77 61.6 8.8 61.62 8.83 61.63L15.83 63.17C15.83 63.17 15.89 63.17 15.91 63.16C15.94 63.14 15.95 63.12 15.96 63.09L20.89 40.86C20.89 40.86 20.89 40.8 20.88 40.78C20.86 40.75 20.84 40.74 20.81 40.73L13.82 39.19H13.8L13.79 39.18ZM15.86 65C15.72 65 15.58 64.98 15.44 64.95L8.45 63.41C8.2 63.36 7.97 63.25 7.76 63.11C7.55 62.96 7.37 62.78 7.24 62.56C7.1 62.35 7.01 62.11 6.96 61.86C6.91 61.61 6.92 61.35 6.98 61.1L11.91 38.87C12.02 38.37 12.32 37.93 12.76 37.66C12.97 37.52 13.21 37.43 13.47 37.38C13.72 37.34 13.98 37.34 14.23 37.4L21.23 38.94C21.48 38.99 21.71 39.09 21.92 39.24C22.13 39.39 22.31 39.57 22.44 39.79C22.58 40 22.67 40.24 22.72 40.49C22.76 40.74 22.76 41 22.7 41.25L17.77 63.48C17.66 63.98 17.36 64.42 16.92 64.69C16.61 64.89 16.25 65 15.88 65H15.86Z" fill="#102770"/>
<path d="M14.31 42.06C14.31 42.06 14.23 42.06 14.19 42.06L12.22 41.63C12.15 41.62 12.08 41.59 12.02 41.55C11.96 41.51 11.91 41.46 11.87 41.4C11.83 41.34 11.81 41.27 11.79 41.2C11.78 41.13 11.79 41.06 11.79 40.99C11.8 40.92 11.83 40.85 11.87 40.79C11.91 40.73 11.96 40.68 12.02 40.64C12.08 40.6 12.15 40.58 12.22 40.56C12.29 40.55 12.36 40.56 12.43 40.56L14.41 40.99C14.48 41 14.55 41.03 14.6 41.07C14.66 41.11 14.71 41.16 14.75 41.22C14.79 41.28 14.81 41.35 14.83 41.42C14.84 41.49 14.83 41.56 14.83 41.63C14.77 41.88 14.55 42.05 14.3 42.05L14.31 42.06Z" fill="#102770"/>
<path d="M11.9 52.9C11.9 52.9 11.82 52.9 11.78 52.89L9.8 52.46C9.73 52.45 9.66 52.42 9.6 52.38C9.54 52.34 9.49 52.29 9.45 52.23C9.41 52.17 9.39 52.1 9.38 52.03C9.37 51.96 9.38 51.89 9.38 51.82C9.4 51.75 9.42 51.68 9.46 51.62C9.5 51.56 9.55 51.51 9.61 51.47C9.67 51.43 9.74 51.41 9.81 51.39C9.88 51.38 9.95 51.39 10.02 51.39L11.99 51.82C12.06 51.84 12.13 51.86 12.19 51.9C12.25 51.94 12.3 51.99 12.34 52.05C12.38 52.11 12.4 52.18 12.42 52.25C12.43 52.32 12.42 52.39 12.42 52.46C12.39 52.58 12.33 52.69 12.23 52.76C12.13 52.84 12.01 52.88 11.89 52.87L11.9 52.9ZM15.03 50.76C15.03 50.76 14.95 50.76 14.91 50.76L10.41 49.77C10.34 49.76 10.27 49.73 10.21 49.69C10.15 49.65 10.1 49.6 10.06 49.54C10.02 49.48 10 49.41 9.98 49.34C9.97 49.27 9.98 49.2 9.98 49.13C9.99 49.06 10.02 48.99 10.06 48.93C10.1 48.87 10.15 48.82 10.21 48.78C10.27 48.74 10.34 48.72 10.41 48.7C10.48 48.69 10.55 48.7 10.62 48.7L15.12 49.69C15.19 49.7 15.26 49.73 15.32 49.77C15.38 49.81 15.43 49.86 15.47 49.92C15.51 49.98 15.54 50.05 15.55 50.12C15.56 50.19 15.55 50.26 15.55 50.33C15.49 50.58 15.27 50.75 15.02 50.75L15.03 50.76ZM13.09 47.53C13.09 47.53 13.01 47.53 12.97 47.52L10.99 47.09C10.92 47.07 10.85 47.05 10.79 47.01C10.73 46.97 10.68 46.92 10.64 46.86C10.6 46.8 10.58 46.73 10.56 46.66C10.55 46.59 10.56 46.52 10.56 46.45C10.57 46.38 10.6 46.31 10.64 46.25C10.68 46.19 10.73 46.14 10.79 46.1C10.85 46.06 10.92 46.04 10.99 46.03C11.06 46.02 11.13 46.03 11.2 46.03L13.17 46.46C13.24 46.48 13.31 46.5 13.37 46.54C13.43 46.58 13.48 46.63 13.52 46.69C13.56 46.75 13.58 46.82 13.6 46.89C13.61 46.96 13.6 47.03 13.6 47.1C13.57 47.22 13.5 47.33 13.41 47.4C13.31 47.48 13.2 47.52 13.07 47.52L13.09 47.53ZM13.7 44.84C13.7 44.84 13.62 44.84 13.58 44.84L11.61 44.41C11.54 44.4 11.47 44.37 11.41 44.33C11.35 44.29 11.3 44.24 11.26 44.18C11.22 44.12 11.2 44.05 11.18 43.98C11.17 43.91 11.18 43.84 11.18 43.77C11.19 43.7 11.22 43.63 11.26 43.57C11.3 43.51 11.35 43.46 11.41 43.42C11.47 43.38 11.54 43.36 11.61 43.34C11.68 43.33 11.75 43.34 11.82 43.34L13.8 43.77C13.87 43.78 13.94 43.81 13.99 43.85C14.05 43.89 14.1 43.94 14.14 44C14.18 44.06 14.2 44.13 14.22 44.2C14.23 44.27 14.22 44.34 14.22 44.41C14.16 44.65 13.94 44.83 13.69 44.83L13.7 44.84Z" fill="#102770"/>
<path d="M11.31 55.59C11.31 55.59 11.23 55.59 11.19 55.59L9.22 55.16C9.15 55.15 9.08 55.12 9.02 55.08C8.96 55.04 8.91 54.99 8.87 54.93C8.83 54.87 8.81 54.8 8.79 54.73C8.78 54.66 8.79 54.59 8.79 54.52C8.8 54.45 8.83 54.38 8.87 54.32C8.91 54.26 8.96 54.21 9.02 54.17C9.08 54.13 9.15 54.11 9.22 54.09C9.29 54.08 9.36 54.09 9.43 54.09L11.41 54.52C11.48 54.53 11.55 54.56 11.6 54.6C11.66 54.64 11.71 54.69 11.75 54.75C11.79 54.81 11.81 54.88 11.83 54.95C11.84 55.02 11.83 55.09 11.83 55.16C11.77 55.41 11.55 55.58 11.3 55.58L11.31 55.59Z" fill="#102770"/>
<path d="M0.89 48.53L2.81 42.62L6.97 47.24C7.12 47.4 7.23 47.6 7.29 47.81C7.3 47.84 7.31 47.88 7.32 47.92L10.96 65L11.37 66.95C11.74 68.71 10.62 70.43 8.85 70.81L8.75 70.83C8.33 70.92 7.9 70.93 7.48 70.85C7.06 70.77 6.66 70.61 6.3 70.38C5.94 70.15 5.63 69.85 5.39 69.49C5.15 69.14 4.98 68.74 4.89 68.32L4.42 66.12L0.85 49.29C0.85 49.29 0.84 49.22 0.83 49.18C0.8 48.97 0.83 48.74 0.89 48.53Z" fill="#F7C414"/>
<path d="M0.89 48.53L2.81 42.62L6.97 47.24C7.12 47.4 7.23 47.6 7.29 47.81C7.44 49.38 1.33 50.68 0.83 49.18C0.8 48.97 0.82 48.74 0.89 48.53Z" fill="#F8BF71"/>
<path d="M2.87 42.89L1.02 48.57C0.96 48.76 0.94 48.96 0.97 49.16C1.16 49.72 2.56 49.88 4.3 49.51C6.02 49.14 7.23 48.43 7.18 47.82C7.12 47.64 7.03 47.47 6.9 47.33L2.88 42.89H2.87ZM2.58 49.98C1.64 49.98 0.88 49.77 0.7 49.23C0.66 48.98 0.68 48.73 0.76 48.49L2.76 42.36L7.08 47.15C7.24 47.33 7.36 47.54 7.43 47.77C7.52 48.69 5.95 49.43 4.35 49.77C3.77 49.91 3.18 49.98 2.59 49.98H2.58Z" fill="#102770"/>
<path d="M3.9 63.61C4.24 65.24 10.72 63.87 10.37 62.24L10.82 64.35C11.17 65.98 4.69 67.35 4.34 65.72L3.9 63.61Z" fill="#FBDF71"/>
<path d="M4.48 65.71C4.65 66.31 6.06 66.48 7.81 66.11C9.56 65.74 10.79 65 10.69 64.38V64.36L10.36 62.83C10.3 62.93 10.21 63.02 10.1 63.13C9 64.12 5.92 64.77 4.51 64.31C4.38 64.27 4.26 64.21 4.15 64.14L4.49 65.71H4.48ZM6.11 66.58C5.12 66.58 4.34 66.34 4.22 65.74V65.71L3.78 63.68C3.78 63.66 3.78 63.65 3.78 63.63V63.6L3.93 63.03L4.06 63.62C4.12 63.82 4.31 63.97 4.62 64.07C5.93 64.5 8.92 63.86 9.94 62.94C10.18 62.72 10.29 62.51 10.27 62.3L10.14 61.7L10.52 62.17V62.2C10.52 62.2 10.54 62.23 10.54 62.25L10.98 64.31C11.18 65.25 9.58 66.02 7.89 66.38C7.27 66.51 6.66 66.58 6.12 66.58H6.11Z" fill="#102770"/>
<path d="M4.43 66.12C6.93 66.71 9.06 66.21 10.96 65L11.37 66.95C11.74 68.71 10.62 70.43 8.85 70.81L8.75 70.83C8.33 70.92 7.9 70.93 7.48 70.85C7.06 70.77 6.66 70.61 6.3 70.38C5.94 70.15 5.63 69.84 5.39 69.49C5.15 69.14 4.98 68.74 4.89 68.32L4.42 66.12H4.43Z" fill="#E76E5F"/>
<path d="M4.61 66.3L5.03 68.3C5.2 69.11 5.68 69.81 6.38 70.27C7.08 70.72 7.91 70.88 8.72 70.71L8.82 70.69C10.5 70.33 11.59 68.68 11.22 66.99L10.85 65.23C8.88 66.43 6.83 66.79 4.6 66.3H4.61ZM8.08 71.04C7.42 71.04 6.78 70.85 6.23 70.49C5.47 70 4.95 69.24 4.76 68.35L4.25 65.94L4.46 65.99C6.76 66.54 8.86 66.18 10.88 64.89L11.04 64.78L11.49 66.93C11.58 67.37 11.59 67.81 11.51 68.25C11.43 68.69 11.26 69.1 11.02 69.48C10.78 69.85 10.46 70.18 10.1 70.43C9.73 70.68 9.32 70.86 8.88 70.95L8.78 70.97C8.55 71.01 8.32 71.04 8.08 71.04Z" fill="#102770"/>
<path opacity="0.3" d="M2.23 44.41L2.81 42.62L6.97 47.24C7.12 47.4 7.23 47.6 7.29 47.81C7.3 47.84 7.31 47.88 7.32 47.92L10.96 65L11.37 66.95C11.74 68.71 10.62 70.43 8.85 70.81L8.75 70.83C8.48 70.89 8.22 70.91 7.96 70.9C9.17 70.22 9.86 68.82 9.56 67.39L9.15 65.44L5.51 48.36L5.48 48.25C5.42 48.04 5.31 47.84 5.16 47.68L2.22 44.41H2.23Z" fill="#102770"/>
<path d="M3.15 44.22L1.66 48.79C1.62 48.9 1.62 49.02 1.64 49.13L5.69 68.16C5.76 68.47 5.89 68.77 6.07 69.04C6.25 69.3 6.49 69.53 6.75 69.7C7.3 70.05 7.95 70.18 8.6 70.04L8.7 70.02C10.02 69.74 10.86 68.44 10.58 67.13L6.53 48.1C6.51 47.99 6.45 47.88 6.38 47.8L3.15 44.22ZM8.08 71.72C7.3 71.72 6.54 71.5 5.86 71.06C4.95 70.47 4.32 69.56 4.1 68.49L0.05 49.46C-0.03 49.07 -0.01 48.66 0.11 48.28L2.03 42.37C2.12 42.09 2.35 41.89 2.63 41.83C2.77 41.8 2.91 41.81 3.05 41.85C3.19 41.89 3.31 41.97 3.4 42.08L7.56 46.7C7.83 47 8.01 47.36 8.1 47.75L12.15 66.78C12.61 68.97 11.21 71.13 9.01 71.6L8.91 71.62C8.64 71.69 8.35 71.72 8.07 71.72H8.08Z" fill="#102770"/>
<path d="M6.12 67.12C4.9 67.12 3.88 66.78 3.68 65.85C3.66 65.75 3.66 65.65 3.68 65.55C3.7 65.46 3.74 65.38 3.79 65.31C3.84 65.24 3.91 65.18 3.99 65.13C4.07 65.08 4.15 65.05 4.24 65.04C4.33 65.03 4.42 65.04 4.5 65.06C4.76 65.13 4.95 65.33 5 65.58C5.15 65.74 6.17 65.91 7.7 65.58C9.2 65.26 10.08 64.7 10.15 64.46C10.11 64.22 10.19 63.97 10.39 63.8C10.68 63.57 11.11 63.61 11.34 63.9C11.41 63.98 11.45 64.08 11.47 64.18C11.76 65.57 9.86 66.49 7.96 66.89C7.35 67.03 6.73 67.1 6.11 67.11L6.12 67.12ZM1.9 46.12L2.82 43.3L4.8 45.5C3.87 45.86 2.89 46.07 1.89 46.12H1.9Z" fill="#102770"/>
<path d="M2.6 50.53C2.1 50.53 1.63 50.47 1.26 50.35C0.44 50.08 0.21 49.55 0.15 49.26C0.13 49.15 0.13 49.04 0.15 48.94C0.25 48.58 0.62 48.36 0.98 48.46C1.1 48.49 1.21 48.56 1.3 48.65C1.39 48.74 1.45 48.86 1.47 48.98C1.62 49.14 2.64 49.31 4.17 48.99C5.67 48.67 6.55 48.11 6.62 47.87C6.6 47.75 6.61 47.63 6.65 47.51C6.69 47.4 6.76 47.3 6.85 47.22C6.92 47.16 7 47.12 7.08 47.09C7.17 47.06 7.25 47.05 7.34 47.06C7.43 47.06 7.51 47.09 7.59 47.14C7.67 47.18 7.74 47.24 7.79 47.31C7.86 47.39 7.91 47.49 7.93 47.6C7.99 47.89 8 48.47 7.36 49.05C6.4 49.92 4.25 50.53 2.58 50.53H2.6ZM5.68 65.02C5.18 65.02 4.71 64.96 4.34 64.84C3.52 64.57 3.29 64.04 3.23 63.75C3.21 63.64 3.21 63.53 3.24 63.43C3.34 63.07 3.71 62.85 4.07 62.95C4.19 62.98 4.3 63.05 4.39 63.14C4.48 63.23 4.54 63.35 4.56 63.47C4.71 63.63 5.73 63.8 7.26 63.48C8.76 63.16 9.64 62.6 9.72 62.36C9.68 62.12 9.76 61.87 9.96 61.7C10.25 61.47 10.68 61.51 10.91 61.8C10.98 61.88 11.02 61.98 11.04 62.08C11.1 62.37 11.11 62.95 10.47 63.53C9.51 64.41 7.36 65.02 5.69 65.02H5.68Z" fill="#102770"/>
<path d="M14.75 78.62H5.69C4.98 78.62 4.29 78.35 3.77 77.85C3.25 77.36 2.95 76.68 2.92 75.97L1.68 59.45H18.77L17.52 75.97C17.49 76.68 17.19 77.36 16.67 77.85C16.15 78.34 15.47 78.62 14.75 78.62Z" fill="#4A83FF"/>
<path d="M2.7 60.4L3.87 75.9V75.93C3.89 76.4 4.09 76.84 4.43 77.17C4.77 77.49 5.22 77.67 5.69 77.67H14.75C15.22 77.67 15.67 77.49 16.01 77.17C16.35 76.84 16.55 76.4 16.57 75.93V75.9L17.74 60.4H2.7ZM14.75 79.57H5.69C3.7 79.57 2.06 78.02 1.97 76.03L0.73 59.52C0.71 59.26 0.8 59 0.98 58.8C1.16 58.61 1.41 58.5 1.68 58.5H18.77C19.03 58.5 19.29 58.61 19.47 58.8C19.65 58.99 19.74 59.25 19.72 59.52L18.48 76.03C18.43 76.98 18.01 77.88 17.32 78.54C16.63 79.2 15.71 79.56 14.75 79.57Z" fill="#102770"/>
<path opacity="0.3" d="M16.03 59.45L15.39 67.98C14.19 73.33 11.04 76.35 5.76 76.82H3.09C2.93 76.82 2.77 76.81 2.61 76.78C2.8 77.32 3.16 77.79 3.62 78.12C4.09 78.45 4.65 78.63 5.22 78.63H14.28C15.76 78.63 16.99 77.47 17.05 75.99L18.3 59.47H16.03V59.45Z" fill="#102770"/>
</g>
<defs>
<clipPath id="clip0_1_374">
<rect width="122.21" height="79.59" fill="white"/>
</clipPath>
</defs>
</svg>
