<svg width="94" height="109" viewBox="0 0 94 109" fill="none" xmlns="http://www.w3.org/2000/svg">
<path d="M46.7861 1.21608L7.38612 12.5161C3.18612 13.7161 0.686119 18.2161 1.88612 22.4161L19.0861 82.5161C20.2861 86.7161 24.7861 89.2161 28.9861 88.0161L68.4861 76.7161C72.6861 75.5161 75.1861 71.0161 73.9861 66.8161L56.6861 6.71607C55.4861 2.51608 51.0861 0.016075 46.7861 1.21608ZM36.0861 16.1161L24.1861 19.5161C23.0861 19.8161 21.9861 19.2161 21.6861 18.1161C21.3861 17.0161 21.9861 15.9161 23.0861 15.6161L34.9861 12.2161C36.0861 11.9161 37.1861 12.5161 37.4861 13.6161C37.7861 14.7161 37.1861 15.8161 36.0861 16.1161Z" fill="#FFF6E1"/>
<path d="M64.5861 63.3164L25.0861 74.5164C20.8861 75.7164 16.3861 73.2164 15.1861 69.0164L18.9861 82.4164C20.1861 86.6164 24.6861 89.1164 28.8861 87.9164L68.3861 76.6164C72.5861 75.4164 75.0861 70.9164 73.8861 66.7164L70.0861 53.3164C71.2861 57.6164 68.7861 62.1164 64.5861 63.3164Z" fill="#FFEAB8"/>
<path d="M45.4861 58.2165C44.5861 58.2165 43.7861 57.6165 43.4861 56.7165C43.1861 55.6165 43.7861 54.5165 44.8861 54.2165L55.7861 51.1165C56.8861 50.8165 57.9861 51.4165 58.2861 52.5165C58.5861 53.6165 57.9861 54.7165 56.8861 55.0165L45.9861 58.1165C45.8861 58.1165 45.6861 58.2165 45.4861 58.2165ZM26.4861 63.8165C25.5861 63.8165 24.7861 63.2165 24.5861 62.3165C24.2861 61.2165 24.8861 60.1165 25.9861 59.8165L39.9861 55.8165C41.0861 55.5165 42.1861 56.1165 42.4861 57.2165C42.7861 58.3165 42.1861 59.4165 41.0861 59.7165L27.0861 63.7165C26.8861 63.8165 26.6861 63.8165 26.4861 63.8165ZM49.4861 63.5165C49.0861 63.5165 48.6861 63.2165 48.4861 62.8165C48.3861 62.3165 48.6861 61.7165 49.1861 61.6165L58.1861 59.0165C58.6861 58.9165 59.2861 59.2165 59.3861 59.7165C59.4861 60.2165 59.1861 60.8165 58.6861 60.9165L49.6861 63.5165H49.4861ZM27.3861 69.9165C26.9861 69.9165 26.5861 69.6165 26.3861 69.2165C26.1861 68.7165 26.5861 68.1165 27.0861 68.0165L45.1861 62.9165C45.6861 62.8165 46.2861 63.1165 46.4861 63.6165C46.6861 64.1165 46.2861 64.7165 45.7861 64.8165L27.6861 69.9165H27.3861ZM38.6861 71.9165C38.2861 71.9165 37.8861 71.6165 37.6861 71.2165C37.4861 70.7165 37.8861 70.1165 38.3861 70.0165L60.1861 63.8165C60.6861 63.7165 61.2861 64.0165 61.4861 64.5165C61.6861 65.0165 61.2861 65.6165 60.7861 65.7165L38.9861 71.9165H38.6861ZM28.7861 74.7165C28.2861 74.7165 27.8861 74.4165 27.7861 74.0165C27.5861 73.5165 27.9861 72.9165 28.4861 72.8165L34.0861 71.3165C34.6861 71.2165 35.2861 71.5165 35.3861 72.0165C35.5861 72.5165 35.1861 73.1165 34.6861 73.2165L29.0861 74.7165H28.7861Z" fill="#E2C5B3"/>
<path d="M26.8861 89.8161C22.8861 89.8161 19.2861 87.1161 18.1861 83.2161L0.886064 22.8161C0.186064 20.5161 0.486065 18.0161 1.68607 15.9161C2.88607 13.8161 4.78606 12.2161 7.08606 11.6161L46.6861 0.316113C47.4861 0.116113 48.2861 0.0161133 49.1861 0.0161133C53.1861 0.0161133 56.7861 2.71611 57.8861 6.61611L75.0861 67.0161C75.7861 69.3161 75.4861 71.8161 74.2861 73.9161C73.0861 76.0161 71.1861 77.6161 68.8861 78.2161L29.2861 89.5161C28.4861 89.7161 27.6861 89.8161 26.8861 89.8161ZM49.1861 1.91611C48.5411 1.91795 47.9002 2.01914 47.2861 2.21611L7.68607 13.6161C5.88607 14.1161 4.38606 15.3161 3.48606 17.0161C2.58606 18.6161 2.38607 20.5161 2.88607 22.3161L20.0861 82.7161C20.9861 85.7161 23.6861 87.8161 26.8861 87.8161C27.531 87.8143 28.1719 87.7131 28.7861 87.5161L68.3861 76.2161C70.1861 75.7161 71.6861 74.5161 72.5861 72.8161C73.4861 71.2161 73.6861 69.3161 73.1861 67.5161L55.9861 7.01611C55.0861 4.01611 52.2861 1.91611 49.1861 1.91611ZM23.4861 20.7161C22.1861 20.7161 20.9861 19.8161 20.5861 18.5161C20.0861 16.9161 21.0861 15.2161 22.6861 14.8161L34.6861 11.4161C36.2861 11.0161 37.9861 11.9161 38.3861 13.5161C38.8861 15.1161 37.8861 16.8161 36.2861 17.2161L24.2861 20.6161C24.0861 20.6161 23.7861 20.7161 23.4861 20.7161ZM35.6861 13.2161H35.3861L23.4861 16.7161C22.9861 16.9161 22.6861 17.4161 22.7861 17.9161C22.8861 18.4161 23.4861 18.7161 23.9861 18.6161L35.8861 15.2161C36.3861 15.0161 36.6861 14.5161 36.5861 14.0161C36.4861 13.5161 36.0861 13.2161 35.6861 13.2161Z" fill="#102770"/>
<path opacity="0.5" d="M65.6861 55.8163C65.2861 55.8163 64.8861 55.5163 64.6861 55.1163L55.0861 22.1163C54.8861 21.6163 55.2861 21.0163 55.7861 20.9163C56.2861 20.8163 56.8861 21.1163 56.9861 21.6163L66.5861 54.6163C66.7861 55.1163 66.3861 55.7163 65.8861 55.8163H65.6861ZM54.3861 16.8163C53.9861 16.8163 53.5861 16.5163 53.3861 16.0163L50.9861 7.11627C50.7861 6.51627 51.1861 6.01627 51.6861 5.81627C52.1861 5.61627 52.7861 6.01627 52.8861 6.51627L55.2861 15.4163C55.4861 16.0163 55.0861 16.5163 54.5861 16.7163C54.5861 16.8163 54.4861 16.8163 54.3861 16.8163Z" fill="#E2C5B3"/>
<path fill-rule="evenodd" clip-rule="evenodd" d="M70.4861 107.797C96.8821 96.2785 92.1311 64.9275 92.1311 64.9275C79.5261 63.8455 70.4861 55.8354 70.4861 55.8354C70.4861 55.8354 61.4461 63.8455 48.8411 64.9275C48.8411 64.9275 44.0901 96.2785 70.4861 107.797Z" fill="#20BF55"/>
<path fill-rule="evenodd" clip-rule="evenodd" d="M92.1331 64.7794C90.4301 64.6314 88.7961 64.3524 87.2381 63.9854C87.4611 73.8334 85.9011 96.5944 67.9301 106.482C68.7891 106.943 69.6821 107.384 70.6191 107.796C96.8551 96.2363 92.1321 64.7784 92.1321 64.7784" fill="#138A3B"/>
<path fill-rule="evenodd" clip-rule="evenodd" d="M69.9751 100.665C89.6181 92.0822 86.0831 68.7232 86.0831 68.7232C76.7031 67.9162 69.9751 61.9482 69.9751 61.9482C69.9751 61.9482 63.2471 67.9162 53.8671 68.7232C53.8671 68.7232 50.3321 92.0822 69.9751 100.665Z" fill="#FFF6E1"/>
<path fill-rule="evenodd" clip-rule="evenodd" d="M87.1001 69.0055C85.3091 68.8505 83.6121 68.5115 82.0381 68.0615C82.3581 73.7285 82.2031 92.0155 67.9301 100.309C68.7911 100.8 69.7031 101.26 70.6711 101.685C90.7051 92.9035 87.1001 69.0055 87.1001 69.0055Z" fill="#FFEAB8"/>
<path fill-rule="evenodd" clip-rule="evenodd" d="M90.5931 81.9135C87.8451 93.9045 81.0821 102.379 70.4861 107.106C59.8901 102.379 53.1271 93.9045 50.3791 81.9135C48.6341 74.3025 49.1471 67.5855 49.3681 65.5495C60.2791 64.4065 68.3641 58.4185 70.4861 56.6985C72.6081 58.4175 80.6931 64.4055 91.6031 65.5495C91.8241 67.5855 92.3371 74.3025 90.5931 81.9135ZM93.1351 64.6735C93.0781 64.2995 92.7741 64.0145 92.4001 63.9815C80.1101 62.9265 71.1131 55.0985 71.0231 55.0195C70.875 54.8883 70.6839 54.8159 70.4861 54.8159C70.2882 54.8159 70.0972 54.8883 69.9491 55.0195C69.8601 55.0985 60.8631 62.9275 48.5721 63.9815C48.1971 64.0135 47.8941 64.2995 47.8371 64.6735C47.7871 65.0015 46.6391 72.8345 48.7811 82.2265C50.7681 90.9415 56.0891 102.617 70.1621 108.749C70.2661 108.794 70.3761 108.817 70.4861 108.817C70.5961 108.817 70.7061 108.795 70.8101 108.749C84.8831 102.617 90.2041 90.9415 92.1901 82.2265C94.3321 72.8335 93.1851 65.0015 93.1351 64.6735ZM70.4861 100.5C53.5071 92.8535 54.5201 73.5655 54.8841 69.8405C62.8031 68.9605 68.7171 64.7075 70.4861 63.2995C72.2551 64.7075 78.1701 68.9605 86.0881 69.8405C86.4571 73.5645 87.4871 92.8445 70.4861 100.5ZM86.8891 68.2755C77.7721 67.4925 71.0891 61.6835 71.0231 61.6245C70.875 61.4933 70.6839 61.4209 70.4861 61.4209C70.2882 61.4209 70.0972 61.4933 69.9491 61.6245C69.8831 61.6835 63.2001 67.4935 54.0831 68.2755C53.7091 68.3075 53.4051 68.5935 53.3481 68.9665C53.3111 69.2095 49.9021 93.3155 70.1621 102.145C70.2661 102.19 70.3761 102.213 70.4861 102.213C70.5961 102.213 70.7061 102.191 70.8101 102.145C91.0691 93.3155 87.6611 69.2095 87.6241 68.9665C87.5671 68.5935 87.2631 68.3075 86.8891 68.2755Z" fill="#08345D"/>
<path d="M70.9511 69.52C66.7621 69.52 63.3661 72.83 63.3661 76.947C63.3661 81.064 66.7611 84.401 70.9511 84.401C75.1411 84.401 78.5361 81.064 78.5361 76.947C78.5091 72.83 75.1131 69.52 70.9511 69.52ZM70.9511 82.518C67.8021 82.518 65.2831 80.015 65.2831 76.948C65.2831 73.881 67.8291 71.378 70.9511 71.378C74.0731 71.378 76.6191 73.881 76.6191 76.948C76.5921 80.016 74.0731 82.518 70.9511 82.518Z" fill="#20BF55"/>
<path opacity="0.126" d="M65.3661 76.9471C65.3661 76.3551 65.4481 75.7631 65.6121 75.2251H63.5861C63.4491 75.7631 63.3941 76.3551 63.3941 76.9471C63.3941 78.1851 63.6951 79.3421 64.2431 80.3381H66.4611C65.7491 79.3961 65.3661 78.2121 65.3661 76.9471ZM76.5921 76.9471C76.5921 78.2121 76.1811 79.3961 75.5241 80.3381H77.6871C78.2351 79.3151 78.5361 78.1581 78.5361 76.9471C78.5361 76.3551 78.4541 75.7901 78.3441 75.2251H76.3731C76.5101 75.7901 76.5921 76.3551 76.5921 76.9471Z" fill="#08345D"/>
<path d="M70.8971 68.9932C73.0891 68.9932 75.0781 69.8782 76.5191 71.3092C77.9601 72.7402 78.8511 74.7132 78.8511 76.8932C78.8508 77.9347 78.6444 78.9658 78.2436 79.9271C77.8428 80.8884 77.2557 81.7609 76.5161 82.4942C75.7786 83.2327 74.9028 83.8186 73.9388 84.2183C72.9747 84.6181 71.9413 84.8238 70.8976 84.8238C69.8539 84.8238 68.8205 84.6181 67.8564 84.2183C66.8923 83.8186 66.0165 83.2327 65.2791 82.4942C64.5395 81.7609 63.9524 80.8884 63.5516 79.9271C63.1508 78.9658 62.9444 77.9347 62.9441 76.8932C62.9441 74.7132 63.8361 72.7392 65.2761 71.3092C66.7161 69.8792 68.7051 68.9932 70.8971 68.9932ZM70.8971 69.8312C68.9381 69.8312 67.1611 70.6232 65.8731 71.9022C64.5851 73.1812 63.7911 74.9442 63.7911 76.8932C63.7911 78.8422 64.5881 80.6062 65.8731 81.8842C67.1581 83.1622 68.9381 83.9552 70.8971 83.9552C72.8561 83.9552 74.6331 83.1632 75.9211 81.8842C77.2091 80.6052 78.0031 78.8422 78.0031 76.8932C78.0031 74.9442 77.2061 73.1802 75.9211 71.9022C74.6361 70.6242 72.8561 69.8312 70.8971 69.8312ZM70.8971 70.8772C72.4932 70.8716 74.0272 71.4949 75.1671 72.6122C76.2591 73.6852 76.9331 75.1702 76.9331 76.8132C76.9331 78.4562 76.2591 79.9402 75.1671 81.0142C74.0272 82.1314 72.4932 82.7547 70.8971 82.7492C69.301 82.7547 67.767 82.1314 66.6271 81.0142C65.5351 79.9412 64.8611 78.4562 64.8611 76.8132C64.8611 75.1702 65.5351 73.6862 66.6271 72.6122C67.767 71.4949 69.301 70.8716 70.8971 70.8772ZM70.8971 71.7152C69.5243 71.7099 68.2047 72.2455 67.2241 73.2062C66.2871 74.1272 65.7081 75.4012 65.7081 76.8132C65.7081 78.2252 66.2861 79.4982 67.2241 80.4202C68.2047 81.3808 69.5243 81.9165 70.8971 81.9112C72.2699 81.9165 73.5894 81.3808 74.5701 80.4202C75.5071 79.4992 76.0861 78.2252 76.0861 76.8132C76.0861 75.4012 75.5081 74.1282 74.5701 73.2062C73.5894 72.2455 72.2699 71.7099 70.8971 71.7152Z" fill="#08345D" stroke="#08345D" stroke-width="0.3"/>
<path d="M80.1791 79.2342C80.1791 78.1582 79.2751 77.2432 78.1531 77.2432H63.8331C62.7381 77.2432 61.8071 78.1312 61.8071 79.2342V84.5352C61.8071 87.7372 64.4901 92.0432 71.0341 92.0432C77.5781 92.0432 80.1791 88.5452 80.1791 84.5352V79.2342Z" fill="#20BF55"/>
<path d="M72.6761 82.813C72.6761 81.898 71.9641 81.252 71.0331 81.252C70.0751 81.252 69.3901 81.925 69.3901 82.813C69.3901 83.432 69.6911 83.997 70.4851 84.266V85.558C70.4851 85.935 70.7041 86.338 71.1421 86.338C71.5801 86.338 71.8271 85.934 71.8271 85.558V84.266C72.3471 83.997 72.6761 83.459 72.6761 82.813Z" fill="white"/>
<path d="M71.0341 80.8838C71.6101 80.8838 72.1131 81.0908 72.4731 81.4338C72.6588 81.612 72.8059 81.8264 72.9053 82.0638C73.0047 82.3012 73.0544 82.5565 73.0511 82.8138C73.0511 83.4448 72.7751 84.0078 72.3281 84.3638L72.2021 84.4558V85.5588C72.202 85.865 72.0911 86.1608 71.8901 86.3918C71.7051 86.5998 71.4481 86.7348 71.1441 86.7348C71.0057 86.7371 70.8685 86.7091 70.7421 86.6527C70.6156 86.5964 70.503 86.5132 70.4121 86.4088C70.2491 86.2258 70.1501 85.9828 70.1221 85.7348L70.1131 85.5858V84.5208C69.7661 84.3648 69.4981 84.1448 69.3141 83.8688C69.1201 83.5778 69.0181 83.2248 69.0181 82.8138C69.0181 82.2458 69.2281 81.7648 69.5851 81.4238C69.9421 81.0828 70.4441 80.8838 71.0341 80.8838ZM71.0341 81.5948C70.6641 81.5948 70.3441 81.7188 70.1171 81.9368C70.0018 82.0511 69.9111 82.1877 69.8505 82.3384C69.79 82.489 69.7609 82.6505 69.7651 82.8128C69.7651 83.4048 69.9911 83.6788 70.8321 84.1928L71.5261 85.2848L71.7651 83.8778L71.8821 83.8108C72.0271 83.7168 72.1261 83.6068 72.1901 83.4738C72.2771 83.2948 72.3031 83.0778 72.3031 82.8128C72.3031 82.4638 72.1701 82.1578 71.9441 81.9408C71.7181 81.7238 71.4011 81.5948 71.0341 81.5948Z" fill="#08345D" stroke="#08345D" stroke-width="0.2"/>
<path opacity="0.126" d="M66.6531 72.103C66.6104 72.1053 66.5679 72.0965 66.5295 72.0776C66.4912 72.0587 66.4583 72.0303 66.4341 71.995C66.3241 71.887 66.3521 71.726 66.4611 71.618C67.0602 71.1331 67.7357 70.7512 68.4601 70.488C68.5971 70.434 68.7611 70.515 68.8161 70.649C68.8711 70.783 68.7891 70.945 68.6521 70.999C67.9951 71.241 67.3651 71.591 66.8171 72.049C66.7901 72.076 66.7071 72.103 66.6531 72.103ZM77.0571 74.794C76.9471 74.794 76.8651 74.74 76.8111 74.633C75.8531 72.13 73.5801 70.516 71.0341 70.516C70.8971 70.516 70.7601 70.381 70.7601 70.247C70.7601 70.086 70.8701 69.978 71.0341 69.978C73.7991 69.978 76.2641 71.727 77.3321 74.418C77.3871 74.553 77.3321 74.714 77.1951 74.768C77.1401 74.795 77.1131 74.795 77.0581 74.795L77.0571 74.794Z" fill="#08345D"/>
<path d="M71.0611 89.5953C64.6261 89.5953 61.9981 85.2893 61.9981 82.1143V84.5363C61.9981 87.7113 64.6271 92.0173 71.0611 92.0173C77.5231 92.0173 80.0691 88.5193 80.0691 84.5363V82.1143C80.0691 86.1243 77.5231 89.5953 71.0611 89.5953Z" fill="#138A3B"/>
<path d="M78.7001 80.903C78.7001 80.795 78.5901 80.688 78.4261 80.661L77.1121 80.446C76.9751 80.419 76.8111 80.285 76.7831 80.123L76.5641 78.831C76.5371 78.696 76.4271 78.562 76.3181 78.562C76.2091 78.562 76.0991 78.67 76.0721 78.831L75.8531 80.123C75.8261 80.258 75.6891 80.419 75.5241 80.446L74.2101 80.661C74.0731 80.688 73.9361 80.796 73.9361 80.903C73.9361 81.01 74.0461 81.118 74.2101 81.145L75.4971 81.306C75.6341 81.333 75.7981 81.467 75.8261 81.602L76.0721 82.948C76.0991 83.083 76.2091 83.217 76.3181 83.217C76.4271 83.217 76.5371 83.109 76.5641 82.948L76.8101 81.576C76.8371 81.441 76.9741 81.307 77.1391 81.28L78.4261 81.119C78.5631 81.119 78.7001 81.01 78.7001 80.903Z" fill="white"/>
<path d="M78.1531 76.8472C78.7981 76.8472 79.3721 77.1082 79.7841 77.5382C80.169 77.9461 80.3996 78.4755 80.4361 79.0352L80.4431 79.2342V84.5352C80.4431 85.9772 80.1021 88.5642 77.9281 90.3742C76.5281 91.5392 74.3661 92.3852 71.0331 92.3852C68.0751 92.3852 65.8591 91.5362 64.3231 90.2572C62.5711 88.7982 61.7011 86.7782 61.6291 84.8032L61.6241 84.5342V79.2332C61.6241 78.5582 61.8621 77.9612 62.2561 77.5342C62.6166 77.1397 63.1134 76.8967 63.6461 76.8542L63.8331 76.8462L78.1531 76.8472ZM78.1531 77.5852H63.8331L63.6721 77.5932C63.3361 77.6258 63.0251 77.7848 62.8021 78.0382C62.5181 78.3562 62.3721 78.7992 62.3721 79.2342V84.5352L62.3751 84.7202C62.4244 85.6894 62.6747 86.6377 63.11 87.505C63.5454 88.3723 64.1563 89.1396 64.9041 89.7582C66.2431 90.8602 68.2121 91.6472 71.0341 91.6472C73.7851 91.6472 75.9551 90.9982 77.4361 89.7792C78.9101 88.5662 79.6961 86.7882 79.6961 84.5352V79.2342L79.6881 79.0642C79.6567 78.6893 79.5012 78.3357 79.2461 78.0592C78.9701 77.7662 78.5871 77.5852 78.1531 77.5852Z" fill="#08345D" stroke="#08345D" stroke-width="0.2"/>
<path d="M74.0451 78.831H65.2831C65.1461 78.831 65.0091 78.723 65.0091 78.562C65.0091 78.401 65.1191 78.293 65.2831 78.293H74.0451C74.1821 78.293 74.3191 78.401 74.3191 78.562C74.3191 78.723 74.2091 78.831 74.0451 78.831ZM78.7001 84.482C78.5361 84.482 78.4261 84.374 78.4261 84.213V82.867C78.4261 82.706 78.5361 82.598 78.7001 82.598C78.8641 82.598 78.9741 82.706 78.9741 82.867V84.213C78.9741 84.374 78.8641 84.482 78.7001 84.482Z" fill="white"/>
<path fill-rule="evenodd" clip-rule="evenodd" d="M20.3961 26.1201L43.5481 26.1541C44.0007 26.1535 44.449 26.2421 44.8672 26.415C45.2855 26.5879 45.6655 26.8416 45.9855 27.1617C46.3056 27.4817 46.5593 27.8617 46.7322 28.28C46.9051 28.6983 46.9938 29.1465 46.9931 29.5991L47.0191 47.0571C47.0211 47.5105 46.9334 47.9597 46.7612 48.3791C46.5889 48.7984 46.3355 49.1796 46.0155 49.5007C45.6954 49.8218 45.315 50.0764 44.8962 50.25C44.4774 50.4236 44.0284 50.5127 43.5751 50.5121L20.4241 50.4781C19.9715 50.4788 19.5232 50.3901 19.105 50.2172C18.6867 50.0443 18.3067 49.7906 17.9866 49.4706C17.6666 49.1505 17.4129 48.7705 17.24 48.3522C17.0671 47.934 16.9784 47.4857 16.9791 47.0331L16.9531 29.5751C16.9511 29.1219 17.0387 28.6727 17.2109 28.2534C17.3831 27.8341 17.6364 27.453 17.9564 27.1319C18.2763 26.8108 18.6566 26.5562 19.0753 26.3825C19.494 26.2089 19.9428 26.1197 20.3961 26.1201Z" stroke="#102770" stroke-width="1.1"/>
<mask id="mask0_1572_3620" style="mask-type:luminance" maskUnits="userSpaceOnUse" x="16" y="25" width="32" height="27">
<path d="M20.408 26.0703L43.5486 26.1045C44.4749 26.1059 45.3633 26.4749 46.0183 27.1299C46.6731 27.7848 47.0412 28.6725 47.0427 29.5986L47.0691 47.0566C47.0698 47.5162 46.9796 47.9717 46.8044 48.3965C46.6292 48.8213 46.3721 49.2077 46.0476 49.5332C45.7231 49.8587 45.3372 50.1174 44.9128 50.2939C44.4886 50.4704 44.0334 50.5608 43.574 50.5615L20.4236 50.5283C19.4972 50.5269 18.6089 50.158 17.9539 49.5029C17.299 48.8479 16.9308 47.9595 16.9294 47.0332L16.9031 29.5752C16.9024 29.1157 16.9925 28.6601 17.1677 28.2354C17.3429 27.8107 17.6002 27.4249 17.9246 27.0996C18.249 26.7742 18.6342 26.5154 19.0583 26.3389C19.4296 26.1845 19.8247 26.0956 20.2253 26.0752L20.3982 26.0703H20.408Z" fill="white" stroke="#102770"/>
</mask>
<g mask="url(#mask0_1572_3620)">
<path d="M30.072 32.2516C31.4135 31.8921 32.4034 32.0945 33.119 32.7302C33.6293 33.1834 33.8041 33.5826 33.8452 33.8934C33.8869 34.2085 33.8003 34.5026 33.6627 34.7592L33.4751 35.0855L33.3784 35.2529L33.4197 35.441L33.7107 36.7947L33.7813 37.1225L34.1106 37.1819C34.2311 37.2036 34.346 37.2493 34.4481 37.3169C34.5491 37.385 34.6351 37.4738 34.6998 37.5771C34.7644 37.6804 34.8062 37.7963 34.8232 37.917L35.0476 39.5504C35.0932 39.8817 34.9426 40.2046 34.6755 40.3881L34.4313 40.5557L34.4606 40.8501C34.5653 41.8989 34.3316 43.0097 33.8119 43.9265L33.6732 44.171L33.8097 44.4164L34.2636 45.231L34.4096 45.4932L34.7094 45.4877L36.9819 45.4449L36.9814 45.4471L37.8666 45.4303C39.8305 45.3939 41.5497 46.6866 42.0535 48.5668C42.0607 48.5946 42.0426 48.6263 42.0129 48.6343L23.7434 53.5296C23.7115 53.5379 23.6829 53.5184 23.6759 53.4931C23.187 51.6684 23.9626 49.7542 25.5745 48.7725L25.7329 48.6805L28.4969 47.1523L28.7593 47.0072L28.7548 46.7071L28.7392 45.6982L28.7351 45.4264L28.5034 45.2822C27.6278 44.7363 26.93 43.9473 26.4948 43.0118L26.3611 42.7241L26.0441 42.7221L25.9141 42.7125C25.6151 42.6666 25.3529 42.4688 25.2357 42.1805L25.2348 42.1807L24.6133 40.6538C24.5672 40.5396 24.5453 40.4167 24.5502 40.2936C24.5551 40.1702 24.5868 40.0488 24.6421 39.9384C24.7014 39.8195 24.7872 39.7165 24.8926 39.6357L25.1928 39.4056L25.0533 39.0547C24.8612 38.5701 24.6076 37.9079 24.5258 37.6028C24.335 36.891 24.2714 36.2071 24.5705 35.6001C24.8654 35.0019 25.5787 34.3505 27.2424 33.86L27.3791 33.8193L27.474 33.713C28.3656 32.7147 29.519 32.3997 30.072 32.2516ZM34.5602 31.053C35.0395 30.9331 35.3638 30.9083 35.6318 30.9397C35.8998 30.9712 36.1509 31.0635 36.4819 31.2407L36.6566 31.3344L37.0273 31.2351C37.3552 31.1473 37.6459 31.1606 37.9153 31.259C38.1899 31.3593 38.4745 31.5594 38.7622 31.8955C39.3469 32.5785 39.8882 33.7544 40.3504 35.4796C41.4318 39.5149 43.1749 40.4529 43.3818 40.5444L43.3827 40.5441C43.3916 40.548 43.3997 40.5547 43.4058 40.5622C43.4112 40.5691 43.4141 40.5772 43.4161 40.5857C43.4203 40.6092 43.4131 40.6254 43.4072 40.6316L43.4062 40.6319L43.3999 40.6386C43.3902 40.6484 42.5492 41.4946 40.6908 42.3644L40.2038 42.5919L40.4661 43.0615L40.7128 43.503L40.8596 43.7639L41.1584 43.7586L44.3156 43.7013C46.2796 43.6648 47.9987 44.9575 48.5025 46.8378C48.5097 46.8654 48.4923 46.8969 48.4629 46.905L44.1643 48.0568C44.1324 48.0654 44.103 48.046 44.096 48.0205C43.3401 45.1996 40.7627 43.2692 37.8333 43.3211L37.833 43.3202L36.3897 43.348C36.374 43.3482 36.3577 43.3412 36.3455 43.3265C36.3407 43.3204 36.3374 43.3134 36.3359 43.3058C36.3344 43.2984 36.3341 43.2909 36.336 43.2836C36.4591 42.8309 36.5391 42.3681 36.5752 41.9011L36.5965 41.4334C36.5967 41.4224 36.6001 41.4127 36.6066 41.4034L36.6073 41.4022C37.0536 40.7796 37.2464 40.0198 37.142 39.2621L36.9177 37.6288C36.8044 36.8015 36.345 36.0604 35.6572 35.5886L35.656 35.588C35.6463 35.5813 35.6395 35.5712 35.6364 35.5599C35.6332 35.5485 35.6344 35.5364 35.6393 35.5257L35.6391 35.5248C36.3476 33.9773 35.8896 32.3693 34.5267 31.158L34.5257 31.1583C34.5182 31.1516 34.5115 31.1408 34.5077 31.1287C34.5051 31.1204 34.506 31.1137 34.5064 31.1089C34.5107 31.0965 34.5166 31.0848 34.5257 31.0754C34.5355 31.0654 34.5471 31.0576 34.5602 31.053Z" fill="#102770" stroke="#102770"/>
</g>
</svg>
