<svg xmlns="http://www.w3.org/2000/svg" width="105" height="112" fill="none" viewBox="0 0 105 112"><g fill-rule="evenodd" clip-path="url(#a)" clip-rule="evenodd"><path fill="#ffdca1" d="M82.27 6.85c7.95-2.88 16.75 1.2 19.64 9.11s-1.21 16.67-9.16 19.54L82.27 6.84z"/><path fill="#ffe9bf" d="M99.67 14.05c.05.21.17.47.34.74-.02 0 .15.21.3.42s.28.42.16.42c-.05 0-.09-.02-.13-.04.2.19.18.24.08.24-.05 0-.11-.01-.18-.02s-.13-.02-.2-.02c-.14 0-.22.06-.05.33l-.49-.31c1.1 4.24-.82 8.69-4.6 10.83l1.26 3.46c5.06-1.84 7.67-7.41 5.83-12.44a9.64 9.64 0 0 0-2.34-3.6"/><path fill="#ffc675" d="M89.65 8.13c-.94 0-1.89.11-2.84.33-.15.04.02.47.32 1.03l-.32.06c-.07.02-.07.12-.02.28-.09.1.07.48.34.99l-.32.06c-.47.11 2.11 3.92 2.11 3.92 1.39-.51 2.82-.74 4.23-.74 2.26 0 4.46.62 6.37 1.75-.08-.31-.17-.61-.28-.91-.26-.71-.6-1.39-1.01-2.02.51.34 1 .73 1.45 1.16-.06-.26-.03-.44.12-.44.06 0 .13.03.23.09-2.3-3.49-6.23-5.57-10.37-5.57z"/><path fill="#ffd18b" d="M98.22 12.89a9.8 9.8 0 0 1 1.29 2.93l.49.31c-.18-.27-.1-.33.05-.33.06 0 .13.01.2.02l.17.02c.1 0 .11-.05-.08-.24.06.03.1.04.13.04.12 0 0-.21-.16-.42l-.31-.42c-.17-.26-.29-.53-.34-.74-.45-.43-.93-.82-1.45-1.16"/><path fill="#3ad0f9" d="M88.36 37.1 42.65 51.16l-8.87-24.25L77.87 8.44z"/><path fill="#00b3f9" d="m38.45 32.97 1.61 4.41-2.44.88-1.91-5.21-1.6-4.4L78.2 10.18l1.94 5.33z"/><path fill="#3ad0f9" d="M94.4 39.91c-2.45.89-5.15-.37-6.04-2.8L77.88 8.45a4.68 4.68 0 0 1 2.82-6.01c2.45-.89 5.15.37 6.04 2.8L97.22 33.9a4.68 4.68 0 0 1-2.82 6.01"/><path fill="#00b3f9" d="m79.93 15.47-1.95-5.34c-.21-.58-.3-1.19-.27-1.81.03-.61.18-1.22.44-1.78s.63-1.06 1.09-1.47c.45-.41.99-.74 1.57-.95.52-.19 1.07-.29 1.62-.28 1.93 0 3.74 1.17 4.43 3.08l.26.7.2.56a4.7 4.7 0 0 0-2.15.25c-2.44.89-3.71 3.59-2.82 6.02l-2.4 1.01z"/><path fill="#3ad0f9" d="m18.88 54.77 22.15-8.02-5.64-15.43-22.16 8.02z"/><path fill="#00b3f9" d="m17.91 45.4.8 2.2-2.44.88-1.91-5.2-.8-2.21 22.15-8.02 1.91 5.21z"/><path fill="#e8f3ff" d="m6.99 56.58 11.08-4.01-4.03-11.02-11.08 4.01z"/><path fill="#3ad0f9" d="M18.84 52.47 7.77 56.48l-1.91-5.21 8.63-3.13.81 2.21 2.44-.88z"/><path fill="#b8daf2" d="m3.56 47.19-.27.1 4.03 11.02 2.44-.88-.54-1.48-1.45.53-.06-.16-.72.26z"/><path fill="#00b3f9" d="m14.36 43.28-10.8 3.91 3.43 9.39.72-.26-1.85-5.05 8.63-3.13.32.88 1.46-.53z"/><path fill="#102770" d="M42.65 53.3c-.88 0-1.71-.54-2.02-1.41l-8.87-24.25c-.19-.52-.17-1.09.05-1.59.22-.51.63-.9 1.14-1.12L77.04 6.47a2.18 2.18 0 0 1 1.7.01c.54.24.96.68 1.16 1.23l10.48 28.66c.1.27.14.56.13.85-.02.29-.09.57-.22.83s-.31.49-.53.68-.48.33-.76.41L43.29 53.2c-.21.06-.42.09-.64.09zM36.5 28.09l7.47 20.42 41.59-12.79-8.94-24.43zm60.46 7.25c-.64 0-1.27-.28-1.7-.82a2.13 2.13 0 0 1 .37-3.01c4.51-3.52 6.22-9.47 4.26-14.81a13.155 13.155 0 0 0-12.82-8.62c-.28.01-.56-.03-.83-.13-.26-.1-.51-.25-.71-.44a2.14 2.14 0 0 1-.68-1.5 2.15 2.15 0 0 1 2.08-2.22 17.38 17.38 0 0 1 17.01 11.44c2.6 7.09.33 14.98-5.65 19.65-.38.3-.85.46-1.33.46"/><path fill="#102770" d="M18.88 56.92c-.88 0-1.71-.54-2.02-1.41l-5.65-15.43a2.13 2.13 0 0 1 .07-1.64c.12-.26.29-.48.5-.67s.45-.34.72-.43l22.16-8.02c.54-.2 1.13-.17 1.65.07s.92.67 1.11 1.21l5.64 15.43c.1.27.14.55.13.83s-.08.56-.2.81-.29.48-.5.67-.45.34-.72.43l-22.16 8.02c-.24.09-.48.13-.74.13zm-2.89-16.3 4.17 11.4 18.11-6.56-4.17-11.4zm76.8 1.71c-2.81 0-5.45-1.72-6.46-4.5L75.85 9.17c-.63-1.72-.55-3.57.23-5.23.38-.82.92-1.55 1.58-2.15.67-.61 1.44-1.08 2.29-1.38 1.72-.62 3.59-.54 5.25.23s2.92 2.14 3.55 3.86l10.48 28.66c1.3 3.54-.55 7.47-4.1 8.76-.75.27-1.54.41-2.34.41M82.3 4.29c-.3 0-.59.05-.88.15-.64.23-1.16.7-1.44 1.32-.14.3-.22.63-.24.97-.02.33.04.67.15.98l10.48 28.66c.24.64.71 1.15 1.33 1.44.61.29 1.32.32 1.96.08.32-.11.6-.29.85-.52a2.56 2.56 0 0 0 .83-1.77c.02-.33-.04-.67-.15-.98L84.71 5.96a2.57 2.57 0 0 0-2.41-1.68z"/><path fill="#102770" d="M56.1 57.95c-.57 0-1.12-.22-1.52-.63-.4-.4-.63-.95-.63-1.52v-7.04c0-.57.23-1.12.63-1.52s.95-.63 1.52-.63 1.12.23 1.52.63.63.95.63 1.52v7.04c0 .57-.23 1.12-.63 1.52s-.95.63-1.52.63m-49.11.77c-.88 0-1.71-.54-2.03-1.41L.94 46.29c-.1-.27-.14-.55-.13-.83s.08-.56.2-.81c.12-.26.29-.48.5-.67s.45-.34.72-.43l11.08-4.01c.54-.2 1.13-.17 1.65.07s.92.67 1.11 1.21l4.03 11.02c.41 1.11-.17 2.34-1.29 2.75L7.73 58.6c-.24.09-.49.13-.74.13zM5.72 46.84l2.56 6.99 7.03-2.54-2.56-6.99-7.03 2.55z"/><path fill="#fff6e1" d="M60.81 60.5c0 2.59-2.11 4.69-4.72 4.69s-4.72-2.1-4.72-4.69 2.11-4.69 4.72-4.69 4.72 2.1 4.72 4.69"/><path fill="#102770" d="M56.1 67.33c-3.79 0-6.87-3.07-6.87-6.84s3.08-6.83 6.87-6.83 6.87 3.07 6.87 6.83-3.08 6.84-6.87 6.84m0-9.38c-1.41 0-2.56 1.14-2.56 2.55a2.56 2.56 0 0 0 2.56 2.56 2.56 2.56 0 0 0 2.56-2.56c0-1.41-1.15-2.55-2.56-2.55"/><path fill="#102770" d="M56.1 111.04c-1.19 0-2.15-1.17-2.15-2.61V65.64c0-1.44.96-2.61 2.15-2.61s2.15 1.17 2.15 2.61v42.79c0 1.44-.96 2.61-2.15 2.61"/><path fill="#102770" d="M91.46 102.52c-.28 0-.56-.05-.82-.16s-.5-.27-.7-.47L54.57 66.7c-.84-.84-.84-2.19 0-3.03.4-.4.95-.63 1.52-.63s1.12.23 1.52.63l35.37 35.19c.84.84.84 2.19 0 3.03-.2.2-.44.36-.7.47s-.54.16-.82.16"/><path fill="#102770" d="M7.8 60.93c-.88 0-1.71-.54-2.02-1.41L.13 44.09c-.1-.27-.14-.55-.13-.83s.08-.56.2-.81c.12-.26.29-.48.5-.67s.45-.34.72-.43c.54-.19 1.13-.17 1.64.07.52.24.92.67 1.12 1.21l5.64 15.43c.41 1.11-.17 2.34-1.29 2.75-.24.09-.49.13-.74.13zm12.93 41.59c-.28 0-.56-.05-.82-.16s-.5-.27-.7-.47c-.84-.84-.84-2.19 0-3.03l35.37-35.19c.4-.4.95-.63 1.52-.63s1.12.23 1.52.63c.84.84.84 2.19 0 3.03l-35.37 35.19c-.2.2-.44.36-.7.47s-.54.16-.82.16"/><path fill="#9ae0e6" d="M31.01 67.1s-.06.07-.1.1c.03.03.07.06.1.1.03-.03.06-.07.1-.1-.03-.03-.07-.06-.1-.1"/></g><defs><clipPath id="a"><path fill="#fff" d="M0 0h105v111.04H0z"/></clipPath></defs></svg>