<svg width="116" height="97" viewBox="0 0 116 97" fill="none" xmlns="http://www.w3.org/2000/svg">
<path d="M114.002 69.2162C114.002 73.6948 110.338 77.3592 105.859 77.3592H10.1782C5.69953 77.3592 2.03516 73.6948 2.03516 69.2162V9.16112C2.03516 4.68244 5.69953 1.01807 10.1782 1.01807H105.859C110.338 1.01807 114.002 4.68244 114.002 9.16112V69.2162Z" fill="#FFE5C0"/>
<path d="M105.249 1.01807H9.56763C5.08895 1.01807 1.52637 4.1735 1.52637 8.65218V65.1446H113.493V8.65218C113.493 4.1735 109.727 1.01807 105.249 1.01807Z" fill="#FFF5E6"/>
<path d="M63.3647 66.1094C57.7528 66.1094 113.745 66.1094 113.745 66.1094L115.02 27.1039C115.02 22.5129 63.3647 66.1094 63.3647 66.1094Z" fill="#FFC676" fill-opacity="0.2"/>
<path d="M112.139 96.6985H1.00035C0.400139 96.6985 0 96.1896 0 95.4262C0 94.6627 0.400139 94.1538 1.00035 94.1538H112.239C112.839 94.1538 113.239 94.6627 113.239 95.4262C113.239 96.1896 112.739 96.6985 112.139 96.6985Z" fill="#313178"/>
<path fill-rule="evenodd" clip-rule="evenodd" d="M10.1805 78.3769H105.861C110.951 78.3769 115.022 74.3054 115.022 69.216V9.16094C115.022 4.07153 110.951 0 105.861 0H10.1805C5.09106 0 1.01953 4.07153 1.01953 9.16094V69.216C1.01953 74.3054 5.09106 78.3769 10.1805 78.3769ZM3.05502 9.16067C3.05502 5.19093 6.21046 2.03549 10.1802 2.03549H105.861C109.831 2.03549 112.986 5.19093 112.986 9.16067V69.2157C112.986 73.1854 109.831 76.3409 105.861 76.3409H10.1802C6.21046 76.3409 3.05502 73.1854 3.05502 69.2157V9.16067Z" fill="#313178"/>
<path d="M112.986 66.1627H2.03644C1.42571 66.1627 1.01855 65.7556 1.01855 65.1448C1.01855 64.5341 1.42571 64.127 2.03644 64.127H112.986C113.596 64.127 114.003 64.5341 114.003 65.1448C114.003 65.7556 113.596 66.1627 112.986 66.1627Z" fill="#313178"/>
<rect x="46.8232" y="77.3594" width="21.3755" height="18.3219" fill="#FFE5C0"/>
<rect x="46.8232" y="77.3594" width="21.3755" height="6.10729" fill="#FFD496"/>
<path fill-rule="evenodd" clip-rule="evenodd" d="M46.8226 96.6989H68.1981C68.8088 96.6989 69.216 96.2918 69.216 95.6811V77.3592C69.216 76.7485 68.8088 76.3413 68.1981 76.3413H46.8226C46.2118 76.3413 45.8047 76.7485 45.8047 77.3592V95.6811C45.8047 96.2918 46.2118 96.6989 46.8226 96.6989ZM67.1799 94.6634H47.8401V78.3773H67.1799V94.6634Z" fill="#313178"/>
<path d="M81.7357 95.6807C80.6161 92.6271 77.6642 90.5913 74.3052 90.5913H41.4276C38.0686 90.5913 35.1167 92.6271 33.9971 95.6807H81.7357Z" fill="#FFE5C0"/>
<path fill-rule="evenodd" clip-rule="evenodd" d="M33.9976 96.6987H81.7363C82.1434 96.6987 82.4488 96.4951 82.6524 96.2915C82.8559 96.0879 82.8559 95.6808 82.7541 95.3754C81.3291 91.9146 78.0719 89.6753 74.3057 89.6753H41.5299C37.7638 89.6753 34.4048 91.9146 33.0815 95.3754C32.9797 95.6808 32.9797 95.9862 33.1833 96.2915C33.3869 96.4951 33.6922 96.6987 33.9976 96.6987ZM80.1071 94.6633H35.7274C36.9489 92.7293 39.0865 91.6096 41.4276 91.6096H74.3052C76.7481 91.6096 78.8856 92.7293 80.1071 94.6633Z" fill="#313178"/>
<path opacity="0.5" d="M10.8927 37.4948C10.6322 37.4948 10.2413 37.3627 9.98072 37.0987C9.45955 36.5706 9.45955 35.7784 9.98072 35.2503L38.6446 6.20419C39.1658 5.67608 39.9475 5.67608 40.4687 6.20419C40.9899 6.7323 40.9899 7.52447 40.4687 8.05258L11.8048 37.0987C11.5442 37.3627 11.1533 37.4948 10.8927 37.4948Z" fill="white"/>
<path opacity="0.5" d="M15.9124 61.2601C15.5168 61.2601 15.2531 61.1282 14.9893 60.8645C14.4619 60.337 14.4619 59.5458 14.9893 59.0183L69.0545 4.95322C69.5819 4.42575 70.3731 4.42575 70.9006 4.95322C71.4281 5.48068 71.4281 6.27188 70.9006 6.79934L16.8355 60.8645C16.5717 61.1282 16.308 61.2601 15.9124 61.2601Z" fill="white"/>
<path opacity="0.5" d="M52.6065 47.9183C52.2095 47.9183 51.9449 47.786 51.6802 47.5213C51.1509 46.992 51.1509 46.198 51.6802 45.6687L79.4695 17.8794C79.9988 17.3501 80.7928 17.3501 81.3221 17.8794C81.8514 18.4087 81.8514 19.2027 81.3221 19.732L53.5328 47.5213C53.2682 47.786 53.0035 47.9183 52.6065 47.9183Z" fill="white"/>
<path opacity="0.5" d="M68.4324 52.0873C68.0404 52.0873 67.7792 51.9539 67.5179 51.6871C66.9953 51.1534 66.9953 50.2195 67.5179 49.6858L84.3702 32.475C84.8927 31.9413 85.8072 31.9413 86.3298 32.475C86.8523 33.0086 86.8523 33.9426 86.3298 34.4762L69.4775 51.6871C69.2162 51.9539 68.8243 52.0873 68.4324 52.0873Z" fill="white"/>
<path opacity="0.5" d="M90.9387 29.5734C90.5496 29.5734 90.2902 29.439 90.0307 29.1703C89.5119 28.633 89.5119 27.8269 90.0307 27.2895L99.1105 17.8855C99.6294 17.3481 100.408 17.3481 100.926 17.8855C101.445 18.4228 101.445 19.2289 100.926 19.7663L91.8467 29.1703C91.5873 29.439 91.1981 29.5734 90.9387 29.5734Z" fill="white"/>
<path d="M40.9165 53.1001C37.5091 50.4072 35.2559 38.4814 35.2559 38.4814C35.2559 38.4814 47.4015 38.0967 50.8088 40.7896C54.2162 43.5375 54.7658 48.4837 52.0179 51.891C49.27 55.2434 44.3238 55.793 40.9165 53.1001Z" fill="#75B600"/>
<path d="M49.4903 43.6472C46.028 40.8993 33.7725 41.284 33.7725 41.284C33.7725 41.284 36.0807 53.2648 39.543 56.0126C43.0053 58.7605 48.0065 58.2109 50.7543 54.7486C53.5022 51.3962 52.9526 46.3951 49.4903 43.6472Z" fill="#75B600"/>
<path d="M51.9632 48.703C49.2702 52.1104 44.2691 52.6599 40.8618 49.9121C39.0482 48.4282 37.1246 44.5262 35.8057 41.1738C36.685 44.856 38.4986 51.1761 40.8618 53.0996C44.2691 55.7925 49.2153 55.2429 51.9632 51.8905C53.502 49.967 53.9966 47.6039 53.502 45.3506C53.2821 46.5047 52.7875 47.6588 51.9632 48.703Z" fill="#5C8E0D"/>
<path d="M45.8077 55.5732C43.9392 55.5732 42.1256 54.9137 40.6417 53.7047C37.1794 50.9018 34.9811 39.1409 34.8712 38.6463C34.8162 38.4814 34.8712 38.3166 34.9811 38.2066C35.091 38.0967 35.2009 37.9868 35.3658 37.9868C35.3658 37.9868 35.9703 37.9868 36.9596 37.9868C41.0814 37.9868 48.3358 38.3166 50.9737 40.4599C54.5459 43.3727 55.0955 48.7585 52.2927 52.3857C50.6989 54.4191 48.3358 55.5732 45.8077 55.5732ZM36.0802 39.086C36.5749 41.5591 38.6083 50.627 41.3562 52.8253C42.6202 53.8695 44.2139 54.4191 45.8627 54.4191C48.061 54.4191 50.0944 53.4299 51.4683 51.6712C53.9414 48.4837 53.4468 43.8673 50.3142 41.2843C48.6105 39.9103 43.6644 39.086 37.0145 39.086C36.6298 39.086 36.3001 39.086 36.0802 39.086Z" fill="#46600E"/>
<path d="M58.5028 52.8249C50.0393 52.8249 44.1589 46.3949 43.8841 46.0651C43.6643 45.8453 43.7192 45.5155 43.939 45.2957C44.1589 45.0759 44.4886 45.1308 44.7084 45.3507C44.7634 45.4056 50.479 51.7807 58.4478 51.8356C59.3271 51.8356 60.2065 51.7807 61.1407 51.6158C61.4155 51.5609 61.7453 51.7807 61.8002 52.0555C61.8552 52.3303 61.6354 52.66 61.3606 52.715C60.3713 52.8249 59.4371 52.8249 58.5028 52.8249Z" fill="#46600E"/>
<path d="M42.8401 9.354C46.7421 7.48545 58.503 10.5631 58.503 10.5631C58.503 10.5631 53.6117 21.6645 49.7098 23.533C45.8078 25.4016 41.0814 23.7529 39.2129 19.8509C37.2894 15.9489 38.9381 11.2775 42.8401 9.354Z" fill="#75B600"/>
<path d="M42.6759 11.7724C38.719 13.6959 37.0702 18.4772 38.9388 22.4341C40.8623 26.446 45.6436 28.0947 49.6005 26.2262C53.5575 24.3027 58.5037 13.0364 58.5037 13.0364C58.5037 13.0364 46.6328 9.84886 42.6759 11.7724Z" fill="#75B600"/>
<path d="M49.655 20.5652C45.753 22.4338 41.0267 20.7851 39.1581 16.8831C38.8833 16.2786 38.6635 15.6191 38.5536 14.9596C38.2238 16.5533 38.3887 18.312 39.1581 19.9057C41.0267 23.8077 45.753 25.4565 49.655 23.5879C52.6777 22.159 56.2499 15.2344 57.7887 12.1567C55.2607 15.4542 51.9083 19.521 49.655 20.5652Z" fill="#5C8E0D"/>
<path d="M72.6817 28.0943C68.2851 27.9844 64.6579 31.4467 64.548 35.7884C64.4381 40.13 72.1871 49.5278 72.1871 49.5278C72.1871 49.5278 80.3758 40.5147 80.4857 36.1731C80.5956 31.7765 77.0783 28.2043 72.6817 28.0943Z" fill="#75B600"/>
<path d="M46.1371 24.7968C42.8946 24.7968 39.8719 22.9283 38.443 20.0705C36.4096 15.9487 38.2232 10.9475 42.4549 8.96906C43.3892 8.5294 44.7082 8.30957 46.4668 8.30957C51.5229 8.30957 58.3377 10.0682 58.6124 10.1232C58.7773 10.1781 58.8872 10.288 58.9971 10.398C59.0521 10.5628 59.0521 10.7277 58.9971 10.8376C58.7773 11.2773 53.9411 21.994 49.8192 23.9175C48.6651 24.522 47.4011 24.7968 46.1371 24.7968ZM46.4668 9.40872C44.8731 9.40872 43.664 9.57359 42.8946 9.9583C39.2124 11.662 37.6736 16.0036 39.4323 19.6308C40.6413 22.1039 43.2793 23.7526 46.1371 23.7526C47.2362 23.7526 48.3354 23.5328 49.3246 23.0382C52.5671 21.4994 56.634 13.3657 57.6782 11.0574C55.8646 10.6178 50.5337 9.40872 46.4668 9.40872Z" fill="#46600E"/>
<path d="M34.8707 28.699C34.8157 28.699 34.7607 28.699 34.7058 28.699C34.431 28.6441 34.2661 28.3143 34.3211 28.0395C37.069 18.2571 47.401 15.2894 47.8406 15.1795C48.1154 15.1245 48.4452 15.2894 48.5001 15.5642C48.5551 15.839 48.3902 16.1687 48.1154 16.2237C48.0055 16.2786 37.9483 19.1914 35.3653 28.3143C35.3653 28.5341 35.1454 28.699 34.8707 28.699Z" fill="#46600E"/>
<path d="M81.2554 32.9306C81.1455 37.2723 73.0667 46.3403 73.0667 46.3403C73.0667 46.3403 65.3727 36.9425 65.4826 32.6009C65.5925 28.2592 69.1648 24.7969 73.5614 24.9068C77.903 24.9618 81.3104 28.589 81.2554 32.9306Z" fill="#75B600"/>
<path d="M73.0667 43.4821C73.0667 43.4821 66.8016 35.7881 65.6475 31.1167C65.5376 31.6113 65.4826 32.051 65.4826 32.6006C65.3727 36.9422 73.0667 46.3399 73.0667 46.3399C73.0667 46.3399 81.1455 37.2719 81.2554 32.9303C81.2554 32.3258 81.2005 31.7212 81.0905 31.1717C79.9364 35.7881 73.0667 43.4821 73.0667 43.4821Z" fill="#5C8E0D"/>
<path d="M73.2875 46.7801C73.1226 46.7801 72.9578 46.7252 72.8478 46.5603C72.5731 46.1756 64.9889 36.9977 65.0988 32.4912C65.2088 27.9297 69.0008 24.2476 73.6173 24.2476H73.8371C78.5085 24.3575 82.2456 28.2045 82.1357 32.8759C82.0257 37.3824 74.0569 46.2306 73.7272 46.6153C73.6172 46.7252 73.4524 46.7801 73.2875 46.7801ZM73.6173 25.3467C69.6054 25.3467 66.3079 28.5342 66.198 32.4912C66.143 36.0634 71.7487 43.3728 73.3425 45.3512C74.9912 43.4277 80.9816 36.3382 81.0365 32.8209C81.1464 28.7541 77.9039 25.4017 73.7821 25.3467H73.6173Z" fill="#46600E"/>
<path d="M73.2867 35.2389C73.2317 35.2389 73.2317 35.2389 73.1767 35.2389C72.902 35.184 72.6821 34.9092 72.7371 34.5795C72.7371 34.4695 74.7156 24.1925 67.736 17.7075C67.5161 17.4877 67.5161 17.1579 67.681 16.9381C67.9008 16.7183 68.2306 16.7183 68.4504 16.8831C75.9246 23.7528 73.8912 34.3047 73.7813 34.7443C73.7813 35.0741 73.5615 35.2389 73.2867 35.2389Z" fill="#46600E"/>
<path opacity="0.5" d="M41.5754 13.8608C41.4655 13.8608 41.3555 13.8608 41.3006 13.8058C41.0258 13.6409 40.9708 13.3112 41.1357 13.0364C41.1907 12.9265 42.7844 10.3984 48.4451 10.3984C50.0938 10.3984 54.985 11.2228 55.2048 11.2778C55.4796 11.3327 55.6994 11.6075 55.6445 11.9372C55.5895 12.212 55.3147 12.4319 54.985 12.3769C54.93 12.3769 49.9839 11.5525 48.4451 11.5525C43.4989 11.5525 42.07 13.6409 42.07 13.6409C41.9601 13.7508 41.7952 13.8608 41.5754 13.8608Z" fill="white"/>
<path opacity="0.5" d="M51.2488 46.5604C51.0289 46.5604 50.8091 46.4505 50.7541 46.2307C50.7541 46.1757 49.5451 43.263 46.7972 42.2188C43.8845 41.0647 38.3887 41.1197 38.3338 41.1197C38.004 41.1197 37.7842 40.8998 37.7842 40.5701C37.7842 40.2403 38.004 40.0205 38.3338 40.0205C38.5536 40.0205 44.1043 40.0205 47.1819 41.2296C50.3694 42.4936 51.6884 45.7361 51.7434 45.901C51.8533 46.1757 51.6884 46.5055 51.4136 46.6154C51.3587 46.5604 51.3037 46.5604 51.2488 46.5604Z" fill="white"/>
<path opacity="0.5" d="M78.8371 32.1613C78.5623 32.1613 78.2875 31.9414 78.2875 31.6666C78.1776 30.1278 76.1442 28.589 75.3748 28.0944C75.1 27.9295 75.0451 27.5998 75.2099 27.325C75.3748 27.0502 75.7045 26.9953 75.9793 27.1601C76.0892 27.2151 79.2768 29.1386 79.3867 31.6117C79.3867 31.8315 79.1669 32.1063 78.8371 32.1613Z" fill="white"/>
<path opacity="0.5" d="M67.8453 32.546C67.7903 32.546 67.7353 32.546 67.6804 32.546C67.4056 32.4911 67.2407 32.1613 67.2957 31.8865C67.3506 31.7766 68.0651 29.1936 70.4283 27.7098C70.703 27.5449 71.0328 27.6548 71.1977 27.8746C71.3625 28.1494 71.2526 28.4792 71.0328 28.644C69.0543 29.8531 68.3948 32.1613 68.3948 32.1613C68.2849 32.3811 68.0651 32.546 67.8453 32.546Z" fill="white"/>
<rect x="87.0635" y="65.7979" width="4.08751" height="11.2406" transform="rotate(-45.0081 87.0635 65.7979)" fill="#8585F6"/>
<path d="M89.9466 62.9258L87.0342 65.8382L90.0998 68.9038C90.6108 68.4951 91.0706 68.0863 91.5305 67.6265C92.0414 67.1155 92.5013 66.5535 92.9611 65.9914L89.9466 62.9258Z" fill="#8585F6"/>
<path fill-rule="evenodd" clip-rule="evenodd" d="M94.6474 74.1152C94.7496 74.2173 94.8518 74.2684 95.0051 74.2684C95.1584 74.2684 95.2606 74.2173 95.3628 74.1662L98.2751 71.2539C98.4795 71.0495 98.4795 70.7429 98.2751 70.5385L90.3044 62.5678C90.1 62.3635 89.7935 62.3635 89.5891 62.5678L86.6767 65.4802C86.5745 65.5824 86.5234 65.6846 86.5234 65.8379C86.5234 65.9912 86.5745 66.0933 86.6767 66.1955L94.6474 74.1152ZM95.0049 73.042L87.8006 65.8377L89.9466 63.6407L97.1509 70.8961L95.0049 73.042Z" fill="#0C508E"/>
<path d="M64.0061 40.0654C71.0496 33.0218 82.4703 33.0218 89.5139 40.0654C96.5572 47.1088 96.5569 58.5286 89.5139 65.5722C82.4703 72.6158 71.0496 72.6158 64.0061 65.5722C56.963 58.5286 56.9627 47.1088 64.0061 40.0654ZM85.5022 44.0771C80.6734 39.2484 72.8445 39.2484 68.0158 44.0771C63.1874 48.9058 63.1873 56.7348 68.0158 61.5634C72.8444 66.392 80.6734 66.3918 85.5022 61.5634C90.3309 56.7347 90.3309 48.9058 85.5022 44.0771Z" fill="#8585F6"/>
<path fill-rule="evenodd" clip-rule="evenodd" d="M63.735 65.5827C67.2094 69.0571 71.859 70.9476 76.7641 70.9476C81.6691 70.9476 86.3187 69.0571 89.7931 65.5827C93.2675 62.1083 95.158 57.4587 95.158 52.5536C95.158 47.6486 93.2675 42.999 89.7931 39.5246C86.3187 36.0502 81.6691 34.1597 76.7641 34.1597C71.859 34.1597 67.2094 36.0502 63.735 39.5757C56.5818 46.7289 56.5818 58.4295 63.735 65.5827ZM64.4504 40.2909C67.7716 36.9697 72.1146 35.1814 76.7642 35.1814C81.4137 35.1814 85.7568 36.9697 89.0779 40.2398C92.399 43.5609 94.1873 47.9039 94.1873 52.5535C94.1873 57.2031 92.3479 61.5972 89.0779 64.8672C85.7568 68.1884 81.4137 69.9767 76.7642 69.9767C72.1146 69.9767 67.7205 68.1373 64.4504 64.8672C57.6549 58.0717 57.6549 47.0864 64.4504 40.2909Z" fill="#0C508E"/>
<circle opacity="0.1574" cx="76.7578" cy="52.8203" r="12.3647" transform="rotate(-45 76.7578 52.8203)" fill="#8585F6"/>
<path d="M108.546 77.59C110.538 79.5826 110.64 82.6994 108.801 84.5388C106.962 86.3782 103.845 86.276 101.852 84.2833L94.188 76.6192C92.1953 74.6265 92.0931 71.5097 93.9325 69.6703C95.7719 67.8309 98.8887 67.9331 100.881 69.9258L108.546 77.59Z" fill="#613FDD"/>
<path d="M109.364 81.9834C107.525 83.8228 104.408 83.7206 102.415 81.728L94.751 74.0638C93.8313 73.1441 93.2693 71.9178 93.2182 70.7427C92.2474 72.5821 92.605 74.9835 94.2401 76.6185L101.904 84.2827C103.897 86.2754 107.014 86.3775 108.853 84.5381C109.824 83.5674 110.233 82.2389 110.13 80.9104C109.926 81.3192 109.671 81.6769 109.364 81.9834Z" fill="#452D9D"/>
<path fill-rule="evenodd" clip-rule="evenodd" d="M101.393 84.5386C102.517 85.6627 103.998 86.2758 105.48 86.2758C106.86 86.2758 108.086 85.7649 109.057 84.8452C111.1 82.8525 110.998 79.4292 108.801 77.2321L101.188 69.619C100.064 68.495 98.5823 67.8818 97.1006 67.8818C95.7211 67.8818 94.4437 68.3928 93.524 69.3125C91.4802 71.3052 91.5824 74.7285 93.7795 76.9255L101.393 84.5386ZM94.2394 70.0276C95.0058 69.3123 96.0277 68.9035 97.1007 68.9035C98.327 68.9035 99.5532 69.4144 100.422 70.3341L108.035 77.9472C109.823 79.7355 109.925 82.4946 108.29 84.1296C107.524 84.8449 106.502 85.2537 105.429 85.2537C104.203 85.2537 103.028 84.7427 102.108 83.8231L94.4949 76.21C92.7066 74.4217 92.6044 71.6626 94.2394 70.0276Z" fill="#102770"/>
<path d="M67.057 51.0204C67.0059 51.0204 66.9548 51.0204 66.9548 51.0204C66.6994 50.9693 66.495 50.6627 66.5972 50.4073C67.9767 44.7358 73.7504 41.2614 79.4219 42.692C81.0569 43.1008 82.5386 43.8672 83.7649 44.9402C83.9693 45.1445 84.0204 45.4511 83.816 45.6555C83.6116 45.8599 83.305 45.911 83.1007 45.7066C81.9766 44.7358 80.6481 44.0205 79.1664 43.6628C74.057 42.3855 68.8453 45.5533 67.6191 50.6627C67.5169 50.8671 67.3125 51.0204 67.057 51.0204Z" fill="white"/>
<path d="M86.7794 55.5679C86.7283 55.5679 86.7283 55.5679 86.6772 55.5679C86.4217 55.5168 86.2685 55.2102 86.3196 54.9548C86.7283 53.0132 86.6261 51.0205 86.013 49.1811C85.9108 48.9256 86.0641 48.6191 86.2685 48.5169C86.5239 48.4147 86.7794 48.568 86.8816 48.8234C87.5969 50.8672 87.6991 53.0643 87.2393 55.2102C87.1371 55.4146 86.9838 55.5679 86.7794 55.5679Z" fill="white"/>
<path opacity="0.3" d="M85.502 57.4585C80.6991 62.2614 72.8817 62.2614 68.0277 57.4585C66.1372 55.568 65.0132 53.2177 64.6044 50.7651C63.9913 54.5461 65.1153 58.5826 68.0277 61.546C72.8306 66.3489 80.648 66.3489 85.502 61.546C88.4144 58.6337 89.5895 54.5972 88.9253 50.7651C88.5165 53.2177 87.3925 55.568 85.502 57.4585Z" fill="#8585F6"/>
<path fill-rule="evenodd" clip-rule="evenodd" d="M67.721 62.0058C70.1225 64.4583 73.3414 65.8379 76.7647 65.8379C80.188 65.8379 83.407 64.4583 85.8084 62.0058C88.2098 59.5533 89.5383 56.2833 89.5383 52.8088C89.5383 49.3344 88.2098 46.0644 85.8084 43.6119C83.407 41.1593 80.188 39.7798 76.7647 39.7798C73.3414 39.7798 70.1225 41.1593 67.721 43.5608C62.7649 48.6702 62.7649 56.9475 67.721 62.0058ZM68.4356 44.3271C70.6838 42.0278 73.6472 40.8015 76.764 40.8015C79.8807 40.8015 82.8442 42.0789 85.0924 44.3271C87.2894 46.5752 88.5157 49.5898 88.5157 52.8087C88.5157 56.0277 87.2894 59.0422 85.0924 61.2904C82.8442 63.5896 79.9318 64.8159 76.764 64.8159C73.5961 64.8159 70.6838 63.5385 68.4356 61.2904C63.8371 56.5897 63.8371 49.0277 68.4356 44.3271Z" fill="#0C508E"/>
<path opacity="0.5" d="M105.889 79.1227C105.786 79.1227 105.633 79.0716 105.531 78.9694L101.903 75.3417C101.699 75.1374 101.699 74.8308 101.903 74.6264C102.108 74.4221 102.414 74.4221 102.619 74.6264L106.246 78.2541C106.451 78.4585 106.451 78.7651 106.246 78.9694C106.144 79.0716 106.042 79.1227 105.889 79.1227Z" fill="white"/>
<path opacity="0.5" d="M99.2461 72.4805C99.1439 72.4805 98.9906 72.4294 98.8884 72.3272C97.9687 71.3564 96.5892 71.1521 95.976 71.8163C95.7716 72.0207 95.4651 72.0207 95.2607 71.8163C95.0563 71.6119 95.0563 71.3054 95.2607 71.101C96.2826 70.028 98.2242 70.2835 99.5526 71.6119C99.757 71.8163 99.757 72.1229 99.5526 72.3272C99.5015 72.4294 99.3993 72.4805 99.2461 72.4805Z" fill="white"/>
<path opacity="0.5" d="M76.8669 67.8818C72.8816 67.8818 69.1517 66.349 66.3415 63.5388C61.6919 58.8892 60.6189 51.8382 63.7357 46.0645C64.451 44.7872 65.3196 43.5609 66.3415 42.539C66.5459 42.3346 66.8525 42.3346 67.0568 42.539C67.2612 42.7434 67.2612 43.05 67.0568 43.2543C66.086 44.2251 65.2685 45.3492 64.6043 46.5755C61.743 51.9915 62.7138 58.5315 67.0568 62.8746C69.6626 65.4804 73.1882 66.911 76.8669 66.911C80.5968 66.911 84.0712 65.4804 86.6771 62.8746C86.8814 62.6702 87.188 62.6702 87.3924 62.8746C87.5968 63.0789 87.5968 63.3855 87.3924 63.5899C84.5822 66.349 80.8523 67.8818 76.8669 67.8818Z" fill="white"/>
<path opacity="0.5" d="M89.2326 60.7282C89.1304 60.7282 89.0793 60.7282 88.9771 60.6771C88.7727 60.5238 88.6705 60.2173 88.8238 59.9618C89.999 57.7647 90.6632 55.21 90.6632 52.6042C90.6632 52.2976 90.8676 52.0933 91.123 52.0933C91.3785 52.0933 91.5829 52.3487 91.5829 52.6042C91.5829 55.3633 90.9187 58.1224 89.6413 60.4727C89.5391 60.626 89.3858 60.7282 89.2326 60.7282Z" fill="white"/>
<path d="M87.853 43.2541C87.853 43.0497 87.6486 42.8454 87.342 42.7943L84.9406 42.3344C84.6851 42.2833 84.3786 42.0278 84.3275 41.7213L83.9187 39.2688C83.8676 39.0133 83.6633 38.7578 83.4589 38.7578C83.2545 38.7578 83.0501 38.9622 82.999 39.2688L82.5903 41.7213C82.5392 41.9768 82.2837 42.2833 81.9771 42.3344L79.5246 42.7432C79.2691 42.7943 79.0137 42.9986 79.0137 43.203C79.0137 43.4074 79.218 43.6118 79.5246 43.6629L81.926 43.9694C82.1815 44.0205 82.4881 44.276 82.5392 44.5315L82.999 47.0862C83.0501 47.3417 83.2545 47.5971 83.4589 47.5971C83.6633 47.5971 83.8676 47.3928 83.9187 47.0862L84.3786 44.4804C84.4297 44.2249 84.6851 43.9694 84.9917 43.9183L87.3931 43.6118C87.5975 43.6629 87.853 43.4585 87.853 43.2541Z" fill="white"/>
</svg>
