<svg width="120" height="79" viewBox="0 0 120 79" fill="none" xmlns="http://www.w3.org/2000/svg">
<g id="Group 204">
<g id="Group Copy 12">
<g id="Group">
<g id="Group_2">
<path id="Path" d="M103.921 66.2744H16.0793C11.7268 66.2744 8.19263 62.737 8.19263 58.3806V8.88434C8.19263 4.52788 11.7268 0.990509 16.0793 0.990509H103.921C108.274 0.990509 111.808 4.52788 111.808 8.88434V58.3806C111.808 62.737 108.283 66.2744 103.921 66.2744Z" fill="#5C6A79"/>
<g id="Group_3" opacity="0.66">
<path id="Path_2" d="M111.367 8.71308V58.2093C111.367 60.4055 110.477 62.3857 109.029 63.8169C109.532 62.7728 109.82 61.6117 109.82 60.3695V9.49616C109.82 5.89578 106.906 2.97947 103.309 2.97947H14.1007C11.9334 2.97947 9.97299 3.85256 8.55212 5.26571C9.8291 2.63744 12.5269 0.819244 15.6474 0.819244H103.489C107.842 0.819244 111.367 4.35662 111.367 8.71308Z" fill="white"/>
</g>
<path id="Shape" fill-rule="evenodd" clip-rule="evenodd" d="M16.0794 67.2641H103.921C108.822 67.2641 112.797 63.2767 112.797 58.3802V8.88394C112.797 3.98742 108.813 0 103.921 0H16.0794C11.1873 0 7.20349 3.98742 7.20349 8.88394V58.3802C7.20349 63.2767 11.1873 67.2641 16.0794 67.2641ZM9.19117 8.88416C9.19117 5.07676 12.2847 1.98043 16.0887 1.98043H103.93C107.734 1.98043 110.828 5.07676 110.828 8.88416V58.3804C110.828 62.1878 107.734 65.2841 103.93 65.2841H16.0887C12.2847 65.2841 9.19117 62.1878 9.19117 58.3804V8.88416Z" fill="#102770"/>
<path id="Path_3" d="M105.666 10.7921V56.1929C105.666 58.1011 104.128 59.6403 102.221 59.6403H17.7879C15.8904 59.6403 14.3436 58.1011 14.3436 56.1929V10.7921C14.3436 8.89292 15.8814 7.34476 17.7879 7.34476H102.221C102.545 7.34476 102.86 7.38976 103.157 7.47077C104.604 7.88481 105.666 9.20795 105.666 10.7921Z" fill="#FBD000"/>
<g id="Group 2">
<g id="121-work-from-home-1 copy 2">
<g id="121-work-from-home-1 copy">
<path id="Path_4" d="M82.394 47.3668H40.8475C39.2367 47.3668 37.932 46.1084 37.932 44.5547V19.9273C37.932 18.3736 39.2367 17.1152 40.8475 17.1152H82.394C84.0049 17.1152 85.3096 18.3736 85.3096 19.9273V44.5547C85.3096 46.1084 84.0049 47.3668 82.394 47.3668Z" fill="#3C87EA"/>
<path id="Path_5" d="M83.9833 17.589C84.0562 17.8459 84.0999 18.1099 84.0999 18.3882V43.3874C84.0999 44.9646 82.7952 46.242 81.1844 46.242H39.6379C39.0548 46.242 38.5081 46.0708 38.049 45.7853C38.4061 46.97 39.5213 47.8406 40.8479 47.8406H82.3944C84.0052 47.8406 85.3099 46.5632 85.3099 44.986V19.9797C85.3099 18.9806 84.7778 18.0957 83.9833 17.589Z" fill="#2765B7"/>
<path id="Path_6" d="M67.6197 42.8593H55.6222C53.6105 42.8593 51.9778 41.2266 51.9778 39.2149V21.6925C51.9778 16.3643 56.2928 12.0493 61.6209 12.0493C66.9491 12.0493 71.2641 16.3643 71.2641 21.6925V39.2222C71.2641 41.2266 69.6314 42.8593 67.6197 42.8593Z" fill="#586B87"/>
<path id="Path_7" fill-rule="evenodd" clip-rule="evenodd" d="M67.6197 42.8593H55.6222C53.6105 42.8593 51.9778 41.2266 51.9778 39.2149V21.6925C51.9778 16.3643 56.2928 12.0493 61.6209 12.0493V12.0493C66.9491 12.0493 71.2641 16.3643 71.2641 21.6925V39.2222C71.2641 41.2266 69.6314 42.8593 67.6197 42.8593Z" stroke="#171819" stroke-width="0.460253" stroke-linecap="round" stroke-linejoin="round"/>
<g id="Group_4">
<path id="Path_8" d="M68.7787 30.9199C68.0279 29.2434 68.5381 26.1675 68.5381 26.1675C68.5381 26.1675 70.2291 25.927 70.63 26.5101C71.2787 27.4795 70.9799 30.9199 68.7787 30.9199Z" fill="#FFDEC5"/>
<path id="Path_9" d="M68.5382 26.1676C68.5382 26.1676 68.458 26.6632 68.407 27.3702C68.407 27.3702 69.7846 26.532 70.8998 27.3702C70.8415 27.0422 70.7613 26.7142 70.6228 26.5102C70.2292 25.9198 68.5382 26.1676 68.5382 26.1676Z" fill="#F9C0B2"/>
<path id="Path_10" fill-rule="evenodd" clip-rule="evenodd" d="M68.7787 30.9199C68.0279 29.2434 68.5381 26.1675 68.5381 26.1675C68.5381 26.1675 70.2291 25.927 70.63 26.5101C71.2787 27.4795 70.9799 30.9199 68.7787 30.9199Z" stroke="#171819" stroke-width="0.460253" stroke-linecap="round" stroke-linejoin="round"/>
</g>
<g id="Group_5">
<path id="Path_11" d="M73.553 47.1724H49.6893V44.9077C49.6893 43.0183 51.1617 41.3325 53.3921 40.6646L61.6212 38.209L69.8503 40.6646C72.0807 41.3325 73.553 43.0183 73.553 44.9077V47.1724Z" fill="#FFE870"/>
<path id="Path_12" d="M50.7316 44.9698C50.7316 43.079 52.204 41.392 54.4344 40.7236L62.248 38.3936L61.6212 38.209L53.3921 40.6599C51.1617 41.3284 49.6893 43.0154 49.6893 44.9061V47.1724H50.7316V44.9698Z" fill="#F0BF62"/>
<path id="Path_13" d="M69.8501 40.6646L61.621 38.2091L60.411 38.5717L67.4302 40.6646C69.6606 41.3326 71.1329 43.0184 71.1329 44.9078V47.1725H73.5528V44.9078C73.5528 43.0184 72.0805 41.3262 69.8501 40.6646Z" fill="#F0BF62"/>
<path id="Path_14" fill-rule="evenodd" clip-rule="evenodd" d="M73.553 47.1724H49.6893V44.9077C49.6893 43.0183 51.1617 41.3325 53.3921 40.6646L61.6212 38.209L69.8503 40.6646C72.0807 41.3325 73.553 43.0183 73.553 44.9077V47.1724V47.1724Z" stroke="#171819" stroke-width="0.460253" stroke-linecap="round" stroke-linejoin="round"/>
</g>
<g id="Group_6">
<path id="Path_15" d="M58.1151 36.0661V38.8941C58.1151 40.8257 59.6822 41.6712 61.6211 41.6712C63.5526 41.6712 65.127 40.833 65.127 38.8941V36.0661H58.1151Z" fill="#FFDEC5"/>
<path id="Path_16" d="M58.1151 37.6478C59.1647 38.1725 60.3528 38.4641 61.6211 38.4641C62.882 38.4641 64.0774 38.1725 65.127 37.6478V36.0661H58.1224V37.6478H58.1151Z" fill="#F9C0B2"/>
<path id="Path_17" fill-rule="evenodd" clip-rule="evenodd" d="M58.1151 36.0661V38.8941C58.1151 40.8257 59.6822 41.6712 61.6211 41.6712V41.6712C63.5526 41.6712 65.127 40.833 65.127 38.8941V36.0661H58.1151Z" stroke="#171819" stroke-width="0.460253" stroke-linecap="round" stroke-linejoin="round"/>
</g>
<path id="Path_18" fill-rule="evenodd" clip-rule="evenodd" d="M82.394 47.3668H40.8475C39.2367 47.3668 37.932 46.1084 37.932 44.5547V19.9273C37.932 18.3736 39.2367 17.1152 40.8475 17.1152H82.394C84.0049 17.1152 85.3096 18.3736 85.3096 19.9273V44.5547C85.3096 46.1084 84.0049 47.3668 82.394 47.3668Z" stroke="#171819" stroke-width="0.460253" stroke-linecap="round" stroke-linejoin="round"/>
<g id="Group_7">
<path id="Path_19" d="M89.69 25.9053H78.7567C76.745 25.9053 75.1123 27.538 75.1123 29.5498C75.1123 31.5615 76.745 33.1942 78.7567 33.1942H80.7903V34.9289L82.5251 33.1942H89.6827C91.6945 33.1942 93.3272 31.5615 93.3272 29.5498C93.3344 27.538 91.7017 25.9053 89.69 25.9053Z" fill="#00A8FF"/>
<g id="Group_8">
<path id="Path_20" d="M80.8859 33.1143C80.8859 32.6551 80.5142 32.2833 80.055 32.2833H78.2036C77.0665 32.2833 76.0534 31.7658 75.3828 30.9495C75.9295 32.2687 77.2342 33.1944 78.7503 33.1944H80.8786V33.1143H80.8859Z" fill="#008AEE"/>
<path id="Path_21" d="M92.5041 27.2394C92.6863 27.6695 92.781 28.1433 92.781 28.6389C92.781 30.6506 91.1483 32.2833 89.1366 32.2833H82.4892C82.1757 32.2833 81.8842 32.4583 81.7457 32.7425L80.8783 34.4335L80.7836 34.9365L82.5183 33.2017H89.676C91.6877 33.2017 93.3204 31.569 93.3204 29.5573C93.335 28.6753 93.0216 27.8663 92.5041 27.2394Z" fill="#008AEE"/>
</g>
<circle id="Oval" cx="80.7908" cy="29.5064" r="0.947551" stroke="white" stroke-width="0.460253" stroke-linecap="round" stroke-linejoin="round"/>
<circle id="Oval_2" cx="84.2238" cy="29.5064" r="0.947551" stroke="white" stroke-width="0.460253" stroke-linecap="round" stroke-linejoin="round"/>
<circle id="Oval_3" cx="87.7295" cy="29.5064" r="0.947551" stroke="white" stroke-width="0.460253" stroke-linecap="round" stroke-linejoin="round"/>
<path id="Path_22" fill-rule="evenodd" clip-rule="evenodd" d="M89.69 25.9053H78.7567C76.745 25.9053 75.1123 27.538 75.1123 29.5498V29.5498C75.1123 31.5615 76.745 33.1942 78.7567 33.1942H80.7903V34.9289L82.5251 33.1942H89.6827C91.6945 33.1942 93.3272 31.5615 93.3272 29.5498V29.5498C93.3344 27.538 91.7017 25.9053 89.69 25.9053Z" stroke="#171819" stroke-width="0.460253" stroke-linecap="round" stroke-linejoin="round"/>
</g>
<g id="Group_9">
<path id="Path_23" d="M35.1114 22.6873H46.0447C48.0564 22.6873 49.6891 24.32 49.6891 26.3317C49.6891 28.3435 48.0564 29.9762 46.0447 29.9762H44.0111V31.7182L42.2764 29.9835H35.1187C33.107 29.9835 31.4743 28.3508 31.4743 26.339C31.467 24.32 33.0997 22.6873 35.1114 22.6873Z" fill="#FFE870"/>
<g id="Group_10">
<path id="Path_24" d="M43.9169 29.8963C43.9169 29.4371 44.2886 29.0653 44.7478 29.0653H46.5992C47.7362 29.0653 48.7494 28.5478 49.42 27.7315C48.8733 29.0508 47.5686 29.9764 46.0525 29.9764H43.9242V29.8963H43.9169Z" fill="#FFAC73"/>
<path id="Path_25" d="M32.2907 24.0215C32.1085 24.4515 32.0137 24.9253 32.0137 25.4209C32.0137 27.4327 33.6464 29.0654 35.6582 29.0654H42.3056C42.619 29.0654 42.9106 29.2403 43.0491 29.5246L43.9164 31.2156L44.0112 31.7185L42.2765 29.9838H35.1188C33.1071 29.9838 31.4744 28.3511 31.4744 26.3393C31.4671 25.4574 31.7805 24.6483 32.2907 24.0215Z" fill="#FFAC73"/>
</g>
<circle id="Oval_4" cx="44.0112" cy="26.2881" r="0.947551" stroke="white" stroke-width="0.460253" stroke-linecap="round" stroke-linejoin="round"/>
<circle id="Oval_5" cx="40.5783" cy="26.2881" r="0.947551" stroke="white" stroke-width="0.460253" stroke-linecap="round" stroke-linejoin="round"/>
<circle id="Oval_6" cx="37.0718" cy="26.2881" r="0.947551" stroke="white" stroke-width="0.460253" stroke-linecap="round" stroke-linejoin="round"/>
<path id="Path_26" fill-rule="evenodd" clip-rule="evenodd" d="M35.1114 22.6873H46.0447C48.0564 22.6873 49.6891 24.32 49.6891 26.3317V26.3317C49.6891 28.3435 48.0564 29.9762 46.0447 29.9762H44.0111V31.7182L42.2764 29.9835H35.1187C33.107 29.9835 31.4743 28.3508 31.4743 26.339V26.339C31.467 24.32 33.0997 22.6873 35.1114 22.6873Z" stroke="#171819" stroke-width="0.460253" stroke-linecap="round" stroke-linejoin="round"/>
</g>
<g id="Group_11">
<path id="Path_27" d="M53.9965 22.2467V30.0604C53.9965 34.2733 57.4076 37.5096 61.6206 37.5096C65.8336 37.5096 69.2447 34.2733 69.2447 30.0604V22.2467H53.9965Z" fill="#FFDEC5"/>
<path id="Path_28" d="M61.6204 36.4163C57.4074 36.4163 53.9962 33.1801 53.9962 28.9671V30.0604C53.9962 34.2734 57.4074 37.5096 61.6204 37.5096C65.8333 37.5096 69.2445 34.2734 69.2445 30.0604V28.9671C69.2445 33.1801 65.8333 36.4163 61.6204 36.4163Z" fill="#F9C0B2"/>
<path id="Path_29" d="M53.9966 26.7439C58.8291 26.7657 63.2024 25.3663 65.8191 23.2233C66.2564 25.082 68.2171 26.5835 69.2522 26.5106V22.2393C67.5101 22.2393 58.3553 22.5965 54.0039 22.2393C53.9966 24.1417 53.9966 25.4464 53.9966 26.7439Z" fill="#F9C0B2"/>
<path id="Path_30" fill-rule="evenodd" clip-rule="evenodd" d="M53.9965 22.2467V30.0604C53.9965 34.2733 57.4076 37.5096 61.6206 37.5096V37.5096C65.8336 37.5096 69.2447 34.2733 69.2447 30.0604V22.2467H53.9965Z" stroke="#171819" stroke-width="0.460253" stroke-linecap="round" stroke-linejoin="round"/>
<g id="Group_12">
<path id="Path_31" d="M59.3607 27.4502C58.4715 27.2972 57.5531 27.2972 56.6638 27.4502" stroke="#171819" stroke-width="0.460253" stroke-linecap="round" stroke-linejoin="round"/>
<circle id="Oval_7" cx="57.4434" cy="28.1208" r="0.670575" fill="#171819"/>
<path id="Path_32" d="M66.0151 27.4503C65.1259 27.2972 64.2075 27.2972 63.3182 27.4503" stroke="#171819" stroke-width="0.460253" stroke-linecap="round" stroke-linejoin="round"/>
<circle id="Oval_8" cx="64.0906" cy="28.1208" r="0.670575" fill="#171819"/>
</g>
<path id="Path_33" d="M62.1818 34.2727C62.1818 34.2727 63.5448 34.4039 64.4923 32.9534" stroke="#171819" stroke-width="0.460253" stroke-linecap="round" stroke-linejoin="round"/>
<path id="Path_34" d="M60.3883 31.1608C60.4831 31.5836 60.9568 31.9043 61.5254 31.9043C62.0939 31.9043 62.5677 31.5836 62.6624 31.1608" stroke="#171819" stroke-width="0.460253" stroke-linecap="round" stroke-linejoin="round"/>
</g>
<g id="Group_13">
<path id="Path_35" d="M65.8411 13.019C65.2507 14.3529 64.9154 15.869 64.9154 17.4652C64.9154 21.9989 67.605 25.8182 71.264 26.9699V21.6855C71.264 17.8807 69.0482 14.5861 65.8411 13.019Z" fill="#637593"/>
<path id="Path_36" d="M65.8413 13.019C65.7392 13.2523 65.6445 13.4855 65.557 13.726C68.1008 15.4608 69.77 18.3836 69.77 21.6928V26.3285C70.2437 26.5909 70.7467 26.8168 71.2642 26.9772V21.6928C71.2642 17.8807 69.0484 14.5861 65.8413 13.019Z" fill="#586B87"/>
<path id="Path_37" fill-rule="evenodd" clip-rule="evenodd" d="M65.8411 13.019C65.2507 14.3529 64.9154 15.869 64.9154 17.4652C64.9154 21.9989 67.605 25.8182 71.264 26.9699V21.6855C71.264 17.8807 69.0482 14.5861 65.8411 13.019Z" stroke="#171819" stroke-width="0.460253" stroke-linecap="round" stroke-linejoin="round"/>
<path id="Path_38" d="M61.6209 12.0493C56.2928 12.0493 51.9778 16.3643 51.9778 21.6925V25.7451C52.5536 25.7815 53.1367 25.8034 53.7271 25.8034C61.3731 25.8034 67.9185 22.691 70.6373 18.2813C69.2597 14.6369 65.7464 12.0493 61.6209 12.0493Z" fill="#637593"/>
<path id="Path_39" d="M61.621 12.0494C59.9299 12.0494 58.341 12.4867 56.9634 13.2521C57.9474 12.9314 58.997 12.7637 60.0903 12.7637C64.4272 12.7637 68.1299 15.4897 69.5877 19.3164C69.2451 19.8776 68.8369 20.4097 68.385 20.9272C69.2961 20.1182 70.0615 19.2289 70.6446 18.2814C69.2597 14.637 65.7465 12.0494 61.621 12.0494Z" fill="#586B87"/>
<path id="Path_40" fill-rule="evenodd" clip-rule="evenodd" d="M61.6209 12.0493V12.0493C56.2928 12.0493 51.9778 16.3643 51.9778 21.6925V25.7451C52.5536 25.7815 53.1367 25.8034 53.7271 25.8034C61.3731 25.8034 67.9185 22.691 70.6373 18.2813C69.2597 14.6369 65.7464 12.0493 61.6209 12.0493Z" stroke="#171819" stroke-width="0.460253" stroke-linecap="round" stroke-linejoin="round"/>
<path id="Path_41" d="M59.0259 22.0499C61.7956 21.6271 65.1194 20.716 67.3498 18.7699" stroke="#171819" stroke-width="0.460253" stroke-linecap="round" stroke-linejoin="round"/>
<path id="Path_42" d="M54.0551 22.4272C54.0551 22.4272 55.1046 22.4632 56.6645 22.3192" stroke="#171819" stroke-width="0.460253" stroke-linecap="round" stroke-linejoin="round"/>
</g>
<g id="Group_14">
<path id="Path_43" d="M65.098 40.2573C64.0046 40.8477 62.8749 40.9206 61.6212 41.5475C60.3675 40.9206 59.2377 40.8477 58.1444 40.2573C58.0861 40.2282 56.6575 40.1845 56.6502 40.1845C56.7522 40.1772 56.5263 41.1466 56.6939 42.1889C56.8324 43.2312 57.3718 44.3391 58.1954 44.6015C58.2464 44.6161 58.2975 44.6234 58.3485 44.6234C59.3908 44.7254 61.0381 42.2545 61.6139 41.6714C62.1897 42.2545 63.8443 44.7254 64.8793 44.6234C64.9303 44.6161 64.9813 44.6088 65.0324 44.6015C65.8633 44.3391 66.4027 43.2312 66.5339 42.1889C66.7088 41.1466 66.4828 40.1845 66.5776 40.1845C66.5922 40.1845 65.1563 40.2282 65.098 40.2573Z" fill="#F0BF62"/>
<g id="Group_15">
<path id="Path_44" d="M58.1589 39.39L61.6211 41.6642C61.6211 41.6642 59.7989 44.2371 58.9024 44.0695C57.7435 43.8508 56.774 39.8638 56.774 39.8638L58.1589 39.39Z" fill="white"/>
<path id="Path_45" fill-rule="evenodd" clip-rule="evenodd" d="M58.1589 39.39L61.6211 41.6642C61.6211 41.6642 59.7989 44.2371 58.9024 44.0695C57.7435 43.8508 56.774 39.8638 56.774 39.8638L58.1589 39.39Z" stroke="#171819" stroke-width="0.460253" stroke-linecap="round" stroke-linejoin="round"/>
</g>
<g id="Group_16">
<path id="Path_46" d="M65.0835 39.39L61.6213 41.6715C61.6213 41.6715 63.4436 44.2444 64.3401 44.0768C65.499 43.8581 66.4684 39.8711 66.4684 39.8711L65.0835 39.39Z" fill="white"/>
<path id="Path_47" fill-rule="evenodd" clip-rule="evenodd" d="M65.0835 39.39L61.6213 41.6715C61.6213 41.6715 63.4436 44.2444 64.3401 44.0768C65.499 43.8581 66.4684 39.8711 66.4684 39.8711L65.0835 39.39Z" stroke="#171819" stroke-width="0.460253" stroke-linecap="round" stroke-linejoin="round"/>
</g>
<path id="Path_48" d="M61.6407 41.6715V46.3" stroke="#171819" stroke-width="0.460253" stroke-linecap="round" stroke-linejoin="round"/>
</g>
</g>
</g>
<g id="Group_17">
<circle id="Oval_9" cx="58.0786" cy="50.7456" r="2.04649" fill="#09C690"/>
<circle id="Oval_10" cx="65.0849" cy="50.7457" r="2.04649" fill="#FF4F7C"/>
<circle id="Oval_11" cx="65.0849" cy="50.7457" r="2.04649" stroke="#171819" stroke-width="0.460253" stroke-linecap="round" stroke-linejoin="round"/>
<path id="Path_49" d="M65.0846 50.2102C64.3381 50.2102 63.7452 50.4531 63.7452 50.7709V51.0709C63.7524 51.1888 63.8488 51.2852 63.9595 51.2852H64.4024C64.5596 51.2852 64.6631 51.1209 64.5917 50.9852C64.5453 50.8924 64.5846 50.7709 64.6703 50.7174C64.8667 50.5995 65.2881 50.5924 65.4953 50.7174C65.5917 50.7638 65.6239 50.8924 65.5739 50.9852C65.5024 51.1209 65.606 51.2852 65.7632 51.2852H66.206C66.3239 51.2781 66.4203 51.1817 66.4203 51.0709V50.7674C66.4168 50.4602 65.831 50.2102 65.0846 50.2102Z" fill="white"/>
<g id="Group_18">
<path id="Path_50" d="M58.2178 50.0314H57.1464C56.9999 50.0314 56.8821 50.1529 56.8821 50.2957V51.1922C56.8821 51.3386 57.0035 51.4565 57.1464 51.4565H58.2178C58.3643 51.4565 58.4821 51.335 58.4821 51.1922V50.2957C58.4857 50.1457 58.3643 50.0314 58.2178 50.0314Z" fill="white"/>
<path id="Path_51" d="M59.0789 50.1779C59.0646 50.1815 59.0467 50.1886 59.0325 50.1958L58.6182 50.4351V51.0529L59.036 51.2922C59.1146 51.3387 59.2075 51.3101 59.2539 51.2351C59.2682 51.2101 59.2753 51.1851 59.2753 51.1565V50.3351C59.2753 50.2315 59.1825 50.1529 59.0789 50.1779Z" fill="white"/>
</g>
<circle id="Oval_12" cx="58.0786" cy="50.7456" r="2.04649" stroke="#171819" stroke-width="0.460253" stroke-linecap="round" stroke-linejoin="round"/>
</g>
</g>
<g id="Group_19" opacity="0.3">
<path id="Path_52" d="M107.347 8.76697V54.1678C107.347 55.4909 106.601 56.643 105.504 57.2191C105.602 56.8951 105.656 56.553 105.656 56.193V10.7922C105.656 9.21702 104.595 7.88488 103.147 7.47084C102.851 7.38983 102.536 7.34482 102.212 7.34482H17.7787C17.1942 7.34482 16.6546 7.48884 16.178 7.74087C16.6186 6.33672 17.9226 5.31961 19.4693 5.31961H103.903C104.227 5.31961 104.541 5.36462 104.838 5.44562C106.286 5.85967 107.347 7.18281 107.347 8.76697Z" fill="#102770"/>
</g>
<g id="Group_20" opacity="0.66">
<path id="Path_53" d="M14.3437 10.7921V56.1929C14.3437 57.5881 15.1621 58.7762 16.3491 59.3253H15.8545C13.957 59.3253 12.4103 57.7861 12.4103 55.8779V10.4771C12.4103 8.57789 13.948 7.02972 15.8545 7.02972H100.288C100.612 7.02972 100.926 7.07473 101.223 7.15574C101.394 7.20074 101.565 7.26375 101.727 7.34476H17.788C15.8905 7.34476 14.3437 8.88392 14.3437 10.7921Z" fill="white"/>
</g>
<g id="Group_21" opacity="0.3">
<path id="Path_54" d="M105.126 11.3323V56.7331C105.126 58.0742 104.361 59.2444 103.237 59.8114V11.6473C103.237 10.6122 102.401 9.78413 101.376 9.78413H14.1815C14.7481 8.65901 15.9081 7.89393 17.2481 7.89393H101.682C103.579 7.88493 105.126 9.42409 105.126 11.3323Z" fill="#102770"/>
</g>
<path id="Path_55" opacity="0.3" d="M49.5235 7.34476L14.3436 54.8878V23.7625L26.4929 7.34476H49.5235Z" fill="url(#paint0_linear_15095_60248)"/>
<path id="Path_56" opacity="0.3" d="M105.665 10.7923V35.2119L87.5986 59.6405H64.568L103.156 7.47995C104.604 7.88499 105.665 9.20813 105.665 10.7923Z" fill="url(#paint1_linear_15095_60248)"/>
<path id="Path_57" opacity="0.3" d="M75.1886 7.34476L36.5015 59.6403H24.9907L63.6778 7.34476H75.1886Z" fill="url(#paint2_linear_15095_60248)"/>
<path id="Shape_2" fill-rule="evenodd" clip-rule="evenodd" d="M17.7877 60.6304H102.221C104.667 60.6304 106.655 58.6412 106.655 56.1929V10.7921C106.655 8.34386 104.667 6.35464 102.221 6.35464H17.7877C15.3417 6.35464 13.3542 8.34386 13.3542 10.7921V56.1929C13.3542 58.6412 15.3417 60.6304 17.7877 60.6304ZM15.3324 10.7921C15.3324 9.43293 16.4385 8.33481 17.7875 8.33481H102.221C103.579 8.33481 104.676 9.44193 104.676 10.7921V56.1929C104.676 57.552 103.57 58.6501 102.221 58.6501H17.7875C16.4295 58.6501 15.3324 57.543 15.3324 56.1929V10.7921Z" fill="#102770"/>
<path id="Path_58" d="M107.338 77.9578H12.6617C6.21383 77.9578 0.989014 72.7282 0.989014 66.2746H119.011C119.02 72.7282 113.786 77.9578 107.338 77.9578Z" fill="#DCE5EE"/>
<g id="Group_22" opacity="0.3">
<path id="Path_59" d="M118.309 66.2746C117.941 68.8308 116.754 71.1261 115.009 72.8723C112.896 74.9875 109.982 76.2926 106.754 76.2926H12.0864C7.31124 76.2926 3.20153 73.4213 1.39397 69.3079C1.13318 68.3448 0.998291 67.3277 0.998291 66.2746H2.14937C3.94793 70.415 8.06664 73.3133 12.8688 73.3133H107.545C110.773 73.3133 113.687 72.0082 115.8 69.8929C116.835 68.8578 117.671 67.6337 118.264 66.2746H118.309Z" fill="#102770"/>
</g>
<path id="Shape_3" fill-rule="evenodd" clip-rule="evenodd" d="M12.662 78.9476H107.338C114.326 78.9476 120.009 73.259 120 66.2743C120 65.7252 119.559 65.2841 119.011 65.2841H0.989331C0.44077 65.2841 0.00012207 65.7252 0.00012207 66.2743C0.00012207 73.259 5.67458 78.9476 12.662 78.9476ZM12.6712 76.9677C7.11363 76.9677 2.53629 72.7012 2.0327 67.2647H117.986C117.482 72.7012 112.905 76.9677 107.347 76.9677H12.6712Z" fill="#102770"/>
<path id="Path_60" d="M65.1259 70.217H54.8921C52.7158 70.217 50.9532 68.4528 50.9532 66.2746H69.0648C69.0648 68.4528 67.3022 70.217 65.1259 70.217Z" fill="#DCDEE0"/>
<g id="Group_23" opacity="0.3">
<path id="Path_61" d="M69.0645 66.2746C69.0645 67.3637 68.6239 68.3448 67.9135 69.0649C67.194 69.7849 66.2138 70.217 65.1257 70.217H62.6976C63.7858 70.217 64.766 69.7759 65.4854 69.0649C66.1958 68.3538 66.6365 67.3637 66.6365 66.2746H69.0645Z" fill="#102770"/>
</g>
<path id="Shape_4" fill-rule="evenodd" clip-rule="evenodd" d="M54.8922 71.0627H65.126C67.7609 71.0627 69.9102 68.9115 69.9102 66.2742C69.9102 65.8062 69.5325 65.4281 69.0649 65.4281H50.9534C50.4857 65.4281 50.108 65.8062 50.108 66.2742C50.108 68.9115 52.2483 71.0627 54.8922 71.0627ZM54.8831 69.3615C53.4802 69.3615 52.2842 68.4164 51.9155 67.1203H68.0846C67.7158 68.4164 66.5288 69.3615 65.1169 69.3615H54.8831Z" fill="#102770"/>
<g id="Group_24" opacity="0.3">
<path id="Path_62" d="M21.7538 37.9703C22.1103 37.5851 22.4668 37.2117 22.8742 36.8499C22.4668 37.2117 22.0594 37.5851 21.7538 37.9703Z" fill="#5F5A57"/>
</g>
</g>
</g>
</g>
</g>
<defs>
<linearGradient id="paint0_linear_15095_60248" x1="21.5353" y1="-33.4599" x2="-25.719" y2="17.906" gradientUnits="userSpaceOnUse">
<stop stop-color="white"/>
<stop offset="1" stop-color="white"/>
</linearGradient>
<linearGradient id="paint1_linear_15095_60248" x1="75.1843" y1="-4.26099" x2="30.516" y2="50.789" gradientUnits="userSpaceOnUse">
<stop stop-color="white"/>
<stop offset="1" stop-color="white"/>
</linearGradient>
<linearGradient id="paint2_linear_15095_60248" x1="36.0894" y1="-17.4652" x2="1.30114" y2="46.1693" gradientUnits="userSpaceOnUse">
<stop stop-color="white"/>
<stop offset="1" stop-color="white"/>
</linearGradient>
</defs>
</svg>
