<svg xmlns="http://www.w3.org/2000/svg" width="120" height="79" fill="none" viewBox="0 0 120 79"><path fill="#5c6a79" d="M103.921 66.274H16.079c-4.352 0-7.886-3.537-7.886-7.893V8.884c0-4.356 3.534-7.893 7.886-7.893h87.842c4.353 0 7.887 3.537 7.887 7.893v49.497c0 4.356-3.525 7.893-7.887 7.893"/><path fill="#fff" d="M111.367 8.713V58.21c0 2.197-.89 4.177-2.338 5.608a7.9 7.9 0 0 0 .791-3.447V9.496c0-3.6-2.914-6.517-6.511-6.517H14.101a7.84 7.84 0 0 0-5.549 2.287A7.89 7.89 0 0 1 15.647.819h87.842c4.353 0 7.878 3.538 7.878 7.894" opacity=".66"/><path fill="#102770" fill-rule="evenodd" d="M16.08 67.264h87.841c4.901 0 8.876-3.987 8.876-8.884V8.884c0-4.897-3.984-8.884-8.876-8.884H16.079c-4.892 0-8.876 3.987-8.876 8.884V58.38c0 4.897 3.984 8.884 8.876 8.884M9.19 8.884c0-3.807 3.094-6.904 6.898-6.904h87.841c3.804 0 6.898 3.097 6.898 6.904V58.38c0 3.808-3.094 6.904-6.898 6.904h-87.84c-3.804 0-6.898-3.096-6.898-6.904z" clip-rule="evenodd"/><path fill="#fbd000" d="M105.666 10.792v45.4a3.44 3.44 0 0 1-3.445 3.448H17.788a3.446 3.446 0 0 1-3.444-3.447v-45.4c0-1.9 1.537-3.448 3.444-3.448h84.433c.324 0 .639.045.936.126a3.454 3.454 0 0 1 2.509 3.321"/><path fill="#3c87ea" d="M82.394 47.367H40.847c-1.61 0-2.915-1.259-2.915-2.812V19.927c0-1.553 1.305-2.812 2.915-2.812h41.547c1.61 0 2.916 1.259 2.916 2.812v24.628c0 1.553-1.305 2.812-2.916 2.812"/><path fill="#2765b7" d="M83.983 17.589c.073.257.117.52.117.8v24.998c0 1.578-1.305 2.855-2.916 2.855H39.638c-.583 0-1.13-.171-1.589-.457a2.915 2.915 0 0 0 2.799 2.056h41.546c1.611 0 2.916-1.278 2.916-2.855V19.98c0-1-.532-1.884-1.327-2.391"/><path fill="#586b87" d="M67.62 42.86H55.622a3.646 3.646 0 0 1-3.644-3.645V21.692a9.64 9.64 0 0 1 9.643-9.643 9.64 9.64 0 0 1 9.643 9.644v17.53a3.644 3.644 0 0 1-3.644 3.636"/><path stroke="#171819" stroke-linecap="round" stroke-linejoin="round" stroke-width=".46" d="M67.62 42.86H55.622a3.646 3.646 0 0 1-3.644-3.645V21.692a9.64 9.64 0 0 1 9.643-9.643v0a9.64 9.64 0 0 1 9.643 9.644v17.53a3.644 3.644 0 0 1-3.644 3.636" clip-rule="evenodd"/><path fill="#ffdec5" d="M68.779 30.92c-.751-1.677-.24-4.753-.24-4.753s1.69-.24 2.091.343c.649.97.35 4.41-1.851 4.41"/><path fill="#f9c0b2" d="M68.538 26.168s-.08.495-.131 1.202c0 0 1.378-.838 2.493 0-.059-.328-.139-.656-.277-.86-.394-.59-2.085-.342-2.085-.342"/><path stroke="#171819" stroke-linecap="round" stroke-linejoin="round" stroke-width=".46" d="M68.779 30.92c-.751-1.677-.24-4.753-.24-4.753s1.69-.24 2.091.343c.649.97.35 4.41-1.851 4.41" clip-rule="evenodd"/><path fill="#ffe870" d="M73.553 47.172H49.689v-2.264c0-1.89 1.473-3.575 3.703-4.243l8.23-2.456 8.228 2.456c2.23.668 3.703 2.353 3.703 4.243z"/><path fill="#f0bf62" d="M50.732 44.97c0-1.891 1.472-3.578 3.702-4.246l7.814-2.33-.627-.185-8.229 2.45c-2.23.67-3.703 2.356-3.703 4.247v2.266h1.043z"/><path fill="#f0bf62" d="m69.85 40.665-8.229-2.456-1.21.363 7.02 2.093c2.23.668 3.702 2.353 3.702 4.243v2.264h2.42v-2.264c0-1.89-1.472-3.582-3.703-4.243"/><path stroke="#171819" stroke-linecap="round" stroke-linejoin="round" stroke-width=".46" d="M73.553 47.172H49.689v-2.264c0-1.89 1.473-3.575 3.703-4.243l8.23-2.456 8.228 2.456c2.23.668 3.703 2.353 3.703 4.243z" clip-rule="evenodd"/><path fill="#ffdec5" d="M58.115 36.066v2.828c0 1.932 1.567 2.777 3.506 2.777 1.932 0 3.506-.838 3.506-2.777v-2.828z"/><path fill="#f9c0b2" d="M58.115 37.648a7.8 7.8 0 0 0 3.506.816 7.8 7.8 0 0 0 3.506-.816v-1.582h-7.005v1.582z"/><path stroke="#171819" stroke-linecap="round" stroke-linejoin="round" stroke-width=".46" d="M58.115 36.066v2.828c0 1.932 1.567 2.777 3.506 2.777v0c1.932 0 3.506-.838 3.506-2.777v-2.828z" clip-rule="evenodd"/><path stroke="#171819" stroke-linecap="round" stroke-linejoin="round" stroke-width=".46" d="M82.394 47.367H40.847c-1.61 0-2.915-1.259-2.915-2.812V19.927c0-1.553 1.305-2.812 2.915-2.812h41.547c1.61 0 2.916 1.259 2.916 2.812v24.628c0 1.553-1.305 2.812-2.916 2.812" clip-rule="evenodd"/><path fill="#00a8ff" d="M89.69 25.905H78.757a3.646 3.646 0 0 0-3.645 3.645 3.646 3.646 0 0 0 3.645 3.644h2.033v1.735l1.735-1.735h7.158a3.646 3.646 0 0 0 3.644-3.644 3.635 3.635 0 0 0-3.637-3.645"/><path fill="#008aee" d="M80.886 33.114a.83.83 0 0 0-.831-.83h-1.851a3.64 3.64 0 0 1-2.821-1.334 3.645 3.645 0 0 0 3.367 2.244h2.129v-.08zm11.618-5.874c.182.43.277.903.277 1.399a3.646 3.646 0 0 1-3.644 3.644h-6.648a.83.83 0 0 0-.743.46l-.868 1.69-.094.504 1.734-1.735h7.158a3.646 3.646 0 0 0 3.644-3.645 3.54 3.54 0 0 0-.816-2.318"/><circle cx="80.791" cy="29.506" r=".948" stroke="#fff" stroke-linecap="round" stroke-linejoin="round" stroke-width=".46"/><circle cx="84.224" cy="29.506" r=".948" stroke="#fff" stroke-linecap="round" stroke-linejoin="round" stroke-width=".46"/><circle cx="87.73" cy="29.506" r=".948" stroke="#fff" stroke-linecap="round" stroke-linejoin="round" stroke-width=".46"/><path stroke="#171819" stroke-linecap="round" stroke-linejoin="round" stroke-width=".46" d="M89.69 25.905H78.757a3.646 3.646 0 0 0-3.645 3.645v0a3.646 3.646 0 0 0 3.645 3.644h2.033v1.735l1.735-1.735h7.158a3.646 3.646 0 0 0 3.644-3.644v0a3.635 3.635 0 0 0-3.637-3.645" clip-rule="evenodd"/><path fill="#ffe870" d="M35.111 22.687h10.934a3.646 3.646 0 0 1 3.644 3.645 3.646 3.646 0 0 1-3.644 3.644H44.01v1.742l-1.735-1.735H35.12a3.646 3.646 0 0 1-3.645-3.644 3.636 3.636 0 0 1 3.637-3.652"/><path fill="#ffac73" d="M43.917 29.896a.83.83 0 0 1 .83-.83H46.6a3.64 3.64 0 0 0 2.821-1.334 3.645 3.645 0 0 1-3.367 2.244h-2.129v-.08zM32.29 24.022c-.181.43-.276.903-.276 1.399a3.646 3.646 0 0 0 3.644 3.644h6.648c.313 0 .605.175.743.46l.867 1.69.095.503-1.735-1.734H35.12a3.646 3.646 0 0 1-3.645-3.645 3.62 3.62 0 0 1 .817-2.317"/><circle cx="44.011" cy="26.288" r=".948" stroke="#fff" stroke-linecap="round" stroke-linejoin="round" stroke-width=".46"/><circle cx="40.578" cy="26.288" r=".948" stroke="#fff" stroke-linecap="round" stroke-linejoin="round" stroke-width=".46"/><circle cx="37.072" cy="26.288" r=".948" stroke="#fff" stroke-linecap="round" stroke-linejoin="round" stroke-width=".46"/><path stroke="#171819" stroke-linecap="round" stroke-linejoin="round" stroke-width=".46" d="M35.111 22.687h10.934a3.646 3.646 0 0 1 3.644 3.645v0a3.646 3.646 0 0 1-3.644 3.644H44.01v1.742l-1.735-1.735H35.12a3.646 3.646 0 0 1-3.645-3.644v0a3.636 3.636 0 0 1 3.637-3.652" clip-rule="evenodd"/><path fill="#ffdec5" d="M53.997 22.247v7.813c0 4.213 3.41 7.45 7.624 7.45s7.624-3.237 7.624-7.45v-7.813z"/><path fill="#f9c0b2" d="M61.62 36.416c-4.213 0-7.624-3.236-7.624-7.449v1.093c0 4.213 3.411 7.45 7.624 7.45s7.625-3.237 7.625-7.45v-1.093c0 4.213-3.412 7.45-7.625 7.45m-7.623-9.673c4.832.022 9.205-1.378 11.822-3.52.437 1.858 2.398 3.36 3.433 3.287v-4.272c-1.742 0-10.897.357-15.248 0-.007 1.903-.007 3.207-.007 4.505"/><path stroke="#171819" stroke-linecap="round" stroke-linejoin="round" stroke-width=".46" d="M53.997 22.247v7.813c0 4.213 3.41 7.45 7.624 7.45v0c4.213 0 7.624-3.237 7.624-7.45v-7.813z" clip-rule="evenodd"/><path stroke="#171819" stroke-linecap="round" stroke-linejoin="round" stroke-width=".46" d="M59.36 27.45a8 8 0 0 0-2.696 0"/><circle cx="57.443" cy="28.121" r=".671" fill="#171819"/><path stroke="#171819" stroke-linecap="round" stroke-linejoin="round" stroke-width=".46" d="M66.015 27.45a8 8 0 0 0-2.697 0"/><circle cx="64.091" cy="28.121" r=".671" fill="#171819"/><path stroke="#171819" stroke-linecap="round" stroke-linejoin="round" stroke-width=".46" d="M62.182 34.273s1.363.13 2.31-1.32m-4.104-1.793c.095.424.569.744 1.137.744s1.043-.32 1.137-.743"/><path fill="#637593" d="M65.841 13.019a11 11 0 0 0-.926 4.446c0 4.534 2.69 8.353 6.349 9.505v-5.284c0-3.805-2.216-7.1-5.423-8.667"/><path fill="#586b87" d="M65.841 13.019c-.102.233-.197.466-.284.707a9.63 9.63 0 0 1 4.213 7.967v4.635c.474.263.977.489 1.494.65v-5.285a9.65 9.65 0 0 0-5.423-8.674"/><path stroke="#171819" stroke-linecap="round" stroke-linejoin="round" stroke-width=".46" d="M65.841 13.019a11 11 0 0 0-.926 4.446c0 4.534 2.69 8.353 6.349 9.505v-5.284c0-3.805-2.216-7.1-5.423-8.667" clip-rule="evenodd"/><path fill="#637593" d="M61.62 12.05a9.64 9.64 0 0 0-9.642 9.642v4.053q.864.057 1.75.058c7.645 0 14.19-3.112 16.91-7.522a9.635 9.635 0 0 0-9.017-6.232"/><path fill="#586b87" d="M61.621 12.05a9.6 9.6 0 0 0-4.658 1.202c.984-.32 2.034-.488 3.127-.488 4.337 0 8.04 2.726 9.498 6.552a12 12 0 0 1-1.203 1.611c.911-.809 1.676-1.698 2.26-2.646-1.385-3.644-4.898-6.232-9.024-6.232"/><path stroke="#171819" stroke-linecap="round" stroke-linejoin="round" stroke-width=".46" d="M61.62 12.05a9.64 9.64 0 0 0-9.642 9.642v4.053q.864.057 1.75.058c7.645 0 14.19-3.112 16.91-7.522a9.635 9.635 0 0 0-9.017-6.232" clip-rule="evenodd"/><path stroke="#171819" stroke-linecap="round" stroke-linejoin="round" stroke-width=".46" d="M59.026 22.05c2.77-.423 6.093-1.334 8.324-3.28m-13.295 3.657s1.05.036 2.61-.108"/><path fill="#f0bf62" d="M65.098 40.257c-1.093.59-2.223.664-3.477 1.29-1.254-.626-2.383-.7-3.477-1.29-.058-.029-1.486-.072-1.494-.072.102-.008-.124.962.044 2.004.138 1.042.678 2.15 1.501 2.413a.6.6 0 0 0 .154.021c1.042.102 2.69-2.368 3.265-2.952.576.584 2.23 3.054 3.265 2.952l.153-.021c.831-.263 1.37-1.37 1.502-2.413.175-1.042-.051-2.005.044-2.005.014 0-1.422.044-1.48.073"/><path fill="#fff" d="m58.159 39.39 3.462 2.274s-1.822 2.573-2.719 2.405c-1.159-.218-2.128-4.205-2.128-4.205z"/><path stroke="#171819" stroke-linecap="round" stroke-linejoin="round" stroke-width=".46" d="m58.159 39.39 3.462 2.274s-1.822 2.573-2.719 2.405c-1.159-.218-2.128-4.205-2.128-4.205z" clip-rule="evenodd"/><path fill="#fff" d="m65.084 39.39-3.463 2.282s1.823 2.572 2.72 2.405c1.158-.219 2.127-4.206 2.127-4.206z"/><path stroke="#171819" stroke-linecap="round" stroke-linejoin="round" stroke-width=".46" d="m65.084 39.39-3.463 2.282s1.823 2.572 2.72 2.405c1.158-.219 2.127-4.206 2.127-4.206z" clip-rule="evenodd"/><path stroke="#171819" stroke-linecap="round" stroke-linejoin="round" stroke-width=".46" d="M61.64 41.672V46.3"/><circle cx="58.079" cy="50.746" r="2.046" fill="#09c690"/><circle cx="65.085" cy="50.746" r="2.046" fill="#ff4f7c"/><circle cx="65.085" cy="50.746" r="2.046" stroke="#171819" stroke-linecap="round" stroke-linejoin="round" stroke-width=".46"/><path fill="#fff" d="M65.085 50.21c-.747 0-1.34.243-1.34.56v.3c.007.119.104.215.215.215h.442c.158 0 .261-.164.19-.3a.214.214 0 0 1 .078-.268c.197-.117.618-.125.825 0 .097.047.129.175.079.268-.072.136.032.3.19.3h.442c.118-.007.214-.103.214-.214v-.304c-.003-.307-.589-.557-1.335-.557M58.218 50.031h-1.072a.266.266 0 0 0-.264.265v.896c0 .147.122.264.264.264h1.072a.266.266 0 0 0 .264-.264v-.896a.26.26 0 0 0-.264-.265m.861.147a.2.2 0 0 0-.047.018l-.414.24v.617l.418.24a.158.158 0 0 0 .24-.136v-.822a.16.16 0 0 0-.197-.157"/><circle cx="58.079" cy="50.746" r="2.046" stroke="#171819" stroke-linecap="round" stroke-linejoin="round" stroke-width=".46"/><path fill="#102770" d="M107.347 8.767v45.4a3.44 3.44 0 0 1-1.843 3.052c.098-.324.152-.666.152-1.026v-45.4a3.46 3.46 0 0 0-2.509-3.322 3.6 3.6 0 0 0-.935-.126H17.779a3.4 3.4 0 0 0-1.601.396 3.45 3.45 0 0 1 3.291-2.421h84.434c.324 0 .638.045.935.126a3.45 3.45 0 0 1 2.509 3.321" opacity=".3"/><path fill="#fff" d="M14.344 10.792v45.4a3.44 3.44 0 0 0 2.005 3.133h-.495a3.446 3.446 0 0 1-3.444-3.447v-45.4c0-1.9 1.538-3.448 3.444-3.448h84.434c.324 0 .638.045.935.126.171.045.342.108.504.189H17.788a3.446 3.446 0 0 0-3.444 3.447" opacity=".66"/><path fill="#102770" d="M105.126 11.332v45.401a3.45 3.45 0 0 1-1.889 3.078V11.647a1.86 1.86 0 0 0-1.861-1.863H14.182a3.43 3.43 0 0 1 3.066-1.89h84.434a3.433 3.433 0 0 1 3.444 3.438" opacity=".3"/><path fill="url(#a)" d="m49.524 7.345-35.18 47.543V23.763L26.493 7.345z" opacity=".3"/><path fill="url(#b)" d="M105.665 10.792v24.42L87.599 59.64H64.568l38.588-52.16a3.434 3.434 0 0 1 2.509 3.312" opacity=".3"/><path fill="url(#c)" d="M75.189 7.345 36.502 59.64H24.99L63.678 7.345z" opacity=".3"/><path fill="#102770" fill-rule="evenodd" d="M17.788 60.63h84.433a4.44 4.44 0 0 0 4.434-4.437v-45.4a4.44 4.44 0 0 0-4.434-4.438H17.788a4.44 4.44 0 0 0-4.434 4.437v45.4a4.44 4.44 0 0 0 4.434 4.438m-2.456-49.838a2.46 2.46 0 0 1 2.456-2.457h84.433a2.46 2.46 0 0 1 2.455 2.457v45.4a2.46 2.46 0 0 1-2.455 2.458H17.787a2.46 2.46 0 0 1-2.455-2.457z" clip-rule="evenodd"/><path fill="#dce5ee" d="M107.338 77.958H12.662c-6.448 0-11.673-5.23-11.673-11.683h118.022c.009 6.453-5.225 11.683-11.673 11.683"/><path fill="#102770" d="M118.309 66.275a11.68 11.68 0 0 1-3.3 6.597 11.62 11.62 0 0 1-8.255 3.42H12.086c-4.775 0-8.884-2.87-10.692-6.984a11.6 11.6 0 0 1-.396-3.033H2.15c1.799 4.14 5.918 7.038 10.72 7.038h94.676a11.62 11.62 0 0 0 8.255-3.42 11.8 11.8 0 0 0 2.464-3.618z" opacity=".3"/><path fill="#102770" fill-rule="evenodd" d="M12.662 78.948h94.676c6.988 0 12.671-5.689 12.662-12.674a.987.987 0 0 0-.989-.99H.989a.987.987 0 0 0-.989.99c0 6.985 5.675 12.674 12.662 12.674m.01-1.98c-5.558 0-10.136-4.267-10.64-9.703h115.954c-.504 5.436-5.081 9.703-10.639 9.703z" clip-rule="evenodd"/><path fill="#dcdee0" d="M65.126 70.217H54.892a3.94 3.94 0 0 1-3.939-3.942h18.112a3.94 3.94 0 0 1-3.94 3.942"/><path fill="#102770" d="M69.065 66.275c0 1.089-.441 2.07-1.151 2.79-.72.72-1.7 1.152-2.788 1.152h-2.428a3.95 3.95 0 0 0 2.787-1.152 3.94 3.94 0 0 0 1.151-2.79z" opacity=".3"/><path fill="#102770" fill-rule="evenodd" d="M54.892 71.063h10.234a4.796 4.796 0 0 0 4.784-4.789.845.845 0 0 0-.845-.846H50.953a.845.845 0 0 0-.845.846 4.79 4.79 0 0 0 4.784 4.789m-.009-1.701a3.09 3.09 0 0 1-2.968-2.242h16.17a3.084 3.084 0 0 1-2.968 2.242z" clip-rule="evenodd"/><path fill="#5f5a57" d="M21.754 37.97a16 16 0 0 1 1.12-1.12c-.407.362-.815.735-1.12 1.12" opacity=".3"/><defs><linearGradient id="a" x1="21.535" x2="-25.719" y1="-33.46" y2="17.906" gradientUnits="userSpaceOnUse"><stop stop-color="#fff"/><stop offset="1" stop-color="#fff"/></linearGradient><linearGradient id="b" x1="75.184" x2="30.516" y1="-4.261" y2="50.789" gradientUnits="userSpaceOnUse"><stop stop-color="#fff"/><stop offset="1" stop-color="#fff"/></linearGradient><linearGradient id="c" x1="36.089" x2="1.301" y1="-17.465" y2="46.169" gradientUnits="userSpaceOnUse"><stop stop-color="#fff"/><stop offset="1" stop-color="#fff"/></linearGradient></defs></svg>