<svg width="124" height="100" viewBox="0 0 124 100" fill="none" xmlns="http://www.w3.org/2000/svg">
<g id="Group 210">
<g id="Group 208">
<g id="Group 207">
<g id="Group 2">
<g id="Group 59">
<g id="Group 2 Copy">
<g id="Group 47">
<g id="Group">
<path id="Path" d="M77.2082 76.888H62.7028L63.2214 73.7459L64.4937 66.0308H75.4983L75.9602 68.9889L77.2082 76.888Z" fill="white"/>
<path id="Shape" fill-rule="evenodd" clip-rule="evenodd" d="M61.706 77.7275H78.1968L76.2276 65.1913H63.7724L61.706 77.7275ZM76.2114 76.0485H63.7076L65.2148 66.8702H74.769L76.2114 76.0485Z" fill="#102770"/>
<path id="Path_2" d="M93.1157 76.7121H46.7955C44.0079 76.7121 41.7551 78.9427 41.7551 81.685H98.1642C98.1561 78.9427 95.9033 76.7121 93.1157 76.7121Z" fill="white"/>
<g id="Group_2" opacity="0.3">
<path id="Path_3" d="M98.1642 81.693H41.7551C41.7551 80.9335 41.9252 80.2219 42.2332 79.5823C42.2251 79.6303 42.2251 79.6783 42.2251 79.7262H97.7509C98.0183 80.3259 98.1642 80.9895 98.1642 81.693Z" fill="#102770"/>
</g>
<path id="Shape_2" fill-rule="evenodd" clip-rule="evenodd" d="M41.7469 82.5325H98.156C98.626 82.5325 99.0069 82.1567 98.9988 81.693C98.9988 78.487 96.357 75.8806 93.1075 75.8806H46.7873C43.5378 75.8806 40.896 78.487 40.896 81.693C40.896 82.1567 41.2769 82.5325 41.7469 82.5325ZM97.216 80.8535H42.6868C43.0839 78.9746 44.7776 77.5515 46.7873 77.5595H93.1074C95.1333 77.5595 96.8189 78.9746 97.216 80.8535Z" fill="#102770"/>
<path id="Path_4" d="M116.973 7.53936V60.5462C116.973 63.8801 114.234 66.5825 110.854 66.5825H29.0567C25.6775 66.5825 22.9385 63.8801 22.9385 60.5462V7.33149C22.9385 3.74174 25.8882 0.831558 29.5267 0.831558H110.166C113.926 0.831558 116.973 3.83768 116.973 7.53936Z" fill="#5C6A79"/>
<g id="Group_3" opacity="0.5">
<g id="Group_4">
<path id="Path_5" d="M116.973 7.53936V60.5462C116.973 62.4011 116.122 64.064 114.793 65.1673C115.052 64.5677 115.19 63.9041 115.19 63.2086V8.15498C115.19 5.01294 112.613 2.47053 109.428 2.47053H26.7067C26.0422 2.47053 25.402 2.59046 24.8024 2.79833C26.0017 1.58309 27.671 0.831558 29.5268 0.831558H110.166C113.926 0.831558 116.973 3.83768 116.973 7.53936Z" fill="white"/>
</g>
</g>
<path id="Path_6" d="M116.973 55.0616V60.5542C116.973 63.8881 114.234 66.5904 110.854 66.5904H29.0567C25.6775 66.5904 22.9385 63.8881 22.9385 60.5542V55.0616H116.973Z" fill="white"/>
<g id="Group_5" opacity="0.3">
<path id="Path_7" d="M116.973 57.0763V60.5542C116.973 63.8881 114.234 66.5904 110.854 66.5904H29.0567C25.6775 66.5904 22.9385 63.8881 22.9385 60.5542V57.0763C22.9385 60.4102 25.6775 63.1126 29.0567 63.1126H110.854C114.234 63.1126 116.973 60.4102 116.973 57.0763Z" fill="#102770"/>
</g>
<path id="Shape_3" fill-rule="evenodd" clip-rule="evenodd" d="M29.0566 67.4299H110.854C114.695 67.4299 117.823 64.3438 117.815 60.5542V7.54731C117.815 3.38991 114.387 3.05176e-05 110.165 3.05176e-05H29.5266C25.4261 3.05176e-05 22.0875 3.29397 22.0875 7.33944V60.5542C22.0875 64.3438 25.2155 67.4299 29.0566 67.4299ZM23.7893 7.33139C23.7893 4.21333 26.3662 1.67092 29.5266 1.67092H110.174C113.456 1.67092 116.122 4.30128 116.122 7.53926V60.5461C116.122 63.4083 113.755 65.7429 110.854 65.7429H29.0566C26.1555 65.7429 23.7893 63.4083 23.7893 60.5461V7.33139Z" fill="#102770"/>
<g id="Group_6">
<path id="Path_8" d="M116.973 55.7812H22.9384C22.5333 55.7812 22.2091 55.4614 22.2091 55.0617C22.2091 54.6619 22.5333 54.3421 22.9384 54.3421H116.973C117.378 54.3421 117.702 54.6619 117.702 55.0617C117.702 55.4614 117.378 55.7812 116.973 55.7812Z" fill="#102770"/>
</g>
<ellipse id="Oval" cx="69.9578" cy="61.2203" rx="2.43137" ry="2.46269" transform="rotate(-80.7816 69.9578 61.2203)" fill="#102770"/>
<g id="Group_7" opacity="0.3">
<path id="Path_9" d="M70.8793 60.0106C71.3574 60.3943 71.4385 61.0819 71.244 61.3217C71.0495 61.5616 70.6605 61.2498 70.1743 60.858C69.6962 60.4743 69.3072 60.1545 69.5017 59.9226C69.7043 59.6828 70.4012 59.6268 70.8793 60.0106Z" fill="#FCE5E5"/>
</g>
<path id="Path_10" d="M112.151 9.15428V47.8021C112.151 49.545 110.725 50.9522 108.958 50.9522H30.9447C29.8669 50.9522 28.9107 50.4245 28.3353 49.609C27.9706 49.0973 27.7599 48.4737 27.7599 47.8021V9.15428C27.7599 7.49932 29.1132 6.16415 30.7907 6.16415H109.12C109.541 6.16415 109.947 6.2521 110.311 6.404C111.389 6.85172 112.151 7.91506 112.151 9.15428Z" fill="#22A7F0"/>
<path id="Path_11" opacity="0.3" d="M56.8357 6.15622L28.3353 49.6091C27.9706 49.0974 27.7599 48.4738 27.7599 47.8022V36.0975L47.395 6.16421H56.8357V6.15622Z" fill="url(#paint0_linear_15095_60140)"/>
<path id="Path_12" opacity="0.3" d="M112.151 9.15436V17.9808L90.5305 50.9522H81.0898L110.311 6.40408C111.389 6.8518 112.151 7.91514 112.151 9.15436Z" fill="url(#paint1_linear_15095_60140)"/>
<g id="Group_8" opacity="0.3">
<path id="Path_13" d="M112.151 9.63397V48.2818C112.151 49.4251 111.527 50.4245 110.603 50.9761C110.603 50.9441 110.603 50.9122 110.603 50.8882V9.82585C110.603 8.84246 109.793 8.04296 108.796 8.04296H28.2139C28.7487 7.20348 29.6968 6.64383 30.7746 6.64383H109.104C110.798 6.63584 112.151 7.979 112.151 9.63397Z" fill="#102770"/>
</g>
<path id="Path_14" opacity="0.3" d="M88.4397 6.15622L59.0642 50.9442H38.6026L67.9781 6.15622H88.4397Z" fill="url(#paint2_linear_15095_60140)"/>
<g id="Group_9" opacity="0.5">
<g id="Group_10">
<path id="Path_15" d="M110.611 50.4965C110.563 51.5279 109.704 52.3434 108.65 52.3434H28.1896C27.1037 52.3434 26.2285 51.4719 26.2285 50.4086V9.34624C26.2285 8.36285 27.0389 7.56335 28.0356 7.56335H28.2382C27.9384 8.02706 27.7682 8.57072 27.7682 9.15436V47.8022C27.7682 49.5451 29.1944 50.9522 30.961 50.9522H108.974C109.566 50.9442 110.125 50.7843 110.611 50.4965Z" fill="white"/>
</g>
</g>
<path id="Shape_4" fill-rule="evenodd" clip-rule="evenodd" d="M30.953 51.6637H108.966C111.122 51.6637 112.88 49.9368 112.88 47.7942V9.14633C112.88 7.09961 111.195 5.43665 109.12 5.43665H30.7909C28.7164 5.43665 27.0308 7.09961 27.0308 9.14633V47.7942C27.0308 49.9288 28.7893 51.6637 30.953 51.6637ZM28.4894 9.14631C28.4894 7.89909 29.5186 6.87573 30.7909 6.87573H109.128C110.393 6.87573 111.43 7.89109 111.43 9.14631V47.7941C111.43 49.1373 110.32 50.2246 108.966 50.2246H30.9529C29.5915 50.2246 28.4894 49.1293 28.4894 47.7941V9.14631Z" fill="#102770"/>
<g id="Group_11" opacity="0.42">
<path id="Path_16" d="M98.7476 12.1765H97.1998C96.8514 12.1765 96.5677 11.8966 96.5677 11.5528V10.0258C96.5677 9.68202 96.8514 9.40219 97.1998 9.40219H98.7476C99.0961 9.40219 99.3797 9.68202 99.3797 10.0258V11.5528C99.3878 11.8966 99.1042 12.1765 98.7476 12.1765Z" fill="white"/>
</g>
<g id="Group_12" opacity="0.42">
<path id="Path_17" d="M102.443 12.1765H100.887C100.538 12.1765 100.255 11.8966 100.255 11.5528V10.0258C100.255 9.68202 100.538 9.40219 100.887 9.40219H102.435C102.783 9.40219 103.067 9.68202 103.067 10.0258V11.5528C103.075 11.8966 102.791 12.1765 102.443 12.1765Z" fill="white"/>
</g>
<g id="Group_13" opacity="0.42">
<path id="Path_18" d="M106.243 12.1765H104.696C104.347 12.1765 104.064 11.8966 104.064 11.5528V10.0258C104.064 9.68202 104.347 9.40219 104.696 9.40219H106.243C106.592 9.40219 106.875 9.68202 106.875 10.0258V11.5528C106.875 11.8966 106.592 12.1765 106.243 12.1765Z" fill="white"/>
</g>
<g id="Group_14" opacity="0.3">
<path id="Path_19" d="M75.9602 68.9889L63.2213 73.7459L64.4936 66.0308H75.4983L75.9602 68.9889Z" fill="#102770"/>
</g>
</g>
</g>
</g>
</g>
</g>
<g id="Group Copy">
<path id="Path_20" d="M38.2817 48.9758L49.916 75.3557C50.2935 76.2052 49.9075 77.204 49.053 77.587L30.1525 86.1031C29.302 86.489 28.3093 86.1105 27.9347 85.2569L16.3004 58.877C15.9269 58.0303 16.3129 57.0315 17.1634 56.6457L36.064 48.1295C36.9115 47.7477 37.9082 48.1291 38.2817 48.9758Z" fill="#ACE0F5"/>
<path id="Path_21" d="M51.0724 82.9222L32.7323 91.1846C30.315 92.2744 27.4872 91.1992 26.4173 88.7815L13.2254 58.8768C12.1594 56.462 13.256 53.617 15.6762 52.5232L34.0163 44.2609C36.4336 43.1711 39.2614 44.2463 40.3314 46.664L53.5232 76.5686C54.5931 78.9863 53.4966 81.8313 51.0724 82.9222Z" fill="#DEDDE2"/>
<g id="Group_15" opacity="0.3">
<path id="Path_22" d="M53.83 77.5322C54.2799 79.7014 53.1761 81.9719 51.0723 82.9223L32.7323 91.1846C30.312 92.2784 27.4872 91.1992 26.4172 88.7815L13.2254 58.8769C12.8842 58.1026 12.765 57.2815 12.8411 56.4922L13.0138 55.8037L13.1601 55.2183L14.6659 53.705C13.6703 54.8667 13.4638 56.3448 13.9377 58.0968L26.4895 86.5449C27.5594 88.9626 30.3803 90.0389 32.8045 88.948L51.1446 80.6857C52.5203 80.0694 53.4665 78.884 53.83 77.5322Z" fill="#102770"/>
</g>
<g id="Group_16" opacity="0.3">
<path id="Path_23" d="M13.1801 55.4245C13.2256 55.5099 13.2752 55.5895 13.3324 55.6834L13.4142 56.9025C13.2731 56.3815 13.1873 55.8832 13.1801 55.4245Z" fill="#5F5A57"/>
</g>
<path id="Path_24" d="M40.3353 46.6669L53.5271 76.5716C54.0197 77.6885 54.0495 78.8914 53.7048 79.9752C53.7074 79.3957 53.5877 78.8007 53.3384 78.2339L39.7569 47.4463C38.7989 45.2753 36.2588 44.305 34.0825 45.2884L14.8586 53.9491C14.1129 54.2825 13.5091 54.8048 13.0728 55.4303C13.4807 54.1843 14.3975 53.1061 15.687 52.5251L34.0271 44.2627C36.4404 43.1701 39.2653 44.2493 40.3353 46.6669Z" fill="white"/>
<path id="Shape_5" fill-rule="evenodd" clip-rule="evenodd" d="M51.2539 83.3236C52.1054 82.9446 52.8257 82.354 53.3612 81.6169C53.629 81.2483 53.852 80.8412 54.0234 80.3965C54.5272 79.0854 54.495 77.6604 53.9316 76.3821L40.7398 46.4774C40.1765 45.199 39.1477 44.219 37.8446 43.7251C36.5415 43.2313 35.1201 43.2758 33.8404 43.8517L15.5003 52.114C14.2206 52.6899 13.2345 53.73 12.7308 55.0411C12.2271 56.3522 12.2593 57.7772 12.8226 59.0556L26.0144 88.9602C26.5777 90.2386 27.6065 91.2186 28.9096 91.7125C30.2127 92.2063 31.6341 92.1618 32.9138 91.5859L51.2539 83.3236ZM13.5623 55.3575C13.7001 54.9924 13.8845 54.6551 14.1086 54.3467C14.5539 53.7338 15.1533 53.2511 15.8617 52.9273L34.2018 44.665C36.3947 43.6753 38.9644 44.6549 39.9325 46.8455L53.1243 76.7502C53.5947 77.8141 53.6213 78.9964 53.1999 80.0857C52.7784 81.175 51.9627 82.039 50.9005 82.5158L32.5604 90.7782C31.4953 91.2591 30.3161 91.2959 29.2334 90.8827C28.1507 90.4694 27.2961 89.6587 26.8297 88.5976L13.6379 58.693C13.1675 57.629 13.1409 56.4468 13.5623 55.3575Z" fill="#102770"/>
<g id="Group_17" opacity="0.3">
<path id="Path_25" d="M38.9431 48.4831L50.1088 73.7881C50.4005 74.4468 50.3493 75.1685 50.0387 75.763C50.0175 75.6252 49.9757 75.4908 49.9161 75.3557L38.2818 48.9758C37.9043 48.1262 36.9116 47.7477 36.064 48.1296L17.1635 56.6457C17.0576 56.6912 16.9608 56.7494 16.869 56.8173C17.0523 56.1977 17.4915 55.6599 18.1285 55.376L35.9541 47.3458C37.0976 46.8239 38.4383 47.3329 38.9431 48.4831Z" fill="#102770"/>
</g>
<path id="Path_26" d="M49.0569 77.5899L30.1564 86.106C29.3059 86.4919 28.3132 86.1134 27.9386 85.2598L16.3044 58.8799C15.9269 58.0303 16.3129 57.0315 17.1673 56.6486L36.0679 48.1324C36.9184 47.7466 37.9111 48.1251 38.2856 48.9786L49.9199 75.3586C50.2934 76.2053 49.9074 77.204 49.0569 77.5899Z" fill="#22A7F0"/>
<g id="Group_18" opacity="0.57">
<path id="Path_27" d="M39.7294 62.7033L25.8251 68.9676C25.2872 69.2072 24.6584 68.9707 24.4241 68.4332L22.5031 64.0813C22.2688 63.5439 22.5101 62.9113 23.0481 62.6717L36.9523 56.4074C37.4903 56.1678 38.1191 56.4043 38.3534 56.9418L40.2744 61.2937C40.5115 61.8271 40.2703 62.4597 39.7294 62.7033Z" fill="white"/>
<g id="check-circle">
<path id="check-circle_2" fill-rule="evenodd" clip-rule="evenodd" d="M30.4825 60.6719C31.6342 60.1101 33.0211 60.584 33.5801 61.7303C34.1392 62.8766 33.6588 64.2613 32.5071 64.823C31.3554 65.3847 29.9685 64.9108 29.4094 63.7645C28.8503 62.6182 29.3307 61.2336 30.4825 60.6719ZM30.3001 63.613L31.5991 64.0569C31.6772 64.0835 31.7624 64.042 31.7894 63.9641L32.5856 61.6695C32.6126 61.5916 32.5712 61.5068 32.4932 61.4801L32.2106 61.3836C32.1325 61.3569 32.0473 61.3984 32.0203 61.4764L31.371 63.3477L30.4959 63.0486C30.4179 63.022 30.3327 63.0635 30.3057 63.1414L30.2077 63.4236C30.1807 63.5015 30.2221 63.5863 30.3001 63.613Z" fill="#33499D"/>
</g>
</g>
<g id="Group_19" opacity="0.57">
<path id="Path_28" d="M35.1773 67.5913L26.1537 71.6545C26.0116 71.7165 25.8435 71.6556 25.7829 71.5136L25.4801 70.8284C25.4195 70.6865 25.4816 70.5174 25.6237 70.4554L34.6473 66.3923C34.7894 66.3303 34.9575 66.3911 35.0181 66.5331L35.3209 67.2183C35.3815 67.3603 35.3154 67.5264 35.1773 67.5913Z" fill="white"/>
</g>
<path id="Path_29" opacity="0.3" d="M32.0112 49.9591L26.0459 78.3394L24.7719 78.0809L19.8011 66.8065L22.434 54.2749L32.0112 49.9591Z" fill="url(#paint3_linear_15095_60140)"/>
<path id="Path_30" opacity="0.3" d="M38.2817 48.9758L38.9913 50.587L31.6732 85.4209L30.1593 86.102C29.3088 86.4879 28.3161 86.1094 27.9415 85.2558L27.347 83.9119L34.7381 48.7271L36.061 48.1336C36.9115 47.7477 37.9081 48.1291 38.2817 48.9758Z" fill="url(#paint4_linear_15095_60140)"/>
<path id="Path_31" opacity="0.47" d="M44.2516 62.5063L47.3932 69.6363L45.3726 79.2464L40.2479 81.558L44.2516 62.5063Z" fill="url(#paint5_linear_15095_60140)"/>
<path id="Shape_6" fill-rule="evenodd" clip-rule="evenodd" d="M49.2035 77.9227C49.5435 77.7719 49.8216 77.5394 50.0283 77.255C50.4503 76.6741 50.56 75.897 50.2522 75.202L38.6179 48.8221C38.3968 48.3249 37.9959 47.9418 37.4827 47.7464C36.9696 47.5511 36.4154 47.5708 35.9137 47.7939L17.0131 56.31C16.5154 56.5359 16.1299 56.9414 15.9307 57.4576C15.7315 57.9739 15.7463 58.5295 15.9645 59.0307L27.5988 85.4106C27.8198 85.9078 28.2247 86.2938 28.7339 86.4863C29.2471 86.6816 29.8012 86.6619 30.3029 86.4389L49.2035 77.9227ZM49.58 75.5093C49.8757 76.1709 49.573 76.9548 48.9096 77.2501L30.0051 85.7634C29.6846 85.9039 29.3274 85.9198 29.0011 85.7929C28.6787 85.6689 28.4191 85.4251 28.2777 85.1021L16.6435 58.7222C16.5061 58.402 16.4962 58.0399 16.6227 57.7156C16.7491 57.3913 16.9944 57.1288 17.3178 56.9843L36.2183 48.4681C36.5388 48.3276 36.8961 48.3117 37.2224 48.4386C37.5447 48.5626 37.8043 48.8064 37.9457 49.1294L49.58 75.5093Z" fill="#102770"/>
<ellipse id="Oval_2" cx="40.833" cy="84.5915" rx="0.958874" ry="0.963637" transform="rotate(-115.615 40.833 84.5915)" fill="#102770"/>
<path id="Path_32" d="M28.8677 49.444C28.8327 49.4921 28.7888 49.5275 28.733 49.5542L23.1135 52.0878C22.942 52.1652 22.7433 52.0881 22.6675 51.9168C22.5918 51.7455 22.6704 51.5455 22.8419 51.4681L28.4614 48.9346C28.6328 48.8572 28.8316 48.9343 28.9073 49.1056C28.9568 49.2211 28.9346 49.3519 28.8677 49.444Z" fill="#102770"/>
<g id="Group_20" opacity="0.3">
<path id="Path_33" d="M16.1508 53.4697L14.6729 53.7038C15.0025 53.5073 15.5359 53.4589 16.1508 53.4697Z" fill="#5F5A57"/>
</g>
<g id="Group_21" opacity="0.3">
<path id="Path_34" d="M36.0611 48.1336L17.1605 56.6497C16.4677 56.9604 16.0817 57.6837 16.1673 58.4008C16.2969 58.2808 16.4475 58.1821 16.619 58.1047L35.5195 49.5885C36.37 49.2027 37.3627 49.5812 37.7373 50.4348L49.3716 76.8147C49.4412 76.9693 49.4844 77.1353 49.5018 77.2949C50.0244 76.8177 50.212 76.042 49.9131 75.3597L38.2788 48.9798C37.9043 48.1262 36.9116 47.7477 36.0611 48.1336Z" fill="#102770"/>
</g>
</g>
</g>
<g id="Reliability-Copy">
<path id="Fill-1" fill-rule="evenodd" clip-rule="evenodd" d="M104.925 78.3907C126.531 69.2381 122.638 44.3408 122.638 44.3408C112.321 43.4837 104.925 37.1245 104.925 37.1245C104.925 37.1245 97.5288 43.4837 87.2122 44.3408C87.2122 44.3408 83.3184 69.2381 104.925 78.3907Z" fill="#45AE57"/>
<path id="Fill-3" fill-rule="evenodd" clip-rule="evenodd" d="M122.648 44.108C121.252 43.9917 119.918 43.7695 118.638 43.4732C118.818 51.3244 117.538 69.4603 102.819 77.3432C103.528 77.7135 104.258 78.0627 105.02 78.3908C126.521 69.1746 122.648 44.108 122.648 44.108Z" fill="#188B3B"/>
<path id="Fill-5" fill-rule="evenodd" clip-rule="evenodd" d="M105.454 73.1002C121.336 66.0638 118.479 46.912 118.479 46.912C110.893 46.2454 105.454 41.357 105.454 41.357C105.454 41.357 100.015 46.2454 92.4287 46.912C92.4287 46.912 89.5718 66.0638 105.454 73.1002Z" fill="#FDFDFD"/>
<path id="Fill-7" fill-rule="evenodd" clip-rule="evenodd" d="M119.537 47.3987C118.077 47.2823 116.691 47.0072 115.4 46.658C115.665 51.1127 115.538 65.5029 103.867 72.0315C104.576 72.423 105.317 72.7827 106.11 73.1107C122.479 66.2013 119.537 47.3987 119.537 47.3987Z" fill="#DFE0DF"/>
<path id="Fill-9" fill-rule="evenodd" clip-rule="evenodd" d="M103.369 63.5772C102.851 63.5772 102.332 63.3656 101.93 62.9529L98.1424 59.0167C97.3277 58.1702 97.3065 56.7736 98.1001 55.8953C98.8937 55.0171 100.195 55.0065 101.02 55.853L103.359 58.2867L108.829 52.5623C109.644 51.7158 110.945 51.7264 111.75 52.594C112.543 53.4617 112.533 54.8584 111.718 55.7154L104.808 62.9423C104.406 63.3656 103.888 63.5772 103.369 63.5772Z" fill="#45AE57"/>
<path id="Reliability" fill-rule="evenodd" clip-rule="evenodd" d="M121.643 57.8423C119.432 67.471 113.982 74.2853 105.454 78.0839C96.9255 74.2853 91.4763 67.4816 89.2649 57.8423C87.8576 51.7264 88.2702 46.33 88.4501 44.7005C97.2324 43.78 103.74 38.9762 105.454 37.5901C107.157 38.9762 113.675 43.78 122.458 44.7005C122.638 46.3406 123.05 51.737 121.643 57.8423ZM123.696 43.9916C123.653 43.6954 123.41 43.4626 123.103 43.4308C113.21 42.5843 105.962 36.2992 105.898 36.2357C105.655 36.0135 105.285 36.0135 105.031 36.2357C104.957 36.2992 97.7192 42.5843 87.8258 43.4308C87.519 43.452 87.2756 43.6848 87.2333 43.9916C87.191 44.2562 86.2704 50.5519 87.9951 58.0962C89.5929 65.1009 93.8782 74.4757 105.211 79.4065C105.295 79.4382 105.38 79.4594 105.475 79.4594C105.57 79.4594 105.655 79.4382 105.74 79.4065C117.072 74.4757 121.357 65.1009 122.955 58.0962C124.68 50.5519 123.759 44.2562 123.717 43.9916M105.454 72.7721C91.7831 66.6245 92.5979 51.1338 92.8942 48.1394C99.2745 47.4305 104.036 44.0128 105.454 42.8806C106.882 44.0128 111.644 47.4305 118.014 48.1394C118.31 51.1338 119.135 66.6245 105.454 72.7721ZM118.67 46.8802C111.326 46.256 105.951 41.5791 105.898 41.5368C105.655 41.3146 105.285 41.3146 105.031 41.5368C104.978 41.5791 99.6026 46.256 92.2593 46.8802C91.963 46.9014 91.7091 47.1342 91.6667 47.4305C91.635 47.6209 88.8945 66.9949 105.2 74.0842C105.285 74.116 105.369 74.1371 105.464 74.1371C105.56 74.1371 105.644 74.116 105.729 74.0842C122.034 66.9949 119.294 47.6209 119.262 47.4305C119.22 47.1342 118.977 46.9014 118.67 46.8802ZM111.75 55.1335L105.02 61.7573C104.512 62.2546 103.634 62.2546 103.126 61.7573L99.4333 58.1597C99.1687 57.9057 99.0312 57.5671 99.0206 57.2074C99.0206 56.8476 99.1476 56.4984 99.4015 56.2445C99.666 55.9694 100.026 55.8319 100.375 55.8319C100.724 55.8319 101.052 55.9588 101.317 56.2128L103.602 58.4348C103.856 58.6887 104.258 58.6887 104.512 58.4348L109.845 53.1971C110.385 52.6681 111.242 52.6787 111.76 53.2183C112.014 53.4829 112.152 53.8215 112.152 54.1812C112.152 54.541 112.004 54.8901 111.739 55.1441M108.935 52.2554L104.057 57.0487L102.237 55.2711C101.179 54.2447 99.4968 54.2658 98.4704 55.324C97.9731 55.8318 97.7085 56.5091 97.7191 57.2286C97.7191 57.9481 98.0154 58.6147 98.5233 59.112L102.216 62.7096C102.713 63.1963 103.38 63.4608 104.078 63.4608C104.777 63.4608 105.443 63.1857 105.941 62.699L112.67 56.0858C113.178 55.5885 113.464 54.9219 113.474 54.2024C113.474 53.4828 113.21 52.8163 112.713 52.2978C111.686 51.2397 109.993 51.2291 108.946 52.2554" fill="#17365C"/>
</g>
</g>
<g id="Group 211">
<g id="Group 209">
<path id="path-1" d="M64.1846 26.1177C62.6654 26.1177 61.4007 26.3086 60.3588 26.7222V26.4041C60.3588 24.5826 60.6451 23.3975 61.2416 22.8566C61.8461 22.3158 62.9835 22.0613 64.7175 22.0613C65.7276 22.0613 66.8968 22.2203 68.1933 22.5385C69.617 22.8885 70.0306 22.5703 70.0306 21.067V20.6853C70.0306 19.2456 69.7124 18.832 68.2251 18.482C67.0241 18.1957 65.8867 18.0685 64.7811 18.0685C58.5851 18.0685 56.0876 20.558 56.0876 26.6029V31.24C56.0876 36.7679 58.4578 39.5517 63.6755 39.5517C68.8932 39.5517 71.1998 37.4758 71.1998 32.3933C71.1998 27.6926 68.8932 26.1257 64.1846 26.1257V26.1177ZM63.7073 29.7924C66.1412 29.7924 66.9604 30.3332 66.9604 32.6398C66.9604 34.9464 66.3321 35.5827 63.9539 35.5827C62.4029 35.5827 61.4246 35.2328 60.9792 34.4931C60.5656 33.7613 60.3508 32.5444 60.3508 30.8502V30.5321C61.3291 30.0549 62.4347 29.8003 63.6994 29.8003L63.7073 29.7924Z" fill="#F7F5FF" fill-opacity="0.85"/>
<path id="path-3" d="M80.7523 21.3454C80.7523 19.1581 79.4638 18.0684 76.8948 18.0684C74.1666 18.0684 72.7985 19.2058 72.7985 21.4806V22.6975C72.7985 25.0201 74.2382 26.0222 77.3879 26.0222C78.2469 26.0222 78.9548 25.9586 79.5354 25.8234C80.3069 25.6564 80.466 25.5052 80.466 24.8371V24.6701C80.466 23.9542 80.291 23.8031 79.5354 23.9383C78.7639 24.0736 78.056 24.1531 77.4038 24.1531C75.7812 24.1531 75.0972 23.7872 75.0972 22.9998V22.7691H79.5672C80.3944 22.7691 80.6251 22.618 80.7126 21.934C80.7285 21.751 80.7444 21.5522 80.7444 21.3454H80.7523ZM75.0972 20.9318C75.0972 20.1603 75.6778 19.7785 76.8232 19.7785C77.9685 19.7785 78.565 20.1603 78.565 20.9318V21.1624H75.0972V20.9318Z" fill="#F7F5FF" fill-opacity="0.85"/>
</g>
</g>
</g>
<defs>
<linearGradient id="paint0_linear_15095_60140" x1="29.6463" y1="-2.09505" x2="10.833" y2="41.0614" gradientUnits="userSpaceOnUse">
<stop stop-color="white"/>
<stop offset="1" stop-color="#25A9E0"/>
</linearGradient>
<linearGradient id="paint1_linear_15095_60140" x1="83.8736" y1="8.61218" x2="66.2266" y2="52.5665" gradientUnits="userSpaceOnUse">
<stop stop-color="white"/>
<stop offset="1" stop-color="#25A9E0"/>
</linearGradient>
<linearGradient id="paint2_linear_15095_60140" x1="41.0119" y1="4.81068" x2="33.5077" y2="52.4144" gradientUnits="userSpaceOnUse">
<stop stop-color="white"/>
<stop offset="1" stop-color="#25A9E0"/>
</linearGradient>
<linearGradient id="paint3_linear_15095_60140" x1="13.3826" y1="60.1197" x2="20.9672" y2="85.2602" gradientUnits="userSpaceOnUse">
<stop stop-color="white"/>
<stop offset="1" stop-color="#25A9E0"/>
</linearGradient>
<linearGradient id="paint4_linear_15095_60140" x1="21.6247" y1="63.6503" x2="32.0549" y2="85.3061" gradientUnits="userSpaceOnUse">
<stop stop-color="white"/>
<stop offset="1" stop-color="#25A9E0"/>
</linearGradient>
<linearGradient id="paint5_linear_15095_60140" x1="38.7138" y1="72.1189" x2="40.8718" y2="85.6992" gradientUnits="userSpaceOnUse">
<stop stop-color="white"/>
<stop offset="1" stop-color="#25A9E0"/>
</linearGradient>
</defs>
</svg>
