<svg xmlns="http://www.w3.org/2000/svg" width="124" height="100" fill="none" viewBox="0 0 124 100"><path fill="#fff" d="M77.208 76.888H62.703l.518-3.142 1.273-7.715h11.004l.462 2.958z"/><path fill="#102770" fill-rule="evenodd" d="M61.706 77.728h16.49L76.229 65.19H63.772zm14.505-1.68H63.708l1.507-9.178h9.554z" clip-rule="evenodd"/><path fill="#fff" d="M93.116 76.712h-46.32c-2.788 0-5.04 2.23-5.04 4.973h56.408c-.008-2.742-2.26-4.973-5.048-4.973"/><path fill="#102770" d="M98.164 81.693H41.755c0-.76.17-1.471.478-2.11q-.01.07-.008.143h55.526c.267.6.413 1.264.413 1.967" opacity=".3"/><path fill="#102770" fill-rule="evenodd" d="M41.747 82.533h56.409c.47 0 .85-.376.843-.84 0-3.206-2.642-5.812-5.891-5.812h-46.32c-3.25 0-5.892 2.606-5.892 5.812 0 .464.38.84.85.84m55.469-1.68h-54.53a4.18 4.18 0 0 1 4.101-3.293h46.32c2.026 0 3.712 1.415 4.109 3.293" clip-rule="evenodd"/><path fill="#5c6a79" d="M116.973 7.54v53.006c0 3.334-2.739 6.036-6.119 6.036H29.057c-3.38 0-6.118-2.702-6.118-6.036V7.331c0-3.59 2.95-6.5 6.588-6.5h80.639c3.76 0 6.807 3.007 6.807 6.708"/><path fill="#fff" d="M116.973 7.54v53.006a6 6 0 0 1-2.18 4.621c.259-.6.397-1.263.397-1.958V8.155c0-3.142-2.577-5.684-5.762-5.684H26.707c-.665 0-1.305.12-1.905.327A6.6 6.6 0 0 1 29.527.832h80.639c3.76 0 6.807 3.006 6.807 6.707" opacity=".5"/><path fill="#fff" d="M116.973 55.062v5.492c0 3.334-2.739 6.036-6.119 6.036H29.057c-3.38 0-6.118-2.702-6.118-6.036v-5.492z"/><path fill="#102770" d="M116.973 57.076v3.478c0 3.334-2.739 6.036-6.119 6.036H29.057c-3.38 0-6.118-2.702-6.118-6.036v-3.478c0 3.334 2.738 6.037 6.118 6.037h81.797c3.38 0 6.119-2.703 6.119-6.037" opacity=".3"/><path fill="#102770" fill-rule="evenodd" d="M29.057 67.43h81.797c3.841 0 6.969-3.086 6.961-6.876V7.547c0-4.157-3.428-7.547-7.65-7.547H29.527c-4.1 0-7.44 3.294-7.44 7.34v53.214c0 3.79 3.128 6.876 6.97 6.876m-5.268-60.1c0-3.118 2.577-5.66 5.738-5.66h80.647c3.282 0 5.948 2.63 5.948 5.868v53.007c0 2.862-2.367 5.197-5.268 5.197H29.057c-2.901 0-5.268-2.335-5.268-5.197z" clip-rule="evenodd"/><path fill="#102770" d="M116.973 55.781H22.938a.72.72 0 0 1-.729-.72c0-.4.324-.719.73-.719h94.034c.405 0 .729.32.729.72s-.324.72-.729.72"/><ellipse cx="69.958" cy="61.22" fill="#102770" rx="2.431" ry="2.463" transform="rotate(-80.782 69.958 61.22)"/><path fill="#fce5e5" d="M70.88 60.01c.477.384.559 1.072.364 1.312s-.584-.072-1.07-.464c-.478-.384-.867-.703-.672-.935.202-.24.9-.296 1.377.088" opacity=".3"/><path fill="#22a7f0" d="M112.151 9.154v38.648c0 1.743-1.426 3.15-3.193 3.15H30.945a3.18 3.18 0 0 1-2.61-1.343 3.1 3.1 0 0 1-.575-1.807V9.154c0-1.655 1.353-2.99 3.03-2.99h78.33a3.1 3.1 0 0 1 1.191.24 2.98 2.98 0 0 1 1.84 2.75"/><path fill="url(#a)" d="m56.836 6.156-28.5 43.453a3.1 3.1 0 0 1-.576-1.807V36.097L47.395 6.164h9.44z" opacity=".3"/><path fill="url(#b)" d="M112.151 9.154v8.827l-21.62 32.971H81.09l29.22-44.548a2.98 2.98 0 0 1 1.84 2.75" opacity=".3"/><path fill="#102770" d="M112.151 9.634v38.648a3.14 3.14 0 0 1-1.548 2.694V9.826c0-.984-.81-1.783-1.807-1.783H28.214a3.03 3.03 0 0 1 2.56-1.4h78.33c1.694-.007 3.047 1.336 3.047 2.991" opacity=".3"/><path fill="url(#c)" d="M88.44 6.156 59.064 50.944H38.603L67.978 6.156z" opacity=".3"/><path fill="#fff" d="M110.611 50.497a1.95 1.95 0 0 1-1.961 1.846H28.19c-1.086 0-1.962-.871-1.962-1.934V9.346c0-.983.81-1.783 1.808-1.783h.202c-.3.464-.47 1.008-.47 1.591v38.648c0 1.743 1.426 3.15 3.193 3.15h78.013a3.3 3.3 0 0 0 1.637-.456" opacity=".5"/><path fill="#102770" fill-rule="evenodd" d="M30.953 51.664h78.013c2.156 0 3.914-1.727 3.914-3.87V9.146c0-2.046-1.685-3.71-3.76-3.71H30.79c-2.074 0-3.76 1.664-3.76 3.71v38.648c0 2.135 1.76 3.87 3.923 3.87M28.489 9.146c0-1.247 1.03-2.27 2.302-2.27h78.337c1.265 0 2.302 1.015 2.302 2.27v38.648c0 1.343-1.11 2.43-2.464 2.43H30.953c-1.361 0-2.464-1.095-2.464-2.43z" clip-rule="evenodd"/><path fill="#fff" d="M98.748 12.177H97.2a.63.63 0 0 1-.632-.624v-1.527c0-.344.283-.624.632-.624h1.548a.63.63 0 0 1 .632.624v1.527a.62.62 0 0 1-.632.624m3.695 0h-1.556a.63.63 0 0 1-.632-.624v-1.527c0-.344.283-.624.632-.624h1.548a.63.63 0 0 1 .632.624v1.527a.617.617 0 0 1-.624.624m3.8 0h-1.547a.63.63 0 0 1-.632-.624v-1.527c0-.344.283-.624.632-.624h1.547c.349 0 .632.28.632.624v1.527a.63.63 0 0 1-.632.624" opacity=".42"/><path fill="#102770" d="m75.96 68.989-12.739 4.757 1.273-7.715h11.004z" opacity=".3"/><path fill="#ace0f5" d="m38.282 48.976 11.634 26.38a1.695 1.695 0 0 1-.863 2.231l-18.9 8.516a1.664 1.664 0 0 1-2.218-.846L16.3 58.877a1.704 1.704 0 0 1 .863-2.231l18.901-8.516c.847-.382 1.844 0 2.218.846"/><path fill="#dedde2" d="m51.072 82.922-18.34 8.263a4.755 4.755 0 0 1-6.315-2.404L13.225 58.878c-1.066-2.415.031-5.26 2.451-6.354l18.34-8.262a4.755 4.755 0 0 1 6.315 2.403L53.523 76.57c1.07 2.417-.026 5.262-2.45 6.353"/><path fill="#102770" d="M53.83 77.532a4.85 4.85 0 0 1-2.758 5.39l-18.34 8.263a4.75 4.75 0 0 1-6.315-2.404L13.225 58.878a4.77 4.77 0 0 1-.384-2.385l.173-.688.146-.586 1.506-1.513c-.996 1.162-1.202 2.64-.728 4.392l12.551 28.448a4.75 4.75 0 0 0 6.315 2.403l18.34-8.262a4.82 4.82 0 0 0 2.686-3.154" opacity=".3"/><path fill="#5f5a57" d="M13.18 55.425c.046.085.095.165.152.258l.082 1.22a6 6 0 0 1-.234-1.478" opacity=".3"/><path fill="#fff" d="m40.335 46.667 13.192 29.905a4.8 4.8 0 0 1 .178 3.403 4.3 4.3 0 0 0-.367-1.741L39.757 47.446a4.267 4.267 0 0 0-5.674-2.158L14.859 53.95a4.33 4.33 0 0 0-1.786 1.481 4.83 4.83 0 0 1 2.614-2.905l18.34-8.262a4.747 4.747 0 0 1 6.308 2.404"/><path fill="#102770" fill-rule="evenodd" d="M51.254 83.324a5.2 5.2 0 0 0 2.107-1.707q.404-.554.662-1.22a5.23 5.23 0 0 0-.091-4.015L40.74 46.477a5.14 5.14 0 0 0-2.895-2.752 5.2 5.2 0 0 0-4.005.127L15.5 52.114a5.26 5.26 0 0 0-2.77 2.927 5.24 5.24 0 0 0 .093 4.015L26.014 88.96a5.14 5.14 0 0 0 2.896 2.753 5.2 5.2 0 0 0 4.004-.127zM13.562 55.358q.208-.549.547-1.011a4.4 4.4 0 0 1 1.753-1.42l18.34-8.262a4.316 4.316 0 0 1 5.73 2.18L53.125 76.75a4.33 4.33 0 0 1 .076 3.336 4.38 4.38 0 0 1-2.3 2.43l-18.34 8.262a4.3 4.3 0 0 1-3.327.105 4.27 4.27 0 0 1-2.403-2.285L13.638 58.693a4.33 4.33 0 0 1-.076-3.335" clip-rule="evenodd"/><path fill="#102770" d="M38.943 48.483 50.11 73.788c.291.659.24 1.38-.07 1.975a1.6 1.6 0 0 0-.123-.407l-11.634-26.38a1.67 1.67 0 0 0-2.218-.846l-18.9 8.516a1.5 1.5 0 0 0-.295.171 2.28 2.28 0 0 1 1.26-1.441l17.825-8.03a2.24 2.24 0 0 1 2.99 1.137" opacity=".3"/><path fill="#22a7f0" d="m49.057 77.59-18.9 8.516a1.664 1.664 0 0 1-2.218-.846L16.304 58.88a1.695 1.695 0 0 1 .863-2.231l18.9-8.517a1.664 1.664 0 0 1 2.219.847l11.634 26.38a1.704 1.704 0 0 1-.863 2.23"/><g opacity=".57"><path fill="#fff" d="m39.73 62.703-13.905 6.265a1.055 1.055 0 0 1-1.4-.535l-1.922-4.352a1.075 1.075 0 0 1 .545-1.41l13.904-6.264a1.055 1.055 0 0 1 1.401.535l1.921 4.352a1.073 1.073 0 0 1-.545 1.41"/><path fill="#33499d" fill-rule="evenodd" d="M30.483 60.672a2.315 2.315 0 0 1 3.097 1.058 2.315 2.315 0 0 1-1.073 3.093 2.315 2.315 0 0 1-3.098-1.058 2.315 2.315 0 0 1 1.074-3.093m-.183 2.941 1.3.444a.15.15 0 0 0 .19-.093l.796-2.294a.15.15 0 0 0-.093-.19l-.282-.096a.15.15 0 0 0-.19.092l-.65 1.872-.875-.3a.15.15 0 0 0-.19.093l-.098.283a.15.15 0 0 0 .092.189" clip-rule="evenodd"/></g><path fill="#fff" d="m35.177 67.591-9.023 4.064a.28.28 0 0 1-.371-.141l-.303-.686a.285.285 0 0 1 .144-.373l9.023-4.063a.28.28 0 0 1 .371.141l.303.685a.29.29 0 0 1-.144.373" opacity=".57"/><path fill="url(#d)" d="m32.011 49.96-5.965 28.38-1.274-.26-4.97-11.273 2.632-12.532z" opacity=".3"/><path fill="url(#e)" d="m38.282 48.976.71 1.611-7.319 34.834-1.514.681a1.664 1.664 0 0 1-2.217-.846l-.595-1.344 7.391-35.185 1.323-.593a1.67 1.67 0 0 1 2.22.842" opacity=".3"/><path fill="url(#f)" d="m44.252 62.506 3.141 7.13-2.02 9.61-5.125 2.312z" opacity=".47"/><path fill="#102770" fill-rule="evenodd" d="M49.204 77.923c.34-.151.618-.384.824-.668.422-.58.532-1.358.224-2.053l-11.634-26.38a2.04 2.04 0 0 0-2.704-1.028l-18.9 8.516a2.07 2.07 0 0 0-1.083 1.148c-.2.516-.185 1.072.034 1.573l11.634 26.38a2.04 2.04 0 0 0 2.704 1.028zm.376-2.414a1.32 1.32 0 0 1-.67 1.741l-18.905 8.513a1.3 1.3 0 0 1-1.004.03 1.3 1.3 0 0 1-.723-.69l-11.634-26.38a1.32 1.32 0 0 1 .674-1.738l18.9-8.517c.32-.14.678-.156 1.004-.03.323.125.582.368.724.691z" clip-rule="evenodd"/><ellipse cx="40.833" cy="84.591" fill="#102770" rx=".959" ry=".964" transform="rotate(-115.615 40.833 84.591)"/><path fill="#102770" d="M28.868 49.444a.35.35 0 0 1-.135.11l-5.62 2.534a.335.335 0 0 1-.445-.171.34.34 0 0 1 .174-.449l5.62-2.533a.335.335 0 0 1 .406.509"/><path fill="#5f5a57" d="m16.15 53.47-1.477.234c.33-.197.863-.245 1.478-.234" opacity=".3"/><path fill="#102770" d="m36.061 48.134-18.9 8.516a1.7 1.7 0 0 0-.994 1.75q.195-.18.452-.295l18.9-8.516a1.664 1.664 0 0 1 2.218.846l11.635 26.38c.07.154.112.32.13.48a1.7 1.7 0 0 0 .411-1.935L38.28 48.98a1.663 1.663 0 0 0-2.218-.846" opacity=".3"/><g fill-rule="evenodd" clip-rule="evenodd"><path fill="#45ae57" d="M104.925 78.39c21.606-9.152 17.713-34.05 17.713-34.05-10.317-.856-17.713-7.216-17.713-7.216s-7.396 6.36-17.713 7.217c0 0-3.894 24.897 17.713 34.05"/><path fill="#188b3b" d="M122.648 44.108a28 28 0 0 1-4.01-.635c.18 7.851-1.1 25.987-15.819 33.87.709.37 1.439.72 2.201 1.048 21.501-9.216 17.628-34.283 17.628-34.283"/><path fill="#fdfdfd" d="M105.454 73.1c15.882-7.036 13.025-26.188 13.025-26.188-7.586-.667-13.025-5.555-13.025-5.555s-5.439 4.888-13.025 5.555c0 0-2.857 19.152 13.025 26.188"/><path fill="#dfe0df" d="M119.537 47.399a23 23 0 0 1-4.137-.741c.265 4.455.138 18.845-11.533 25.373.709.392 1.45.752 2.243 1.08 16.369-6.91 13.427-25.712 13.427-25.712"/><path fill="#45ae57" d="M103.369 63.577a2 2 0 0 1-1.439-.624l-3.788-3.936c-.814-.847-.835-2.243-.042-3.122.794-.878 2.095-.889 2.92-.042l2.339 2.434 5.47-5.725a1.98 1.98 0 0 1 2.921.032c.793.868.783 2.264-.032 3.121l-6.91 7.227c-.402.424-.92.635-1.439.635"/><path fill="#17365c" d="M121.643 57.842c-2.211 9.629-7.661 16.443-16.189 20.242-8.528-3.799-13.978-10.602-16.19-20.242-1.406-6.116-.994-11.512-.814-13.141 8.782-.921 15.29-5.725 17.004-7.11 1.703 1.385 8.221 6.189 17.004 7.11.18 1.64.592 7.036-.815 13.141m2.053-13.85a.665.665 0 0 0-.593-.561c-9.893-.847-17.141-7.132-17.205-7.195a.647.647 0 0 0-.867 0c-.074.063-7.312 6.348-17.205 7.195a.64.64 0 0 0-.593.56c-.042.265-.963 6.56.762 14.105 1.598 7.005 5.883 16.38 17.216 21.31a.7.7 0 0 0 .264.053c.095 0 .18-.02.265-.053 11.332-4.93 15.617-14.305 17.215-21.31 1.725-7.544.804-13.84.762-14.104m-18.263 28.78c-13.67-6.148-12.856-21.638-12.56-24.633 6.38-.709 11.142-4.126 12.56-5.258 1.428 1.132 6.19 4.55 12.56 5.258.296 2.995 1.121 18.485-12.56 24.633M118.67 46.88c-7.344-.624-12.719-5.3-12.772-5.343a.647.647 0 0 0-.867 0c-.053.042-5.428 4.719-12.772 5.343a.65.65 0 0 0-.592.55c-.032.19-2.773 19.565 13.533 26.654a.7.7 0 0 0 .264.053c.096 0 .18-.021.265-.053 16.305-7.09 13.565-26.463 13.533-26.653a.64.64 0 0 0-.592-.55m-6.92 8.253-6.73 6.624c-.508.498-1.386.498-1.894 0l-3.693-3.597a1.357 1.357 0 0 1-.032-1.915 1.355 1.355 0 0 1 1.916-.032l2.285 2.222a.64.64 0 0 0 .91 0l5.333-5.238a1.344 1.344 0 0 1 1.915.021c.254.265.392.603.392.963s-.148.71-.413.963m-2.804-2.889-4.878 4.794-1.82-1.778a2.66 2.66 0 0 0-4.518 1.958c0 .72.296 1.386.804 1.883l3.693 3.598a2.65 2.65 0 0 0 1.862.75c.699 0 1.365-.274 1.863-.761l6.729-6.613a2.67 2.67 0 0 0 .804-1.884c0-.72-.264-1.386-.761-1.904a2.66 2.66 0 0 0-3.767-.043"/></g><path fill="#f7f5ff" fill-opacity=".85" d="M64.185 26.118c-1.52 0-2.784.19-3.826.604v-.318c0-1.821.286-3.006.883-3.547.604-.541 1.742-.796 3.476-.796 1.01 0 2.179.16 3.475.477 1.424.35 1.838.032 1.838-1.471v-.382c0-1.44-.319-1.853-1.806-2.203a14.7 14.7 0 0 0-3.444-.413c-6.196 0-8.693 2.489-8.693 8.534v4.637c0 5.528 2.37 8.312 7.587 8.312 5.218 0 7.525-2.076 7.525-7.159 0-4.7-2.307-6.267-7.015-6.267zm-.478 3.674c2.434 0 3.253.541 3.253 2.848s-.628 2.943-3.006 2.943c-1.551 0-2.53-.35-2.975-1.09-.413-.732-.628-1.949-.628-3.643v-.318c.978-.477 2.084-.732 3.348-.732zm17.045-8.447q-.002-3.279-3.857-3.277-4.094 0-4.096 3.413v1.217c0 2.322 1.44 3.324 4.589 3.324.859 0 1.567-.063 2.147-.199.772-.167.931-.318.931-.986v-.167c0-.716-.175-.867-.93-.732-.772.136-1.48.215-2.132.215-1.623 0-2.307-.366-2.307-1.153v-.23h4.47c.827 0 1.058-.152 1.146-.836.016-.183.031-.382.031-.589zm-5.655-.413c0-.772.58-1.153 1.726-1.153s1.742.381 1.742 1.153v.23h-3.468z"/><defs><linearGradient id="a" x1="29.646" x2="10.833" y1="-2.095" y2="41.061" gradientUnits="userSpaceOnUse"><stop stop-color="#fff"/><stop offset="1" stop-color="#25a9e0"/></linearGradient><linearGradient id="b" x1="83.874" x2="66.227" y1="8.612" y2="52.566" gradientUnits="userSpaceOnUse"><stop stop-color="#fff"/><stop offset="1" stop-color="#25a9e0"/></linearGradient><linearGradient id="c" x1="41.012" x2="33.508" y1="4.811" y2="52.414" gradientUnits="userSpaceOnUse"><stop stop-color="#fff"/><stop offset="1" stop-color="#25a9e0"/></linearGradient><linearGradient id="d" x1="13.383" x2="20.967" y1="60.12" y2="85.26" gradientUnits="userSpaceOnUse"><stop stop-color="#fff"/><stop offset="1" stop-color="#25a9e0"/></linearGradient><linearGradient id="e" x1="21.625" x2="32.055" y1="63.65" y2="85.306" gradientUnits="userSpaceOnUse"><stop stop-color="#fff"/><stop offset="1" stop-color="#25a9e0"/></linearGradient><linearGradient id="f" x1="38.714" x2="40.872" y1="72.119" y2="85.699" gradientUnits="userSpaceOnUse"><stop stop-color="#fff"/><stop offset="1" stop-color="#25a9e0"/></linearGradient></defs></svg>