<?xml version="1.0" encoding="UTF-8"?>
<svg id="illus_fin_module" xmlns="http://www.w3.org/2000/svg" xmlns:xlink="http://www.w3.org/1999/xlink" viewBox="0 0 700 600">
  <defs>
    <style>
      .cls-1 {
        fill: #6712ff;
      }

      .cls-2 {
        fill: #d8c2ff;
      }

      .cls-3 {
        fill: #5e6c84;
      }

      .cls-4 {
        fill: #c4a4ff;
      }

      .cls-5 {
        fill: #b186ff;
      }

      .cls-6 {
        fill: #9da6b4;
      }

      .cls-7 {
        fill: #272727;
      }

      .cls-8 {
        fill: #ffe381;
      }

      .cls-9 {
        fill: #fff;
      }

      .cls-10 {
        mask: url(#mask);
      }

      .cls-11 {
        fill: #3d68ff;
      }

      .cls-12 {
        fill: #8a49ff;
      }

      .cls-13 {
        fill: #7f5ac2;
      }

      .cls-14 {
        fill: none;
      }

      .cls-15 {
        fill: #3f08a3;
      }

      .cls-16 {
        fill: #ffd235;
      }

      .cls-17 {
        fill: #ce8900;
      }

      .cls-18 {
        fill: #4408b0;
      }

      .cls-19 {
        fill: #c1c7d0;
      }

      .cls-20 {
        fill: #fff1c5;
      }

      .cls-21 {
        fill: #4a94ff;
      }

      .cls-22 {
        fill: #193cb6;
      }

      .cls-23 {
        fill: #c86fff;
      }

      .cls-24 {
        fill: #9d7fd5;
      }
    </style>
    <mask id="mask" x="38.18" y="201.82" width="624.65" height="291.29" maskUnits="userSpaceOnUse">
      <g id="mask0_156_33518" data-name="mask0 156 33518">
        <path class="cls-9" d="M581.63,201.82H181.2c-3.15,0-5.71,2.56-5.71,5.71v245.35c0,3.15,2.56,5.71,5.71,5.71h400.43c3.15,0,5.71-2.55,5.71-5.71v-245.35c0-3.15-2.55-5.71-5.71-5.71Z"/>
      </g>
    </mask>
  </defs>
  <path class="cls-3" d="M585.84,186.74H176.98c-9.15,0-16.57,7.42-16.57,16.57v253.77c0,9.15,7.42,16.57,16.57,16.57h408.85c9.15,0,16.57-7.42,16.57-16.57v-253.77c0-9.15-7.42-16.57-16.57-16.57Z"/>
  <path class="cls-7" d="M585.84,189.12c7.8,0,14.19,6.38,14.19,14.19v253.78c0,7.8-6.39,14.19-14.19,14.19H176.98c-7.8,0-14.19-6.39-14.19-14.19v-253.78c0-7.8,6.38-14.19,14.19-14.19h408.85ZM585.84,184.37H176.98c-10.45,0-18.94,8.5-18.94,18.95v253.78c0,10.45,8.5,18.95,18.94,18.95h408.85c10.45,0,18.94-8.5,18.94-18.95v-253.78c0-10.45-8.5-18.95-18.94-18.95Z"/>
  <path class="cls-9" d="M581.63,201.82H181.2c-3.15,0-5.71,2.56-5.71,5.71v245.35c0,3.15,2.56,5.71,5.71,5.71h400.43c3.15,0,5.71-2.55,5.71-5.71v-245.35c0-3.15-2.55-5.71-5.71-5.71Z"/>
  <g class="cls-10">
    <g>
      <path class="cls-20" d="M50.55,490.74c-1.26,0-2.29-.98-2.38-2.24l-7.61-123.92c-.02-.34.03-.69.15-1,10.78-27.94,53.09-32.3,78.36-34.91l1.3-.13c11.67-1.21,24.33-1.8,38.71-1.8s29.3.59,43.59,1.17c14.27.57,29.03,1.16,43.5,1.16,6.62,0,12.7-.12,18.57-.36,55.37-2.32,102.4-11.72,143.75-28.75,20.86-8.58,40.59-20.78,59.68-32.57,27.1-16.75,55.13-34.06,87-41.51,6.85-1.6,58.11-10.59,79.59-10.59,5.82,0,11.25.52,11.55,4.33.13,1.92,13.54,257.73,14.11,268.62.04.66-.2,1.28-.65,1.76-.45.48-1.07.74-1.72.74H50.55Z"/>
      <path class="cls-8" d="M634.79,217.66c5.56,0,9.06.62,9.18,2.14.13,1.89,14.1,268.55,14.1,268.55H50.55l-7.61-123.92c10.44-27.05,53.23-31,77.68-33.53,12.79-1.32,25.62-1.78,38.46-1.78,28.97,0,58.06,2.33,87.1,2.33,6.22,0,12.46-.1,18.67-.37,49.35-2.06,98.68-10.04,144.56-28.93,50.65-20.86,92.45-61.37,146.32-73.96,6.22-1.46,57.73-10.53,79.05-10.53M634.79,212.9c-21.66,0-73.24,9.05-80.13,10.66-32.25,7.54-60.44,24.96-87.71,41.8-19.01,11.74-38.66,23.88-59.34,32.4-41.09,16.92-87.84,26.26-142.94,28.56-5.84.25-11.88.36-18.48.36-14.43,0-29.16-.59-43.41-1.16-14.31-.57-29.12-1.17-43.68-1.17s-27.2.59-38.96,1.81l-1.3.13c-25.81,2.66-69.03,7.13-80.34,36.42-.25.64-.35,1.32-.31,2.01l7.61,123.92c.15,2.51,2.24,4.46,4.75,4.46h607.52c1.3,0,2.55-.53,3.45-1.48.9-.95,1.37-2.22,1.3-3.52-.57-10.88-13.98-266.72-14.11-268.63v-.06c-.53-6.52-9.57-6.52-13.93-6.52Z"/>
      <path class="cls-2" d="M176.18,467.85v-36.7c0-7,5.7-12.7,12.7-12.7h43.61c7,0,12.7,5.7,12.7,12.7v36.7h-69.01Z"/>
      <path class="cls-24" d="M232.49,420.82c5.69,0,10.32,4.64,10.32,10.33v34.32h-64.25v-34.32c0-5.69,4.63-10.33,10.32-10.33h43.61M232.49,416.06h-43.61c-8.33,0-15.08,6.75-15.08,15.08v39.08h73.76v-39.08c0-8.33-6.75-15.08-15.08-15.08h0Z"/>
      <path class="cls-4" d="M249.94,467.85v-67.82c0-7,5.7-12.7,12.7-12.7h43.61c7,0,12.7,5.7,12.7,12.7v67.82h-69.01Z"/>
      <path class="cls-13" d="M306.26,389.72c5.69,0,10.32,4.63,10.32,10.32v65.44h-64.25v-65.44c0-5.69,4.63-10.32,10.32-10.32h43.61M306.26,384.96h-43.61c-8.33,0-15.08,6.75-15.08,15.08v70.19h73.76v-70.19c0-8.32-6.75-15.08-15.08-15.08h0Z"/>
      <path class="cls-12" d="M323.72,467.85v-108.13c0-7.01,5.7-12.7,12.7-12.7h43.61c7,0,12.7,5.7,12.7,12.7v108.13h-69.02Z"/>
      <path class="cls-18" d="M380.02,349.4c5.69,0,10.32,4.64,10.32,10.33v105.75h-64.25v-105.75c0-5.69,4.63-10.33,10.32-10.33h43.61M380.02,344.64h-43.61c-8.33,0-15.08,6.75-15.08,15.08v110.51h73.76v-110.51c0-8.33-6.75-15.08-15.08-15.08h.01Z"/>
      <path class="cls-5" d="M397.48,467.85v-84.87c0-7.01,5.7-12.7,12.7-12.7h43.61c7,0,12.7,5.7,12.7,12.7v84.87h-69.02Z"/>
      <path class="cls-13" d="M453.79,372.65c5.69,0,10.33,4.63,10.33,10.33v82.49h-64.25v-82.49c0-5.69,4.63-10.33,10.33-10.33h43.61M453.79,367.9h-43.61c-8.32,0-15.08,6.75-15.08,15.08v87.24h73.76v-87.24c0-8.33-6.75-15.08-15.08-15.08h0Z"/>
      <path class="cls-12" d="M471.24,467.85v-125.87c0-7,5.7-12.7,12.69-12.7h43.61c7,0,12.69,5.7,12.69,12.7v125.87h-69,0Z"/>
      <path class="cls-18" d="M527.55,331.66c5.69,0,10.33,4.63,10.33,10.33v123.49h-64.25v-123.49c0-5.69,4.63-10.33,10.33-10.33h43.61M527.55,326.9h-43.61c-8.32,0-15.08,6.75-15.08,15.08v128.25h73.76v-128.25c0-8.33-6.75-15.08-15.08-15.08h0Z"/>
    </g>
  </g>
  <path class="cls-7" d="M581.62,460.97H181.2c-4.46,0-8.09-3.63-8.09-8.09v-245.35c0-4.46,3.63-8.09,8.09-8.09h400.43c4.46,0,8.09,3.63,8.09,8.09v245.35c0,4.46-3.63,8.09-8.09,8.09h0ZM181.2,204.2c-1.84,0-3.33,1.49-3.33,3.33v245.35c0,1.84,1.49,3.33,3.33,3.33h400.43c1.84,0,3.33-1.49,3.33-3.33v-245.35c0-1.84-1.49-3.33-3.33-3.33H181.2Z"/>
  <path class="cls-6" d="M123.75,541.36c-3.55,0-6.6-2.04-7.97-5.31-1.37-3.27-.68-6.88,1.82-9.4l47-47.64c2.73-2.77,6.53-4.36,10.42-4.36h412.79c3.89,0,7.69,1.59,10.42,4.36l47,47.64c2.49,2.52,3.19,6.13,1.82,9.4-1.37,3.27-4.42,5.31-7.98,5.31H123.75Z"/>
  <path class="cls-7" d="M587.81,477.03c3.28,0,6.42,1.31,8.72,3.65l47,47.64c3.9,3.96,1.1,10.66-4.46,10.66H123.75c-5.56,0-8.36-6.7-4.46-10.66l47-47.64c2.3-2.33,5.44-3.65,8.73-3.65h412.79ZM587.81,472.27H175.01c-4.52,0-8.93,1.84-12.11,5.06l-47,47.64c-3.13,3.17-4.04,7.88-2.32,11.99,1.72,4.11,5.71,6.77,10.16,6.77h515.31c4.45,0,8.45-2.65,10.16-6.77,1.72-4.11.81-8.82-2.32-11.99l-47-47.64c-3.18-3.22-7.59-5.06-12.11-5.06h.02Z"/>
  <path class="cls-19" d="M146.03,518.37c-.06,0-.1,0-.15-.11-.04-.09,0-.13.04-.18l29.49-29.91c.59-.6,1.42-.94,2.26-.94h407.49c.85,0,1.66.34,2.26.94l29.49,29.9s.08.08.04.18c-.04.09-.1.09-.15.09H146.03v.02Z"/>
  <path class="cls-7" d="M585.16,489.63c.21,0,.42.09.57.24l25.78,26.13H151.32l25.78-26.13c.15-.15.35-.24.57-.24h407.49ZM585.16,484.87H177.67c-1.48,0-2.91.6-3.96,1.66l-29.49,29.91c-1.59,1.61-.45,4.33,1.81,4.33h470.77c2.26,0,3.4-2.72,1.81-4.33l-29.49-29.91c-1.05-1.06-2.47-1.66-3.96-1.66Z"/>
  <path class="cls-7" d="M646.44,529.5H115.99v4.76h530.45v-4.76Z"/>
  <path class="cls-23" d="M195.51,107.26c-3.14-5.45-6.8-11.25-10.76-16.12-2.57-3.29-3.17-7.22-3.19-11.43,0-.28.22-.51.49-.5,3.13.62,5.47,2.59,7.4,4.82,1.85,2.07,2.23,4.89,3.14,7.39.44,1.27.88,2.52,1.28,3.8.31.77,3.87,14.07,1.64,12.04h0Z"/>
  <path class="cls-23" d="M180.43,122.86c-10.13-4.22-19.27-10.53-28.13-16.94-4.38-3.2-9.15-5.94-12.99-9.82-3.91-3.87-7.62-7.99-10.55-12.71-.12-.2-.06-.46.14-.57.1-.06.21-.07.3-.04,2.83.75,5.41,1.88,7.89,3.16,2.46,1.29,4.81,2.73,7.06,4.3,4.55,3.04,8.05,7.29,12.02,10.99,3.95,3.67,7.9,7.36,11.95,10.9,4.03,3.57,8.2,6.97,12.66,10.07.36.23.06.86-.36.68v-.02Z"/>
  <path class="cls-23" d="M162.76,139.47c-8.39.17-16.7-1.83-24.75-4.02-3.96-1.1-8.15-1.64-11.84-3.57-3.78-1.9-7.39-4.13-10.52-7.06-.18-.16-.19-.45,0-.62,4.37-1.16,8.89-.42,13.13.53,4.08.9,7.57,3.28,11.31,5,3.72,1.69,7.42,3.39,11.19,4.95,3.76,1.58,7.57,2.97,11.56,4.03.41.1.35.75-.09.76h0Z"/>
  <path class="cls-11" d="M122.57,281.83c-.11,0-.23,0-.35-.02l-10.31-1.1c-1.78-.19-3.07-1.79-2.88-3.57.18-1.66,1.56-2.9,3.23-2.9.11,0,.23,0,.35.02l10.31,1.1c1.78.19,3.07,1.79,2.88,3.57-.18,1.66-1.56,2.9-3.23,2.9Z"/>
  <path class="cls-11" d="M112.26,274.72c.1,0,.2,0,.29.02l10.31,1.1c1.52.16,2.63,1.52,2.45,3.04-.15,1.42-1.35,2.47-2.75,2.47-.1,0-.2,0-.3-.02l-10.31-1.1c-1.52-.16-2.63-1.52-2.45-3.04.15-1.42,1.35-2.47,2.75-2.47ZM112.26,273.77c-1.9,0-3.49,1.43-3.69,3.33-.22,2.04,1.27,3.87,3.3,4.09l10.31,1.1c.13,0,.27.02.4.02,1.9,0,3.49-1.43,3.69-3.33.22-2.04-1.27-3.87-3.3-4.09l-10.31-1.1c-.13,0-.27-.02-.4-.02Z"/>
  <path class="cls-11" d="M107.28,309.14c-.11,0-.23,0-.34-.02-.87-.1-1.64-.51-2.18-1.19l-6.02-7.46c-.54-.68-.79-1.52-.7-2.38.1-.87.51-1.64,1.19-2.18.57-.47,1.29-.72,2.04-.72.99,0,1.91.44,2.53,1.21l6.02,7.46c.54.68.79,1.52.7,2.38-.09.86-.51,1.64-1.19,2.18-.57.47-1.29.72-2.04.72h0Z"/>
  <path class="cls-11" d="M101.25,295.67c.81,0,1.61.35,2.16,1.03l6.02,7.46c.96,1.19.77,2.93-.42,3.89-.51.41-1.12.62-1.74.62-.1,0-.2,0-.29-.02-.7-.08-1.38-.42-1.87-1.02l-6.02-7.46c-.96-1.19-.77-2.93.42-3.89.51-.41,1.12-.62,1.74-.62M101.25,294.71c-.85,0-1.67.29-2.33.83-.77.63-1.26,1.51-1.36,2.5-.1.99.18,1.96.81,2.73l6.02,7.46c.63.77,1.51,1.26,2.5,1.36.13,0,.27.02.4.02.85,0,1.67-.3,2.33-.83.77-.63,1.26-1.51,1.36-2.5.1-.99-.18-1.96-.81-2.73l-6.02-7.46c-.71-.88-1.76-1.38-2.89-1.38h0Z"/>
  <path class="cls-11" d="M77.37,318.32c-.11,0-.23,0-.35-.02-.87-.1-1.64-.51-2.18-1.19-.54-.68-.79-1.52-.7-2.38l1.1-10.31c.18-1.66,1.56-2.9,3.23-2.9.11,0,.23,0,.35.02,1.78.19,3.07,1.79,2.88,3.57l-1.1,10.31c-.18,1.66-1.56,2.9-3.23,2.9Z"/>
  <path class="cls-11" d="M78.46,302c.1,0,.2,0,.3.02,1.52.16,2.63,1.52,2.45,3.04l-1.1,10.31c-.15,1.42-1.35,2.47-2.75,2.47-.1,0-.2,0-.3-.02-1.52-.16-2.63-1.52-2.45-3.04l1.1-10.31c.15-1.42,1.35-2.47,2.75-2.47ZM78.46,301.05c-1.9,0-3.49,1.43-3.69,3.33l-1.1,10.31c-.22,2.04,1.27,3.87,3.3,4.09.13,0,.27.02.4.02,1.9,0,3.49-1.43,3.69-3.33l1.1-10.31c.1-.99-.18-1.96-.81-2.73-.63-.77-1.51-1.26-2.5-1.36-.13,0-.27-.02-.4-.02h0Z"/>
  <path class="cls-11" d="M50.06,303.03c-.11,0-.23,0-.34-.02-.87-.1-1.64-.51-2.18-1.19-.54-.68-.79-1.52-.7-2.38.1-.87.51-1.64,1.19-2.18l7.46-6.02c.57-.47,1.29-.72,2.04-.72.99,0,1.9.44,2.53,1.21.54.68.79,1.52.7,2.38-.09.86-.51,1.64-1.19,2.18l-7.46,6.02c-.57.47-1.29.72-2.04.72h0Z"/>
  <path class="cls-11" d="M57.52,290.99c.81,0,1.61.35,2.16,1.03.96,1.19.77,2.93-.42,3.89l-7.46,6.02c-.51.41-1.12.62-1.74.62-.1,0-.2,0-.29-.02-.7-.08-1.38-.42-1.86-1.02-.96-1.19-.77-2.93.42-3.89l7.46-6.02c.51-.41,1.12-.62,1.74-.62M57.52,290.04c-.85,0-1.67.29-2.33.83l-7.46,6.02c-.77.63-1.26,1.51-1.36,2.5-.1.99.18,1.96.81,2.73.63.77,1.51,1.26,2.5,1.36.13,0,.27.02.4.02.85,0,1.67-.3,2.33-.83l7.46-6.02c.77-.63,1.26-1.51,1.36-2.5.1-.99-.18-1.96-.81-2.73-.71-.88-1.77-1.38-2.89-1.38h0Z"/>
  <path class="cls-11" d="M51.18,274.22c-.11,0-.23,0-.35-.02l-10.31-1.1c-1.78-.19-3.07-1.79-2.88-3.57.18-1.66,1.56-2.9,3.23-2.9.11,0,.23,0,.35.02l10.31,1.1c.87.1,1.64.51,2.18,1.19.54.68.79,1.52.7,2.38-.18,1.66-1.56,2.9-3.23,2.9Z"/>
  <path class="cls-11" d="M40.87,267.1c.1,0,.2,0,.29.02l10.31,1.1c1.52.16,2.63,1.52,2.45,3.04-.15,1.42-1.35,2.47-2.75,2.47-.1,0-.2,0-.29-.02l-10.31-1.1c-1.52-.16-2.63-1.52-2.45-3.04.15-1.42,1.35-2.47,2.75-2.47ZM40.87,266.15c-1.9,0-3.49,1.43-3.69,3.33-.22,2.04,1.27,3.87,3.3,4.09l10.31,1.1c.13,0,.27.02.4.02,1.9,0,3.49-1.43,3.69-3.33.1-.99-.18-1.96-.81-2.73-.63-.77-1.51-1.26-2.5-1.36l-10.31-1.1c-.13,0-.27-.02-.4-.02h0Z"/>
  <path class="cls-11" d="M62.19,253.28c-.11,0-.23,0-.34-.02-.87-.1-1.64-.51-2.18-1.19l-6.02-7.46c-.54-.68-.79-1.52-.7-2.38.1-.87.51-1.64,1.19-2.18.57-.47,1.29-.72,2.04-.72.99,0,1.91.44,2.53,1.21l6.02,7.46c.54.68.79,1.52.7,2.38-.1.87-.51,1.64-1.19,2.18-.57.47-1.29.72-2.04.72h0Z"/>
  <path class="cls-11" d="M56.17,239.8c.81,0,1.61.35,2.16,1.03l6.02,7.46c.96,1.19.77,2.93-.42,3.89-.51.41-1.12.62-1.74.62-.1,0-.2,0-.29-.02-.7-.08-1.38-.42-1.86-1.02l-6.02-7.46c-.96-1.19-.77-2.93.42-3.89.51-.41,1.12-.62,1.74-.62M56.17,238.85c-.85,0-1.67.29-2.33.83-.77.63-1.26,1.51-1.36,2.5-.1.99.18,1.96.81,2.73l6.02,7.46c.63.77,1.51,1.26,2.5,1.36.13,0,.27.02.4.02.85,0,1.67-.3,2.33-.83.77-.63,1.26-1.51,1.36-2.5.1-.99-.18-1.96-.81-2.73l-6.02-7.46c-.7-.88-1.76-1.38-2.89-1.38h0Z"/>
  <path class="cls-11" d="M84.99,246.94c-.11,0-.23,0-.35-.02-.87-.1-1.64-.51-2.18-1.19-.54-.68-.79-1.52-.7-2.38l1.1-10.31c.18-1.66,1.56-2.9,3.23-2.9.11,0,.23,0,.35.02,1.78.19,3.07,1.79,2.88,3.57l-1.1,10.31c-.18,1.66-1.56,2.9-3.23,2.9Z"/>
  <path class="cls-11" d="M86.07,230.62c.1,0,.2,0,.3.02,1.52.16,2.63,1.52,2.45,3.04l-1.1,10.31c-.15,1.42-1.35,2.47-2.75,2.47-.1,0-.2,0-.3-.02-1.52-.16-2.63-1.52-2.45-3.04l1.1-10.31c.15-1.42,1.35-2.47,2.75-2.47ZM86.07,229.67c-1.9,0-3.49,1.43-3.69,3.33l-1.1,10.31c-.22,2.04,1.27,3.87,3.3,4.09.13,0,.27.02.4.02,1.9,0,3.49-1.43,3.69-3.33l1.1-10.31c.22-2.04-1.27-3.87-3.3-4.09-.13,0-.27-.02-.4-.02Z"/>
  <path class="cls-11" d="M105.92,257.94c-.11,0-.23,0-.34-.02-.87-.1-1.64-.51-2.18-1.19-.54-.68-.79-1.52-.7-2.38.1-.87.51-1.64,1.19-2.18l7.46-6.02c.57-.47,1.29-.72,2.04-.72.99,0,1.9.44,2.52,1.21.54.68.79,1.52.7,2.38-.1.87-.51,1.64-1.19,2.18l-7.46,6.02c-.57.47-1.29.72-2.04.72Z"/>
  <path class="cls-11" d="M113.38,245.9c.81,0,1.61.35,2.16,1.03.96,1.19.77,2.93-.42,3.89l-7.46,6.02c-.51.41-1.12.62-1.74.62-.1,0-.2,0-.3-.02-.7-.08-1.38-.42-1.86-1.02-.96-1.19-.77-2.93.42-3.89l7.46-6.02c.51-.41,1.12-.62,1.74-.62M113.38,244.95c-.85,0-1.67.3-2.33.83l-7.46,6.02c-.77.63-1.26,1.51-1.36,2.5-.1.99.18,1.96.81,2.73.63.77,1.51,1.26,2.5,1.36.13,0,.27.02.4.02.85,0,1.67-.29,2.33-.83l7.46-6.02c.77-.63,1.26-1.51,1.36-2.5.1-.99-.18-1.96-.81-2.73-.7-.88-1.76-1.38-2.89-1.38h0Z"/>
  <path class="cls-12" d="M515.23,152.14c-.35,0-.7-.1-1.01-.27-1-.55-1.36-1.83-.8-2.83l2.91-5.23c.36-.66,1.06-1.07,1.82-1.07.35,0,.7.1,1.01.27.49.27.84.71.99,1.25.15.53.09,1.09-.18,1.58l-2.91,5.23c-.36.66-1.06,1.07-1.82,1.07h-.01Z"/>
  <path class="cls-12" d="M518.14,143.23c.27,0,.53.07.78.2.77.43,1.04,1.41.62,2.18l-2.91,5.23c-.29.52-.84.82-1.4.82-.27,0-.53-.07-.78-.2-.77-.43-1.05-1.41-.62-2.18l2.91-5.23c.3-.52.84-.82,1.4-.82ZM518.14,142.28c-.92,0-1.78.5-2.23,1.31l-2.91,5.23c-.33.6-.41,1.28-.23,1.94.19.66.62,1.2,1.21,1.53.38.21.81.32,1.24.32.92,0,1.78-.5,2.23-1.31l2.91-5.23c.69-1.23.24-2.79-.99-3.47-.38-.21-.81-.32-1.24-.32h0Z"/>
  <path class="cls-12" d="M504.15,137.84c-.92,0-1.74-.62-2-1.5-.15-.53-.09-1.09.18-1.58.27-.49.71-.84,1.24-.99l5.33-1.52c.19-.06.38-.08.57-.08.92,0,1.74.62,2,1.5.15.53.09,1.09-.18,1.58-.27.49-.71.84-1.25.99l-5.33,1.52c-.19.06-.38.08-.57.08Z"/>
  <path class="cls-12" d="M509.49,132.64c.7,0,1.34.46,1.54,1.16.24.85-.25,1.73-1.1,1.98l-5.33,1.52c-.14.04-.29.06-.44.06-.7,0-1.34-.46-1.54-1.16-.13-.43-.06-.86.14-1.22.2-.36.53-.64.96-.76l5.33-1.52c.14-.04.29-.06.44-.06ZM509.49,131.69c-.24,0-.47.03-.7.1l-5.33,1.52c-.66.19-1.2.62-1.53,1.21-.33.6-.41,1.28-.23,1.94.31,1.09,1.32,1.86,2.45,1.86.24,0,.48-.03.71-.1l5.33-1.52c.66-.19,1.2-.62,1.53-1.21.33-.6.41-1.28.23-1.94-.31-1.09-1.32-1.86-2.45-1.86Z"/>
  <path class="cls-12" d="M511.26,122.76c-.35,0-.7-.1-1.01-.27l-5.23-2.91c-1-.55-1.36-1.83-.81-2.83.36-.66,1.07-1.07,1.82-1.07.35,0,.71.1,1.01.27l5.24,2.91c1,.55,1.36,1.83.8,2.83-.36.66-1.07,1.07-1.82,1.07h0Z"/>
  <path class="cls-12" d="M506.03,116.18c.27,0,.53.07.78.2l5.24,2.91c.77.43,1.04,1.41.62,2.18-.29.52-.84.82-1.4.82-.27,0-.53-.07-.78-.2l-5.23-2.91c-.77-.43-1.05-1.41-.62-2.18.29-.52.84-.82,1.4-.82ZM506.03,115.23c-.92,0-1.78.5-2.23,1.31-.69,1.23-.24,2.79.99,3.47l5.23,2.91c.38.21.81.32,1.24.32.92,0,1.78-.5,2.23-1.31.69-1.23.24-2.79-.99-3.47l-5.24-2.91c-.38-.21-.81-.32-1.24-.32Z"/>
  <path class="cls-12" d="M521.84,114.11c-.92,0-1.74-.62-2-1.5l-1.52-5.33c-.15-.53-.09-1.09.18-1.58.27-.49.71-.84,1.25-.99.19-.06.38-.08.57-.08.92,0,1.74.62,2,1.5l1.52,5.33c.15.53.09,1.09-.18,1.58-.27.49-.71.84-1.25.99-.19.06-.38.08-.57.08Z"/>
  <path class="cls-12" d="M520.33,105.1c.69,0,1.34.46,1.54,1.16l1.52,5.33c.25.85-.25,1.73-1.1,1.98-.14.04-.3.06-.44.06-.69,0-1.34-.46-1.54-1.16l-1.52-5.33c-.12-.43-.06-.86.14-1.22.2-.36.53-.64.96-.76.14-.04.29-.06.44-.06ZM520.33,104.15c-.24,0-.48.03-.71.1-.66.19-1.2.62-1.53,1.21-.33.6-.41,1.28-.23,1.94l1.52,5.33c.31,1.09,1.32,1.86,2.45,1.86.24,0,.48-.03.71-.1.66-.19,1.2-.62,1.53-1.21.33-.6.41-1.28.23-1.94l-1.52-5.33c-.31-1.09-1.32-1.86-2.45-1.86Z"/>
  <path class="cls-12" d="M535.4,115.88c-.35,0-.71-.1-1.01-.27-.49-.27-.84-.71-.99-1.25-.15-.53-.09-1.09.18-1.58l2.91-5.23c.36-.66,1.07-1.07,1.82-1.07.35,0,.71.1,1.01.27.49.27.84.71.99,1.25.15.53.09,1.09-.18,1.58l-2.91,5.23c-.36.66-1.07,1.07-1.82,1.07Z"/>
  <path class="cls-12" d="M538.32,106.98c.27,0,.53.07.78.2.77.43,1.05,1.41.62,2.18l-2.91,5.23c-.29.52-.84.82-1.4.82-.27,0-.53-.07-.78-.2-.77-.43-1.05-1.41-.62-2.18l2.91-5.23c.29-.52.84-.82,1.4-.82ZM538.32,106.03c-.92,0-1.78.5-2.23,1.31l-2.91,5.23c-.33.6-.41,1.28-.23,1.94.18.66.62,1.2,1.21,1.53.38.21.81.32,1.24.32.92,0,1.78-.5,2.23-1.31l2.91-5.23c.33-.6.41-1.28.23-1.94-.19-.66-.62-1.2-1.21-1.53-.38-.21-.81-.32-1.24-.32Z"/>
  <path class="cls-12" d="M544.05,126.47c-.92,0-1.74-.62-2-1.5-.15-.53-.09-1.09.18-1.58.27-.49.71-.84,1.25-.99l5.33-1.52c.19-.06.38-.08.57-.08.92,0,1.74.62,2,1.5.15.53.09,1.09-.18,1.58-.27.49-.71.84-1.24.99l-5.33,1.52c-.19.06-.38.08-.57.08Z"/>
  <path class="cls-12" d="M549.39,121.28c.69,0,1.34.46,1.54,1.16.24.85-.25,1.73-1.1,1.98l-5.33,1.52c-.14.04-.3.06-.44.06-.69,0-1.34-.46-1.54-1.16-.12-.43-.06-.86.14-1.22.2-.36.53-.64.96-.76l5.33-1.52c.14-.04.29-.06.44-.06ZM549.39,120.33c-.24,0-.48.03-.71.1l-5.33,1.52c-.66.19-1.2.62-1.53,1.21-.33.6-.41,1.28-.23,1.94.31,1.09,1.32,1.86,2.45,1.86.24,0,.48-.03.71-.1l5.33-1.52c.66-.19,1.2-.62,1.53-1.21.33-.59.41-1.28.23-1.94-.31-1.09-1.32-1.86-2.45-1.86Z"/>
  <path class="cls-12" d="M547.52,142.94c-.35,0-.7-.1-1.01-.27l-5.23-2.91c-.49-.27-.84-.71-.99-1.25-.15-.53-.09-1.09.18-1.58.36-.66,1.07-1.07,1.82-1.07.35,0,.71.1,1.01.27l5.24,2.91c.49.27.84.71.99,1.25.15.53.09,1.09-.18,1.58-.36.66-1.06,1.07-1.82,1.07Z"/>
  <path class="cls-12" d="M542.28,136.35c.27,0,.53.07.78.2l5.24,2.91c.77.43,1.04,1.41.62,2.18-.29.52-.84.82-1.4.82-.27,0-.53-.07-.78-.2l-5.23-2.91c-.77-.43-1.05-1.41-.62-2.18.29-.52.84-.82,1.4-.82ZM542.28,135.4c-.92,0-1.78.5-2.23,1.31-.33.6-.41,1.28-.23,1.94.19.66.62,1.2,1.21,1.53l5.24,2.91c.38.21.81.32,1.24.32.92,0,1.78-.5,2.23-1.31.69-1.23.24-2.79-.99-3.47l-5.23-2.91c-.38-.21-.81-.32-1.24-.32h0Z"/>
  <path class="cls-12" d="M533.21,154.01c-.92,0-1.74-.62-2-1.5l-1.52-5.33c-.15-.53-.09-1.09.18-1.58.27-.49.71-.84,1.25-.99.19-.06.38-.08.57-.08.92,0,1.74.62,2,1.5l1.52,5.33c.15.53.09,1.09-.18,1.58-.27.49-.71.84-1.25.99-.19.06-.38.08-.57.08Z"/>
  <path class="cls-12" d="M531.69,145c.69,0,1.34.46,1.54,1.16l1.52,5.33c.24.85-.25,1.73-1.1,1.98-.14.04-.3.06-.44.06-.69,0-1.34-.46-1.54-1.16l-1.52-5.33c-.12-.43-.06-.86.14-1.22.2-.36.53-.64.96-.76.14-.04.29-.06.44-.06ZM531.7,144.05c-.24,0-.47.03-.7.1-.66.19-1.2.62-1.53,1.21-.33.6-.41,1.28-.23,1.94l1.52,5.33c.31,1.09,1.32,1.86,2.45,1.86.24,0,.48-.03.71-.1.66-.19,1.2-.62,1.53-1.21.33-.6.41-1.28.23-1.94l-1.52-5.33c-.31-1.09-1.32-1.86-2.45-1.86Z"/>
  <rect class="cls-14" x="283.83" y="166.06" width="128.46" height="153.2"/>
  <path class="cls-21" d="M338.54,292.94c-1.91,0-3.57-1.16-4.22-2.97l-32.2-89.95c-.22-.62-.18-1.3.12-1.89.3-.59.83-1.02,1.47-1.2l44.4-12.61c.22-.06.44-.1.65-.1.94,0,1.83.56,2.2,1.47l34.43,83.46c.57,1.39.42,2.95-.41,4.19-.84,1.26-2.23,2.01-3.72,2.01-.65,0-1.27-.14-1.87-.42l-27.04-12.43-9.59,27.42c-.64,1.82-2.29,3-4.22,3h.01Z"/>
  <path class="cls-22" d="M348.77,186.63l34.43,83.46c.6,1.46-.53,2.9-1.93,2.9-.29,0-.59-.07-.88-.2l-27.33-12.55c-.29-.13-.58-.19-.87-.19-.86,0-1.68.53-1.98,1.41l-9.69,27.72c-.33.93-1.15,1.41-1.98,1.41s-1.64-.47-1.97-1.39l-32.2-89.95,44.4-12.61M348.77,181.87c-.43,0-.86.06-1.3.18l-44.4,12.61c-1.27.36-2.33,1.23-2.93,2.4s-.69,2.54-.25,3.78l32.2,89.95c.99,2.76,3.52,4.55,6.45,4.55s5.49-1.8,6.47-4.59l8.74-24.96,24.66,11.33c.91.42,1.88.64,2.87.64,2.28,0,4.42-1.14,5.7-3.06,1.26-1.89,1.5-4.29.63-6.41l-34.44-83.46c-.75-1.82-2.51-2.94-4.4-2.94h0Z"/>
  <rect class="cls-14" x="213.42" y="178.43" width="137.02" height="157"/>
  <path class="cls-21" d="M276.97,308.55c-2.06,0-3.8-1.33-4.33-3.31l-7.72-28.75-27.23,10.13c-.51.19-1.05.29-1.58.29-1.59,0-3.07-.88-3.87-2.27-.8-1.41-.79-3.08.05-4.48l48.63-82.23c.33-.57.89-.97,1.53-1.11.17-.04.34-.06.51-.06.48,0,.94.14,1.34.42l38.06,26.1c1,.69,1.32,2.01.76,3.07l-42.21,79.81c-.78,1.47-2.29,2.38-3.95,2.38h0Z"/>
  <path class="cls-22" d="M282.96,199.14l38.06,26.1-42.21,79.81c-.4.76-1.12,1.11-1.85,1.11-.88,0-1.76-.54-2.04-1.55l-7.79-29.04c-.26-.94-1.1-1.55-2.03-1.55-.24,0-.49.04-.73.13l-27.52,10.25c-.26.1-.5.14-.75.14-1.51,0-2.65-1.7-1.79-3.17l48.63-82.23M282.96,194.39c-.34,0-.69.04-1.03.11-1.28.29-2.4,1.09-3.06,2.23l-48.63,82.23c-1.27,2.15-1.29,4.72-.07,6.87,1.23,2.14,3.5,3.47,5.95,3.47.82,0,1.63-.14,2.41-.44l24.78-9.22,7.04,26.21c.8,2.99,3.53,5.08,6.63,5.08,2.54,0,4.86-1.4,6.05-3.65l42.21-79.81c1.13-2.14.47-4.78-1.51-6.15l-38.06-26.1c-.8-.55-1.74-.84-2.69-.84h0Z"/>
  <path class="cls-16" d="M304.91,240.98c-8.19,0-15.61-4.18-19.85-11.18l-3.71-6.15c-3.26-5.4-8.98-8.72-15.28-8.88l-7.17-.18c-7.05-.18-13.55-3.49-17.83-9.1-4.28-5.6-5.77-12.75-4.07-19.59l1.72-6.97c1.51-6.13-.18-12.51-4.53-17.09l-4.95-5.2c-4.86-5.11-7.11-12.05-6.18-19.04.94-6.99,4.94-13.09,10.97-16.74l6.15-3.71c5.4-3.26,8.72-8.98,8.88-15.28l.18-7.17c.31-12.46,10.68-22.59,23.11-22.59,1.86,0,3.75.23,5.59.69l6.97,1.72c1.44.35,2.92.53,4.41.53,4.74,0,9.25-1.8,12.68-5.07l5.2-4.95c4.33-4.11,9.98-6.38,15.93-6.38,8.19,0,15.61,4.18,19.85,11.18l3.71,6.15c3.27,5.4,8.98,8.72,15.28,8.88l7.17.18c7.05.18,13.55,3.49,17.83,9.1,4.28,5.6,5.77,12.75,4.07,19.59l-1.72,6.97c-1.51,6.13.18,12.51,4.53,17.09l4.95,5.21c4.86,5.11,7.11,12.05,6.17,19.04-.94,6.99-4.94,13.09-10.97,16.74l-6.15,3.71c-5.4,3.26-8.72,8.98-8.88,15.28l-.18,7.17c-.31,12.46-10.68,22.59-23.11,22.59-1.87,0-3.75-.23-5.59-.69l-6.97-1.72c-1.44-.35-2.92-.53-4.41-.53-4.74,0-9.25,1.8-12.68,5.07l-5.2,4.95c-4.33,4.11-9.98,6.38-15.93,6.38h0Z"/>
  <path class="cls-17" d="M323.11,61.03c6.96,0,13.84,3.47,17.81,10.03l3.71,6.15c3.66,6.07,10.17,9.85,17.26,10.02l7.17.18c13.27.33,22.84,12.86,19.65,25.75l-1.72,6.97c-1.69,6.88.23,14.16,5.12,19.3l4.95,5.2c9.15,9.62,7.05,25.23-4.31,32.1l-6.15,3.71c-6.07,3.66-9.85,10.17-10.02,17.26l-.18,7.17c-.29,11.53-9.79,20.27-20.73,20.27-1.65,0-3.33-.2-5.02-.61l-6.97-1.72c-1.65-.41-3.31-.61-4.98-.61-5.27,0-10.41,2.01-14.32,5.72l-5.21,4.95c-4.06,3.86-9.2,5.73-14.29,5.73-6.96,0-13.84-3.47-17.81-10.03l-3.71-6.15c-3.66-6.07-10.17-9.85-17.26-10.02l-7.17-.18c-13.27-.33-22.84-12.86-19.65-25.75l1.72-6.97c1.69-6.88-.23-14.16-5.12-19.3l-4.95-5.2c-9.15-9.62-7.05-25.23,4.31-32.1l6.15-3.71c6.07-3.66,9.85-10.17,10.02-17.26l.18-7.17c.29-11.53,9.79-20.27,20.73-20.27,1.65,0,3.33.2,5.01.61l6.97,1.72c1.65.41,3.31.61,4.98.61,5.27,0,10.41-2.01,14.32-5.72l5.2-4.95c4.06-3.86,9.2-5.73,14.29-5.73ZM323.11,56.27c-6.57,0-12.81,2.5-17.57,7.03l-5.2,4.95c-2.99,2.85-6.92,4.42-11.04,4.42-1.29,0-2.58-.15-3.83-.47l-6.97-1.72c-2.03-.49-4.09-.75-6.16-.75-6.59,0-12.86,2.53-17.66,7.14-4.88,4.68-7.66,10.99-7.83,17.77l-.18,7.17c-.13,5.49-3.03,10.47-7.73,13.31l-6.15,3.71c-6.65,4.02-11.07,10.75-12.1,18.46-1.04,7.71,1.45,15.36,6.8,20.99l4.95,5.2c3.79,3.98,5.26,9.54,3.95,14.87l-1.72,6.97c-1.86,7.56-.22,15.42,4.49,21.61,4.72,6.19,11.88,9.84,19.66,10.03l7.17.18c5.49.13,10.47,3.03,13.31,7.73l3.71,6.15c4.66,7.72,12.85,12.33,21.88,12.33,6.57,0,12.8-2.5,17.57-7.03l5.2-4.95c2.99-2.84,6.92-4.41,11.04-4.41,1.29,0,2.58.15,3.83.47l6.98,1.72c2.03.49,4.09.75,6.15.75,6.59,0,12.87-2.53,17.65-7.14,4.88-4.68,7.66-10.99,7.83-17.77l.18-7.17c.13-5.49,3.03-10.47,7.73-13.31l6.15-3.71c6.65-4.02,11.07-10.75,12.1-18.46,1.04-7.71-1.44-15.36-6.8-20.99l-4.95-5.2c-3.79-3.98-5.26-9.54-3.95-14.87l1.72-6.97c1.86-7.56.22-15.42-4.49-21.61-4.72-6.19-11.88-9.84-19.66-10.03l-7.18-.18c-5.49-.13-10.46-3.03-13.31-7.73l-3.71-6.15c-4.66-7.72-12.85-12.33-21.87-12.33h0Z"/>
  <path class="cls-9" d="M313.1,205.37c-14.66-.22-28.36-6.14-38.57-16.66-10.21-10.52-15.71-24.39-15.49-39.05.45-29.81,25.06-54.07,54.87-54.07h.84c14.66.22,28.36,6.14,38.56,16.66,10.21,10.52,15.71,24.39,15.49,39.05-.45,29.81-25.06,54.07-54.87,54.07h-.85Z"/>
  <path class="cls-17" d="M313.91,97.97h.81c29,.44,52.15,24.3,51.73,53.3-.43,28.74-23.86,51.73-52.5,51.73h-.81c-29-.44-52.15-24.3-51.72-53.3.43-28.74,23.85-51.73,52.5-51.73M313.91,93.21c-15.12,0-29.38,5.84-40.16,16.45-10.79,10.62-16.86,24.82-17.09,39.95-.23,15.3,5.51,29.76,16.17,40.74,10.66,10.98,24.95,17.16,40.24,17.38h.88c15.12,0,29.38-5.84,40.16-16.45,10.79-10.62,16.86-24.82,17.09-39.95.23-15.3-5.51-29.76-16.17-40.74-10.66-10.98-24.95-17.16-40.24-17.38h-.88Z"/>
  <path class="cls-21" d="M331.52,183.19c-.96,0-1.92-.25-2.78-.71l-15.24-8.29c-.15-.09-.33-.13-.5-.13-.16,0-.33.04-.48.11l-15.46,7.86c-.84.43-1.72.64-2.64.64-1.73,0-3.37-.77-4.48-2.12-1.1-1.32-1.55-3.06-1.24-4.77l3.17-17.05c.07-.34-.05-.69-.29-.94l-12.26-12.28c-1.58-1.58-2.1-3.87-1.39-5.98.72-2.11,2.54-3.61,4.75-3.89l17.2-2.26c.34-.05.65-.26.81-.57l7.9-15.44c1-1.95,2.99-3.17,5.18-3.17s4.28,1.27,5.25,3.31l7.46,15.66c.15.31.45.53.79.59l17.13,2.73c2.2.35,3.98,1.89,4.64,4.02.66,2.13.07,4.41-1.55,5.94l-12.59,11.93c-.26.24-.37.59-.31.93l2.69,17.14c.27,1.68-.21,3.39-1.31,4.67-1.11,1.3-2.73,2.06-4.43,2.06v.02Z"/>
  <path class="cls-22" d="M313.76,116.57c1.25,0,2.48.66,3.1,1.96l7.46,15.66c.49,1.02,1.44,1.74,2.56,1.91l17.13,2.73c2.82.45,3.89,3.93,1.83,5.89l-12.59,11.93c-.82.78-1.21,1.91-1.03,3.03l2.69,17.14c.35,2.21-1.41,3.98-3.4,3.98-.54,0-1.1-.13-1.64-.43l-15.24-8.29c-.51-.28-1.08-.42-1.65-.42-.53,0-1.07.12-1.56.37l-15.46,7.86c-.51.27-1.05.38-1.56.38-2.03,0-3.8-1.84-3.38-4.07l3.17-17.05c.21-1.11-.14-2.26-.94-3.05l-12.26-12.28c-2.02-2.02-.84-5.47,1.99-5.83l17.2-2.26c1.12-.14,2.1-.84,2.62-1.85l7.89-15.44c.64-1.26,1.85-1.87,3.06-1.87M313.76,111.81c-3.09,0-5.89,1.71-7.3,4.46l-7.57,14.82-16.51,2.17c-3.11.41-5.68,2.51-6.69,5.48-1.01,2.98-.27,6.2,1.96,8.43l11.76,11.79-3.04,16.38c-.45,2.41.19,4.85,1.74,6.73,1.57,1.89,3.87,2.98,6.31,2.98,1.29,0,2.54-.3,3.71-.89l14.84-7.55,14.64,7.95c1.21.66,2.56,1,3.91,1,2.4,0,4.67-1.06,6.24-2.89,1.55-1.82,2.23-4.22,1.86-6.58l-2.59-16.45,12.08-11.46c2.28-2.16,3.12-5.37,2.19-8.37-.93-3.01-3.44-5.18-6.54-5.67l-16.44-2.63-7.17-15.03c-1.37-2.88-4.21-4.67-7.4-4.67h0Z"/>
  <path class="cls-1" d="M545.01,453.84v-172.63c0-7,5.7-12.7,12.69-12.7h43.61c7,0,12.7,5.7,12.7,12.7v165.49c0,3.94-3.2,7.14-7.14,7.14h-61.87Z"/>
  <path class="cls-15" d="M601.32,270.89c5.69,0,10.33,4.63,10.33,10.32v165.49c0,2.63-2.13,4.76-4.76,4.76h-59.49v-170.25c0-5.69,4.64-10.32,10.33-10.32h43.61M601.32,266.13h-43.61c-8.33,0-15.08,6.75-15.08,15.08v175h64.25c5.25,0,9.51-4.26,9.51-9.51v-165.49c0-8.33-6.75-15.08-15.08-15.08h0Z"/>
</svg>