<svg xmlns="http://www.w3.org/2000/svg" width="228" height="200" fill="none" viewBox="0 0 228 200"><g clip-path="url(#a)"><path fill="#102770" d="M223.635 189.273c0-2.279-49.85-4.127-111.342-4.127S.951 186.994.951 189.273c0 1.319 16.658 2.492 42.594 3.247 5.596 1.477 27.295 2.579 53.21 2.579 21.7 0 40.445-.773 49.253-1.891 45.01-.529 77.629-2.091 77.629-3.935z" opacity=".3"/><path fill="#102770" d="M17.29 186.976c63.36-2.811 126.84-2.833 190.2 0-63.36 2.833-126.84 2.81-190.2 0"/><path fill="#606060" d="M53.72 86.97h117.151c5.776 0 10.467 4.69 10.467 10.467v78.711H43.254v-78.71c0-5.776 4.689-10.467 10.467-10.467"/><path fill="#102770" d="M181.335 177.471H43.253a1.327 1.327 0 0 1-1.327-1.327v-78.71c0-6.501 5.29-11.791 11.791-11.791h117.151c6.501 0 11.791 5.29 11.791 11.79v78.711c0 .732-.593 1.327-1.327 1.327zm-136.756-2.652H180.01V97.434c0-5.04-4.1-9.14-9.14-9.14H53.72c-5.041 0-9.14 4.1-9.14 9.14z"/><path fill="#fff" d="M170.869 88.281H53.721c-5.046 0-9.153 4.106-9.153 9.153v77.396h1.97V98.746c0-5.046 4.106-9.152 9.152-9.152h7.764c1.248.824 3.891 1.392 6.954 1.392s5.705-.568 6.953-1.392h95.48c1.446 0 2.814.339 4.032.938a9.1 9.1 0 0 0-6.004-2.253z" opacity=".6"/><path fill="#102770" d="M170.871 86.97h-29.999c-.368 3.398-24.919 78.486-97.616 85.386v3.792h138.082v-78.71c0-5.78-4.687-10.467-10.467-10.467" opacity=".3"/><path fill="#fff" d="M169.04 97.723H57.623c-2.85 0-5.168 2.339-5.168 5.215v63.518c0 2.876 2.319 5.216 5.168 5.216H169.04c2.849 0 5.168-2.34 5.168-5.216v-63.518c0-2.876-2.319-5.215-5.168-5.215" opacity=".5"/><path fill="#4dd0e1" d="M167.981 97.557H56.606a4.323 4.323 0 0 0-4.323 4.323v63.556a4.323 4.323 0 0 0 4.323 4.323h111.375a4.32 4.32 0 0 0 4.323-4.323V101.88a4.323 4.323 0 0 0-4.323-4.323"/><path fill="#102770" d="M167.983 170.896H56.608a5.47 5.47 0 0 1-5.463-5.463v-63.559a5.47 5.47 0 0 1 5.463-5.464h111.377a5.47 5.47 0 0 1 5.464 5.464v63.559a5.47 5.47 0 0 1-5.464 5.463zM56.608 98.694a3.183 3.183 0 0 0-3.18 3.18v63.559a3.183 3.183 0 0 0 3.18 3.18h111.377a3.183 3.183 0 0 0 3.181-3.18v-63.559a3.183 3.183 0 0 0-3.181-3.18z"/><mask id="b" width="119" height="71" x="53" y="98" maskUnits="userSpaceOnUse" style="mask-type:luminance"><path fill="#fff" d="M171.187 101.893c0-1.773-1.427-3.213-3.184-3.213H56.587c-1.757 0-3.185 1.442-3.185 3.213v63.517c0 1.773 1.428 3.216 3.185 3.216h111.416c1.757 0 3.184-1.443 3.184-3.216z"/></mask><g mask="url(#b)"><path fill="url(#c)" d="m57.693 178.872-15.24-11.037 67.374-94.759 15.24 11.04z" opacity=".5"/><path fill="url(#d)" d="m29.336 171.699-6.807-4.931 67.374-94.756 6.807 4.928z" opacity=".5"/><path fill="url(#e)" d="m122.133 200.005-6.805-4.928 67.374-94.759 6.807 4.931z" opacity=".5"/></g><path fill="#102770" d="M56.553 168.727V105.79a4.3 4.3 0 0 1 4.302-4.302h111.431a4.3 4.3 0 0 0-4.284-3.941H56.586a4.3 4.3 0 0 0-4.303 4.302v62.937a4.303 4.303 0 0 0 4.288 4.302 4 4 0 0 1-.018-.361" opacity=".2"/><path fill="#d0d0d0" d="M32.596 175.193h159.392a2.04 2.04 0 0 1 2.037 2.038v.233c0 4.778-3.878 8.657-8.656 8.657H39.213c-4.778 0-8.656-3.879-8.656-8.657v-.233a2.04 2.04 0 0 1 2.037-2.038z"/><path fill="#102770" d="M185.371 187.444H39.214c-5.503 0-9.982-4.478-9.982-9.981v-.234a3.37 3.37 0 0 1 3.365-3.364h159.391a3.37 3.37 0 0 1 3.365 3.364v.234c0 5.503-4.479 9.981-9.982 9.981M32.597 176.517c-.393 0-.711.32-.711.71v.234c0 4.042 3.287 7.33 7.33 7.33H185.37c4.042 0 7.33-3.288 7.33-7.33v-.234c0-.392-.32-.71-.711-.71z"/><path fill="#fff" d="M34.528 178.532c0-.454.39-.826.87-.826h157.29q.013-.214.014-.43c0-.455-.39-.827-.87-.827H32.752c-.479 0-.87.37-.87.827 0 3.465 2.464 6.393 5.814 7.299-1.922-1.387-3.166-3.58-3.166-6.043z" opacity=".8"/><path fill="#102770" d="M156.377 175.525s-7.787 13.664-118.707 9.029l7.073 1.322h145.29l3.263-3.562 1.325-4.635-.725-2.102z" opacity=".2"/><path fill="silver" d="M92.877 175.189h38.833v1.007a3.946 3.946 0 0 1-3.945 3.945H96.82a3.946 3.946 0 0 1-3.945-3.945v-1.007z"/><path fill="#102770" d="M127.765 181.09H96.819a4.897 4.897 0 0 1-4.891-4.891v-1.006c0-.523.423-.947.946-.947h38.833c.523 0 .947.424.947.947v1.006a4.897 4.897 0 0 1-4.891 4.891zm-33.942-4.951v.06a3 3 0 0 0 2.998 2.998h30.946a3 3 0 0 0 2.998-2.998v-.06H93.823"/><path fill="#fff" d="M93.816 176.197c0 1.205.715 2.244 1.745 2.722a3.1 3.1 0 0 1-.534-1.73v-.18s33.618-.5 35.738-.787v-.091H93.816v.066" opacity=".5"/><path fill="#102770" d="M169.65 144.401s-.213 27.356-58.07 24.212l54.241.786 3.482-2.147.345-1.211v-21.643zM127.044 175.52s-6.29 4.305-31.786 3.641l.829.829h31.786l2.319-.994 1.655-2.319v-1.986l-4.801.829z" opacity=".2"/><path fill="#ffca28" d="M83.825 114.535c-13.141.447-15.728-15.287-16.235-21.927a2.68 2.68 0 0 1 2.674-2.89h11.337l-1.3-10.296H62.176a6.306 6.306 0 0 0-6.294 6.672c.764 13.236 5.288 41.276 30.06 38.03l-1.21-9.589h-.907"/><path fill="#102770" d="M82.108 125.707c-5.604 0-10.466-1.68-14.498-5.017-10.11-8.367-12.519-25.22-13.054-34.52a7.56 7.56 0 0 1 2.07-5.683 7.56 7.56 0 0 1 5.55-2.393H80.3c.668 0 1.232.498 1.317 1.159l1.3 10.295a1.326 1.326 0 0 1-1.314 1.492H70.267c-.38 0-.734.153-.992.434-.26.281-.389.647-.36 1.031.48 6.274 2.844 20.711 14.389 20.713q.238 0 .48-.009h.95c.667 0 1.231.498 1.316 1.16l1.211 9.588c.091.723-.42 1.387-1.143 1.48q-2.06.27-4.004.27zm-19.933-44.96c-1.384 0-2.67.554-3.62 1.56a4.95 4.95 0 0 0-1.352 3.71c.513 8.871 2.765 24.905 12.097 32.631 4.078 3.375 9.171 4.821 15.154 4.305l-.895-7.084c-13.984.233-16.753-16.088-17.294-23.159a4.02 4.02 0 0 1 1.058-3.036 4.02 4.02 0 0 1 2.938-1.283h9.833l-.965-7.642H62.173z"/><path fill="#fff" d="m83.7 116.974-.14-1.104-.299.002c-3.08 0-5.608-.816-7.68-2.157 2.1 1.816 4.758 3.042 8.118 3.257zM58.715 87.152c-.081-1.384.4-2.7 1.35-3.71a4.93 4.93 0 0 1 3.621-1.56H79.27l-.143-1.136H62.172c-1.385 0-2.67.554-3.62 1.56a4.95 4.95 0 0 0-1.352 3.71c.512 8.871 2.765 24.905 12.097 32.631.481.399.98.769 1.488 1.114-9.312-7.735-11.56-23.746-12.073-32.609z" opacity=".6"/><path fill="#ffca28" d="M140.768 114.535c13.141.447 15.728-15.287 16.235-21.927a2.68 2.68 0 0 0-2.674-2.89h-11.335l1.3-10.296h18.125a6.305 6.305 0 0 1 6.294 6.672c-.764 13.236-5.288 41.276-30.061 38.03l1.211-9.589z"/><path fill="#102770" d="M142.482 125.707q-1.942.001-4.005-.27a1.326 1.326 0 0 1-1.142-1.48l1.211-9.588a1.323 1.323 0 0 1 1.316-1.16h.951q.243.01.479.009c11.547 0 13.909-14.437 14.389-20.713a1.34 1.34 0 0 0-.36-1.03 1.34 1.34 0 0 0-.992-.435h-11.334a1.327 1.327 0 0 1-1.314-1.492l1.299-10.295a1.325 1.325 0 0 1 1.317-1.16h18.125c2.122 0 4.091.85 5.548 2.394a7.57 7.57 0 0 1 2.071 5.683c-.537 9.3-2.947 26.153-13.054 34.52-4.032 3.337-8.894 5.017-14.498 5.017zm-2.347-2.756c5.982.516 11.076-.928 15.153-4.305 9.335-7.726 11.587-23.76 12.097-32.631.081-1.385-.4-2.701-1.351-3.71a4.93 4.93 0 0 0-3.621-1.56h-16.955l-.965 7.642h9.832c1.112 0 2.182.467 2.939 1.283a4.03 4.03 0 0 1 1.058 3.036c-.537 7.02-3.269 23.161-16.995 23.161q-.148 0-.299-.002l-.895 7.084z"/><path fill="#102770" d="M155.251 120.352c7.776-8.536 9.784-22.946 10.272-31.367a6.307 6.307 0 0 0-6.294-6.672h-15.305l-.934 7.397h11.335a2.685 2.685 0 0 1 2.674 2.892c-.391 5.12-2.023 15.651-8.776 19.995-2.069 2.552-4.886 4.412-8.723 4.771l.357-2.839-1.211 9.588c7.58.994 13.261-.946 17.522-4.49q-.448.375-.919.725z" opacity=".3"/><path fill="#ffca28" d="m117.472 133.847-5.265-.508v-.056l-.294.029-.293-.029v.056l-5.265.508s.878 23.409-10.238 26.794h31.588c-11.113-3.385-10.237-26.794-10.237-26.794z"/><path fill="#102770" d="M127.71 161.968H96.122a1.325 1.325 0 0 1-.386-2.593c10.009-3.048 9.305-25.253 9.296-25.476a1.327 1.327 0 0 1 1.199-1.368l4.889-.471c.197-.081.414-.114.628-.093l.166.016.165-.016c.217-.021.432.012.628.093l4.89.471a1.33 1.33 0 0 1 1.198 1.368c-.008.223-.711 22.428 9.297 25.476.628.192 1.021.814.926 1.463a1.33 1.33 0 0 1-1.312 1.13zm-26.877-2.651h22.163c-6.397-6.2-6.879-19.995-6.869-24.265l-4.046-.39a2 2 0 0 1-.147-.023h-.039q-.071.014-.147.023l-4.046.39c.011 4.27-.473 18.065-6.869 24.265"/><path fill="#fff" d="m109.604 134.969 2.794-.269-.318-.031a1 1 0 0 1-.147-.023h-.037a1 1 0 0 1-.147.023l-4.046.391c.01 4.269-.473 18.065-6.869 24.264h1.86c6.489-6.178 6.929-20.208 6.91-24.355" opacity=".6"/><path fill="#ffca28" d="M149.111 66.17h-74.4s-3.114 77.778 36.74 78.954v.014q.231-.001.459-.006.23.005.459.006v-.014c39.854-1.178 36.74-78.954 36.74-78.954z"/><path fill="#102770" d="M112.37 146.464q-.164 0-.328-.005h-.265c-.188.005-.382.017-.564-.016-7.821-.279-14.597-3.435-20.142-9.38-8.2-8.791-13.665-23.421-16.248-43.49-1.912-14.85-1.44-27.332-1.437-27.458a1.327 1.327 0 0 1 1.325-1.273h74.399c.711 0 1.296.562 1.325 1.273.004.124.475 12.607-1.436 27.457-2.583 20.068-8.051 34.7-16.249 43.491-5.546 5.945-12.322 9.101-20.146 9.38a1.3 1.3 0 0 1-.234.021m-.458-2.66h.184a1 1 0 0 0 .095.004q.069-.009.14-.012c7.171-.213 13.387-3.086 18.477-8.543 16.998-18.22 17.137-59.94 17.007-67.762h-71.81c-.13 7.824.01 49.542 17.007 67.762 5.09 5.455 11.305 8.33 18.476 8.543q.072.001.141.012h.26s.012-.004.019-.004z"/><path fill="#fff" d="M92.365 101.776c3.532-.38 5.783-6.383 5.028-13.407s-4.232-12.41-7.764-12.03-5.784 6.382-5.028 13.407c.755 7.023 4.231 12.41 7.764 12.03" opacity=".2"/><path fill="#fff" d="M76.008 67.488c-.13 7.824.01 49.542 17.007 67.762 4.707 5.047 10.382 7.88 16.881 8.444-5.625-.98-10.59-3.728-14.792-8.233-9.782-10.487-13.903-28.718-15.637-42.162-1.537-11.928-1.519-22.294-1.454-25.81z" opacity=".6"/><path fill="#ffca28" d="M149.286 56.58H74.55a5.077 5.077 0 1 0 0 10.153h74.736a5.078 5.078 0 1 0 0-10.153"/><path fill="#102770" d="M149.285 68.056H74.547a6.41 6.41 0 0 1-6.403-6.402 6.41 6.41 0 0 1 6.402-6.402h74.739a6.41 6.41 0 0 1 6.402 6.402 6.41 6.41 0 0 1-6.402 6.402M74.547 57.903a3.754 3.754 0 0 0-3.751 3.75 3.754 3.754 0 0 0 3.75 3.752h74.739a3.754 3.754 0 0 0 3.75-3.751 3.754 3.754 0 0 0-3.75-3.75z"/><path fill="#fff" d="M151.679 58.768a3.73 3.73 0 0 0-2.397-.87H74.544a3.754 3.754 0 0 0-3.751 3.751 3.75 3.75 0 0 0 2.49 3.528 4.02 4.02 0 0 1-.773-2.37 4.067 4.067 0 0 1 4.063-4.063h5.56c1.402.851 3.836 1.378 6.589 1.308 2.405-.062 4.542-.566 5.95-1.308h56.639q.188.002.37.022z" opacity=".6"/><path fill="#dc7633" d="M84.443 169.509a1.21 1.21 0 0 1-1.21-1.211v-3.149c0-3.441 2.8-6.239 6.238-6.239h44.874c3.44 0 6.238 2.8 6.238 6.239v3.149a1.21 1.21 0 0 1-1.211 1.211H84.439z"/><path fill="#102770" d="M134.349 160.119a5.03 5.03 0 0 1 5.029 5.03v3.149H84.445v-3.149a5.03 5.03 0 0 1 5.03-5.03zm0-2.42H89.475c-4.108 0-7.45 3.342-7.45 7.45v3.149a2.42 2.42 0 0 0 2.42 2.42h54.933a2.42 2.42 0 0 0 2.42-2.42v-3.149c0-4.108-3.341-7.45-7.449-7.45"/><path fill="#dc7633" d="M84.442 169.627a1.327 1.327 0 0 1-1.327-1.326v-3.15a6.36 6.36 0 0 1 6.355-6.354h44.873a6.36 6.36 0 0 1 6.355 6.354v3.15c0 .731-.593 1.326-1.327 1.326H84.438z"/><path fill="#102770" d="M134.346 160.12a5.03 5.03 0 0 1 5.03 5.03v3.149H84.442v-3.149a5.03 5.03 0 0 1 5.03-5.03zm0-2.651H89.472c-4.236 0-7.681 3.445-7.681 7.681v3.149a2.65 2.65 0 0 0 2.651 2.651h54.934a2.65 2.65 0 0 0 2.651-2.651v-3.149c0-4.234-3.445-7.681-7.681-7.681"/><path fill="#fff" d="M85.656 165.957a5.03 5.03 0 0 1 5.03-5.03h44.874c.77 0 1.496.178 2.149.488a5 5 0 0 0-3.36-1.294H89.475a5.03 5.03 0 0 0-5.03 5.03v3.149h1.211z" opacity=".6"/><path fill="#102770" d="M71.781 64.182q1.126.08 2.228.15c-.736-.047-1.476-.099-2.228-.15M88.713 65.076c.215.006.434.015.647.02q-.323-.01-.647-.02M92.277 65.174q.056 0 .112.002-.056 0-.112-.002M81.85 64.787q.604.03 1.198.058-.596-.028-1.198-.058M83.959 64.885q.517.022 1.03.045z" opacity=".3"/><path fill="#102770" d="M150.76 61.65a3.754 3.754 0 0 0-3.75-3.752h-7.53c-2.139 2.462-10.32 7.479-41.396 7.35-7.297.03-15.922-.233-26.133-.902a3.73 3.73 0 0 0 2.592 1.054h72.465a3.754 3.754 0 0 0 3.75-3.75zM129.297 135.248c17.003-18.23 17.137-59.938 17.005-67.76H76.007c-.008.523-.017 1.2-.017 2.009l52.282 2.296c5.416.237 9.564 4.914 9.138 10.318-1.446 18.412-7.024 56.522-28.468 61.488a27 27 0 0 0 2.55.194q-.17-.007-.337-.019c7.029-.291 13.133-3.155 18.142-8.526M115.436 145.303c-1.93.51-4.763.876-8.64.471q-.019.097-.035.194c.581.37 1.827 1.112 3.43 1.771 2.827 1.164 3.46 4.933 1.154 6.939-1.898 1.651-4.768 3.005-9.056 2.962a14 14 0 0 1-1.035 1.239l20.194.406c-3.439-3.356-5.158-8.911-6.012-13.982M116.547 144.968q.171-.06.326-.12-.155.058-.326.12M116.205 145.084l.025-.008zM134.352 160.121h-8.584c-.575 2.37-2.42 8.204-28.344 8.179h41.958v-3.149a5.03 5.03 0 0 0-5.03-5.03" opacity=".3"/><path fill="#102770" d="M76.747 112.836s-.436 12.626-12.937.884c0 0 4.743 14.22 19.89 10.614l-3.033-10.804s-2.538 1.263-3.92-.694M71.475 79.418s1 9.636-2.008 10.415c0 0 6.58-.171 6.408 0s-1.217-10.415-1.217-10.415zM83.831 58.348c.108.81-.275 1.61-.973 2.035a6.6 6.6 0 0 0-3.112 4.776 6.59 6.59 0 0 0 1.758 5.422c.563.593.724 1.465.41 2.22a6.59 6.59 0 0 0 .291 5.693 6.59 6.59 0 0 0 4.61 3.354c.343.064.653.215.914.423l-2.72 18.822a3.02 3.02 0 0 0 4.224 3.186l5.865-2.628a.62.62 0 0 1 .675.109l4.824 4.42a3.01 3.01 0 0 0 3.058.618 3.01 3.01 0 0 0 1.971-2.42l1.222-8.623 8.613 2.31a2.85 2.85 0 0 0 2.74-.707 2.85 2.85 0 0 0 .806-2.71l-2.465-10.726q.566-.42 1.039-.956a6.62 6.62 0 0 0 1.585-5.224 2.07 2.07 0 0 1 .973-2.036 6.59 6.59 0 0 0 3.112-4.778 6.59 6.59 0 0 0-1.758-5.422 2.07 2.07 0 0 1-.409-2.22 6.59 6.59 0 0 0-.292-5.693 6.6 6.6 0 0 0-2.145-2.343h-34.47a6.6 6.6 0 0 0-.344 3.098z" opacity=".2"/><path fill="#22a7f0" d="m101.315 91.26 11.407 3.061a1.738 1.738 0 0 0 2.143-2.066l-5.716-24.864s-7.834-.37-7.834-.025-6.235 12.467-6.235 12.467z"/><path fill="#102770" d="M113.182 95.518q-.377 0-.754-.1l-11.407-3.06a1.14 1.14 0 0 1-.702-.554l-6.233-11.427c-.18-.33-.186-.73-.012-1.064 2.221-4.32 5.825-11.405 6.147-12.24.056-.209.17-.405.325-.552.393-.374.676-.645 8.663-.267.508.025.94.385 1.053.88L115.978 92a2.85 2.85 0 0 1-.806 2.713 2.85 2.85 0 0 1-1.985.808zm-11.103-5.23 10.938 2.934c.298.08.5-.076.572-.149a.6.6 0 0 0 .17-.568l-5.524-24.023c-2.446-.103-5.05-.163-6.121-.116-.547 1.226-1.981 4.12-5.746 11.447l5.711 10.472zm.368-22.827c-.008.08-.037.197-.13.432.068-.126.116-.27.13-.432m-2.246-.312"/><path fill="#fff" d="M97.124 79.43c3.434-6.68 4.928-9.677 5.581-11.082-.227.002-.428.006-.591.014-.548 1.226-1.982 4.12-5.747 11.446l5.712 10.473 10.938 2.935c.295.078.5-.077.572-.15a.6.6 0 0 0 .153-.239l-10.905-2.926-5.711-10.473z" opacity=".6"/><path fill="#22a7f0" d="m87.116 70.826-4.014 27.78c-.212 1.469 1.28 2.595 2.635 1.988l5.865-2.629a1.76 1.76 0 0 1 1.907.308l4.823 4.42c1.118 1.025 2.924.377 3.137-1.124l4.693-33.167z"/><path fill="#102770" d="M99.601 104.325a3 3 0 0 1-2.037-.796l-4.823-4.42a.63.63 0 0 0-.676-.11l-5.865 2.629a3.02 3.02 0 0 1-4.224-3.186l4.013-27.78c.073-.506.476-.9.982-.965l19.047-2.424a1.133 1.133 0 0 1 1.268 1.285l-4.692 33.167a3.023 3.023 0 0 1-2.993 2.598zm-7.28-7.652c.71 0 1.412.262 1.957.76l4.823 4.42a.73.73 0 0 0 .757.153.73.73 0 0 0 .487-.599l4.484-31.693-16.711 2.126-3.89 26.924a.73.73 0 0 0 .29.703c.105.08.393.248.756.084l5.865-2.628c.38-.172.783-.254 1.184-.254z"/><path fill="#fff" d="m85.366 98.765 3.89-26.924 15.554-1.98.02-.146-16.711 2.126-3.89 26.924a.73.73 0 0 0 .29.703.73.73 0 0 0 .756.085l.316-.143a.72.72 0 0 1-.225-.647zM95.412 97.438a2.89 2.89 0 0 0-2.525-.702 2.9 2.9 0 0 1 1.388.702l4.824 4.42a.73.73 0 0 0 .756.153.8.8 0 0 0 .314-.213z" opacity=".6"/><path fill="#102770" d="m101.473 101.567 3.492-24.684-4.978-1.992-13.73 1.903-.349 2.418 1.579 2.496s-1.833-1.044.126 2.414c.769 1.357 2.552 2.386 4.433 3.136 4.825 1.922 4.25 8.886-.84 9.92l-.31.06c-2.148.39-2.884 1.235-2.783 2.287l3.495-1.566a1.76 1.76 0 0 1 1.907.308l4.823 4.42c1.118 1.025 2.924.376 3.137-1.124z" opacity=".3"/><path fill="#22a7f0" d="M101.238 85.944a5.47 5.47 0 0 1-3.558-1.32 3.21 3.21 0 0 0-3.466-.46 5.4 5.4 0 0 1-2.356.536 5.464 5.464 0 0 1-5.333-4.212 3.21 3.21 0 0 0-2.534-2.409 5.46 5.46 0 0 1-3.819-2.777 5.45 5.45 0 0 1-.24-4.716 3.21 3.21 0 0 0-.634-3.439 5.45 5.45 0 0 1-1.457-4.49 5.45 5.45 0 0 1 2.577-3.955 3.21 3.21 0 0 0 1.509-3.156 5.47 5.47 0 0 1 1.312-4.325 5.48 5.48 0 0 1 4.56-1.85q.131.01.259.01a3.2 3.2 0 0 0 2.817-1.675 5.478 5.478 0 0 1 8.38-1.544 3.21 3.21 0 0 0 3.465.461 5.4 5.4 0 0 1 2.355-.535 5.46 5.46 0 0 1 5.332 4.211 3.21 3.21 0 0 0 2.534 2.41 5.45 5.45 0 0 1 3.818 2.777 5.45 5.45 0 0 1 .24 4.716 3.21 3.21 0 0 0 .634 3.439 5.45 5.45 0 0 1 1.457 4.49 5.45 5.45 0 0 1-2.577 3.955 3.21 3.21 0 0 0-1.508 3.156 5.478 5.478 0 0 1-5.873 6.175 3.205 3.205 0 0 0-3.075 1.666 5.48 5.48 0 0 1-4.821 2.863z"/><path fill="#102770" d="M95.695 45.98c.99 0 1.992.337 2.819 1.046a4.35 4.35 0 0 0 4.695.622 4.3 4.3 0 0 1 1.866-.426 4.35 4.35 0 0 1 4.228 3.337 4.34 4.34 0 0 0 3.432 3.263 4.344 4.344 0 0 1 3.218 5.94 4.34 4.34 0 0 0 .859 4.657c1.904 2.005 1.472 5.255-.888 6.696a4.35 4.35 0 0 0-2.044 4.273 4.343 4.343 0 0 1-4.654 4.896 4.347 4.347 0 0 0-4.164 2.254 4.34 4.34 0 0 1-3.823 2.271 4.3 4.3 0 0 1-2.818-1.046 4.35 4.35 0 0 0-4.695-.622 4.3 4.3 0 0 1-1.866.426 4.346 4.346 0 0 1-4.228-3.34 4.34 4.34 0 0 0-3.433-3.262c-2.717-.504-4.28-3.387-3.217-5.94a4.34 4.34 0 0 0-.86-4.657c-1.903-2.005-1.471-5.255.889-6.695a4.35 4.35 0 0 0 2.043-4.274 4.343 4.343 0 0 1 4.654-4.895q.177.014.35.014c1.58 0 3.05-.864 3.814-2.271a4.34 4.34 0 0 1 3.823-2.271zm0-2.271a6.61 6.61 0 0 0-5.82 3.46 2.07 2.07 0 0 1-1.983 1.076q-.27-.021-.54-.02a6.61 6.61 0 0 0-6.548 7.478c.107.81-.275 1.61-.973 2.035a6.6 6.6 0 0 0-3.112 4.778 6.59 6.59 0 0 0 1.758 5.422c.562.593.723 1.466.41 2.22a6.59 6.59 0 0 0 .29 5.693 6.6 6.6 0 0 0 4.611 3.354c.804.149 1.447.76 1.637 1.556a6.595 6.595 0 0 0 6.437 5.086 6.54 6.54 0 0 0 2.843-.647 2.076 2.076 0 0 1 2.238.295 6.613 6.613 0 0 0 10.118-1.866 2.06 2.06 0 0 1 1.983-1.074q.272.022.54.022a6.612 6.612 0 0 0 6.548-7.478c-.107-.81.275-1.61.974-2.036a6.6 6.6 0 0 0 3.112-4.777 6.59 6.59 0 0 0-1.759-5.423 2.07 2.07 0 0 1-.409-2.22 6.59 6.59 0 0 0-.291-5.692 6.59 6.59 0 0 0-4.611-3.354 2.07 2.07 0 0 1-1.636-1.554 6.595 6.595 0 0 0-6.437-5.086c-.988 0-1.945.217-2.844.647q-.423.202-.89.203c-.494 0-.974-.178-1.348-.499a6.6 6.6 0 0 0-4.298-1.593z"/><path fill="#fff" d="M113.49 54.582a4.3 4.3 0 0 1 1.862.835 4.3 4.3 0 0 0-2.62-1.591 4.34 4.34 0 0 1-1.88-.85c.64.825 1.57 1.41 2.636 1.608zM81.735 71.782a4.34 4.34 0 0 0-.86-4.658c-1.903-2.005-1.47-5.255.89-6.696a4.35 4.35 0 0 0 2.043-4.273c-.362-2.74 1.897-5.117 4.654-4.896a4.34 4.34 0 0 0 4.164-2.256c1.318-2.43 4.542-3.024 6.641-1.226a4.34 4.34 0 0 0 4.695.622 4.34 4.34 0 0 1 4.53.488c-1.207-1.54-3.381-2.155-5.286-1.244a4.34 4.34 0 0 1-4.695-.622 4.34 4.34 0 0 0-6.642 1.225 4.35 4.35 0 0 1-4.163 2.257 4.344 4.344 0 0 0-4.654 4.895 4.34 4.34 0 0 1-2.044 4.274c-2.36 1.44-2.79 4.689-.889 6.695a4.35 4.35 0 0 1 .86 4.658 4.34 4.34 0 0 0 1.356 5.104 4.33 4.33 0 0 1-.597-4.345zM88.388 80.986a4.34 4.34 0 0 0-1.552-2.414c.374.48.649 1.042.796 1.658a4.3 4.3 0 0 0 1.564 2.426 4.3 4.3 0 0 1-.806-1.668z" opacity=".6"/><path fill="#fff" d="M98.468 78.547c7.268 0 13.159-5.891 13.159-13.16 0-7.267-5.891-13.159-13.16-13.159-7.267 0-13.158 5.892-13.158 13.16s5.891 13.16 13.159 13.16"/><path fill="#102770" d="M98.469 79.308c-7.675 0-13.918-6.243-13.918-13.918s6.243-13.917 13.918-13.917 13.917 6.243 13.917 13.917c0 7.675-6.243 13.918-13.917 13.918m0-26.319c-6.838 0-12.403 5.563-12.403 12.404 0 6.84 5.563 12.403 12.403 12.403s12.403-5.564 12.403-12.404-5.563-12.402-12.403-12.402"/><path fill="#102770" d="m99.244 58.57 1.033 3.178a.82.82 0 0 0 .779.566h3.341c.794 0 1.125 1.015.482 1.482l-2.703 1.963a.82.82 0 0 0-.298.915l1.034 3.179c.246.754-.618 1.382-1.261.915l-2.703-1.963a.82.82 0 0 0-.963 0l-2.703 1.963c-.642.467-1.506-.161-1.26-.915l1.033-3.179a.82.82 0 0 0-.298-.915l-2.703-1.963c-.642-.467-.312-1.482.482-1.482h3.341a.82.82 0 0 0 .78-.566l1.033-3.178c.246-.755 1.312-.755 1.558 0z"/><path fill="#102770" d="m104.342 91.376 9.402 3.006 1.015-2.06-2.653-10.605h-3.788l-1.893.756-1.705 3.6z" opacity=".2"/><path fill="#102770" d="M24.478 74.57c-.593 0-1.158-.223-1.658-.665-.516-.46-.67-1.211-.415-2.067.407-1.374 1.8-2.912 3.734-3.366-.659-3.387-3.624-5.604-4.093-5.935q-.06-.024-.12-.048a5.74 5.74 0 0 1-1.271 3.146c-1.728 2.126-3.774 2.907-5.919 2.258-1.51-.457-2.47-1.938-2.281-3.525.207-1.746.973-3.06 2.217-3.8 1.308-.78 3.104-.9 5.355-.358-.73-2.655-2.044-4.478-3.914-5.425-3.778-1.911-8.7.284-8.75.306a.801.801 0 0 1-.665-1.456c.23-.106 5.658-2.54 10.13-.282 2.523 1.275 4.197 3.76 4.974 7.386q.449.158.915.343.077.03.147.076c.206.137 4.158 2.805 4.893 7.202 1.784.16 4.102 1.292 6.54 4.964a.8.8 0 1 1-1.334.884c-1.658-2.498-3.427-3.94-5.092-4.221a9 9 0 0 1-.213 1.713c-.244 1.105-.93 2.027-1.878 2.527-.44.231-.879.345-1.304.345zm1.783-4.478a3.7 3.7 0 0 0-.694.306c-1.329.756-1.802 2.05-1.668 2.327.232.198.562.382 1.137.08.53-.279.92-.81 1.06-1.455a7 7 0 0 0 .165-1.258m-8.766-8.615c-.808 0-1.482.155-2.002.465-.812.483-1.3 1.364-1.447 2.614a1.664 1.664 0 0 0 1.155 1.804c1.492.45 2.91-.132 4.212-1.736a4.15 4.15 0 0 0 .932-2.676c-1.077-.314-2.031-.471-2.848-.471zM202.114 110.734a.8.8 0 0 1-.746-1.089c1.707-4.433 3.883-6.142 5.712-6.706-.277-4.78 3.253-8.503 3.437-8.693a.7.7 0 0 1 .126-.106q.461-.313.907-.589v-.076c-.021-3.958 1.157-6.931 3.499-8.834 4.143-3.369 10.357-2.088 10.619-2.032a.802.802 0 0 1-.333 1.567c-.057-.013-5.74-1.172-9.28 1.713-1.786 1.454-2.755 3.726-2.887 6.76 2.261-1.12 4.187-1.427 5.747-.912 1.459.481 2.556 1.67 3.174 3.434.556 1.591-.093 3.34-1.546 4.156-2.062 1.159-4.356.829-6.629-.959a6.13 6.13 0 0 1-2.093-3.085q-.1.065-.199.132c-.403.447-3.048 3.523-2.928 7.284 2.135.007 3.957 1.29 4.701 2.633.453.816.471 1.62.05 2.201-.707.975-1.761 1.331-2.968 1.002-1.095-.299-2.014-1.093-2.521-2.18a9.6 9.6 0 0 1-.632-1.8c-1.409.529-3.052 2.027-4.455 5.669a.8.8 0 0 1-.748.512zm6.801-6.425q.17.677.488 1.366c.306.659.849 1.137 1.49 1.312.707.193 1.029-.093 1.25-.396.095-.273-.624-1.492-2.124-2.046a3.8 3.8 0 0 0-1.106-.234zm4.332-9.898a4.56 4.56 0 0 0 1.651 2.697c1.748 1.374 3.382 1.649 4.856.822.775-.436 1.118-1.374.818-2.232-.452-1.295-1.18-2.118-2.163-2.442-1.267-.418-3.032-.019-5.162 1.155M176.606 26.905a.947.947 0 0 1-.907-1.221l1.518-5.048a.948.948 0 0 1 1.815.545l-1.519 5.049a.95.95 0 0 1-.907.673zM172.117 41.821a.948.948 0 0 1-.907-1.221l1.519-5.048a.948.948 0 0 1 1.815.545l-1.519 5.049a.95.95 0 0 1-.908.673zM179.659 29.397a.947.947 0 0 1-.449-1.782l4.644-2.496a.948.948 0 0 1 .897 1.67l-4.644 2.496a.94.94 0 0 1-.448.114zM165.942 36.766a.947.947 0 0 1-.448-1.782l4.643-2.496a.947.947 0 0 1 .897 1.67l-4.643 2.496a.95.95 0 0 1-.449.114zM185.103 34.84a.9.9 0 0 1-.272-.04l-5.049-1.52a.947.947 0 0 1 .546-1.814l5.048 1.519c.5.15.785.678.635 1.18a.95.95 0 0 1-.908.674zM170.187 30.354a.9.9 0 0 1-.272-.04l-5.049-1.52a.947.947 0 0 1 .546-1.814l5.048 1.519c.5.15.785.678.635 1.18a.95.95 0 0 1-.908.673zM180.054 41.016a.95.95 0 0 1-.835-.498l-2.497-4.643a.948.948 0 0 1 1.67-.897l2.496 4.643a.947.947 0 0 1-.834 1.397zM172.681 27.3a.95.95 0 0 1-.835-.498l-2.497-4.644a.948.948 0 0 1 1.67-.897l2.496 4.644a.947.947 0 0 1-.834 1.397zM61.303 7.47a.948.948 0 0 1-.907-1.221L62.072.674a.947.947 0 0 1 1.814.545L62.21 6.794a.95.95 0 0 1-.907.673zM56.352 23.934a.947.947 0 0 1-.907-1.221l1.676-5.573a.947.947 0 0 1 1.814.545l-1.676 5.574a.95.95 0 0 1-.907.673zM64.68 10.218a.947.947 0 0 1-.448-1.782l5.125-2.757a.948.948 0 0 1 .897 1.67l-5.125 2.757a.95.95 0 0 1-.449.114zM49.534 18.362a.947.947 0 0 1-.448-1.781l5.124-2.757a.948.948 0 0 1 .897 1.67l-5.125 2.756a.94.94 0 0 1-.448.114zM70.687 16.236a.9.9 0 0 1-.273-.041l-5.573-1.676a.947.947 0 0 1 .545-1.815l5.574 1.676a.948.948 0 0 1-.273 1.854zM54.218 11.281a.9.9 0 0 1-.273-.041l-5.573-1.676a.948.948 0 0 1 .546-1.815l5.573 1.676a.948.948 0 0 1-.273 1.854zM65.115 23.047a.95.95 0 0 1-.835-.498l-2.757-5.125a.948.948 0 0 1 1.67-.897l2.757 5.125a.948.948 0 0 1-.835 1.397zM56.974 7.904a.95.95 0 0 1-.835-.498l-2.756-5.125a.948.948 0 0 1 1.67-.897l2.756 5.125a.948.948 0 0 1-.835 1.397zM9.374 150.971s3.052 4.383-1.298 7.799c0 0 4.704-1.829 7.41 3.11 0 0-1.655-6.313 1.14-8.237 0 0-4.76 1.047-7.254-2.672zM215.582 170.597a2.164 2.164 0 1 0-.002-4.328 2.164 2.164 0 0 0 .002 4.328M203.681 147.951s-.436 5.094-5.728 4.947c0 0 4.582 1.532 3.552 6.824 0 0 2.645-5.66 5.882-5.367 0 0-4.146-2.141-3.706-6.406zM174.293 64.575a2.164 2.164 0 1 0-.001-4.327 2.164 2.164 0 0 0 .001 4.327"/><path fill="#8bc34a" d="m93.89 27.523 2.828 1.639s1.89-4.966 7.212-5.846l-.806-3.263s-6.706.876-9.233 7.47"/><path fill="#19b5fe" d="m8.22 98.75 3.045-1.186s1.107 5.198 6.23 6.882l-1.296 3.102s-6.492-1.893-7.98-8.795z"/><path fill="#ff5722" d="m226.525 135.667.523-2.927s-4.833-.072-7.239-4.347l-2.539 1.702s2.833 5.462 9.255 5.574z"/><path fill="#102770" d="M43.218 46.372a2.164 2.164 0 1 0 0-4.327 2.164 2.164 0 0 0 0 4.327"/><path fill="#ffca28" d="m202.61 67.064-2.827-.917s-.732 4.777-5.297 6.577l1.339 2.748s5.799-2.06 6.787-8.408zM25.415 120.496l1.452 2.594s-4.542 1.653-5.414 6.48l-2.957-.777s.887-6.088 6.919-8.299z"/><path fill="#19b5fe" d="m141.218 28.365-2.972.097s.935 4.743-2.748 7.985l2.193 2.13s4.752-3.905 3.527-10.212"/><path fill="#ff5722" d="m135.814 113.739.523-2.926s-4.833-.073-7.239-4.348l-2.539 1.703s2.833 5.461 9.255 5.573zM125.74 10.536l.523-2.926s-4.834-.073-7.239-4.348l-2.54 1.703s2.834 5.461 9.256 5.573z"/></g><defs><linearGradient id="c" x1="87.752" x2="79.781" y1="176.499" y2="75.442" gradientUnits="userSpaceOnUse"><stop stop-color="#fff"/><stop offset="1" stop-color="#fff"/></linearGradient><linearGradient id="d" x1="63.345" x2="55.904" y1="169.016" y2="74.689" gradientUnits="userSpaceOnUse"><stop stop-color="#fff"/><stop offset="1" stop-color="#fff"/></linearGradient><linearGradient id="e" x1="156.146" x2="148.706" y1="197.32" y2="102.993" gradientUnits="userSpaceOnUse"><stop stop-color="#fff"/><stop offset="1" stop-color="#fff"/></linearGradient><clipPath id="a"><path fill="#fff" d="M.953 0h226.095v200H.953z"/></clipPath></defs></svg>