<svg width="60" height="84" viewBox="0 0 60 84" fill="none" xmlns="http://www.w3.org/2000/svg">
<path d="M54.9737 50.5224C54.0022 49.7421 53.4973 48.5206 53.6324 47.2839C53.8849 44.9659 51.929 43.0101 49.6111 43.2625C48.3743 43.3977 47.1529 42.8902 46.3726 41.9212C44.9114 40.1031 42.1447 40.1031 40.6835 41.9212C39.9032 42.8928 38.6818 43.3977 37.445 43.2625C35.1271 43.0101 33.1712 44.9659 33.4237 47.2839C33.5588 48.5206 33.0514 49.7421 32.0824 50.5224C30.2642 51.9835 30.2642 54.7503 32.0824 56.2114C33.0539 56.9917 33.5588 58.2132 33.4237 59.4499C33.1712 61.7679 35.1271 63.7237 37.445 63.4713C38.6818 63.3361 39.9032 63.8436 40.6835 64.8126C42.1447 66.6307 44.9114 66.6307 46.3726 64.8126C47.1529 63.841 48.3743 63.3361 49.6111 63.4713C51.929 63.7237 53.8849 61.7679 53.6324 59.4499C53.4973 58.2132 54.0047 56.9917 54.9737 56.2114C56.7919 54.7503 56.7919 51.9835 54.9737 50.5224ZM43.5268 59.6361C40.0639 59.6361 37.2563 56.8285 37.2563 53.3656C37.2563 49.9027 40.0639 47.0952 43.5268 47.0952C46.9897 47.0952 49.7972 49.9027 49.7972 53.3656C49.7972 56.8285 46.9897 59.6361 43.5268 59.6361Z" fill="#E8F3FF"/>
<path d="M5.04804 9.83221C5.04804 7.53211 6.91209 5.67061 9.20964 5.67061H49.3211C49.3594 5.67061 49.3951 5.67571 49.4308 5.67571V5.61961C49.4308 3.31951 47.5667 1.45801 45.2692 1.45801H5.15769C2.85759 1.45801 0.996094 3.32206 0.996094 5.61961V64.3487C0.996094 66.6105 2.80149 68.4465 5.05059 68.5052V9.83221H5.04804Z" fill="#E8F3FF"/>
<path d="M49.4308 43.2627V5.61961C49.4308 3.31951 47.5667 1.45801 45.2692 1.45801H5.15769C2.85759 1.45801 0.996094 3.32206 0.996094 5.61961V64.3487C0.996094 66.6488 2.86014 68.5103 5.15769 68.5103H32.3305" stroke="#4698D3" stroke-width="1.70085" stroke-linecap="round" stroke-linejoin="round"/>
<path d="M29.9297 27.6719H32.3394C36.0293 27.6719 39.4769 30.6401 40.1705 34.7379" stroke="#4698D3" stroke-width="1.70085" stroke-linecap="round" stroke-linejoin="round"/>
<path d="M12.3945 34.9833C12.8178 31.0181 16.1124 27.8739 20.1414 27.6801C20.2689 27.6699 20.4066 27.6699 20.5367 27.6699H22.9388" stroke="#4698D3" stroke-width="1.70085" stroke-linecap="round" stroke-linejoin="round"/>
<path d="M22.9453 27.6802L24.0775 29.9701L26.4312 34.7361L28.7899 29.9701L29.9196 27.6726V27.6624L29.9298 27.6445" stroke="#4698D3" stroke-width="1.70085" stroke-linecap="round" stroke-linejoin="round"/>
<path d="M26.4334 9.20508C22.2387 9.20508 18.8242 12.5991 18.8242 16.8143C18.8242 21.0294 22.2361 24.4235 26.4334 24.4235C30.6307 24.4235 34.0426 21.0192 34.0426 16.8143C34.0426 12.6093 30.6384 9.20508 26.4334 9.20508Z" stroke="#4698D3" stroke-width="1.70085" stroke-linecap="round" stroke-linejoin="round"/>
<path d="M46.3687 41.9212C47.149 42.8928 48.3704 43.3977 49.6072 43.2625C51.9251 43.0101 53.881 44.9659 53.6285 47.2839C53.4934 48.5206 54.0008 49.7421 54.9698 50.5224C56.788 51.9835 56.788 54.7503 54.9698 56.2114C53.9983 56.9917 53.4934 58.2132 53.6285 59.4499C53.881 61.7679 51.9251 63.7237 49.6072 63.4713C48.3704 63.3361 47.149 63.8436 46.3687 64.8126C44.9075 66.6307 42.1408 66.6307 40.6796 64.8126C39.8993 63.841 38.6779 63.3361 37.4411 63.4713C35.1232 63.7237 33.1673 61.7679 33.4198 59.4499C33.5549 58.2132 33.0475 56.9917 32.0785 56.2114C30.2603 54.7503 30.2603 51.9835 32.0785 50.5224C33.05 49.7421 33.5549 48.5206 33.4198 47.2839C33.1673 44.9659 35.1232 43.0101 37.4411 43.2625C38.6779 43.3977 39.8993 42.8902 40.6796 41.9212C42.1408 40.1031 44.9075 40.1031 46.3687 41.9212Z" stroke="#4698D3" stroke-width="1.70085" stroke-linecap="round" stroke-linejoin="round"/>
<path d="M43.5244 59.6366C46.9874 59.6366 49.7948 56.8292 49.7948 53.3662C49.7948 49.9031 46.9874 47.0957 43.5244 47.0957C40.0613 47.0957 37.2539 49.9031 37.2539 53.3662C37.2539 56.8292 40.0613 59.6366 43.5244 59.6366Z" stroke="#4698D3" stroke-width="1.70085" stroke-linecap="round" stroke-linejoin="round"/>
<path d="M43.3478 67.3627L39.3596 78.621L36.4653 71.9655L29.9297 75.283L34.4789 62.4336" stroke="#4698D3" stroke-width="1.70085" stroke-linecap="round" stroke-linejoin="round"/>
<path d="M43.5078 66.1744L49.4723 83.0146L52.3665 76.3591L58.8996 79.6741L52.7949 62.4336" stroke="#4698D3" stroke-width="1.70085" stroke-linecap="round" stroke-linejoin="round"/>
<path d="M9.46094 44.4688H34.1271" stroke="#4698D3" stroke-width="1.70085" stroke-linecap="round" stroke-linejoin="round"/>
<path d="M9.46094 52.3301H30.8707" stroke="#4698D3" stroke-width="1.70085" stroke-linecap="round" stroke-linejoin="round"/>
<path d="M9.46094 60.1924H32.9515" stroke="#4698D3" stroke-width="1.70085" stroke-linecap="round" stroke-linejoin="round"/>
</svg>
