<svg width="98" height="107" viewBox="0 0 98 107" fill="none" xmlns="http://www.w3.org/2000/svg">
<rect width="78.8966" height="80" transform="translate(8.82758 8.82758)" fill="white"/>
<g filter="url(#filter0_d_193_9374)">
<path d="M42.7345 10.4602L14.9212 26.5185C11.1504 28.6954 8.82758 32.7182 8.82758 37.0721V69.1884C8.82758 73.5422 11.1504 77.5651 14.9213 79.7421L42.7345 95.8002C46.5048 97.9771 51.1503 97.9771 54.9207 95.8002L82.7345 79.7421C86.5049 77.5651 88.8276 73.5421 88.8276 69.1884V37.0721C88.8276 32.7184 86.5049 28.6954 82.7345 26.5184L54.9206 10.4602C51.1503 8.28336 46.5048 8.28336 42.7345 10.4602Z" fill="white"/>
<path d="M43.8383 12.3715C46.9257 10.589 50.7295 10.589 53.8168 12.3715L81.6313 28.4301C84.7185 30.2128 86.6204 33.5068 86.6205 37.0717V69.1879C86.6205 72.753 84.7187 76.0477 81.6313 77.8305L53.8168 93.8891C50.7295 95.6715 46.9256 95.6715 43.8383 93.8891L16.0248 77.8305C12.9367 76.0477 11.0346 72.7532 11.0346 69.1879V37.0717C11.0347 33.5066 12.9369 30.2128 16.0248 28.4301L43.8383 12.3715Z" stroke="#38A09F" stroke-width="4.41379"/>
<path d="M43.8383 12.3715C46.9257 10.589 50.7295 10.589 53.8168 12.3715L81.6313 28.4301C84.7185 30.2128 86.6204 33.5068 86.6205 37.0717V69.1879C86.6205 72.753 84.7187 76.0477 81.6313 77.8305L53.8168 93.8891C50.7295 95.6715 46.9256 95.6715 43.8383 93.8891L16.0248 77.8305C12.9367 76.0477 11.0346 72.7532 11.0346 69.1879V37.0717C11.0347 33.5066 12.9369 30.2128 16.0248 28.4301L43.8383 12.3715Z" stroke="url(#paint0_linear_193_9374)" stroke-width="4.41379"/>
</g>
<path d="M46.2116 51.6476C45.8782 51.6476 45.5916 51.5342 45.3516 51.3076C45.1249 51.0809 45.0116 50.8009 45.0116 50.4676C45.0116 50.1209 45.1249 49.8342 45.3516 49.6076C45.5916 49.3809 45.8782 49.2676 46.2116 49.2676H50.3316C50.6649 49.2676 50.9449 49.3809 51.1716 49.6076C51.4116 49.8342 51.5316 50.1209 51.5316 50.4676C51.5316 50.8009 51.4116 51.0809 51.1716 51.3076C50.9449 51.5342 50.6649 51.6476 50.3316 51.6476H46.2116Z" fill="#212A37"/>
<defs>
<filter id="filter0_d_193_9374" x="-1.04904e-05" y="-1.04904e-05" width="97.6552" height="106.261" filterUnits="userSpaceOnUse" color-interpolation-filters="sRGB">
<feFlood flood-opacity="0" result="BackgroundImageFix"/>
<feColorMatrix in="SourceAlpha" type="matrix" values="0 0 0 0 0 0 0 0 0 0 0 0 0 0 0 0 0 0 127 0" result="hardAlpha"/>
<feOffset/>
<feGaussianBlur stdDeviation="4.41379"/>
<feComposite in2="hardAlpha" operator="out"/>
<feColorMatrix type="matrix" values="0 0 0 0 0.690196 0 0 0 0 0.894118 0 0 0 0 0.8 0 0 0 1 0"/>
<feBlend mode="normal" in2="BackgroundImageFix" result="effect1_dropShadow_193_9374"/>
<feBlend mode="normal" in="SourceGraphic" in2="effect1_dropShadow_193_9374" result="shape"/>
</filter>
<linearGradient id="paint0_linear_193_9374" x1="8.82758" y1="53.1302" x2="88.8276" y2="53.1302" gradientUnits="userSpaceOnUse">
<stop stop-color="#115A59" stop-opacity="0.8"/>
<stop offset="0.6" stop-color="#115A59" stop-opacity="0"/>
</linearGradient>
</defs>
</svg>
