<svg width="177" height="193" viewBox="0 0 177 193" fill="none" xmlns="http://www.w3.org/2000/svg">
<g filter="url(#filter0_d_15056_9507)">
<path d="M77.4563 18.9592L27.0448 48.0647C20.2101 52.0104 16 59.3018 16 67.1931V125.404C16 133.295 20.2101 140.587 27.0449 144.533L77.4563 173.638C84.29 177.584 92.71 177.584 99.5437 173.638L149.956 144.533C156.79 140.587 161 133.295 161 125.404V67.1931C161 59.302 156.79 52.0104 149.956 48.0647L99.5437 18.9592C92.71 15.0136 84.29 15.0136 77.4563 18.9592Z" fill="white"/>
<path d="M79.4564 22.4233L79.4564 22.4233C85.0524 19.1922 91.9476 19.1922 97.5436 22.4233L97.5437 22.4233L147.956 51.5287C153.553 54.7599 157 60.7311 157 67.1931V125.404C157 131.866 153.553 137.837 147.956 141.068L97.5437 170.174L99.5437 173.638L97.5436 170.174C91.9476 173.405 85.0524 173.405 79.4564 170.174L77.4563 173.638L79.4564 170.174L29.0449 141.068L29.0447 141.068C23.4475 137.837 20 131.866 20 125.404V67.1931C20 60.7311 23.4475 54.7601 29.0446 51.5289L29.0448 51.5288L79.4564 22.4233Z" stroke="#FFDC76" stroke-width="8"/>
</g>
<defs>
<filter id="filter0_d_15056_9507" x="0" y="0" width="177" height="192.597" filterUnits="userSpaceOnUse" color-interpolation-filters="sRGB">
<feFlood flood-opacity="0" result="BackgroundImageFix"/>
<feColorMatrix in="SourceAlpha" type="matrix" values="0 0 0 0 0 0 0 0 0 0 0 0 0 0 0 0 0 0 127 0" result="hardAlpha"/>
<feOffset/>
<feGaussianBlur stdDeviation="8"/>
<feComposite in2="hardAlpha" operator="out"/>
<feColorMatrix type="matrix" values="0 0 0 0 1 0 0 0 0 0.862745 0 0 0 0 0.462745 0 0 0 1 0"/>
<feBlend mode="normal" in2="BackgroundImageFix" result="effect1_dropShadow_15056_9507"/>
<feBlend mode="normal" in="SourceGraphic" in2="effect1_dropShadow_15056_9507" result="shape"/>
</filter>
</defs>
</svg>
