<svg viewbox="0 0 132 48" width="132" height="48" fill="none"
  xmlns="http://www.w3.org/2000/svg">
  <mask id="a" style="mask-type:alpha" maskUnits="userSpaceOnUse" x="64" y="11" width="68"
    height="28">
    <path
      d="M76.313 38.083c-2.16 0-3.01-.422-4.273-1.903l-.137-.162-5.88-7.23c-2.44-2.841-2.491-5.005-.153-7.82l.153-.18 5.88-7.23c1.295-1.556 2.114-2.031 4.184-2.062l.226-.002h43.527c2.239 0 3.069.452 4.411 2.064l5.88 7.23c2.492 2.904 2.492 5.098 0 8l-5.88 7.23c-1.342 1.612-2.172 2.065-4.411 2.065H76.313Z"
      fill="#fff" />
  </mask>
  <g mask="url(#a)">
    <path fill-rule="evenodd" clip-rule="evenodd"
      d="M72.198 35.572c1.264 1.447 2.113 1.86 4.273 1.86h43.522c2.238 0 3.068-.443 4.41-2.02l5.879-7.064c2.492-2.835 2.492-4.98 0-7.818l-5.879-7.063c-1.342-1.576-2.172-2.017-4.41-2.017H76.471l-.226.001c-2.07.03-2.888.495-4.184 2.016l-5.879 7.063-.152.177c-2.338 2.751-2.288 4.865.152 7.641l5.88 7.065.136.159Zm14.233-8.286c.312-.386.475-1.009.475-1.87v-2.122c0-.875-.163-1.499-.475-1.87-.311-.386-.95-.578-1.885-.578s-1.574.192-1.885.578c-.312.371-.475.995-.475 1.87v2.122c0 .861.163 1.484.475 1.87.311.386.95.579 1.885.579s1.574-.193 1.885-.579Zm1.173 1.054c-.579.668-1.588.994-3.058.994-1.47 0-2.494-.326-3.073-.994-.579-.668-.86-1.647-.86-2.924v-2.122c0-1.276.281-2.24.86-2.909.58-.667 1.603-1.009 3.073-1.009s2.494.342 3.073 1.01c.579.667.861 1.632.861 2.908v2.122c0 1.277-.297 2.256-.876 2.924Zm6.784-8.83c2.301 0 3.207 1.039 3.207 2.983 0 1.588-.594 2.538-2.079 2.85l2.05 3.16c.31.472.264.626-.204.65l-.153.003h-.252c-.61 0-.847-.133-1.188-.653l-1.945-3.042H91.91v3.013c0 .549-.133.682-.683.682h-.193c-.549 0-.683-.133-.683-.682v-7.272c0-1.188.505-1.692 1.693-1.692h2.345Zm1.648 2.983c0-1.054-.4-1.514-1.648-1.514h-1.9c-.386 0-.579.193-.579.564v2.449h2.48c1.246 0 1.647-.49 1.647-1.5Zm8.402 5.313c.342-.045.52-.282.52-.683v-2.7c0-.535.134-.669.668-.669l.219.002c.463.014.583.162.583.666v2.716c0 1.306-.357 1.885-1.529 2.077a7.131 7.131 0 0 1-1.262.104c-3.103 0-4.41-1.083-4.41-3.77v-2.373c0-2.39 1.367-3.8 4.336-3.8.771 0 1.484.119 2.122.357.52.192.579.267.579.756l-.001.306c-.013.45-.144.56-.592.407a5.875 5.875 0 0 0-2.094-.371c-2.004 0-2.746.682-2.746 2.448v2.375c0 1.44.698 2.196 2.791 2.196.386 0 .653-.015.816-.044Zm9.071-7.895c.297.34.579.994.846 1.958l1.826 6.634c.133.52.044.653-.505.653h-.208c-.549 0-.697-.133-.861-.653l-.549-2.018h-4.171l-.55 2.018c-.163.52-.312.653-.861.653h-.208c-.549 0-.638-.133-.504-.653l1.826-6.634c.267-.964.549-1.617.846-1.958.312-.357.816-.535 1.544-.535.727 0 1.232.178 1.529.535Zm-2.376 1.929-.875 3.235h3.429l-.876-3.235c-.238-.876-.356-1.069-.831-1.069-.43 0-.58.158-.781.837l-.066.232Z"
      fill="#fff" />
  </g>
  <path fill-rule="evenodd" clip-rule="evenodd"
    d="m55.459 26.482 7.365 8.99c1.337 1.713 1.273 2.03-.955 2.03h-.764c-2.227 0-3.055-.444-4.392-2.03l-4.057-4.922.967-1.173c.861-.992 1.473-1.95 1.836-2.895Zm6.559-15.11c2.081.014 2.113.355.806 2.028l-7.365 8.99c-.363-.944-.974-1.902-1.836-2.895l-.967-1.173 4.057-4.922c1.29-1.53 2.107-1.997 4.167-2.028l.225-.001h.913ZM41.408 37.502c-2.228 0-2.292-.317-.955-2.03l7.639-9.323c.572-.698.89-1.269.89-1.713 0-.507-.318-1.078-.89-1.712l-7.64-9.324c-1.336-1.712-1.272-2.03.956-2.03h.764c2.227 0 3.055.445 4.392 2.03l5.856 7.104c2.483 2.854 2.483 5.01 0 7.865l-5.856 7.103c-1.337 1.586-2.165 2.03-4.392 2.03h-.764ZM0 45.633C0 47.526.475 48 2.376 48h.633c1.9 0 2.376-.474 2.376-2.367V34.639c1.425 2.262 4.012 3.42 7.76 3.42 7.339 0 10.981-3.84 10.981-11.468v-4.576c0-7.627-3.906-11.204-12.09-11.204C4.436 10.811 0 14.493 0 22.015v23.618Zm18.689-18.937c0 4.419-1.478 6.26-6.6 6.26-5.226 0-6.704-1.894-6.704-6.26v-4.523c0-4.419 1.584-6.312 6.705-6.312 5.226 0 6.599 1.893 6.599 6.312v4.524ZM29.205 35.072c0 1.893.475 2.367 2.375 2.367h.687c1.9 0 2.375-.474 2.375-2.367V13.716c0-1.894-.475-2.367-2.376-2.367h-.686c-1.9 0-2.375.473-2.375 2.367v21.356Zm.37-29.404c1.319 1.262 3.43 1.262 4.698 0 1.32-1.315 1.32-3.42 0-4.682-1.267-1.315-3.38-1.315-4.699 0-1.32 1.263-1.32 3.367 0 4.682Z"
    fill="#fff" />
</svg>