<svg width="1194" height="834" viewBox="0 0 1194 834" fill="none" xmlns="http://www.w3.org/2000/svg">
  <g clip-path="url(#clip0_441_17108)">
    <rect width="1194" height="834" fill="#ECF2FB" fill-opacity="0.2"/>
    <path fill-rule="evenodd" clip-rule="evenodd" d="M147.7 183.186C143.61 183.037 142.334 177.583 145.934 175.637L163.388 166.2C163.383 166.099 163.381 165.996 163.383 165.893L163.856 140.002C163.929 136.053 169.058 134.568 171.23 137.867L185.069 158.886L205.497 161.111C209.424 161.539 210.443 166.78 206.963 168.646L187.254 179.216C187.256 179.373 187.249 179.533 187.232 179.695L184.698 204.039C184.279 208.07 178.833 209.014 177.079 205.36L166.773 183.885L147.7 183.186Z" fill="#FFBC57"/>
    <path fill-rule="evenodd" clip-rule="evenodd" d="M338.984 245.173C337.294 245.111 336.767 242.857 338.254 242.052L345.467 238.153C345.464 238.111 345.463 238.068 345.464 238.025L345.661 227.324C345.691 225.692 347.81 225.079 348.708 226.442L354.427 235.129L362.87 236.049C364.492 236.225 364.914 238.392 363.476 239.163L355.33 243.532C355.331 243.597 355.328 243.663 355.321 243.729L354.274 253.791C354.101 255.457 351.85 255.847 351.125 254.337L346.866 245.461L338.984 245.173Z" fill="#FFBC57"/>
    <g filter="url(#filter0_f_441_17108)">
      <path fill-rule="evenodd" clip-rule="evenodd" d="M273.572 345.882C270.835 345.782 269.981 342.132 272.39 340.83L284.067 334.516C284.063 334.448 284.062 334.379 284.063 334.31L284.381 316.984C284.43 314.342 287.861 313.349 289.315 315.556L298.575 329.621L312.244 331.11C314.871 331.396 315.553 334.903 313.224 336.152L300.036 343.226C300.037 343.331 300.033 343.437 300.021 343.545L298.326 359.835C298.046 362.532 294.402 363.164 293.228 360.719L286.333 346.348L273.572 345.882Z" fill="#FFBC57"/>
    </g>
    <path fill-rule="evenodd" clip-rule="evenodd" d="M74.2766 532.028C71.5399 531.928 70.6863 528.278 73.095 526.976L84.772 520.662C84.7682 520.594 84.7669 520.525 84.7682 520.455L85.0861 503.13C85.1346 500.488 88.5663 499.494 90.0196 501.702L99.2801 515.767L112.949 517.255C115.576 517.541 116.258 521.049 113.929 522.298L100.741 529.371C100.743 529.476 100.738 529.583 100.727 529.691L99.0313 545.981C98.7507 548.678 95.1066 549.31 93.9333 546.865L87.0376 532.494L74.2766 532.028Z" fill="#FFBC57"/>
    <path fill-rule="evenodd" clip-rule="evenodd" d="M419.719 711.481C416.982 711.381 416.129 707.731 418.537 706.429L430.214 700.115C430.211 700.047 430.209 699.978 430.211 699.909L430.529 682.583C430.577 679.941 434.009 678.947 435.462 681.155L444.722 695.22L458.391 696.708C461.018 696.995 461.7 700.502 459.372 701.751L446.184 708.825C446.185 708.93 446.18 709.036 446.169 709.144L444.474 725.434C444.193 728.131 440.549 728.763 439.376 726.318L432.48 711.947L419.719 711.481Z" fill="#FFBC57"/>
    <g filter="url(#filter1_f_441_17108)">
      <path fill-rule="evenodd" clip-rule="evenodd" d="M553.403 138.468C550.666 138.368 549.812 134.718 552.221 133.416L563.898 127.102C563.894 127.034 563.893 126.965 563.894 126.896L564.212 109.57C564.261 106.928 567.692 105.935 569.146 108.142L578.406 122.207L592.075 123.696C594.702 123.982 595.384 127.489 593.055 128.738L579.867 135.812C579.869 135.917 579.864 136.023 579.853 136.131L578.157 152.421C577.877 155.118 574.233 155.75 573.059 153.305L566.164 138.934L553.403 138.468Z" fill="#FFBC57"/>
    </g>
    <g filter="url(#filter2_f_441_17108)">
      <path fill-rule="evenodd" clip-rule="evenodd" d="M814.542 235.834C811.282 235.715 810.266 231.367 813.135 229.816L827.044 222.295C827.04 222.214 827.038 222.132 827.04 222.049L827.418 201.412C827.476 198.264 831.564 197.081 833.295 199.71L844.326 216.464L860.608 218.237C863.737 218.578 864.55 222.756 861.776 224.244L846.066 232.67C846.068 232.795 846.062 232.922 846.049 233.05L844.03 252.455C843.695 255.667 839.355 256.42 837.957 253.507L829.743 236.389L814.542 235.834Z" fill="#FFBC57"/>
    </g>
    <g filter="url(#filter3_f_441_17108)">
      <path fill-rule="evenodd" clip-rule="evenodd" d="M891.093 146.211C888.839 146.128 888.136 143.123 890.12 142.05L899.737 136.851C899.733 136.795 899.732 136.738 899.733 136.681L899.995 122.412C900.035 120.237 902.861 119.418 904.058 121.236L911.684 132.819L922.941 134.045C925.104 134.281 925.666 137.169 923.748 138.198L912.888 144.023C912.889 144.11 912.885 144.197 912.876 144.286L911.479 157.701C911.248 159.923 908.247 160.443 907.281 158.429L901.602 146.595L891.093 146.211Z" fill="#FFBC57"/>
    </g>
    <g filter="url(#filter4_f_441_17108)">
      <path fill-rule="evenodd" clip-rule="evenodd" d="M1055.68 177.764C1051.41 177.608 1050.08 171.918 1053.83 169.888L1072.04 160.047C1072.03 159.94 1072.03 159.833 1072.03 159.724L1072.53 132.717C1072.6 128.598 1077.95 127.05 1080.22 130.491L1094.65 152.416L1115.96 154.736C1120.05 155.182 1121.12 160.649 1117.49 162.596L1096.93 173.623C1096.93 173.787 1096.92 173.953 1096.91 174.121L1094.26 199.514C1093.83 203.719 1088.15 204.703 1086.32 200.892L1075.57 178.491L1055.68 177.764Z" fill="#FFBC57"/>
    </g>
    <g filter="url(#filter5_f_441_17108)">
      <path fill-rule="evenodd" clip-rule="evenodd" d="M1017.22 582.894C1014.81 582.805 1014.05 579.585 1016.18 578.436L1026.48 572.865C1026.48 572.805 1026.48 572.744 1026.48 572.683L1026.76 557.396C1026.8 555.064 1029.83 554.188 1031.11 556.135L1039.28 568.546L1051.35 569.859C1053.66 570.112 1054.26 573.206 1052.21 574.308L1040.57 580.55C1040.57 580.643 1040.57 580.737 1040.56 580.832L1039.07 595.205C1038.82 597.585 1035.6 598.142 1034.57 595.985L1028.48 583.305L1017.22 582.894Z" fill="#FFBC57"/>
    </g>
    <g filter="url(#filter6_f_441_17108)">
      <path fill-rule="evenodd" clip-rule="evenodd" d="M898.995 612.779C897.305 612.718 896.777 610.463 898.265 609.659L905.477 605.76C905.475 605.717 905.474 605.675 905.475 605.632L905.671 594.931C905.701 593.299 907.821 592.685 908.718 594.049L914.438 602.736L922.881 603.655C924.503 603.832 924.925 605.998 923.486 606.77L915.341 611.139C915.342 611.204 915.339 611.27 915.332 611.336L914.285 621.398C914.111 623.063 911.861 623.454 911.136 621.943L906.877 613.067L898.995 612.779Z" fill="#FFBC57"/>
    </g>
    <g filter="url(#filter7_f_441_17108)">
      <path fill-rule="evenodd" clip-rule="evenodd" d="M907.262 742.593C901.627 742.387 899.87 734.873 904.829 732.192L928.87 719.193C928.862 719.053 928.859 718.911 928.862 718.768L929.517 683.098C929.617 677.658 936.682 675.613 939.674 680.157L958.74 709.115L986.881 712.18C992.289 712.769 993.694 719.99 988.9 722.561L961.748 737.124C961.75 737.341 961.741 737.56 961.718 737.782L958.227 771.32C957.65 776.873 950.147 778.174 947.732 773.14L933.534 743.553L907.262 742.593Z" fill="#FFBC57"/>
    </g>
  </g>
  <defs>
    <filter id="filter0_f_441_17108" x="243.071" y="288.588" width="99.4854" height="99.4779" filterUnits="userSpaceOnUse" color-interpolation-filters="sRGB">
      <feFlood flood-opacity="0" result="BackgroundImageFix"/>
      <feBlend mode="normal" in="SourceGraphic" in2="BackgroundImageFix" result="shape"/>
      <feGaussianBlur stdDeviation="4.48342" result="effect1_foregroundBlur_441_17108"/>
    </filter>
    <filter id="filter1_f_441_17108" x="522.902" y="81.174" width="99.4854" height="99.4779" filterUnits="userSpaceOnUse" color-interpolation-filters="sRGB">
      <feFlood flood-opacity="0" result="BackgroundImageFix"/>
      <feBlend mode="normal" in="SourceGraphic" in2="BackgroundImageFix" result="shape"/>
      <feGaussianBlur stdDeviation="4.48342" result="effect1_foregroundBlur_441_17108"/>
    </filter>
    <filter id="filter2_f_441_17108" x="783.873" y="173.249" width="107.18" height="107.171" filterUnits="userSpaceOnUse" color-interpolation-filters="sRGB">
      <feFlood flood-opacity="0" result="BackgroundImageFix"/>
      <feBlend mode="normal" in="SourceGraphic" in2="BackgroundImageFix" result="shape"/>
      <feGaussianBlur stdDeviation="2.50924" result="effect1_foregroundBlur_441_17108"/>
    </filter>
    <filter id="filter3_f_441_17108" x="851.583" y="84.635" width="110.713" height="110.707" filterUnits="userSpaceOnUse" color-interpolation-filters="sRGB">
      <feFlood flood-opacity="0" result="BackgroundImageFix"/>
      <feBlend mode="normal" in="SourceGraphic" in2="BackgroundImageFix" result="shape"/>
      <feGaussianBlur stdDeviation="10.8883" result="effect1_foregroundBlur_441_17108"/>
    </filter>
    <filter id="filter4_f_441_17108" x="1020.19" y="100.512" width="130.96" height="130.948" filterUnits="userSpaceOnUse" color-interpolation-filters="sRGB">
      <feFlood flood-opacity="0" result="BackgroundImageFix"/>
      <feBlend mode="normal" in="SourceGraphic" in2="BackgroundImageFix" result="shape"/>
      <feGaussianBlur stdDeviation="0.958719" result="effect1_foregroundBlur_441_17108"/>
    </filter>
    <filter id="filter5_f_441_17108" x="991.448" y="533.477" width="85.5069" height="85.5008" filterUnits="userSpaceOnUse" color-interpolation-filters="sRGB">
      <feFlood flood-opacity="0" result="BackgroundImageFix"/>
      <feBlend mode="normal" in="SourceGraphic" in2="BackgroundImageFix" result="shape"/>
      <feGaussianBlur stdDeviation="3.38747" result="effect1_foregroundBlur_441_17108"/>
    </filter>
    <filter id="filter6_f_441_17108" x="876.016" y="573.251" width="69.7271" height="69.7227" filterUnits="userSpaceOnUse" color-interpolation-filters="sRGB">
      <feFlood flood-opacity="0" result="BackgroundImageFix"/>
      <feBlend mode="normal" in="SourceGraphic" in2="BackgroundImageFix" result="shape"/>
      <feGaussianBlur stdDeviation="4.83925" result="effect1_foregroundBlur_441_17108"/>
    </filter>
    <filter id="filter7_f_441_17108" x="853.491" y="633.659" width="186.773" height="186.758" filterUnits="userSpaceOnUse" color-interpolation-filters="sRGB">
      <feFlood flood-opacity="0" result="BackgroundImageFix"/>
      <feBlend mode="normal" in="SourceGraphic" in2="BackgroundImageFix" result="shape"/>
      <feGaussianBlur stdDeviation="4.71827" result="effect1_foregroundBlur_441_17108"/>
    </filter>
    <clipPath id="clip0_441_17108">
      <rect width="1194" height="834" fill="white"/>
    </clipPath>
  </defs>
</svg>
