<svg width="102" height="81" viewBox="0 0 102 81" fill="none" xmlns="http://www.w3.org/2000/svg">
  <g clip-path="url(#clip0_5247_4398)">
    <path
      d="M0.289062 15.3281H2.24462L4.09859 18.4773L5.94409 15.3281H7.90811V22.9895H6.35044V17.5376L4.64039 20.3567H3.54832L1.83827 17.5376V22.9895H0.289062V15.3281Z"
      fill="#1D1E1C"/>
    <path d="M11.5987 15.3281H10.041V22.9895H11.5987V15.3281Z" fill="#1D1E1C"/>
    <path
      d="M13.7324 15.3281H15.7303L19.1504 20.8138V15.3281H20.7081V22.9895H18.7187L15.2901 17.4869V22.9895H13.7324V15.3281Z"
      fill="#1D1E1C"/>
    <path d="M24.3988 15.3281H22.8496V22.9895H24.3988V15.3281Z" fill="#1D1E1C"/>
    <path
      d="M26.9892 20.8818C27.3763 21.443 28.0016 21.7932 28.6823 21.83C28.9368 21.8717 29.1964 21.7953 29.3876 21.6222C29.5787 21.4492 29.6806 21.1984 29.6643 20.9411C29.6643 19.5696 26.168 19.8744 26.168 17.3263C26.1849 16.703 26.4558 16.1136 26.9177 15.6948C27.3797 15.2761 27.9926 15.0642 28.6146 15.1083C29.6598 15.1 30.6502 15.5749 31.2982 16.395L30.1553 17.4194C29.8241 16.8766 29.2562 16.522 28.6231 16.4628C28.1716 16.4622 27.7991 16.8161 27.7765 17.267C27.7765 18.63 31.2728 18.3167 31.2728 20.9072C31.2635 21.5564 30.9845 22.1724 30.5028 22.6076C30.021 23.0428 29.3799 23.2579 28.7331 23.2014C27.6359 23.2506 26.5804 22.7762 25.8887 21.9231L26.9892 20.8818Z"
      fill="#1D1E1C"/>
    <path d="M32.0264 15.3281H38.3078V16.7419H35.9459V22.9895H34.3967V16.7419H32.0264V15.3281Z" fill="#1D1E1C"/>
    <path
      d="M39.6797 15.3111H44.1411V16.6317H41.2289V18.4095H43.7093V19.7301H41.2289V21.6603H44.1411V22.9809H39.6797V15.3111ZM39.8067 13.1777H41.4067L42.6426 14.6507H41.2204L39.8067 13.1777Z"
      fill="#1D1E1C"/>
    <path
      d="M45.9775 15.3115H48.3225C50.0156 15.3115 51.0484 16.1581 51.0484 17.5972C51.0793 18.4455 50.5942 19.2282 49.8209 19.5782L52.2252 22.9644H50.3373L48.2971 19.8745H47.5013V22.9644H45.9775V15.3115ZM47.5352 16.6322V18.5454H48.3818C48.9101 18.5454 49.3384 18.1171 49.3384 17.5888C49.3384 17.0604 48.9101 16.6322 48.3818 16.6322H47.5352Z"
      fill="#1D1E1C"/>
    <path
      d="M53.1572 15.3281H57.6186V16.6488H54.7149V18.4265H57.1869V19.7472H54.7149V21.6604H57.6186V22.9895H53.1572V15.3281Z"
      fill="#1D1E1C"/>
    <path
      d="M0.263672 26.3675H3.29436C4.70589 26.3012 6.03956 27.0164 6.76519 28.229C7.49082 29.4415 7.49082 30.9549 6.76519 32.1675C6.03956 33.38 4.70589 34.0953 3.29436 34.0289H0.263672V26.3675ZM1.81288 27.7813V32.6151H3.31976C4.21738 32.6683 5.07052 32.2196 5.53538 31.4499C6.00024 30.6802 6.00024 29.7162 5.53538 28.9465C5.07052 28.1768 4.21738 27.7281 3.31976 27.7813H1.81288Z"
      fill="#1D1E1C"/>
    <path
      d="M8.86426 26.3672H13.3341V27.6963H10.4219V29.4656H12.8939V30.7862H10.4219V32.7079H13.3341V34.0286H8.86426V26.3672Z"
      fill="#1D1E1C"/>
    <path d="M17.9824 26.3672H19.5316V32.6148H22.4438V34.0286H17.9824V26.3672Z" fill="#1D1E1C"/>
    <path d="M22.1221 29.5249L23.1041 26.3672H24.6787L23.4088 29.5249H22.1221Z" fill="#1D1E1C"/>
    <path
      d="M25.8809 26.3677H30.3422V27.6968H27.4385V29.4661H29.8936V30.7868H27.4385V32.7084H30.3422V34.0291H25.8809V26.3677ZM27.3539 25.7159L28.5899 24.2344H30.1899L28.7676 25.7159H27.3539Z"
      fill="#1D1E1C"/>
    <path
      d="M32.1533 26.3675H35.1586C36.5701 26.3012 37.9038 27.0164 38.6294 28.229C39.3551 29.4415 39.3551 30.9549 38.6294 32.1675C37.9038 33.38 36.5701 34.0953 35.1586 34.0289H32.1533V26.3675ZM33.7025 27.7813V32.6151H35.184C36.0816 32.6683 36.9348 32.2196 37.3996 31.4499C37.8645 30.6802 37.8645 29.7162 37.3996 28.9465C36.9348 28.1768 36.0816 27.7281 35.184 27.7813H33.7025Z"
      fill="#1D1E1C"/>
    <path
      d="M45.2502 26.3672H46.8248V31.0317C46.8847 32.1789 46.3068 33.2655 45.3222 33.8571C44.3375 34.4486 43.1068 34.4486 42.1221 33.8571C41.1374 33.2655 40.5595 32.1789 40.6195 31.0317V26.3672H42.1772V31.1587C42.1772 31.7122 42.4724 32.2236 42.9518 32.5004C43.4311 32.7771 44.0216 32.7771 44.501 32.5004C44.9803 32.2236 45.2756 31.7122 45.2756 31.1587L45.2502 26.3672Z"
      fill="#1D1E1C"/>
    <path
      d="M54.2323 31.7431L55.4598 32.6827C54.6959 33.6939 53.4929 34.2765 52.2259 34.2489C50.3319 34.2336 48.7008 32.9093 48.2968 31.0588C47.8929 29.2084 48.8237 27.3247 50.539 26.5216C52.2544 25.7184 54.2972 26.2097 55.4598 27.705L54.2323 28.6531C53.7794 27.9916 53.0276 27.5982 52.2259 27.6034C50.8504 27.682 49.7753 28.8203 49.7753 30.1981C49.7753 31.5758 50.8504 32.7142 52.2259 32.7928C53.0283 32.801 53.7815 32.4069 54.2323 31.7431Z"
      fill="#1D1E1C"/>
    <path
      d="M58.6762 26.3672H60.7079L63.6116 34.0286H61.9185L61.2159 32.0391H58.1682L57.4402 34.0286H55.7471L58.6762 26.3672ZM60.7418 30.71L59.692 27.8317L58.6762 30.71H60.7418Z"
      fill="#1D1E1C"/>
    <path d="M63.248 26.3672H69.5295V27.7809H67.1676V34.0286H65.61V27.7809H63.248V26.3672Z" fill="#1D1E1C"/>
    <path d="M72.4502 26.3672H70.8926V34.0286H72.4502V26.3672Z" fill="#1D1E1C"/>
    <path
      d="M82.0669 30.2024C82.0737 31.8517 81.0851 33.3422 79.563 33.9773C78.0409 34.6124 76.286 34.2667 75.1186 33.1017C73.9512 31.9367 73.6018 30.1825 74.2337 28.6591C74.8657 27.1358 76.3541 26.144 78.0034 26.1474C79.0866 26.1241 80.1324 26.5436 80.8993 27.3089C81.6662 28.0742 82.0879 29.1192 82.0669 30.2024ZM80.4669 30.2024C80.4021 28.8534 79.2667 27.8061 77.9168 27.8503C76.567 27.8945 75.5025 29.0139 75.5262 30.3642C75.5498 31.7146 76.6528 32.796 78.0034 32.7929C78.6793 32.7938 79.326 32.5169 79.7918 32.0271C80.2576 31.5372 80.5017 30.8775 80.4669 30.2024Z"
      fill="#1D1E1C"/>
    <path
      d="M83.5566 26.3672H85.5461L88.9662 31.8529V26.3672H90.5238V34.0286H88.5344L85.1059 28.5259V34.0286H83.5566V26.3672Z"
      fill="#1D1E1C"/>
    <path
      d="M0.289062 37.415H2.27848L5.70705 42.9008V37.415H7.25626V45.0764H5.26684L1.83827 39.5738V45.0764H0.289062V37.415Z"
      fill="#1D1E1C"/>
    <path
      d="M11.3366 37.415H13.3769L16.2721 45.0341H14.6552L13.9187 43.0362H10.8287L10.0922 45.0341H8.44141L11.3366 37.415ZM13.4107 41.7579L12.361 38.8796L11.2689 41.7579H13.4107Z"
      fill="#1D1E1C"/>
    <path d="M15.8994 37.415H22.1809V38.8288H19.819V45.0764H18.2698V38.8288H15.8994V37.415Z" fill="#1D1E1C"/>
    <path d="M25.1104 37.415H23.5527V45.0764H25.1104V37.415Z" fill="#1D1E1C"/>
    <path
      d="M34.7189 41.2418C34.7257 42.8876 33.7391 44.3751 32.2202 45.0089C30.7013 45.6426 28.9501 45.2976 27.7851 44.1351C26.6201 42.9725 26.2714 41.222 26.902 39.7018C27.5327 38.1815 29.018 37.1918 30.6638 37.1953C31.7448 37.172 32.7885 37.5906 33.5538 38.3543C34.3191 39.118 34.7399 40.1608 34.7189 41.2418ZM33.1273 41.2418C33.0626 39.8928 31.9271 38.8455 30.5773 38.8897C29.2275 38.9339 28.163 40.0533 28.1866 41.4036C28.2103 42.754 29.3133 43.8354 30.6638 43.8323C31.3398 43.8332 31.9864 43.5563 32.4523 43.0665C32.9181 42.5766 33.1622 41.9169 33.1273 41.2418Z"
      fill="#1D1E1C"/>
    <path
      d="M36.209 37.415H38.1984L41.627 42.9008V37.415H43.1762V45.0764H41.1868L37.7667 39.5738V45.0764H36.209V37.415Z"
      fill="#1D1E1C"/>
    <path
      d="M47.265 37.415H49.2968L52.192 45.0341H50.4989L49.7708 43.0362H46.7486L45.9783 45.0764H44.3613L47.265 37.415ZM49.3645 41.7579L48.3148 38.8796L47.265 41.7579H49.3645Z"
      fill="#1D1E1C"/>
    <path d="M53.377 37.415H54.9346V43.6627H57.8383V45.0764H53.377V37.415Z" fill="#1D1E1C"/>
    <path
      d="M59.21 37.415H63.6713V38.7357H60.7592V40.5135H63.2396V41.8341H60.7592V43.7473H63.6713V45.0764H59.21V37.415Z"
      fill="#1D1E1C"/>
    <path
      d="M0.289062 48.4629H4.75044V49.7835H1.83827V51.5528H4.31869V52.8819H1.83827V54.7952H4.75044V56.1158H0.289062V48.4629Z"
      fill="#1D1E1C"/>
    <path d="M5.93555 48.4629H12.217V49.8682H9.85512V56.1158H8.29745V49.8682H5.93555V48.4629Z" fill="#1D1E1C"/>
    <path
      d="M16.4248 48.4544H19.4386C20.8501 48.3881 22.1838 49.1033 22.9094 50.3159C23.635 51.5285 23.635 53.0418 22.9094 54.2544C22.1838 55.4669 20.8501 56.1822 19.4386 56.1158H16.4248V48.4544ZM17.9825 49.8682V54.7021H19.4555C20.3531 54.7552 21.2063 54.3065 21.6711 53.5368C22.136 52.7671 22.136 51.8032 21.6711 51.0335C21.2063 50.2637 20.3531 49.8151 19.4555 49.8682H17.9825Z"
      fill="#1D1E1C"/>
    <path
      d="M25.0088 48.4629H29.4702V49.7835H26.558V51.5528H29.03V52.8819H26.558V54.7952H29.4702V56.1158H25.0088V48.4629Z"
      fill="#1D1E1C"/>
    <path d="M34.1172 48.4629H35.6749V54.702H38.587V56.1158H34.1172V48.4629Z" fill="#1D1E1C"/>
    <path
      d="M42.2191 48.4541H44.2847L47.1884 56.1155H45.4953L44.7673 54.1261H41.7451L41.0086 56.1155H39.3154L42.2191 48.4541ZM44.2847 52.797L43.235 49.9271L42.1853 52.797H44.2847Z"
      fill="#1D1E1C"/>
    <path
      d="M50.465 58.0202C50.2626 58.0447 50.0579 58.0447 49.8555 58.0202V56.6065C49.9849 56.6209 50.1155 56.6209 50.2449 56.6065C50.9391 56.6065 51.2946 56.3102 51.2946 55.5229V48.4541H52.8523V55.4805C52.8523 57.1737 52.065 58.0202 50.465 58.0202Z"
      fill="#1D1E1C"/>
    <path
      d="M54.9941 48.4629H59.4555V49.7835H56.5518V51.5528H59.0238V52.8819H56.5518V54.7952H59.4555V56.1158H54.9941V48.4629Z"
      fill="#1D1E1C"/>
    <path
      d="M65.7368 48.4541H67.2945V53.1186C67.3544 54.2658 66.7765 55.3524 65.7919 55.944C64.8072 56.5355 63.5765 56.5355 62.5918 55.944C61.6072 55.3524 61.0293 54.2658 61.0892 53.1186V48.4541H62.6469V53.2456C62.604 53.8249 62.8887 54.3795 63.3844 54.6822C63.8801 54.985 64.5036 54.985 64.9993 54.6822C65.495 54.3795 65.7797 53.8249 65.7368 53.2456V48.4541Z"
      fill="#1D1E1C"/>
    <path
      d="M69.2158 48.4629H71.2137L74.6338 53.9401V48.4629H76.1915V56.1158H74.2021L70.7735 50.6132V56.1158H69.2158V48.4629Z"
      fill="#1D1E1C"/>
    <path
      d="M78.334 48.4629H82.7954V49.7835H79.8917V51.5528H82.3636V52.8819H79.8917V54.7952H82.7954V56.1158H78.334V48.4629Z"
      fill="#1D1E1C"/>
    <path
      d="M85.038 54.0159C85.4287 54.5719 86.0526 54.9182 86.7312 54.9556C86.978 54.9956 87.23 54.9244 87.4194 54.7611C87.6089 54.5978 87.7164 54.3591 87.7132 54.109C87.7132 52.746 84.2084 53.0508 84.2084 50.5027C84.2252 49.8778 84.4972 49.287 84.961 48.868C85.4248 48.4489 86.0401 48.2381 86.6634 48.2847C87.7086 48.2764 88.699 48.7513 89.347 49.5714L88.2042 50.5873C87.8701 50.0487 87.303 49.6978 86.6719 49.6392C86.2235 49.6384 85.8522 49.9873 85.8253 50.4349C85.8253 51.8064 89.3216 51.4847 89.3216 54.0836C89.3123 54.7328 89.0334 55.3488 88.5516 55.784C88.0698 56.2192 87.4287 56.4343 86.7819 56.3778C85.6762 56.4338 84.6101 55.9589 83.9121 55.0995L85.038 54.0159Z"
      fill="#1D1E1C"/>
    <path
      d="M91.2861 54.0159C91.6767 54.5719 92.3007 54.9182 92.9792 54.9556C93.2261 54.9956 93.478 54.9244 93.6675 54.7611C93.8569 54.5978 93.9644 54.3591 93.9612 54.109C93.9612 52.746 90.4565 53.0508 90.4565 50.5027C90.4732 49.8778 90.7452 49.287 91.2091 48.868C91.6729 48.4489 92.2881 48.2381 92.9115 48.2847C93.9567 48.2764 94.9471 48.7513 95.5951 49.5714L94.4522 50.5873C94.1182 50.0487 93.551 49.6978 92.9199 49.6392C92.4715 49.6384 92.1003 49.9873 92.0734 50.4349C92.0734 51.8064 95.5697 51.4847 95.5697 54.0836C95.5604 54.7328 95.2814 55.3488 94.7996 55.784C94.3179 56.2192 93.6768 56.4343 93.03 56.3778C91.9243 56.4338 90.8581 55.9589 90.1602 55.0995L91.2861 54.0159Z"
      fill="#1D1E1C"/>
    <path
      d="M97.1777 48.4629H101.639V49.7835H98.7269V51.5528H101.199V52.8819H98.7269V54.7952H101.639V56.1158H97.1777V48.4629Z"
      fill="#1D1E1C"/>
    <path
      d="M25.2118 77.2876C25.415 77.2876 25.6012 77.44 25.5081 77.8463L24.5346 78.0664C24.7039 77.6177 24.9832 77.2876 25.2118 77.2876ZM25.7451 78.8453H25.5504C25.3781 79.1093 25.1064 79.2925 24.797 79.3532C24.5346 79.3532 24.3991 79.1924 24.3991 78.8453C24.3858 78.7017 24.3858 78.5571 24.3991 78.4135L25.9568 77.9056C26.2615 77.186 25.8975 76.8728 25.4658 76.8728C24.8139 76.8728 23.9674 78.1003 23.9674 79.1754C23.9674 79.658 24.2044 79.9289 24.56 79.9289C24.9155 79.9289 25.4065 79.514 25.779 78.8453H25.7451ZM25.4742 76.5849L26.5071 75.5606V75.4167H25.9145L25.2457 76.5595L25.4742 76.5849ZM22.088 77.3045H22.6044L21.7578 79.5479C21.7171 79.6284 21.7205 79.7242 21.7669 79.8015C21.8133 79.8789 21.8962 79.927 21.9864 79.9289C22.6481 79.8407 23.216 79.4139 23.4848 78.8029H23.3324C23.0756 79.0787 22.7474 79.278 22.3843 79.3786L23.1208 77.3045H23.8912L23.9843 76.9828H23.2393L23.5272 76.1786H23.2309L22.6975 76.9828L22.0626 77.0759L22.088 77.3045ZM21.4277 77.1945C21.4581 77.1273 21.4542 77.0496 21.4172 76.9858C21.3803 76.9219 21.3148 76.8799 21.2414 76.8728C20.6881 76.9419 20.222 77.3194 20.0393 77.8463H20.1917C20.3338 77.6171 20.5529 77.4461 20.8097 77.3638L19.9631 79.5987C19.9291 79.6667 19.9311 79.7471 19.9685 79.8133C20.0058 79.8795 20.0736 79.9228 20.1494 79.9289C20.6813 79.8453 21.1204 79.4684 21.2838 78.9553H21.0891C20.9466 79.1823 20.7273 79.3506 20.4711 79.4294L21.4277 77.1945ZM21.5801 76.077C21.7858 76.077 21.9526 75.9102 21.9526 75.7045C21.9526 75.4988 21.7858 75.332 21.5801 75.332C21.3743 75.332 21.2076 75.4988 21.2076 75.7045C21.2076 75.8033 21.2468 75.8981 21.3167 75.9679C21.3865 76.0378 21.4813 76.077 21.5801 76.077ZM16.6362 79.514C16.5261 79.7595 16.6362 79.9289 16.8901 79.9289C17.0232 79.9492 17.1478 79.8585 17.1695 79.7257L17.7621 78.1426C18.0422 77.812 18.413 77.5707 18.8287 77.4484C18.9896 77.4484 18.9727 77.5839 18.8287 77.7871L17.9145 79.5479C17.8682 79.6278 17.869 79.7265 17.9165 79.8057C17.964 79.8849 18.0508 79.932 18.143 79.9289C18.6949 79.8605 19.1588 79.4821 19.3367 78.9553H19.1928C19.0449 79.1809 18.8236 79.3484 18.5663 79.4294L19.3536 77.8463C19.4447 77.6765 19.4968 77.4885 19.506 77.2961C19.5162 77.1825 19.4761 77.0701 19.3963 76.9887C19.3164 76.9072 19.2049 76.8649 19.0912 76.8728C18.7018 76.8728 18.3123 77.313 17.8383 77.8463V77.4315C17.8383 77.1352 17.7451 76.8728 17.4742 76.8728C17.2033 76.8728 17.1441 77.0167 16.9917 77.2283V77.2791C17.288 77.2791 17.415 77.7024 17.2033 78.1257L16.6362 79.514ZM16.6362 77.5585C16.7377 77.1945 16.6362 76.8728 16.3991 76.8728C16.1621 76.8728 15.9843 77.1267 15.6457 77.8463V77.4315C15.6457 77.1352 15.5526 76.8728 15.2817 76.8728C15.0108 76.8728 14.6806 77.3638 14.4351 77.8463H14.5875C14.7399 77.6262 14.8753 77.4908 14.9938 77.4908C15.1123 77.4908 15.197 77.7024 14.9938 78.1595L14.3843 79.514C14.2742 79.7595 14.3843 79.9289 14.6383 79.9289C14.7713 79.9492 14.896 79.8585 14.9176 79.7257L15.5102 78.1426C15.6795 77.9394 15.8319 77.7617 16.0266 77.5585H16.6362ZM13.1822 77.2876C13.3938 77.2876 13.5716 77.44 13.4785 77.8463L12.5134 78.0664C12.6827 77.6177 12.9621 77.2876 13.1822 77.2876ZM13.7155 78.8453H13.5293C13.3536 79.1098 13.0791 79.2928 12.7674 79.3532C12.5049 79.3532 12.3695 79.1924 12.3695 78.8453C12.3562 78.7017 12.3562 78.5571 12.3695 78.4135L13.9272 77.9056C14.2319 77.186 13.8679 76.8728 13.4362 76.8728C12.6996 76.8728 11.87 78.1003 11.87 79.1754C11.87 79.658 12.0986 79.9289 12.4541 79.9289C12.8097 79.9289 13.3007 79.514 13.6732 78.8453H13.7155ZM9.99912 77.3045H10.5155L9.66896 79.5479C9.6282 79.6284 9.63163 79.7242 9.67804 79.8015C9.72445 79.8789 9.80734 79.927 9.89753 79.9289C10.5624 79.8434 11.134 79.4163 11.4044 78.8029H11.269C11.0094 79.0754 10.6823 79.274 10.3208 79.3786L11.0658 77.2707H11.8362L11.9377 76.949H11.1843L11.4721 76.1447H11.1758L10.6425 76.949L9.99912 77.1098V77.3045ZM7.16314 79.0484C7.16314 78.3627 7.93351 77.423 8.36525 77.423C8.4522 77.4094 8.54074 77.4094 8.62769 77.423L8.17901 78.6167C7.92504 78.9299 7.52716 79.3109 7.33245 79.3109C7.13774 79.3109 7.15467 79.2262 7.15467 79.0146L7.16314 79.0484ZM9.51658 76.7119H9.288L9.01711 76.9659H8.96631C7.67995 77.1158 6.67958 78.1552 6.57901 79.4463C6.56593 79.5719 6.60955 79.6967 6.69797 79.7867C6.7864 79.8768 6.9104 79.9227 7.03615 79.9119C7.36631 79.9119 7.69647 79.4379 8.06049 78.9299V79.1077C8.06049 79.6241 8.17054 79.9543 8.44144 79.9543C8.71234 79.9543 9.0425 79.4632 9.288 78.9807H9.14409C8.99171 79.2008 8.84779 79.3278 8.73774 79.3278C8.62769 79.3278 8.53457 79.1162 8.73774 78.659L9.51658 76.7119ZM6.79065 77.5585C6.9007 77.1945 6.84144 76.8728 6.56208 76.8728C6.28271 76.8728 6.18959 77.1098 5.8171 77.8463V77.4315C5.8171 77.1352 5.72398 76.8728 5.45308 76.8728C5.18218 76.8728 4.85203 77.3638 4.60652 77.8463H4.75044C4.90282 77.6262 5.04673 77.4908 5.15679 77.4908C5.26684 77.4908 5.36843 77.7024 5.15679 78.1595L4.54726 79.514C4.43721 79.7595 4.54726 79.9289 4.80123 79.9289C4.93431 79.9492 5.05893 79.8585 5.0806 79.7257L5.68165 78.1426C5.85097 77.9394 6.00335 77.7617 6.18959 77.5585H6.79065ZM2.49859 79.8103L2.55785 79.641C1.80441 79.4971 1.71128 79.4971 2.00758 78.6844L2.31234 77.8379H3.1589C3.52292 77.8379 3.53139 77.9902 3.47213 78.3966H3.64991L4.14091 77.0421H3.95467C3.76843 77.3638 3.62451 77.6008 3.21816 77.6008H2.3716L2.80335 76.4241C2.9388 76.0431 3.01499 75.967 3.52292 75.967H3.87848C4.40335 75.967 4.46261 76.1109 4.46261 76.6357H4.67425L4.84356 75.713H1.77901L1.71975 75.8908C2.32081 76.0093 2.38007 76.0685 2.1007 76.8389L1.42345 78.6844C1.11023 79.4548 1.02557 79.514 0.339856 79.6495L0.289062 79.8188L2.49859 79.8103Z"
      fill="#1D1E1C"/>
    <path
      d="M17.6944 70.2702C17.8975 70.2702 18.0838 70.4226 17.9822 70.8205L17.0171 71.049C17.1864 70.6004 17.4658 70.2702 17.6944 70.2702ZM18.2277 71.8279H18.0414C17.8691 72.0919 17.5974 72.2751 17.288 72.3358C17.0256 72.3358 16.8901 72.175 16.8901 71.8279C16.8908 71.683 16.905 71.5384 16.9325 71.3961L18.4901 70.8882C18.7949 70.1686 18.4224 69.8554 17.9991 69.8554C17.2626 69.8554 16.4245 71.0829 16.4245 72.158C16.4245 72.6406 16.6531 72.9115 17.0171 72.9115C17.3811 72.9115 17.8637 72.4967 18.2362 71.8279H18.2277ZM17.9229 69.5675L19.0235 68.5432V68.4247H18.4309L17.7536 69.5675H17.9229ZM14.5367 70.2871H15.0531L14.2065 72.522C14.1623 72.6019 14.1627 72.6989 14.2076 72.7783C14.2525 72.8578 14.3355 72.9082 14.4266 72.9115C15.0759 72.8227 15.6364 72.4119 15.9166 71.8194H15.7642C15.5074 72.0952 15.1792 72.2944 14.8161 72.3951L15.5695 70.2871H16.3399L16.433 69.9654H15.688L15.9758 69.1189H15.6795L15.1462 69.9654L14.5113 70.0586L14.5367 70.2871ZM13.834 70.1771C13.8642 70.1112 13.8613 70.0348 13.8263 69.9714C13.7912 69.908 13.7281 69.8649 13.6563 69.8554C13.1017 69.9152 12.6325 70.2919 12.4541 70.8205H12.5981C12.7484 70.5972 12.9688 70.4304 13.2245 70.3464L12.378 72.5813C12.3396 72.6474 12.3383 72.7288 12.3746 72.7961C12.4108 72.8634 12.4794 72.9071 12.5557 72.9115C13.0909 72.8308 13.5339 72.4534 13.6986 71.9379H13.5547C13.4084 72.165 13.1865 72.333 12.9282 72.412L13.834 70.1771ZM13.9949 69.0596C14.2006 69.0596 14.3674 68.8928 14.3674 68.6871C14.3674 68.4814 14.2006 68.3146 13.9949 68.3146C13.7892 68.3146 13.6224 68.4814 13.6224 68.6871C13.6224 68.8928 13.7892 69.0596 13.9949 69.0596ZM11.0065 72.4459L12.5727 68.34L12.5219 68.2808L11.5399 68.3908V68.5093L11.7346 68.6533C11.9039 68.7887 11.8531 68.9242 11.6922 69.339L10.4647 72.5559C10.4249 72.6375 10.4285 72.7336 10.4745 72.812C10.5205 72.8903 10.6026 72.9404 10.6933 72.9453C11.2311 72.8705 11.6768 72.4908 11.8362 71.9718H11.6838C11.5182 72.2019 11.2794 72.369 11.0065 72.4459ZM8.0605 72.031C8.0605 71.3369 8.8224 70.4056 9.26261 70.4056C9.34962 70.3928 9.43804 70.3928 9.52505 70.4056L9.07637 71.5993C8.81394 71.9125 8.41605 72.2935 8.22981 72.2935C8.04357 72.2935 8.0605 72.2088 8.0605 71.9972V72.031ZM10.4224 69.7199H10.1854L9.92293 69.9824H9.86367C8.57731 70.1322 7.57694 71.1716 7.47637 72.4628C7.46287 72.5899 7.50757 72.7164 7.59798 72.8068C7.68839 72.8972 7.81483 72.9419 7.94198 72.9284C8.27214 72.9284 8.59383 72.4543 8.95785 71.9464V72.1242C8.91552 72.6406 9.07637 72.9707 9.3388 72.9707C9.60124 72.9707 9.93986 72.4797 10.1854 71.9972H9.99912C9.84674 72.2173 9.71129 72.3443 9.59277 72.3443C9.47425 72.3443 9.3896 72.1326 9.59277 71.6755L10.4224 69.7199ZM4.70812 73.4533C4.70812 73.157 4.98748 72.9707 5.4023 72.8099C5.59863 72.8962 5.79925 72.9725 6.00335 73.0385C6.4351 73.1739 6.59595 73.2332 6.59595 73.3601C6.59595 73.6395 6.13034 73.8427 5.49542 73.8427C4.8605 73.8427 4.70812 73.7326 4.70812 73.4533ZM5.8679 71.6416C5.68166 71.6416 5.60547 71.4808 5.60547 71.303C5.60547 70.8035 5.87637 70.067 6.29965 70.067C6.48589 70.067 6.55362 70.2194 6.55362 70.4056C6.55362 70.9051 6.29118 71.6416 5.8679 71.6416ZM7.08695 73.1739C7.08695 72.8183 6.76526 72.6914 6.24039 72.5305C5.71552 72.3697 5.58854 72.3527 5.58854 72.2088C5.58854 72.0649 5.69013 71.9549 5.87637 71.8533C6.54203 71.802 7.06308 71.2591 7.08695 70.5919C7.09373 70.4877 7.07635 70.3834 7.03616 70.2871H7.66261L7.75574 69.9654H6.75679C6.63776 69.8907 6.49944 69.8524 6.35891 69.8554C5.67108 69.8634 5.10782 70.4044 5.07214 71.0914C5.05433 71.4563 5.31278 71.7766 5.6732 71.8363C5.30917 72.0056 5.106 72.1919 5.106 72.4205C5.10164 72.5414 5.15905 72.6562 5.25838 72.7252C4.41182 72.9707 4.08166 73.2501 4.08166 73.648C4.08166 74.0459 4.5896 74.1982 5.19912 74.1982C6.22346 74.1982 7.08695 73.6395 7.08695 73.1739ZM3.15891 70.7697C3.5314 70.7697 3.53986 70.922 3.4806 71.3284H3.69224L4.19171 69.9739H3.97161C3.78537 70.2956 3.64145 70.5326 3.24357 70.5326H2.39701L2.80335 69.4067C2.9388 69.0258 3.01499 68.958 3.52293 68.958H3.87849C4.40335 68.958 4.46261 69.0935 4.46261 69.6183H4.67425L4.84357 68.6956H1.77902L1.71976 68.8734C2.32081 68.9919 2.38007 69.0511 2.10071 69.8215L1.42346 71.667C1.11023 72.4374 1.02558 72.4966 0.339862 72.6236L0.263672 72.7929H3.73457L4.35256 71.8194H4.11552C3.70435 72.26 3.13477 72.5189 2.53245 72.539C1.61817 72.539 1.68589 72.539 2.00759 71.6924L2.33775 70.7951L3.15891 70.7697ZM3.64992 68.4247L4.75044 67.6713V67.5527H4.03933L3.43828 68.3993L3.64992 68.4247Z"
      fill="#1D1E1C"/>
    <path
      d="M17.33 63.2521C17.5332 63.2521 17.711 63.4045 17.6178 63.8024L16.6528 64.031C16.8221 63.5823 17.1014 63.2521 17.33 63.2521ZM17.8633 64.8013H17.6686C17.4987 65.0693 17.2264 65.2559 16.9152 65.3177C16.6443 65.3177 16.5088 65.1569 16.5088 64.8013C16.5085 64.6587 16.5255 64.5166 16.5596 64.3781L18.1173 63.8701C18.4136 63.1505 18.0496 62.8373 17.6263 62.8373C16.8898 62.8373 16.0517 64.0648 16.0517 65.14C16.0517 65.6225 16.2803 65.8849 16.6443 65.8849C17.0083 65.8849 17.4909 65.4786 17.8633 64.8013ZM17.5501 62.5495L18.6422 61.5251V61.4066H18.0411L17.3639 62.5495H17.5501ZM14.3332 63.2691H14.748L13.9014 65.504C13.8561 65.5826 13.8561 65.6794 13.9015 65.758C13.9469 65.8366 14.0308 65.885 14.1215 65.8849C14.7683 65.8012 15.3273 65.3923 15.603 64.8013H15.5014C15.245 65.0758 14.9164 65.2724 14.5533 65.3685L15.3067 63.2691H16.0771L16.1702 62.9474H15.4252L15.7131 62.1008H15.4168L14.8834 62.9474L14.3501 63.032L14.3332 63.2691ZM13.9268 63.5146C14.0369 63.1505 13.9776 62.8373 13.6983 62.8373C13.4189 62.8373 13.2834 63.0828 12.9448 63.8109V63.396C12.9448 63.0998 12.8517 62.8373 12.5808 62.8373C12.3099 62.8373 11.9797 63.3199 11.7342 63.8024H11.8782C12.0305 63.5823 12.1745 63.4553 12.2845 63.4553C12.3946 63.4553 12.4961 63.6669 12.2845 64.1241L11.6834 65.4701C11.5649 65.7241 11.6834 65.8849 11.9374 65.8849C12.0667 65.9013 12.1874 65.8172 12.2168 65.6902L12.8094 64.1072C12.9787 63.904 13.1311 63.7177 13.3173 63.5146H13.9268ZM10.4813 63.2521C10.693 63.2521 10.8707 63.4045 10.7776 63.8024L9.81255 64.031C9.9734 63.5823 10.2612 63.2521 10.4813 63.2521ZM11.0147 64.8013H10.8284C10.6558 65.0705 10.3805 65.2571 10.0665 65.3177C9.80408 65.3177 9.66863 65.1569 9.66863 64.8013C9.6697 64.6592 9.68387 64.5175 9.71096 64.3781L11.2686 63.8701C11.5734 63.1505 11.2094 62.8373 10.7776 62.8373C10.0411 62.8373 9.21149 64.0648 9.21149 65.14C9.21149 65.6225 9.44006 65.8849 9.79562 65.8849C10.1512 65.8849 10.6422 65.4786 11.0147 64.8013ZM7.20514 65.4363C7.05276 65.4363 6.83265 65.2923 6.83265 65.1654C6.87391 65.0183 6.92482 64.874 6.98504 64.7336L7.239 64.0648C7.5099 63.7516 7.91625 63.4045 8.14482 63.4045C8.3734 63.4045 8.39033 63.4976 8.39033 63.7008C8.39033 64.3188 7.82313 65.3939 7.20514 65.3939V65.4363ZM8.97445 63.413C8.97445 62.9558 8.80514 62.795 8.49191 62.795C8.17869 62.795 7.72154 63.2098 7.35752 63.7093L8.28874 61.2458L8.23795 61.1865L7.25594 61.2966V61.4151L7.45064 61.559C7.61996 61.6945 7.56916 61.8384 7.40832 62.2363L6.40091 64.886C6.33128 65.0411 6.27739 65.2027 6.24006 65.3685C6.24006 65.631 6.60408 65.8849 6.93424 65.8849C7.69615 65.8849 8.97445 64.5135 8.97445 63.4553V63.413ZM5.91837 63.159C5.97763 62.9474 5.84218 62.8373 5.73213 62.8373C5.18074 62.9003 4.7155 63.2764 4.53848 63.8024H4.68239C4.83753 63.5693 5.07228 63.4008 5.34271 63.3283L4.49615 65.5632C4.4613 65.6301 4.46307 65.7101 4.50083 65.7753C4.53859 65.8405 4.60709 65.8819 4.68239 65.8849C5.19526 65.7867 5.61384 65.4167 5.77445 64.9199H5.62207C5.47688 65.1444 5.25857 65.3119 5.00408 65.3939L5.91837 63.159ZM6.07075 62.0331C6.27321 62.0331 6.43864 61.8715 6.44324 61.6691C6.44324 61.4633 6.27647 61.2966 6.07075 61.2966C5.86834 61.3012 5.70668 61.4666 5.70673 61.6691C5.70673 61.8701 5.86971 62.0331 6.07075 62.0331ZM3.81043 61.6775H1.77022L1.71096 61.8468C2.31202 61.9738 2.37128 62.0331 2.08345 62.8035L1.42313 64.649C1.14377 65.4193 1.02525 65.4955 0.339533 65.6056L0.280273 65.7749H3.39562L4.07287 64.5728H3.83583C3.49119 65.0967 2.93427 65.4432 2.31202 65.5209C1.78715 65.5209 1.72789 65.4363 2.00726 64.6744L2.66758 62.8288C2.94694 62.0585 3.07392 61.9823 3.75964 61.8722L3.81043 61.6775Z"
      fill="#1D1E1C"/>
    <path
      d="M11.8277 9.03832C11.9377 8.93673 12.0478 8.81821 12.1579 8.6997C12.355 8.46593 12.5701 8.24798 12.8012 8.04784C12.8672 7.98584 12.9379 7.92922 13.0129 7.87853C13.0129 7.87853 13.0129 7.81927 13.0129 7.80234C13.0129 7.78541 12.8605 7.9124 12.7674 7.95472C12.6743 7.99705 12.7251 7.95472 12.7674 7.9124L12.9621 7.76001C12.7081 7.76001 12.5219 7.89546 12.3441 8.04784C12.3441 8.04784 12.2679 8.04784 12.251 8.04784C11.9631 8.14943 11.7515 8.39493 11.4637 8.51345V8.41187C11.351 8.46432 11.235 8.50956 11.1166 8.54732C10.9564 8.56796 10.7942 8.56796 10.634 8.54732C10.4001 8.57033 10.1682 8.60993 9.93987 8.66583C9.8159 8.69906 9.69648 8.74739 9.58431 8.80975C9.54827 8.85312 9.50538 8.8903 9.45732 8.9198C9.341 8.99225 9.2331 9.07743 9.13563 9.17377L8.72928 9.55472H8.65309L8.70389 9.47853L8.76315 9.38541C8.78866 9.34672 8.81695 9.30994 8.8478 9.27536C8.94722 9.18626 9.05494 9.10688 9.16949 9.03832C9.16706 9.02148 9.16706 9.00437 9.16949 8.98753L9.07637 9.05525C9.03404 9.05525 8.99172 9.18224 8.92399 9.17377V9.13144V9.08911C8.96118 9.04359 9.00727 9.00614 9.05944 8.97906C9.13563 8.97906 9.20336 8.89441 9.27955 8.85208C9.17022 8.88565 9.06724 8.93714 8.97478 9.00446C8.95907 9.01353 8.93971 9.01353 8.92399 9.00446C8.92399 9.00446 9.00018 8.9452 9.03404 8.91134C9.03404 8.91134 9.06791 8.87747 9.03404 8.91134C9.65203 8.4288 10.4901 8.54732 11.2012 8.29335L11.379 8.18329C11.4721 8.14097 11.5483 8.04784 11.6669 7.98859C11.8236 7.8854 11.9379 7.72908 11.9885 7.54837C11.9915 7.53442 11.9915 7.52 11.9885 7.50605C11.7497 7.77 11.4623 7.98555 11.142 8.14097C10.739 8.29441 10.3118 8.37468 9.88061 8.378C9.88061 8.378 9.9314 8.378 9.97373 8.378C10.0161 8.378 9.97373 8.30181 10.0499 8.25949H10.1092C10.1092 8.25949 10.2108 8.25949 10.1854 8.25949C10.16 8.25949 10.0161 8.31028 9.92293 8.25949C9.92293 8.25949 9.92293 8.1579 9.97373 8.14097H10.0584C10.0523 8.11594 10.0523 8.08981 10.0584 8.06478C10.3462 7.89546 10.6171 7.76001 10.9049 7.59917C10.8457 7.59917 10.8034 7.65843 10.7441 7.59917C10.6848 7.53991 10.7441 7.53991 10.7864 7.53991C10.9981 7.48065 11.1674 7.36213 11.379 7.28594C11.3028 7.28594 11.2436 7.3452 11.1674 7.28594C11.0912 7.22668 11.2266 7.23515 11.2859 7.23515V6.84573C11.2859 6.84573 11.3621 6.84573 11.4044 6.78647C11.4467 6.72721 11.3452 6.78647 11.3452 6.78647C11.4117 6.72097 11.498 6.6793 11.5907 6.66795H11.5145C11.5145 6.66795 11.5145 6.66795 11.5568 6.66795H11.5145C11.5145 6.66795 11.5145 6.60869 11.5145 6.59176C11.6028 6.45011 11.6605 6.29149 11.6838 6.12615C11.4606 6.31881 11.1878 6.44493 10.8965 6.49017H10.8457C10.7443 6.54012 10.6254 6.54012 10.524 6.49017C10.4478 6.44784 10.4055 6.38859 10.3293 6.33779C10.1801 6.23703 10.0177 6.15728 9.84674 6.10075C9.37157 5.94598 8.87325 5.87438 8.37373 5.88911C8.59005 5.80537 8.81404 5.74299 9.04251 5.70287C9.35561 5.5799 9.68819 5.51396 10.0245 5.50816C9.95989 5.49974 9.89444 5.49974 9.82981 5.50816C9.54356 5.50911 9.25876 5.54899 8.98325 5.62668C8.78854 5.62668 8.61076 5.73673 8.42452 5.77906C8.23828 5.82139 8.24674 5.93144 8.11129 5.91451V5.66901C8.27847 5.39463 8.55642 5.20625 8.8732 5.15261C9.2099 5.10152 9.55237 5.10152 9.88907 5.15261C10.1344 5.17775 10.3777 5.22018 10.6171 5.27959C10.7187 5.27959 10.7356 5.44044 10.8118 5.45737C10.888 5.4743 11.0404 5.45737 11.1589 5.53356C11.2774 5.60975 11.1589 5.45737 11.1589 5.41504C11.1589 5.37271 11.3282 5.41504 11.4044 5.41504C11.4806 5.41504 11.269 5.14414 11.1928 5.00869C11.1166 4.87324 11.1928 5.00869 11.1928 5.00869C11.3252 5.15788 11.4793 5.2863 11.6499 5.38964C11.743 5.43197 11.9801 5.49123 11.9377 5.38964C11.8143 5.18102 11.6665 4.98778 11.4975 4.81398V4.74626C11.4552 4.74626 11.4552 4.74626 11.4383 4.74626V4.62774C11.3621 4.62774 11.379 4.51769 11.3452 4.45843C11.3113 4.39917 11.3452 4.22139 11.2859 4.11134C11.2685 4.0022 11.2628 3.89152 11.269 3.78118C11.2097 3.45949 11.1335 3.17165 11.0912 2.85843C11.1196 2.50202 11.2554 2.1626 11.4806 1.88488C11.6029 1.63687 11.7865 1.42417 12.0139 1.26689C12.0923 1.03652 12.2193 0.825742 12.3864 0.648904C12.5485 0.481755 12.7449 0.351778 12.9621 0.267951C13.1277 0.193823 13.2973 0.128822 13.47 0.0732422H0.263672V10.232H9.57584C9.97152 9.98475 10.3879 9.77231 10.8203 9.59705C11.1693 9.44825 11.499 9.25781 11.8023 9.02985L11.8277 9.03832ZM8.8732 7.69229C8.83087 7.69229 8.75468 7.69229 8.77161 7.69229C8.78854 7.69229 8.92399 7.5907 9.00865 7.55684C9.0933 7.52298 9.10177 7.49758 9.13563 7.55684C9.16949 7.6161 9.23722 7.55684 9.27108 7.63303C9.16103 7.75155 9.00865 7.69229 8.8732 7.75155V7.69229ZM5.92717 7.32827C5.92264 7.31452 5.92264 7.29969 5.92717 7.28594C6.16256 6.9543 6.36393 6.59977 6.52822 6.22774C6.77317 6.08329 6.99327 5.90035 7.18008 5.68594C7.48377 5.34048 7.84815 5.05356 8.25521 4.83938C8.41718 4.78455 8.5927 4.78455 8.75468 4.83938C8.69542 4.92404 8.6023 4.89864 8.52611 4.9579C8.5074 4.967 8.48555 4.967 8.46685 4.9579C8.47399 4.93879 8.47399 4.91775 8.46685 4.89864C8.28061 5.11028 8.00971 5.2034 7.85733 5.45737C7.70494 5.71134 7.66262 5.89758 7.40865 5.95684C7.33246 5.95684 7.40865 5.89758 7.40865 5.95684C6.85431 6.31069 6.35513 6.74427 5.92717 7.24361V7.32827ZM7.52717 5.99917C7.52717 5.99917 7.48484 5.99917 7.46791 6.07536C7.45414 6.1102 7.42656 6.13778 7.39172 6.15155H7.34939C7.36795 6.06991 7.42966 6.00496 7.51023 5.98224L7.52717 5.99917ZM8.39912 8.86054C8.39001 8.88343 8.37549 8.90376 8.3568 8.9198C8.31369 8.96397 8.26177 8.99858 8.20441 9.02139L8.12822 9.08911C8.12822 9.08911 8.00124 9.08911 8.0351 9.08911L8.17902 8.95366L8.25521 8.87747V8.83515C8.25521 8.83515 8.37373 8.83515 8.3568 8.83515L8.39912 8.86054ZM8.00971 8.6743L7.88272 8.84361L7.62875 8.9706C7.55674 9.01159 7.49114 9.06293 7.43404 9.12298H7.39172H7.34939L7.03616 9.31769C6.99519 9.35298 6.95828 9.39273 6.92611 9.4362L6.90071 9.38541L7.03616 9.1907C7.03616 9.1907 7.03616 9.1907 7.03616 9.14837C7.03616 9.14837 7.03616 9.14837 7.03616 9.10605C7.05595 9.06832 7.08168 9.03402 7.11235 9.00446L7.03616 9.06372C6.9769 9.06372 7.03616 9.06372 7.03616 9.06372L7.08695 9.02139C7.11586 8.98563 7.14696 8.9517 7.18008 8.9198L7.23934 8.87747V8.82668C7.41711 8.6489 7.73034 8.65737 7.97584 8.54732C8.06896 8.54732 8.18748 8.54732 8.28061 8.54732C8.33591 8.53132 8.39461 8.53132 8.44992 8.54732C8.28061 8.64044 8.11976 8.75049 7.95891 8.84361L8.00971 8.6743ZM8.3568 7.51451C8.3568 7.51451 8.41605 7.51451 8.43299 7.51451H8.39066L8.07743 7.5907C7.94198 7.5907 7.83193 7.72615 7.67955 7.76001C7.52717 7.79388 7.2732 7.77695 7.03616 7.8616C7.03616 7.8616 7.12928 7.78541 7.17161 7.72615C7.17161 7.72615 7.21394 7.66689 7.17161 7.72615C7.33928 7.53998 7.52662 7.37252 7.73034 7.22668V7.09123C7.75574 7.01504 7.88272 6.97271 7.88272 6.84573C7.92094 6.7626 7.99117 6.69847 8.07743 6.66795C8.07743 6.66795 8.01817 6.66795 8.01817 6.61716C8.01817 6.56636 7.86579 6.61716 7.7896 6.61716C7.8171 6.59232 7.84858 6.57229 7.88272 6.5579C7.88272 6.5579 7.88272 6.47324 7.97584 6.46478C8.05606 6.45361 8.13354 6.42779 8.20441 6.38859C8.06896 6.38859 7.91658 6.38859 7.78113 6.38859C7.86328 6.14252 8.03574 5.93679 8.26367 5.81292H8.32293C8.32032 5.90531 8.25311 5.98313 8.16209 5.99917C8.31863 6.01565 8.47233 6.05265 8.61923 6.10922C8.61923 6.10922 8.55997 6.10922 8.54304 6.10922C8.52611 6.10922 8.75468 6.10922 8.8478 6.20234C8.79701 6.2616 8.73775 6.20234 8.67849 6.20234C9.29442 6.30771 9.88562 6.52582 10.4224 6.84573C10.0009 7.03571 9.5572 7.17222 9.10177 7.25208C9.04886 7.26436 8.99383 7.26436 8.94092 7.25208V7.31134C8.88079 7.28933 8.81481 7.28933 8.75468 7.31134C8.67527 7.35348 8.58012 7.35348 8.50071 7.31134"
      fill="#000091"/>
    <path
      d="M28.2003 0.0732422H17.2881C17.2881 0.0732422 17.2881 0.0732422 17.3897 0.124036L17.669 0.267951C17.8182 0.33445 17.9468 0.439683 18.0415 0.572713C18.0839 0.631972 18.1431 0.750491 18.1008 0.826681C18.0585 0.902872 18.0415 1.07218 17.9484 1.11451C17.8163 1.15723 17.6741 1.15723 17.5421 1.11451C17.4661 1.1227 17.3895 1.1227 17.3135 1.11451C17.6113 1.20605 17.8741 1.38619 18.0669 1.63091C18.0669 1.63091 18.16 1.69017 18.2362 1.69017C18.3124 1.69017 18.2362 1.69017 18.2362 1.74943C18.2362 1.80869 18.16 1.80869 18.1854 1.85949H18.2362C18.3378 1.85949 18.3124 1.63091 18.4479 1.69017C18.5472 1.74905 18.5842 1.87471 18.5325 1.978L18.2955 2.17271C18.2785 2.21626 18.2785 2.26461 18.2955 2.30816C18.3433 2.37738 18.3777 2.4549 18.3971 2.53673C18.4479 2.67218 18.4733 2.82456 18.5325 2.96001C18.6225 3.23298 18.6654 3.51924 18.6595 3.80658C18.6595 3.95896 18.5833 4.09441 18.6595 4.24679C18.713 4.39047 18.7841 4.52696 18.8712 4.65314C18.9474 4.75068 19.018 4.85242 19.0828 4.9579C19.2013 5.15261 19.413 5.34732 19.3114 5.57589C19.2098 5.80446 19.0489 5.68594 18.9135 5.7706C18.778 5.85525 18.9135 6.0161 18.9135 6.10922C18.9135 6.20234 18.8034 6.39705 18.668 6.45631C18.668 6.51557 18.778 6.49864 18.8034 6.5325C18.8288 6.56636 18.9135 6.68488 18.8542 6.78647C18.795 6.88806 18.5495 6.95578 18.668 7.13356C18.7307 7.26768 18.7307 7.42272 18.668 7.55684C18.6082 7.70519 18.4777 7.81341 18.3209 7.84467C18.201 7.87107 18.0768 7.87107 17.9569 7.84467C17.9234 7.82333 17.886 7.80894 17.8468 7.80234C17.5216 7.74912 17.1938 7.71239 16.8648 7.69229C16.7716 7.7103 16.6808 7.73869 16.5939 7.77695C16.5101 7.83553 16.4334 7.90372 16.3653 7.98012V8.03091C16.3088 8.10308 16.2578 8.1795 16.213 8.25949C16.1528 8.36975 16.1046 8.4861 16.069 8.60658C15.9418 8.89806 15.9418 9.22937 16.069 9.52086C16.069 9.52086 16.704 9.7325 17.1272 9.91875L17.5844 10.1473H28.2003V0.0732422Z"
      fill="#E1000F"/>
    <path
      d="M17.94 3.78141C18.0162 3.78141 18.1347 3.78141 18.1347 3.84067C18.1347 3.89993 17.8638 4.03538 17.7453 4.18776H17.6945C17.6352 4.18776 17.6521 4.32321 17.5929 4.32321C17.5384 4.30236 17.4781 4.30236 17.4236 4.32321C17.4946 4.40708 17.6019 4.45127 17.7114 4.44172C17.7451 4.45227 17.7687 4.48264 17.7707 4.51792H17.813V4.59411C17.7537 4.6703 17.6606 4.59411 17.5759 4.65336C17.7236 4.68739 17.877 4.68739 18.0246 4.65336C18.1347 4.65336 18.0246 4.41633 18.1008 4.32321C18.177 4.23008 18.1008 4.26395 18.0585 4.26395C18.0162 4.26395 18.1347 4.17083 18.177 4.15389C18.2227 4.15015 18.2651 4.12892 18.2955 4.09463C18.2955 4.09463 18.2109 4.03538 18.2363 3.99305C18.2617 3.95072 18.4479 3.8068 18.4056 3.68829C18.3633 3.56977 18.2363 3.62903 18.1347 3.59516C18.0294 3.56594 17.9182 3.56594 17.813 3.59516C17.7149 3.61156 17.6185 3.63707 17.5252 3.67135C17.3946 3.7174 17.2719 3.78305 17.1611 3.86606C17.296 3.81542 17.4347 3.77578 17.5759 3.74754C17.6856 3.73488 17.7964 3.73488 17.9061 3.74754"
      fill="#9C9C9A"/>
  </g>
  <defs>
    <clipPath id="clip0_5247_4398">
      <rect width="101.587" height="80" fill="white" transform="translate(0.263672 0.0732422)"/>
    </clipPath>
  </defs>
</svg>
