<svg width="182" height="50" viewBox="0 0 182 50" fill="none" xmlns="http://www.w3.org/2000/svg">
  <g clip-path="url(#clip0_4178_8673)">
    <path d="M21.3953 17.8136C21.3953 17.8136 21.3928 17.8036 21.3903 17.7961C20.232 13.8503 17.5325 11.4748 12.8942 10.3196C12.8891 10.3196 12.8841 10.3196 12.8816 10.3171C11.7683 10.057 9.75937 9.79199 7.78293 9.79199C4.438 9.79199 2.12881 10.4921 0.920434 11.8699C0.182397 12.7126 -0.120323 13.8028 0.042295 15.0305C0.992987 23.2122 2.44905 31.3163 4.37545 39.1204C4.56559 39.918 4.8608 40.7482 5.72643 41.3708C6.34438 41.8384 7.10494 42.106 7.81545 42.106C8.0181 42.106 8.21324 42.0835 8.40088 42.0409C9.41912 41.8634 10.3998 41.2183 10.9652 40.3506C11.4456 39.6155 11.5957 38.7678 11.3881 37.9601C11.0653 36.6149 10.7301 35.1996 10.4123 33.7793C12.6315 33.1292 14.6454 32.0915 16.4092 30.6862C20.5973 27.373 22.6037 22.1995 21.3978 17.8111H21.3953V17.8136ZM12.654 24.5274C12.654 24.5274 12.6465 24.5349 12.644 24.5374C11.6908 25.4751 10.4499 26.2378 9.01883 26.7779C8.33583 23.0646 7.82546 19.8865 7.43518 16.9384C7.71538 16.9259 8.00309 16.9209 8.2883 16.9209C9.19396 16.9209 10.5199 16.9809 11.6958 17.271C13.1293 17.6111 14.015 18.3762 14.3327 19.5489C14.7555 21.1068 14.05 23.2022 12.6565 24.5299H12.654V24.5274Z" fill="url(#paint0_linear_4178_8673)"/>
    <path d="M32.1883 22.6369C31.5553 21.9867 30.5921 21.6592 29.3237 21.6592C28.1003 21.6592 27.1696 21.9817 26.5617 22.6169C25.686 23.5321 25.7436 24.7998 25.7761 25.4799C25.9412 29.1032 25.8987 32.0738 25.7761 35.692C25.7761 35.8095 25.7661 35.9195 25.7586 36.0271C25.721 36.6047 25.671 37.3973 26.2639 38.03C26.7718 38.5726 27.5749 38.8126 28.8633 38.8126C31.0049 38.8126 31.2976 37.0323 31.4702 35.967L31.4852 35.877C31.5953 35.2094 31.7129 34.5318 31.8305 33.8466C32.3484 30.8385 32.8838 27.7304 32.9788 24.8998C33.0038 23.9596 32.7361 23.1995 32.1857 22.6344L32.1883 22.6369Z" fill="url(#paint1_linear_4178_8673)"/>
    <path d="M136.855 27.1927C136.289 26.5176 135.384 26.1375 134.163 26.0575C134.01 26.0475 133.86 26.0425 133.718 26.0425C131.621 26.0425 130.375 27.1377 130.3 29.0481C130.21 31.8861 130.543 35.0243 130.863 38.0574C130.936 38.75 131.008 39.4352 131.076 40.1078L131.086 40.1978C131.191 41.2705 131.366 43.0659 133.502 43.2059C133.698 43.2184 133.885 43.2259 134.058 43.2259C136.78 43.2259 136.782 41.4706 136.782 40.6279C136.782 40.5204 136.782 40.4104 136.787 40.3003C136.902 36.6721 137.053 33.7065 137.453 30.1008C137.528 29.4232 137.668 28.1629 136.855 27.1927Z" fill="url(#paint2_linear_4178_8673)"/>
    <path d="M61.5396 43.6712C60.2437 43.4961 59.5932 43.3161 59.278 43.1986C59.2655 43.1936 59.2555 43.1911 59.243 43.1861C53.8015 41.3657 49.0856 37.8325 48.5302 37.2599C48.5101 37.2249 48.4926 37.1949 48.4776 37.1699C48.5602 37.0473 48.6277 36.9323 48.6853 36.8198L48.7328 36.7273L48.8179 36.5572C48.8404 36.5247 48.9204 36.4022 49.1781 36.0571C49.4283 35.7221 49.7936 35.2495 50.2589 34.6544C51.0645 33.6767 51.9376 32.5564 52.8558 31.3237C53.9691 29.8309 54.4219 29.2658 54.6071 29.0582C54.6121 29.0532 54.6171 29.0482 54.6196 29.0432C55.1575 28.4081 55.4852 27.7355 55.5878 27.0453C55.7004 26.2927 55.5728 25.6276 55.21 25.0649C54.9023 24.5924 54.502 24.1973 54.0191 23.8922C53.4963 23.5621 52.9058 23.3946 52.2679 23.3946C51.6299 23.3946 50.9995 23.5922 50.4791 23.9797C50.1789 24.2048 49.666 24.7049 48.3425 26.5928C47.3868 27.943 46.4161 29.2358 45.4629 30.431C45.1627 30.8061 44.925 31.0962 44.7399 31.3162C44.6123 31.0812 44.4547 30.7836 44.2595 30.4085C43.579 29.0958 42.9986 27.8655 42.5358 26.7528C42.5358 26.7478 42.5358 26.7453 42.5308 26.7403C42.208 25.9951 41.8478 25.2875 41.455 24.6349C40.9671 23.8197 40.5919 23.3821 40.2041 23.1721C40.1941 23.1671 40.1816 23.1596 40.1716 23.1546C39.7988 22.9695 39.411 22.8745 39.0182 22.8745C38.8956 22.8745 38.7705 22.8845 38.6455 22.902C38.0575 22.992 37.5822 23.2796 37.272 23.7347C36.8091 24.3848 36.6815 25.3625 36.8717 26.8103C37.0343 28.048 37.392 29.3758 37.9324 30.7611C38.2777 31.6638 38.6905 32.639 39.1558 33.6567C39.6062 34.6419 39.9514 35.4045 40.1791 35.9271C40.2741 36.1447 40.3367 36.2997 40.3767 36.4047C40.3167 36.4772 40.2266 36.5798 40.094 36.7148C39.7112 37.1074 39.1959 37.5524 38.5704 38.035C37.9324 38.5251 34.9077 41.9333 34.4299 42.611C33.872 43.3961 33.5217 44.0562 33.3566 44.6264C33.0539 45.6716 33.2841 46.6918 34.0221 47.577C34.8352 48.5521 35.7308 48.7547 36.3413 48.7547C36.4739 48.7547 36.609 48.7447 36.7441 48.7272C36.7691 48.7247 36.7916 48.7197 36.8166 48.7147C37.2494 48.6222 37.6998 48.3746 38.1951 47.9595C38.4578 47.737 39.4035 46.7243 41.425 44.5313C41.9228 43.9912 42.3557 43.5236 42.5983 43.2636C43.4139 42.4134 43.9143 41.9233 44.217 41.6383C43.7141 42.1084 53.2086 47.8595 54.1242 48.2396C56.8512 49.3723 64.4517 52.2229 64.4517 46.7768C64.4517 45.0364 63.3935 43.9037 61.5446 43.6687H61.5396V43.6712Z" fill="url(#paint3_linear_4178_8673)"/>
    <path d="M104.349 30.7364C104.158 28.8485 103.851 27.1406 103.405 25.5253C103.078 24.2176 101.817 23.2349 100.461 23.2349C100.171 23.2349 99.8853 23.2799 99.6126 23.3674C99.6076 23.3674 99.6026 23.3699 99.5976 23.3724C98.004 23.9175 97.1158 25.4803 97.4861 27.0881C97.4886 27.1006 97.4911 27.1106 97.4936 27.1231C98.2942 30.1037 98.5744 32.6718 98.3517 34.9747C98.014 38.1879 96.628 38.1879 96.1726 38.1879C94.604 38.1879 94.0411 36.0949 93.9435 35.6749C93.941 35.6598 93.936 35.6423 93.931 35.6273C93.3881 33.7195 93.886 28.6985 94.0711 26.8081L94.0786 26.7331V26.7131C94.1386 25.9679 93.8509 25.1903 93.2905 24.5851C92.7051 23.9525 91.887 23.5749 91.1039 23.5749C91.0639 23.5749 91.0239 23.5749 90.9838 23.5774C89.3251 23.6224 88.1418 24.7802 87.9692 26.528C87.8165 27.8233 87.719 29.1836 87.6489 30.9414C87.4713 35.3398 87.8316 40.7209 92.2323 43.3089C93.3731 43.9915 94.7066 44.3541 96.0826 44.3541C97.9864 44.3541 99.8378 43.6765 101.299 42.4487C103.203 40.9209 104.286 38.4254 104.521 35.0347C104.644 33.5819 104.486 32.0716 104.346 30.7364H104.349Z" fill="url(#paint4_linear_4178_8673)"/>
    <path d="M126.645 33.1068C126.63 31.5015 126.615 29.8412 126.542 28.1983C126.437 25.2653 125.859 22.7998 124.774 20.6668C124.206 19.5541 123.423 18.5914 122.442 17.8063C122.437 17.8013 122.432 17.7988 122.427 17.7938C121.761 17.2812 120.998 16.9836 120.483 16.8061C119.963 16.631 119.412 16.541 118.834 16.541C118.549 16.541 118.246 16.5635 117.939 16.606C116.417 16.7786 115.059 17.4937 113.903 18.734C113.833 18.8065 113.766 18.879 113.698 18.9515C113.185 18.0438 112.259 17.4537 111.189 17.4537C111.126 17.4537 111.064 17.4537 110.999 17.4587C109.392 17.5412 108.159 18.9665 108.191 20.7068C108.214 21.562 108.214 22.4072 108.214 23.2224V23.3024C108.191 26.9356 108.169 30.6938 108.169 34.3896C108.141 35.9799 109.27 37.3227 110.793 37.5202C110.926 37.5352 111.049 37.5427 111.169 37.5427C112.645 37.5427 113.891 36.48 114.131 35.0172C114.213 34.4871 114.291 33.922 114.373 33.3269C114.874 29.6836 115.562 24.6951 118.166 22.9673C118.384 22.8248 118.587 22.7423 118.727 22.7423C118.774 22.7423 118.919 22.7423 119.154 23.0248C119.179 23.0573 119.209 23.0873 119.24 23.1148C119.345 23.2149 119.38 23.2724 119.392 23.2949C119.41 23.3324 119.432 23.3674 119.455 23.3999C119.925 24.1025 120.233 25.0027 120.395 26.1504C120.395 26.1629 120.398 26.1729 120.4 26.1854C120.583 27.2157 120.698 28.3309 120.746 29.4961C120.808 30.8914 120.816 32.4067 120.768 34.002C120.676 35.8574 121.866 37.3377 123.545 37.4477C123.608 37.4527 123.673 37.4552 123.738 37.4552C125.374 37.4552 126.655 36.0799 126.655 34.3221C126.65 33.9095 126.647 33.5069 126.642 33.1043L126.645 33.1068Z" fill="url(#paint5_linear_4178_8673)"/>
    <path d="M158.425 25.9052C157.562 23.6672 155.889 21.7393 153.837 20.6141C152.686 19.974 151.51 19.6489 150.347 19.6489C145.856 19.6489 142.496 24.4649 141.618 28.9958C141.185 31.0737 141.383 33.3167 142.179 35.3046C143.012 37.385 144.453 39.0328 146.234 39.943C147.365 40.5156 148.566 40.8032 149.809 40.8032C152.481 40.8032 155.136 39.4179 156.914 37.0999C159.231 34.0168 159.836 29.5184 158.425 25.9027V25.9052ZM152.604 33.0916C151.948 34.0343 150.955 34.5969 149.942 34.5969C149.406 34.5969 148.636 34.4319 147.998 33.6517C147.993 33.6467 147.988 33.6392 147.983 33.6342C147.225 32.7565 146.95 31.5588 147.207 30.2585C147.483 28.8008 148.153 27.523 149.149 26.5553C149.156 26.5503 149.161 26.5428 149.169 26.5353C149.612 26.0727 150.084 25.8377 150.57 25.8377C151.103 25.8377 151.668 26.1227 152.166 26.6428C153.002 27.513 153.484 28.8458 153.432 30.121C153.389 31.4363 153.132 32.374 152.616 33.0766C152.614 33.0816 152.609 33.0866 152.606 33.0916H152.604Z" fill="url(#paint6_linear_4178_8673)"/>
    <path d="M180.974 32.454C180.711 32.2815 180.354 32.0665 179.941 31.8139C178.41 30.8862 175.738 29.2709 174.109 27.5081C174.587 27.188 175.017 26.8454 175.393 26.4879C175.398 26.4829 175.403 26.4779 175.41 26.4729C176.293 25.5852 176.891 24.595 177.186 23.5273C177.497 22.407 177.427 21.2943 176.979 20.2141C176.596 19.2689 175.953 18.4387 175.07 17.7511C174.214 17.086 173.193 16.6059 172.033 16.3258C171.207 16.1308 170.351 16.0308 169.478 16.0308C167.84 16.0308 166.091 16.3783 164.279 17.0635C163.459 17.3735 162.921 18.0212 162.756 18.8913C162.728 18.9989 162.711 19.1089 162.706 19.2189C162.521 20.5467 162.506 22.1045 162.661 23.8548C162.743 25.0001 162.946 26.5554 163.266 28.4757C163.291 28.6683 163.326 28.9158 163.371 29.2134C163.371 29.2209 163.371 29.2259 163.374 29.2334C163.641 30.7762 163.824 31.9239 163.917 32.6441C164.054 33.7993 164.132 34.8145 164.144 35.6547C164.154 36.3073 164.415 36.8974 164.895 37.36C165.363 37.8126 165.953 38.0527 166.596 38.0527H166.639C167.309 38.0402 167.902 37.7776 168.357 37.2875C168.803 36.8099 169.033 36.2148 169.023 35.5697C169.005 34.562 168.913 33.3642 168.743 32.004C168.678 31.4914 168.585 30.8412 168.467 30.0611C169.286 30.2811 170.259 30.9487 171.582 32.179C175.993 36.5599 178.477 36.8349 179.295 36.9249C179.36 36.9324 179.428 36.9349 179.493 36.9349C180.511 36.9349 181.567 36.0673 181.9 34.9595C182.192 33.9794 181.837 33.0167 180.969 32.4465L180.974 32.454ZM172.47 22.187C172.46 22.2145 172.453 22.242 172.448 22.2695C172.398 22.472 172.233 22.7146 171.973 22.9722C171.114 23.8098 169.673 24.4875 167.679 24.9851C167.607 24.4174 167.549 23.8923 167.504 23.4172C167.434 22.5996 167.412 21.8519 167.437 21.1893C168.17 21.0068 168.865 20.9142 169.506 20.9142C169.984 20.9142 170.444 20.9667 170.872 21.0668C171.477 21.2193 172.238 21.5119 172.448 22.0295C172.453 22.0395 172.455 22.0495 172.46 22.0595C172.488 22.122 172.485 22.147 172.47 22.187Z" fill="url(#paint7_linear_4178_8673)"/>
    <path d="M141.315 4.70838C141.063 4.38081 140.592 4.3158 140.262 4.56835C139.587 5.08345 133.878 9.73688 132.999 19.9639C132.136 20.0064 131.658 20.154 131.151 20.3365C131.055 20.369 130.958 20.404 130.848 20.439C130.057 20.6816 129.609 21.5192 129.852 22.3119C130.095 23.1046 130.935 23.5496 131.726 23.3071C131.886 23.2571 132.029 23.2071 132.166 23.1571C132.524 23.027 132.719 22.9495 133.545 22.9495C134.37 22.9495 134.716 23.062 135.151 23.2021C135.306 23.2496 135.459 23.2996 135.621 23.3446C135.754 23.3821 135.889 23.3996 136.022 23.3996H136.024C136.682 23.3996 137.288 22.9645 137.47 22.2994C137.69 21.5017 137.22 20.6741 136.422 20.454C136.304 20.4215 136.192 20.3865 136.079 20.349C135.684 20.2215 135.216 20.0714 134.503 19.9989C135.351 10.4845 140.555 6.23618 141.175 5.76109C141.503 5.50854 141.568 5.03844 141.315 4.70838Z" fill="#6346CE"/>
    <path d="M145.175 6.03412C146.345 4.86524 146.108 2.73343 144.646 1.27258C143.185 -0.188274 141.052 -0.424972 139.882 0.743906C138.713 1.91278 138.95 4.04461 140.411 5.50546C141.873 6.96631 144.006 7.203 145.175 6.03412Z" fill="#FFA233"/>
    <path d="M30.0943 16.3734C32.2163 16.0196 33.7071 14.358 33.424 12.6621C33.141 10.9662 31.1913 9.87822 29.0693 10.232C26.9473 10.5858 25.4565 12.2474 25.7395 13.9433C26.0226 15.6392 27.9722 16.7272 30.0943 16.3734Z" fill="url(#paint8_linear_4178_8673)"/>
    <path d="M86.4128 12.6025L86.3002 12.5774C85.4596 12.3924 84.6064 12.1974 83.7433 12.0023C79.9881 11.1497 76.1027 10.267 72.5577 9.8544C72.3375 9.8294 72.1274 9.81689 71.9297 9.81689C69.9908 9.81689 68.8225 10.9296 68.6423 12.9525C68.5472 14.0027 68.7724 14.8504 69.3103 15.4705C70.2235 16.5232 71.7621 16.6058 72.6803 16.6533C74.5091 16.7508 76.2028 16.8708 77.869 17.0108C77.849 17.2184 77.834 17.4309 77.839 17.6535C77.8165 18.2261 77.7915 19.0087 77.7615 19.9114C77.6389 23.7472 77.4337 30.166 76.9384 32.5789C76.7057 33.7292 76.1478 35.0995 74.8118 35.0995C73.4758 35.0995 71.7271 33.8142 71.0666 31.7363C70.6738 30.5335 69.5355 29.7284 68.227 29.7284C67.8467 29.7284 67.4765 29.7959 67.1212 29.9309C67.1112 29.9334 67.1037 29.9384 67.0937 29.9409C65.6001 30.556 64.7995 32.2664 65.3124 33.7517C65.3174 33.7642 65.3224 33.7792 65.3274 33.7917C66.9686 37.9625 70.9715 40.8756 75.0595 40.8756C75.5348 40.8756 76.0127 40.8381 76.483 40.7631C79.3126 40.338 81.274 38.7352 82.3073 36.0046C83.1579 33.7567 83.2905 31.0136 83.4081 28.5957L83.4156 28.4206C83.5407 26.7228 83.8584 20.389 83.9935 17.6235C84.5564 17.686 85.1293 17.7535 85.7147 17.821C85.8674 17.8385 86.015 17.8585 86.1576 17.8785C86.4778 17.9235 86.8055 17.9685 87.1308 17.9685C89.1823 17.9685 89.3624 15.9381 89.4224 15.273C89.5976 13.3051 87.8288 12.915 86.4053 12.6H86.4128V12.6025Z" fill="url(#paint9_linear_4178_8673)"/>
  </g>
  <defs>
    <linearGradient id="paint0_linear_4178_8673" x1="10.8727" y1="4.61596" x2="10.8727" y2="45.6642" gradientUnits="userSpaceOnUse">
      <stop offset="0.08" stop-color="#7268F2"/>
      <stop offset="0.31" stop-color="#6F62EC"/>
      <stop offset="0.6" stop-color="#6953DC"/>
      <stop offset="0.8" stop-color="#6346CE"/>
    </linearGradient>
    <linearGradient id="paint1_linear_4178_8673" x1="29.3587" y1="49.9748" x2="29.3587" y2="49.9748" gradientUnits="userSpaceOnUse">
      <stop offset="0.08" stop-color="#7268F2"/>
      <stop offset="0.31" stop-color="#6F62EC"/>
      <stop offset="0.6" stop-color="#6953DC"/>
      <stop offset="0.8" stop-color="#6346CE"/>
    </linearGradient>
    <linearGradient id="paint2_linear_4178_8673" x1="133.898" y1="43.2234" x2="133.898" y2="26.04" gradientUnits="userSpaceOnUse">
      <stop offset="0.11" stop-color="#F48811"/>
      <stop offset="0.21" stop-color="#F68D17"/>
      <stop offset="0.56" stop-color="#FC9C2B"/>
      <stop offset="0.8" stop-color="#FFA233"/>
    </linearGradient>
    <linearGradient id="paint3_linear_4178_8673" x1="48.8404" y1="4.64086" x2="48.8404" y2="45.6341" gradientUnits="userSpaceOnUse">
      <stop offset="0.08" stop-color="#7268F2"/>
      <stop offset="0.31" stop-color="#6F62EC"/>
      <stop offset="0.6" stop-color="#6953DC"/>
      <stop offset="0.8" stop-color="#6346CE"/>
    </linearGradient>
    <linearGradient id="paint4_linear_4178_8673" x1="96.0901" y1="44.3516" x2="96.0901" y2="23.2324" gradientUnits="userSpaceOnUse">
      <stop offset="0.11" stop-color="#F48811"/>
      <stop offset="0.21" stop-color="#F68D17"/>
      <stop offset="0.56" stop-color="#FC9C2B"/>
      <stop offset="0.8" stop-color="#FFA233"/>
    </linearGradient>
    <linearGradient id="paint5_linear_4178_8673" x1="117.413" y1="37.5402" x2="117.413" y2="16.5385" gradientUnits="userSpaceOnUse">
      <stop offset="0.11" stop-color="#F48811"/>
      <stop offset="0.21" stop-color="#F68D17"/>
      <stop offset="0.56" stop-color="#FC9C2B"/>
      <stop offset="0.8" stop-color="#FFA233"/>
    </linearGradient>
    <linearGradient id="paint6_linear_4178_8673" x1="150.287" y1="40.8007" x2="150.287" y2="19.6464" gradientUnits="userSpaceOnUse">
      <stop offset="0.11" stop-color="#F48811"/>
      <stop offset="0.21" stop-color="#F68D17"/>
      <stop offset="0.56" stop-color="#FC9C2B"/>
      <stop offset="0.8" stop-color="#FFA233"/>
    </linearGradient>
    <linearGradient id="paint7_linear_4178_8673" x1="172.278" y1="38.0502" x2="172.278" y2="16.0283" gradientUnits="userSpaceOnUse">
      <stop offset="0.11" stop-color="#F48811"/>
      <stop offset="0.21" stop-color="#F68D17"/>
      <stop offset="0.56" stop-color="#FC9C2B"/>
      <stop offset="0.8" stop-color="#FFA233"/>
    </linearGradient>
    <linearGradient id="paint8_linear_4178_8673" x1="29.5816" y1="4.61671" x2="29.5816" y2="45.6649" gradientUnits="userSpaceOnUse">
      <stop offset="0.08" stop-color="#7268F2"/>
      <stop offset="0.31" stop-color="#6F62EC"/>
      <stop offset="0.6" stop-color="#6953DC"/>
      <stop offset="0.8" stop-color="#6346CE"/>
    </linearGradient>
    <linearGradient id="paint9_linear_4178_8673" x1="77.2961" y1="40.8731" x2="77.2961" y2="9.81439" gradientUnits="userSpaceOnUse">
      <stop offset="0.11" stop-color="#F48811"/>
      <stop offset="0.21" stop-color="#F68D17"/>
      <stop offset="0.56" stop-color="#FC9C2B"/>
      <stop offset="0.8" stop-color="#FFA233"/>
    </linearGradient>
    <clipPath id="clip0_4178_8673">
      <rect width="182" height="50" fill="white"/>
    </clipPath>
  </defs>
</svg>
