<svg width="56" height="48" viewBox="0 0 56 48" fill="none" xmlns="http://www.w3.org/2000/svg">
<g clip-path="url(#clip0_14349_44454)">
<path d="M0.767578 12.6797H2.71407C4.11421 12.6797 4.97909 13.3984 4.97909 14.5808C4.97909 15.3449 4.60613 15.9175 3.95998 16.2269L5.96091 19.0464H4.4146L2.72314 16.4729H2.05885V19.0464H0.767578V12.6797ZM2.05885 13.7804V15.3721H2.78665C3.33199 15.3721 3.65052 15.0808 3.65052 14.5627C3.65052 14.0808 3.33199 13.7804 2.78665 13.7804H2.05885Z" fill="white"/>
<path d="M6.76172 12.6794H10.4722V13.7801H8.05299V15.2539H10.1084V16.3546H8.05299V17.9463H10.4722V19.047H6.76172V12.6804V12.6794ZM8.01671 12.134L9.04489 10.9062H10.3725L9.19004 12.134H8.01671Z" fill="white"/>
<path d="M11.9727 12.6797H14.0734C15.4735 12.6797 16.3293 13.3984 16.3293 14.5808C16.3293 15.7632 15.4745 16.4729 14.0734 16.4729H13.2639V19.0464H11.9727V12.6797ZM13.2639 13.7804V15.3721H14.1278C14.6731 15.3721 15.0008 15.0808 15.0008 14.5627C15.0008 14.0808 14.6731 13.7804 14.1278 13.7804H13.2639Z" fill="white"/>
<path d="M21.1499 12.6797H22.4412V16.5545C22.4412 18.2278 21.4594 19.2288 19.8586 19.2288C18.2579 19.2288 17.2852 18.2288 17.2852 16.5545V12.6797H18.5764V16.6634C18.5764 17.5182 19.0583 18.0182 19.8677 18.0182C20.6772 18.0182 21.1499 17.5182 21.1499 16.6634V12.6797Z" fill="white"/>
<path d="M24.042 12.6797H25.8524C27.18 12.6797 27.9803 13.3349 27.9803 14.4074C27.9803 14.9165 27.7434 15.362 27.307 15.6624C27.9803 15.9628 28.3533 16.5082 28.3533 17.1724C28.3533 18.3367 27.4531 19.0464 25.9885 19.0464H24.042V12.6797ZM25.3333 13.7804V15.1715H25.8786C26.3695 15.1715 26.6518 14.9256 26.6518 14.4709C26.6518 14.0435 26.3695 13.7794 25.8786 13.7794H25.3333V13.7804ZM25.3333 16.2814V17.9456H26.0611C26.6618 17.9456 27.0247 17.6271 27.0247 17.0999C27.0247 16.5727 26.6608 16.2814 26.0611 16.2814H25.3333Z" fill="white"/>
<path d="M29.6719 12.6797H30.9632V17.873H33.3824V19.0464H29.6719V12.6797Z" fill="white"/>
<path d="M34.5205 12.6797H35.8118V19.0464H34.5205V12.6797Z" fill="white"/>
<path d="M44.2693 19.4917C44.4054 19.4917 44.5879 19.4736 44.7239 19.4191V20.5108C44.5143 20.5925 44.3328 20.6288 44.0506 20.6288C43.3409 20.6288 42.6867 20.3374 42.0587 19.7921L41.3037 19.1187C41.0305 19.1913 40.7402 19.2276 40.4308 19.2276C38.4208 19.2276 37.0479 17.6813 37.0479 15.8628C37.0479 14.0444 38.4208 12.498 40.4308 12.498C42.4408 12.498 43.8046 14.0444 43.8046 15.8628C43.8046 16.9273 43.3319 17.9 42.5496 18.519L42.9317 18.8829C43.4226 19.3284 43.8591 19.4917 44.2683 19.4917H44.2693ZM42.4771 15.8628C42.4771 14.6441 41.6223 13.7077 40.4308 13.7077C39.2393 13.7077 38.3754 14.6441 38.3754 15.8628C38.3754 17.0815 39.2302 18.018 40.4308 18.018C41.6313 18.018 42.4771 17.0815 42.4771 15.8628Z" fill="white"/>
<path d="M48.7984 12.6797H50.0896V16.5545C50.0896 18.2278 49.1078 19.2288 47.5071 19.2288C45.9063 19.2288 44.9336 18.2288 44.9336 16.5545V12.6797H46.2249V16.6634C46.2249 17.5182 46.7067 18.0182 47.5161 18.0182C48.3256 18.0182 48.7984 17.5182 48.7984 16.6634V12.6797Z" fill="white"/>
<path d="M51.6904 12.6797H55.401V13.7804H52.9817V15.2542H55.0371V16.3549H52.9817V17.9466H55.401V19.0474H51.6904V12.6807V12.6797Z" fill="white"/>
<path d="M0.767578 21.8594H4.47811V22.9601H2.05885V24.4339H4.11421V25.5346H2.05885V28.2271H0.767578V21.8604V21.8594Z" fill="white"/>
<path d="M5.61523 21.8594H7.56173C8.96187 21.8594 9.82675 22.5781 9.82675 23.7605C9.82675 24.5246 9.45378 25.0971 8.80764 25.4066L10.8086 28.226H9.26226L7.5708 25.6526H6.90651V28.226H5.61523V21.8594ZM6.90651 22.9601V24.5518H7.6343C8.17964 24.5518 8.49818 24.2605 8.49818 23.7424C8.49818 23.2605 8.17964 22.9601 7.6343 22.9601H6.90651Z" fill="white"/>
<path d="M13.4921 21.8594H15.1836L17.5938 28.226H16.2209L15.612 26.5709H13.0658L12.4569 28.226H11.084L13.4942 21.8594H13.4921ZM15.2108 25.4701L14.3379 23.0781L13.4649 25.4701H15.2108Z" fill="white"/>
<path d="M18.5762 21.8594H20.2313L23.078 26.4156V21.8594H24.3693V28.226H22.7141L19.8674 23.6516V28.226H18.5762V21.8594Z" fill="white"/>
<path d="M30.6546 26.3247L31.6737 27.1069C31.1828 27.7803 30.4187 28.2531 29.4913 28.371L28.7 29.6895H27.5539L28.3543 28.3529C26.6991 28.0615 25.6074 26.6614 25.6074 25.0425C25.6074 23.224 26.9803 21.6777 28.9903 21.6777C30.1455 21.6777 31.0911 22.1959 31.6737 22.969L30.6546 23.7603C30.2907 23.2422 29.7181 22.8874 28.9903 22.8874C27.7898 22.8874 26.935 23.8238 26.935 25.0425C26.935 26.2612 27.7898 27.1977 28.9903 27.1977C29.7181 27.1977 30.2907 26.8428 30.6546 26.3247Z" fill="white"/>
<path d="M34.3554 21.8594H36.0469L38.4571 28.226H37.0841L36.4753 26.5709H33.929L33.3202 28.226H31.9473L34.3574 21.8594H34.3554ZM36.0741 25.4701L35.2012 23.0781L34.3282 25.4701H36.0741Z" fill="white"/>
<path d="M39.4404 21.8594H40.7317V28.226H39.4404V21.8594Z" fill="white"/>
<path d="M42.8779 26.48C43.2599 26.9709 43.769 27.2622 44.2871 27.2622C44.8052 27.2622 45.1056 26.989 45.1056 26.5253C45.1056 25.3883 42.1954 25.6433 42.1954 23.5244C42.1954 22.5144 43.023 21.6777 44.2326 21.6777C45.1872 21.6777 45.9241 22.1051 46.4614 22.7513L45.5159 23.597C45.1429 23.1152 44.7246 22.8057 44.2427 22.8057C43.7972 22.8057 43.5059 23.097 43.5059 23.47C43.5059 24.607 46.416 24.3429 46.416 26.4991C46.3979 27.6815 45.4705 28.4093 44.3062 28.4093C43.2327 28.4093 42.5059 28.0182 41.9414 27.3448L42.8779 26.481V26.48Z" fill="white"/>
<path d="M47.7715 21.8594H51.482V22.9601H49.0628V24.4339H51.1181V25.5346H49.0628V27.1263H51.482V28.2271H47.7715V21.8604V21.8594Z" fill="white"/>
<path d="M21.4836 45.8046C21.6559 45.8046 21.8061 45.9357 21.7265 46.2663L20.9241 46.4528C21.0642 46.0798 21.2971 45.8036 21.4846 45.8036M21.9271 47.0979H21.7688C21.5682 47.3358 21.3535 47.5223 21.1388 47.5223C20.9241 47.5223 20.8072 47.3912 20.8072 47.0979C20.8072 46.9769 20.8213 46.855 20.8445 46.7431L22.1378 46.3187C22.3898 45.721 22.0864 45.4599 21.7315 45.4599C21.1197 45.4599 20.4241 46.482 20.4241 47.3781C20.4241 47.7793 20.6157 47.9991 20.914 47.9991C21.2638 47.9991 21.6277 47.6584 21.9271 47.0979ZM21.6711 45.222L22.5813 44.3722V44.2744H22.0914L21.5309 45.222H21.6711ZM18.8798 45.8187H19.3093L18.6278 47.6816C18.5674 47.8398 18.651 47.9991 18.8143 47.9991C19.2014 47.9991 19.8274 47.616 20.0471 47.0939H19.9262C19.7538 47.2763 19.4222 47.5183 19.1369 47.5697L19.7629 45.8187H20.402L20.4816 45.5526H19.8607L20.0985 44.8803H19.8516L19.4081 45.5526L18.8809 45.6272V45.8187H18.8798ZM18.3002 45.73C18.3516 45.5577 18.2347 45.4589 18.146 45.4589C17.773 45.4589 17.3295 45.7945 17.1521 46.2663H17.2731C17.394 46.0939 17.5997 45.9024 17.7912 45.8691L17.0775 47.7269C17.012 47.8993 17.143 47.9981 17.2317 47.9981C17.5866 47.9981 18.0019 47.6574 18.1793 47.1906H18.0583C17.9373 47.363 17.7317 47.5545 17.5402 47.5878L18.3012 45.73H18.3002ZM18.4313 44.7966C18.5996 44.7966 18.7397 44.6615 18.7397 44.4881C18.7397 44.3148 18.5996 44.1797 18.4313 44.1797C18.2629 44.1797 18.1228 44.3198 18.1228 44.4881C18.1228 44.6565 18.2579 44.7966 18.4313 44.7966ZM14.3185 47.6533C14.2248 47.863 14.3236 47.9991 14.5282 47.9991C14.6542 47.9991 14.7107 47.9668 14.7621 47.8307L15.257 46.5193C15.4858 46.2391 15.9576 45.9407 16.1441 45.9407C16.2792 45.9407 16.261 46.0526 16.1723 46.2209L15.4112 47.6816C15.3366 47.8267 15.4344 47.9991 15.5977 47.9991C15.9707 47.9991 16.4142 47.6634 16.5916 47.1917H16.4707C16.3497 47.364 16.1441 47.5556 15.9526 47.5888L16.6057 46.2683C16.6894 46.1 16.7318 45.9417 16.7318 45.8157C16.7318 45.601 16.6108 45.4609 16.386 45.4609C16.0634 45.4609 15.7368 45.8248 15.3498 46.2733V45.9276C15.3498 45.6806 15.2701 45.4609 15.0463 45.4609C14.9062 45.4609 14.7711 45.5818 14.6451 45.7552V45.8016C14.8881 45.7875 14.9949 46.1514 14.8226 46.5344L14.3185 47.6543V47.6533ZM14.3095 46.0294C14.3982 45.726 14.3518 45.4599 14.118 45.4599C13.8428 45.4599 13.7722 45.6695 13.492 46.2723V45.9266C13.492 45.6796 13.4123 45.4599 13.1886 45.4599C12.9275 45.4599 12.6896 45.8661 12.5071 46.2673H12.6281C12.7541 46.0848 12.871 45.978 12.9638 45.978C13.0757 45.978 13.1361 46.1504 12.9638 46.5334L12.4598 47.6533C12.366 47.863 12.4648 47.9991 12.6694 47.9991C12.7954 47.9991 12.8519 47.9668 12.9033 47.8307L13.3982 46.5193C13.5383 46.3469 13.6643 46.1967 13.8226 46.0294H14.3085H14.3095ZM11.4437 45.8046C11.616 45.8046 11.7662 45.9357 11.6866 46.2663L10.8842 46.4528C11.0243 46.0798 11.2572 45.8036 11.4447 45.8036M11.8872 47.0979H11.7289C11.5283 47.3358 11.3136 47.5223 11.0989 47.5223C10.8842 47.5223 10.7673 47.3912 10.7673 47.0979C10.7673 46.9769 10.7814 46.855 10.8046 46.7431L12.0979 46.3187C12.3499 45.721 12.0465 45.4599 11.6916 45.4599C11.0798 45.4599 10.3842 46.482 10.3842 47.3781C10.3842 47.7793 10.5758 47.9991 10.8741 47.9991C11.2239 47.9991 11.5878 47.6584 11.8872 47.0979ZM8.83894 45.8187H9.26836L8.58693 47.6816C8.52645 47.8398 8.61012 47.9991 8.77342 47.9991C9.1605 47.9991 9.78648 47.616 10.0062 47.0939H9.88526C9.71289 47.2763 9.38125 47.5183 9.09598 47.5697L9.72197 45.8187H10.3611L10.4407 45.5526H9.81974L10.0576 44.8803H9.81067L9.36714 45.5526L8.83995 45.6272V45.8187H8.83894ZM6.48218 47.2703C6.48218 46.6957 7.12127 45.9165 7.48113 45.9165C7.56077 45.9165 7.63536 45.9256 7.70088 45.9447L7.32791 46.9386C7.1132 47.1997 6.78156 47.5172 6.62734 47.5172C6.53863 47.5172 6.48218 47.4427 6.48218 47.2703ZM8.44682 45.352L8.25126 45.3379L8.03151 45.5526H7.98514C6.92067 45.5526 6.00136 46.7471 6.00136 47.616C6.00136 47.859 6.15054 47.9991 6.3844 47.9991C6.65959 47.9991 6.93075 47.607 7.23417 47.1866L7.22005 47.3358C7.18276 47.7652 7.3138 47.9991 7.53758 47.9991C7.79866 47.9991 8.03655 47.5929 8.219 47.1917H8.09804C7.97204 47.3741 7.85511 47.481 7.76237 47.481C7.66459 47.481 7.59403 47.3035 7.76237 46.9255L8.44883 45.352H8.44682ZM6.17877 46.0294C6.26747 45.726 6.2211 45.4599 5.98724 45.4599C5.71205 45.4599 5.64149 45.6695 5.36126 46.2723V45.9266C5.36126 45.6796 5.28163 45.4599 5.05785 45.4599C4.79677 45.4599 4.55888 45.8661 4.37642 46.2673H4.49739C4.62339 46.0848 4.74032 45.978 4.83306 45.978C4.94495 45.978 5.00543 46.1504 4.83306 46.5334L4.32905 47.6533C4.2353 47.863 4.33409 47.9991 4.53872 47.9991C4.66472 47.9991 4.72117 47.9668 4.77258 47.8307L5.26752 46.5193C5.40763 46.3469 5.53363 46.1967 5.69189 46.0294H6.17776H6.17877ZM2.60331 47.9053L2.64968 47.7602C2.02874 47.6433 1.94911 47.6433 2.19708 46.9669L2.44908 46.2713H3.13555C3.444 46.2713 3.44804 46.3973 3.40167 46.733H3.57908L3.99035 45.6081H3.81294C3.65871 45.8742 3.53775 46.0697 3.20107 46.0697H2.52469L2.88455 45.0849C2.99644 44.7724 3.06196 44.7069 3.48231 44.7069H3.78068C4.21514 44.7069 4.26655 44.8238 4.26655 45.2623H4.43892L4.58408 44.4972H2.00556L1.95919 44.6424C2.45816 44.7452 2.50553 44.7916 2.27167 45.4357L1.71121 46.9669C1.47735 47.606 1.37957 47.6574 0.806009 47.7602L0.763672 47.9053H2.6023H2.60331Z" fill="white"/>
<path d="M15.2338 39.9719C15.4062 39.9719 15.5564 40.1029 15.4768 40.4335L14.6744 40.62C14.8145 40.2471 15.0473 39.9709 15.2348 39.9709M15.6774 41.2652H15.5191C15.3185 41.5031 15.1038 41.6895 14.8891 41.6895C14.6744 41.6895 14.5574 41.5585 14.5574 41.2652C14.5574 41.1442 14.5716 41.0222 14.5947 40.9103L15.888 40.486C16.14 39.8882 15.8366 39.6271 15.4818 39.6271C14.8699 39.6271 14.1744 40.6493 14.1744 41.5454C14.1744 41.9466 14.3659 42.1663 14.6643 42.1663C15.0141 42.1663 15.378 41.8256 15.6774 41.2652ZM15.4203 39.3882L16.3306 38.5385V38.4407H15.8407L15.2802 39.3882H15.4203ZM12.6291 39.986H13.0585L12.3771 41.8488C12.3166 42.0071 12.4003 42.1663 12.5636 42.1663C12.9507 42.1663 13.5766 41.7833 13.7964 41.2611H13.6754C13.5031 41.4436 13.1714 41.6855 12.8861 41.7369L13.5121 39.986H14.1512L14.2308 39.7199H13.6099L13.8478 39.0475H13.6008L13.1573 39.7199L12.6301 39.7945V39.986H12.6291ZM12.0505 39.8973C12.1019 39.7249 11.985 39.6261 11.8963 39.6261C11.5233 39.6261 11.0798 39.9618 10.9024 40.4335H11.0233C11.1443 40.2612 11.3499 40.0696 11.5414 40.0364L10.8278 41.8942C10.7622 42.0665 10.8933 42.1653 10.982 42.1653C11.3368 42.1653 11.7521 41.8246 11.9295 41.3579H11.8086C11.6876 41.5303 11.482 41.7218 11.2904 41.7551L12.0515 39.8973H12.0505ZM12.1815 38.9638C12.3499 38.9638 12.49 38.8288 12.49 38.6554C12.49 38.482 12.3499 38.3469 12.1815 38.3469C12.0132 38.3469 11.8731 38.4871 11.8731 38.6554C11.8731 38.8237 12.0082 38.9638 12.1815 38.9638ZM9.69777 41.7551L11.0001 38.3429L10.9578 38.2915L10.1413 38.3852V38.483L10.2996 38.604C10.4447 38.7159 10.3973 38.8237 10.2673 39.1685L9.25021 41.8478C9.17562 41.993 9.2734 42.1653 9.4367 42.1653C9.80966 42.1653 10.2068 41.8297 10.3842 41.3579H10.2633C10.1423 41.5303 9.8903 41.7218 9.69878 41.7551M7.22409 41.4375C7.22409 40.863 7.86317 40.0838 8.22304 40.0838C8.30267 40.0838 8.37726 40.0928 8.44279 40.112L8.06982 41.1059C7.85511 41.367 7.52347 41.6845 7.36924 41.6845C7.28054 41.6845 7.22409 41.6099 7.22409 41.4375ZM9.18872 39.5193L8.99317 39.5052L8.77342 39.7199H8.72705C7.66258 39.7199 6.74326 40.9144 6.74326 41.7833C6.74326 42.0262 6.89245 42.1663 7.12631 42.1663C7.4015 42.1663 7.67266 41.7742 7.97607 41.3539L7.96196 41.5031C7.92466 41.9325 8.0557 42.1663 8.27949 42.1663C8.54056 42.1663 8.77846 41.7601 8.96091 41.3589H8.83995C8.71394 41.5414 8.59701 41.6482 8.50427 41.6482C8.4065 41.6482 8.33593 41.4708 8.50427 41.0928L9.19074 39.5193H9.18872ZM4.4369 42.6189C4.4369 42.372 4.6748 42.2177 5.01551 42.0817C5.1274 42.1381 5.29574 42.1986 5.51952 42.2732C5.87434 42.3901 6.00942 42.4365 6.00942 42.5443C6.00942 42.7732 5.62234 42.9455 5.09414 42.9455C4.65061 42.9455 4.4359 42.8518 4.4359 42.6189M5.4036 41.1109C5.24937 41.1109 5.18889 40.9799 5.18889 40.8307C5.18889 40.4154 5.41267 39.8035 5.76346 39.8035C5.91769 39.8035 5.97817 39.9346 5.97817 40.0838C5.97817 40.4991 5.75439 41.1109 5.4036 41.1109ZM6.41666 42.3901C6.41666 42.0917 6.15054 41.9839 5.71608 41.8528C5.34312 41.7409 5.17478 41.7077 5.17478 41.5867C5.17478 41.4889 5.25441 41.372 5.41267 41.2883C6.02454 41.2561 6.42069 40.7047 6.42069 40.243C6.42069 40.1452 6.40154 40.0606 6.36928 39.986H6.88741L6.96704 39.7199H6.1455C6.04772 39.6594 5.93079 39.6261 5.81386 39.6261C5.1647 39.6261 4.74536 40.1956 4.74536 40.6573C4.74536 41.0071 4.96914 41.2269 5.2403 41.2783C4.93688 41.4133 4.76854 41.5726 4.76854 41.7591C4.76854 41.867 4.80584 41.9415 4.89455 42.0111C4.19397 42.2167 3.91878 42.4496 3.91878 42.7812C3.91878 43.1129 4.34316 43.2389 4.84818 43.2389C5.70197 43.2389 6.41666 42.7772 6.41666 42.3891M3.15369 40.3922C3.46215 40.3922 3.46618 40.5182 3.41981 40.8539H3.59722L4.0085 39.7289H3.83108C3.67686 39.9951 3.55589 40.1906 3.21921 40.1906H2.54283L2.88354 39.2521C2.99543 38.9397 3.06095 38.8792 3.4813 38.8792H3.77967C4.21413 38.8792 4.26554 38.9961 4.26554 39.4296H4.43791L4.58307 38.6645H2.00556L1.95919 38.8096C2.45816 38.9124 2.50553 38.9588 2.27167 39.6029L1.71121 41.1341C1.47735 41.7732 1.37957 41.8246 0.806009 41.9274L0.763672 42.0726H3.62948L4.14256 41.2601H3.94701C3.62041 41.5686 3.20913 41.8619 2.63557 41.8619C1.87451 41.8619 1.94507 41.8297 2.19708 41.1341L2.46824 40.3922H3.1547H3.15369ZM3.52767 38.4366L4.43791 37.8107V37.7129H3.88753L3.38352 38.4366H3.52868H3.52767Z" fill="white"/>
<path d="M14.9304 34.1365C15.1028 34.1365 15.253 34.2675 15.1733 34.5981L14.3709 34.7846C14.511 34.4116 14.7439 34.1355 14.9314 34.1355M15.3739 35.4287H15.2157C15.0151 35.6666 14.8003 35.8531 14.5856 35.8531C14.3709 35.8531 14.254 35.7221 14.254 35.4287C14.254 35.3078 14.2681 35.1858 14.2913 35.0739L15.5846 34.6495C15.8366 34.0518 15.5332 33.7907 15.1784 33.7907C14.5665 33.7907 13.871 34.8128 13.871 35.709C13.871 36.1102 14.0625 36.3299 14.3609 36.3299C14.7106 36.3299 15.0745 35.9892 15.3739 35.4287ZM15.1169 33.5528L16.0271 32.7031V32.6053H15.5372L14.9768 33.5528H15.1169ZM12.4426 34.1506H12.7833L12.1019 36.0134C12.0414 36.1717 12.1251 36.3309 12.2884 36.3309C12.6754 36.3309 13.3014 35.9479 13.5212 35.4257H13.4002C13.2278 35.6082 12.8962 35.8501 12.6109 35.9015L13.2369 34.1506H13.876L13.9556 33.8845H13.3347L13.5726 33.2121H13.3256L12.8821 33.8845L12.4436 33.959V34.1506H12.4426ZM12.1069 34.3602C12.1956 34.0568 12.1493 33.7907 11.9154 33.7907C11.6402 33.7907 11.5696 34.0004 11.2894 34.6032V34.2574C11.2894 34.0105 11.2098 33.7907 10.986 33.7907C10.7249 33.7907 10.487 34.1969 10.3046 34.5981H10.4255C10.5515 34.4157 10.6685 34.3088 10.7612 34.3088C10.8731 34.3088 10.9336 34.4812 10.7612 34.8643L10.2572 35.9842C10.1634 36.1938 10.2622 36.3299 10.4669 36.3299C10.5929 36.3299 10.6493 36.2977 10.7007 36.1616L11.1957 34.8501C11.3358 34.6778 11.4618 34.5276 11.62 34.3602H12.1059H12.1069ZM9.2401 34.1365C9.41247 34.1365 9.56267 34.2675 9.48303 34.5981L8.68065 34.7846C8.82076 34.4116 9.05361 34.1355 9.24111 34.1355M9.68363 35.4287H9.52537C9.32477 35.6666 9.11006 35.8531 8.89536 35.8531C8.68065 35.8531 8.56372 35.7221 8.56372 35.4287C8.56372 35.3078 8.57783 35.1858 8.60101 35.0739L9.89431 34.6495C10.1463 34.0518 9.8429 33.7907 9.48807 33.7907C8.8762 33.7907 8.18067 34.8128 8.18067 35.709C8.18067 36.1102 8.37219 36.3299 8.67057 36.3299C9.02035 36.3299 9.38425 35.9892 9.68363 35.4287ZM6.51441 35.9519C6.3884 35.9519 6.20595 35.835 6.20595 35.7322C6.20595 35.6999 6.2624 35.5547 6.33195 35.3723L6.54162 34.8169C6.7654 34.5508 7.10612 34.2665 7.29764 34.2665C7.41457 34.2665 7.50328 34.3411 7.50328 34.5135C7.50328 35.0225 7.02749 35.9509 6.5134 35.9509M7.98511 34.3088C7.98511 33.9308 7.845 33.7907 7.58392 33.7907C7.25732 33.7907 6.94886 34.1365 6.64142 34.5558L7.42062 32.5065L7.37828 32.4551L6.56178 32.5488V32.6466L6.72004 32.7676C6.8652 32.8795 6.81782 32.9964 6.68779 33.3321L5.8471 35.4983C5.78662 35.6566 5.71202 35.844 5.71202 35.8955C5.71202 36.1192 6.01544 36.3299 6.29063 36.3299C6.92568 36.3299 7.98511 35.1858 7.98511 34.3088ZM5.4459 34.0619C5.49731 33.8895 5.38038 33.7907 5.29168 33.7907C4.91871 33.7907 4.47518 34.1264 4.29777 34.5981H4.41873C4.53969 34.4258 4.74533 34.2342 4.93685 34.201L4.22317 36.0588C4.15765 36.2311 4.28869 36.3299 4.3774 36.3299C4.73222 36.3299 5.14753 35.9892 5.32494 35.5225H5.20398C5.08302 35.6949 4.87738 35.8864 4.68585 35.9196L5.44691 34.0619H5.4459ZM5.57594 33.1274C5.74428 33.1274 5.88439 32.9924 5.88439 32.819C5.88439 32.6456 5.74428 32.5105 5.57594 32.5105C5.4076 32.5105 5.26748 32.6506 5.26748 32.819C5.26748 32.9873 5.40256 33.1274 5.57594 33.1274ZM3.69497 32.8291H1.99645L1.95008 32.9742C2.44905 33.077 2.49643 33.1234 2.26257 33.7675L1.71219 35.2987C1.47833 35.9378 1.38055 35.9892 0.806985 36.092L0.764648 36.2372H3.35023L3.91069 35.2382H3.71513C3.3976 35.588 3.02463 36.0275 2.45006 36.0275C2.0156 36.0275 1.96419 35.9529 2.19806 35.2997L2.74844 33.7685C2.97726 33.1294 3.08008 33.078 3.65364 32.9752L3.69598 32.8301L3.69497 32.8291Z" fill="white"/>
<path d="M10.3556 7.45546C10.4463 7.36474 10.5381 7.26696 10.6288 7.16918H10.6268C10.7961 6.97665 10.9624 6.79419 11.16 6.62585C11.2195 6.57243 11.2779 6.52505 11.3334 6.48675C11.3495 6.47062 11.3495 6.43836 11.3656 6.42324C11.286 6.4555 11.2376 6.519 11.158 6.55126C11.1419 6.55126 11.1257 6.53513 11.1419 6.519C11.1983 6.47667 11.2558 6.43332 11.3122 6.39099C11.3092 6.39099 11.3052 6.39099 11.3011 6.39099C11.285 6.39099 11.285 6.37486 11.285 6.35873C11.0773 6.32647 10.9171 6.47062 10.7739 6.59864C10.7417 6.61477 10.7104 6.58251 10.6943 6.58251C10.4544 6.66214 10.279 6.8698 10.0391 6.96556V6.9333C9.94332 6.96556 9.85058 7.02302 9.75179 7.04519C9.60765 7.07745 9.48064 7.06132 9.35262 7.06132C9.15908 7.08047 8.96554 7.12382 8.772 7.16515C8.76595 7.16615 8.76091 7.16817 8.75486 7.16918C8.65103 7.1974 8.55326 7.23672 8.45749 7.28913C8.45346 7.29115 8.45044 7.29317 8.44641 7.29518C8.43834 7.30526 8.43028 7.31433 8.42322 7.3224C8.38895 7.3597 8.35972 7.39498 8.31335 7.41816C8.21557 7.46856 8.13493 7.55525 8.04824 7.62581C8.04219 7.63085 8.03211 7.63287 8.02304 7.63388C7.93735 7.71654 7.85268 7.79919 7.76599 7.87983C7.75994 7.88588 7.73474 7.88891 7.71761 7.88588C7.71761 7.88588 7.71861 7.88588 7.71861 7.88488C7.72164 7.87984 7.72466 7.87479 7.72769 7.86975C7.74079 7.84758 7.7549 7.82439 7.76902 7.80222C7.78414 7.77702 7.80026 7.75282 7.81639 7.72762C7.83857 7.69436 7.86075 7.6621 7.88393 7.63085C7.88998 7.62279 7.88796 7.61573 7.88393 7.60968C7.87889 7.60464 7.87083 7.60162 7.86175 7.60162C7.94139 7.524 8.03614 7.45848 8.12989 7.40102C8.12989 7.40102 8.12989 7.39901 8.12989 7.398C8.1188 7.40203 8.10368 7.39296 8.11174 7.38187C8.12182 7.36776 8.12989 7.35264 8.13896 7.33853C8.14098 7.33349 8.14198 7.32945 8.144 7.32441C8.13997 7.32038 8.13594 7.31635 8.1319 7.31131C8.10569 7.32845 8.07848 7.34357 8.05731 7.36373C8.019 7.398 7.98876 7.46856 7.93131 7.46755C7.92728 7.46755 7.91619 7.46755 7.90711 7.46453C7.90006 7.46352 7.89401 7.46151 7.88998 7.45848C7.88998 7.45747 7.89099 7.45647 7.89199 7.45445C7.89199 7.45344 7.89401 7.45143 7.89401 7.45042C7.89401 7.44941 7.89603 7.44739 7.89603 7.44638C7.89804 7.44134 7.90107 7.43731 7.90409 7.43227C7.90711 7.42723 7.90913 7.4232 7.91215 7.41816C7.91417 7.41413 7.91619 7.4111 7.9182 7.40707C7.92224 7.40002 7.92526 7.39397 7.92929 7.38691C7.93231 7.38187 7.93534 7.37683 7.93736 7.3728C7.94441 7.3607 7.95147 7.34962 7.95752 7.33752C7.96054 7.33147 7.96457 7.32643 7.9676 7.32038C7.97364 7.3103 7.97868 7.30123 7.98473 7.29115C7.9928 7.27805 7.98473 7.26696 7.97264 7.26293C8.00187 7.22462 8.03816 7.19236 8.08251 7.16716H8.07747C8.13896 7.13591 8.19944 7.09862 8.26093 7.06434C8.27 7.05628 8.27807 7.04922 8.28714 7.04116C8.19642 7.0714 8.11376 7.11273 8.03312 7.16615C8.03312 7.16615 8.01195 7.17523 8.0059 7.18027C8.0059 7.18027 7.98776 7.18732 7.96558 7.16615C7.96356 7.16313 7.96155 7.16011 7.96155 7.15406C7.97768 7.1218 8.02505 7.10567 8.05731 7.07443C8.07344 7.07443 8.08957 7.07442 8.08957 7.09055C8.60063 6.69138 9.30322 6.78714 9.89493 6.57949C9.94332 6.54723 9.9907 6.51598 10.0391 6.48372C10.1187 6.45147 10.1832 6.37183 10.279 6.32446C10.407 6.22869 10.5028 6.1168 10.5501 5.95754C10.5501 5.94141 10.534 5.92528 10.534 5.92528C10.3264 6.14906 10.0865 6.32446 9.83143 6.45248C9.49576 6.62787 9.12884 6.59662 8.77704 6.644C8.79317 6.61174 8.82542 6.61174 8.85667 6.61174C8.85667 6.56336 8.88893 6.54824 8.92018 6.51598H8.96856C8.98469 6.51598 8.98469 6.48372 9.00082 6.48372C9.03308 6.48372 9.08045 6.4676 9.06432 6.4676C9.01594 6.40409 8.92018 6.51598 8.84054 6.4676C8.8728 6.43534 8.85667 6.38796 8.88893 6.37183H8.95243C8.95243 6.33958 8.98469 6.30833 8.98469 6.30833C9.2246 6.16418 9.44838 6.05229 9.67115 5.92528C9.62277 5.92528 9.59152 5.97366 9.54313 5.94141C9.57539 5.94141 9.54313 5.89302 9.57539 5.89302C9.75079 5.84464 9.89493 5.74888 10.0703 5.68537C10.0068 5.68537 9.95844 5.73376 9.89493 5.68537C9.92719 5.66924 9.94332 5.63699 9.9907 5.63699V5.5886C9.9907 5.57247 10.0068 5.57247 10.023 5.57247C10.0068 5.57247 9.9907 5.55634 9.9907 5.55634C10.0068 5.52409 10.0542 5.54022 10.0865 5.50796C10.0703 5.50796 10.0381 5.50796 10.0381 5.49183C10.0865 5.42833 10.1661 5.4122 10.2457 5.39607C10.2296 5.36381 10.1822 5.39607 10.1822 5.36381C10.1822 5.34768 10.1983 5.34768 10.2145 5.34768H10.1822C10.15 5.33155 10.1661 5.2993 10.1661 5.28418C10.2619 5.17229 10.2619 5.02814 10.3102 4.90113C10.2941 4.90113 10.278 4.90113 10.278 4.885C10.1187 5.0604 9.86268 5.12491 9.62277 5.18842H9.54313C9.4635 5.22067 9.35161 5.22067 9.27198 5.17229C9.20847 5.14003 9.17621 5.09265 9.11271 5.04427C8.98469 4.96463 8.85667 4.90012 8.71353 4.85274C8.31436 4.72473 7.89905 4.66122 7.48375 4.67735C7.65914 4.58159 7.85369 4.57352 8.0432 4.51808C8.31436 4.43845 8.57039 4.34269 8.85768 4.35881C8.80929 4.34269 8.74579 4.35881 8.69841 4.35881C8.47463 4.34269 8.25085 4.4072 8.01195 4.45458C7.85268 4.48683 7.70853 4.55034 7.54826 4.58259C7.4525 4.61485 7.40411 4.71061 7.29222 4.69449V4.6461C7.45149 4.45458 7.64402 4.26305 7.89905 4.24692C8.18634 4.19854 8.4585 4.24692 8.74579 4.27918C8.95344 4.29531 9.14497 4.34269 9.35262 4.39107C9.43225 4.39107 9.44838 4.51909 9.51289 4.53522C9.60866 4.56747 9.70442 4.53522 9.80018 4.59872C9.80018 4.56647 9.78405 4.53522 9.80018 4.50296C9.86369 4.43946 9.94433 4.51909 10.0078 4.48683C10.1359 4.4072 9.89594 4.26305 9.83244 4.15116C9.83244 4.13503 9.84857 4.1189 9.84857 4.1189C9.97658 4.23079 10.0723 4.35881 10.2316 4.43845C10.3112 4.4707 10.5028 4.51808 10.4715 4.42232C10.3919 4.24692 10.2316 4.10278 10.1046 3.94351V3.88C10.0723 3.88 10.0723 3.86387 10.0562 3.84775V3.78424C9.99271 3.75198 10.0078 3.68848 9.97658 3.64009C9.9282 3.56046 9.96045 3.44857 9.9282 3.35281C9.89594 3.25705 9.87981 3.17741 9.86469 3.08165C9.81631 2.81049 9.7528 2.57058 9.72055 2.31454C9.68829 2.01113 9.89594 1.77122 10.0401 1.50006C10.152 1.30854 10.28 1.11701 10.4877 0.988995C10.536 0.797471 10.663 0.637196 10.7911 0.477928C10.9191 0.321685 11.1308 0.226931 11.284 0.158385C11.5068 0.0585911 11.7084 -0.00390625 11.7084 -0.00390625H0.745117V8.44937H8.5089C8.81333 8.23063 9.11674 8.1268 9.54112 7.91713C9.74171 7.81835 10.2004 7.60767 10.3556 7.45243V7.45546ZM7.89905 6.31135C7.86679 6.31135 7.80329 6.32748 7.81942 6.29522C7.83555 6.21559 7.94744 6.21559 8.01094 6.18333C8.0432 6.1672 8.09057 6.13495 8.12283 6.15108C8.15509 6.19946 8.20247 6.18333 8.23472 6.21458C8.13896 6.31034 8.01094 6.26297 7.89905 6.31034V6.31135ZM5.4556 5.95955C5.4556 5.95955 5.43948 5.94342 5.43948 5.9273C5.64713 5.65614 5.8064 5.4001 5.95054 5.11281C6.1582 5.00092 6.33057 4.83863 6.49387 4.66525C6.76503 4.37797 7.05332 4.12193 7.38798 3.96266C7.516 3.91428 7.67527 3.9304 7.80329 3.97879C7.7549 4.04229 7.67527 4.02717 7.61176 4.07455C7.59564 4.07455 7.57951 4.07455 7.56338 4.05842C7.57951 4.04229 7.57951 4.02617 7.57951 4.01004C7.42024 4.18543 7.19646 4.26608 7.06844 4.47373C6.97268 4.633 6.90917 4.84166 6.70152 4.88903C6.63801 4.90516 6.71765 4.84065 6.68539 4.85678C6.19045 5.16019 5.83865 5.52812 5.4556 5.95854V5.95955ZM6.78115 4.90617C6.76503 4.93843 6.74789 4.94145 6.73277 4.96968C6.71664 5.00193 6.70051 5.01806 6.66926 5.03318C6.65313 5.03318 6.63701 5.03318 6.63701 5.01705C6.65313 4.95355 6.70051 4.88903 6.76503 4.8729C6.78115 4.8729 6.78115 4.88903 6.78115 4.90516V4.90617ZM7.52306 7.29921C7.516 7.31635 7.49987 7.33147 7.48375 7.34558C7.50391 7.34961 7.51802 7.35869 7.50491 7.37078C7.46762 7.40506 7.43234 7.43933 7.38395 7.45546C7.38093 7.45647 7.37085 7.45848 7.35976 7.45848C7.34061 7.47763 7.32045 7.49578 7.30028 7.51392C7.28113 7.53106 7.19343 7.51896 7.22065 7.49477C7.26097 7.45848 7.29827 7.42018 7.33859 7.38288C7.36077 7.36272 7.38496 7.34256 7.40512 7.31937C7.41621 7.30627 7.42528 7.29417 7.43939 7.28409C7.4525 7.27502 7.53717 7.26696 7.52407 7.29921H7.52306ZM7.23678 7.16716C7.23678 7.16716 7.23376 7.16918 7.23275 7.17019C7.17327 7.21252 7.1138 7.25486 7.0503 7.29216C6.98175 7.33147 6.91018 7.36171 6.83962 7.39598C6.83962 7.39498 6.83861 7.39296 6.8376 7.39195C6.83256 7.3849 6.82147 7.37986 6.81039 7.3859C6.7499 7.41816 6.6985 7.46151 6.6491 7.50787C6.64205 7.51493 6.63398 7.52199 6.62693 7.52904C6.62693 7.52904 6.62693 7.52904 6.62592 7.53005C6.62592 7.53005 6.62592 7.53005 6.62491 7.53106C6.61685 7.53812 6.60979 7.54618 6.60173 7.55324C6.60173 7.55324 6.59971 7.55525 6.5987 7.55626C6.5987 7.55626 6.5987 7.55626 6.5987 7.55727C6.58761 7.56836 6.57653 7.58045 6.56443 7.59456C6.55636 7.60364 6.55334 7.60968 6.54326 7.61674C6.53318 7.6238 6.50596 7.62279 6.50798 7.60464C6.50798 7.60364 6.50798 7.60263 6.50798 7.60162C6.49891 7.60666 6.48883 7.6117 6.47975 7.61573C6.47068 7.61976 6.46262 7.6248 6.45455 7.62985C6.45153 7.62884 6.4475 7.62783 6.44347 7.62783C6.43943 7.62783 6.4354 7.62884 6.43238 7.63186C6.41323 7.64698 6.39306 7.66311 6.37492 7.68025C6.34166 7.71049 6.31041 7.74375 6.28218 7.77903C6.28218 7.77903 6.28218 7.77903 6.28117 7.78004C6.28017 7.78105 6.27916 7.78306 6.27815 7.78407C6.27613 7.78609 6.27513 7.78811 6.27311 7.79012C6.27109 7.79214 6.27009 7.79415 6.26807 7.79718C6.26807 7.79718 6.26706 7.79818 6.26605 7.79919C6.26202 7.80423 6.259 7.81028 6.25497 7.81532C6.25194 7.81835 6.24791 7.82036 6.24186 7.82137C6.23985 7.81835 6.23783 7.81532 6.23581 7.8123C6.2338 7.81028 6.23279 7.80726 6.23178 7.80423C6.22674 7.79617 6.22271 7.7871 6.21767 7.77903C6.21666 7.77601 6.21465 7.77399 6.21364 7.77097C6.23077 7.75282 6.24791 7.73266 6.26404 7.71351C6.26505 7.7125 6.26605 7.71049 6.26706 7.70948C6.27311 7.70242 6.27815 7.69537 6.28319 7.68932C6.29226 7.67823 6.30133 7.66613 6.31041 7.65505C6.31343 7.65101 6.31646 7.64698 6.32049 7.64194C6.33762 7.61876 6.35476 7.59658 6.37089 7.5744C6.37089 7.5744 6.37089 7.5734 6.3719 7.57239C6.37391 7.56936 6.37694 7.56533 6.37895 7.56231C6.38702 7.55122 6.39407 7.53912 6.40113 7.52804C6.40718 7.51795 6.41323 7.50687 6.41827 7.49578C6.41827 7.49578 6.41827 7.49376 6.41927 7.49376C6.41927 7.49275 6.42028 7.49175 6.42129 7.49074C6.42129 7.48872 6.42331 7.48671 6.42431 7.48469C6.43036 7.47259 6.4354 7.4605 6.43943 7.44739C6.43943 7.44638 6.43943 7.44437 6.44044 7.44336C6.44145 7.44034 6.44246 7.43631 6.44447 7.43328C6.44649 7.42723 6.4475 7.42119 6.44951 7.41614C6.44951 7.41614 6.44951 7.41312 6.44951 7.41211C6.45153 7.40405 6.45355 7.39699 6.45556 7.38893C6.45556 7.3849 6.45556 7.38086 6.45355 7.37784C6.47068 7.3476 6.49185 7.31937 6.51705 7.29115C6.51504 7.29216 6.51201 7.29417 6.51 7.29518C6.48681 7.3103 6.47169 7.33046 6.45052 7.34659C6.43339 7.3597 6.40113 7.33853 6.42129 7.3224C6.4354 7.31232 6.44548 7.30022 6.45758 7.28913C6.45758 7.28913 6.45758 7.28712 6.45959 7.28611C6.4858 7.2599 6.511 7.22664 6.54124 7.20547C6.55939 7.19236 6.57552 7.18128 6.59064 7.16817C6.59265 7.16616 6.59568 7.16414 6.59769 7.16212C6.60878 7.147 6.62088 7.1339 6.63297 7.1218C6.63297 7.1218 6.63398 7.12079 6.63499 7.11979C6.78821 6.97261 7.04526 6.97866 7.24686 6.88492C7.32649 6.85266 7.42226 6.90104 7.5029 6.88492C7.55128 6.88492 7.59866 6.88492 7.64704 6.91717C7.50391 6.9958 7.37085 7.0835 7.2398 7.16615L7.23678 7.16716ZM7.56338 6.05632C7.54725 6.04019 7.61176 6.05632 7.62688 6.02407H7.49887C7.48274 6.02407 7.48274 6.00794 7.48274 5.99181C7.4031 6.00794 7.30734 6.04019 7.2267 6.05532C7.11481 6.08757 7.01905 6.1672 6.89103 6.19946C6.71563 6.26297 6.57149 6.40711 6.37996 6.47062C6.36383 6.47062 6.36383 6.45449 6.36383 6.43836C6.37996 6.38998 6.44347 6.37486 6.47572 6.32647C6.47572 6.31034 6.47572 6.29422 6.45959 6.29422C6.58761 6.11882 6.76301 6.02306 6.92329 5.87891V5.83053C6.97167 5.76702 7.0513 5.73476 7.08255 5.65513C7.09868 5.60674 7.16219 5.54324 7.24182 5.51098C7.22569 5.49485 7.19343 5.49485 7.19343 5.4626C7.12993 5.4626 7.06542 5.49485 7.00191 5.44647C7.03215 5.41623 7.06542 5.4001 7.10171 5.39002C7.08759 5.387 7.0755 5.37994 7.06542 5.36684C7.04929 5.33458 7.09666 5.2993 7.14505 5.2872C7.20856 5.27107 7.2892 5.27107 7.33657 5.2237C7.22468 5.20757 7.09666 5.25595 6.98477 5.19144C7.06441 4.98379 7.19243 4.80839 7.38395 4.71263C7.40008 4.71263 7.43234 4.71263 7.43234 4.72876C7.43234 4.80839 7.38395 4.8729 7.30432 4.88802C7.43234 4.92028 7.56036 4.92028 7.68737 4.98379C7.67124 5.01604 7.63898 4.99992 7.62386 4.99992C7.70349 5.0483 7.79926 5.01604 7.8799 5.07955C7.83151 5.12793 7.78414 5.07955 7.73575 5.07955C8.23069 5.2237 8.75788 5.33559 9.17319 5.65412C8.82139 5.82952 8.45447 5.91016 8.07142 5.98979C8.02304 5.98979 7.99179 5.98979 7.9434 5.97366C7.9434 5.98979 7.9434 6.02205 7.92727 6.02205C7.86377 6.02205 7.81538 6.02205 7.76801 6.05431C7.7045 6.08656 7.60773 6.10269 7.56035 6.05431L7.56338 6.05632Z" fill="white"/>
<path d="M23.9936 0H14.9002C14.9002 0 14.9173 0.00302407 14.9869 0.0403209C15.0605 0.0796338 15.1562 0.131043 15.2167 0.162292C15.3336 0.223781 15.4476 0.300391 15.5211 0.418329C15.5534 0.466714 15.6008 0.562476 15.5695 0.625982C15.5373 0.705616 15.5211 0.833634 15.4415 0.865891C15.3457 0.914276 15.2177 0.914276 15.1058 0.898148C15.0423 0.898148 14.9778 0.882019 14.9143 0.865891C15.1542 0.961653 15.378 1.07354 15.5373 1.29732C15.5534 1.32958 15.6169 1.34571 15.6814 1.34571C15.6975 1.34571 15.6975 1.37797 15.6975 1.39409C15.6653 1.42635 15.634 1.44248 15.6492 1.48986H15.6975C15.7772 1.4576 15.761 1.29833 15.8729 1.34571C15.9526 1.39409 15.9848 1.50498 15.9364 1.58562C15.8729 1.64912 15.8084 1.69751 15.7449 1.74489C15.7288 1.77714 15.7288 1.82452 15.7449 1.85678C15.7933 1.92028 15.8084 1.9848 15.8246 2.0483C15.8729 2.16019 15.8881 2.28821 15.9364 2.4001C15.9999 2.64001 16.0645 2.87891 16.0483 3.11882C16.0483 3.24684 15.9848 3.35873 16.0322 3.48574C16.0645 3.61376 16.1441 3.70952 16.2076 3.82141C16.2711 3.91717 16.3356 3.98068 16.383 4.07745C16.4788 4.23672 16.6542 4.39699 16.5745 4.58852C16.5261 4.70041 16.3507 4.68428 16.2389 4.74778C16.1431 4.82742 16.2227 4.95544 16.2711 5.03507C16.3507 5.17922 16.1753 5.27498 16.0635 5.32236C16.0957 5.37074 16.1592 5.35461 16.1753 5.38586C16.1915 5.4655 16.2711 5.51388 16.2237 5.59351C16.1602 5.68928 15.9677 5.73766 16.0645 5.8808C16.128 5.99269 16.0866 6.11668 16.0483 6.2326C16 6.37675 15.8729 6.44025 15.761 6.47251C15.6653 6.50477 15.5534 6.50477 15.4576 6.48864C15.4254 6.47251 15.3941 6.45638 15.3619 6.45638C15.0907 6.42413 14.8185 6.34449 14.5474 6.34449C14.4678 6.36062 14.3881 6.37675 14.3236 6.408C14.251 6.46142 14.1875 6.51888 14.1301 6.57936C14.1301 6.57936 14.1291 6.58037 14.1281 6.58138C14.116 6.59448 14.1049 6.60658 14.0928 6.61968C14.0857 6.62775 14.0787 6.63581 14.0726 6.64387C14.0676 6.64891 14.0635 6.65496 14.0595 6.66C14.0131 6.71847 13.9708 6.77996 13.9335 6.84447C13.9315 6.8485 13.9285 6.85253 13.9264 6.85657C13.9224 6.86362 13.9184 6.87169 13.9144 6.87874C13.8619 6.97551 13.8226 7.07531 13.7934 7.17208C13.6845 7.53799 13.7319 7.85148 13.8085 7.92809C13.8297 7.94926 14.3357 8.10551 14.6885 8.26276C14.8538 8.33634 14.9698 8.39279 15.0655 8.45327H23.9956V0H23.9936Z" fill="white"/>
<path d="M15.4404 3.08178C15.5039 3.09791 15.5996 3.09791 15.5996 3.13016C15.5674 3.25818 15.3759 3.28943 15.2801 3.41745H15.2317C15.1833 3.44971 15.1995 3.52934 15.1521 3.52934C15.1037 3.51321 15.0563 3.52934 15.0079 3.54547C15.0714 3.60897 15.1521 3.65736 15.2478 3.64123C15.264 3.64123 15.2962 3.67349 15.2962 3.70474C15.2962 3.70474 15.3124 3.70474 15.3285 3.68861C15.3446 3.68861 15.3607 3.68861 15.3607 3.70474V3.76824C15.3124 3.83175 15.2327 3.8005 15.1692 3.81663C15.2972 3.84888 15.4253 3.84888 15.5361 3.81663C15.6319 3.78437 15.5361 3.6251 15.5996 3.54547C15.5674 3.54547 15.5996 3.49708 15.5674 3.49708C15.5996 3.46483 15.6309 3.41745 15.6631 3.40132C15.6954 3.40132 15.7428 3.38519 15.7589 3.35294C15.7589 3.32068 15.6954 3.30556 15.7105 3.2733C15.8063 3.2098 15.8859 3.11403 15.8547 3.01726C15.8385 2.96888 15.7105 2.96888 15.6309 2.93763C15.5513 2.90537 15.4555 2.93763 15.3597 2.95376C15.2801 2.95376 15.1995 3.00214 15.1198 3.01726C15.0079 3.04952 14.9122 3.11303 14.8164 3.17653C14.9283 3.12815 15.0402 3.11303 15.1682 3.08077C15.264 3.08077 15.3456 3.05758 15.4394 3.08077L15.4404 3.08178Z" fill="#9D9D9C"/>
</g>
<defs>
<clipPath id="clip0_14349_44454">
<rect width="54.657" height="48" fill="white" transform="translate(0.745117)"/>
</clipPath>
</defs>
</svg>
