<svg width="55" height="48" viewBox="0 0 55 48" fill="none" xmlns="http://www.w3.org/2000/svg">
<rect width="23.2913" height="8.46956" transform="translate(0.0742188)" fill="white"/>
<path d="M7.59534 7.44598C7.59815 7.44598 7.60096 7.44183 7.60096 7.44183C7.62345 7.42523 7.64593 7.40447 7.66561 7.37956C7.6628 7.37956 7.65999 7.37956 7.65718 7.37541C7.6375 7.39616 7.61501 7.42107 7.59534 7.44598Z" fill="#000091"/>
<path d="M10.7102 6.39655L10.661 6.43889C10.6891 6.43183 10.7102 6.42478 10.7102 6.39655Z" fill="#000091"/>
<path fill-rule="evenodd" clip-rule="evenodd" d="M9.70312 7.46856C9.79334 7.37781 9.88356 7.28157 9.97378 7.18257H9.97105C10.1406 6.99009 10.3046 6.80585 10.5014 6.63811C10.5616 6.58311 10.619 6.53636 10.6737 6.49787C10.6817 6.48979 10.6858 6.47776 10.6898 6.46596C10.694 6.45367 10.6981 6.44164 10.7065 6.43462C10.6675 6.44949 10.6365 6.473 10.6052 6.49665C10.5729 6.52112 10.5404 6.54573 10.4987 6.56111C10.4823 6.56111 10.4659 6.54461 10.4823 6.52811C10.5397 6.48687 10.5971 6.44287 10.6518 6.39887H10.6409C10.6245 6.39887 10.6245 6.38237 10.6245 6.36587C10.4209 6.33355 10.2646 6.47273 10.1247 6.59733L10.1159 6.60511C10.0942 6.61606 10.0736 6.6052 10.0574 6.59666C10.0492 6.59234 10.0422 6.58861 10.0367 6.58861C9.91285 6.63012 9.80608 6.70665 9.69861 6.78368C9.59962 6.85463 9.50003 6.92601 9.38599 6.97084V6.93784C9.34726 6.95119 9.30899 6.9686 9.27062 6.98605C9.21417 7.01172 9.15752 7.03749 9.09893 7.05058C8.99192 7.07542 8.89267 7.07222 8.79649 7.06911C8.7649 7.06809 8.73359 7.06708 8.70251 7.06708C8.52741 7.08444 8.35453 7.12195 8.18188 7.1594L8.12565 7.17158C8.12291 7.17295 8.12018 7.17364 8.11744 7.17432C8.11471 7.17501 8.11198 7.1757 8.10924 7.17707C8.00535 7.20457 7.90967 7.24307 7.81398 7.29807L7.80304 7.30357C7.79928 7.30861 7.79553 7.31307 7.79203 7.31722C7.7879 7.32212 7.78413 7.3266 7.78117 7.33107C7.74836 7.36956 7.71829 7.40256 7.67181 7.42731C7.60317 7.46183 7.54384 7.51507 7.48547 7.56745C7.46018 7.59015 7.43497 7.61277 7.40936 7.63355C7.40389 7.63905 7.39295 7.6418 7.38475 7.6418C7.30001 7.72428 7.21524 7.8068 7.12776 7.88653C7.12229 7.89203 7.09769 7.89478 7.07855 7.89203C7.07855 7.89203 7.08128 7.89203 7.08128 7.88928L7.08949 7.87278L7.13049 7.80679C7.1387 7.79441 7.14621 7.78204 7.15373 7.76966C7.16125 7.75729 7.16877 7.74492 7.17697 7.73254C7.19882 7.69957 7.22073 7.66652 7.24532 7.6363C7.25079 7.62805 7.25079 7.6198 7.24532 7.6143C7.23985 7.6088 7.23165 7.60605 7.22345 7.60605C7.30273 7.52905 7.39569 7.46306 7.49137 7.40531V7.40256C7.48044 7.40531 7.46404 7.39706 7.47224 7.38606C7.48026 7.37598 7.48681 7.36441 7.49297 7.35354L7.49958 7.34206C7.50094 7.33932 7.50163 7.33725 7.50231 7.33519C7.50299 7.33313 7.50368 7.33107 7.50504 7.32832C7.50368 7.32557 7.50163 7.3235 7.49957 7.32144C7.49752 7.31938 7.49547 7.31732 7.49411 7.31457L7.47753 7.32551C7.45772 7.33847 7.43734 7.35181 7.42029 7.36681C7.40822 7.37722 7.39696 7.39146 7.38541 7.40608C7.36033 7.4378 7.33383 7.47131 7.29453 7.47131C7.2918 7.47131 7.27813 7.47131 7.26993 7.46856C7.26172 7.46856 7.25626 7.46581 7.25352 7.46306C7.25352 7.46169 7.25352 7.46099 7.25386 7.46065C7.25421 7.46031 7.25489 7.46031 7.25626 7.46031C7.25626 7.46031 7.25899 7.45756 7.25899 7.45481C7.25899 7.45481 7.25899 7.45206 7.26172 7.45206C7.26309 7.44931 7.26446 7.44725 7.26582 7.44518C7.26719 7.44312 7.26856 7.44106 7.26993 7.43831C7.27129 7.43556 7.27266 7.4335 7.27403 7.43143C7.27539 7.42937 7.27676 7.42731 7.27813 7.42456C7.27949 7.42318 7.28018 7.42112 7.28086 7.41906C7.28154 7.417 7.28223 7.41494 7.2836 7.41356L7.28668 7.40789C7.28939 7.40307 7.29262 7.39731 7.29453 7.39156C7.2959 7.38881 7.29726 7.38675 7.29863 7.38469C7.3 7.38263 7.30137 7.38056 7.30273 7.37781C7.30683 7.37231 7.31025 7.36613 7.31367 7.35994C7.31709 7.35375 7.3205 7.34756 7.3246 7.34206C7.32734 7.33657 7.33007 7.33107 7.33554 7.32557C7.33827 7.32007 7.34101 7.31525 7.34374 7.31044C7.34648 7.30563 7.34921 7.30082 7.35194 7.29532C7.36015 7.28157 7.35194 7.27057 7.34101 7.26782C7.37108 7.22932 7.40662 7.19632 7.45037 7.17158H7.4449C7.48264 7.15259 7.52146 7.13036 7.56001 7.10828C7.58277 7.09524 7.60579 7.08206 7.62807 7.06983C7.63627 7.06158 7.64447 7.05333 7.65541 7.04783C7.56519 7.07808 7.48317 7.11933 7.40389 7.17432C7.40389 7.17432 7.38202 7.18257 7.37655 7.18807C7.37655 7.18807 7.36015 7.19357 7.33827 7.17432C7.33554 7.17158 7.33554 7.16883 7.33554 7.16333C7.34504 7.14421 7.36464 7.13155 7.38583 7.11787C7.40121 7.10793 7.41743 7.09746 7.43123 7.08358C7.44763 7.08358 7.4613 7.08358 7.4613 7.10008C7.77617 6.85319 8.16441 6.79607 8.55398 6.73876C8.79357 6.70351 9.03366 6.66819 9.25749 6.58861C9.28073 6.57211 9.30465 6.5563 9.32858 6.54049C9.3525 6.52468 9.37642 6.50886 9.39966 6.49237C9.43953 6.47577 9.47526 6.44735 9.5131 6.41725C9.55049 6.3875 9.58995 6.35611 9.63751 6.33287C9.76327 6.23663 9.85896 6.12664 9.90817 5.9644C9.90817 5.9479 9.89176 5.9314 9.89176 5.9314C9.68399 6.15414 9.44613 6.33012 9.19188 6.45937C8.94943 6.58729 8.68966 6.60625 8.4325 6.62501C8.33587 6.63206 8.23961 6.63909 8.14478 6.65186C8.16119 6.61886 8.19399 6.61886 8.22407 6.61886C8.22407 6.57981 8.24278 6.56301 8.26679 6.54146C8.27321 6.53569 8.28003 6.52958 8.28695 6.52261H8.33342C8.34163 6.52261 8.34573 6.51436 8.34983 6.50611C8.35393 6.49787 8.35803 6.48962 8.36623 6.48962C8.39904 6.48962 8.44552 6.47312 8.42911 6.47312C8.40403 6.44088 8.36759 6.45365 8.32739 6.46773C8.28871 6.48127 8.24654 6.49604 8.20766 6.47312C8.22212 6.45725 8.22647 6.43822 8.23043 6.42089C8.2347 6.40217 8.23852 6.38544 8.25414 6.37687H8.31702C8.31702 6.34387 8.34983 6.31363 8.34983 6.31363C8.49241 6.2279 8.63009 6.15306 8.7652 6.0796C8.85545 6.03054 8.94464 5.98205 9.03331 5.9314C9.01537 5.9314 8.99947 5.93877 8.98403 5.94593C8.95947 5.95732 8.93609 5.96816 8.90755 5.9479C8.92395 5.9479 8.92395 5.93621 8.92395 5.92452C8.92395 5.91284 8.92395 5.90115 8.94036 5.90115C9.04292 5.87375 9.13421 5.82934 9.22745 5.78398C9.29326 5.75197 9.36006 5.71947 9.43246 5.69216C9.41097 5.69216 9.39108 5.69795 9.37169 5.70358C9.33435 5.71443 9.29888 5.72474 9.25749 5.69216C9.26836 5.6867 9.27712 5.67973 9.28578 5.67285C9.30325 5.65895 9.32027 5.64542 9.35318 5.64542V5.59867C9.35318 5.58217 9.36959 5.58217 9.38599 5.58217C9.36959 5.58217 9.35318 5.56567 9.35318 5.56567C9.36187 5.5482 9.37898 5.5446 9.39803 5.5406C9.41496 5.53704 9.43343 5.53316 9.44887 5.51892C9.43246 5.51892 9.40239 5.51892 9.40239 5.50242C9.44887 5.43918 9.52815 5.42268 9.60744 5.40618C9.59923 5.38968 9.58352 5.38968 9.56985 5.38968C9.55618 5.38968 9.54456 5.38968 9.54456 5.37318C9.54456 5.35668 9.56096 5.35668 9.57736 5.35668H9.54456C9.51881 5.34374 9.52337 5.32063 9.52653 5.30463C9.52739 5.30025 9.52815 5.2964 9.52815 5.29344C9.59238 5.21776 9.61349 5.12846 9.63449 5.03967C9.64478 4.99617 9.65504 4.9528 9.67032 4.91121C9.65391 4.91121 9.63751 4.91121 9.63751 4.89471C9.48378 5.06532 9.24013 5.12998 9.00867 5.19139L8.98683 5.19719H8.90755C8.82827 5.23019 8.71618 5.23019 8.63689 5.18069C8.59919 5.16091 8.5723 5.13618 8.54326 5.10948C8.52386 5.09164 8.5035 5.07292 8.47832 5.0542C8.34983 4.97446 8.22407 4.91121 8.0819 4.86171C7.68548 4.73522 7.27266 4.66922 6.85984 4.68572C6.97512 4.62231 7.09752 4.5971 7.22157 4.57154C7.2858 4.55831 7.35047 4.54499 7.41482 4.52623C7.45542 4.51427 7.49564 4.50194 7.53565 4.48967C7.76241 4.42016 7.9824 4.35272 8.22407 4.36674C8.19243 4.35551 8.15193 4.35957 8.11463 4.36331C8.09713 4.36506 8.08034 4.36674 8.0655 4.36674C7.88276 4.35313 7.69815 4.39382 7.50554 4.43627C7.46474 4.44526 7.42359 4.45433 7.38202 4.46299C7.30658 4.47868 7.23485 4.50123 7.16301 4.52381C7.08385 4.54869 7.00454 4.57362 6.91998 4.58948C6.8833 4.60213 6.85386 4.62366 6.82517 4.64464C6.77902 4.67839 6.73485 4.7107 6.66573 4.70222V4.65272C6.82429 4.46024 7.01567 4.2705 7.26993 4.254C7.5157 4.21398 7.74744 4.24248 7.98918 4.27222C8.02979 4.27722 8.07068 4.28225 8.11198 4.287C8.31015 4.30294 8.49556 4.34715 8.69535 4.39478L8.71617 4.39974C8.75992 4.39974 8.78452 4.43824 8.80835 4.47554C8.82771 4.50584 8.84656 4.53534 8.87474 4.54273C8.91367 4.55615 8.95259 4.55866 8.99151 4.56116C9.04828 4.56481 9.10504 4.56846 9.16181 4.60598C9.16181 4.59487 9.15995 4.58408 9.15811 4.57339C9.15448 4.55231 9.15092 4.53163 9.16181 4.50973C9.19708 4.47425 9.23752 4.48377 9.27732 4.49314C9.30848 4.50048 9.33924 4.50772 9.36685 4.49323C9.45355 4.43943 9.37223 4.35683 9.29083 4.27416C9.25159 4.2343 9.21233 4.19443 9.19188 4.15775C9.19188 4.14125 9.20828 4.12476 9.20828 4.12476C9.24418 4.15694 9.27764 4.19025 9.3108 4.22327C9.3938 4.30591 9.475 4.38676 9.5883 4.44374C9.66758 4.47673 9.85896 4.52348 9.82615 4.42724C9.77 4.30259 9.67407 4.19449 9.57722 4.08536C9.53733 4.04042 9.49729 3.99529 9.4598 3.94877V3.88552C9.43488 3.88552 9.42889 3.876 9.42146 3.86419C9.41911 3.86046 9.41661 3.85649 9.41333 3.85252V3.78928C9.37325 3.76824 9.36427 3.73492 9.35524 3.70142C9.3501 3.68236 9.34495 3.66324 9.33404 3.64628C9.30664 3.60188 9.30467 3.54723 9.30264 3.49091C9.30102 3.44609 9.29937 3.4002 9.28483 3.35755C9.25202 3.26131 9.23836 3.18156 9.22195 3.08532C9.20415 2.98685 9.18457 2.89271 9.16539 2.80054C9.13155 2.63788 9.09898 2.48135 9.07979 2.31811C9.05448 2.0848 9.17231 1.88748 9.29277 1.68577C9.32847 1.62597 9.36442 1.56578 9.39692 1.50416C9.50902 1.31167 9.63478 1.12193 9.84255 0.992691C9.88789 0.804952 10.0112 0.648603 10.134 0.493028L10.1433 0.481221C10.2644 0.330246 10.4667 0.237949 10.6158 0.169928L10.6327 0.16224C10.8541 0.0632463 11.0537 0 11.0564 0H0.0742188V8.46675H7.86592C8.07431 8.31569 8.28141 8.22038 8.52794 8.10693C8.64042 8.05516 8.76111 7.99962 8.89388 7.93328C8.922 7.91914 8.95541 7.9027 8.99249 7.88446C9.21502 7.77498 9.56956 7.60055 9.70312 7.46856ZM7.23073 6.32626C7.19982 6.32937 7.16704 6.33266 7.17941 6.30782C7.19089 6.25217 7.24789 6.23548 7.30354 6.21919C7.32737 6.21221 7.35095 6.20531 7.37061 6.19544L7.3796 6.1908L7.38617 6.18732C7.41699 6.17095 7.45473 6.1509 7.4826 6.16255C7.50138 6.18926 7.52466 6.19616 7.54728 6.20286C7.56412 6.20785 7.58059 6.21273 7.59458 6.22559C7.53549 6.28489 7.46654 6.29074 7.39662 6.29667C7.35018 6.30061 7.30331 6.30458 7.25862 6.32427C7.2506 6.32427 7.24075 6.32526 7.23073 6.32626ZM4.81198 5.93957C4.81198 5.95607 4.82838 5.97257 4.82838 5.97257C5.21113 5.54085 5.55834 5.17237 6.05045 4.86714C6.06362 4.86161 6.05872 4.86851 6.05221 4.87767C6.0425 4.89132 6.02922 4.91001 6.06685 4.90013C6.22977 4.86299 6.30294 4.72343 6.37412 4.58765C6.39253 4.55254 6.4108 4.51768 6.43046 4.48491C6.50512 4.36348 6.61116 4.28569 6.71801 4.20729C6.79506 4.15076 6.87254 4.09392 6.93897 4.02019C6.93897 4.03669 6.93897 4.05318 6.92257 4.06968C6.93897 4.08618 6.95538 4.08618 6.97178 4.08618C7.00062 4.06442 7.0321 4.05542 7.06228 4.04679C7.10076 4.03578 7.13711 4.02538 7.16316 3.98994C7.0374 3.94044 6.87609 3.92394 6.75033 3.97344C6.41679 4.13293 6.13246 4.38866 5.8618 4.6774C5.69777 4.85064 5.52826 5.01288 5.32049 5.12562C5.17832 5.4116 5.01975 5.66734 4.81198 5.93957ZM6.14668 4.91687C6.13811 4.93406 6.12954 4.94302 6.12137 4.95156C6.11391 4.95936 6.10676 4.96684 6.10025 4.97991C6.08386 5.0128 6.06747 5.02651 6.03743 5.04295C6.02104 5.04295 6.00465 5.04295 6.00465 5.02651C6.02104 4.96346 6.06747 4.90042 6.13029 4.88398C6.14668 4.88672 6.14668 4.90316 6.14668 4.91687ZM6.84579 7.3589C6.85945 7.34515 6.87584 7.32865 6.88403 7.31216C6.89769 7.27916 6.81301 7.28741 6.79936 7.29566C6.78697 7.30564 6.77907 7.31562 6.76955 7.32765L6.76658 7.3314C6.75519 7.34451 6.74186 7.35665 6.72832 7.36897C6.71913 7.37732 6.70986 7.38576 6.70103 7.39465C6.66279 7.43315 6.62455 7.47165 6.58358 7.50739C6.55627 7.53214 6.64367 7.54314 6.66279 7.52664C6.68464 7.51014 6.70376 7.49089 6.72288 7.47165C6.73016 7.47165 6.73745 7.47042 6.7423 7.46961L6.74564 7.46907L6.74746 7.4689C6.79274 7.4537 6.82644 7.42218 6.85921 7.39152L6.86764 7.38365C6.87857 7.37265 6.86491 7.36165 6.84579 7.3589ZM6.59861 7.18008C6.5983 7.18013 6.59808 7.18022 6.59793 7.18037C6.59759 7.18071 6.59759 7.1814 6.59759 7.18277C6.58082 7.19427 6.56427 7.20599 6.54775 7.21767C6.50501 7.24791 6.4625 7.27799 6.41715 7.30377C6.37378 7.32819 6.32932 7.3493 6.28445 7.3706C6.2586 7.38286 6.23262 7.3952 6.20664 7.40826C6.20664 7.40826 6.20664 7.40551 6.2039 7.40551C6.19844 7.39726 6.1875 7.39451 6.17656 7.40001C6.11642 7.43301 6.06447 7.47701 6.018 7.52375C6.00979 7.52925 6.00159 7.5375 5.99613 7.54575L5.97152 7.5705V7.57325C5.96058 7.58425 5.94965 7.59525 5.93598 7.61175C5.93314 7.61461 5.93095 7.61747 5.92885 7.62021C5.9249 7.62538 5.92125 7.63015 5.91411 7.63375C5.90317 7.63925 5.87583 7.63925 5.87857 7.62275V7.62C5.87036 7.6255 5.85943 7.631 5.85123 7.63375C5.84713 7.6365 5.84303 7.63856 5.83892 7.64062C5.83482 7.64268 5.83072 7.64475 5.82662 7.6475C5.82389 7.64475 5.81842 7.64475 5.81569 7.64475C5.81295 7.64475 5.80748 7.64475 5.80475 7.6475C5.79837 7.653 5.79199 7.65819 5.78561 7.66339C5.77285 7.67377 5.7601 7.68416 5.74734 7.69699C5.71453 7.72724 5.68446 7.76024 5.65438 7.79599C5.65438 7.79599 5.65438 7.79874 5.65165 7.79874C5.65165 7.80011 5.65097 7.8008 5.65028 7.80149C5.6496 7.80218 5.64892 7.80286 5.64892 7.80424L5.64345 7.80974C5.6424 7.81079 5.64176 7.81184 5.64121 7.81274C5.64032 7.81419 5.63967 7.81524 5.63798 7.81524L5.63525 7.81799C5.63251 7.82349 5.62978 7.82899 5.62431 7.83449C5.62158 7.83724 5.61611 7.83999 5.61064 7.83999C5.60791 7.83724 5.60517 7.83449 5.60517 7.83174C5.60381 7.83036 5.60312 7.82899 5.60244 7.82761C5.60176 7.82624 5.60107 7.82486 5.59971 7.82349C5.59697 7.81936 5.59492 7.81524 5.59287 7.81111C5.59082 7.80699 5.58877 7.80286 5.58604 7.79874V7.79599C5.58604 7.79461 5.58535 7.79324 5.58467 7.79186C5.58398 7.79049 5.5833 7.78911 5.5833 7.78774L5.63251 7.72999L5.63525 7.72724C5.63798 7.72449 5.64071 7.72106 5.64344 7.71763C5.64617 7.71419 5.64892 7.71074 5.65165 7.70799C5.65575 7.70249 5.66053 7.69699 5.66532 7.6915C5.6701 7.686 5.67489 7.68049 5.67899 7.675C5.68036 7.67225 5.68172 7.67018 5.68309 7.66812C5.68446 7.66606 5.68582 7.664 5.68719 7.66125C5.70359 7.63925 5.72 7.61725 5.7364 7.5925V7.58975C5.73914 7.587 5.74187 7.58425 5.74187 7.57875C5.75007 7.56776 5.75828 7.55675 5.76374 7.54575L5.78014 7.51276V7.51L5.78288 7.50726C5.78288 7.50588 5.78356 7.50519 5.78425 7.50451C5.78493 7.50382 5.78561 7.50313 5.78561 7.50176C5.78834 7.49489 5.79108 7.4887 5.79381 7.48252C5.79654 7.47633 5.79928 7.47013 5.80202 7.46326V7.46051L5.80475 7.44951C5.80612 7.44676 5.8068 7.44401 5.80748 7.44126C5.80817 7.43851 5.80885 7.43576 5.81022 7.43301V7.43026C5.81158 7.42613 5.81227 7.42201 5.81295 7.41788C5.81364 7.41376 5.81432 7.40964 5.81569 7.40551C5.81569 7.40276 5.81569 7.39726 5.81295 7.39451C5.82935 7.36426 5.85123 7.33677 5.87583 7.30927C5.87447 7.30927 5.8731 7.30995 5.87173 7.31064C5.87095 7.31104 5.87016 7.31143 5.86938 7.31169C5.8688 7.31189 5.86821 7.31202 5.86763 7.31202C5.85546 7.31967 5.84499 7.32987 5.83432 7.34026C5.82581 7.34854 5.81719 7.35694 5.80748 7.36426C5.79108 7.37801 5.75827 7.35601 5.78014 7.33952C5.79381 7.32852 5.80474 7.31752 5.81568 7.30653C5.81568 7.30653 5.81569 7.30377 5.81842 7.30377C5.82932 7.2939 5.83978 7.28273 5.85033 7.27146C5.86624 7.25447 5.88236 7.23725 5.90044 7.22402C5.91957 7.21027 5.93324 7.19927 5.94965 7.18552C5.95238 7.18277 5.95512 7.18003 5.95785 7.18003C5.96879 7.16628 5.97972 7.15253 5.99339 7.13878C5.99339 7.13878 5.99613 7.13878 5.99613 7.13603C6.09001 7.04497 6.22194 7.01285 6.35659 6.98007C6.44152 6.95939 6.52754 6.93845 6.60579 6.90229C6.64999 6.8839 6.69928 6.89114 6.74798 6.89829C6.78666 6.90397 6.82496 6.90959 6.86005 6.90229C6.90652 6.90229 6.95573 6.90229 7.00221 6.93529C6.89411 6.99285 6.79094 7.05868 6.68887 7.1238C6.65932 7.14266 6.62978 7.16151 6.60032 7.18003C6.59956 7.18003 6.59901 7.18003 6.59861 7.18008ZM6.94025 6.05932C6.92745 6.06079 6.91916 6.06175 6.92627 6.0689C6.97274 6.11564 7.06843 6.09914 7.13405 6.0634C7.18052 6.0304 7.22973 6.0304 7.29261 6.0304C7.30902 6.0304 7.30902 6.00015 7.30902 5.98365C7.35549 6.00015 7.3883 6.00015 7.43478 6.00015C7.81479 5.9204 8.18114 5.84066 8.53108 5.66467C8.177 5.39108 7.74046 5.26921 7.31289 5.14984C7.24195 5.13004 7.17126 5.1103 7.10124 5.08995C7.11663 5.08995 7.13202 5.09508 7.14751 5.10024C7.1788 5.11066 7.21049 5.12122 7.2434 5.08995C7.20002 5.05535 7.15173 5.04873 7.10391 5.04218C7.06432 5.03676 7.02505 5.03138 6.98915 5.01021C6.99289 5.01021 6.99735 5.01107 7.00219 5.012C7.01857 5.01516 7.03937 5.01918 7.05203 4.99371C6.96898 4.95195 6.88594 4.93776 6.8021 4.92344C6.75898 4.91607 6.71565 4.90867 6.67201 4.89747C6.7513 4.88097 6.80051 4.81772 6.80051 4.73798C6.80051 4.72148 6.7677 4.72148 6.7513 4.72148C6.56265 4.81772 6.43416 4.99371 6.35488 5.19995C6.42635 5.24203 6.50339 5.23715 6.5789 5.23237C6.6218 5.22965 6.66421 5.22697 6.70482 5.23295C6.66897 5.267 6.61716 5.27625 6.56737 5.28514C6.5488 5.28845 6.53052 5.29171 6.51344 5.29619C6.46423 5.30719 6.41776 5.34294 6.43416 5.37594C6.44509 5.38969 6.45603 5.39519 6.4697 5.39794C6.43416 5.40894 6.40135 5.42543 6.37128 5.45568C6.41629 5.49111 6.4627 5.48427 6.5085 5.47753C6.52669 5.47485 6.54478 5.47218 6.56265 5.47218C6.56265 5.49215 6.57576 5.49894 6.58939 5.50599C6.59641 5.50962 6.60356 5.51332 6.60913 5.51893C6.52985 5.54918 6.46697 5.61517 6.45056 5.66192C6.43097 5.70955 6.39479 5.74051 6.35892 5.7712C6.33474 5.79188 6.31071 5.81244 6.292 5.83791V5.88741C6.23918 5.93423 6.1849 5.97604 6.13136 6.01727C6.02139 6.10198 5.91454 6.18427 5.82996 6.30263C5.84636 6.30263 5.84636 6.31913 5.84636 6.33563C5.83124 6.35845 5.80972 6.37426 5.78931 6.38925C5.76545 6.40677 5.74311 6.42318 5.73427 6.44837C5.73427 6.46487 5.73427 6.48137 5.75068 6.48137C5.851 6.44822 5.9378 6.39239 6.02289 6.33766C6.10012 6.28799 6.17594 6.23923 6.25919 6.20914C6.32722 6.19278 6.38645 6.16193 6.44424 6.13183C6.49328 6.10629 6.54127 6.08129 6.59273 6.06615C6.63237 6.0579 6.67611 6.04621 6.71985 6.03452C6.7636 6.02284 6.80734 6.01115 6.84698 6.0029C6.84698 6.0194 6.84698 6.0359 6.86339 6.0359H6.98915C6.9814 6.0546 6.95698 6.0574 6.94025 6.05932Z" fill="#000091"/>
<path d="M23.3655 0H14.2583C14.2583 0 14.2748 0.00275344 14.3437 0.0385481C14.418 0.0770962 14.5144 0.129411 14.5722 0.159699C14.6906 0.220275 14.8034 0.297371 14.8778 0.415769C14.9108 0.462577 14.9576 0.558947 14.9273 0.622276C14.8943 0.702126 14.8778 0.831537 14.7979 0.861825C14.7016 0.911387 14.5749 0.911387 14.462 0.894866C14.3987 0.894866 14.3354 0.878346 14.2693 0.861825C14.5089 0.958195 14.7346 1.07109 14.8943 1.29411C14.9108 1.32716 14.9741 1.34092 15.0374 1.34092C15.054 1.34092 15.054 1.37396 15.054 1.38773C15.0209 1.42077 14.9906 1.43729 15.0072 1.4841H15.054C15.1338 1.45106 15.1173 1.29136 15.2302 1.34092C15.31 1.38773 15.343 1.50062 15.2935 1.58047C15.2302 1.6438 15.1668 1.69336 15.1008 1.74017C15.0842 1.77321 15.0842 1.82002 15.1008 1.85306C15.1476 1.91639 15.1641 1.97972 15.1806 2.0458C15.2302 2.15869 15.2439 2.28535 15.2935 2.39824C15.3568 2.63779 15.4201 2.87734 15.4064 3.11964C15.4064 3.2463 15.343 3.35919 15.3898 3.4886C15.4229 3.61526 15.5027 3.71163 15.566 3.82452C15.6294 3.92089 15.6927 3.98422 15.7422 4.08059C15.8386 4.24029 16.0148 4.39999 15.9349 4.59273C15.8881 4.70562 15.7119 4.6891 15.5991 4.75243C15.5027 4.83228 15.5825 4.96169 15.6321 5.04154C15.7119 5.18472 15.5357 5.28109 15.4229 5.33065C15.4559 5.38021 15.5192 5.36369 15.5357 5.39398C15.5523 5.47383 15.6321 5.52064 15.5825 5.60324C15.5192 5.69961 15.3265 5.74642 15.4229 5.89235C15.4862 6.00524 15.4449 6.12914 15.4064 6.24479C15.3596 6.38797 15.2302 6.4513 15.1173 6.48434C15.0209 6.51738 14.908 6.51738 14.8144 6.50086C14.7814 6.48434 14.7511 6.46782 14.7181 6.46782C14.4455 6.43478 14.173 6.35768 13.9032 6.35768C13.8233 6.3742 13.7435 6.38797 13.6802 6.42101C13.6086 6.47332 13.5425 6.53115 13.4875 6.59172C13.4875 6.59172 13.4875 6.59172 13.4847 6.59448C13.4737 6.60824 13.4599 6.61926 13.4489 6.63302C13.4434 6.64128 13.4352 6.64954 13.4296 6.6578C13.4241 6.66331 13.4214 6.66882 13.4159 6.67432C13.3691 6.73215 13.3278 6.79548 13.2892 6.8588C13.2865 6.86431 13.2837 6.86706 13.281 6.86982C13.2782 6.87808 13.2727 6.88359 13.2672 6.89185C13.2149 6.98822 13.1764 7.08734 13.1461 7.18646C13.036 7.55267 13.0855 7.86656 13.1626 7.94366C13.1846 7.96569 13.6912 8.12263 14.0436 8.27958C14.2088 8.35392 14.3244 8.40899 14.4208 8.46956H23.3627V0H23.3655Z" fill="#E1000F"/>
<path d="M14.7991 3.08735C14.8623 3.10385 14.9584 3.10385 14.9584 3.13685C14.9254 3.26334 14.7359 3.29634 14.6398 3.42558H14.5904C14.5437 3.45858 14.5575 3.53833 14.5108 3.53833C14.4641 3.52183 14.4147 3.53833 14.368 3.55483C14.4311 3.61807 14.5108 3.66757 14.6069 3.65107C14.6234 3.65107 14.6536 3.68407 14.6536 3.71432C14.6536 3.71432 14.67 3.71432 14.6865 3.69782C14.703 3.69782 14.7195 3.69782 14.7195 3.71432V3.77756C14.6728 3.84081 14.5904 3.81056 14.5273 3.82431C14.6563 3.85731 14.7826 3.85731 14.8952 3.82431C14.9913 3.79131 14.8952 3.63182 14.9584 3.55208C14.9254 3.55208 14.9584 3.50258 14.9254 3.50258C14.9584 3.46958 14.9886 3.42283 15.0215 3.40634C15.0545 3.40634 15.1011 3.38984 15.1176 3.35684C15.1176 3.32384 15.0545 3.31009 15.0682 3.27709C15.1643 3.21385 15.2439 3.1176 15.211 3.02136C15.1945 2.97186 15.0682 2.97186 14.9886 2.94161C14.9089 2.91136 14.8128 2.94161 14.7167 2.95811C14.6371 2.95811 14.5575 3.00761 14.4778 3.02136C14.3652 3.05436 14.2691 3.1176 14.1758 3.18085C14.2884 3.1341 14.3982 3.1176 14.5273 3.0846C14.6234 3.08735 14.703 3.06536 14.7991 3.08735Z" fill="#808080"/>
<path d="M0.946584 19.293V13.3643H2.75907C4.06338 13.3643 4.86799 14.0334 4.86799 15.1344C4.86799 15.8543 4.52074 16.3879 3.91093 16.6674L5.76577 19.293H4.35135L2.76754 16.8961H2.14926V19.293H0.946584ZM2.82683 14.3637H2.14926V15.8967H2.82683C3.335 15.8967 3.63144 15.6002 3.63144 15.1175C3.63144 14.6686 3.335 14.3637 2.82683 14.3637ZM8.91598 12.8561H7.82341L8.78047 11.7127H10.017L8.91598 12.8561ZM6.65461 19.293V13.3643H10.1102V14.3637H7.85729V15.7696H9.77141V16.769H7.85729V18.2936H10.1102V19.293H6.65461ZM11.6348 19.293V13.3643H13.5912C14.8956 13.3643 15.6917 14.0334 15.6917 15.1344C15.6917 16.227 14.8956 16.8961 13.5912 16.8961H12.8375V19.293H11.6348ZM13.6421 14.3637H12.8375V15.8967H13.6421C14.1502 15.8967 14.4551 15.6002 14.4551 15.1175C14.4551 14.6686 14.1502 14.3637 13.6421 14.3637ZM20.3098 17.0739V13.3643H21.5125V16.9723C21.5125 18.5307 20.5978 19.4624 19.1071 19.4624C17.6249 19.4624 16.7102 18.5307 16.7102 16.9723V13.3643H17.9129V17.0739C17.9129 17.8701 18.3618 18.3359 19.1156 18.3359C19.8524 18.3359 20.3098 17.8701 20.3098 17.0739ZM23.1335 19.293V13.3643H24.8783C26.1148 13.3643 26.8686 13.9741 26.8686 14.9735C26.8686 15.4563 26.6484 15.8713 26.2334 16.1423C26.8601 16.4218 27.2074 16.93 27.2074 17.5482C27.2074 18.6323 26.3689 19.293 25.0053 19.293H23.1335ZM24.9037 14.3637H24.3362V15.7019H24.9037C25.361 15.7019 25.6321 15.4563 25.6321 15.0243C25.6321 14.6093 25.361 14.3637 24.9037 14.3637ZM25.0731 16.7013H24.3362V18.2936H25.0731C25.6321 18.2936 25.9708 17.9971 25.9708 17.4974C25.9708 16.9892 25.6321 16.7013 25.0731 16.7013ZM28.5686 19.293V13.3643H29.7713V18.2004H32.0242V19.293H28.5686ZM33.2097 19.293V13.3643H34.4123V19.293H33.2097ZM41.1682 19.1405C41.6255 19.5555 42.032 19.708 42.4132 19.708C42.5402 19.708 42.7096 19.691 42.8367 19.6402V20.6566C42.6419 20.7328 42.4725 20.7667 42.2099 20.7667C41.5493 20.7667 40.9395 20.4956 40.3551 19.9875L39.6521 19.3607C39.398 19.4285 39.127 19.4624 38.839 19.4624C36.9672 19.4624 35.6883 18.0225 35.6883 16.3286C35.6883 14.6347 36.9672 13.1949 38.839 13.1949C40.7023 13.1949 41.9812 14.6347 41.9812 16.3286C41.9812 17.3196 41.5408 18.2258 40.8124 18.8017L41.1682 19.1405ZM38.839 18.3359C39.9485 18.3359 40.7447 17.4635 40.7447 16.3286C40.7447 15.1937 39.9485 14.3213 38.839 14.3213C37.721 14.3213 36.9249 15.1937 36.9249 16.3286C36.9249 17.4635 37.721 18.3359 38.839 18.3359ZM46.7573 17.0739V13.3643H47.96V16.9723C47.96 18.5307 47.0453 19.4624 45.5547 19.4624C44.0725 19.4624 43.1578 18.5307 43.1578 16.9723V13.3643H44.3604V17.0739C44.3604 17.8701 44.8093 18.3359 45.5631 18.3359C46.3 18.3359 46.7573 17.8701 46.7573 17.0739ZM49.5811 19.293V13.3643H53.0367V14.3637H50.7838V15.7696H52.6979V16.769H50.7838V18.2936H53.0367V19.293H49.5811ZM0.946584 27.293V21.3643H4.40217V22.3637H2.14926V23.7696H4.06338V24.769H2.14926V27.293H0.946584ZM5.58764 27.293V21.3643H7.40013C8.70444 21.3643 9.50905 22.0334 9.50905 23.1344C9.50905 23.8543 9.1618 24.3879 8.55199 24.6674L10.4068 27.293H8.99241L7.4086 24.8961H6.79032V27.293H5.58764ZM7.46788 22.3637H6.79032V23.8967H7.46788C7.97606 23.8967 8.27249 23.6002 8.27249 23.1175C8.27249 22.6686 7.97606 22.3637 7.46788 22.3637ZM10.8067 27.293L13.0512 21.3643H14.6265L16.871 27.293H15.592L15.0246 25.7515H12.6531L12.0856 27.293H10.8067ZM13.0258 24.7267H14.6519L13.8388 22.4992L13.0258 24.7267ZM17.9135 27.293V21.3643H19.455L22.1059 25.6499V21.3643H23.3086V27.293H21.7672L19.1162 23.0074V27.293H17.9135ZM27.7363 26.3359C28.4138 26.3359 28.9474 26.0056 29.2862 25.5228L30.2348 26.2512C29.7774 26.878 29.066 27.3184 28.2021 27.4285L27.4653 28.6566H26.3981L27.1434 27.4115C25.6019 27.1405 24.5856 25.8362 24.5856 24.3286C24.5856 22.6347 25.8645 21.1949 27.7363 21.1949C28.8119 21.1949 29.6927 21.6776 30.2348 22.3976L29.2862 23.1344C28.9474 22.6516 28.4138 22.3213 27.7363 22.3213C26.6183 22.3213 25.8222 23.1937 25.8222 24.3286C25.8222 25.4635 26.6183 26.3359 27.7363 26.3359ZM30.6189 27.293L32.8633 21.3643H34.4387L36.6831 27.293H35.4042L34.8368 25.7515H32.4653L31.8978 27.293H30.6189ZM32.8379 24.7267H34.4641L33.651 22.4992L32.8379 24.7267ZM37.7257 27.293V21.3643H38.9283V27.293H37.7257ZM40.1789 26.4714L41.0513 25.6668C41.407 26.1242 41.8813 26.3952 42.3641 26.3952C42.8384 26.3952 43.1263 26.1411 43.1263 25.7176C43.1263 24.6251 40.433 24.9215 40.433 22.9142C40.433 21.9741 41.2122 21.1949 42.3471 21.1949C43.2364 21.1949 43.914 21.593 44.4222 22.1943L43.5413 22.9904C43.1941 22.5415 42.8045 22.2451 42.3556 22.2451C41.9321 22.2451 41.6526 22.5161 41.6526 22.8719C41.6526 23.9475 44.346 23.6426 44.346 25.6753C44.329 26.7933 43.4651 27.4624 42.3725 27.4624C41.3731 27.4624 40.704 27.0982 40.1789 26.4714ZM45.734 27.293V21.3643H49.1896V22.3637H46.9367V23.7696H48.8508V24.769H46.9367V26.2936H49.1896V27.293H45.734Z" fill="white"/>
<path fill-rule="evenodd" clip-rule="evenodd" d="M22.081 42.8419L21.2932 43.5617H21.0899L21.5558 42.7402H22.081V42.8419ZM21.5134 45.6279H21.344C21.1323 45.882 20.8951 46.0853 20.6664 46.0853C20.4292 46.0853 20.3106 45.9413 20.3106 45.6279C20.3106 45.5009 20.3275 45.3654 20.3529 45.2468L21.7337 44.7895C22.0047 44.1458 21.6829 43.8664 21.3017 43.8664C20.6494 43.8664 19.904 45.0097 19.904 45.9243C19.904 46.3563 20.1073 46.5934 20.4292 46.5934C20.8019 46.5849 21.1916 46.2208 21.5134 45.6279ZM21.0396 44.2392C21.226 44.2392 21.3869 44.3832 21.3022 44.7135L20.4466 44.9422C20.5822 44.5356 20.8363 44.2392 21.0396 44.2392ZM18.3463 44.2559H18.8037L18.0752 46.2546C18.0075 46.424 18.1006 46.5934 18.2785 46.5934C18.7952 46.5934 19.4136 46.153 19.6508 45.5263H19.5237C19.3374 45.7888 18.9308 46.0768 18.6258 46.1276L19.295 44.2559H19.9811L20.0659 43.968H19.3967L19.6508 43.2481H19.3882L18.9138 43.968L18.3463 44.0442V44.2559ZM17.7105 43.8753C17.8037 43.8753 17.9308 43.9769 17.8715 44.1633L17.0498 46.1535C17.2616 46.1196 17.4818 45.9164 17.6089 45.73H17.7444C17.5496 46.2297 17.1091 46.5939 16.7279 46.5939C16.6347 46.5939 16.4992 46.4923 16.567 46.3059L17.3293 44.3157C17.1176 44.3496 16.8973 44.5528 16.7703 44.7392H16.6432C16.838 44.231 17.3124 43.8753 17.7105 43.8753ZM17.9483 43.3669C18.1177 43.3669 18.2617 43.2314 18.2617 43.0536C18.2617 42.8842 18.1177 42.7402 17.9483 42.7402C17.7704 42.7402 17.6348 42.8842 17.6348 43.0536C17.6348 43.223 17.7788 43.3669 17.9483 43.3669ZM14.2464 45.0186C14.4328 44.6121 14.365 44.4258 14.2464 44.4258C14.1448 44.4258 14.0262 44.5359 13.9076 44.7392H13.7805C13.9753 44.3072 14.2295 43.8753 14.509 43.8753C14.7462 43.8753 14.8309 44.1124 14.8309 44.375V44.7476C14.869 44.7033 14.9061 44.6597 14.9424 44.6172L14.9431 44.6164L14.9436 44.6158C15.3015 44.1959 15.5747 43.8753 15.8897 43.8753C16.1354 43.8753 16.2625 44.0278 16.2625 44.2564C16.2625 44.3919 16.2201 44.5613 16.1269 44.7392L15.4238 46.1535C15.6356 46.1196 15.8559 45.9164 15.9829 45.73H16.11C15.9151 46.2382 15.4408 46.5939 15.0427 46.5939C14.8648 46.5939 14.7631 46.4076 14.8394 46.2551L15.6526 44.6883C15.7457 44.5105 15.7627 44.3919 15.6187 44.3919C15.4238 44.3919 14.9664 44.7138 14.7208 45.0102L14.1871 46.416C14.1278 46.56 14.0685 46.5939 13.933 46.5939C13.7127 46.5939 13.6026 46.4499 13.7043 46.2212L14.2464 45.0186ZM13.6952 44.4761C13.7884 44.1543 13.7375 43.8664 13.4919 43.8664C13.1855 43.8664 13.0896 44.0686 12.7927 44.6947L12.7719 44.7387V44.366C12.7719 44.1035 12.6872 43.8664 12.45 43.8664C12.1704 43.8664 11.9163 44.2983 11.7215 44.7302H11.8485C11.9841 44.5354 12.1111 44.4168 12.2128 44.4168C12.3314 44.4168 12.3991 44.6032 12.2128 45.0097L11.6707 46.2123C11.569 46.441 11.6791 46.5849 11.8994 46.5849C12.0349 46.5849 12.0942 46.551 12.1535 46.4071L12.6872 45.0012C12.8396 44.8149 12.9752 44.654 13.1446 44.4761H13.6952ZM11.0186 44.7135C11.1033 44.3832 10.9424 44.2392 10.756 44.2392C10.5527 44.2392 10.2986 44.5356 10.1631 44.9422L11.0186 44.7135ZM11.2298 45.6279H11.0604C10.8487 45.882 10.6115 46.0853 10.3828 46.0853C10.1456 46.0853 10.027 45.9413 10.027 45.6279C10.027 45.5009 10.0439 45.3654 10.0693 45.2468L11.4501 44.7895C11.7212 44.1458 11.3993 43.8664 11.0181 43.8664C10.3658 43.8664 9.62039 45.0097 9.62039 45.9243C9.62039 46.3563 9.82369 46.5934 10.1456 46.5934C10.5183 46.5849 10.908 46.2208 11.2298 45.6279ZM8.52011 44.2559H8.06269V44.0442L8.63023 43.968L9.1046 43.2481H9.36719L9.11307 43.968H9.78226L9.69755 44.2559H9.01142L8.34223 46.1276C8.64718 46.0768 9.05377 45.7888 9.24013 45.5263H9.36719C9.13001 46.153 8.51164 46.5934 7.99492 46.5934C7.81704 46.5934 7.72386 46.424 7.79163 46.2546L8.52011 44.2559ZM5.64047 45.806C5.64047 45.1877 6.3266 44.3578 6.70779 44.3578C6.7925 44.3578 6.87721 44.3662 6.94497 44.3916L6.54685 45.4587C6.31813 45.7382 5.96236 46.077 5.79295 46.077C5.69977 46.077 5.64047 45.9923 5.64047 45.806ZM7.52967 43.7395L7.74144 43.7565L7.00448 45.4503C6.82659 45.8568 6.90283 46.0431 7.00448 46.0431C7.10613 46.0431 7.23319 45.9246 7.36872 45.7298H7.49579C7.30096 46.1617 7.04683 46.5936 6.7673 46.5936C6.53012 46.5936 6.38611 46.3395 6.42847 45.8822L6.44541 45.7213L6.39928 45.7857C6.09585 46.2098 5.82128 46.5936 5.53903 46.5936C5.29338 46.5936 5.16632 46.4412 5.16632 46.2125C5.16632 45.2301 6.24211 43.9767 7.25013 43.9767H7.29249L7.52967 43.7395ZM5.58933 44.4761C5.68251 44.1543 5.63168 43.8664 5.38603 43.8664C5.07967 43.8664 4.98374 44.0686 4.68686 44.6947L4.66601 44.7387V44.366C4.66601 44.1035 4.58131 43.8664 4.34412 43.8664C4.06459 43.8664 3.81046 44.2983 3.61563 44.7302H3.7427C3.87823 44.5354 4.00529 44.4168 4.09847 44.4168C4.21706 44.4168 4.28483 44.6032 4.09847 45.0097L3.55634 46.2208C3.45469 46.4494 3.56481 46.5934 3.78505 46.5934C3.92058 46.5934 3.97988 46.5595 4.03917 46.4155L4.57283 45.0097C4.72531 44.8234 4.86084 44.6624 5.03026 44.4846H5.58933V44.4761ZM2.09874 46.3388L2.04791 46.4913H0.0742188L0.125043 46.3303C0.73494 46.2202 0.83659 46.1694 1.09071 45.4834L1.64131 44.0098C1.88697 43.3238 1.83614 43.273 1.30248 43.1629L1.35331 43.0105H3.91996L3.76748 43.832H3.58113C3.58113 43.3408 3.5303 43.2137 3.06441 43.2137H2.94582C2.48839 43.2137 2.4291 43.2815 2.30204 43.6372L1.93779 44.6281H2.47145C2.82723 44.6281 2.96276 44.4079 3.1237 44.1199H3.31006L2.86958 45.3225H2.68322C2.72558 44.9583 2.72558 44.8144 2.39522 44.8144H1.86156L1.6159 45.4919C1.35036 46.1971 1.42624 46.2115 2.05856 46.3312C2.07171 46.3337 2.0851 46.3362 2.09874 46.3388Z" fill="white"/>
<path fill-rule="evenodd" clip-rule="evenodd" d="M3.77596 36.3634L2.98815 36.9311V36.9396H2.78484L3.25075 36.2617H3.77596V36.3634ZM9.2829 40.3375L10.5451 36.9819L10.5027 36.9311L9.63021 37.0328V37.1345L9.79963 37.2616C9.94427 37.3741 9.90597 37.479 9.78596 37.8077L9.76575 37.8632L8.80005 40.4392C8.72381 40.5917 8.82546 40.7782 9.00335 40.7782C9.40149 40.7782 9.82505 40.4138 10.0199 39.9138H9.89281C9.75728 40.1003 9.4862 40.3036 9.2829 40.3375ZM15.068 37.753L15.8558 37.0328V36.9311H15.3306L14.8647 37.753H15.068ZM15.1183 39.8121H15.2877C14.9743 40.4138 14.5846 40.7781 14.2119 40.7781C13.89 40.7781 13.6867 40.5409 13.6867 40.1087C13.6867 39.1936 14.4321 38.0496 15.0844 38.0496C15.4571 38.0496 15.7875 38.3292 15.5164 38.9732L14.1272 39.4308C14.1018 39.5495 14.0848 39.685 14.0848 39.8121C14.0848 40.1257 14.2034 40.2697 14.4406 40.2697C14.6693 40.2697 14.9065 40.0664 15.1183 39.8121ZM15.0755 38.897C15.1603 38.575 14.9993 38.4309 14.8129 38.4309C14.6181 38.4309 14.364 38.7275 14.22 39.1258L15.0755 38.897ZM12.585 38.4477H12.1276V38.2358L12.6952 38.1596L13.1695 37.4393H13.4321L13.178 38.1596H13.8472L13.7625 38.4477H13.0764L12.4071 40.3204C12.7121 40.2695 13.1187 39.9814 13.3051 39.7187H13.4321C13.195 40.3458 12.5766 40.7864 12.0598 40.7864C11.8819 40.7864 11.7888 40.617 11.8565 40.4475L12.585 38.4477ZM11.6532 38.346C11.704 38.1596 11.5854 38.0579 11.4837 38.0579C11.0856 38.0579 10.6112 38.4223 10.4164 38.9222H10.5435C10.6705 38.7358 10.8908 38.5324 11.1026 38.4985L10.3402 40.4898C10.2724 40.6763 10.4079 40.7779 10.5011 40.7779C10.8823 40.7779 11.3228 40.4136 11.5176 39.9136H11.3906C11.2635 40.1001 11.0433 40.3034 10.8315 40.3373L11.6532 38.346ZM12.0435 37.2446C12.0435 37.4141 11.8995 37.5581 11.73 37.5581C11.5606 37.5581 11.4166 37.4141 11.4166 37.2446C11.4166 37.0751 11.5521 36.9311 11.73 36.9311C11.8995 36.9311 12.0435 37.0751 12.0435 37.2446ZM7.76647 38.5496C7.38527 38.5496 6.69912 39.38 6.69912 39.9986C6.69912 40.185 6.75842 40.2697 6.86007 40.2697C7.02102 40.2697 7.3768 39.9308 7.60552 39.6511L8.00366 38.5835C7.92742 38.558 7.85118 38.5496 7.76647 38.5496ZM8.80015 37.9479L8.58838 37.931L8.35119 38.1683H8.30883C7.30078 38.1683 6.22495 39.4224 6.22495 40.4053C6.22495 40.6341 6.35202 40.7866 6.59768 40.7866C6.87993 40.7866 7.15451 40.4027 7.45795 39.9783L7.50408 39.9138L7.48714 40.0748C7.44478 40.5324 7.58879 40.7866 7.82598 40.7866C8.10553 40.7866 8.35966 40.3545 8.55449 39.9223H8.42742C8.29189 40.1172 8.16482 40.2359 8.06317 40.2359C7.96152 40.2359 7.88528 40.0494 8.06317 39.6427L8.80015 37.9479ZM4.53027 40.6935C4.16601 40.8376 3.91188 41.007 3.91188 41.2697C3.91188 41.5155 4.1406 41.6171 4.61498 41.6171C5.2503 41.6171 5.59762 41.4307 5.59762 41.185C5.59762 41.0748 5.45361 41.024 5.07241 40.8969C4.82675 40.8206 4.64886 40.7528 4.53027 40.6935ZM4.95326 39.6512C4.78384 39.6512 4.72454 39.5071 4.72454 39.3546C4.72454 38.8631 4.96173 38.253 5.34293 38.253C5.51235 38.253 5.57165 38.3971 5.57165 38.5496C5.56318 39.0496 5.32599 39.6512 4.95326 39.6512ZM5.27602 40.4477C5.74192 40.5917 6.02994 40.7019 6.02994 41.0239C6.02994 41.4391 5.26754 41.9306 4.3442 41.9221C3.81052 41.9221 3.35309 41.778 3.35309 41.4306C3.35309 41.1002 3.65805 40.829 4.4035 40.6087C4.30185 40.5409 4.25949 40.4561 4.25949 40.3375C4.25949 40.1341 4.44585 39.9731 4.76775 39.8206C4.45432 39.7782 4.25102 39.541 4.25102 39.1936C4.25102 38.6597 4.69151 38.0496 5.38614 38.0496C5.53015 38.0496 5.65721 38.0835 5.75887 38.1513H6.52126L6.43655 38.4394H5.98758C6.013 38.5157 6.02994 38.6004 6.02994 38.6936C6.02994 39.2105 5.61486 39.8037 4.95412 39.8376C4.7847 39.9308 4.69998 40.0579 4.69998 40.1596C4.69998 40.2792 4.83855 40.3197 5.1448 40.4091C5.18555 40.421 5.22926 40.4337 5.27602 40.4477ZM2.59012 38.9987C2.92049 38.9987 2.92896 39.1428 2.87814 39.5071H3.0645L3.50499 38.3039H3.31863C3.15768 38.592 3.02214 38.8123 2.66636 38.8123H1.93785L2.29363 37.8209C2.4207 37.465 2.48 37.3972 2.93743 37.3972H3.25933C3.72524 37.3972 3.77607 37.5243 3.77607 38.0158H3.96243L4.11491 37.1938H1.35335L1.30252 37.3463C1.8362 37.4565 1.88702 37.5073 1.64136 38.1937L1.09074 39.6766C0.836613 40.363 0.73496 40.4138 0.116574 40.524L0.0742188 40.685H3.14074L3.69136 39.8122H3.47958C3.1238 40.1596 2.76801 40.4816 2.07339 40.4816C1.30935 40.4816 1.32296 40.4442 1.5522 39.8143C1.56696 39.7737 1.58262 39.7307 1.59901 39.6851L1.85314 39.0072H2.59012V38.9987Z" fill="white"/>
<path fill-rule="evenodd" clip-rule="evenodd" d="M5.12041 31.7427C5.28977 31.7427 5.43373 31.5988 5.43373 31.4294C5.43373 31.2601 5.28977 31.1162 5.12041 31.1162C4.94259 31.1162 4.8071 31.2601 4.8071 31.4294C4.8071 31.6072 4.94259 31.7427 5.12041 31.7427ZM7.62782 32.8092C7.62782 32.4028 7.52621 32.2504 7.2383 32.2504C6.88265 32.2504 6.5524 32.6314 6.22215 33.0885L6.93345 31.1837L6.89111 31.1245L6.01892 31.226V31.3276L6.18828 31.4546C6.33573 31.5693 6.29299 31.6839 6.16738 32.0209L6.1544 32.0557L5.38382 34.0706C5.31608 34.2399 5.23987 34.4431 5.23987 34.4938C5.23987 34.7309 5.56165 34.9595 5.85803 34.9595C6.51853 34.9679 7.62782 33.7489 7.62782 32.8092ZM14.9695 31.9456L15.757 31.226V31.1245H15.232L14.7663 31.9456H14.9695ZM15.0205 34.0028H15.1899C14.8681 34.6039 14.4786 34.9679 14.106 34.9595C13.7842 34.9595 13.581 34.7309 13.581 34.2991C13.581 33.3848 14.3261 32.242 14.9782 32.242C15.3508 32.242 15.681 32.5213 15.41 33.1647L14.0298 33.6219C14.0044 33.7404 13.9874 33.8759 13.9874 34.0028C13.9874 34.3161 14.106 34.46 14.3431 34.46C14.5717 34.46 14.8088 34.2568 15.0205 34.0028ZM14.9774 33.0886C15.062 32.7669 14.9011 32.6229 14.7148 32.6229C14.5116 32.6229 14.2576 32.9192 14.1221 33.3171L14.9774 33.0886ZM12.4784 32.6404H12.0211V32.4287L12.5885 32.3525L13.0627 31.6329H13.3252L13.0711 32.3525H13.7401L13.6554 32.6404H12.9695L12.3005 34.5113C12.6054 34.4605 13.0118 34.1727 13.1981 33.9102H13.3252C13.0881 34.5367 12.4699 34.9769 11.9534 34.9769C11.7755 34.9769 11.6824 34.8076 11.7501 34.6383L12.4784 32.6404ZM11.7856 32.8604C11.8788 32.5387 11.8279 32.2509 11.5824 32.2509C11.2761 32.2509 11.1802 32.4531 10.8834 33.079L10.8626 33.1229V32.7504C10.8626 32.488 10.7779 32.2509 10.5408 32.2509C10.2614 32.2509 10.0073 32.6827 9.81258 33.1144H9.9396C10.0751 32.9197 10.2021 32.8012 10.2952 32.8012C10.4138 32.8012 10.4815 32.9874 10.2952 33.3938L9.7533 34.5959C9.65169 34.8245 9.76177 34.9684 9.98194 34.9684C10.1174 34.9684 10.1767 34.9346 10.236 34.7907L10.7695 33.3853C10.9219 33.1991 11.0574 33.0382 11.2267 32.8604H11.7856ZM9.10147 33.0886C9.18615 32.7669 9.02526 32.6229 8.83896 32.6229C8.63573 32.6229 8.39016 32.9192 8.24621 33.3171L9.10147 33.0886ZM9.31264 34.0028H9.14328C8.93159 34.2568 8.69448 34.46 8.46585 34.46C8.22875 34.46 8.1102 34.3161 8.1102 34.0028C8.1102 33.8759 8.12713 33.7404 8.15254 33.6219L9.53281 33.1647C9.80378 32.5213 9.482 32.242 9.10094 32.242C8.44891 32.242 7.70374 33.3848 7.70374 34.2991C7.70374 34.7309 7.90697 34.9595 8.22875 34.9595C8.60134 34.9679 8.99086 34.6039 9.31264 34.0028ZM5.75675 34.3248C5.75675 34.4349 5.95151 34.5619 6.087 34.5619C6.63741 34.5619 7.15395 33.5714 7.14549 33.0211C7.14549 32.8349 7.05234 32.7587 6.92532 32.7587C6.72209 32.7587 6.3495 33.0634 6.1124 33.3513L5.89223 33.9439C5.81602 34.1386 5.75675 34.291 5.75675 34.3248ZM4.86777 32.2509C4.96938 32.2509 5.08793 32.3525 5.03713 32.5387L4.22421 34.5282C4.4359 34.4944 4.65607 34.2912 4.78309 34.1049H4.91011C4.71534 34.6044 4.27501 34.9684 3.89396 34.9684C3.79234 34.9684 3.65685 34.8668 3.7246 34.6806L4.48671 32.6911C4.27501 32.725 4.05485 32.9282 3.92783 33.1144H3.80081C3.99557 32.6149 4.46977 32.2509 4.86777 32.2509ZM1.35287 31.3704H3.17348L3.12267 31.5313C2.50451 31.6413 2.4029 31.6921 2.14886 32.3779L1.60691 33.8678C1.34441 34.579 1.41215 34.6636 1.87789 34.6636C2.4533 34.6636 2.8306 34.2455 3.16006 33.8804C3.18453 33.8533 3.20874 33.8265 3.23275 33.8001H3.44445L2.84323 34.8668H0.0742188L0.125026 34.7144C0.734716 34.6044 0.836331 34.5536 1.09037 33.8678L1.64078 32.3694C1.88635 31.6837 1.83555 31.6329 1.30207 31.5228L1.35287 31.3704Z" fill="white"/>
</svg>
