<svg width="325" height="271" viewBox="0 0 325 271" fill="none" xmlns="http://www.w3.org/2000/svg">
<path fill-rule="evenodd" clip-rule="evenodd" d="M240.167 85.6919L244.649 91.0841C248.637 95.6437 251.471 100.047 253.151 104.384L287.27 63.0814C293.462 55.2139 293.167 53.7567 282.847 53.7567H279.308C268.987 53.7567 265.154 55.7966 258.961 63.0814L240.167 85.6919ZM253.151 123.186C251.471 127.523 248.637 131.926 244.649 136.486L240.167 141.878L258.961 164.489C265.154 171.774 268.987 173.813 279.308 173.813H282.847C293.167 173.813 293.462 172.356 287.27 164.489L253.151 123.186Z" fill="white"/>
<path fill-rule="evenodd" clip-rule="evenodd" d="M188.523 173.813C178.364 173.813 178.073 172.356 184.169 164.489L219.001 121.653C221.614 118.448 223.065 115.825 223.065 113.785C223.065 111.454 221.614 108.831 219.001 105.917L184.169 63.0814C178.073 55.2139 178.364 53.7567 188.523 53.7567H192.007C202.166 53.7567 205.939 55.7966 212.035 63.0814L238.74 95.7182C250.06 108.831 250.06 118.739 238.74 131.852L212.035 164.489C205.939 171.774 202.166 173.813 192.007 173.813H188.523Z" fill="white"/>
<path fill-rule="evenodd" clip-rule="evenodd" d="M0 213.037C0 221.796 2.15623 223.986 10.7812 223.986H13.6559C22.2808 223.986 24.437 221.796 24.437 213.037V162.185C30.9057 172.647 42.6453 178 59.6552 178C92.9567 178 109.488 160.238 109.488 124.958V103.79C109.488 68.5097 91.7588 51.9648 54.6239 51.9648C20.1246 51.9648 0 68.9966 0 103.79V213.037ZM84.8111 125.445C84.8111 145.883 78.1029 154.399 54.8637 154.399C31.1452 154.399 24.437 145.64 24.437 125.445V104.52C24.437 84.0817 31.6246 75.3224 54.8637 75.3224C78.5819 75.3224 84.8111 84.0817 84.8111 104.52V125.445Z" fill="white"/>
<path fill-rule="evenodd" clip-rule="evenodd" d="M133.631 164.503C133.631 173.385 135.893 175.605 144.939 175.605H148.205C157.251 175.605 159.513 173.385 159.513 164.503V64.333C159.513 55.4509 157.251 53.2304 148.205 53.2304H144.939C135.893 53.2304 133.631 55.4509 133.631 64.333V164.503ZM135.39 26.5845C141.672 32.5058 151.723 32.5058 157.754 26.5845C164.036 20.4162 164.036 10.5475 157.754 4.62625C151.723 -1.54208 141.672 -1.54208 135.39 4.62625C129.108 10.5475 129.108 20.4162 135.39 26.5845Z" fill="white"/>
<path d="M128.612 237.969C128.612 227.007 121.151 222.862 107.793 222.862C104.477 222.862 101.437 223.138 98.5811 223.599C96.0018 224.059 95.2648 224.888 95.2648 227.56V228.849C95.2648 231.705 96.0018 232.258 98.6732 231.797C101.437 231.245 104.661 230.968 108.346 230.968C115.623 230.968 119.216 232.534 119.216 237.969V242.483H109.083C96.923 242.483 90.2903 246.536 90.2903 256.393C90.2903 265.882 96.5545 270.58 108.991 270.58C122.624 270.58 128.612 266.066 128.612 255.841V237.969ZM119.216 255.38C119.216 261.184 115.715 262.565 108.806 262.565C103.279 262.565 99.7787 261.091 99.7787 256.209C99.7787 251.511 102.727 249.669 109.083 249.669H119.216V255.38Z" fill="white"/>
<path d="M178.839 209.228C178.839 205.911 178.01 205.082 174.694 205.082H173.588C170.272 205.082 169.443 205.911 169.443 209.228V228.849C166.956 224.888 162.442 222.862 155.994 222.862C143.189 222.862 136.74 229.586 136.74 242.944V250.866C136.74 264.039 143.742 270.58 157.836 270.58C171.101 270.58 178.839 264.039 178.839 250.866V209.228ZM146.229 242.76C146.229 235.021 148.808 231.705 157.744 231.705C166.679 231.705 169.443 235.021 169.443 242.76V250.682C169.443 258.328 166.864 261.644 157.744 261.644C148.624 261.644 146.229 258.42 146.229 250.682V242.76Z" fill="white"/>
<path d="M197.978 240.733C197.978 234.469 200.097 231.705 207.19 231.705C214.283 231.705 216.31 234.469 216.31 240.733V265.421C216.31 268.737 217.139 269.566 220.455 269.566H221.376C224.693 269.566 225.522 268.737 225.522 265.421V240.733C225.522 234.469 227.733 231.705 234.826 231.705C241.919 231.705 243.946 234.469 243.946 240.733V265.421C243.946 268.737 244.775 269.566 248.091 269.566H249.289C252.605 269.566 253.434 268.737 253.434 265.421V240.733C253.434 228.942 247.723 222.862 234.826 222.862C228.101 222.862 223.495 225.072 221.008 229.586C218.521 225.072 213.915 222.862 207.19 222.862C194.754 222.862 188.49 228.849 188.49 240.733V265.421C188.49 268.737 189.319 269.566 192.635 269.566H193.833C197.149 269.566 197.978 268.737 197.978 265.421V240.733Z" fill="white"/>
<path d="M264.44 265.421C264.44 268.737 265.269 269.566 268.586 269.566H269.783C273.1 269.566 273.929 268.737 273.929 265.421V228.02C273.929 224.704 273.1 223.875 269.783 223.875H268.586C265.269 223.875 264.44 224.704 264.44 228.02V265.421ZM265.085 213.926C267.388 216.137 271.073 216.137 273.284 213.926C275.587 211.623 275.587 207.938 273.284 205.727C271.073 203.424 267.388 203.424 265.085 205.727C262.782 207.938 262.782 211.623 265.085 213.926Z" fill="white"/>
<path d="M294.416 240.733C294.416 234.469 296.811 231.705 305.01 231.705C313.209 231.705 315.512 234.469 315.512 240.733V265.421C315.512 268.737 316.341 269.566 319.657 269.566H320.855C324.171 269.566 325 268.737 325 265.421V240.733C325 228.849 319.012 222.862 305.01 222.862C291.653 222.862 284.928 228.849 284.928 240.733V265.421C284.928 268.737 285.757 269.566 289.073 269.566H290.271C293.587 269.566 294.416 268.737 294.416 265.421V240.733Z" fill="white"/>
</svg>
