<svg width="42" height="42" viewBox="0 0 42 42" fill="none" xmlns="http://www.w3.org/2000/svg">
<g clip-path="url(#clip0_483_4799)">
<path d="M37.7738 5.55566H4.22625C1.8963 5.55566 0 7.45091 0 9.78191V33.2337C0 35.5636 1.8963 37.4599 4.22625 37.4599H32.9815L33.7649 38.9877L33.7795 39.015C34.4043 40.15 35.5971 40.8546 36.8928 40.8546C37.4892 40.8546 38.0814 40.7023 38.6054 40.4136C39.437 39.9558 40.0396 39.2019 40.3042 38.2905C40.466 37.7329 40.488 37.1565 40.3767 36.6031C41.3689 35.8377 42 34.6239 42 33.2326V9.78191C42 7.45091 40.1037 5.55566 37.7738 5.55566Z" fill="white"/>
<path d="M37.5932 38.5751C36.8907 38.9625 36.0066 38.7063 35.6202 38.0028L31.9694 30.8807C31.9694 30.8807 32.1458 30.8156 33.0204 30.3336C33.8961 29.8517 33.7911 29.8643 33.7911 29.8643L38.1644 36.6021C38.5518 37.3046 38.2956 38.1887 37.5921 38.5751H37.5932Z" fill="white"/>
<path d="M34.0347 35.112H4.22623C3.18883 35.112 2.34778 34.2709 2.34778 33.2335V9.78177C2.34778 8.74437 3.18883 7.90332 4.22623 7.90332H37.7737C38.8111 7.90332 39.6522 8.74437 39.6522 9.78177V33.2335C39.6522 34.2709 38.8741 35.112 37.8367 35.112H37.1983" fill="#EBE1FF"/>
<path d="M13.9282 7.90332H4.22623C3.18883 7.90332 2.34778 8.74437 2.34778 9.78177V33.2335C2.34778 34.2709 3.18883 35.112 4.22623 35.112H11.2759C11.2759 35.112 7.02343 28.8876 6.96673 22.2096C6.88378 12.39 13.9282 7.90332 13.9282 7.90332Z" fill="#D8C2FF"/>
<path d="M39.6522 13.0158H2.40342C2.11362 13.0158 1.87842 12.7806 1.87842 12.4908C1.87842 12.201 2.11362 11.9658 2.40342 11.9658H39.6511C39.9409 11.9658 40.1761 12.201 40.1761 12.4908C40.1761 12.7806 39.9409 13.0158 39.6511 13.0158H39.6522Z" fill="#8A49FF"/>
<path d="M15.2964 29.2876C15.2891 29.2876 15.2807 29.2876 15.2733 29.2876C15.0402 29.2771 14.8418 29.1144 14.7861 28.8876L12.2 18.334L10.5126 22.6527C10.4339 22.8543 10.2396 22.9866 10.0233 22.9866H4.64207C4.35227 22.9866 4.11707 22.7514 4.11707 22.4616C4.11707 22.1718 4.35227 21.9366 4.64207 21.9366H9.66527L11.8262 16.4062C11.9091 16.1931 12.1212 16.0587 12.3501 16.0734C12.579 16.0881 12.7712 16.2498 12.8258 16.4724L15.3794 26.8894L16.946 22.2747C17.0184 22.0615 17.2179 21.9187 17.4426 21.9187H21.8505C22.1403 21.9187 22.3755 22.1539 22.3755 22.4437C22.3755 22.7335 22.1403 22.9687 21.8505 22.9687H17.8185L15.7941 28.9317C15.7217 29.1448 15.5211 29.2876 15.2975 29.2876H15.2964Z" fill="#8A49FF"/>
<path d="M37.8367 35.6371H37.1983C36.9085 35.6371 36.6733 35.4019 36.6733 35.1121C36.6733 34.8223 36.9085 34.5871 37.1983 34.5871H37.8367C38.5717 34.5871 39.1272 34.0054 39.1272 33.2336V9.78187C39.1272 9.03532 38.5203 8.42842 37.7737 8.42842H4.2262C3.47965 8.42842 2.87275 9.03532 2.87275 9.78187V33.2336C2.87275 33.9802 3.47965 34.5871 4.2262 34.5871H34.0336C34.3234 34.5871 34.5586 34.8223 34.5586 35.1121C34.5586 35.4019 34.3234 35.6371 34.0336 35.6371H4.2262C2.9011 35.6371 1.82275 34.5587 1.82275 33.2336V9.78187C1.82275 8.45677 2.9011 7.37842 4.2262 7.37842H37.7737C39.0988 7.37842 40.1772 8.45677 40.1772 9.78187V33.2336C40.1772 34.5818 39.1492 35.6371 37.8367 35.6371Z" fill="#8A49FF"/>
<path d="M30.4122 11.0533C30.8175 11.0533 31.1461 10.7247 31.1461 10.3194C31.1461 9.91405 30.8175 9.58545 30.4122 9.58545C30.0068 9.58545 29.6782 9.91405 29.6782 10.3194C29.6782 10.7247 30.0068 11.0533 30.4122 11.0533Z" fill="#8A49FF"/>
<path d="M33.1937 11.0533C33.599 11.0533 33.9276 10.7247 33.9276 10.3194C33.9276 9.91405 33.599 9.58545 33.1937 9.58545C32.7883 9.58545 32.4597 9.91405 32.4597 10.3194C32.4597 10.7247 32.7883 11.0533 33.1937 11.0533Z" fill="#8A49FF"/>
<path d="M35.9761 11.0533C36.3815 11.0533 36.7101 10.7247 36.7101 10.3194C36.7101 9.91405 36.3815 9.58545 35.9761 9.58545C35.5708 9.58545 35.2422 9.91405 35.2422 10.3194C35.2422 10.7247 35.5708 11.0533 35.9761 11.0533Z" fill="#8A49FF"/>
<path d="M32.1668 28.7439C29.2646 30.341 25.6179 29.2836 24.0209 26.3825C22.4238 23.4813 23.4812 19.8336 26.3823 18.2366C29.2835 16.6395 32.9312 17.6969 34.5282 20.598C36.1253 23.5002 35.0679 27.1469 32.1668 28.7439Z" fill="white"/>
<path d="M30.1172 25.1193H23.2838C22.994 25.1193 22.7588 24.8841 22.7588 24.5943C22.7588 24.3045 22.994 24.0693 23.2838 24.0693H30.1172C30.407 24.0693 30.6422 24.3045 30.6422 24.5943C30.6422 24.8841 30.407 25.1193 30.1172 25.1193Z" fill="#8A49FF"/>
<path d="M36.0098 19.7818C35.0196 17.9831 33.3879 16.6769 31.415 16.1047C29.442 15.5324 27.3651 15.7634 25.5665 16.7536C21.8526 18.7979 20.495 23.483 22.5393 27.1969C23.5295 28.9955 25.1612 30.3017 27.1341 30.8729C29.1071 31.4452 31.184 31.2142 32.9826 30.224C36.6965 28.1797 38.0541 23.4946 36.0098 19.7807V19.7818ZM32.1668 28.7435C29.2646 30.3406 25.6179 29.2832 24.0209 26.3821C22.4238 23.4809 23.4812 19.8332 26.3823 18.2362C29.2835 16.6391 32.9312 17.6965 34.5282 20.5976C36.1253 23.4998 35.0679 27.1465 32.1668 28.7435Z" fill="#FFF1C5"/>
<path d="M29.2867 31.7068C28.5181 31.7068 27.7463 31.5976 26.9882 31.3782C24.8809 30.7671 23.1379 29.3727 22.0795 27.4501C21.0232 25.5307 20.7775 23.3121 21.3896 21.2037C22.0007 19.0942 23.3951 17.3512 25.3135 16.2939C27.235 15.2355 29.4536 14.9898 31.561 15.6009C33.6683 16.212 35.4113 17.6064 36.4697 19.5289C38.6537 23.4969 37.2026 28.5012 33.2357 30.6852C32.0051 31.3624 30.6527 31.7068 29.2867 31.7068ZM29.2646 16.3222C28.0729 16.3222 26.8937 16.6225 25.8196 17.2137C24.1459 18.1345 22.931 19.656 22.3976 21.4956C21.8642 23.3352 22.0774 25.2703 22.9993 26.944C23.9222 28.6198 25.4426 29.8368 27.2801 30.3691C29.1176 30.9015 31.0528 30.6873 32.7296 29.7643C36.1894 27.8596 37.4546 23.4948 35.5499 20.034C34.627 18.3582 33.1066 17.1412 31.2691 16.6089C30.6076 16.4167 29.9345 16.3222 29.2646 16.3222ZM29.2856 30.0111C26.983 30.0111 24.7475 28.791 23.561 26.6353C21.8264 23.4843 22.9783 19.51 26.1293 17.7754C29.2804 16.0408 33.2546 17.1927 34.9892 20.3437C35.8292 21.8704 36.0256 23.6323 35.5405 25.305C35.0554 26.9776 33.9476 28.3626 32.4209 29.2026C31.4266 29.7507 30.3493 30.01 29.2867 30.01L29.2856 30.0111ZM29.2657 18.018C28.3742 18.018 27.4702 18.2364 26.6354 18.6952C23.9926 20.1505 23.0255 23.4853 24.4808 26.1282C25.9361 28.7721 29.2709 29.7381 31.9138 28.2828C33.1948 27.5782 34.124 26.4169 34.5304 25.012C34.9378 23.6082 34.7729 22.1298 34.0684 20.8488C33.073 19.0396 31.1966 18.0159 29.2646 18.0159L29.2657 18.018Z" fill="#FFB70D"/>
<path d="M37.5932 38.5746C36.8907 38.9621 36.0066 38.7058 35.6202 38.0023L31.9694 30.8802C31.9694 30.8802 32.1458 30.8151 33.0204 30.3332C33.8961 29.8512 33.7911 29.8638 33.7911 29.8638L38.1644 36.6016C38.5518 37.3041 38.2956 38.1882 37.5921 38.5746H37.5932Z" fill="#FFF1C5"/>
<path d="M36.8949 39.2804C36.7101 39.2804 36.5242 39.2541 36.3415 39.2016C35.8344 39.0546 35.4144 38.7186 35.1592 38.2556C35.1571 38.2514 35.154 38.2461 35.1519 38.2419L31.501 31.1198C31.4328 30.9864 31.4244 30.83 31.479 30.6903C31.5325 30.5538 31.6396 30.4457 31.7761 30.3921C31.795 30.3837 32.004 30.2934 32.7663 29.8734C33.1737 29.6498 33.3427 29.5458 33.4089 29.5028C33.4918 29.4156 33.6042 29.3579 33.727 29.3421C33.9465 29.3159 34.1586 29.4303 34.2594 29.6214L38.6043 36.3152C38.6116 36.3257 38.6179 36.3372 38.6242 36.3477C39.1503 37.3032 38.8006 38.5086 37.8451 39.0336C37.549 39.1964 37.2235 39.2793 36.8938 39.2793L36.8949 39.2804ZM36.0832 37.7547C36.2029 37.9689 36.3982 38.1243 36.6345 38.1926C36.8728 38.2619 37.1227 38.2335 37.3401 38.1138C37.7832 37.8702 37.948 37.3148 37.7139 36.8685L33.6378 30.5885C33.5338 30.6483 33.412 30.7155 33.2745 30.7911C33.0267 30.9276 32.8324 31.0316 32.6802 31.1124L36.0843 37.7537L36.0832 37.7547Z" fill="#FFB70D"/>
<path d="M32.1741 21.0838C32.0408 21.0838 31.9074 21.0334 31.8045 20.9315C31.3121 20.4443 30.6915 20.1115 30.0101 19.9687C29.7266 19.9088 29.5449 19.6306 29.6037 19.3471C29.6636 19.0636 29.9408 18.8819 30.2253 18.9407C31.1063 19.1255 31.9074 19.556 32.5437 20.185C32.7495 20.3887 32.7516 20.7215 32.5469 20.9273C32.444 21.0313 32.3085 21.0827 32.1741 21.0827V21.0838Z" fill="#FFE381"/>
</g>
<defs>
<clipPath id="clip0_483_4799">
<rect width="42" height="42" fill="white"/>
</clipPath>
</defs>
</svg>
