<svg width="60" height="61" viewBox="0 0 60 61" fill="none" xmlns="http://www.w3.org/2000/svg">
<g id="Frame 626800">
<path d="M0.5 30.5C0.5 14.2076 13.7076 1 30 1C46.2924 1 59.5 14.2076 59.5 30.5C59.5 46.7924 46.2924 60 30 60C13.7076 60 0.5 46.7924 0.5 30.5Z" fill="#FFF6CC"/>
<path d="M0.5 30.5C0.5 14.2076 13.7076 1 30 1C46.2924 1 59.5 14.2076 59.5 30.5C59.5 46.7924 46.2924 60 30 60C13.7076 60 0.5 46.7924 0.5 30.5Z" stroke="#5E6C84"/>
<g id="Group">
<path id="Path" d="M30 47.0814C29.5236 47.0814 29.0418 47.3685 28.8036 47.9429C28.6087 48.4089 28.1323 48.6961 27.6343 48.6094L12.4817 45.9597C10.7548 45.6563 9.49341 44.1608 9.49341 42.4052V40.4654C9.49341 42.2156 10.7548 43.7165 12.4817 44.0199L30 47.0814Z" fill="#FF5722"/>
<g id="Group_2" opacity="0.2">
<path id="Path_2" d="M30 47.0814C29.5236 47.0814 29.0418 47.3685 28.8036 47.9429C28.6087 48.4089 28.1323 48.6961 27.6343 48.6094L12.4817 45.9597C10.7548 45.6563 9.49341 44.1608 9.49341 42.4052V40.4654C9.49341 42.2156 10.7548 43.7165 12.4817 44.0199L30 47.0814Z" fill="#5E6C84"/>
</g>
<path id="Shape" fill-rule="evenodd" clip-rule="evenodd" d="M27.5583 49.0482C27.6449 49.0645 27.7315 49.0699 27.8182 49.0699C28.4245 49.0699 28.9767 48.7015 29.2095 48.1163C29.361 47.7532 29.6534 47.5311 29.9944 47.5311C30.2272 47.5311 30.4221 47.3577 30.4383 47.1247C30.4546 46.8917 30.2976 46.6858 30.0702 46.6479L12.5573 43.581C11.0361 43.3155 9.93714 42.0042 9.93714 40.4654C9.93714 40.2215 9.73684 40.0211 9.49323 40.0211C9.24962 40.0211 9.04932 40.2215 9.04932 40.4654V42.4052C9.04932 44.3775 10.4623 46.0572 12.4057 46.3986L27.5583 49.0482ZM12.5625 45.5208C11.2741 45.2932 10.2888 44.3179 10.0181 43.0879C10.6136 43.7869 11.4473 44.2854 12.4109 44.4588L28.6733 47.3035C28.565 47.4389 28.4676 47.6015 28.3972 47.7749C28.2781 48.0567 28.002 48.2192 27.7151 48.1704L12.5625 45.5208Z" fill="#5E6C84"/>
<path id="Path_3" d="M50.5119 40.46V42.3998C50.5119 44.1554 49.2559 45.6563 47.529 45.9543L32.3764 48.6039C31.8784 48.6906 31.402 48.4089 31.2071 47.9375C30.9689 47.3631 30.4925 47.0759 30.0161 47.0759L47.529 44.0091C49.2505 43.711 50.5119 42.2101 50.5119 40.46Z" fill="#FF5722"/>
<g id="Group_3" opacity="0.2">
<path id="Path_4" d="M50.5119 40.46V42.3998C50.5119 44.1554 49.2559 45.6563 47.529 45.9543L32.3764 48.6039C31.8784 48.6906 31.402 48.4089 31.2071 47.9375C30.9689 47.3631 30.4925 47.0759 30.0161 47.0759L47.529 44.0091C49.2505 43.711 50.5119 42.2101 50.5119 40.46Z" fill="#5E6C84"/>
</g>
<path id="Shape_2" fill-rule="evenodd" clip-rule="evenodd" d="M30.7904 48.1109C31.034 48.7015 31.5916 49.07 32.1925 49.07C32.2791 49.07 32.3657 49.0591 32.4415 49.0429L47.5941 46.3932C49.5376 46.0573 50.9451 44.3776 50.9451 42.3998V40.46C50.9451 40.2162 50.7448 40.0157 50.5012 40.0157C50.2576 40.0157 50.0573 40.2162 50.0573 40.46C50.0573 41.9988 48.9583 43.3101 47.4425 43.5756L29.9296 46.6425C29.7023 46.6804 29.5399 46.8917 29.5615 47.1193C29.5832 47.3469 29.7726 47.5257 30.0054 47.5257C30.3465 47.5257 30.6388 47.7424 30.7904 48.1109ZM31.6185 47.7695C31.5427 47.5961 31.4507 47.439 31.3424 47.2981L47.6048 44.4534C48.5684 44.2855 49.3967 43.787 49.9922 43.088C49.7215 44.318 48.7362 45.2933 47.4532 45.5155L32.3006 48.1651C32.0191 48.2139 31.7376 48.0513 31.6185 47.7695Z" fill="#5E6C84"/>
<path id="Path_5" d="M30.0051 16.4616V47.076H29.9997L12.4868 44.0091C10.7599 43.7057 9.49854 42.2048 9.49854 40.4546V15.3562C9.49854 15.172 9.52019 14.9932 9.56891 14.8252C9.83418 13.8011 10.8519 13.1075 11.9509 13.2972L30.0051 16.4616Z" fill="#F7C714"/>
<g id="Group_4" opacity="0.66">
<path id="Path_6" d="M30.0051 46.2794V47.076H29.9997L12.4868 44.0091C10.7599 43.7057 9.49854 42.2047 9.49854 40.4546V15.3562C9.49854 15.172 9.52019 14.9932 9.56891 14.8252C9.59598 14.7331 9.62305 14.641 9.66094 14.5543V39.6852C9.66094 41.4353 10.9223 42.9362 12.6492 43.2397L30.0051 46.2794Z" fill="white"/>
</g>
<path id="Path_7" d="M50.5122 15.3616V40.46C50.5122 42.2101 49.2562 43.7111 47.5293 44.0145L30.0164 47.0814H30.011V16.467L48.0652 13.308C49.1588 13.1183 50.182 13.8119 50.4472 14.836C50.4851 14.9986 50.5122 15.1774 50.5122 15.3616Z" fill="#F7C714"/>
<g id="Group_5" opacity="0.66">
<path id="Path_8" d="M50.5122 15.3616V40.4599C50.5122 42.2101 49.2562 43.711 47.5293 44.0145L30.0164 47.0813H30.011V46.9188L46.6036 44.0145C48.3305 43.711 49.5865 42.2101 49.5865 40.4599V15.3616C49.5865 15.2586 49.581 15.1611 49.5648 15.0635C49.1371 14.7872 48.612 14.6626 48.0652 14.7547L30.011 17.9137V16.4561L47.9624 13.3134L48.0707 13.2917C49.1642 13.0966 50.1874 13.7956 50.4526 14.8197C50.4851 14.9985 50.5122 15.1773 50.5122 15.3616Z" fill="white"/>
</g>
<path id="Shape_3" fill-rule="evenodd" clip-rule="evenodd" d="M29.924 47.5202C29.9511 47.5257 29.9781 47.5257 30.0052 47.5257C30.2488 47.5257 30.4491 47.3252 30.4491 47.0759V16.4615C30.4491 16.2448 30.2921 16.0606 30.081 16.0227L12.0267 12.8637C10.7383 12.6361 9.46612 13.4489 9.1413 14.7114C9.08176 14.9173 9.05469 15.1394 9.05469 15.3616V40.46C9.05469 42.4323 10.4676 44.112 12.4111 44.4534L29.924 47.5202ZM10.0022 14.939C10.1917 14.2129 10.8575 13.7144 11.5938 13.7144C11.6858 13.7144 11.7778 13.7252 11.8807 13.7415L29.5668 16.8354V46.5504L12.5682 43.5756C11.047 43.3101 9.94805 41.9988 9.94805 40.46V15.3616C9.94805 15.2153 9.96429 15.0744 10.0022 14.939Z" fill="#5E6C84"/>
<path id="Shape_4" fill-rule="evenodd" clip-rule="evenodd" d="M29.5613 47.0814C29.5613 47.3252 29.767 47.5257 30.0106 47.5257C30.0198 47.5257 30.0291 47.5251 30.0381 47.5245C30.0555 47.5233 30.0721 47.5221 30.0864 47.5257L47.5993 44.4588C49.5428 44.1175 50.9503 42.4377 50.9503 40.4654V15.3671C50.9503 15.1449 50.9232 14.9227 50.8691 14.7223C50.5443 13.4543 49.2721 12.6416 47.9837 12.8691L29.9294 16.0281C29.7183 16.066 29.5613 16.2503 29.5613 16.467V47.0814ZM30.4491 46.5504V16.8354L48.1352 13.7415C48.9743 13.5952 49.7918 14.1208 50.0083 14.9444C50.0462 15.0744 50.0625 15.2153 50.0625 15.3616V40.46C50.0625 41.9988 48.9635 43.3101 47.4477 43.5756L30.4491 46.5504Z" fill="#5E6C84"/>
<path id="Path_9" d="M30.0053 44.2204L12.8605 41.3215C11.9889 41.1752 11.3501 40.4166 11.3501 39.5334V14.137C11.3501 13.01 12.3678 12.1538 13.4722 12.3489L30.0053 15.2424V44.2204Z" fill="white"/>
<g id="Group_6" opacity="0.3">
<path id="Path_10" d="M30.0055 15.5133V43.088C30.0001 43.0825 30.0001 43.0771 30.0001 43.0771L25.8749 42.3673C25.6638 42.3294 25.5122 42.1506 25.5122 41.9392V16.2177C25.5122 15.9089 25.7883 15.6705 26.0969 15.7192L29.7619 16.299C29.7619 16.2882 29.9513 15.8547 30.0055 15.5133Z" fill="#102770" fill-opacity="0.5"/>
</g>
<g id="Group_7" opacity="0.3">
<path id="Path_11" d="M29.7615 44.3992V45.5425L11.0089 42.1559C10.1373 42.0096 9.49854 41.2511 9.49854 40.3678V14.9715C9.49854 13.8498 10.5109 12.9937 11.6207 13.1834C11.4474 13.4597 11.35 13.7848 11.35 14.1424V39.5388C11.35 40.422 11.9888 41.1806 12.8604 41.3269L29.7615 44.3992Z" fill="#5E6C84"/>
</g>
<path id="Path_12" d="M21.0352 18.6723C21.0135 18.6723 20.9918 18.6723 20.9702 18.6668L13.624 17.4043C13.4128 17.3664 13.2667 17.1659 13.3046 16.9492C13.3425 16.7379 13.5428 16.5916 13.7593 16.6295L21.1055 17.892C21.3167 17.9299 21.4628 18.1304 21.4249 18.3472C21.387 18.5368 21.2192 18.6723 21.0352 18.6723Z" fill="#5E6C84"/>
<path id="Path_13" d="M21.0352 28.5556C21.0135 28.5556 20.9918 28.5556 20.9702 28.5502L13.624 27.2877C13.4128 27.2498 13.2667 27.0493 13.3046 26.8326C13.3425 26.6212 13.5428 26.4749 13.7593 26.5129L21.1055 27.7754C21.3167 27.8133 21.4628 28.0138 21.4249 28.2305C21.387 28.4202 21.2192 28.5556 21.0352 28.5556Z" fill="#5E6C84"/>
<path id="Path_14" d="M25.3876 23.0125C25.3659 23.0125 25.3443 23.0125 25.3172 23.0071L13.5427 20.948C13.3315 20.9101 13.1854 20.7096 13.2233 20.4929C13.2612 20.2816 13.4669 20.1353 13.678 20.1732L25.4525 22.2322C25.6637 22.2701 25.8098 22.4706 25.7719 22.6874C25.7394 22.877 25.5716 23.0125 25.3876 23.0125Z" fill="#5E6C84"/>
<path id="Path_15" d="M26.5246 25.2341C26.503 25.2341 26.4813 25.2341 26.4597 25.2287L13.5483 23.0071C13.3372 22.9692 13.191 22.7687 13.2289 22.5519C13.2668 22.3406 13.4671 22.1943 13.6836 22.2323L26.595 24.4538C26.8061 24.4918 26.9523 24.6922 26.9144 24.909C26.8819 25.0986 26.7141 25.2341 26.5246 25.2341Z" fill="#5E6C84"/>
<path id="Path_16" d="M27.3362 38.3901C27.3145 38.3901 27.2929 38.3901 27.2712 38.3847L20.2336 37.1655C20.0225 37.1276 19.8763 36.9271 19.9142 36.7104C19.9521 36.4991 20.1578 36.3528 20.3689 36.3907L27.4066 37.6099C27.6177 37.6478 27.7639 37.8483 27.726 38.065C27.6881 38.2547 27.5203 38.3901 27.3362 38.3901Z" fill="#5E6C84"/>
<path id="Path_17" d="M25.3876 27.136C25.3659 27.136 25.3443 27.136 25.3172 27.1306L13.5427 25.0715C13.3315 25.0336 13.1854 24.8331 13.2233 24.6164C13.2612 24.3996 13.4669 24.2588 13.678 24.2967L25.4525 26.3557C25.6637 26.3936 25.8098 26.5941 25.7719 26.8109C25.7394 27.0005 25.5716 27.136 25.3876 27.136Z" fill="#5E6C84"/>
<path id="Path_18" d="M48.6603 14.137V39.5443C48.6603 40.4275 48.0269 41.1807 47.1607 41.3324L30.0051 44.3342V15.2424L34.8719 14.3917L38.3095 13.7903L46.5382 12.3489C47.334 12.2081 48.0865 12.6145 48.4437 13.2701C48.5791 13.5248 48.6603 13.8228 48.6603 14.137Z" fill="white"/>
<g id="Group_8" opacity="0.3">
<path id="Path_19" d="M47.7944 41.0886C47.7944 41.9718 47.161 42.7195 46.2948 42.8767L30.3139 45.6726L30.1624 44.3071L47.1556 41.3324C47.3938 41.289 47.6049 41.2078 47.7944 41.0886Z" fill="#5E6C84"/>
</g>
<g id="Group_9" opacity="0.3">
<path id="Path_20" d="M43.2093 13.9961C43.7236 13.904 44.2 14.305 44.2 14.8306V39.1866C44.2 40.0644 43.5666 40.823 42.7004 40.9747L30.011 43.1963V16.2827L43.2093 13.9961Z" fill="#102770" fill-opacity="0.5"/>
</g>
<path id="Shape_5" fill-rule="evenodd" clip-rule="evenodd" d="M29.9402 44.6105C29.9618 44.6159 29.9835 44.6159 30.0051 44.6159C30.0972 44.6159 30.1892 44.5834 30.2596 44.5184C30.3516 44.448 30.4003 44.3342 30.4003 44.2204V15.2424C30.4003 15.0527 30.265 14.8902 30.0755 14.8577L13.5425 11.9642C12.8983 11.8504 12.2432 12.0238 11.7452 12.4464C11.2471 12.8691 10.9602 13.4814 10.9602 14.137V39.5334C10.9602 40.6171 11.7289 41.5328 12.7954 41.7116L29.9402 44.6105ZM12.2434 13.0533C12.5033 12.8312 12.8281 12.7174 13.1583 12.7174C13.2395 12.7174 13.3261 12.7228 13.4019 12.7445L29.6101 15.5838V43.7653L12.9201 40.9422C12.2326 40.823 11.7345 40.2324 11.7345 39.5388V14.1425C11.7345 13.7198 11.924 13.3243 12.2434 13.0533Z" fill="#5E6C84"/>
<path id="Shape_6" fill-rule="evenodd" clip-rule="evenodd" d="M29.7509 44.6323C29.8267 44.6919 29.9133 44.7244 30.0053 44.7244C30.027 44.7244 30.0486 44.7244 30.0703 44.7189L47.2259 41.7171C48.2815 41.5329 49.0502 40.6172 49.0502 39.5443V14.1371C49.0502 13.7686 48.9582 13.4002 48.785 13.0805C48.3302 12.2514 47.3991 11.8017 46.468 11.9643L29.9349 14.8577C29.7454 14.8902 29.6101 15.0528 29.6101 15.2424V44.3342C29.6101 44.448 29.6642 44.5564 29.7509 44.6323ZM30.3949 43.8683V15.573L46.5977 12.7391C47.1986 12.6362 47.7995 12.9233 48.0919 13.4598C48.2056 13.6657 48.2651 13.8933 48.2651 14.1371V39.5443C48.2651 40.2379 47.7725 40.8285 47.0904 40.9477L30.3949 43.8683Z" fill="#5E6C84"/>
<path id="Path_21" d="M32.3928 19.9348C32.2033 19.9348 32.0409 19.7993 32.0084 19.6097C31.9705 19.3984 32.1167 19.1925 32.3278 19.1545L39.674 17.892C39.8852 17.8541 40.0909 18.0004 40.1288 18.2117C40.1667 18.4231 40.0205 18.629 39.8094 18.6669L32.4632 19.9294C32.4361 19.9294 32.4144 19.9348 32.3928 19.9348Z" fill="#5E6C84"/>
<path id="Path_22" d="M32.3928 25.2937C32.2033 25.2937 32.0409 25.1582 32.0084 24.9686C31.9705 24.7572 32.1167 24.5513 32.3278 24.5134L41.3685 22.9637C41.5796 22.9258 41.7853 23.0721 41.8232 23.2834C41.8611 23.4947 41.715 23.7006 41.5038 23.7386L32.4632 25.2883C32.4361 25.2883 32.4144 25.2937 32.3928 25.2937Z" fill="#5E6C84"/>
<path id="Path_23" d="M32.3928 27.5911C32.2033 27.5911 32.0409 27.4556 32.0084 27.266C31.9705 27.0547 32.1167 26.8488 32.3278 26.8108L44.4813 24.741C44.6924 24.703 44.8981 24.8493 44.936 25.0607C44.9739 25.272 44.8278 25.4779 44.6166 25.5158L32.4632 27.5857C32.4361 27.5911 32.4144 27.5911 32.3928 27.5911Z" fill="#5E6C84"/>
<path id="Path_24" d="M38.3043 13.7903V22.3786L36.5882 20.8072L34.8667 22.9367V14.3917L38.3043 13.7903Z" fill="#FF5722"/>
<g id="Group_10" opacity="0.66">
<path id="Path_25" d="M38.3043 13.6819V22.3731L37.4436 21.5874V15.6921C37.4436 15.237 37.0321 14.8902 36.5828 14.9661L34.8667 15.2641V14.2779L38.3043 13.6819Z" fill="white"/>
</g>
<path id="Shape_7" fill-rule="evenodd" clip-rule="evenodd" d="M34.4771 22.942C34.4771 23.1046 34.5799 23.2563 34.7369 23.3105C34.7802 23.3268 34.8235 23.3322 34.8668 23.3322C34.9859 23.3322 35.0996 23.278 35.1754 23.1805L36.6317 21.3761L38.0446 22.6657C38.1583 22.7741 38.3261 22.8012 38.4669 22.7361C38.6076 22.6765 38.6996 22.5357 38.6996 22.3785V13.7957C38.6996 13.6819 38.6455 13.5735 38.5589 13.4976C38.4723 13.4218 38.3532 13.3893 38.2395 13.4109L34.8019 14.0124C34.6124 14.0449 34.4771 14.2075 34.4771 14.3971V22.942ZM35.2616 21.8259V14.7222L37.9088 14.2562V21.4845L36.8478 20.5146C36.772 20.4387 36.6637 20.4008 36.5554 20.4116C36.4472 20.4225 36.3497 20.4712 36.2793 20.5579L35.2616 21.8259Z" fill="#5E6C84"/>
<path id="Path_26" d="M30.0103 15.5134V15.2479C30.0306 15.3183 30.0306 15.4104 30.0103 15.5134Z" fill="#26316B"/>
</g>
</g>
</svg>
