<svg width="60" height="61" viewBox="0 0 60 61" fill="none" xmlns="http://www.w3.org/2000/svg">
  <path d="M0.5 30.5C0.5 14.2076 13.7076 1 30 1C46.2924 1 59.5 14.2076 59.5 30.5C59.5 46.7924 46.2924 60 30 60C13.7076 60 0.5 46.7924 0.5 30.5Z" fill="#E1FFEF"/>
  <path d="M0.5 30.5C0.5 14.2076 13.7076 1 30 1C46.2924 1 59.5 14.2076 59.5 30.5C59.5 46.7924 46.2924 60 30 60C13.7076 60 0.5 46.7924 0.5 30.5Z" stroke="#5E6C84"/>
  <path d="M51.2895 47.2523H8.71049C8.49045 47.2523 8.34375 47.1056 8.34375 46.8855C8.34375 46.6655 8.49045 46.5188 8.71049 46.5188H51.2895C51.5095 46.5188 51.6562 46.6655 51.6562 46.8855C51.6562 47.1056 51.4729 47.2523 51.2895 47.2523Z" fill="#5E6C84"/>
  <path d="M19.8594 45.3452C19.8594 46.1521 19.1993 46.8122 18.3925 46.8122H14.9084C14.1015 46.8122 13.4414 46.1521 13.4414 45.3452V33.7928C13.4414 32.9859 14.1015 32.3258 14.9084 32.3258H18.3925C19.1993 32.3258 19.8594 32.9859 19.8594 33.7928V45.3452Z" fill="#FF4848"/>
  <path d="M29.1016 45.3452C29.1016 46.1521 28.4415 46.8122 27.6346 46.8122H24.1506C23.3437 46.8122 22.6836 46.1521 22.6836 45.3452V38.7438C22.6836 37.937 23.3437 37.2769 24.1506 37.2769H27.6346C28.4415 37.2769 29.1016 37.937 29.1016 38.7438V45.3452Z" fill="#FBD000"/>
  <path d="M38.3069 45.3452C38.3069 46.152 37.6468 46.8122 36.84 46.8122H33.3559C32.5491 46.8122 31.8889 46.152 31.8889 45.3452V28.2916C31.8889 27.4848 32.5491 26.8246 33.3559 26.8246H36.84C37.6468 26.8246 38.3069 27.4848 38.3069 28.2916V45.3452Z" fill="#75B600"/>
  <path d="M47.5486 45.3452C47.5486 46.1521 46.8885 46.8122 46.0817 46.8122H42.5976C41.7908 46.8122 41.1306 46.1521 41.1306 45.3452V22.9738C41.1306 22.167 41.7908 21.5069 42.5976 21.5069H46.0817C46.8885 21.5069 47.5486 22.167 47.5486 22.9738V45.3452Z" fill="#3AD0F9"/>
  <path d="M25.544 31.299C25.4707 31.299 25.3973 31.299 25.3607 31.2256L16.2654 25.5411C16.082 25.4311 16.0454 25.211 16.1554 25.0276C16.2654 24.8443 16.4855 24.8076 16.6688 24.9176L25.4707 30.4555L34.5293 19.1964C34.5659 19.1597 34.6026 19.1231 34.6393 19.0864L44.138 13.9886C44.3213 13.8786 44.5414 13.952 44.6514 14.1353C44.7614 14.3187 44.6881 14.5388 44.5047 14.6488L35.0427 19.7099L25.8374 31.1523C25.7641 31.2623 25.6541 31.299 25.544 31.299Z" fill="#5E6C84"/>
  <path d="M25.6539 32.7659C26.9097 32.7659 27.9278 31.7479 27.9278 30.4921C27.9278 29.2363 26.9097 28.2183 25.6539 28.2183C24.3981 28.2183 23.3801 29.2363 23.3801 30.4921C23.3801 31.7479 24.3981 32.7659 25.6539 32.7659Z" fill="#3AD0F9"/>
  <path d="M34.786 21.6901C36.0418 21.6901 37.0598 20.6721 37.0598 19.4163C37.0598 18.1605 36.0418 17.1425 34.786 17.1425C33.5302 17.1425 32.5122 18.1605 32.5122 19.4163C32.5122 20.6721 33.5302 21.6901 34.786 21.6901Z" fill="#FF4848"/>
  <path d="M16.4489 27.4848C17.7047 27.4848 18.7227 26.4668 18.7227 25.211C18.7227 23.9552 17.7047 22.9372 16.4489 22.9372C15.1931 22.9372 14.175 23.9552 14.175 25.211C14.175 26.4668 15.1931 27.4848 16.4489 27.4848Z" fill="#FBD000"/>
  <path d="M44.1747 16.5557C45.4305 16.5557 46.4485 15.5377 46.4485 14.2819C46.4485 13.0261 45.4305 12.0081 44.1747 12.0081C42.9189 12.0081 41.9009 13.0261 41.9009 14.2819C41.9009 15.5377 42.9189 16.5557 44.1747 16.5557Z" fill="#75B600"/>
  <path d="M16.5589 27.8149C15.0553 27.8149 13.8083 26.5679 13.8083 25.0643C13.8083 23.5606 15.0553 22.3137 16.5589 22.3137C18.0626 22.3137 19.3095 23.5606 19.3095 25.0643C19.3095 26.5679 18.0626 27.8149 16.5589 27.8149ZM16.5589 23.0839C15.4587 23.0839 14.5785 23.964 14.5785 25.0643C14.5785 26.1645 15.4587 27.0447 16.5589 27.0447C17.6592 27.0447 18.5393 26.1645 18.5393 25.0643C18.5393 23.964 17.6592 23.0839 16.5589 23.0839Z" fill="#5E6C84"/>
  <path d="M25.7274 33.316C24.2237 33.316 22.9768 32.0691 22.9768 30.5655C22.9768 29.0618 24.1871 27.8149 25.7274 27.8149C27.2677 27.8149 28.478 29.0618 28.478 30.5655C28.478 32.0691 27.2677 33.316 25.7274 33.316ZM25.7274 28.585C24.6272 28.585 23.747 29.4652 23.747 30.5655C23.747 31.6657 24.6272 32.5459 25.7274 32.5459C26.8276 32.5459 27.7078 31.6657 27.7078 30.5655C27.7078 29.4652 26.8276 28.585 25.7274 28.585Z" fill="#5E6C84"/>
  <path d="M18.3925 44.6851H14.9084C14.1015 44.6851 13.4414 43.8416 13.4414 43.0348V45.3086C13.4414 46.1154 14.1015 46.7756 14.9084 46.7756H18.3925C19.1993 46.7756 19.8594 46.1154 19.8594 45.3086V43.0348C19.8594 43.8416 19.1993 44.6851 18.3925 44.6851Z" fill="#EA291C"/>
  <path d="M27.6346 44.6851H24.1506C23.3437 44.6851 22.6836 43.8416 22.6836 43.0348V45.3086C22.6836 46.1154 23.3437 46.7756 24.1506 46.7756H27.6346C28.4415 46.7756 29.1016 46.1154 29.1016 45.3086V43.0348C29.1016 43.8416 28.4415 44.6851 27.6346 44.6851Z" fill="#F4B10B"/>
  <path d="M46.0817 44.5018H42.5976C41.7908 44.5018 41.1306 43.8416 41.1306 43.0348V45.3086C41.1306 46.1154 41.7908 46.7756 42.5976 46.7756H46.0817C46.8885 46.7756 47.5486 46.1154 47.5486 45.3086V43.0348C47.5486 43.8416 46.8885 44.5018 46.0817 44.5018Z" fill="#00B3F9"/>
  <path d="M34.7125 21.9469C33.2822 21.9469 32.1453 20.81 32.1453 19.3797C32.1453 17.9494 33.2822 16.8125 34.7125 16.8125C36.1428 16.8125 37.2797 17.9494 37.2797 19.3797C37.2797 20.81 36.1428 21.9469 34.7125 21.9469ZM34.7125 17.5093C33.6856 17.5093 32.8421 18.3528 32.8421 19.3797C32.8421 20.4066 33.6856 21.2501 34.7125 21.2501C35.7394 21.2501 36.5829 20.4066 36.5829 19.3797C36.5829 18.3528 35.7394 17.5093 34.7125 17.5093Z" fill="#5E6C84"/>
  <path d="M36.84 44.6851H33.3559C32.5491 44.6851 31.8889 43.8416 31.8889 43.0348V45.3086C31.8889 46.1154 32.5491 46.7756 33.3559 46.7756H36.84C37.6468 46.7756 38.3069 46.1154 38.3069 45.3086V43.0348C38.3069 43.8416 37.6468 44.6851 36.84 44.6851Z" fill="#58990D"/>
  <path d="M44.2481 16.8125C42.8178 16.8125 41.6809 15.6756 41.6809 14.2453C41.6809 12.815 42.8178 11.6781 44.2481 11.6781C45.6784 11.6781 46.8153 12.815 46.8153 14.2453C46.8153 15.6756 45.6784 16.8125 44.2481 16.8125ZM44.2481 12.3749C43.2212 12.3749 42.3777 13.2184 42.3777 14.2453C42.3777 15.2722 43.2212 16.1157 44.2481 16.1157C45.275 16.1157 46.1185 15.2722 46.1185 14.2453C46.1185 13.2184 45.275 12.3749 44.2481 12.3749Z" fill="#5E6C84"/>
  <path d="M18.5759 47.2523H14.9084C13.8815 47.2523 13.0747 46.4454 13.0747 45.4185V34.0495C13.0747 33.0226 13.8815 32.2158 14.9084 32.2158H18.5759C19.6028 32.2158 20.4096 33.0226 20.4096 34.0495V45.4185C20.4096 46.4454 19.6028 47.2523 18.5759 47.2523ZM14.9084 32.9492C14.285 32.9492 13.8082 33.426 13.8082 34.0495V45.4185C13.8082 46.042 14.285 46.5188 14.9084 46.5188H18.5759C19.1993 46.5188 19.6761 46.042 19.6761 45.4185V34.0495C19.6761 33.426 19.1993 32.9492 18.5759 32.9492H14.9084Z" fill="#5E6C84"/>
  <path d="M27.7446 47.2524H24.0771C23.0502 47.2524 22.2434 46.4455 22.2434 45.4186V38.8172C22.2434 37.7904 23.0502 36.9835 24.0771 36.9835H27.7446C28.7715 36.9835 29.5783 37.7904 29.5783 38.8172V45.4186C29.5783 46.4455 28.7715 47.2524 27.7446 47.2524ZM24.0771 37.717C23.4537 37.717 22.9769 38.1938 22.9769 38.8172V45.4186C22.9769 46.0421 23.4537 46.5189 24.0771 46.5189H27.7446C28.368 46.5189 28.8448 46.0421 28.8448 45.4186V38.8172C28.8448 38.1938 28.368 37.717 27.7446 37.717H24.0771Z" fill="#5E6C84"/>
  <path d="M36.9133 47.2522H33.2458C32.2189 47.2522 31.4121 46.4454 31.4121 45.4185V28.5483C31.4121 27.5214 32.2189 26.7146 33.2458 26.7146H36.9133C37.9402 26.7146 38.747 27.5214 38.747 28.5483V45.4185C38.747 46.4454 37.9402 47.2522 36.9133 47.2522ZM33.2458 27.4481C32.6224 27.4481 32.1456 27.9248 32.1456 28.5483V45.4185C32.1456 46.042 32.6224 46.5188 33.2458 46.5188H36.9133C37.5367 46.5188 38.0135 46.042 38.0135 45.4185V28.5483C38.0135 27.9248 37.5367 27.4481 36.9133 27.4481H33.2458Z" fill="#5E6C84"/>
  <path d="M46.0817 47.2523H42.781C41.7541 47.2523 40.9473 46.4455 40.9473 45.4186V23.0472C40.9473 22.0203 41.7541 21.2135 42.781 21.2135H46.0817C47.1086 21.2135 47.9154 22.0203 47.9154 23.0472V45.4186C47.9154 46.4455 47.1086 47.2523 46.0817 47.2523ZM42.781 21.947C42.1575 21.947 41.6808 22.4238 41.6808 23.0472V45.4186C41.6808 46.0421 42.1575 46.5188 42.781 46.5188H46.0817C46.7051 46.5188 47.1819 46.0421 47.1819 45.4186V23.0472C47.1819 22.4238 46.7051 21.947 46.0817 21.947H42.781Z" fill="#5E6C84"/>
  <path d="M17.8058 25.6144C17.5858 25.6144 17.4024 25.4677 17.4024 25.2476C17.4024 24.8075 16.999 24.4775 16.5222 24.4775C16.0455 24.4775 15.642 24.8442 15.642 25.2476C15.642 25.431 15.4587 25.6144 15.2386 25.6144C15.0186 25.6144 14.8352 25.4677 14.8352 25.2476C14.8352 24.4408 15.5687 23.7806 16.4856 23.7806C17.4024 23.7806 18.1359 24.4408 18.1359 25.2476C18.2093 25.4677 18.0259 25.6144 17.8058 25.6144Z" fill="white"/>
  <path d="M26.9744 30.7488C26.7544 30.7488 26.571 30.6021 26.571 30.382C26.571 29.9419 26.1676 29.6119 25.6908 29.6119C25.2141 29.6119 24.8106 29.9786 24.8106 30.382C24.8106 30.5654 24.6273 30.7488 24.4072 30.7488C24.1872 30.7488 24.0771 30.6021 24.0771 30.382C24.0771 29.5752 24.8106 28.915 25.7275 28.915C26.6444 28.915 27.3778 29.5752 27.3778 30.382C27.3778 30.6021 27.1945 30.7488 26.9744 30.7488Z" fill="white"/>
  <path d="M35.8496 19.7464C35.6663 19.7464 35.5196 19.5997 35.5196 19.3797C35.5196 18.9396 35.1528 18.6095 34.7494 18.6095C34.3093 18.6095 33.9792 18.9763 33.9792 19.3797C33.9792 19.5631 33.8325 19.7464 33.6492 19.7464C33.4658 19.7464 33.3191 19.5997 33.3191 19.3797C33.3191 18.5729 33.9792 17.9127 34.7861 17.9127C35.5929 17.9127 36.253 18.5729 36.253 19.3797C36.1797 19.5997 36.033 19.7464 35.8496 19.7464Z" fill="white"/>
  <path d="M45.3848 14.6487C45.2014 14.6487 45.0547 14.502 45.0547 14.2819C45.0547 13.8418 44.688 13.4751 44.2846 13.4751C43.8445 13.4751 43.5144 13.8418 43.5144 14.2819C43.5144 14.4653 43.3677 14.6487 43.1843 14.6487C43.0009 14.6487 42.8542 14.502 42.8542 14.2819C42.8542 13.4384 43.5144 12.7783 44.3212 12.7783C45.1281 12.7783 45.7882 13.4384 45.7882 14.2819C45.7149 14.4653 45.5682 14.6487 45.3848 14.6487Z" fill="white"/>
  <path d="M18.5757 42.1179C18.3557 42.1179 18.209 41.9712 18.209 41.7511V40.2842C18.209 40.0641 18.3557 39.9174 18.5757 39.9174C18.7958 39.9174 18.9425 40.0641 18.9425 40.2842V41.7511C18.9425 41.9712 18.7958 42.1179 18.5757 42.1179Z" fill="white"/>
  <path d="M18.5759 39.1839C18.3559 39.1839 18.2092 39.0005 18.2092 38.8171V34.4529C18.2092 34.2328 18.0258 34.0861 17.8424 34.0861H15.3119C15.0919 34.0861 14.9452 34.2695 14.9452 34.4529C14.9452 34.6729 14.7618 34.8196 14.5784 34.8196C14.3584 34.8196 14.2117 34.6363 14.2117 34.4529C14.2117 33.8294 14.7251 33.3527 15.3486 33.3527H17.8791C18.5026 33.3527 19.016 33.8661 19.016 34.4529V38.8171C18.9427 39.0005 18.7593 39.1839 18.5759 39.1839Z" fill="white"/>
  <path d="M27.7447 43.9149C27.5246 43.9149 27.3779 43.7682 27.3779 43.5482V39.2573C27.3779 39.0739 27.1946 38.8905 26.9745 38.8172H24.554C24.334 38.8172 24.1873 38.6705 24.1873 38.4504C24.1873 38.2304 24.334 38.0837 24.554 38.0837H27.0112C27.0479 38.0837 27.0479 38.0837 27.0845 38.0837C27.6713 38.1937 28.1114 38.6705 28.1114 39.2573V43.5482C28.1114 43.7315 27.9647 43.9149 27.7447 43.9149Z" fill="white"/>
  <path d="M36.9131 42.4846C36.6931 42.4846 36.5464 42.3379 36.5464 42.1179V38.4504C36.5464 38.2671 36.6931 38.0837 36.9131 38.0837C37.1332 38.0837 37.2799 38.2304 37.2799 38.4504V42.1179C37.2799 42.3379 37.1332 42.4846 36.9131 42.4846Z" fill="white"/>
  <path d="M36.9134 36.58C36.6933 36.58 36.5466 36.4333 36.5466 36.2133V28.805C36.5466 28.695 36.51 28.6217 36.4366 28.5483C36.3999 28.5116 36.3266 28.5116 36.2532 28.5116C36.2166 28.5116 36.1799 28.5116 36.1799 28.5116H33.7227C33.5027 28.5116 33.356 28.365 33.356 28.1449C33.356 27.9249 33.5027 27.7782 33.7227 27.7782H36.1432C36.3999 27.7415 36.6933 27.7782 36.8767 27.9615C37.1334 28.1449 37.2801 28.475 37.2801 28.7684V36.1399C37.2801 36.3966 37.1334 36.58 36.9134 36.58Z" fill="white"/>
  <path d="M46.0816 40.761C45.8615 40.761 45.7148 40.6143 45.7148 40.3942V37.3503C45.7148 37.1302 45.8615 36.9835 46.0816 36.9835C46.3016 36.9835 46.4483 37.1302 46.4483 37.3503V40.3942C46.4483 40.5776 46.3016 40.761 46.0816 40.761Z" fill="white"/>
  <path d="M46.0817 35.3331C45.8617 35.3331 45.715 35.1864 45.715 34.9663V23.3772C45.715 23.3405 45.715 23.3405 45.715 23.3039C45.715 23.1938 45.6783 23.1572 45.6783 23.1205C45.6416 23.0838 45.5683 23.0471 45.4583 23.0471H45.4216H42.9644C42.7444 23.0471 42.5977 22.9004 42.5977 22.6804C42.5977 22.4603 42.7444 22.3137 42.9644 22.3137H45.3849C45.6783 22.277 45.9717 22.387 46.1918 22.607C46.3751 22.8271 46.4851 23.1205 46.4485 23.3772V34.9663C46.4485 35.1864 46.3018 35.3331 46.0817 35.3331Z" fill="white"/>
</svg>
