<svg xmlns="http://www.w3.org/2000/svg" width="37" height="42" fill="none"><path fill="#1AA3FF" d="m35.692 15.586-8.91 21.826q-.057.177-.128.355c-.928 2.342-3.316 3.603-5.662 3.305a5.4 5.4 0 0 1-1.856-.592l-8.88-4.515-3.72-1.89-4.876-2.48a2.556 2.556 0 0 1-1.195-3.133l3.176-8.678 2.575-7.032 2.04-5.578a2.524 2.524 0 0 1 3.555-1.372l.661.352.369.195.728.387 15.416 8.182q.086.047.178.086a3.02 3.02 0 0 0 2.784-.157l.27-.16c1.155-.681 1.123-2.374-.057-3.01l-13.457-7.28a2.81 2.81 0 0 0-2.813.08l-.906.557-.242.15-.77.474.147-.403.642-1.754a2.525 2.525 0 0 1 3.554-1.373l.054.03 15.298 8.12q.33.176.62.4a4.33 4.33 0 0 1 1.405 4.908"/><ellipse cx="31.152" cy="22.513" fill="#fff" opacity=".55" rx="1.1" ry=".652" transform="rotate(-65.877 31.152 22.513)"/><ellipse cx="26.212" cy="34.307" fill="#fff" opacity=".55" rx="1.1" ry=".652" transform="rotate(-65.877 26.212 34.307)"/><path fill="#fff" d="m14.117 5.25.623-.07.242-.15.483-1.267a2.53 2.53 0 0 1 2.903-1.613l-.054-.028a2.524 2.524 0 0 0-3.555 1.372zM29.166 15.004l.642.343c.932.496 2.054.47 2.963-.067l.27-.16c1.154-.682 1.123-2.375-.057-3.011l-.88-.477q.032.024.06.048c1.18.637 1.211 2.33.057 3.01l-.27.16c-.849.5-1.889.554-2.785.154M1.302 31.36l.086.048.705.358a2.56 2.56 0 0 1-.81-2.882L9.075 7.596a2.527 2.527 0 0 1 3.398-1.45l-.661-.352a2.524 2.524 0 0 0-3.554 1.373L.466 28.455a2.57 2.57 0 0 0 .836 2.905" opacity=".55"/><path fill="#000072" fill-rule="evenodd" d="M18.99 40.766a5.74 5.74 0 0 0 4.69.307 5.55 5.55 0 0 0 3.271-3.19q.073-.179.13-.362l8.905-21.816.002-.005.002-.004c.797-2.173-.14-4.627-2.175-5.709L18.463 1.841a2.82 2.82 0 0 0-2.35-.14 2.87 2.87 0 0 0-1.652 1.685l-.792 2.16a.32.32 0 0 0 .095.359.32.32 0 0 0 .37.025l1.92-1.18a2.5 2.5 0 0 1 2.495-.07l13.467 7.279c.451.243.728.697.737 1.212.01.519-.248.98-.69 1.242l-.27.16a2.7 2.7 0 0 1-2.654.06l-15.42-8.181-1.757-.935a2.82 2.82 0 0 0-2.35-.14A2.87 2.87 0 0 0 7.96 7.063L.167 28.35a2.885 2.885 0 0 0 1.345 3.529q.002 0 .003.002l.003.001zm.29-.572L1.808 31.313a2.244 2.244 0 0 1-1.043-2.736L8.557 7.29A2.23 2.23 0 0 1 9.841 5.98a2.2 2.2 0 0 1 1.825.109l17.174 9.116c1.04.55 2.263.521 3.274-.077l.27-.16a2.03 2.03 0 0 0 1.005-1.805 2.02 2.02 0 0 0-1.071-1.766L18.85 4.121a3.14 3.14 0 0 0-3.131.086l-1.139.701.474-1.293a2.23 2.23 0 0 1 1.285-1.308 2.2 2.2 0 0 1 1.824.109l15.352 8.146c1.752.928 2.56 3.04 1.876 4.912l-8.908 21.818-.01.026a4.922 4.922 0 0 1-3.017 3.158 5.12 5.12 0 0 1-4.177-.282" clip-rule="evenodd"/><path fill="#fff" d="M25.695 16.217 11.58 8.83a.96.96 0 0 0-1.345.522L3.218 28.395a.97.97 0 0 0 .474 1.203l14.23 7.078a.96.96 0 0 0 1.326-.531l6.905-18.734a.97.97 0 0 0-.458-1.194" opacity=".3"/><path fill="#fff" d="m12.848 6.346.728.387 15.415 8.182c.932.495 2.054.47 2.963-.068l.27-.16c1.154-.681 1.123-2.374-.057-3.01L18.7 4.393a2.81 2.81 0 0 0-2.813.08l-1.92 1.18z"/><path fill="#000072" fill-rule="evenodd" d="M28.973 14.95c.455.24.948.362 1.44.362.538 0 1.078-.144 1.561-.432l.27-.16c.557-.33.881-.912.868-1.561a1.74 1.74 0 0 0-.925-1.526l-13.466-7.28a2.86 2.86 0 0 0-2.855.08L12.76 6.347zM13.595 6.693l-.66-.35L15.91 4.51a2.77 2.77 0 0 1 2.769-.076l13.47 7.276c.54.294.868.835.88 1.452a1.68 1.68 0 0 1-.826 1.485l-.27.16a2.96 2.96 0 0 1-2.922.067z" clip-rule="evenodd"/><path fill="#000072" d="m12.849 6.347.728.387 15.415 8.182c.932.496 2.054.47 2.963-.067l.27-.16c1.154-.682 1.123-2.374-.057-3.011l-2.314-1.251c.94.72.893 2.224-.178 2.857l-.27.16a3.03 3.03 0 0 1-2.963.067l-13.55-7.193z" opacity=".3"/><path fill="#000072" fill-rule="evenodd" d="M28.843 15.2a3.35 3.35 0 0 0 1.57.394c.589 0 1.174-.156 1.702-.467l.27-.16a2.03 2.03 0 0 0 1.005-1.804 2.02 2.02 0 0 0-1.072-1.767L18.855 4.117a3.14 3.14 0 0 0-3.132.086l-3.039 1.872a.323.323 0 0 0 .016.557zM13.725 6.45l-.232-.12 2.562-1.578a2.5 2.5 0 0 1 2.496-.07l13.466 7.279c.452.243.728.697.738 1.212.01.519-.248.98-.69 1.242l-.27.16a2.7 2.7 0 0 1-2.655.06z" clip-rule="evenodd"/><path fill="#000072" d="M21.024 39.55a.4.4 0 0 0 .318.535h.006c2.347.3 4.734-.963 5.662-3.305q.072-.178.127-.355l8.708-21.326a4.34 4.34 0 0 0-1.551-4.429l-.013-.003c2.152 2.323 1.078 6.23-4.336 6.54a1.3 1.3 0 0 0-1.151.854z" opacity=".3"/><ellipse cx="30.978" cy="22.342" fill="#000072" rx="1.1" ry=".652" transform="rotate(-65.877 30.978 22.342)"/><ellipse cx="26.039" cy="34.134" fill="#000072" rx="1.1" ry=".652" transform="rotate(-65.877 26.039 34.134)"/><path fill="#FF4229" d="m19.23 7.205 4.645 2.457 2.229-6.082a.466.466 0 0 0-.487-.624l-2.247.256-1.17-1.94a.46.46 0 0 0-.827.08l-2.13 5.824z"/><path fill="#fff" d="m19.324 7.18 4.406 2.332.026-.07-3.818-2.023 2.228-6.114-.432-.717z" opacity=".55"/><path fill="#000072" fill-rule="evenodd" d="M23.726 9.945a.315.315 0 0 0 .448-.172l2.302-6.281a.653.653 0 0 0-.684-.877l-2.254.256L22.333.874a.65.65 0 0 0-.62-.31.65.65 0 0 0-.547.425l-2.234 6.106c-.058.15.01.32.149.393zm-.026-.737-4.076-2.156 2.137-5.846v-.002c.003-.005.004-.008.012-.008q.01 0 .012.005l.001.002 1.31 2.172a.32.32 0 0 0 .308.154l2.455-.278q.004-.002.012.006.006.007.004.01v.003z" clip-rule="evenodd"/><path fill="#000072" d="M17.766 6.352c.442-.036.783.127 1.12.29q.509.245 1.004.513c.658.358 1.307.742 1.971 1.094l.995.531c.33.176.661.358.998.525.34.163.671.339.976.563.309.22.604.464.865.765.02.019.016.05-.006.07a.06.06 0 0 1-.042.013 5 5 0 0 1-1.1-.333 6 6 0 0 1-.508-.243c-.166-.09-.321-.192-.487-.285-.324-.189-.658-.358-.988-.537l-.992-.532c-.662-.355-1.339-.681-2.003-1.03q-.496-.263-.982-.55c-.325-.189-.649-.38-.868-.771-.016-.026-.007-.061.019-.074a.1.1 0 0 1 .028-.01"/><path fill="#000072" d="M25.802 3.135S23.437 8.533 19.45 6.83v.413l4.308 2.358 2.473-6.293z" opacity=".3"/><path stroke="#000072" stroke-linecap="square" stroke-width=".386" d="m12.017 15.177-2.479 9.251M19.649 22.377l-7.26-7.101M19.649 22.377l-10.11 2.05"/><path fill="#FBD000" stroke="#000072" stroke-width=".386" d="M12.327 13.278a1.727 1.727 0 0 1 1.227 2.11 1.727 1.727 0 0 1-2.119 1.216 1.726 1.726 0 0 1-1.225-2.111 1.726 1.726 0 0 1 2.117-1.216ZM20.33 20.578a1.727 1.727 0 0 1 1.227 2.111 1.727 1.727 0 0 1-2.119 1.216 1.726 1.726 0 0 1-1.225-2.112 1.726 1.726 0 0 1 2.117-1.215ZM9.749 22.899a1.727 1.727 0 0 1 1.226 2.11 1.727 1.727 0 0 1-2.118 1.217 1.726 1.726 0 0 1-1.225-2.112 1.726 1.726 0 0 1 2.117-1.215Z"/></svg>