<svg width="54" height="40" viewBox="0 0 54 40" fill="none" xmlns="http://www.w3.org/2000/svg">
<path d="M43.9773 25.4592L44.7854 24.4811C45.5045 23.6541 46.0154 22.8555 46.3184 22.0688L52.4698 29.5603C53.5863 30.9873 53.5331 31.2516 51.6724 31.2516H51.0343C49.1736 31.2516 48.4824 30.8816 47.3659 29.5603L43.9773 25.4592ZM43.9773 15.268L47.3659 11.1669C48.4824 9.84557 49.1736 9.47559 51.0343 9.47559H51.6724C53.5331 9.47559 53.5863 9.73988 52.4698 11.1669L46.3184 18.6584C46.0154 17.8717 45.5045 17.0731 44.7854 16.2461L43.9773 15.268Z" fill="#291A5D"/>
<path d="M34.5827 31.2516C32.7219 31.2516 32.6687 30.9873 33.7852 29.5603L40.1651 21.7907C40.6436 21.2093 40.9094 20.7335 40.9094 20.3636C40.9094 19.9407 40.6436 19.4651 40.1651 18.9365L33.7852 11.1669C32.6687 9.73988 32.7219 9.47559 34.5827 9.47559H35.2207C37.0815 9.47559 37.7726 9.84557 38.8891 11.1669L43.7804 17.0866C45.8539 19.4651 45.8539 21.2621 43.7804 23.6406L38.8891 29.5603C37.7726 30.8816 37.0815 31.2516 35.2207 31.2516H34.5827Z" fill="#291A5D"/>
<path d="M0 38.0275C0 39.6055 0.396835 40 1.98417 40H2.51324C4.10057 40 4.49741 39.6055 4.49741 38.0275V28.8662C5.68791 30.751 7.84846 31.7154 10.979 31.7154C17.1078 31.7154 20.1502 28.5155 20.1502 22.1596V18.346C20.1502 11.99 16.8874 9.00934 10.053 9.00934C3.70374 9.00934 0 12.0777 0 18.346V38.0275ZM15.6087 22.2472C15.6087 25.9292 14.3741 27.4635 10.0972 27.4635C5.73199 27.4635 4.49741 25.8854 4.49741 22.2472V18.4774C4.49741 14.7954 5.82022 13.2173 10.0972 13.2173C14.4623 13.2173 15.6087 14.7954 15.6087 18.4774V22.2472Z" fill="#291A5D"/>
<path d="M24.3902 29.2264C24.3902 30.8044 24.787 31.1989 26.3743 31.1989H26.9475C28.5348 31.1989 28.9317 30.8044 28.9317 29.2264V11.4297C28.9317 9.85169 28.5348 9.45718 26.9475 9.45718H26.3743C24.787 9.45718 24.3902 9.85169 24.3902 11.4297V29.2264ZM24.6988 4.72313C25.8011 5.77514 27.5648 5.77514 28.623 4.72313C29.7253 3.62724 29.7253 1.87392 28.623 0.821922C27.5648 -0.273974 25.8011 -0.273974 24.6988 0.821922C23.5965 1.87392 23.5965 3.62724 24.6988 4.72313Z" fill="#291A5D"/>
</svg>
