<svg width="60" height="61" viewBox="0 0 60 61" fill="none" xmlns="http://www.w3.org/2000/svg">
  <g clip-path="url(#clip0_14411_117371)">
    <rect y="0.5" width="60" height="60" rx="30" fill="#B7F0FF"/>
    <path d="M37.5207 30.9855C37.5207 30.9855 41.5541 31.8217 41.5541 35.4125C41.5541 37.1833 41.1114 38.7574 40.6687 39.8887C40.1769 41.1184 39.6358 40.8725 39.3898 39.6919C39.0455 38.2163 38.3077 36.4947 36.7336 36.1504" fill="#F74541"/>
    <path d="M21.4361 30.9855C21.4361 30.9855 17.4026 31.8217 17.4026 35.4125C17.4026 37.1833 17.8453 38.7574 18.288 39.8887C18.7799 41.1184 19.3209 40.8725 19.5669 39.6919C19.9112 38.2163 20.649 36.4947 22.2231 36.1504" fill="#F74541"/>
    <path d="M40.0296 41.0693H39.9804C39.4885 41.0201 39.1442 40.5774 38.8983 39.692C38.6031 38.4131 37.9145 36.839 36.5864 36.5439C36.3405 36.4947 36.1437 36.1996 36.1929 35.9536C36.2421 35.7077 36.5372 35.5109 36.7832 35.6093C38.2588 35.9536 39.2918 37.2817 39.8329 39.446C39.882 39.692 39.9804 39.8887 40.0296 39.9871C40.0788 39.8887 40.128 39.7903 40.2264 39.5936C40.8166 38.1671 41.1118 36.7406 41.1118 35.3634C41.1118 32.2153 37.4718 31.4774 37.4226 31.4774C37.1767 31.4283 36.9799 31.1823 37.0291 30.8872C37.0783 30.6412 37.3242 30.4445 37.6194 30.4937C39.1442 30.7888 42.0955 32.2153 42.0955 35.3634C42.0955 36.8882 41.8004 38.4131 41.161 39.9871C41.0626 40.233 40.7183 41.0693 40.0296 41.0693Z" fill="#A03513"/>
    <path d="M24.3875 44.906C24.3875 45.9882 25.0761 46.972 25.8631 46.972C26.6501 46.972 26.8469 47.759 26.8469 48.8411V53.3665C26.8469 54.4486 27.5355 55.334 28.3226 55.334C29.1096 55.334 29.7982 54.4486 29.7982 53.3665V48.3984C29.7982 47.3163 30.4869 46.4309 31.2739 46.4309C32.0609 46.4309 32.7004 47.0703 32.7004 47.8574C32.7004 48.6444 33.4382 49.4806 34.2252 49.4806C35.0122 49.4806 35.7009 48.3984 35.7009 47.3163V35.265C35.7009 34.1829 34.963 33.2975 34.2252 33.2975C33.4382 33.2975 32.7987 34.1337 32.7987 35.1667C32.7987 36.1996 32.1101 37.0358 31.3231 37.0358C30.536 37.0358 29.8474 37.9212 29.8474 39.0034V43.0369C29.8474 44.119 29.1588 45.0044 28.3717 45.0044C27.5847 45.0044 26.8961 44.119 26.8961 43.0369V36.6423C26.8961 35.5602 26.4534 34.6748 25.6664 34.6748C24.8793 34.6748 24.3875 35.5602 24.3875 36.6423V44.906Z" fill="white"/>
    <path d="M38.4061 23.8532C38.4061 13.5236 29.7489 6.98151 29.7489 6.98151C29.7489 6.98151 21.0425 13.5728 21.0425 23.8532C21.0425 26.9521 21.7803 34.2813 22.0754 35.511C22.3706 36.7407 25.1743 39.2001 29.6997 39.2001C34.2251 39.2001 37.0288 36.7407 37.324 35.5602C37.6683 34.3796 38.4061 27.0013 38.4061 23.8532Z" fill="#F74541"/>
    <path d="M29.6999 25.0337C31.7917 25.0337 33.4874 23.338 33.4874 21.2462C33.4874 19.1544 31.7917 17.4587 29.6999 17.4587C27.6081 17.4587 25.9124 19.1544 25.9124 21.2462C25.9124 23.338 27.6081 25.0337 29.6999 25.0337Z" fill="#3AD0F9"/>
    <path d="M29.6999 19.2295C31.4215 19.2295 32.8972 20.41 33.3399 22.0332C33.4382 21.7381 33.4874 21.3938 33.4874 21.0494C33.4874 18.9835 31.815 17.2619 29.6999 17.2619C27.634 17.2619 25.9124 18.9343 25.9124 21.0494C25.9124 21.3938 25.9615 21.7381 26.0599 22.0332C26.5026 20.41 27.9291 19.2295 29.6999 19.2295Z" fill="#00B3F9"/>
    <path d="M29.7981 25.8208C27.3386 25.8208 25.3711 23.8532 25.3711 21.3938C25.3711 18.9343 27.3386 16.9668 29.7981 16.9668C32.2575 16.9668 34.2251 18.9343 34.2251 21.3938C34.2251 23.8532 32.2575 25.8208 29.7981 25.8208ZM29.7981 17.9998C27.9289 17.9998 26.4041 19.5246 26.4041 21.3938C26.4041 23.263 27.9289 24.7878 29.7981 24.7878C31.6673 24.7878 33.1921 23.263 33.1921 21.3938C33.1921 19.5246 31.6673 17.9998 29.7981 17.9998Z" fill="#A03513"/>
    <path d="M29.7488 12.0479C31.2245 12.0479 32.6017 11.7528 33.8807 11.2117C31.7655 8.40796 29.7488 6.83392 29.7488 6.83392C29.7488 6.83392 27.6829 8.40796 25.6169 11.2117C26.8467 11.7528 28.2731 12.0479 29.7488 12.0479Z" fill="white"/>
    <path opacity="0.3" d="M38.1604 27.3948C37.8161 28.7229 34.7172 31.4283 29.7 31.4283C24.6827 31.4283 21.5838 28.6737 21.2395 27.3457C21.1903 27.2473 21.1903 27.0997 21.1411 26.903C21.3871 30.297 21.8298 34.478 22.0265 35.3634C22.3216 36.5931 25.1254 39.0526 29.6508 39.0526C34.1761 39.0526 36.9799 36.5931 37.275 35.4126C37.521 34.5272 37.9637 30.3462 38.1604 26.9521C38.2096 27.1489 38.2096 27.2965 38.1604 27.3948Z" fill="#A81000"/>
    <path d="M29.5521 39.5936C24.8791 39.5936 21.8786 36.9866 21.4851 35.5601C21.19 34.232 20.4521 26.9521 20.4521 23.804C20.4521 13.376 28.9126 6.8831 29.2569 6.58797C29.4537 6.4404 29.6504 6.4404 29.8472 6.58797C30.1915 6.8831 38.652 13.376 38.652 23.804C38.652 26.8045 37.9633 34.2812 37.619 35.6093C37.2255 37.0358 34.1758 39.5936 29.5521 39.5936ZM29.5521 7.62093C28.0764 8.89984 21.4359 14.9501 21.4359 23.804C21.4359 26.8045 22.1738 34.0845 22.4689 35.3142C22.7148 36.2488 25.2235 38.6098 29.5521 38.6098C33.8807 38.6098 36.4385 36.2488 36.6844 35.3634C36.9796 34.232 37.7174 26.9029 37.7174 23.8532C37.6682 14.9501 31.0277 8.89984 29.5521 7.62093Z" fill="#A03513"/>
    <path d="M19.0259 41.0693C18.3864 41.0693 18.0421 40.2331 17.9437 39.9379C17.3535 38.3639 17.0583 36.839 17.0583 35.3142C17.0583 32.1661 19.9113 30.7888 21.4361 30.4445C21.6821 30.3953 21.928 30.5429 22.0264 30.838C22.0756 31.084 21.928 31.3791 21.6329 31.4283C21.387 31.4775 17.9929 32.2153 17.9929 35.3634C17.9929 37.085 18.4356 38.6098 18.8291 39.5936C18.8783 39.7904 18.9767 39.8887 19.0259 39.9871C19.0751 39.8887 19.1243 39.7412 19.2227 39.446C19.7637 37.2325 20.7967 35.9045 22.2232 35.6093C22.4691 35.5601 22.7642 35.7077 22.8134 35.9536C22.8626 36.1996 22.7151 36.4947 22.4691 36.5439C21.141 36.839 20.5016 38.4131 20.2064 39.692C20.0097 40.5774 19.6654 41.0201 19.1735 41.0693C19.0259 41.0693 19.0259 41.0693 19.0259 41.0693Z" fill="#A03513"/>
    <path d="M59.9016 40.8726C58.967 40.1839 57.8357 39.7904 56.606 39.7904C53.4579 39.7904 50.9493 42.299 50.9493 45.4471C50.9493 45.7422 50.9984 46.0374 51.0476 46.3325C50.6049 46.2341 50.2114 46.1849 49.7195 46.1849C46.7682 46.1849 44.3088 48.4968 44.0628 51.399C43.5218 51.2022 42.9315 51.1038 42.3412 51.1038C40.5212 51.1038 38.8488 51.9892 37.8159 53.3665C36.8321 51.7433 35.0121 50.6119 32.9954 50.6119C30.8311 50.6119 28.9619 51.8416 27.9781 53.6124C26.9451 52.6779 25.6171 52.0876 24.1414 52.0876C23.1576 52.0876 22.223 52.3335 21.3868 52.7762C21.1409 49.9233 18.6814 47.6606 15.7793 47.6606C14.7955 47.6606 13.8609 47.9066 13.0739 48.3492C13.0739 48.2017 13.0739 48.0541 13.0739 47.9065C13.0739 44.7585 10.5653 42.2498 7.41722 42.2498C4.61346 42.2498 2.30159 44.3158 1.85889 46.972C7.17127 56.9081 17.5993 63.6961 29.6505 63.6961C36.4386 63.6961 42.7347 61.5318 47.8996 57.8919C47.9487 57.6951 47.9979 57.4492 47.9979 57.2524C48.1947 57.3016 48.3914 57.3508 48.5882 57.4C53.999 53.3173 58.0324 47.513 59.9016 40.8726Z" fill="white"/>
    <path d="M29.8475 36.1504C26.6995 36.1504 23.6498 34.8223 21.3871 32.4613C21.1903 32.2645 21.1903 31.9694 21.3871 31.7726C21.5838 31.5759 21.879 31.5759 22.0757 31.7726C24.1908 33.9369 26.9454 35.1667 29.8475 35.1667C32.6021 35.1667 35.2583 34.0845 37.275 32.1169C37.4718 31.9202 37.7669 31.9202 37.9637 32.1169C38.1604 32.3137 38.1604 32.6088 37.9637 32.8056C35.7502 34.9699 32.848 36.1504 29.8475 36.1504Z" fill="#A03513"/>
    <path d="M1.51465 46.1849C1.76059 46.6768 2.00654 47.1686 2.30167 47.6605C2.35086 44.8568 4.85948 42.5449 7.66324 42.5449C10.5162 42.5449 12.5821 44.9551 12.5821 47.8081C12.5821 47.9557 12.5821 48.1032 12.5821 48.2508C12.5821 48.4475 12.6313 48.5951 12.8281 48.6935C12.9756 48.7919 13.1724 48.7919 13.3199 48.6935C14.0578 48.3 15.1399 47.9557 16.0253 47.9557C18.7307 47.9557 20.6983 50.12 20.9442 52.8253C20.9442 52.9729 21.0426 53.1205 21.1901 53.2189C21.3377 53.3172 21.5345 53.3172 21.682 53.2189C22.4199 52.7762 23.5512 52.3826 24.3874 52.3826C25.7155 52.3826 26.6993 53.0713 27.6831 53.9567C27.7814 54.0551 27.929 54.1043 28.0766 54.1043C28.2241 54.0551 28.3717 54.0059 28.4209 53.8583C29.3063 52.1367 31.323 50.907 33.1922 50.907C35.0122 50.907 36.4387 51.9891 37.3732 53.6124C37.4716 53.7599 37.6192 53.8583 37.7668 53.8583C37.9143 53.8583 38.0619 53.8091 38.1603 53.6616C39.144 52.3335 40.3738 51.4481 41.997 51.4481C42.9808 51.4481 43.3251 51.694 43.8662 51.8416C44.0137 51.8908 44.1613 51.8416 44.3089 51.7924C44.4564 51.694 44.5056 51.5464 44.5056 51.3989C44.7516 48.3 47.6537 45.9881 50.851 46.7259C50.9985 46.7751 51.1953 46.7259 51.2937 46.6276C51.392 46.5292 51.4904 46.3324 51.4412 46.1849C51.392 45.8897 51.392 45.5946 51.392 45.3487C51.392 42.4465 53.7039 40.1346 56.5569 40.1346C57.7374 40.1346 58.8687 40.5282 59.7049 41.2168C59.8033 40.8725 59.9017 40.5282 60.0001 40.1838C59.0163 39.4952 57.8358 39.1017 56.5569 39.1017C53.1628 39.1017 50.4083 41.9054 50.4083 45.3487C50.4083 45.447 50.4083 45.3978 50.4083 45.4962C46.9651 45.4962 44.2105 47.5621 43.6202 50.7102C43.1775 50.6119 42.4889 50.4151 42.0462 50.4151C40.3246 50.4151 38.9965 51.2513 37.8159 52.5302C36.6354 51.0054 35.1106 49.9232 33.1922 49.9232C31.1263 49.9232 28.962 51.1037 27.8306 52.8253C26.7485 51.9891 25.6663 51.3989 24.3382 51.3989C23.5512 51.3989 22.5182 51.694 21.7804 52.0383C21.2393 49.1362 18.9767 46.9719 16.0253 46.9719C15.2875 46.9719 14.2545 47.2178 13.5659 47.513C13.4183 44.2173 10.7129 41.6103 7.4173 41.6103C4.61354 41.6103 2.20329 43.5287 1.51465 46.1849Z" fill="#5E6C84"/>
    <path d="M59.8032 41.2169C57.7372 41.8071 56.1632 43.7747 56.1632 46.0374C56.1632 46.1357 56.1632 46.2341 56.1632 46.3325C55.081 46.9227 54.1956 47.8573 53.8021 49.0379C51.5394 49.5298 49.8178 51.5465 49.8178 53.9567C49.8178 54.2519 49.867 54.547 49.9162 54.793C49.5227 54.6946 49.1292 54.6454 48.7357 54.6454C46.8173 54.6454 45.1449 55.7275 44.3087 57.3016C43.5217 56.8097 42.5871 56.3178 41.6033 56.3178C39.1439 56.3178 37.0779 58.3345 36.6353 60.6956C35.9958 60.4005 35.4547 60.2529 34.7169 60.2529C33.5364 60.2529 32.3558 60.6464 31.5196 61.2859C30.8802 59.2691 29.1094 57.7935 26.8467 57.7935C25.0759 57.7935 23.4035 58.6789 22.4689 60.0561C21.6327 58.3837 19.9603 57.2524 17.9435 57.2524C17.5008 57.2524 17.0581 57.3016 16.6646 57.4491C16.7138 57.2032 16.7138 57.0064 16.7138 56.7605C16.7138 54.0059 14.4511 51.7432 11.6966 51.7432C11.2539 51.7432 10.8112 51.7924 10.4176 51.8908C10.4176 51.7924 10.4176 51.6941 10.4176 51.5957C10.4176 48.8411 7.95821 46.4801 5.15445 46.4801C3.97392 46.4801 3.08852 47.0211 2.20312 47.7098C7.66308 57.2524 17.8943 63.6961 29.6504 63.6961C43.9152 63.6961 55.9664 54.2027 59.8032 41.2169Z" fill="#E4F5F9"/>
    <path opacity="0.5" d="M40.128 37.3309H40.0788C39.8328 37.2817 39.6361 37.0358 39.6361 36.7899C39.9804 34.0845 38.6031 33.3466 38.5539 33.2974C38.308 33.1499 38.2096 32.8548 38.3572 32.658C38.5047 32.4121 38.7507 32.3137 38.9966 32.4612C39.095 32.5104 41.0134 33.4942 40.6199 36.9374C40.6199 37.1342 40.3739 37.3309 40.128 37.3309Z" fill="white"/>
    <path opacity="0.5" d="M36.4387 28.2802C36.0943 28.231 35.8484 28.0343 35.8976 27.7391C35.8976 27.6899 36.2911 23.7056 35.8976 20.41C35.7992 19.7214 35.6025 18.9343 35.2581 18.1473C35.1598 17.9014 35.3073 17.6062 35.6025 17.5079C35.8976 17.4095 36.1927 17.5571 36.3403 17.803C36.7338 18.6884 36.9797 19.5246 37.0289 20.3116C37.4224 23.7056 37.0289 27.6899 37.0289 27.8375C36.9797 28.0834 36.7338 28.2802 36.4387 28.2802Z" fill="white"/>
    <path opacity="0.5" d="M34.717 16.4749C34.5695 16.4749 34.3727 16.3766 34.3235 16.229C33.5857 14.8517 32.8971 13.9171 32.8479 13.9171C32.7003 13.7204 32.7003 13.3761 32.8971 13.1793C33.0938 12.9825 33.3889 13.0317 33.5857 13.2285C33.6349 13.2777 34.3727 14.2615 35.1597 15.6879C35.3073 15.9339 35.2089 16.229 34.963 16.3766C34.9138 16.4749 34.8154 16.4749 34.717 16.4749Z" fill="white"/>
    <path opacity="0.5" d="M23.0102 26.3618C22.7643 26.3618 22.5184 26.1651 22.5184 25.9191C22.2232 21.4429 22.9119 19.8197 22.9119 19.7213C23.0102 19.4754 23.3054 19.377 23.6005 19.4754C23.8464 19.5738 23.994 19.8689 23.8956 20.1148C23.8956 20.164 23.2562 21.6889 23.5513 25.8699C23.5513 26.1159 23.3054 26.3618 23.0102 26.3618Z" fill="white"/>
    <path opacity="0.5" d="M18.829 36.5931C18.5831 36.5931 18.3371 36.3963 18.3371 36.1504C18.1404 33.5926 20.0588 32.5104 20.1571 32.4612C20.4031 32.3137 20.6982 32.4121 20.8458 32.658C20.9933 32.9039 20.895 33.1991 20.649 33.3466C20.5998 33.3958 19.1734 34.1828 19.3209 36.1012C19.3209 36.3472 19.1242 36.5439 18.829 36.5931Z" fill="white"/>
    <path d="M29.3555 23.8532C29.0604 23.8532 28.8636 23.6565 28.8145 23.3613C28.8145 23.0662 29.0112 22.8694 29.3063 22.8202C31.1755 22.7219 31.2247 21.443 31.2247 21.3938C31.2247 21.0986 31.4706 20.9019 31.7658 20.9019C32.0609 20.9019 32.3069 21.1478 32.3069 21.3938C32.2577 22.1808 31.6674 23.7548 29.3555 23.8532Z" fill="white"/>
    <path opacity="0.5" d="M30.0441 37.626C26.1582 37.626 23.1577 35.6093 23.1085 35.5601C22.8626 35.4125 22.8134 35.1174 22.9609 34.8714C23.1085 34.6255 23.4036 34.5763 23.6496 34.7239C23.8955 34.8714 29.6506 38.7574 35.4549 34.9698C35.7008 34.8223 35.996 34.8714 36.1435 35.1174C36.2911 35.3633 36.2419 35.6585 35.996 35.806C33.9792 37.1833 31.9133 37.626 30.0441 37.626Z" fill="white"/>
  </g>
  <rect x="0.5" y="1" width="59" height="59" rx="29.5" stroke="#5E6C84"/>
  <defs>
    <clipPath id="clip0_14411_117371">
      <rect y="0.5" width="60" height="60" rx="30" fill="white"/>
    </clipPath>
  </defs>
</svg>
