<svg xmlns="http://www.w3.org/2000/svg" width="174" height="137" fill="none"><path fill="#EAEAEA" fill-rule="evenodd" d="M136.5 84.971c6.885-10.26 9.721-19.036 10.936-31.322.81-8.91 4.59-17.011 10.665-23.221l10.396-10.531c1.485-1.485.135.135 1.215-1.62 3.24-4.725 2.025-11.206-2.7-14.446-4.59-3.105-11.071-1.89-14.311 2.97-1.08 1.62-.135-.27-.945 1.755l-5.67 13.501c-3.646 7.966-9.586 14.716-17.552 18.631-9.99 5.13-18.631 12.691-24.976 22.142-6.346 9.315-10.126 20.25-11.07 31.457.134 1.755 3.374 5.13 8.1 8.235 4.995 3.375 9.855 5.13 11.07 4.185 10.936-5.67 17.957-11.61 24.842-21.736" clip-rule="evenodd"/><path fill="#D4D6D6" fill-rule="evenodd" d="M167.687 4.506c1.755 3.375 1.62 7.695-.81 11.07-1.215 1.62.27 0-1.35 1.486l-10.936 9.99c-6.48 5.94-10.531 13.771-11.746 22.682-1.755 12.15-4.995 20.926-12.42 30.782-7.291 9.855-14.716 15.39-25.787 20.521-1.215.945-5.94-1.08-10.8-4.725l-.406-.405c1.215 1.755 3.915 4.185 7.291 6.48 4.995 3.375 9.855 5.13 11.07 4.185 10.801-5.67 17.822-11.61 24.707-21.736 6.885-10.26 9.721-19.036 10.936-31.322.81-8.91 4.59-17.011 10.665-23.221l10.396-10.531c1.485-1.485.135.135 1.215-1.62 3.105-4.32 2.16-10.26-2.025-13.636" clip-rule="evenodd"/><path fill="#75B600" fill-rule="evenodd" d="M144.736 37.853c1.89 1.35 3.915 2.565 5.805 3.645 1.35-2.835 2.97-5.535 4.995-8.1a50 50 0 0 1-5.4-3.375 72 72 0 0 1-5.805-4.456c-1.621 2.835-3.376 5.4-5.671 7.696 1.89 1.485 3.915 3.105 6.076 4.59" clip-rule="evenodd"/><path fill="#EAEAEA" fill-rule="evenodd" d="M67.916 77.006C61.57 66.34 54.685 60.13 44.154 53.784c-7.83-4.59-13.5-11.34-16.47-19.576l-5.131-13.906c-.675-2.025.135-.135-.945-1.755-2.97-4.995-9.316-6.616-14.176-3.645-4.725 2.97-6.21 9.315-3.24 14.31 1.08 1.756-.27 0 1.08 1.62l9.72 10.936c5.806 6.616 9.18 14.851 9.45 23.627a67.3 67.3 0 0 0 9.452 31.997c5.94 9.585 14.175 17.686 23.896 23.356 1.62.54 6.075-.945 10.936-3.78 5.265-3.105 8.91-6.75 8.505-8.235-.54-12.286-2.97-21.197-9.315-31.728" clip-rule="evenodd"/><path fill="#D4D6D6" fill-rule="evenodd" d="M77.231 108.598c-.54-12.151-2.97-21.062-9.18-31.592-5.806-9.721-12.016-15.796-21.332-21.602-8.775 8.1-14.31 19.576-14.31 32.537 0 2.7.27 5.4.675 7.966.27.54.54 1.08.81 1.485 5.94 9.585 14.175 17.686 23.896 23.356 1.62.54 6.075-.945 10.936-3.78 5.265-3.24 8.91-6.75 8.505-8.37M135.15 86.996c-1.08-15.12-8.641-28.352-19.981-37.127-4.321 3.78-8.236 8.1-11.476 12.96-6.345 9.316-10.126 20.252-11.07 31.458.134 1.755 3.374 5.13 8.1 8.235 4.995 3.375 9.855 5.13 11.071 4.185 9.99-5.265 16.876-10.8 23.356-19.71" clip-rule="evenodd"/><path fill="#145C42" d="M110.848 108.327c-2.43 0-6.48-1.755-10.8-4.725-3.78-2.43-8.1-6.21-8.64-8.91-.136-.27-.136-.405-.136-.675.945-11.611 4.995-22.682 11.341-32.267 6.48-9.586 15.256-17.416 25.652-22.682 7.56-3.78 13.365-10.125 16.876-18.091l5.67-13.5c.27-.676.27-.81.27-.81.135-.27.27-.54.54-.676 0-.135.135-.27.27-.405 2.16-3.24 5.94-5.265 9.856-5.265 2.295 0 4.455.675 6.345 1.89 2.565 1.755 4.32 4.455 4.995 7.56.54 3.105 0 6.21-1.89 8.91-.135.136-.135.27-.27.406-.135.27-.27.54-.405.675l-.675.675-10.531 10.53c-6.075 5.941-9.585 13.772-10.395 22.412-1.215 13.096-4.455 22.141-11.206 32.132s-13.906 16.201-25.381 22.276c-.135.405-.811.54-1.486.54M93.972 93.882v.135c0 .81 2.43 3.915 7.561 7.29 4.32 2.97 7.83 4.185 9.315 4.185h.27c.135 0 0 0 .135-.135 11.071-5.805 17.957-11.88 24.437-21.466 6.615-9.856 9.586-18.226 10.801-30.917.81-9.315 4.725-17.686 11.205-24.166l10.531-10.531.54-.54c.135-.27.27-.54.54-.81 1.35-2.025 1.89-4.455 1.35-6.886-.405-2.43-1.755-4.455-3.78-5.805-1.485-.675-3.24-1.215-4.995-1.215-3.106 0-5.941 1.485-7.561 4.05-.135.27-.405.54-.54.81 0 .135-.135.405-.27.675l-5.805 13.501c-3.78 8.506-10.261 15.391-18.226 19.441-9.991 5.13-18.497 12.556-24.572 21.737-6.21 9.18-9.99 19.71-10.936 30.647"/><path fill="#D4D6D6" fill-rule="evenodd" d="M74.126 111.028c-4.725 2.835-9.315 4.455-10.936 3.78-9.72-5.535-17.956-13.636-23.761-23.222a66.87 66.87 0 0 1-9.45-31.996c-.27-8.911-3.781-17.147-9.451-23.627l-9.72-10.936c-1.486-1.62-.136.135-1.081-1.62-1.755-2.835-1.89-6.075-.945-8.91-.405.135-.81.405-1.08.54-4.995 2.835-6.48 9.18-3.51 14.175 1.08 1.756-.27 0 1.08 1.62l9.72 10.936c5.806 6.616 9.18 14.851 9.45 23.627a67.3 67.3 0 0 0 9.452 31.997c5.94 9.585 14.175 17.686 23.896 23.356 1.62.54 6.075-.945 10.936-3.78s8.37-6.21 8.505-7.83c-.945.54-2.025 1.215-3.105 1.89" clip-rule="evenodd"/><path fill="#75B600" fill-rule="evenodd" d="M28.763 49.464a104 104 0 0 0 5.67-3.645c-2.025-2.43-3.78-4.996-5.265-7.966-1.62 1.215-3.375 2.295-5.265 3.51a61 61 0 0 1-6.615 3.376c1.89 2.565 3.375 5.4 4.59 8.37 2.43-1.08 4.59-2.295 6.885-3.645" clip-rule="evenodd"/><path fill="#145C42" d="M58.6 122.098c-.405 0-.675 0-.945-.135-.27 0-.405 0-.675-.135-10.126-5.67-18.496-13.906-24.436-23.761-5.94-9.72-9.316-21.061-9.721-32.537-.27-8.37-3.51-16.201-9.18-22.817l-9.856-10.8c-.405-.54-.54-.675-.675-.675q-.405-.203-.405-.81c0-.135-.135-.27-.27-.405-1.62-2.7-2.16-5.806-1.35-8.911.675-2.97 2.565-5.535 5.265-7.155a12.5 12.5 0 0 1 5.94-1.485c4.185 0 7.966 2.16 10.126 5.67.135.135.135.27.27.405.27.135.405.405.405.675 0 0 0 .27.27.945l5.265 13.906c2.835 7.965 8.37 14.446 15.931 18.766 11.341 6.616 18.226 13.23 24.437 23.627 6.21 10.26 8.91 19.306 9.45 32.132.675 3.51-7.56 8.505-9.18 9.585-4.186 2.43-8.37 3.915-10.666 3.915m-.675-2.7h.54c1.485 0 5.13-1.215 9.45-3.78 5.401-3.24 7.831-6.075 7.831-6.885v-.135c-.54-12.421-3.105-21.062-9.18-30.917C60.49 67.69 54.145 61.48 43.074 54.999c-8.1-4.725-14.04-11.61-17.146-20.116l-4.995-13.771c-.135-.27-.135-.54-.27-.675-.135-.27-.405-.54-.54-.81-1.62-2.7-4.59-4.455-7.83-4.455-1.62 0-3.241.405-4.591 1.215-2.025 1.215-3.51 3.105-4.05 5.4s-.135 4.725 1.08 6.886c.135.27.405.54.405.81l.54.54 9.855 10.8c6.076 6.886 9.586 15.661 9.991 24.437.405 11.07 3.645 21.871 9.316 31.187 5.67 9.585 13.636 17.416 23.086 22.951"/><path fill="#67AB92" d="M83.982 134.654c24.382 0 44.147-19.765 44.147-44.148 0-24.382-19.765-44.147-44.147-44.147S39.834 66.124 39.834 90.506c0 24.383 19.765 44.148 44.148 44.148"/><path fill="#1C825D" fill-rule="evenodd" d="M83.982 120.208c-21.872 0-40.098-15.931-43.473-36.857-.405 2.295-.675 4.725-.675 7.155 0 24.302 19.711 44.148 44.148 44.148 24.301 0 44.147-19.711 44.147-44.148 0-2.43-.27-4.86-.54-7.29-3.645 20.926-21.736 36.992-43.607 36.992" clip-rule="evenodd"/><path fill="#145C42" d="M83.712 136.679c-24.977 0-45.228-20.656-45.228-45.903 0-25.246 20.251-45.902 45.228-45.902 24.976 0 45.227 20.656 45.227 45.902s-20.251 45.903-45.227 45.903m0-89.105c-23.492 0-42.528 19.44-42.528 43.202S60.22 133.98 83.712 133.98s42.527-19.441 42.527-43.203c0-23.761-19.036-43.202-42.527-43.202"/><path fill="#fff" d="M50.635 73.495c-.27 0-.405 0-.675-.135-.675-.405-.946-1.215-.54-1.89 3.375-5.805 8.1-10.666 13.905-14.176.675-.405 1.486-.27 1.89.405.406.675.27 1.485-.404 1.89A36.9 36.9 0 0 0 51.85 72.82c-.135.405-.675.675-1.215.675M121.784 92.127c-.81 0-1.35-.54-1.35-1.35 0-20.117-16.336-36.453-36.452-36.453-3.51 0-7.02.54-10.396 1.485a1.198 1.198 0 0 1-1.62-.945 1.198 1.198 0 0 1 .945-1.62 38.6 38.6 0 0 1 11.07-1.62c21.602 0 39.153 17.551 39.153 39.152 0 .81-.675 1.35-1.35 1.35" opacity=".5"/><path fill="#fff" d="M164.042 9.636c-.27 0-.54-.135-.81-.27-2.701-2.025-5.131-.27-5.401 0-.54.405-1.485.405-1.89-.27-.405-.54-.405-1.485.27-1.89 1.485-1.215 5.131-2.7 8.776 0 .54.405.675 1.35.27 1.89-.405.405-.81.54-1.215.54M19.313 25.162c-.54 0-1.08-.405-1.215-.945-1.62-4.86-3.916-4.86-4.05-4.86-.676 0-1.35-.54-1.35-1.215s.404-1.35 1.214-1.485c.135 0 4.456-.405 6.75 6.615.27.675-.134 1.485-.81 1.755-.27 0-.404.135-.54.135"/><path fill="#145C42" d="M115.439 136.679H34.434c-.81 0-1.35-.54-1.35-1.35s.674-1.35 1.35-1.35h81.005c.81 0 1.35.54 1.35 1.35s-.675 1.35-1.35 1.35M135.69 136.679h-9.451c-.675 0-1.35-.54-1.35-1.35s.54-1.35 1.35-1.35h9.586c.675 0 1.35.54 1.35 1.35s-.675 1.35-1.485 1.35"/><path fill="#fff" d="M105.583 54.19c0-.54-.54-1.081-1.35-1.216l-6.346-1.215c-.674-.135-1.484-.81-1.62-1.62l-1.08-6.346c-.135-.675-.675-1.35-1.215-1.35s-1.08.54-1.215 1.35l-1.08 6.48c-.135.676-.81 1.486-1.62 1.621l-6.48 1.08c-.675.135-1.35.675-1.35 1.215s.54 1.08 1.35 1.215l6.345.81c.675.135 1.485.81 1.62 1.485l1.215 6.75c.135.676.675 1.35 1.215 1.35s1.08-.54 1.215-1.35l1.216-6.885c.134-.675.81-1.35 1.62-1.485l6.345-.81c.675 0 1.215-.54 1.215-1.08"/><path fill="#1C825D" stroke="#145C42" stroke-width="3.343" d="M79.265 97.96 70.9 89.55l-.003-.004c-.934-.933-2.104-1.435-3.428-1.435s-2.493.502-3.427 1.435l-.001.001c-.926.926-1.435 2.082-1.462 3.394-.027 1.336.468 2.52 1.41 3.461l11.871 11.872v.001c.927.926 2.085 1.435 3.402 1.435s2.475-.509 3.401-1.435l.002-.002 25.384-25.437h.001c.933-.934 1.435-2.104 1.435-3.427 0-1.324-.502-2.494-1.436-3.428h-.001c-.926-.927-2.084-1.436-3.401-1.436s-2.475.51-3.401 1.436z"/></svg>