<svg width="226" height="227" viewBox="0 0 226 227" fill="none" xmlns="http://www.w3.org/2000/svg">
<circle cx="113" cy="113.5" r="112.698" fill="#EBF1F9"/>
<g clip-path="url(#clip0_17_367)">
<path d="M43.348 52.1739L132.364 33.723C121.784 35.916 114.898 55.8562 124.869 71.7145C128.237 77.0726 132.639 80.3023 136.995 80.7131C137.721 80.7816 138.445 80.7717 139.164 80.6804C139.377 80.6497 139.588 80.6127 139.797 80.5697C47.5458 99.47 51.0835 99.4572 47.9785 99.164C43.6233 98.7532 39.2206 95.5235 35.8527 90.1655C31.8186 83.7491 30.1137 75.4813 31.3871 68.5857C33.1031 59.2696 37.5898 53.3672 43.348 52.1739Z" fill="#FEBC1F"/>
<path d="M128.043 58.2344L39.0269 76.6857C39.7651 76.5327 40.2759 75.6928 40.2863 74.5928C40.352 69.3658 43.9339 65.6934 47.0907 65.034L136.107 46.5831C134.785 46.8592 133.553 47.5896 132.499 48.6259C130.401 50.6328 129.339 53.2054 129.302 56.1419C129.292 57.2419 128.781 58.0818 128.043 58.2348V58.2344Z" fill="#FFDE9B"/>
<path d="M46.1162 60.0971C140.493 40.5844 135.698 41.2757 137.99 41.4916C144.571 42.1128 149.218 48.7096 151.483 54.9825C155.786 66.9258 152.097 83.1627 140.808 85.5026L51.7918 103.954C64.5133 101.317 68.8116 79.4373 58.362 65.7859C55.3606 61.8705 50.8607 59.1138 46.1162 60.0971Z" fill="#FFDE9B"/>
<path d="M179.221 170.234C171.933 159.713 167.332 146.143 166.529 132.186C166.403 129.64 163.983 81.0088 162.545 63.5886C158.594 37.3624 141.381 26.629 131.259 28.7726L42.2402 47.2267C52.4253 45.07 69.5837 55.8722 73.5266 82.0427C74.9637 99.4633 77.3838 148.095 77.5097 150.641C78.3862 165.872 83.7865 180.643 92.2667 191.494C94.1258 193.873 97.2125 194.937 100.168 194.324L175.976 178.608C179.776 177.82 181.432 173.425 179.221 170.234V170.234Z" fill="#FFDE9B"/>
<path d="M82.6722 122.265C85.7465 136.624 84.2556 151.303 88.108 165.499C80.6972 152.461 82.0511 136.739 82.6722 122.265Z" fill="white"/>
<path d="M92.457 191.726C82.7416 180.027 75.328 169.085 73.9543 150.315L70.2624 86.4274C69.9946 81.8789 69.2456 77.2507 67.7475 72.9166C64.2429 62.8303 57.8752 55.4195 50.0365 52.7975C39.9753 49.0554 33.3693 57.8472 31.3892 68.5825C28.8344 82.314 38.547 100.42 50.1437 99.1353C59.6904 97.7508 62.646 84.4778 59.3199 75.137C53.6096 59.3417 40.3937 64.0965 40.2981 74.602C40.2714 75.7793 39.6829 76.6618 38.8537 76.7152C37.6497 76.6084 36.7134 75.3506 36.7401 73.933C36.7401 58.0344 54.9184 52.8767 62.4771 73.4246C67.3303 87.0421 61.6798 105.291 48.2443 104.138C42.84 103.63 37.4357 99.6704 33.3423 93.1425C28.3392 85.1695 26.3327 75.2976 27.9109 66.709C30.2807 53.9222 38.4179 43.3698 50.411 47.9812C62.1025 51.9141 70.9581 64.9703 73.5263 82.0387C74.971 99.4552 77.3788 148.094 77.5126 150.636C79.0287 176.094 92.5757 191.993 92.457 191.725V191.726Z" fill="#FFD06C"/>
<path d="M82.9932 69.7738C102.139 63.5463 121.69 58.148 141.603 53.6282C142.998 53.313 143.886 51.9097 143.634 50.4395C143.629 50.4101 143.624 50.377 143.618 50.3487C143.343 48.7761 141.849 47.7362 140.345 48.0788C120.314 52.6405 100.646 58.0846 81.3848 64.3627C80.0114 64.8093 79.2408 66.3405 79.6468 67.7979C79.6532 67.8226 79.6603 67.8466 79.6663 67.8701C80.0871 69.3801 81.5812 70.2316 82.9932 69.7734V69.7738Z" fill="#FFD06C"/>
<path d="M149.336 96.2359C149.228 94.5334 147.753 93.2983 146.227 93.6529C127.273 98.0289 108.672 103.241 90.4687 109.239C89.2806 109.633 88.5435 110.944 88.734 112.316C88.738 112.342 88.7419 112.369 88.7459 112.4C88.981 114.091 90.4926 115.159 91.9485 114.682C110.035 108.725 128.518 103.55 147.355 99.2042C148.585 98.9225 149.429 97.7002 149.342 96.32C149.34 96.2897 149.336 96.2666 149.336 96.2359H149.336Z" fill="#FFD06C"/>
<path d="M87.152 80.692C106.016 74.5972 125.279 69.3176 144.9 64.9014C146.189 64.6109 147.068 63.3503 146.95 61.9546C146.947 61.9291 146.945 61.9044 146.943 61.8797C146.801 60.1911 145.267 59.0074 143.692 59.3628C123.954 63.8129 104.573 69.1307 85.5938 75.2693C84.3439 75.6749 83.5781 76.9973 83.7977 78.3771C83.8009 78.4014 83.804 78.4269 83.8096 78.45C84.0786 80.1194 85.6496 81.1769 87.1524 80.6916L87.152 80.692Z" fill="#FFD06C"/>
<path d="M88.6976 92.0516C107.296 86.007 126.292 80.7668 145.642 76.3793C146.901 76.0936 147.807 74.841 147.664 73.3684C147.54 71.671 146.02 70.4702 144.461 70.826C124.992 75.2549 105.88 80.5397 87.1672 86.6349C85.9409 87.0345 85.1831 88.3469 85.3898 89.7199C85.3914 89.7426 85.3958 89.763 85.3994 89.7849C85.6568 91.4675 87.2095 92.5348 88.6976 92.0516Z" fill="#FFD06C"/>
<path d="M90.1946 103.432C108.539 97.4189 127.28 92.1994 146.376 87.8207C147.624 87.5358 148.477 86.2951 148.383 84.9145C148.381 84.8874 148.379 84.8579 148.377 84.8304C148.268 83.1248 146.767 81.9159 145.219 82.2713C126.004 86.6824 107.146 91.9388 88.6861 97.9938C87.4805 98.389 86.7386 99.6955 86.9298 101.063C86.9326 101.089 86.9374 101.119 86.9418 101.147C87.182 102.836 88.72 103.917 90.1938 103.433L90.1946 103.432Z" fill="#FFD06C"/>
<path d="M130.646 165.11C129.361 166.341 127.703 167.009 125.937 166.795C124.366 166.615 124.67 167.205 124.011 167.624C123.476 167.972 122.753 168.08 122.111 167.972C121.7 167.931 120.978 167.544 120.827 167.731C120.346 168.32 120.426 169.016 119.757 169.497C118.447 170.38 116.895 169.149 115.718 168.24C114.326 170.942 111.731 173.911 108.387 173.055C104.641 172.066 105.685 167.437 105.712 164.681C105.801 161.06 104.692 157.544 103.116 155.05C102.046 153.391 100.601 154.782 99.8256 155.853C97.4179 159.09 96.829 163.344 98.1131 167.143C98.4343 168.106 96.8824 168.534 96.5616 167.571C95.411 164.093 95.652 160.32 97.2306 157.03C98.408 154.595 101.538 150.368 104.133 153.685C106.514 156.816 107.504 161.364 107.316 165.216C107.21 167.196 106.247 171.69 109.537 171.557C112.213 171.45 113.765 168.774 114.701 166.634C114.861 166.26 115.477 166.126 115.798 166.34C116.386 166.715 117.644 167.972 118.339 167.999C119.276 168.052 119.302 166.848 119.704 166.313C120.239 165.591 120.801 165.591 121.577 165.939C122.433 166.313 122.647 166.608 123.449 165.966C123.717 165.742 123.738 164.949 124.921 164.949C125.616 164.975 126.232 165.27 126.981 165.19C127.971 165.083 128.8 164.655 129.523 163.986C130.272 163.264 131.395 164.387 130.647 165.11H130.646Z" fill="#122647"/>
<path d="M192.805 78.9577L186.953 86.4179L192.532 90.7679L198.384 83.3077C200.103 81.1164 194.524 76.7663 192.805 78.9577Z" fill="#1D2943"/>
<path d="M192.805 78.9577C194.318 77.0289 198.819 80.1669 198.704 82.4411L198.67 82.4467C198.67 82.4467 195.408 77.7058 187.765 87.0506L186.953 86.4175L192.804 78.9573L192.805 78.9577Z" fill="#4C5C75"/>
<path d="M129.694 165.059C128.888 164.43 130.176 161.446 132.571 158.393L135.489 160.668C133.094 163.721 130.499 165.687 129.693 165.059H129.694Z" fill="#111D33"/>
<path d="M134.931 161.353L133.727 159.944C132.667 161.913 131.161 163.838 129.562 164.902C129.065 164.033 130.335 161.244 132.571 158.393L135.489 160.668C135.304 160.904 135.118 161.131 134.931 161.353Z" fill="#1D2943"/>
<path d="M160.187 136.376C160.187 136.376 148.159 152.572 135.307 162.5C134.9 162.814 134.334 162.81 133.929 162.495L131.169 160.342C130.764 160.027 130.624 159.48 130.832 159.011C137.399 144.182 150.28 128.651 150.28 128.651C151.861 126.636 161.767 134.36 160.187 136.375V136.376Z" fill="#3B82F6"/>
<path d="M186.573 82.4555C188.149 80.4387 198.055 88.181 196.478 90.1982L160.199 136.381C161.775 134.364 151.852 126.644 150.276 128.661L186.573 82.4559V82.4555Z" fill="#957EE8"/>
<path d="M164.9 124.655C168.871 117.818 176.315 108.5 181.105 103.923C177.832 109.657 170.593 119.134 164.9 124.655Z" fill="white"/>
<path d="M182.461 87.6972L186.567 82.4642C188.147 80.4498 198.053 88.1737 196.473 90.1882C183.628 91.8871 181.998 92.7613 150.28 128.651L175.756 96.2288C171.082 97.7042 163.906 107.673 162.31 109.606C162.196 109.748 162.129 109.915 162.12 110.093L162.051 111.407C162.035 111.731 161.825 112.021 161.511 112.156L157.394 113.916C157.029 114.075 156.602 113.989 156.343 113.708C156.1 113.45 156.014 113.051 156.215 112.758C176.556 83.1113 179.362 88.1052 182.461 87.6972Z" fill="#8466F0"/>
<path d="M160.187 136.376C160.187 136.376 148.785 131.131 130.74 159.445C130.742 159.299 130.77 159.152 130.832 159.011C137.399 144.183 150.28 128.652 150.28 128.652C151.861 126.637 161.767 134.361 160.187 136.376Z" fill="#3D68FF"/>
</g>
<defs>
<clipPath id="clip0_17_367">
<rect width="171.325" height="165.987" fill="white" transform="translate(27.3833 28.5063)"/>
</clipPath>
</defs>
</svg>
