<svg width="45" height="44" viewBox="0 0 45 44" fill="none" xmlns="http://www.w3.org/2000/svg">
  <ellipse cx="22.5114" cy="22" rx="22.4889" ry="22" fill="#2D5999"/>
  <mask id="mask0_2865_57564" style="mask-type:alpha" maskUnits="userSpaceOnUse" x="8" y="8" width="29" height="28">
    <rect x="8.2002" y="8" width="28.6222" height="28" fill="#D9D9D9"/>
  </mask>
  <g mask="url(#mask0_2865_57564)">
    <path d="M19.0404 26.7224H25.9818C26.3627 26.7224 26.684 26.5943 26.9457 26.3382C27.2075 26.0822 27.3384 25.7678 27.3384 25.3953V18.6047C27.3384 18.2322 27.2075 17.9178 26.9457 17.6617C26.684 17.4057 26.3627 17.2776 25.9818 17.2776H19.0404C18.6595 17.2776 18.3382 17.4057 18.0764 17.6617C17.8147 17.9178 17.6838 18.2322 17.6838 18.6047V25.3953C17.6838 25.7678 17.8147 26.0822 18.0764 26.3382C18.3382 26.5943 18.6595 26.7224 19.0404 26.7224ZM22.5111 33.9038C20.8234 33.9038 19.2398 33.5915 17.7604 32.967C16.2808 32.3424 14.9938 31.4949 13.8994 30.4245C12.8052 29.3539 11.9389 28.0949 11.3004 26.6474C10.662 25.2002 10.3428 23.651 10.3428 22C10.3428 20.349 10.662 18.7998 11.3004 17.3526C11.9389 15.9051 12.8052 14.6461 13.8994 13.5755C14.9938 12.5051 16.2808 11.6576 17.7604 11.033C19.2398 10.4085 20.8234 10.0962 22.5111 10.0962C24.1988 10.0962 25.7824 10.4085 27.2618 11.033C28.7414 11.6576 30.0284 12.5051 31.1228 13.5755C32.217 14.6461 33.0833 15.9051 33.7218 17.3526C34.3602 18.7998 34.6794 20.349 34.6794 22C34.6794 23.651 34.3602 25.2002 33.7218 26.6474C33.0833 28.0949 32.217 29.3539 31.1228 30.4245C30.0284 31.4949 28.7414 32.3424 27.2618 32.967C25.7824 33.5915 24.1988 33.9038 22.5111 33.9038Z" fill="white"/>
  </g>
</svg>
