<svg width="45" height="44" viewBox="0 0 45 44" fill="none" xmlns="http://www.w3.org/2000/svg">
  <ellipse cx="22.5111" cy="22" rx="22.4889" ry="22" fill="#3F7DD8"/>
  <path d="M20.2075 37.5781C19.8075 37.4719 19.3973 37.3965 19.01 37.2535C17.2144 36.5926 15.9577 34.7185 15.9704 32.754C15.9736 32.2451 16.3163 31.8622 16.7934 31.8333C17.2329 31.8064 17.6399 32.1409 17.6819 32.6241C17.7316 33.1946 17.8087 33.7474 18.096 34.251C18.7642 35.4227 20.0871 36.0221 21.3324 35.7126C22.6828 35.3768 23.5949 34.2536 23.6497 32.8031C23.6835 31.912 23.7364 31.0287 23.9421 30.1593C24.2931 28.6754 25.0052 27.3934 26.0084 26.2833C26.6486 25.5744 27.3282 24.9036 27.9767 24.202C28.7544 23.3614 29.2589 22.3817 29.4436 21.2198C29.9507 18.0212 28.3028 14.7301 25.4651 13.3249C21.9554 11.5872 17.8469 12.9269 15.9532 16.4376C15.4067 17.4507 15.1162 18.5464 15.0742 19.7084C15.0684 19.8651 15.0697 20.0244 15.0398 20.1765C14.9468 20.6473 14.5544 20.9313 14.0862 20.8821C13.6614 20.8375 13.3365 20.4696 13.3352 20.0067C13.3327 18.7169 13.5811 17.4776 14.09 16.2993C14.9041 14.4114 16.1921 12.9577 17.9374 11.9472C19.4183 11.0895 21.019 10.7046 22.7185 10.7945C24.9676 10.9131 26.9097 11.782 28.5264 13.3905C29.9602 14.8167 30.8373 16.555 31.1399 18.5884C31.3654 20.1038 31.287 21.5962 30.7475 23.0427C30.322 24.1837 29.5768 25.0918 28.7576 25.9495C28.1761 26.5587 27.5837 27.16 27.0371 27.8019C25.9231 29.1101 25.4294 30.6701 25.4014 32.3913C25.3874 33.2477 25.2918 34.0792 24.9071 34.851C24.1548 36.3591 22.965 37.2522 21.3382 37.5283C21.2821 37.5381 21.228 37.5624 21.1732 37.5801H20.2069L20.2075 37.5781Z" fill="white"/>
  <path d="M19.4574 21.3932C20.1906 21.5184 20.8575 21.7853 21.4148 22.283C22.6238 23.3623 23.0907 24.7308 22.7066 26.3235C22.3149 27.9471 21.267 28.9536 19.667 29.3005C18.7376 29.5018 17.851 29.3346 17.0184 28.8612C16.5719 28.6068 16.3993 28.1051 16.6114 27.6612C16.8242 27.216 17.3204 27.0291 17.7771 27.2671C18.423 27.6035 19.0701 27.6979 19.7581 27.4225C20.6231 27.077 21.1849 26.0999 21.0734 25.1137C20.9619 24.1256 20.1976 23.2987 19.2791 23.182C19.0784 23.1564 18.8746 23.1577 18.672 23.1544C18.1465 23.1459 17.7892 22.8449 17.7573 22.3079C17.7076 21.4732 17.6102 20.6273 17.6834 19.8004C17.9128 17.2142 19.7077 15.3723 21.9715 15.011C24.7105 14.5736 27.1724 16.4556 27.6966 19.1008C27.7623 19.4319 27.7871 19.7742 27.7986 20.1125C27.8158 20.6142 27.4731 21.005 27.0189 21.0378C26.5316 21.0725 26.138 20.7591 26.0889 20.245C26.0386 19.7132 25.9838 19.1906 25.7558 18.7001C25.1296 17.3519 23.7003 16.5395 22.32 16.7559C20.8154 16.992 19.6625 18.1264 19.4695 19.6384C19.3963 20.2115 19.4574 20.8024 19.4574 21.3945V21.3932Z" fill="white"/>
  <path d="M29.5494 9.637C29.1462 9.45143 28.8041 9.78847 28.785 10.3891C28.7659 10.9898 29.0761 11.6232 29.4787 11.8127L29.4889 11.8173C29.4991 11.8219 29.5176 11.8317 29.5437 11.8474C29.5965 11.8776 29.6762 11.9235 29.7774 11.9937C29.9825 12.1327 30.2673 12.3543 30.58 12.6822C31.1979 13.3241 31.9068 14.3549 32.3323 15.9706C32.496 16.5923 32.9273 17.0113 33.2974 16.9077C33.6674 16.8047 33.8337 16.2191 33.67 15.5975C33.0598 13.2795 32.026 11.7812 31.1603 10.8803C30.7304 10.4311 30.338 10.1255 30.0539 9.93339C29.9087 9.83438 29.7921 9.76552 29.7055 9.71766C29.6628 9.69208 29.6271 9.67569 29.6016 9.66389C29.5883 9.65602 29.5781 9.65143 29.5698 9.64618L29.5596 9.64159L29.5545 9.63897H29.5526C29.5526 9.63897 29.5526 9.63897 29.5182 10.7275L29.5494 9.637Z" fill="white"/>
  <path d="M31.4639 6.09338C30.9837 5.79109 30.6168 6.24682 30.6442 7.11237C30.6715 7.97793 31.0818 8.91889 31.5614 9.22708L31.5735 9.23495C31.5856 9.24282 31.6079 9.25855 31.6391 9.28282C31.7028 9.33134 31.7977 9.40412 31.9207 9.51363C32.1684 9.73199 32.5156 10.0769 32.9029 10.5766C33.6679 11.5569 34.5705 13.1063 35.194 15.4735C35.4342 16.3843 35.9654 17.0262 36.3839 16.9095C36.8018 16.7928 36.9457 15.9627 36.7062 15.0512C35.8119 11.6539 34.4959 9.40216 33.4239 8.02711C32.8908 7.34122 32.4137 6.86713 32.0703 6.56485C31.8952 6.40944 31.7544 6.29928 31.6506 6.22321C31.599 6.18256 31.5569 6.15567 31.5264 6.13666C31.5104 6.1242 31.4983 6.11699 31.4888 6.10846L31.4767 6.10059L31.4703 6.09666H31.4678C31.4678 6.09666 31.4678 6.09732 31.5174 7.66384L31.4639 6.09273V6.09338Z" fill="white"/>
</svg>
