<svg width="40" height="40" viewBox="0 0 40 40" fill="none" xmlns="http://www.w3.org/2000/svg">
  <path
    d="M20.4875 32.2175L7.7625 19.5029C7.03083 18.771 6.665 17.9079 6.665 16.9137C6.665 15.9199 7.03083 15.0569 7.7625 14.325L14.325 7.7625C15.0569 7.03083 15.9199 6.665 16.9137 6.665C17.9079 6.665 18.771 7.03083 19.5029 7.7625L32.2175 20.4875C32.9428 21.2125 33.3054 22.0737 33.3054 23.0712C33.3054 24.0685 32.9428 24.9297 32.2175 25.655L25.655 32.2175C24.9297 32.9428 24.0685 33.3054 23.0713 33.3054C22.0737 33.3054 21.2125 32.9428 20.4875 32.2175ZM23.0663 29.4917L29.4917 23.0662L16.9137 10.4883L10.4883 16.9137L23.0663 29.4917ZM23.7 3.90417L26.5896 6.79333C26.9151 7.11889 27.0762 7.52778 27.0729 8.02C27.0696 8.51222 26.9051 8.92097 26.5796 9.24625C26.2543 9.57181 25.8456 9.73458 25.3533 9.73458C24.8611 9.73458 24.4522 9.57181 24.1267 9.24625L17.0138 2.14292C16.6671 1.79653 16.5718 1.39681 16.7279 0.943751C16.8843 0.490695 17.204 0.221668 17.6871 0.136668C18.0846 0.0800012 18.4706 0.0430554 18.845 0.0258331C19.2194 0.00861091 19.6044 0 20 0C22.75 0 25.3403 0.520833 27.7708 1.5625C30.2014 2.60417 32.3264 4.03472 34.1458 5.85417C35.9653 7.67361 37.3958 9.79861 38.4375 12.2292C39.4792 14.6597 40 17.25 40 20C40 20.4919 39.8336 20.9043 39.5008 21.2371C39.1681 21.5699 38.7556 21.7363 38.2633 21.7363C37.7714 21.7363 37.3574 21.5699 37.0213 21.2371C36.6851 20.9043 36.5171 20.4919 36.5171 20C36.5171 18.0817 36.2004 16.2444 35.5671 14.4883C34.9335 12.7322 34.0514 11.1453 32.9208 9.7275C31.79 8.30945 30.44 7.09514 28.8708 6.08458C27.3017 5.07403 25.5781 4.34722 23.7 3.90417ZM16.3 36.0958L13.4104 33.2067C13.0849 32.8811 12.9237 32.4722 12.9271 31.98C12.9304 31.4878 13.0949 31.079 13.4204 30.7537C13.7457 30.4282 14.1544 30.2654 14.6467 30.2654C15.1389 30.2654 15.5478 30.4282 15.8733 30.7537L22.9862 37.8571C23.3329 38.2035 23.4282 38.6092 23.2721 39.0742C23.116 39.5392 22.7951 39.8028 22.3096 39.865C21.9143 39.9206 21.5294 39.9569 21.155 39.9742C20.7806 39.9914 20.3956 40 20 40C17.25 40 14.6597 39.4792 12.2292 38.4375C9.79861 37.3958 7.67361 35.9653 5.85417 34.1458C4.03472 32.3264 2.60417 30.2014 1.5625 27.7708C0.520833 25.3403 0 22.75 0 20C0 19.5053 0.167361 19.0906 0.502083 18.7558C0.836806 18.4211 1.25153 18.2537 1.74625 18.2537C2.23819 18.2537 2.65069 18.4211 2.98375 18.7558C3.31653 19.0906 3.48292 19.5053 3.48292 20C3.48292 21.9183 3.79958 23.7556 4.43292 25.5117C5.06653 27.2678 5.94861 28.8547 7.07917 30.2725C8.21 31.6906 9.56 32.9049 11.1292 33.9154C12.6983 34.926 14.4219 35.6528 16.3 36.0958Z"
    fill="#1C1B1F"/>
</svg>
